<svg xmlns="http://www.w3.org/2000/svg" xmlns:xlink="http://www.w3.org/1999/xlink" id="svg602" width="48" height="48.4" enable-background="new 0 0 48 48.4" overflow="visible" viewBox="0 0 48 48.4" xml:space="preserve"><g id="Layer_1"><g id="g606"><g id="g607"><g id="path668" nodetypes="cccccccccccccc"><radialGradient id="XMLID_1_" cx="-169.419" cy="427.239" r=".113" fx="-169.419" fy="427.239" gradientTransform="matrix(101.3323 0 0 -243.5823 17188.6641 104112.9766)" gradientUnits="userSpaceOnUse"><stop style="stop-color:#a6002f" id="stop610" offset="0"/><stop style="stop-color:#200" id="stop611" offset="1"/></radialGradient><path id="path615" fill="url(#XMLID_1_)" d="M12.5,17.6c3-0.5-4.5-4.8,0.6,1.3c3.6,5.7-7.3,10.5-7.7,14.6 c-0.9,7,7.5,9.5,7.5,9.5l-0.7-2.1l4.3,3.5l-4.8,2.9l1.2-2.1c0-0.2,0,0,0-0.2C9.2,44.8-0.2,39.3,2.1,32.6 c2.2-5.8,10.7-10.4,7.3-15.1c-3.4-4.7,10.4-5.1-0.1-0.1c-1.3-13,6.7,0.8,3.7,1.3C13.8,13.8,14.9,18.3,12.5,17.6z"/><path id="path616" fill="none" stroke="#210700" stroke-linejoin="round" stroke-width="1.504" d="M12.5,17.6c3-0.5-4.5-4.8,0.6,1.3c3.6,5.7-7.3,10.5-7.7,14.6c-0.9,7,7.5,9.5,7.5,9.5l-0.7-2.1l4.3,3.5l-4.8,2.9l1.2-2.1 c0-0.2,0,0,0-0.2C9.2,44.8-0.2,39.3,2.1,32.6c2.2-5.8,10.7-10.4,7.3-15.1c-3.4-4.7,10.4-5.1-0.1-0.1c-1.3-13,6.7,0.8,3.7,1.3 C13.8,13.8,14.9,18.3,12.5,17.6z" opacity=".152"/></g><g id="path667" nodetypes="cccccccccccccc"><radialGradient id="XMLID_2_" cx="-169.379" cy="427.242" r=".113" fx="-169.379" fy="427.242" gradientTransform="matrix(104.5895 0 0 -242.3495 17736.4219 103587.8125)" gradientUnits="userSpaceOnUse"><stop style="stop-color:#a6002f" id="stop619" offset="0"/><stop style="stop-color:#200" id="stop620" offset="1"/></radialGradient><path id="path624" fill="url(#XMLID_2_)" d="M12.3,17.8C15.4,17.3,7.7,13,13,19c3.7,5.6-7.5,10.5-8,14.5 c-0.9,6.9,7.7,9.4,7.7,9.4L12,40.9l4.4,3.4l-4.9,2.9l1.2-2c0-0.2,0,0,0-0.2C9,44.8-0.8,39.3,1.7,32.7 c2.3-5.8,11-10.4,7.6-15.1c-3.5-4.7,10.7-5-0.1-0.1C7.8,4.6,16,18.4,13,18.8C13.7,14,14.8,18.5,12.3,17.8z"/><path id="path625" fill="none" stroke="#210700" stroke-linejoin="round" stroke-width="2.439" d="M12.3,17.8C15.4,17.3,7.7,13,13,19c3.7,5.6-7.5,10.5-8,14.5c-0.9,6.9,7.7,9.4,7.7,9.4L12,40.9l4.4,3.4l-4.9,2.9l1.2-2 c0-0.2,0,0,0-0.2C9,44.8-0.8,39.3,1.7,32.7c2.3-5.8,11-10.4,7.6-15.1c-3.5-4.7,10.7-5-0.1-0.1C7.8,4.6,16,18.4,13,18.8 C13.7,14,14.8,18.5,12.3,17.8z" opacity=".152"/></g><radialGradient id="path665_1_" cx="-168.748" cy="426.809" r=".114" fx="-168.748" fy="426.809" gradientTransform="matrix(101.3323 0 0 -243.5823 17109.1016 103990.4766)" gradientUnits="userSpaceOnUse"><stop style="stop-color:#a6002f" id="stop627" offset="0"/><stop style="stop-color:#200" id="stop628" offset="1"/></radialGradient><path id="path665" fill="url(#path665_1_)" stroke="#6E0700" stroke-linejoin="round" stroke-width=".577" d="M13.1,18.9c3.6,5.7-7.3,10.5-7.7,14.6c-0.9,7,7.5,9.5,7.5,9.5l-0.7-2.1l4.3,3.5l-4.8,2.9l1.2-2.1c0-0.2,0,0,0-0.2 C9.2,44.8-0.2,39.3,2.1,32.6c2.2-5.8,10.7-10.4,7.3-15.1c-3.4-4.7,10.4-5.1-0.1-0.1c-1.3-13,6.7,0.8,3.7,1.3 C13.8,13.8,8,12.8,13.1,18.9z" nodetypes="cccccccccccccc"/></g><path id="path597_5_" fill="none" stroke="#474000" stroke-width="1.882" d="M6.6,20.5c0-10.7,8-19.3,17.8-19.3c9.8,0,18.4,8.1,18.4,18.7c0,10.7-8.6,19.9-18.4,19.9C14.6,39.8,6.6,31.2,6.6,20.5z" enable-background="new" opacity=".15"/><path id="path597_4_" fill="none" stroke="#474000" stroke-width=".941" d="M6.6,20.5c0-10.7,8-19.3,17.8-19.3c9.8,0,18.4,8.1,18.4,18.7c0,10.7-8.6,19.9-18.4,19.9C14.6,39.8,6.6,31.2,6.6,20.5z" enable-background="new" opacity=".2"/><path id="path597_3_" fill="none" stroke="#474000" stroke-width=".47" d="M6.6,20.5c0-10.7,8-19.3,17.8-19.3c9.8,0,18.4,8.1,18.4,18.7c0,10.7-8.6,19.9-18.4,19.9C14.6,39.8,6.6,31.2,6.6,20.5z" enable-background="new" opacity=".3"/><radialGradient id="path700_1_" cx="-679.03" cy="-1.481" r=".064" fx="-679.03" fy="-1.481" gradientTransform="matrix(310.7065 0 0 144.1183 211004.8281 255.4235)" gradientUnits="userSpaceOnUse"><stop style="stop-color:#261700" id="stop637" offset="0"/><stop style="stop-color:#d2d2d2" id="stop638" offset="1"/></radialGradient><path id="path700" fill="url(#path700_1_)" d="M38.9,31.1c6.5,4.5,6,10.6-1.9,14.3c-7.9,3.7-19.5,3.1-25.9-1.5c-5.5-3.8-5.7-9.1-0.5-13.1c3.4,4.7,6.2,6.3,14,7.3 C31.1,38,35.3,35.1,38.9,31.1z" enable-background="new" opacity=".3"/><radialGradient id="path597_1_" cx="-145.644" cy="393.967" r="36.154" fx="-145.644" fy="393.967" gradientTransform="matrix(1 0 0 -1 170.1553 426.2695)" gradientUnits="userSpaceOnUse"><stop style="stop-color:#ff0" id="stop644" offset="0"/><stop style="stop-color:#ffe100" id="stop645" offset=".092"/><stop style="stop-color:#ff9200" id="stop646" offset=".348"/><stop style="stop-color:#ff5300" id="stop647" offset=".576"/><stop style="stop-color:#ff2600" id="stop648" offset=".767"/><stop style="stop-color:#ff0a00" id="stop649" offset=".914"/><stop style="stop-color:red" id="stop650" offset="1"/></radialGradient><path id="path597" fill="url(#path597_1_)" d="M6.6,20.5c0-10.7,8-19.3,17.8-19.3c9.9,0,18.4,8,18.4,18.7 c0,10.7-8.6,19.9-18.4,19.9C14.6,39.8,6.6,31.2,6.6,20.5z"/><radialGradient id="path597_6_" cx="-144.31" cy="422.634" r="30.674" fx="-144.31" fy="422.634" gradientTransform="matrix(1 0 0 -1 170.1553 426.2695)" gradientUnits="userSpaceOnUse"><stop style="stop-color:#ffffb1" id="stop666" offset="0"/><stop style="stop-color:#ffeca4" id="stop667" offset=".035"/><stop style="stop-color:#ffb57e" id="stop668" offset=".144"/><stop style="stop-color:#ff855c" id="stop669" offset=".258"/><stop style="stop-color:#ff5c40" id="stop670" offset=".372"/><stop style="stop-color:#ff3b29" id="stop671" offset=".489"/><stop style="stop-color:#ff2117" id="stop672" offset=".608"/><stop style="stop-color:#ff0e0a" id="stop673" offset=".73"/><stop style="stop-color:#ff0402" id="stop674" offset=".858"/><stop style="stop-color:red" id="stop675" offset="1"/></radialGradient><path id="path597_2_" fill="url(#path597_6_)" d="M13.2,8.1c0-3.8,5-6.9,11.1-6.9c6.1,0,11.4,2.9,11.4,6.7 C35.7,11.7,13.2,11.9,13.2,8.1z"/><rect id="rect662" width="48" height="48" fill="none"/><g id="path643_1_" nodetypes="cs"><path id="path698" fill="none" stroke="#000" stroke-linecap="round" stroke-width="2.091" d="M12,29.5c4.6,9,19.6,8.8,24.8,0.3" opacity=".033"/></g><radialGradient id="path630_1_" cx="-164.808" cy="426.598" r=".088" fx="-164.808" fy="426.598" gradientTransform="matrix(-47.8028 0 0 -58.6806 -7845.9834 25052.2852)" gradientUnits="userSpaceOnUse"><stop style="stop-color:#dee2e7" id="stop700" offset="0"/><stop style="stop-color:#fff" id="stop701" offset="1"/></radialGradient><path id="path630" cx="50.247" cy="478.41" fill="url(#path630_1_)" stroke="#7C5202" d="M30,18.5c0-2.1,1.4-3.9,3.2-3.9c1.7,0,3.2,1.7,3.2,3.9c0,0,0,0,0,0c0,2.1-1.4,3.9-3.2,3.9C31.4,22.4,30,20.7,30,18.5 C30,18.5,30,18.5,30,18.5z" rx="24.525" ry="34.993" type="arc"/><radialGradient id="path637_1_" cx="-159.627" cy="426.856" r=".082" fx="-159.627" fy="426.856" gradientTransform="matrix(-19.9085 0 0 -30.5783 -3144.7751 13070.4414)" gradientUnits="userSpaceOnUse"><stop style="stop-color:#000082" id="stop707" offset="0"/><stop style="stop-color:#000" id="stop708" offset="1"/></radialGradient><path id="path637" cx="61.649" cy="495.829" fill="url(#path637_1_)" d="M31.4,18.9c0-1.1,0.6-2,1.3-2c0.7,0,1.3,0.9,1.3,2c0,0,0,0,0,0c0,1.1-0.6,2-1.3,2C32,20.9,31.4,20,31.4,18.9 C31.4,18.9,31.4,18.9,31.4,18.9z" rx="10.469" ry="10.892" type="arc"/><path id="path639_1_" fill="none" stroke="#795000" stroke-linecap="round" stroke-width="1.8" d="M13.2,28.8c4.1,7.9,17.6,7.7,22.3,0.3" nodetypes="cs"/><path id="path640" fill="none" stroke="#000" stroke-linecap="round" stroke-width="3.253" d="M13.1,28.8c4.1,8.1,17.6,7.9,22.3,0.3" nodetypes="cs" opacity=".2"/><radialGradient id="path650_2_" cx="-170.095" cy="426.598" r=".088" fx="-170.095" fy="426.598" gradientTransform="matrix(47.8028 0 0 -58.6806 8147.7354 25052.2852)" gradientUnits="userSpaceOnUse"><stop style="stop-color:#dee2e7" id="stop716" offset="0"/><stop style="stop-color:#fff" id="stop717" offset="1"/></radialGradient><path id="path650_1_" cx="50.247" cy="478.41" fill="url(#path650_2_)" stroke="#7C3902" d="M19,18.5c0-2.1-1.4-3.9-3.2-3.9c-1.7,0-3.2,1.7-3.2,3.9c0,0,0,0,0,0c0,2.1,1.4,3.9,3.2,3.9C17.6,22.4,19,20.7,19,18.5 C19,18.5,19,18.5,19,18.5z" rx="24.525" ry="34.993" type="arc"/><radialGradient id="path656_2_" cx="-172.4" cy="426.856" r=".082" fx="-172.4" fy="426.856" gradientTransform="matrix(19.9085 0 0 -30.5783 3448.2458 13070.4414)" gradientUnits="userSpaceOnUse"><stop style="stop-color:#000082" id="stop723" offset="0"/><stop style="stop-color:#000" id="stop724" offset="1"/></radialGradient><path id="path656_1_" cx="61.649" cy="495.829" fill="url(#path656_2_)" d="M17.9,18.9c0-1.1-0.6-2-1.3-2c-0.7,0-1.3,0.9-1.3,2c0,0,0,0,0,0c0,1.1,0.6,2,1.3,2C17.3,20.9,17.9,20,17.9,18.9 C17.9,18.9,17.9,18.9,17.9,18.9z" rx="10.469" ry="10.892" type="arc"/><linearGradient id="path647_1_" x1="-169.524" x2="-169.462" y1="425.207" y2="425.133" gradientTransform="matrix(45.7106 0 0 -62.9194 7757.5396 26754.2969)" gradientUnits="userSpaceOnUse"><stop style="stop-color:#a6002f" id="stop730" offset="0"/><stop style="stop-color:#200" id="stop731" offset="1"/></linearGradient><path id="path647" fill="url(#path647_1_)" stroke="#870000" stroke-linecap="round" stroke-linejoin="round" stroke-width=".71" d="M11.3,8.7c-1.1-6.5-3.5-7.8-3.3-8.2c0.6-0.7,3,0.8,6,5.7C13,6.3,11.7,7.4,11.3,8.7z"/><radialGradient id="path648_2_" cx="-169.49" cy="425.852" r=".057" fx="-169.49" fy="425.852" gradientTransform="matrix(67.292 -50.96 -27.3576 -43.3091 23069.6211 9813.8955)" gradientUnits="userSpaceOnUse"><stop style="stop-color:#000" id="stop737" offset="0"/><stop style="stop-color:#000" id="stop738" offset="1"/></radialGradient><path id="path648_1_" cx="193.723" cy="512.645" fill="url(#path648_2_)" d="M18.1,5.5c-1-1.6-3.8-1.4-6.2,0.5c-2.5,1.9-3.6,4.6-2.6,6.2c0,0,0,0,0,0c1,1.6,3.8,1.4,6.2-0.5C17.9,9.9,19.1,7.1,18.1,5.5 C18.1,5.5,18.1,5.5,18.1,5.5z" opacity=".18" rx="53.295" ry="31.3" type="arc"/><linearGradient id="path663_1_" x1="-173.434" x2="-173.371" y1="425.238" y2="425.164" gradientTransform="matrix(45.7105 0 0 -62.9194 7963.8921 26755.9844)" gradientUnits="userSpaceOnUse"><stop style="stop-color:#a6002f" id="stop744" offset="0"/><stop style="stop-color:#200" id="stop745" offset="1"/></linearGradient><path id="path663" fill="url(#path663_1_)" stroke="#870000" stroke-linecap="round" stroke-linejoin="round" stroke-width=".71" d="M37.8,9c1.1-6.5,3.5-7.8,3.3-8.2c-0.6-0.7-3,0.8-6,5.7C36.2,6.5,37.4,7.6,37.8,9z"/><radialGradient id="path664_1_" cx="-166.92" cy="422.845" r=".057" fx="-166.92" fy="422.845" gradientTransform="matrix(-67.292 -50.96 27.3576 -43.3091 -22765.1836 9815.583)" gradientUnits="userSpaceOnUse"><stop style="stop-color:#000" id="stop751" offset="0"/><stop style="stop-color:#000" id="stop752" offset="1"/></radialGradient><path id="path664" cx="193.723" cy="512.645" fill="url(#path664_1_)" d="M31.3,5.8c1-1.6,3.8-1.4,6.2,0.5c2.5,1.9,3.6,4.6,2.6,6.2c0,0,0,0,0,0c-1,1.6-3.8,1.4-6.2-0.5C31.5,10.1,30.3,7.3,31.3,5.8 C31.3,5.8,31.3,5.8,31.3,5.8z" opacity=".2" rx="53.295" ry="31.3" type="arc"/></g></g></svg>