<svg xmlns="http://www.w3.org/2000/svg" xmlns:xlink="http://www.w3.org/1999/xlink" id="svg602" width="48" height="48.7" enable-background="new 0 0 48 48.7" overflow="visible" viewBox="0 0 48 48.7" xml:space="preserve"><g id="Layer_1"><g id="g606"><path id="path597_5_" fill="none" stroke="#474000" stroke-width="1.882" d="M5.6,20.2c0-10.7,8-19.3,17.8-19.3c9.8,0,18.4,8.1,18.4,18.7c0,10.7-8.6,19.9-18.4,19.9C13.6,39.5,5.6,30.9,5.6,20.2z" enable-background="new" opacity=".15"/><path id="path597_4_" fill="none" stroke="#474000" stroke-width=".941" d="M5.6,20.2c0-10.7,8-19.3,17.8-19.3c9.8,0,18.4,8.1,18.4,18.7c0,10.7-8.6,19.9-18.4,19.9C13.6,39.5,5.6,30.9,5.6,20.2z" enable-background="new" opacity=".2"/><path id="path597_3_" fill="none" stroke="#474000" stroke-width=".47" d="M5.6,20.2c0-10.7,8-19.3,17.8-19.3c9.8,0,18.4,8.1,18.4,18.7c0,10.7-8.6,19.9-18.4,19.9C13.6,39.5,5.6,30.9,5.6,20.2z" enable-background="new" opacity=".3"/><radialGradient id="path700_1_" cx="-679.571" cy="-.74" r=".064" fx="-679.571" fy="-.74" gradientTransform="matrix(310.7065 0 0 144.1183 211172.2188 149.3426)" gradientUnits="userSpaceOnUse"><stop style="stop-color:#261700" id="stop611" offset="0"/><stop style="stop-color:#d2d2d2" id="stop612" offset="1"/></radialGradient><path id="path700" fill="url(#path700_1_)" d="M37.9,31.8c6.5,4.5,6,10.6-1.9,14.3c-7.9,3.7-19.5,3.1-25.9-1.5c-5.5-3.8-5.7-9.1-0.5-13.1c3.4,4.7,6.2,6.3,14,7.3 C30.1,38.7,34.3,35.8,37.9,31.8z" enable-background="new" opacity=".3"/><radialGradient id="path577_1_" cx="-638.496" cy="42.772" r="41.557" fx="-638.496" fy="42.772" gradientTransform="matrix(298.9032 0 0 316.3969 203151.1563 -98.4275)" gradientUnits="userSpaceOnUse"><stop style="stop-color:#ff6f00" id="stop618" offset="0"/><stop style="stop-color:#ff0" id="stop619" offset="1"/></radialGradient><circle id="path577" cx="23.9" cy="20.4" r="17.8" fill="url(#path577_1_)"/><linearGradient id="path597_1_" x1="-679.565" x2="-679.567" y1=".318" y2=".437" gradientTransform="matrix(303.6933 0 0 316.3967 206403.3125 -98.1642)" gradientUnits="userSpaceOnUse"><stop style="stop-color:#ff6500" id="stop625" offset="0"/><stop style="stop-color:#ff0" id="stop626" offset="1"/></linearGradient><path id="path597" fill="url(#path597_1_)" d="M5.6,20.2c0-10.7,8-19.3,17.8-19.3c9.9,0,18.4,8,18.4,18.7c0,10.7-8.6,19.9-18.4,19.9C13.6,39.5,5.6,30.9,5.6,20.2z" enable-background="new" opacity=".75"/><radialGradient id="path597_6_" cx="-486.406" cy="426.746" r="20.235" fx="-486.406" fy="426.746" gradientTransform="matrix(1 0 0 -1 509.7773 427.6934)" gradientUnits="userSpaceOnUse"><stop style="stop-color:#fff" id="stop632" offset="0"/><stop style="stop-color:#fffefa" id="stop633" offset=".105"/><stop style="stop-color:#fffbec" id="stop634" offset=".228"/><stop style="stop-color:#fff7d4" id="stop635" offset=".362"/><stop style="stop-color:#fff1b2" id="stop636" offset=".502"/><stop style="stop-color:#ffe988" id="stop637" offset=".647"/><stop style="stop-color:#ffdf53" id="stop638" offset=".798"/><stop style="stop-color:#ffd316" id="stop639" offset=".949"/><stop style="stop-color:#ffcf00" id="stop640" offset="1"/></radialGradient><path id="path597_2_" fill="url(#path597_6_)" d="M12.2,7.8c0-3.8,5-6.9,11.1-6.9c6.1,0,11.4,2.9,11.4,6.7C34.7,11.4,12.2,11.6,12.2,7.8z" enable-background="new" opacity=".75"/><rect id="rect662" width="48" height="48" y=".7" fill="none"/><g id="g660"><g id="g661"><radialGradient id="path630_1_" cx="-165.901" cy="427.22" r=".134" fx="-165.901" fy="427.22" gradientTransform="matrix(-47.8028 0 0 -73.2626 -7898.3047 31318.1973)" gradientUnits="userSpaceOnUse"><stop style="stop-color:#dee2e7" id="stop663" offset="0"/><stop style="stop-color:#fff" id="stop664" offset="1"/></radialGradient><path id="path630" cx="50.247" cy="478.41" fill="url(#path630_1_)" stroke="#7C5202" stroke-width=".825" d="M28.7,17.4c0-4,2.1-7.3,4.8-7.3c2.6,0,4.8,3.3,4.8,7.3c0,0,0,0,0,0c0,4-2.1,7.3-4.8,7.3C30.8,24.7,28.7,21.4,28.7,17.4 C28.7,17.4,28.7,17.4,28.7,17.4z" rx="24.525" ry="34.993" type="arc"/><g id="path631" cx="50.097" cy="476.765" rx="28.862" ry="41.424" type="arc"><path id="path670" fill="none" stroke="#000" stroke-width=".75" d="M27.9,17.3 c0-4.5,2.5-8.1,5.5-8.1c3.1,0,5.5,3.6,5.5,8.1c0,0,0,0,0,0c0,4.5-2.5,8.1-5.5,8.1C30.4,25.4,27.9,21.8,27.9,17.3 C27.9,17.3,27.9,17.3,27.9,17.3z" opacity=".038"/></g><g id="path632" cx="50.097" cy="476.765" rx="28.862" ry="41.424" type="arc"><path id="path672" fill="none" stroke="#000" stroke-width="2.608" d="M27.9,17.3 c0-4.4,2.5-8,5.5-8c3.1,0,5.5,3.6,5.5,8c0,0,0,0,0,0c0,4.4-2.5,8-5.5,8C30.4,25.4,27.9,21.8,27.9,17.3 C27.9,17.3,27.9,17.3,27.9,17.3z" opacity=".014"/></g><g id="path633" cx="50.097" cy="476.765" rx="28.862" ry="41.424" type="arc"><path id="path674" fill="none" stroke="#000" stroke-width="1.648" d="M27.9,17.3 c0-4.4,2.5-8,5.5-8c3.1,0,5.5,3.6,5.5,8c0,0,0,0,0,0c0,4.4-2.5,8-5.5,8C30.4,25.4,27.9,21.8,27.9,17.3 C27.9,17.3,27.9,17.3,27.9,17.3z" opacity=".014"/></g><g id="path634" cx="50.097" cy="476.765" rx="28.862" ry="41.424" type="arc"><path id="path676" fill="none" stroke="#000" stroke-width=".568" d="M27.9,17.3 c0-4.4,2.5-8,5.5-8c3.1,0,5.5,3.6,5.5,8c0,0,0,0,0,0c0,4.4-2.5,8-5.5,8C30.4,25.4,27.9,21.8,27.9,17.3 C27.9,17.3,27.9,17.3,27.9,17.3z" opacity=".014"/></g><g id="path635" cx="50.097" cy="476.765" rx="28.862" ry="41.424" type="arc"><path id="path678" fill="none" stroke="#000" stroke-width=".285" d="M28.2,17.3 c0-4.4,2.4-7.9,5.3-7.9s5.3,3.5,5.3,7.9c0,0,0,0,0,0c0,4.4-2.4,7.9-5.3,7.9C30.5,25.3,28.2,21.7,28.2,17.3 C28.2,17.3,28.2,17.3,28.2,17.3z" opacity=".152"/></g><radialGradient id="path637_1_" cx="-161.227" cy="427.312" r=".124" fx="-161.227" fy="427.312" gradientTransform="matrix(-19.9085 0 0 -23.3843 -3176.4636 10008.1807)" gradientUnits="userSpaceOnUse"><stop style="stop-color:#000082" id="stop680" offset="0"/><stop style="stop-color:#000" id="stop681" offset="1"/></radialGradient><path id="path637" cx="61.649" cy="495.829" fill="url(#path637_1_)" d="M30.6,17.1c0-1.3,0.9-2.3,2-2.3c1.1,0,2,1,2,2.3c0,0,0,0,0,0c0,1.3-0.9,2.3-2,2.3S30.6,18.4,30.6,17.1 C30.6,17.1,30.6,17.1,30.6,17.1z" rx="10.469" ry="10.892" type="arc"/></g><radialGradient id="path650_1_" cx="-170.584" cy="427.22" r=".134" fx="-170.584" fy="427.22" gradientTransform="matrix(47.8028 0 0 -73.2626 8169.1094 31318.1973)" gradientUnits="userSpaceOnUse"><stop style="stop-color:#dee2e7" id="stop687" offset="0"/><stop style="stop-color:#fff" id="stop688" offset="1"/></radialGradient><path id="path650" cx="50.247" cy="478.41" fill="url(#path650_1_)" stroke="#7C3902" stroke-width=".825" d="M18.1,17.4c0-4-2.1-7.3-4.8-7.3c-2.6,0-4.8,3.3-4.8,7.3c0,0,0,0,0,0c0,4,2.1,7.3,4.8,7.3C16,24.7,18.1,21.4,18.1,17.4 C18.1,17.4,18.1,17.4,18.1,17.4z" rx="24.525" ry="34.993" type="arc"/><g id="path651" cx="50.097" cy="476.765" rx="28.862" ry="41.424" type="arc"><path id="path694" fill="none" stroke="#000" stroke-width=".75" d="M18.9,17.3 c0-4.5-2.5-8.1-5.5-8.1c-3.1,0-5.5,3.6-5.5,8.1c0,0,0,0,0,0c0,4.5,2.5,8.1,5.5,8.1C16.4,25.4,18.9,21.8,18.9,17.3 C18.9,17.3,18.9,17.3,18.9,17.3z" opacity=".038"/></g><g id="path652" cx="50.097" cy="476.765" rx="28.862" ry="41.424" type="arc"><path id="path696" fill="none" stroke="#000" stroke-width="2.608" d="M18.9,17.3 c0-4.4-2.5-8-5.5-8c-3.1,0-5.5,3.6-5.5,8c0,0,0,0,0,0c0,4.4,2.5,8,5.5,8C16.4,25.4,18.9,21.8,18.9,17.3 C18.9,17.3,18.9,17.3,18.9,17.3z" opacity=".014"/></g><g id="path653" cx="50.097" cy="476.765" rx="28.862" ry="41.424" type="arc"><path id="path698" fill="none" stroke="#000" stroke-width="1.648" d="M18.9,17.3 c0-4.4-2.5-8-5.5-8c-3.1,0-5.5,3.6-5.5,8c0,0,0,0,0,0c0,4.4,2.5,8,5.5,8C16.4,25.4,18.9,21.8,18.9,17.3 C18.9,17.3,18.9,17.3,18.9,17.3z" opacity=".014"/></g><g id="path654" cx="50.097" cy="476.765" rx="28.862" ry="41.424" type="arc"><path id="path701" fill="none" stroke="#000" stroke-width=".568" d="M18.9,17.3 c0-4.4-2.5-8-5.5-8c-3.1,0-5.5,3.6-5.5,8c0,0,0,0,0,0c0,4.4,2.5,8,5.5,8C16.4,25.4,18.9,21.8,18.9,17.3 C18.9,17.3,18.9,17.3,18.9,17.3z" opacity=".014"/></g><g id="path655" cx="50.097" cy="476.765" rx="28.862" ry="41.424" type="arc"><path id="path703" fill="none" stroke="#000" stroke-width=".285" d="M18.6,17.3 c0-4.4-2.4-7.9-5.3-7.9C10.4,9.4,8,13,8,17.3c0,0,0,0,0,0c0,4.4,2.4,7.9,5.3,7.9C16.2,25.3,18.6,21.7,18.6,17.3 C18.6,17.3,18.6,17.3,18.6,17.3z" opacity=".152"/></g><radialGradient id="path656_1_" cx="-172.478" cy="427.312" r=".124" fx="-172.478" fy="427.312" gradientTransform="matrix(19.9085 0 0 -23.3843 3447.2371 10008.1807)" gradientUnits="userSpaceOnUse"><stop style="stop-color:#000082" id="stop705" offset="0"/><stop style="stop-color:#000" id="stop706" offset="1"/></radialGradient><path id="path656" cx="61.649" cy="495.829" fill="url(#path656_1_)" d="M16.2,17.1c0-1.3-0.9-2.3-2-2.3c-1.1,0-2,1-2,2.3c0,0,0,0,0,0c0,1.3,0.9,2.3,2,2.3S16.2,18.4,16.2,17.1 C16.2,17.1,16.2,17.1,16.2,17.1z" rx="10.469" ry="10.892" type="arc"/></g><g id="g711"><g id="path649" cx="186.109" cy="677.183" rx="46.527" ry="47.796" type="arc"><radialGradient id="XMLID_1_" cx="-177.509" cy="436.975" r=".127" fx="-177.509" fy="436.975" gradientTransform="matrix(25.3785 0 0 -24.5325 4529.9766 10750.4746)" gradientUnits="userSpaceOnUse"><stop style="stop-color:#6e6d6d" id="stop714" offset="0"/><stop style="stop-color:#000" id="stop715" offset="1"/></radialGradient><path id="path719" fill="url(#XMLID_1_)" d="M28.3,30.4c0-1.7-1.4-3.1-3.2-3.1c-1.8,0-3.2,1.4-3.2,3.1l0,0 c0,1.7,1.4,3.1,3.2,3.1C26.9,33.5,28.3,32.1,28.3,30.4L28.3,30.4z"/><path id="path720" fill="none" stroke="#000" stroke-width="5.231" d="M28.3,30.4 c0-1.7-1.4-3.1-3.2-3.1c-1.8,0-3.2,1.4-3.2,3.1l0,0c0,1.7,1.4,3.1,3.2,3.1C26.9,33.5,28.3,32.1,28.3,30.4L28.3,30.4z" opacity=".05"/></g><g id="path647" cx="186.109" cy="677.183" rx="46.527" ry="47.796" type="arc"><path id="path722" fill="url(#XMLID_1_)" d="M28.3,30.4c0-1.7-1.4-3.1-3.2-3.1c-1.8,0-3.2,1.4-3.2,3.1l0,0 c0,1.7,1.4,3.1,3.2,3.1C26.9,33.5,28.3,32.1,28.3,30.4L28.3,30.4z"/><path id="path723" fill="none" stroke="#000" stroke-width="6.857" d="M28.3,30.4 c0-1.7-1.4-3.1-3.2-3.1c-1.8,0-3.2,1.4-3.2,3.1l0,0c0,1.7,1.4,3.1,3.2,3.1C26.9,33.5,28.3,32.1,28.3,30.4L28.3,30.4z" opacity=".05"/></g><g id="path662" cx="186.109" cy="677.183" rx="46.527" ry="47.796" type="arc"><path id="path725" fill="url(#XMLID_1_)" d="M28.3,30.4c0-1.7-1.4-3.1-3.2-3.1c-1.8,0-3.2,1.4-3.2,3.1l0,0 c0,1.7,1.4,3.1,3.2,3.1C26.9,33.5,28.3,32.1,28.3,30.4L28.3,30.4z"/><path id="path726" fill="none" stroke="#000" stroke-width="3.285" d="M28.3,30.4 c0-1.7-1.4-3.1-3.2-3.1c-1.8,0-3.2,1.4-3.2,3.1l0,0c0,1.7,1.4,3.1,3.2,3.1C26.9,33.5,28.3,32.1,28.3,30.4L28.3,30.4z" opacity=".05"/></g><g id="path663" cx="186.109" cy="677.183" rx="46.527" ry="47.796" type="arc"><path id="path728" fill="url(#XMLID_1_)" d="M28.3,30.4c0-1.7-1.4-3.1-3.2-3.1c-1.8,0-3.2,1.4-3.2,3.1l0,0 c0,1.7,1.4,3.1,3.2,3.1C26.9,33.5,28.3,32.1,28.3,30.4L28.3,30.4z"/><path id="path729" fill="none" stroke="#000" stroke-width="3.732" d="M28.3,30.4 c0-1.7-1.4-3.1-3.2-3.1c-1.8,0-3.2,1.4-3.2,3.1l0,0c0,1.7,1.4,3.1,3.2,3.1C26.9,33.5,28.3,32.1,28.3,30.4L28.3,30.4z" opacity=".05"/></g><g id="path664" cx="186.109" cy="677.183" rx="46.527" ry="47.796" type="arc"><path id="path731" fill="url(#XMLID_1_)" d="M28.3,30.4c0-1.7-1.4-3.1-3.2-3.1c-1.8,0-3.2,1.4-3.2,3.1l0,0 c0,1.7,1.4,3.1,3.2,3.1C26.9,33.5,28.3,32.1,28.3,30.4L28.3,30.4z"/><path id="path732" fill="none" stroke="#000" stroke-width="9.185" d="M28.3,30.4 c0-1.7-1.4-3.1-3.2-3.1c-1.8,0-3.2,1.4-3.2,3.1l0,0c0,1.7,1.4,3.1,3.2,3.1C26.9,33.5,28.3,32.1,28.3,30.4L28.3,30.4z" opacity=".05"/></g><g id="path640" cx="186.109" cy="677.183" rx="46.527" ry="47.796" type="arc"><path id="path734" fill="url(#XMLID_1_)" d="M28.3,30.4c0-1.7-1.4-3.1-3.2-3.1s-3.2,1.4-3.2,3.1l0,0 c0,1.7,1.4,3.1,3.2,3.1S28.3,32.1,28.3,30.4L28.3,30.4z"/><path id="path735" fill="none" stroke="#561900" stroke-width="1.786" d="M28.3,30.4 c0-1.7-1.4-3.1-3.2-3.1s-3.2,1.4-3.2,3.1l0,0c0,1.7,1.4,3.1,3.2,3.1S28.3,32.1,28.3,30.4L28.3,30.4z" opacity=".945"/></g></g></g></g></svg>