<svg xmlns="http://www.w3.org/2000/svg" xmlns:xlink="http://www.w3.org/1999/xlink" id="svg602" width="48" height="49" enable-background="new 0 0 48 49" overflow="visible" viewBox="0 0 48 49" xml:space="preserve"><g id="Layer_1"><g id="g606"><g id="g607"><radialGradient id="path700_1_" cx="-219.762" cy="449.367" r=".057" fx="-219.762" fy="449.367" gradientTransform="matrix(242.9707 0 0 -56.9884 53418.5469 25653.6055)" gradientUnits="userSpaceOnUse"><stop style="stop-color:#261700" id="stop609" offset="0"/><stop style="stop-color:#fff" id="stop610" offset="1"/></radialGradient><path id="path700" fill="url(#path700_1_)" d="M34.9,41.4c6.1,1.5,7.6,3.1,0.7,5.4 C28.7,49,18.2,49.6,12.2,48c-5.1-1.3-5.7-3-1.3-5.2c3.7,1.2,6.1,1.8,13.1,1.6C29.8,43.9,31.5,43.1,34.9,41.4z" nodetypes="cccccc"/><path id="path651_2_" fill="none" stroke="#000" stroke-width="4" d="M19.4,23.3 C17.5,29.8,10.6,36,10.8,43c7.1,2.3,17.8,2.5,24-1.5c0.1-6.7-3.5-12.9-5.9-19C26.6,23.7,22,24.5,19.4,23.3z" nodetypes="ccccc" opacity=".1"/><path id="path651_3_" fill="none" stroke="#000" stroke-width="2" d="M19.4,23.3 C17.5,29.8,10.6,36,10.8,43c7.1,2.3,17.8,2.5,24-1.5c0.1-6.7-3.5-12.9-5.9-19C26.6,23.7,22,24.5,19.4,23.3z" nodetypes="ccccc" opacity=".15"/><path id="path651_4_" fill="none" stroke="#000" d="M19.4,23.3 C17.5,29.8,10.6,36,10.8,43c7.1,2.3,17.8,2.5,24-1.5c0.1-6.7-3.5-12.9-5.9-19C26.6,23.7,22,24.5,19.4,23.3z" nodetypes="ccccc" opacity=".2"/><g id="path658" nodetypes="ccscc"><path id="path619" fill="none" stroke="#000" stroke-linejoin="round" stroke-width="1.082" d="M25.3,7.2c-7.4,1.6-6,18.9-12.8,18.7c-3.4-17,1.6-23,8.7-24.6c5.6-1.2,14.9,4.2,12.7,14.1C29.7,14.9,34.7,4.6,25.3,7.2" opacity=".04"/></g><g id="path657" nodetypes="ccscc"><path id="path621" fill="none" stroke="#000" stroke-linejoin="round" stroke-width="1.314" d="M25.3,7.2c-7.4,1.6-6,18.9-12.8,18.7c-3.4-17,1.6-23,8.7-24.6c5.6-1.2,14.9,4.2,12.7,14.1C29.7,14.9,34.7,4.6,25.3,7.2" opacity=".04"/></g><g id="path656" nodetypes="ccscc"><path id="path623" fill="none" stroke="#000" stroke-linejoin="round" stroke-width="1.778" d="M25.3,7.2c-7.4,1.6-6,18.9-12.8,18.7c-3.4-17,1.6-23,8.7-24.6c5.6-1.2,14.9,4.2,12.7,14.1C29.7,14.9,34.7,4.6,25.3,7.2" opacity=".04"/></g><g id="path655" nodetypes="ccscc"><path id="path625" fill="none" stroke="#000" stroke-linejoin="round" stroke-width="2.325" d="M25.3,7.2c-7.4,1.6-6,18.9-12.8,18.7c-3.4-17,1.6-23,8.7-24.6c5.6-1.2,14.9,4.2,12.7,14.1C29.7,14.9,34.7,4.6,25.3,7.2" opacity=".04"/></g><linearGradient id="path648_1_" x1="-219.871" x2="-219.772" y1="446.755" y2="446.724" gradientTransform="matrix(181.3358 0 0 -166.9923 39880.9063 74634.3828)" gradientUnits="userSpaceOnUse"><stop style="stop-color:#ff3aaf" id="stop627" offset="0"/><stop style="stop-color:#e7bae7" id="stop628" offset="1"/></linearGradient><path id="path648" fill="url(#path648_1_)" d="M19.4,23.2c-1.9,6.5-8.7,12.7-8.6,19.7 c7.1,2.3,17.8,2.5,24-1.5c0.1-6.7-3.5-12.9-5.9-19C26.6,23.6,21.9,24.5,19.4,23.2z" nodetypes="ccccc"/><linearGradient id="path651_1_" x1="-219.727" x2="-219.842" y1="446.753" y2="446.719" gradientTransform="matrix(181.3356 0 0 -166.9923 39880.8008 74634.3828)" gradientUnits="userSpaceOnUse"><stop style="stop-color:#ff3aaf" id="stop634" offset="0"/><stop style="stop-color:#e7bae7" id="stop635" offset="1"/></linearGradient><path id="path651" fill="url(#path651_1_)" stroke="#000" stroke-width=".133" d="M19.4,23.2 c-1.9,6.5-8.8,12.7-8.6,19.7c7.1,2.3,17.8,2.5,24-1.5c0.1-6.7-3.5-12.9-5.9-19C26.6,23.6,22,24.5,19.4,23.2z" nodetypes="ccccc"/><linearGradient id="path636_1_" x1="-219.841" x2="-219.842" y1="445.84" y2="445.919" gradientTransform="matrix(161.2655 0 0 -170.8616 35476.9023 76205.7813)" gradientUnits="userSpaceOnUse"><stop style="stop-color:#eb852f" id="stop641" offset="0"/><stop style="stop-color:#ff0" id="stop642" offset="1"/></linearGradient><path id="path636" fill="url(#path636_1_)" d="M13,14c0-6.2,4.8-11.2,10.7-11.2 c5.9,0,11,4.7,11,10.8c0,6.2-5.1,11.5-11,11.5C17.8,25.2,13,20.2,13,14z" nodetypes="ccccc"/><linearGradient id="path653_1_" x1="-219.851" x2="-219.765" y1="446.014" y2="445.834" gradientTransform="matrix(172.2966 0 0 -186.6928 37896.8242 83271.9922)" gradientUnits="userSpaceOnUse"><stop style="stop-color:#cca277" id="stop648" offset="0"/><stop style="stop-color:#e7e700" id="stop649" offset="1"/></linearGradient><path id="path653" fill="url(#path653_1_)" d="M25.3,7.2c-7.4,1.6-6,18.9-12.8,18.7 c-3.4-17,1.6-23,8.7-24.6c5.6-1.2,14.9,4.2,12.7,14.1C29.7,14.9,34.7,4.6,25.3,7.2" nodetypes="ccscc"/><radialGradient id="path587_1_" cx="-220.105" cy="444.695" r=".162" fx="-220.105" fy="444.695" gradientTransform="matrix(91.706 0 0 -52.0368 20208.1445 23142.2129)" gradientUnits="userSpaceOnUse"><stop style="stop-color:#fff" id="stop655" offset="0"/><stop style="stop-color:#f5ffff" id="stop656" offset="1"/></radialGradient><path id="path587" fill="url(#path587_1_)" d="M22.9,8.1C17.6,8,16.5,5.5,17,4.3 c0.6-1.3,2.3-3.1,5.7-3.2c3.3-0.1,5.4,1.4,6.2,3C29.4,5.2,28.1,8,22.9,8.1z" nodetypes="ccccc" opacity=".4"/><path id="path652" fill="none" stroke="red" stroke-dasharray="2.403 4.807" stroke-dashoffset="2.163" stroke-linecap="round" stroke-width="2.403" d="M24.2,26.4c1.3,9-3.4,13.2-1.4,18.5" nodetypes="cc"/></g><rect id="rect662" width="48" height="48" y="1" fill="none"/></g></g></svg>