<svg xmlns="http://www.w3.org/2000/svg" xmlns:xlink="http://www.w3.org/1999/xlink" id="svg602" width="48" height="48.7" enable-background="new 0 0 48 48.7" overflow="visible" viewBox="0 0 48 48.7" xml:space="preserve"><g id="Layer_1"><g id="g606"><path id="path597_5_" fill="none" stroke="#474000" stroke-width="1.882" d="M5.6,20.2c0-10.7,8-19.3,17.8-19.3c9.8,0,18.4,8.1,18.4,18.7c0,10.7-8.6,19.9-18.4,19.9C13.6,39.5,5.6,30.9,5.6,20.2z" enable-background="new" opacity=".15"/><path id="path597_4_" fill="none" stroke="#474000" stroke-width=".941" d="M5.6,20.2c0-10.7,8-19.3,17.8-19.3c9.8,0,18.4,8.1,18.4,18.7c0,10.7-8.6,19.9-18.4,19.9C13.6,39.5,5.6,30.9,5.6,20.2z" enable-background="new" opacity=".2"/><path id="path597_3_" fill="none" stroke="#474000" stroke-width=".47" d="M5.6,20.2c0-10.7,8-19.3,17.8-19.3c9.8,0,18.4,8.1,18.4,18.7c0,10.7-8.6,19.9-18.4,19.9C13.6,39.5,5.6,30.9,5.6,20.2z" enable-background="new" opacity=".3"/><radialGradient id="path700_1_" cx="-509.875" cy="428.451" r=".064" fx="-509.875" fy="428.451" gradientTransform="matrix(310.7065 0 0 -144.1183 158446.2969 61790.25)" gradientUnits="userSpaceOnUse"><stop style="stop-color:#261700" id="stop611" offset="0"/><stop style="stop-color:#d2d2d2" id="stop612" offset="1"/></radialGradient><path id="path700" fill="url(#path700_1_)" d="M37.9,31.8c6.5,4.5,6,10.6-1.9,14.3c-7.9,3.7-19.5,3.1-25.9-1.5c-5.5-3.8-5.7-9.1-0.5-13.1c3.4,4.7,6.2,6.3,14,7.3 C30.1,38.7,34.3,35.8,37.9,31.8z" enable-background="new" opacity=".3"/><radialGradient id="path597_1_" cx="23.511" cy="32.003" r="36.154" fx="23.511" fy="32.003" gradientUnits="userSpaceOnUse"><stop style="stop-color:#ff0" id="stop618" offset="0"/><stop style="stop-color:#ffe100" id="stop619" offset=".092"/><stop style="stop-color:#ff9200" id="stop620" offset=".348"/><stop style="stop-color:#ff5300" id="stop621" offset=".576"/><stop style="stop-color:#ff2600" id="stop622" offset=".767"/><stop style="stop-color:#ff0a00" id="stop623" offset=".914"/><stop style="stop-color:red" id="stop624" offset="1"/></radialGradient><path id="path597" fill="url(#path597_1_)" d="M5.6,20.2 c0-10.7,8-19.3,17.8-19.3c9.9,0,18.4,8,18.4,18.7c0,10.7-8.6,19.9-18.4,19.9C13.6,39.5,5.6,30.9,5.6,20.2z" enable-background="new"/><radialGradient id="path597_6_" cx="24.845" cy="3.336" r="30.674" fx="24.845" fy="3.336" gradientUnits="userSpaceOnUse"><stop style="stop-color:#ffffb1" id="stop630" offset="0"/><stop style="stop-color:#ffeca4" id="stop631" offset=".035"/><stop style="stop-color:#ffb57e" id="stop632" offset=".144"/><stop style="stop-color:#ff855c" id="stop633" offset=".258"/><stop style="stop-color:#ff5c40" id="stop634" offset=".372"/><stop style="stop-color:#ff3b29" id="stop635" offset=".489"/><stop style="stop-color:#ff2117" id="stop636" offset=".608"/><stop style="stop-color:#ff0e0a" id="stop637" offset=".73"/><stop style="stop-color:#ff0402" id="stop638" offset=".858"/><stop style="stop-color:red" id="stop639" offset="1"/></radialGradient><path id="path597_2_" fill="url(#path597_6_)" d="M12.2,7.8 c0-3.8,5-6.9,11.1-6.9s11.4,2.9,11.4,6.7C34.7,11.4,12.2,11.6,12.2,7.8z" enable-background="new"/><path id="path643" fill="none" stroke="#000" stroke-linecap="round" stroke-width="4" d="M32,31.4c-3.3-4.4-13.7-4.3-17.3-0.2" nodetypes="cs" opacity=".25"/><path id="path639" fill="none" stroke="#795000" stroke-linecap="round" stroke-width="1.5" d="M32,31.4c-3.3-4.3-13.7-4.2-17.3-0.1" nodetypes="cs"/><radialGradient id="path650_1_" cx="-170.569" cy="426.629" r=".084" fx="-170.569" fy="426.629" gradientTransform="matrix(49.5421 23.6888 19.6726 -42.3182 73.4786 22113.5156)" gradientUnits="userSpaceOnUse"><stop style="stop-color:#dee2e7" id="stop647" offset="0"/><stop style="stop-color:#fff" id="stop648" offset="1"/></radialGradient><path id="path650" cx="50.247" cy="478.41" fill="url(#path650_1_)" stroke="#7C3902" stroke-width=".75" d="M18.4,19.3c0.7-1.5-0.2-3.3-1.9-4.2c-1.7-0.8-3.7-0.3-4.4,1.2c0,0,0,0,0,0c-0.7,1.5,0.2,3.3,1.9,4.2 C15.8,21.3,17.8,20.8,18.4,19.3C18.4,19.3,18.4,19.3,18.4,19.3z" rx="24.525" ry="34.993" type="arc"/><path id="path651" cx="50.097" cy="476.765" fill="none" stroke="#000" d="M18.9,19.5c0.8-1.6-0.3-3.7-2.2-4.7c-2-1-4.2-0.4-5,1.2c0,0,0,0,0,0C11,17.7,12,19.8,14,20.8C16,21.7,18.2,21.2,18.9,19.5 C18.9,19.5,18.9,19.5,18.9,19.5z" opacity=".25" rx="28.862" ry="41.424" type="arc"/><radialGradient id="path656_1_" cx="-172.138" cy="426.271" r=".078" fx="-172.138" fy="426.271" gradientTransform="matrix(20.6329 9.8658 10.2514 -22.0519 -802.4297 11115.7998)" gradientUnits="userSpaceOnUse"><stop style="stop-color:#000082" id="stop655" offset="0"/><stop style="stop-color:#000" id="stop656" offset="1"/></radialGradient><path id="path656" cx="61.649" cy="495.829" fill="url(#path656_1_)" d="M17.1,19c0.4-0.8,0.1-1.7-0.7-2c-0.7-0.3-1.6,0-1.9,0.8c0,0,0,0,0,0c-0.4,0.8-0.1,1.7,0.7,2C15.9,20.2,16.8,19.8,17.1,19 C17.1,19,17.1,19,17.1,19z" rx="10.469" ry="10.892" type="arc"/><radialGradient id="path648_1_" cx="-166.694" cy="428.753" r=".084" fx="-166.694" fy="428.753" gradientTransform="matrix(-49.5421 23.6888 -19.6726 -42.3182 208.2734 22111.3125)" gradientUnits="userSpaceOnUse"><stop style="stop-color:#dee2e7" id="stop662" offset="0"/><stop style="stop-color:#fff" id="stop663" offset="1"/></radialGradient><path id="path648" cx="50.247" cy="478.41" fill="url(#path648_1_)" stroke="#7C3902" stroke-width=".75" d="M29.6,19.1c-0.7-1.5,0.2-3.3,1.9-4.2c1.7-0.8,3.7-0.3,4.4,1.2c0,0,0,0,0,0c0.7,1.5-0.2,3.3-1.9,4.2 C32.2,21.1,30.2,20.5,29.6,19.1C29.6,19.1,29.6,19.1,29.6,19.1z" rx="24.525" ry="34.993" type="arc"/><path id="path649" cx="50.097" cy="476.765" fill="none" stroke="#000" d="M29.1,19.3c-0.8-1.6,0.3-3.7,2.2-4.7c2-1,4.2-0.4,5,1.2c0,0,0,0,0,0c0.8,1.6-0.3,3.7-2.2,4.7S29.8,20.9,29.1,19.3 C29.1,19.3,29.1,19.3,29.1,19.3z" opacity=".25" rx="28.862" ry="41.424" type="arc"/><radialGradient id="path661_1_" cx="-162.832" cy="430.347" r=".078" fx="-162.832" fy="430.347" gradientTransform="matrix(-20.6329 9.8658 -10.2514 -22.0519 1084.213 11113.5889)" gradientUnits="userSpaceOnUse"><stop style="stop-color:#000082" id="stop670" offset="0"/><stop style="stop-color:#000" id="stop671" offset="1"/></radialGradient><path id="path661" cx="61.649" cy="495.829" fill="url(#path661_1_)" d="M30.9,18.8c-0.4-0.8-0.1-1.7,0.7-2c0.7-0.3,1.6,0,1.9,0.8c0,0,0,0,0,0c0.4,0.8,0.1,1.7-0.7,2S31.2,19.5,30.9,18.8 C30.9,18.8,30.9,18.8,30.9,18.8z" rx="10.469" ry="10.892" type="arc"/><g id="path644" nodetypes="cccc" opacity=".25"><polygon id="polygon677" fill="#474000" points="14 10 19.3 13.2 19 11.8"/><polygon id="polygon678" fill="none" stroke="#2A0000" stroke-linecap="round" stroke-linejoin="round" stroke-width="2" points="14 10 19.3 13.2 19 11.8" opacity=".772"/></g><g id="path644_2_" nodetypes="cccc"><polygon id="polygon680" fill="#474000" points="14 10 19.3 13.2 19 11.8"/><polygon id="polygon681" fill="none" stroke="#2A0000" stroke-linecap="round" stroke-linejoin="round" points="14 10 19.3 13.2 19 11.8" opacity=".772"/></g><g id="path670" nodetypes="cccc"><polygon id="polygon683" fill="#474000" points="33.4 10 28.1 13.2 28.4 11.8"/><polygon id="polygon684" fill="none" stroke="#2A0000" stroke-linecap="round" stroke-linejoin="round" points="33.4 10 28.1 13.2 28.4 11.8" opacity=".772"/></g><polygon id="path671" fill="#474000" stroke="#2A0000" stroke-linecap="round" stroke-linejoin="round" stroke-width="2" points="33.4 10 28.1 13.2 28.4 11.8" nodetypes="cccc" opacity=".25"/><rect id="rect662" width="48" height="48" y=".7" fill="none"/></g></g></svg>