<svg xmlns="http://www.w3.org/2000/svg" xmlns:xlink="http://www.w3.org/1999/xlink" id="svg602" width="48" height="48.7" enable-background="new 0 0 48 48.7" overflow="visible" viewBox="0 0 48 48.7" xml:space="preserve"><g id="Layer_1"><g id="g606"><path id="path597_5_" fill="none" stroke="#474000" stroke-width="1.882" d="M5.6,20.2c0-10.7,8-19.3,17.8-19.3c9.8,0,18.4,8.1,18.4,18.7c0,10.7-8.6,19.9-18.4,19.9C13.6,39.5,5.6,30.9,5.6,20.2z" enable-background="new" opacity=".15"/><path id="path597_4_" fill="none" stroke="#474000" stroke-width=".941" d="M5.6,20.2c0-10.7,8-19.3,17.8-19.3c9.8,0,18.4,8.1,18.4,18.7c0,10.7-8.6,19.9-18.4,19.9C13.6,39.5,5.6,30.9,5.6,20.2z" enable-background="new" opacity=".2"/><path id="path597_3_" fill="none" stroke="#474000" stroke-width=".47" d="M5.6,20.2c0-10.7,8-19.3,17.8-19.3c9.8,0,18.4,8.1,18.4,18.7c0,10.7-8.6,19.9-18.4,19.9C13.6,39.5,5.6,30.9,5.6,20.2z" enable-background="new" opacity=".3"/><radialGradient id="path700_1_" cx="-339.72" cy="-.782" r=".064" fx="-339.72" fy="-.782" gradientTransform="matrix(310.7065 0 0 144.1183 105578.2188 155.2078)" gradientUnits="userSpaceOnUse"><stop style="stop-color:#261700" id="stop611" offset="0"/><stop style="stop-color:#d2d2d2" id="stop612" offset="1"/></radialGradient><path id="path700" fill="url(#path700_1_)" d="M37.9,31.8c6.5,4.5,6,10.6-1.9,14.3c-7.9,3.7-19.5,3.1-25.9-1.5c-5.5-3.8-5.7-9.1-0.5-13.1c3.4,4.7,6.2,6.3,14,7.3 C30.1,38.7,34.3,35.8,37.9,31.8z" enable-background="new" opacity=".3"/><radialGradient id="path577_1_" cx="-298.644" cy="42.73" r="41.557" fx="-298.644" fy="42.73" gradientTransform="matrix(298.9032 0 0 316.3969 101568.6563 -85.5551)" gradientUnits="userSpaceOnUse"><stop style="stop-color:#ff6f00" id="stop618" offset="0"/><stop style="stop-color:#ff0" id="stop619" offset="1"/></radialGradient><circle id="path577" cx="23.9" cy="20.4" r="17.8" fill="url(#path577_1_)"/><linearGradient id="path597_1_" x1="-339.714" x2="-339.715" y1=".278" y2=".397" gradientTransform="matrix(303.6933 0 0 316.3967 103192.7969 -85.2919)" gradientUnits="userSpaceOnUse"><stop style="stop-color:#ff6500" id="stop625" offset="0"/><stop style="stop-color:#ff0" id="stop626" offset="1"/></linearGradient><path id="path597" fill="url(#path597_1_)" d="M5.6,20.2c0-10.7,8-19.3,17.8-19.3c9.9,0,18.4,8,18.4,18.7c0,10.7-8.6,19.9-18.4,19.9C13.6,39.5,5.6,30.9,5.6,20.2z" enable-background="new" opacity=".75"/><radialGradient id="path597_6_" cx="-146.555" cy="426.705" r="20.235" fx="-146.555" fy="426.705" gradientTransform="matrix(1 0 0 -1 169.9258 427.5703)" gradientUnits="userSpaceOnUse"><stop style="stop-color:#fff" id="stop632" offset="0"/><stop style="stop-color:#fffefa" id="stop633" offset=".105"/><stop style="stop-color:#fffbec" id="stop634" offset=".228"/><stop style="stop-color:#fff7d4" id="stop635" offset=".362"/><stop style="stop-color:#fff1b2" id="stop636" offset=".502"/><stop style="stop-color:#ffe988" id="stop637" offset=".647"/><stop style="stop-color:#ffdf53" id="stop638" offset=".798"/><stop style="stop-color:#ffd316" id="stop639" offset=".949"/><stop style="stop-color:#ffcf00" id="stop640" offset="1"/></radialGradient><path id="path597_2_" fill="url(#path597_6_)" d="M12.2,7.8c0-3.8,5-6.9,11.1-6.9c6.1,0,11.4,2.9,11.4,6.7C34.7,11.4,12.2,11.6,12.2,7.8z" enable-background="new" opacity=".75"/><g id="g659"><radialGradient id="path630_1_" cx="-165.87" cy="426.484" r=".081" fx="-165.87" fy="426.484" gradientTransform="matrix(-47.8028 0 0 -73.2626 -7899.1484 31264.043)" gradientUnits="userSpaceOnUse"><stop style="stop-color:#dee2e7" id="stop661" offset="0"/><stop style="stop-color:#fff" id="stop662" offset="1"/></radialGradient><path id="path630" cx="50.247" cy="478.41" fill="url(#path630_1_)" stroke="#7C5202" stroke-width=".75" d="M27.9,17.7c0-2.4,1.3-4.4,2.9-4.4c1.6,0,2.9,2,2.9,4.4c0,0,0,0,0,0c0,2.4-1.3,4.4-2.9,4.4C29.1,22.1,27.9,20.1,27.9,17.7 C27.9,17.7,27.9,17.7,27.9,17.7z" rx="24.525" ry="34.993" type="arc"/><path id="path631" cx="50.097" cy="476.765" fill="none" stroke="#000" stroke-width="2" d="M27.4,17.6c0-2.7,1.5-4.8,3.3-4.8c1.8,0,3.3,2.2,3.3,4.8c0,0,0,0,0,0c0,2.7-1.5,4.8-3.3,4.8C28.9,22.5,27.4,20.3,27.4,17.6 C27.4,17.6,27.4,17.6,27.4,17.6z" opacity=".2" rx="28.862" ry="41.424" type="arc"/><radialGradient id="path637_1_" cx="-161.134" cy="425.761" r=".074" fx="-161.134" fy="425.761" gradientTransform="matrix(-19.9085 0 0 -23.3843 -3177.3074 9974.8369)" gradientUnits="userSpaceOnUse"><stop style="stop-color:#000082" id="stop669" offset="0"/><stop style="stop-color:#000" id="stop670" offset="1"/></radialGradient><path id="path637" cx="61.649" cy="495.829" fill="url(#path637_1_)" d="M29,19.5c0-0.8,0.5-1.4,1.2-1.4c0.7,0,1.2,0.6,1.2,1.4c0,0,0,0,0,0c0,0.8-0.5,1.4-1.2,1.4C29.6,20.9,29,20.3,29,19.5 C29,19.5,29,19.5,29,19.5z" rx="10.469" ry="10.892" type="arc"/><path id="path639" fill="none" stroke="#795000" stroke-linecap="round" stroke-width="2" d="M14.4,29.2c2,4.3,7.3,3.8,9.6,1.5c2.3-2.3,6.7-4.1,9.7,0.6" nodetypes="css"/><radialGradient id="path650_1_" cx="-170.542" cy="426.484" r=".081" fx="-170.542" fy="426.484" gradientTransform="matrix(47.8028 0 0 -73.2626 8168.2344 31264.043)" gradientUnits="userSpaceOnUse"><stop style="stop-color:#dee2e7" id="stop677" offset="0"/><stop style="stop-color:#fff" id="stop678" offset="1"/></radialGradient><path id="path650" cx="50.247" cy="478.41" fill="url(#path650_1_)" stroke="#7C3902" d="M17.9,17.7c0-2.4-1.3-4.4-2.9-4.4c-1.6,0-2.9,2-2.9,4.4c0,0,0,0,0,0c0,2.4,1.3,4.4,2.9,4.4C16.6,22.1,17.9,20.1,17.9,17.7 C17.9,17.7,17.9,17.7,17.9,17.7z" rx="24.525" ry="34.993" type="arc"/><path id="path651" cx="50.097" cy="476.765" fill="none" stroke="#000" stroke-width="2" d="M18.4,17.6c0-2.7-1.5-4.8-3.3-4.8c-1.8,0-3.3,2.2-3.3,4.8c0,0,0,0,0,0c0,2.7,1.5,4.8,3.3,4.8C16.9,22.5,18.4,20.3,18.4,17.6 C18.4,17.6,18.4,17.6,18.4,17.6z" opacity=".2" rx="28.862" ry="41.424" type="arc"/><radialGradient id="path656_1_" cx="-172.352" cy="425.761" r=".074" fx="-172.352" fy="425.761" gradientTransform="matrix(19.9085 0 0 -23.3843 3446.3933 9974.8369)" gradientUnits="userSpaceOnUse"><stop style="stop-color:#000082" id="stop685" offset="0"/><stop style="stop-color:#000" id="stop686" offset="1"/></radialGradient><path id="path656" cx="61.649" cy="495.829" fill="url(#path656_1_)" d="M16.7,19.5c0-0.8-0.5-1.4-1.2-1.4c-0.7,0-1.2,0.6-1.2,1.4c0,0,0,0,0,0c0,0.8,0.5,1.4,1.2,1.4C16.2,20.9,16.7,20.3,16.7,19.5 C16.7,19.5,16.7,19.5,16.7,19.5z" rx="10.469" ry="10.892" type="arc"/></g><rect id="rect662" width="48" height="48" y=".7" fill="none"/></g></g></svg>