<svg xmlns="http://www.w3.org/2000/svg" xmlns:xlink="http://www.w3.org/1999/xlink" id="svg602" width="48.4" height="48.6" enable-background="new 0 0 48.4 48.6" overflow="visible" viewBox="0 0 48.4 48.6" xml:space="preserve"><g id="Layer_1"><g id="g606"><linearGradient id="path680_1_" x1="-170.411" x2="-170.442" y1="429.82" y2="429.947" gradientTransform="matrix(383.246 0 0 -129.0557 65342.3906 55518.1563)" gradientUnits="userSpaceOnUse"><stop style="stop-color:#00f" id="stop608" offset="0"/><stop style="stop-color:#0ff" id="stop609" offset="1"/></linearGradient><path id="path680" fill="url(#path680_1_)" stroke="#0000D9" stroke-width=".708" d="M20.8,37.4C7.8,33.7,4.7,34.6,1.1,37.6 c-3.6,2.9,5.7,3.2,10.2,3.9s9,1.1,6.1,3.1c-2.9,2,1.4,5,8.4,3.2c7-1.7,12.2-3.1,11.8-6.7c-0.4-3.6,0.3-6.2,5.8-6.4 c5.6-0.2,6.7-4.5-0.4-5.1C36,29,26.6,32.2,26.6,34.8C26.6,37.4,23.8,38.3,20.8,37.4z"/><path id="path597_5_" fill="none" stroke="#474000" stroke-width="2.982" d="M5.2,20.7C5.2,10,13.2,1.5,22.9,1.5s18.3,8.1,18.3,18.6c0,10.6-8.5,19.8-18.3,19.8S5.2,31.3,5.2,20.7z" enable-background="new" opacity=".15"/><path id="path597_4_" fill="none" stroke="#474000" stroke-width="1.988" d="M5.2,20.7C5.2,10,13.2,1.5,22.9,1.5s18.3,8.1,18.3,18.6c0,10.6-8.5,19.8-18.3,19.8S5.2,31.3,5.2,20.7z" enable-background="new" opacity=".2"/><path id="path597_3_" fill="none" stroke="#474000" stroke-width=".994" d="M5.2,20.7C5.2,10,13.2,1.5,22.9,1.5s18.3,8.1,18.3,18.6c0,10.6-8.5,19.8-18.3,19.8S5.2,31.3,5.2,20.7z" enable-background="new" opacity=".3"/><radialGradient id="path577_1_" cx="-299.13" cy="43.165" r="41.557" fx="-299.13" fy="43.165" gradientTransform="matrix(296.9188 0 0 314.7926 101038.4297 -221.171)" gradientUnits="userSpaceOnUse"><stop style="stop-color:#ff6f00" id="stop618" offset="0"/><stop style="stop-color:#ff0" id="stop619" offset="1"/></radialGradient><circle id="path577" cx="23.4" cy="20.9" r="17.7" fill="url(#path577_1_)"/><linearGradient id="path597_1_" x1="-340.2" x2="-340.201" y1=".712" y2=".83" gradientTransform="matrix(303.6933 0 0 316.3967 103339.8594 -222.1999)" gradientUnits="userSpaceOnUse"><stop style="stop-color:#ff6500" id="stop625" offset="0"/><stop style="stop-color:#ff0" id="stop626" offset="1"/></linearGradient><path id="path597" fill="url(#path597_1_)" d="M5.2,20.7C5.2,10,13.2,1.5,22.9,1.5c9.8,0,18.3,8,18.3,18.6c0,10.6-8.5,19.8-18.3,19.8S5.2,31.3,5.2,20.7z" enable-background="new" opacity=".75"/><radialGradient id="path597_6_" cx="-147.041" cy="427.14" r="20.235" fx="-147.041" fy="427.14" gradientTransform="matrix(0.9934 0 0 -0.9949 168.959 426.389)" gradientUnits="userSpaceOnUse"><stop style="stop-color:#fff" id="stop632" offset="0"/><stop style="stop-color:#fffefa" id="stop633" offset=".105"/><stop style="stop-color:#fffbec" id="stop634" offset=".228"/><stop style="stop-color:#fff7d4" id="stop635" offset=".362"/><stop style="stop-color:#fff1b2" id="stop636" offset=".502"/><stop style="stop-color:#ffe988" id="stop637" offset=".647"/><stop style="stop-color:#ffdf53" id="stop638" offset=".798"/><stop style="stop-color:#ffd316" id="stop639" offset=".949"/><stop style="stop-color:#ffcf00" id="stop640" offset="1"/></radialGradient><path id="path597_2_" fill="url(#path597_6_)" d="M11.8,8.4c0-3.8,5-6.9,11-6.9c6.1,0,11.3,2.9,11.3,6.7S11.8,12.1,11.8,8.4z" enable-background="new" opacity=".75"/><radialGradient id="path652_1_" cx="-170.386" cy="428.558" r=".145" fx="-170.386" fy="428.558" gradientTransform="matrix(29.036 0 0 -34.6601 4953.1377 14875)" gradientUnits="userSpaceOnUse"><stop style="stop-color:#000082" id="stop660" offset="0"/><stop style="stop-color:#0ff" id="stop661" offset="1"/></radialGradient><linearGradient id="path652_2_" x1="-170.427" x2="-169.411" y1="427.86" y2="427.157" gradientUnits="userSpaceOnUse"><stop style="stop-color:#000082" id="stop666" offset="0"/><stop style="stop-color:#0ff" id="stop667" offset="1"/></linearGradient><path id="path652" fill="url(#path652_1_)" stroke="url(#path652_2_)" stroke-linejoin="round" stroke-width=".564" d="M8.5,17.4c-2,2.5-3.1,1.8-4.1,3.2c-0.4,0.7,0,1.5,0.8,1.8c1,0.3,2,0,2.6-0.8C8.4,20.4,7.2,20.2,8.5,17.4z" nodetypes="ccccc"/><radialGradient id="path655_1_" cx="-169.351" cy="429.359" r=".145" fx="-169.351" fy="429.359" gradientTransform="matrix(44.1419 0 0 -63.7912 7478.9487 27425.2852)" gradientUnits="userSpaceOnUse"><stop style="stop-color:#000082" id="stop673" offset="0"/><stop style="stop-color:#0ff" id="stop674" offset="1"/></radialGradient><path id="path655" fill="url(#path655_1_)" stroke="url(#path652_2_)" stroke-linejoin="round" stroke-width=".966" d="M6.6,29.2c-2.2,4.9-4.5,4.4-5.4,7c-0.3,1.3,0.7,2.3,2.3,2.4c1.9-0.1,3.4-0.9,4-2.4C8,33.9,5.7,34.1,6.6,29.2z" nodetypes="ccccc"/><radialGradient id="path657_1_" cx="-176.142" cy="428.611" r=".145" fx="-176.142" fy="428.611" gradientTransform="matrix(32.1863 0 0 -36.2784 5707.1089 15571.0684)" gradientUnits="userSpaceOnUse"><stop style="stop-color:#000082" id="stop680" offset="0"/><stop style="stop-color:#0ff" id="stop681" offset="1"/></radialGradient><path id="path657" fill="url(#path657_1_)" stroke="url(#path652_2_)" stroke-linejoin="round" stroke-width=".607" d="M36,17.9c2.3,2.6,3.5,1.9,4.5,3.4c0.4,0.8,0,1.5-0.9,1.8c-1.1,0.3-2.2,0-2.8-0.8C36.1,21,37.5,20.8,36,17.9z" nodetypes="ccccc"/><radialGradient id="path658_1_" cx="-174.848" cy="429.388" r=".144" fx="-174.848" fy="429.388" gradientTransform="matrix(48.9312 0 0 -66.7695 8597.5684 28707.3496)" gradientUnits="userSpaceOnUse"><stop style="stop-color:#000082" id="stop687" offset="0"/><stop style="stop-color:#0ff" id="stop688" offset="1"/></radialGradient><path id="path658" fill="url(#path658_1_)" stroke="url(#path652_2_)" stroke-linejoin="round" stroke-width="1.041" d="M40.5,30.3c2.5,5.1,5,4.6,6,7.3c0.3,1.4-0.8,2.4-2.6,2.5c-2.1-0.1-3.8-0.9-4.5-2.5C38.9,35.1,41.5,35.4,40.5,30.3z" nodetypes="ccccc"/><path id="path702" fill="none" stroke="#000" stroke-width=".994" d="M26.8,14.6c-0.3-0.4-0.9-0.1-0.3,0.4c4.5,2.9,7.7,3.4,9.1,0.4c0.3-1-0.7-1.5-1.1-0.8C33.1,16.8,31.3,17.2,26.8,14.6z" nodetypes="ccccc" opacity=".15"/><path id="path703" fill="#5D1A00" d="M26.8,14.6c-0.3-0.4-0.9-0.1-0.3,0.4c4.5,2.9,7.7,3.4,9.1,0.4 c0.3-1-0.7-1.5-1.1-0.8C33.1,16.8,31.3,17.2,26.8,14.6z" nodetypes="ccccc"/><path id="path704" fill="none" stroke="#000" stroke-width="1.988" d="M26.8,14.6 c-0.3-0.4-0.9-0.1-0.3,0.4c4.5,2.9,7.7,3.4,9.1,0.4c0.3-1-0.7-1.5-1.1-0.8C33.1,16.8,31.3,17.2,26.8,14.6z" nodetypes="ccccc" opacity=".3"/><path id="path921" fill="none" stroke="#000" stroke-width=".994" d="M18.6,14.6c0.3-0.4,0.9-0.1,0.3,0.4c-4.5,2.9-7.7,3.4-9.1,0.4c-0.3-1,0.7-1.5,1.1-0.8C12.4,16.8,14.1,17.2,18.6,14.6z" nodetypes="ccccc" opacity=".15"/><path id="path922" fill="#5D1A00" d="M18.6,14.6c0.3-0.4,0.9-0.1,0.3,0.4c-4.5,2.9-7.7,3.4-9.1,0.4 c-0.3-1,0.7-1.5,1.1-0.8C12.4,16.8,14.1,17.2,18.6,14.6z" nodetypes="ccccc"/><path id="path923" fill="none" stroke="#000" stroke-width="1.988" d="M18.6,14.6 c0.3-0.4,0.9-0.1,0.3,0.4c-4.5,2.9-7.7,3.4-9.1,0.4c-0.3-1,0.7-1.5,1.1-0.8C12.4,16.8,14.1,17.2,18.6,14.6z" nodetypes="ccccc" opacity=".2"/><path id="path753" fill="none" stroke="#001B00" stroke-linecap="round" stroke-linejoin="round" stroke-width="2.982" d="M15.8,32.1c-0.6-1.8,12.9-1.5,12.7,0.1" nodetypes="cc" opacity=".3"/><path id="path924" fill="none" stroke="#751B00" stroke-linecap="round" stroke-linejoin="round" stroke-width="1.988" d="M15.8,32.1c-0.6-1.8,12.9-1.5,12.7,0.1" nodetypes="cc"/><rect id="rect662" width="47.7" height="47.8" x=".7" y=".3" fill="none"/></g></g></svg>