<svg xmlns="http://www.w3.org/2000/svg" xmlns:xlink="http://www.w3.org/1999/xlink" id="svg602" width="48" height="48.6" enable-background="new 0 0 48 48.6" overflow="visible" viewBox="0 0 48 48.6" xml:space="preserve"><g id="Layer_1"><g id="g606"><g id="g607"><linearGradient id="path566_1_" x1="53.239" x2="13.839" y1="32.069" y2="20.602" gradientUnits="userSpaceOnUse"><stop style="stop-color:#b31e00" id="stop609" offset=".006"/><stop style="stop-color:#e36500" id="stop610" offset="1"/></linearGradient><path id="path566" fill="url(#path566_1_)" stroke="#A00000" stroke-linejoin="round" stroke-width=".698" d="M22.6,40.8C5.8,43.7,3.1,33.4,1.1,32.7c-0.7-0.3-0.3-2.3,0.2-2.8c4.6-3.2,12.9-7.7,13.4-8.9c0.3-1.3-0.1-2.7,0.2-3.4 c0.4-0.6,8-5,8.9-6.5c0.6-0.8,0.6-4.9,0.3-6.2c-0.1-1.1-0.6-3.4-1-4.6C24,1,25.7,4.4,26.5,5c0.4-0.6-0.1-4.1,0.3-4.7 c0.7,1.5,1.7,2.8,2.5,4.3c2.1,2.7,5.8,7.6,6.9,9.9c3.2,2.9,8.8,8.7,11.2,12.9C47.8,36,33.9,51,24.8,47.8 c-1.2-3.4-0.5-3-2.3-6.6" nodetypes="ccccccccccccccc"/><path id="path568" stroke="#000" stroke-width=".47" d="M1.6,29.4c-0.9,0.6-1.2,2.9-0.6,3.8 c0.6,0.8,2.3,0.6,3,0c1.2-0.5,1.6-5.6,0.2-5C3.4,28.6,2.5,29,1.6,29.4z" nodetypes="ccccc"/><radialGradient id="path569_1_" cx="-194.508" cy="471.273" r=".261" fx="-194.508" fy="471.273" gradientTransform="matrix(7.862 0 0 -12.7085 1545.6914 6009.0903)" gradientUnits="userSpaceOnUse"><stop style="stop-color:#000" id="stop617" offset="0"/><stop style="stop-color:#fff" id="stop618" offset="1"/></radialGradient><path id="path569" fill="url(#path569_1_)" d="M15.1,17.9c0,2.2-0.1,3.4,0,3.7 c0.7-0.1,2.3-0.3,2.3-1.6C17.3,18.9,15.8,18.1,15.1,17.9z" nodetypes="cccc"/><linearGradient id="path582_1_" x1="-195.269" x2="-194.502" y1="468.46" y2="468.415" gradientTransform="matrix(10.4365 0 0 -24.586 2061.2576 11522.4121)" gradientUnits="userSpaceOnUse"><stop style="stop-color:#000" id="stop624" offset="0"/><stop style="stop-color:#fff" id="stop625" offset="1"/></linearGradient><path id="path582" fill="url(#path582_1_)" d="M26.9,1.7C28,3.6,29.7,7.5,29.7,8 c-0.1,0.7-2.8,1.3-3,0.8C26.4,8.3,27.1,4.4,26.9,1.7z" nodetypes="cccc"/><linearGradient id="path588_1_" x1="-196.922" x2="-196.154" y1="468.43" y2="468.384" gradientTransform="matrix(8.3663 0 0 -18.9276 1668.6724 8870.6836)" gradientUnits="userSpaceOnUse"><stop style="stop-color:#000" id="stop631" offset="0"/><stop style="stop-color:#fff" id="stop632" offset="1"/></linearGradient><path id="path588" fill="url(#path588_1_)" d="M23.8,2c1.1,1.5,2.4,3.8,2.5,4.2c0,0.5-1.5,1.6-1.6,1.4 C24.4,7.3,24.8,5.3,23.8,2z"/><radialGradient id="path598_1_" cx="-186.396" cy="470.307" r=".147" fx="-186.396" fy="470.307" gradientTransform="matrix(33.8779 0 0 -28.4145 6324.8364 13391.1953)" gradientUnits="userSpaceOnUse"><stop style="stop-color:#fff" id="stop638" offset="0"/><stop style="stop-color:#f3dfca" id="stop639" offset=".139"/><stop style="stop-color:#e5ba8d" id="stop640" offset=".313"/><stop style="stop-color:#da9c5b" id="stop641" offset=".481"/><stop style="stop-color:#d18433" id="stop642" offset=".638"/><stop style="stop-color:#ca7317" id="stop643" offset=".782"/><stop style="stop-color:#c66906" id="stop644" offset=".907"/><stop style="stop-color:#c56500" id="stop645" offset="1"/></radialGradient><path id="path598" fill="url(#path598_1_)" d="M9.3,24.7c1.7-0.7,3.7-2.3,5.3-0.1 c1.2,2.1,0.5,5.2-3.7,6.9c-4.3,1.2-5.7-1.1-5.7-3.2C5.2,26,7.6,25.1,9.3,24.7z" nodetypes="ccccc" opacity=".4"/></g><rect id="rect650" width="48" height="48" y=".3" fill="none"/></g></g></svg>