<svg xmlns="http://www.w3.org/2000/svg" xmlns:xlink="http://www.w3.org/1999/xlink" id="svg602" width="51.6" height="48" enable-background="new 0 0 51.6 48" overflow="visible" viewBox="0 0 51.6 48" xml:space="preserve"><g id="Layer_1"><g id="g606"><g id="g607"><radialGradient id="path676_1_" cx="-177.691" cy="457.711" r=".013" fx="-177.691" fy="457.711" gradientTransform="matrix(268.2633 0 0 -162.467 47685.1758 74386.6719)" gradientUnits="userSpaceOnUse"><stop style="stop-color:#fff" id="stop609" offset="0"/><stop style="stop-color:#f5ffff" id="stop610" offset="1"/></radialGradient><path id="path676" fill="url(#path676_1_)" d="M32.9,14.5c-1.1,1.6-2.8,2.9-6.2,4.1 C9.5,18.7,2.7,25.9,9.9,29c-6-5.6,7.3-7.2,16.2-7.8c-5.7,1.9-5,6.5-10.5,9.6c0.3,0.1,0.7,0.2,1,0.3c0,0.7-0.1,1.2-1.1,1.8 C9.8,31.9-2.7,26.6,3.8,20.2C9.2,14.9,23.4,13.3,32.9,14.5z" nodetypes="cccccccsc"/><g id="path677" cx="407.658" cy="618.085" end="6.281" rx="207.867" ry="106.476" start="0" type="arc"><path id="path616" fill="none" stroke="#000" stroke-width="3.784" d="M49.6,24 c0,5.5-10.6,9.9-23.8,9.9c-13.1,0-23.8-4.4-23.8-9.9c0-5.5,10.6-9.9,23.8-9.9C38.9,14.1,49.5,18.5,49.6,24H25.8H49.6z" opacity=".028"/></g><g id="path680" cx="407.658" cy="618.085" end="6.281" rx="207.867" ry="106.476" start="0" type="arc"><path id="path618" fill="none" stroke="#000" stroke-width="1.48" d="M49.6,24 c0,5.5-10.6,9.9-23.8,9.9c-13.1,0-23.8-4.4-23.8-9.9c0-5.5,10.6-9.9,23.8-9.9C38.9,14.1,49.5,18.5,49.6,24H25.8H49.6z" opacity=".028"/></g><g id="path679" cx="407.658" cy="618.085" end="6.281" rx="207.867" ry="106.476" start="0" type="arc"><path id="path620" fill="none" stroke="#000" stroke-width="2.303" d="M49.6,24 c0,5.5-10.6,9.9-23.8,9.9c-13.1,0-23.8-4.4-23.8-9.9c0-5.5,10.6-9.9,23.8-9.9C38.9,14.1,49.5,18.5,49.6,24H25.8H49.6z" opacity=".028"/></g><g id="path678" cx="407.658" cy="618.085" end="6.281" rx="207.867" ry="106.476" start="0" type="arc"><path id="path622" fill="none" stroke="#000" stroke-width="2.796" d="M49.6,24 c0,5.5-10.6,9.9-23.8,9.9c-13.1,0-23.8-4.4-23.8-9.9c0-5.5,10.6-9.9,23.8-9.9C38.9,14.1,49.5,18.5,49.6,24H25.8H49.6z" opacity=".028"/></g><g id="path675" cx="407.658" cy="618.085" end="6.281" rx="207.867" ry="106.476" start="0" type="arc"><path id="path624" fill="none" stroke="#000" stroke-width="4.112" d="M49.6,24 c0,5.5-10.6,9.9-23.8,9.9c-13.1,0-23.8-4.4-23.8-9.9c0-5.5,10.6-9.9,23.8-9.9C38.9,14.1,49.5,18.5,49.6,24H25.8H49.6z" opacity=".028"/></g><g id="path681" cx="407.658" cy="618.085" end="6.281" rx="207.867" ry="106.476" start="0" type="arc"><path id="path626" fill="none" stroke="#000" stroke-width=".438" d="M49.6,24 c0,5.5-10.6,9.9-23.8,9.9c-13.1,0-23.8-4.4-23.8-9.9c0-5.5,10.6-9.9,23.8-9.9C38.9,14.1,49.5,18.5,49.6,24H25.8H49.6z" opacity=".028"/></g><path id="path654" cx="407.658" cy="618.085" fill="gray" d="M49.6,24c0,5.5-10.6,9.9-23.8,9.9c-13.1,0-23.8-4.4-23.8-9.9c0-5.5,10.6-9.9,23.8-9.9C38.9,14.1,49.5,18.5,49.6,24H25.8H49.6z" end="6.281" rx="207.867" ry="106.476" start="0" type="arc"/><radialGradient id="path748_1_" cx="-177.773" cy="457.889" r=".195" fx="-177.773" fy="457.889" gradientTransform="matrix(379.3273 0 0 -125.4059 67478.8203 57447.3828)" gradientUnits="userSpaceOnUse"><stop style="stop-color:#9c9c9c" id="stop629" offset="0"/><stop style="stop-color:#b3b5b3" id="stop630" offset="1"/></radialGradient><path id="path748" cx="403.172" cy="597.747" fill="url(#path748_1_)" d="M47.9,25.3c0-4-9.8-7.2-21.9-7.2S4.2,21.4,4.2,25.3S14,32.6,26,32.6S47.9,29.3,47.9,25.3L47.9,25.3z" rx="204.577" ry="76.567" type="arc"/><radialGradient id="path632_1_" cx="-177.845" cy="458.108" r=".103" fx="-177.845" fy="458.108" gradientTransform="matrix(302.1267 0 0 -94.5324 53770.625 43332.4805)" gradientUnits="userSpaceOnUse"><stop style="stop-color:#e6e2e7" id="stop636" offset="0"/><stop style="stop-color:#a8a6a8" id="stop637" offset="1"/></radialGradient><path id="path632" fill="url(#path632_1_)" d="M10.5,29.4c-0.7-0.4-2.1-1.9-2-2.6 C8.3,22.6,20.3,21,26.3,21c5.7,0,17,1.3,17,5.7c0.1,0.5-0.7,1.7-1.4,2.2C33.9,32.2,20.6,33.3,10.5,29.4z" nodetypes="cssscc"/><linearGradient id="path663_1_" x1="-177.321" x2="-177.071" y1="457.728" y2="457.736" gradientTransform="matrix(110.7692 0 0 -134.417 19643.7402 61549.6445)" gradientUnits="userSpaceOnUse"><stop style="stop-color:#fff" id="stop643" offset="0"/><stop style="stop-color:#f5ffff" id="stop644" offset="1"/></linearGradient><path id="path663" fill="url(#path663_1_)" d="M14.7,15.3c-14.9,3.1-16.6,11.8-6,15.5 C-2.1,25.4,2.4,18.3,14.7,15.3z" nodetypes="ccc"/><g id="path665" nodetypes="cssscc"><path id="path650" fill="none" stroke="#000" stroke-width=".105" d="M10.5,29.4 c-0.7-0.4-2.1-1.9-2-2.6C8.3,22.6,20.3,21,26.3,21c5.7,0,17,1.3,17,5.7c0.1,0.5-0.7,1.7-1.4,2.2 C33.9,32.2,20.6,33.3,10.5,29.4z" opacity=".123"/></g><g id="path674" nodetypes="cssscc"><path id="path652" fill="none" stroke="#000" stroke-linejoin="round" stroke-width=".288" d="M10.5,29.4c-0.7-0.4-2.1-1.9-2-2.6C8.3,22.6,20.3,21,26.3,21c5.7,0,17,1.3,17,5.7c0.1,0.5-0.7,1.7-1.4,2.2 C33.9,32.2,20.6,33.3,10.5,29.4z" opacity=".156"/></g><radialGradient id="path755_1_" cx="-177.798" cy="457.731" r=".058" fx="-177.798" fy="457.731" gradientTransform="matrix(408.1856 0 0 -169.923 72600.1953 77803.1484)" gradientUnits="userSpaceOnUse"><stop style="stop-color:#e6e2e7" id="stop654" offset="0"/><stop style="stop-color:#a8a6a8" id="stop655" offset="1"/></radialGradient><path id="path755" fill="url(#path755_1_)" d="M26.3,33.9c-10.9,0.2-24-3.8-24-10.3 c0-5.8,13.3-9.4,24-9.3c9.3,0.1,22.9,3.2,23.1,9.3C49.5,31,33.6,33.8,26.3,33.9c0-0.4,0-1.5,0-2.1c6-0.1,19.2-2.1,19.4-6.4 c0.1-4.5-12.9-6.8-19.4-6.8c-6.7,0-20.3,1.9-20.2,6.7c0,4.7,13.9,6.8,20.2,6.5C26.3,32.1,26.3,33.4,26.3,33.9z" nodetypes="csssccssscc"/><linearGradient id="path655_1_" x1="-177.819" x2="-177.569" y1="458.193" y2="458.201" gradientTransform="matrix(90.1952 0 0 -84.0493 16048.2695 38537.6641)" gradientUnits="userSpaceOnUse"><stop style="stop-color:#fff" id="stop661" offset="0"/><stop style="stop-color:#f5ffff" id="stop662" offset="1"/></linearGradient><path id="path655" fill="url(#path655_1_)" d="M12.3,30c-6.2-3.2-0.1-6.6,7.9-8.2 c-6.8,2-10.5,5.6-0.6,9.7C17.1,31.2,14.7,30.4,12.3,30z" nodetypes="cccc" opacity=".4"/><linearGradient id="path661_1_" x1="-177.31" x2="-177.06" y1="458.049" y2="458.056" gradientTransform="matrix(71.1876 0 0 -79.3967 12627.9336 36392.4922)" gradientUnits="userSpaceOnUse"><stop style="stop-color:#fff" id="stop668" offset="0"/><stop style="stop-color:#f5ffff" id="stop669" offset="1"/></linearGradient><path id="path661" fill="url(#path661_1_)" d="M13.8,20.1C5,22.4,2.7,26.2,9.9,29.3 C3.3,26.2,5.8,22.3,13.8,20.1z" nodetypes="ccc"/><linearGradient id="path664_1_" x1="-177.38" x2="-177.13" y1="457.752" y2="457.759" gradientTransform="matrix(106.7606 0 0 -137.2873 18940.4141 62867.3477)" gradientUnits="userSpaceOnUse"><stop style="stop-color:#fff" id="stop675" offset="0"/><stop style="stop-color:#f5ffff" id="stop676" offset="1"/></linearGradient><path id="path664" fill="url(#path664_1_)" d="M5.7,29.1c-6.3-5-0.3-11.5,9.7-13.4 C5.2,19.4,3.2,26.5,10.7,31.4C9.3,31,6.9,29.9,5.7,29.1z" nodetypes="cccc" opacity=".5"/><linearGradient id="path662_1_" x1="-180.77" x2="-180.52" y1="458.057" y2="458.064" gradientTransform="matrix(71.0343 0 0 -78.3518 12878.5156 35914.2891)" gradientUnits="userSpaceOnUse"><stop style="stop-color:#fff" id="stop682" offset="0"/><stop style="stop-color:#f5ffff" id="stop683" offset="1"/></linearGradient><path id="path662" fill="url(#path662_1_)" d="M37.6,20.2c9.1,2.2,11.1,6.5,3.6,9 C48,26.5,46.3,22.4,37.6,20.2z" nodetypes="ccc"/><linearGradient id="path666_1_" x1="-177.981" x2="-177.73" y1="457.751" y2="457.758" gradientTransform="matrix(247.9855 0 0 -25.2284 44147.082 11568.1543)" gradientUnits="userSpaceOnUse"><stop style="stop-color:#fff" id="stop689" offset="0"/><stop style="stop-color:#f5ffff" id="stop690" offset="1"/></linearGradient><path id="path666" fill="url(#path666_1_)" d="M38.9,20.6c-9.7-3-16.8-3.2-28.6,0.7 C21.5,17.7,29.1,18,38.9,20.6z" nodetypes="ccc"/><linearGradient id="path667_1_" x1="-177.95" x2="-177.699" y1="456.503" y2="456.51" gradientTransform="matrix(283.8761 0 0 -25.7561 50524.6055 11773.3535)" gradientUnits="userSpaceOnUse"><stop style="stop-color:#fff" id="stop696" offset="0"/><stop style="stop-color:#f5ffff" id="stop697" offset="1"/></linearGradient><path id="path667" fill="url(#path667_1_)" d="M41.6,16.6c-9.7-3-20.9-3.7-32.7,0.5 C20.4,13.7,31.6,14.3,41.6,16.6z" nodetypes="ccc"/><radialGradient id="path656_1_" cx="-177.691" cy="457.736" r=".07" fx="-177.691" fy="457.736" gradientTransform="matrix(268.2633 0 0 -162.467 47685.1758 74386.6719)" gradientUnits="userSpaceOnUse"><stop style="stop-color:#fff" id="stop703" offset="0"/><stop style="stop-color:#f5ffff" id="stop704" offset="1"/></radialGradient><path id="path656" fill="url(#path656_1_)" d="M32.9,14.5 c-1.1,1.6-2.8,2.9-6.2,4.1C9.5,18.7,2.7,25.9,9.9,29c-6-5.6,7.9-7.5,16.8-8c-5.7,1.9-5.6,6.8-11,9.8c0.3,0.1,0.7,0.2,1,0.3 c0,0.7-0.1,1.2-1.1,1.8C9.8,31.9-2.7,26.6,3.8,20.2C9.2,14.9,23.4,13.3,32.9,14.5z" nodetypes="cccccccsc" opacity=".2"/><linearGradient id="path657_1_" x1="-184.408" x2="-184.157" y1="458.472" y2="458.479" gradientTransform="matrix(30.2501 0 0 -59.797 5615.8491 27441.8359)" gradientUnits="userSpaceOnUse"><stop style="stop-color:#fff" id="stop710" offset="0"/><stop style="stop-color:#f5ffff" id="stop711" offset="1"/></linearGradient><path id="path657" fill="url(#path657_1_)" d="M39.9,29.5c2.2-2.7,0.8-5.1-2.4-6.4 c2.8,1.3,3.8,3.6,0.6,6.9C38.7,29.9,39.3,29.8,39.9,29.5z" nodetypes="cccc" opacity=".7"/><path id="path658" fill="url(#path655_1_)" d="M12.3,30c-6.2-3.2-0.1-6.6,7.9-8.2 c-6.8,2-10.5,5.6-0.6,9.7C17.1,31.2,14.7,30.4,12.3,30z" nodetypes="cccc" opacity=".7"/><linearGradient id="path660_1_" x1="-176.87" x2="-176.619" y1="457.853" y2="457.86" gradientTransform="matrix(54.0166 0 0 -103.9787 9558.0664 47631.0313)" gradientUnits="userSpaceOnUse"><stop style="stop-color:#fff" id="stop718" offset="0"/><stop style="stop-color:#f5ffff" id="stop719" offset="1"/></linearGradient><path id="path660" fill="url(#path660_1_)" d="M10.4,17.8c-4.9,2.7-9.9,7.2-2.5,12 C2.5,25.7,6.3,19.8,10.4,17.8z" nodetypes="ccc"/><path id="path673" fill="url(#path656_1_)" d="M32.9,14.5 c-1.1,1.6-2.8,2.9-6.2,4.1C9.5,18.7,2.7,25.9,9.9,29c-6-5.6,7.9-7.5,16.8-8c-5.7,1.9-5.6,6.8-11,9.8c0.3,0.1,0.7,0.2,1,0.3 c0,0.7-0.1,1.2-1.1,1.8C9.8,31.9-2.7,26.6,3.8,20.2C9.2,14.9,23.4,13.3,32.9,14.5z" nodetypes="cccccccsc" opacity=".3"/><linearGradient id="path659_1_" x1="-177.995" x2="-177.904" y1="457.806" y2="458.189" gradientTransform="matrix(240.6632 0 0 -41.0154 42863.0664 18800.3438)" gradientUnits="userSpaceOnUse"><stop style="stop-color:#5d4f4c" id="stop726" offset="0"/><stop style="stop-color:#edeeee" id="stop727" offset="1"/></linearGradient><path id="path659" fill="url(#path659_1_)" d="M12.6,23c7.1-5.3,19.7-6.7,27.7,0.2 C34.1,20.8,23.2,19.4,12.6,23z" nodetypes="ccc"/></g><rect id="rect732" width="48" height="48" x="1.8" fill="none"/></g></g></svg>