<svg xmlns="http://www.w3.org/2000/svg" xmlns:xlink="http://www.w3.org/1999/xlink" id="svg602" width="48" height="48" enable-background="new 0 0 48 48" overflow="visible" viewBox="0 0 48 48" xml:space="preserve"><g id="Layer_1"><g id="g606"><g id="g607"><g id="path761" nodetypes="ccccc"><path id="path609" fill="none" stroke="#000" stroke-width="1.187" d="M6.6,21.3 c0,4.5,0,8.9,0.1,13.3c0,7.8,33.6,7.4,33.5-0.2c0-4.4-0.1-8.7,0-13.1C40.2,13.7,6.9,13.9,6.6,21.3z" opacity=".033"/></g><g id="path760" nodetypes="ccccc"><path id="path611" fill="none" stroke="#000" stroke-width="1.402" d="M6.6,21.3 c0,4.5,0,8.9,0.1,13.3c0,7.8,33.6,7.4,33.5-0.2c0-4.4-0.1-8.7,0-13.1C40.2,13.7,6.9,13.9,6.6,21.3z" opacity=".033"/></g><g id="path759" nodetypes="ccccc"><path id="path613" fill="none" stroke="#000" stroke-width="1.667" d="M6.6,21.3 c0,4.5,0,8.9,0.1,13.3c0,7.8,33.6,7.4,33.5-0.2c0-4.4-0.1-8.7,0-13.1C40.2,13.7,6.9,13.9,6.6,21.3z" opacity=".033"/></g><g id="path758" nodetypes="ccccc"><path id="path615" fill="none" stroke="#000" stroke-width="2.058" d="M6.6,21.3 c0,4.5,0,8.9,0.1,13.3c0,7.8,33.6,7.4,33.5-0.2c0-4.4-0.1-8.7,0-13.1C40.2,13.7,6.9,13.9,6.6,21.3z" opacity=".033"/></g><g id="path756" nodetypes="ccccc"><path id="path617" fill="none" stroke="#000" stroke-width="3.46" d="M6.6,21.3 c0,4.5,0,8.9,0.1,13.3c0,7.8,33.6,7.4,33.5-0.2c0-4.4-0.1-8.7,0-13.1C40.2,13.7,6.9,13.9,6.6,21.3z" opacity=".033"/></g><g id="path755" nodetypes="ccccc"><path id="path619" fill="none" stroke="#000" stroke-width="5.234" d="M6.6,21.3 c0,4.5,0,8.9,0.1,13.3c0,7.8,33.6,7.4,33.5-0.2c0-4.4-0.1-8.7,0-13.1C40.2,13.7,6.9,13.9,6.6,21.3z" opacity=".033"/></g><radialGradient id="path700_1_" cx="-243.217" cy="439.099" r=".023" fx="-243.217" fy="439.099" gradientTransform="matrix(795.709 0 0 -250.6028 193552.6875 110079.9453)" gradientUnits="userSpaceOnUse"><stop style="stop-color:#261700" id="stop621" offset="0"/><stop style="stop-color:#fff" id="stop622" offset="1"/></radialGradient><path id="path700" fill="url(#path700_1_)" d="M40.2,34.4C48.1,38,47.5,43,37.9,46 s-22.5,2.8-30.4-0.8c-6.7-3-6.9-6.9-0.6-10.1c4.1,3.7,7,4.6,16.4,5.4C31.5,40.3,37.6,38.3,40.2,34.4z" nodetypes="cccccc" opacity=".4"/><linearGradient id="path647_1_" x1="-243.195" x2="-243.228" y1="438.096" y2="438.096" gradientTransform="matrix(614.9016 0 0 -406.0133 149574.7656 177904.1563)" gradientUnits="userSpaceOnUse"><stop style="stop-color:#ff6f00" id="stop628" offset="0"/><stop style="stop-color:#ff0" id="stop629" offset="1"/></linearGradient><path id="path647" fill="url(#path647_1_)" d="M6.6,22.2c0,4.2,0,8.4,0.1,12.6 c0,7.3,33.6,7,33.5-0.2c0-4.1-0.1-8.3,0-12.4C40.1,29.3,6.7,29.2,6.6,22.2z" nodetypes="ccccc"/><linearGradient id="path638_1_" x1="-243.193" x2="-243.217" y1="437.479" y2="437.492" gradientTransform="matrix(614.16 0 0 -241.9418 149394.2188 105868.25)" gradientUnits="userSpaceOnUse"><stop style="stop-color:#ff6f00" id="stop635" offset="0"/><stop style="stop-color:#ff0" id="stop636" offset="1"/></linearGradient><path id="path638" cx="545.638" cy="523.643" fill="url(#path638_1_)" stroke="#9C969E" stroke-width=".999" d="M40.1,21.3c0-3.6-7.5-6.6-16.7-6.6c-9.2,0-16.7,2.9-16.7,6.6l0,0c0,3.6,7.5,6.6,16.7,6.6C32.6,27.9,40.1,25,40.1,21.3z" rx="307.08" ry="120.971" type="arc"/><g id="path657" nodetypes="ccccc"><path id="path642" fill="none" stroke="#000" stroke-width=".77" d="M6.6,21.3 c0,4.5,0,8.9,0.1,13.3c0,7.8,33.6,7.4,33.5-0.2c0-4.4-0.1-8.7,0-13.1C40.2,13.7,6.9,13.9,6.6,21.3z" opacity=".55"/></g><path id="path664" cx="545.638" cy="523.643" fill="none" stroke="#F0F" stroke-dasharray="3.905 7.81" stroke-linecap="round" stroke-width="2.723" d="M32.9,21.7c0-1.9-4.2-3.5-9.5-3.5c-5.2,0-9.5,1.5-9.5,3.5l0,0c0,1.9,4.2,3.5,9.5,3.5C28.7,25.1,32.9,23.6,32.9,21.7z" rx="307.08" ry="120.971" type="arc"/><g id="path757" nodetypes="ccccc"><path id="path645" fill="none" stroke="#000" stroke-width="2.279" d="M6.6,21.3 c0,4.5,0,8.9,0.1,13.3c0,7.8,33.6,7.4,33.5-0.2c0-4.4-0.1-8.7,0-13.1C40.2,13.7,6.9,13.9,6.6,21.3z" opacity=".033"/></g><path id="path646" fill="none" stroke="#F0F" stroke-dasharray="3.268 3.268" stroke-linecap="round" stroke-width="2.751" d="M8.9,29.6c0,0,9.6,3.4,15.9,3.3c5.6-0.1,14.2-4.2,14.2-4.1"/><g id="g647"><radialGradient id="path764_3_" cx="-243.408" cy="434.833" r=".027" fx="-243.408" fy="434.833" gradientTransform="matrix(101.5323 0 0 -158.9048 24729.9844 69101.3438)" gradientUnits="userSpaceOnUse"><stop style="stop-color:red" id="stop649" offset="0"/><stop style="stop-color:#ff5800" id="stop650" offset=".287"/><stop style="stop-color:#ffa000" id="stop651" offset=".543"/><stop style="stop-color:#ffd300" id="stop652" offset=".754"/><stop style="stop-color:#fff300" id="stop653" offset=".912"/><stop style="stop-color:#ff0" id="stop654" offset="1"/></radialGradient><linearGradient id="path764_4_" x1="-8128.667" x2="-8127.667" y1="-8148.665" y2="-8148.665" gradientUnits="userSpaceOnUse"><stop style="stop-color:#fff" id="stop659" offset="0"/><stop style="stop-color:#f5ffff" id="stop660" offset="1"/></linearGradient><path id="path764" fill="url(#path764_3_)" stroke="url(#path764_4_)" stroke-width=".07" d="M16.3,7.9c-1.6,0-1.8,1.2-2.1,0.6C12.3,5.6,14.4,0,16,0c1.6,0,4.2,4.4,2.3,8.5C18,9.1,17.9,8,16.3,7.9z" nodetypes="cssss"/><g id="path768" nodetypes="csss"><path id="path666" fill="#00F" d="M15.4,8.8c-0.2-1.2,0.5-4.2,0.8-4.1c0.3,0,1.1,3,0.9,4.1 C17,9,15.4,9,15.4,8.8z" opacity=".469"/><path id="path667" fill="none" stroke="#000" stroke-width=".079" d="M15.4,8.8c-0.2-1.2,0.5-4.2,0.8-4.1 c0.3,0,1.1,3,0.9,4.1C17,9,15.4,9,15.4,8.8z"/></g><linearGradient id="XMLID_1_" x1="15.079" x2="17.329" y1="15.813" y2="15.813" gradientUnits="userSpaceOnUse"><stop style="stop-color:red" id="stop669" offset="0"/><stop style="stop-color:#ff0a07" id="stop670" offset=".025"/><stop style="stop-color:#ff261a" id="stop671" offset=".068"/><stop style="stop-color:#ff5338" id="stop672" offset=".123"/><stop style="stop-color:#ff9162" id="stop673" offset=".19"/><stop style="stop-color:#ffdf96" id="stop674" offset=".264"/><stop style="stop-color:#ffffac" id="stop675" offset=".292"/><stop style="stop-color:#ffdd95" id="stop676" offset=".334"/><stop style="stop-color:#ffaa73" id="stop677" offset=".404"/><stop style="stop-color:#ff7c54" id="stop678" offset=".477"/><stop style="stop-color:#ff563a" id="stop679" offset=".553"/><stop style="stop-color:#ff3725" id="stop680" offset=".63"/><stop style="stop-color:#ff1f15" id="stop681" offset=".711"/><stop style="stop-color:#ff0d09" id="stop682" offset=".796"/><stop style="stop-color:#ff0302" id="stop683" offset=".888"/><stop style="stop-color:red" id="stop684" offset="1"/></linearGradient><rect id="rect690" width="2.8" height="14.5" x="14.8" y="8.6" fill="url(#XMLID_1_)"/><radialGradient id="path764_5_" cx="-243.339" cy="434.809" r=".027" fx="-243.339" fy="434.809" gradientTransform="matrix(101.5323 0 0 -165.0159 24729.9844 71756.6641)" gradientUnits="userSpaceOnUse"><stop style="stop-color:red" id="stop692" offset="0"/><stop style="stop-color:#ff5800" id="stop693" offset=".287"/><stop style="stop-color:#ffa000" id="stop694" offset=".543"/><stop style="stop-color:#ffd300" id="stop695" offset=".754"/><stop style="stop-color:#fff300" id="stop696" offset=".912"/><stop style="stop-color:#ff0" id="stop697" offset="1"/></radialGradient><path id="path764_1_" fill="url(#path764_5_)" stroke="url(#path764_4_)" stroke-width=".071" d="M23.3,10.2c-1.6,0-1.8,1.2-2.1,0.6c-1.8-3,0.3-8.9,1.9-8.8c1.6,0,4.2,4.6,2.3,8.8C25,11.4,24.9,10.2,23.3,10.2z" nodetypes="cssss"/><g id="path768_1_" nodetypes="csss"><path id="path703" fill="#00F" d="M22.4,11c-0.2-1.2,0.5-4.2,0.8-4.1c0.3,0,1.1,3,0.9,4.1 C24,11.2,22.4,11.3,22.4,11z" opacity=".469"/><path id="path704" fill="none" stroke="#000" stroke-width=".079" d="M22.4,11c-0.2-1.2,0.5-4.2,0.8-4.1 c0.3,0,1.1,3,0.9,4.1C24,11.2,22.4,11.3,22.4,11z"/></g><linearGradient id="XMLID_2_" x1="22.079" x2="24.329" y1="18.061" y2="18.061" gradientUnits="userSpaceOnUse"><stop style="stop-color:red" id="stop706" offset="0"/><stop style="stop-color:#ff3d29" id="stop707" offset=".107"/><stop style="stop-color:#ff8f61" id="stop708" offset=".261"/><stop style="stop-color:#ffcc89" id="stop709" offset=".387"/><stop style="stop-color:#fff1a2" id="stop710" offset=".479"/><stop style="stop-color:#ffffac" id="stop711" offset=".528"/><stop style="stop-color:red" id="stop712" offset="1"/></linearGradient><rect id="rect718" width="2.8" height="14.5" x="21.8" y="10.8" fill="url(#XMLID_2_)"/><radialGradient id="path764_7_" cx="-243.248" cy="434.833" r=".027" fx="-243.248" fy="434.833" gradientTransform="matrix(101.5323 0 0 -158.9048 24729.9844 69101.3438)" gradientUnits="userSpaceOnUse"><stop style="stop-color:red" id="stop720" offset="0"/><stop style="stop-color:#ff5800" id="stop721" offset=".287"/><stop style="stop-color:#ffa000" id="stop722" offset=".543"/><stop style="stop-color:#ffd300" id="stop723" offset=".754"/><stop style="stop-color:#fff300" id="stop724" offset=".912"/><stop style="stop-color:#ff0" id="stop725" offset="1"/></radialGradient><path id="path764_2_" fill="url(#path764_7_)" stroke="url(#path764_4_)" stroke-width=".07" d="M32.5,7.9c-1.6,0-1.8,1.2-2.1,0.6C28.6,5.6,30.7,0,32.3,0c1.6,0,4.2,4.4,2.3,8.5C34.3,9.1,34.2,8,32.5,7.9z" nodetypes="cssss"/><g id="path768_2_" nodetypes="csss"><path id="path731" fill="#00F" d="M31.6,8.8c-0.2-1.2,0.5-4.2,0.8-4.1c0.3,0,1.1,3,0.9,4.1 C33.3,9,31.7,9,31.6,8.8z" opacity=".469"/><path id="path732" fill="none" stroke="#000" stroke-width=".079" d="M31.6,8.8c-0.2-1.2,0.5-4.2,0.8-4.1 c0.3,0,1.1,3,0.9,4.1C33.3,9,31.7,9,31.6,8.8z"/></g><linearGradient id="XMLID_3_" x1="31.329" x2="33.579" y1="15.813" y2="15.813" gradientUnits="userSpaceOnUse"><stop style="stop-color:red" id="stop734" offset="0"/><stop style="stop-color:#ff0503" id="stop735" offset=".054"/><stop style="stop-color:#ff140d" id="stop736" offset=".119"/><stop style="stop-color:#ff2d1e" id="stop737" offset=".19"/><stop style="stop-color:#ff4f35" id="stop738" offset=".266"/><stop style="stop-color:#ff7b53" id="stop739" offset=".345"/><stop style="stop-color:#ffb177" id="stop740" offset=".427"/><stop style="stop-color:#fff0a2" id="stop741" offset=".509"/><stop style="stop-color:#ffffac" id="stop742" offset=".528"/><stop style="stop-color:#fffaa9" id="stop743" offset=".533"/><stop style="stop-color:#ffc082" id="stop744" offset=".589"/><stop style="stop-color:#ff8d5f" id="stop745" offset=".646"/><stop style="stop-color:#ff6242" id="stop746" offset=".704"/><stop style="stop-color:#ff3e2a" id="stop747" offset=".762"/><stop style="stop-color:#ff2318" id="stop748" offset=".82"/><stop style="stop-color:#ff0f0a" id="stop749" offset=".879"/><stop style="stop-color:#ff0403" id="stop750" offset=".938"/><stop style="stop-color:red" id="stop751" offset="1"/></linearGradient><rect id="rect757" width="2.8" height="14.5" x="31.1" y="8.6" fill="url(#XMLID_3_)"/></g></g><rect id="rect758" width="48" height="48" y="0" fill="none"/></g></g></svg>