<svg xmlns="http://www.w3.org/2000/svg" xmlns:xlink="http://www.w3.org/1999/xlink" id="svg602" width="48" height="48.7" enable-background="new 0 0 48 48.7" overflow="visible" viewBox="0 0 48 48.7" xml:space="preserve"><g id="Layer_1"><g id="g606"><path id="path597_5_" fill="none" stroke="#474000" stroke-width="1.882" d="M5.6,20.2c0-10.7,8-19.3,17.8-19.3c9.8,0,18.4,8.1,18.4,18.7c0,10.7-8.6,19.9-18.4,19.9C13.6,39.5,5.6,30.9,5.6,20.2z" enable-background="new" opacity=".15"/><path id="path597_4_" fill="none" stroke="#474000" stroke-width=".941" d="M5.6,20.2c0-10.7,8-19.3,17.8-19.3c9.8,0,18.4,8.1,18.4,18.7c0,10.7-8.6,19.9-18.4,19.9C13.6,39.5,5.6,30.9,5.6,20.2z" enable-background="new" opacity=".2"/><path id="path597_3_" fill="none" stroke="#474000" stroke-width=".47" d="M5.6,20.2c0-10.7,8-19.3,17.8-19.3c9.8,0,18.4,8.1,18.4,18.7c0,10.7-8.6,19.9-18.4,19.9C13.6,39.5,5.6,30.9,5.6,20.2z" enable-background="new" opacity=".3"/><radialGradient id="path700_1_" cx="-679.571" cy="-.74" r=".064" fx="-679.571" fy="-.74" gradientTransform="matrix(310.7065 0 0 144.1183 211172.2188 149.3426)" gradientUnits="userSpaceOnUse"><stop style="stop-color:#261700" id="stop611" offset="0"/><stop style="stop-color:#d2d2d2" id="stop612" offset="1"/></radialGradient><path id="path700" fill="url(#path700_1_)" d="M37.9,31.8c6.5,4.5,6,10.6-1.9,14.3c-7.9,3.7-19.5,3.1-25.9-1.5c-5.5-3.8-5.7-9.1-0.5-13.1c3.4,4.7,6.2,6.3,14,7.3 C30.1,38.7,34.3,35.8,37.9,31.8z" enable-background="new" opacity=".3"/><radialGradient id="path577_1_" cx="-638.496" cy="42.772" r="41.557" fx="-638.496" fy="42.772" gradientTransform="matrix(298.9032 0 0 316.3969 203151.1563 -98.4275)" gradientUnits="userSpaceOnUse"><stop style="stop-color:#ff6f00" id="stop618" offset="0"/><stop style="stop-color:#ff0" id="stop619" offset="1"/></radialGradient><circle id="path577" cx="23.9" cy="20.4" r="17.8" fill="url(#path577_1_)"/><linearGradient id="path597_1_" x1="-679.565" x2="-679.567" y1=".318" y2=".437" gradientTransform="matrix(303.6933 0 0 316.3967 206403.3125 -98.1642)" gradientUnits="userSpaceOnUse"><stop style="stop-color:#ff6500" id="stop625" offset="0"/><stop style="stop-color:#ff0" id="stop626" offset="1"/></linearGradient><path id="path597" fill="url(#path597_1_)" d="M5.6,20.2c0-10.7,8-19.3,17.8-19.3c9.9,0,18.4,8,18.4,18.7c0,10.7-8.6,19.9-18.4,19.9C13.6,39.5,5.6,30.9,5.6,20.2z" enable-background="new" opacity=".75"/><radialGradient id="path597_6_" cx="-486.406" cy="426.746" r="20.235" fx="-486.406" fy="426.746" gradientTransform="matrix(1 0 0 -1 509.7773 427.6934)" gradientUnits="userSpaceOnUse"><stop style="stop-color:#fff" id="stop632" offset="0"/><stop style="stop-color:#fffefa" id="stop633" offset=".105"/><stop style="stop-color:#fffbec" id="stop634" offset=".228"/><stop style="stop-color:#fff7d4" id="stop635" offset=".362"/><stop style="stop-color:#fff1b2" id="stop636" offset=".502"/><stop style="stop-color:#ffe988" id="stop637" offset=".647"/><stop style="stop-color:#ffdf53" id="stop638" offset=".798"/><stop style="stop-color:#ffd316" id="stop639" offset=".949"/><stop style="stop-color:#ffcf00" id="stop640" offset="1"/></radialGradient><path id="path597_2_" fill="url(#path597_6_)" d="M12.2,7.8c0-3.8,5-6.9,11.1-6.9c6.1,0,11.4,2.9,11.4,6.7C34.7,11.4,12.2,11.6,12.2,7.8z" enable-background="new" opacity=".75"/><rect id="rect662" width="48" height="48" y=".7" fill="none"/><g id="g660"><path id="path643" fill="none" stroke="#000" stroke-linecap="round" stroke-width="2.7" d="M12.3,29.7c4.2,5.1,17.9,4.8,22.6,0" nodetypes="cs" opacity=".25"/><path id="path639" fill="none" stroke="#795000" stroke-linecap="round" stroke-width="1.8" d="M12.3,29.7c4.2,5,17.9,4.7,22.6,0" nodetypes="cs"/></g><g id="g663"><radialGradient id="path630_1_" cx="-165.947" cy="427.387" r=".114" fx="-165.947" fy="427.387" gradientTransform="matrix(-47.8028 0 0 -65.5878 -7899.1484 28049.5879)" gradientUnits="userSpaceOnUse"><stop style="stop-color:#dee2e7" id="stop665" offset="0"/><stop style="stop-color:#fff" id="stop666" offset="1"/></radialGradient><path id="path630" cx="50.247" cy="478.41" fill="url(#path630_1_)" stroke="#7C5202" stroke-width=".701" d="M30.8,17.1c0-3.1,1.8-5.6,4.1-5.6s4.1,2.5,4.1,5.6c0,0,0,0,0,0c0,3.1-1.8,5.6-4.1,5.6S30.8,20.2,30.8,17.1 C30.8,17.1,30.8,17.1,30.8,17.1z" rx="24.525" ry="34.993" type="arc"/><g id="path631" cx="50.097" cy="476.765" rx="28.862" ry="41.424" type="arc"><path id="path672" fill="none" stroke="#000" stroke-width=".637" d="M30.2,17 c0-3.4,2.1-6.1,4.7-6.1s4.7,2.7,4.7,6.1c0,0,0,0,0,0c0,3.4-2.1,6.1-4.7,6.1C32.3,23.2,30.2,20.4,30.2,17 C30.2,17,30.2,17,30.2,17z" opacity=".038"/></g><g id="path632" cx="50.097" cy="476.765" rx="28.862" ry="41.424" type="arc"><path id="path674" fill="none" stroke="#000" stroke-width="2.217" d="M30.2,17.1 c0-3.4,2.1-6.1,4.7-6.1c2.6,0,4.7,2.7,4.7,6.1c0,0,0,0,0,0c0,3.4-2.1,6.1-4.7,6.1C32.3,23.2,30.2,20.4,30.2,17.1 C30.2,17.1,30.2,17.1,30.2,17.1z" opacity=".014"/></g><g id="path633" cx="50.097" cy="476.765" rx="28.862" ry="41.424" type="arc"><path id="path676" fill="none" stroke="#000" stroke-width="1.401" d="M30.2,17.1 c0-3.4,2.1-6.1,4.7-6.1c2.6,0,4.7,2.7,4.7,6.1c0,0,0,0,0,0c0,3.4-2.1,6.1-4.7,6.1C32.3,23.2,30.2,20.4,30.2,17.1 C30.2,17.1,30.2,17.1,30.2,17.1z" opacity=".014"/></g><g id="path634" cx="50.097" cy="476.765" rx="28.862" ry="41.424" type="arc"><path id="path678" fill="none" stroke="#000" stroke-width=".482" d="M30.2,17.1 c0-3.4,2.1-6.1,4.7-6.1c2.6,0,4.7,2.7,4.7,6.1c0,0,0,0,0,0c0,3.4-2.1,6.1-4.7,6.1C32.3,23.2,30.2,20.4,30.2,17.1 C30.2,17.1,30.2,17.1,30.2,17.1z" opacity=".014"/></g><g id="path635" cx="50.097" cy="476.765" rx="28.862" ry="41.424" type="arc"><path id="path680" fill="none" stroke="#000" stroke-width=".242" d="M30.4,17.1c0-3.3,2-6,4.5-6 c2.5,0,4.5,2.7,4.5,6c0,0,0,0,0,0c0,3.3-2,6-4.5,6S30.4,20.4,30.4,17.1C30.4,17.1,30.4,17.1,30.4,17.1z" opacity=".152"/></g><radialGradient id="path637_1_" cx="-161.345" cy="427.397" r=".105" fx="-161.345" fy="427.397" gradientTransform="matrix(-19.9085 0 0 -20.9347 -3177.3074 8961.5498)" gradientUnits="userSpaceOnUse"><stop style="stop-color:#000082" id="stop682" offset="0"/><stop style="stop-color:#000" id="stop683" offset="1"/></radialGradient><path id="path637" cx="61.649" cy="495.829" fill="url(#path637_1_)" d="M32.5,15.1c0-1,0.8-1.8,1.7-1.8c0.9,0,1.7,0.8,1.7,1.8c0,0,0,0,0,0c0,1-0.8,1.8-1.7,1.8S32.5,16.1,32.5,15.1L32.5,15.1z" rx="10.469" ry="10.892" type="arc"/><radialGradient id="path650_1_" cx="-170.581" cy="427.387" r=".114" fx="-170.581" fy="427.387" gradientTransform="matrix(47.8028 0 0 -65.5878 8168.2344 28049.5879)" gradientUnits="userSpaceOnUse"><stop style="stop-color:#dee2e7" id="stop689" offset="0"/><stop style="stop-color:#fff" id="stop690" offset="1"/></radialGradient><path id="path650" cx="50.247" cy="478.41" fill="url(#path650_1_)" stroke="#7C3902" stroke-width=".701" d="M16.7,17.1c0-3.1-1.8-5.6-4.1-5.6c-2.2,0-4.1,2.5-4.1,5.6c0,0,0,0,0,0c0,3.1,1.8,5.6,4.1,5.6S16.7,20.2,16.7,17.1 C16.7,17.1,16.7,17.1,16.7,17.1z" rx="24.525" ry="34.993" type="arc"/><g id="path651" cx="50.097" cy="476.765" rx="28.862" ry="41.424" type="arc"><path id="path696" fill="none" stroke="#000" stroke-width=".637" d="M17.4,17 c0-3.4-2.1-6.1-4.7-6.1C10.1,10.9,8,13.6,8,17c0,0,0,0,0,0c0,3.4,2.1,6.1,4.7,6.1C15.3,23.2,17.4,20.4,17.4,17 C17.4,17,17.4,17,17.4,17z" opacity=".038"/></g><g id="path652" cx="50.097" cy="476.765" rx="28.862" ry="41.424" type="arc"><path id="path698" fill="none" stroke="#000" stroke-width="2.217" d="M17.4,17.1 c0-3.4-2.1-6.1-4.7-6.1c-2.6,0-4.7,2.7-4.7,6.1c0,0,0,0,0,0c0,3.4,2.1,6.1,4.7,6.1C15.3,23.2,17.4,20.4,17.4,17.1 C17.4,17.1,17.4,17.1,17.4,17.1z" opacity=".014"/></g><g id="path653" cx="50.097" cy="476.765" rx="28.862" ry="41.424" type="arc"><path id="path701" fill="none" stroke="#000" stroke-width="1.401" d="M17.4,17.1 c0-3.4-2.1-6.1-4.7-6.1c-2.6,0-4.7,2.7-4.7,6.1c0,0,0,0,0,0c0,3.4,2.1,6.1,4.7,6.1C15.3,23.2,17.4,20.4,17.4,17.1 C17.4,17.1,17.4,17.1,17.4,17.1z" opacity=".014"/></g><g id="path654" cx="50.097" cy="476.765" rx="28.862" ry="41.424" type="arc"><path id="path703" fill="none" stroke="#000" stroke-width=".482" d="M17.4,17.1 c0-3.4-2.1-6.1-4.7-6.1c-2.6,0-4.7,2.7-4.7,6.1c0,0,0,0,0,0c0,3.4,2.1,6.1,4.7,6.1C15.3,23.2,17.4,20.4,17.4,17.1 C17.4,17.1,17.4,17.1,17.4,17.1z" opacity=".014"/></g><g id="path655" cx="50.097" cy="476.765" rx="28.862" ry="41.424" type="arc"><path id="path705" fill="none" stroke="#000" stroke-width=".242" d="M17.2,17.1c0-3.3-2-6-4.5-6 c-2.5,0-4.5,2.7-4.5,6c0,0,0,0,0,0c0,3.3,2,6,4.5,6S17.2,20.4,17.2,17.1C17.2,17.1,17.2,17.1,17.2,17.1z" opacity=".152"/></g><radialGradient id="path656_1_" cx="-172.471" cy="427.397" r=".105" fx="-172.471" fy="427.397" gradientTransform="matrix(19.9085 0 0 -20.9347 3446.3933 8961.5498)" gradientUnits="userSpaceOnUse"><stop style="stop-color:#000082" id="stop707" offset="0"/><stop style="stop-color:#000" id="stop708" offset="1"/></radialGradient><path id="path656" cx="61.649" cy="495.829" fill="url(#path656_1_)" d="M15.1,15.1c0-1-0.8-1.8-1.7-1.8c-0.9,0-1.7,0.8-1.7,1.8c0,0,0,0,0,0c0,1,0.8,1.8,1.7,1.8S15.1,16.1,15.1,15.1L15.1,15.1z" rx="10.469" ry="10.892" type="arc"/><linearGradient id="path638_1_" x1="-169.857" x2="-169.938" y1="427.356" y2="427.475" gradientTransform="matrix(115.8352 0 0 -88.9312 19692.2988 38026.7969)" gradientUnits="userSpaceOnUse"><stop style="stop-color:#000082" id="stop714" offset="0"/><stop style="stop-color:#000" id="stop715" offset="1"/></linearGradient><path id="path638" fill="url(#path638_1_)" stroke="#230000" stroke-width=".845" d="M3.5,12.2c-2.7,3.6,0.3,9.1,1.9,10.9c1.6,1.8,8.5,4.3,13.2-0.3c4.7-4.6,3.7-9.1,2.8-10.7C20.5,10.6,6,8.9,3.5,12.2z" nodetypes="ccccc" opacity=".4"/><path id="path649" fill="none" stroke="#230000" stroke-width=".012" d="M3.1,12 c-2.8,3.8,0.3,9.6,2,11.5c1.7,1.9,9,4.5,13.9-0.3c5-4.8,3.9-9.6,2.9-11.2C21,10.4,5.7,8.6,3.1,12z" nodetypes="ccccc"/><linearGradient id="path644_1_" x1="3.503" x2="22.003" y1="12.502" y2="17.002" gradientUnits="userSpaceOnUse"><stop style="stop-color:#fff" id="stop722" offset="0"/><stop style="stop-color:#0ff" id="stop723" offset="1"/></linearGradient><path id="path644" fill="url(#path644_1_)" d="M2.6,17.1 c1.4-0.3,2.7-1.1,4.3-1c2.7,0,5,3.4,7.3,3.4c2.4,0.3,5-1.5,7.5-2.2L21.5,12l-7.3-1.7l-6.2-0.1L3.6,12l-1,2.9V17.1z" nodetypes="cccccccccc" opacity=".35"/><linearGradient id="path657_1_" x1="-170.804" x2="-170.884" y1="427.356" y2="427.476" gradientTransform="matrix(115.8351 0 0 -88.9313 19824.625 38026.7969)" gradientUnits="userSpaceOnUse"><stop style="stop-color:#000082" id="stop729" offset="0"/><stop style="stop-color:#000" id="stop730" offset="1"/></linearGradient><path id="path657" fill="url(#path657_1_)" stroke="#230000" stroke-width=".845" d="M43.5,12.2c2.7,3.6-0.3,9.1-1.9,10.9c-1.6,1.8-8.5,4.3-13.2-0.3c-4.7-4.6-3.7-9.1-2.8-10.7C26.6,10.6,41,8.9,43.5,12.2z" nodetypes="ccccc" opacity=".4"/><path id="path658" fill="none" stroke="#230000" stroke-width=".012" d="M44,12 c2.8,3.8-0.3,9.6-2,11.5c-1.7,1.9-9,4.5-13.9-0.3s-3.9-9.6-2.9-11.2C26,10.4,41.3,8.6,44,12z" nodetypes="ccccc"/><linearGradient id="path659_1_" x1="25.511" x2="44.011" y1="12.47" y2="16.97" gradientUnits="userSpaceOnUse"><stop style="stop-color:#fff" id="stop737" offset="0"/><stop style="stop-color:#0ff" id="stop738" offset="1"/></linearGradient><path id="path659" fill="url(#path659_1_)" d="M44.4,17.1 c-1.4-0.3-2.7-1.1-4.3-1c-2.7,0-5,3.4-7.3,3.4c-2.4,0.3-5-1.5-7.5-2.2l0.3-5.2l7.3-1.7l6.2-0.1l4.3,1.8l1,2.9V17.1z" nodetypes="cccccccccc" opacity=".35"/><path id="path663" fill="none" stroke="#000" stroke-linecap="round" stroke-width=".829" d="M21.5,12.1c1.4-0.4,2.7-0.4,4.1,0" nodetypes="cc"/><linearGradient id="path660_1_" x1="-169.918" x2="-168.941" y1="427.794" y2="427.627" gradientUnits="userSpaceOnUse"><stop style="stop-color:#fff" id="stop745" offset="0"/><stop style="stop-color:#fff" id="stop746" offset="1"/></linearGradient><path id="path660" fill="none" stroke="url(#path660_1_)" stroke-linecap="round" stroke-width=".829" d="M21.5,12.1c1.4-0.4,2.7-0.4,4.1,0" nodetypes="cc"/></g></g></g></svg>