<svg xmlns="http://www.w3.org/2000/svg" xmlns:xlink="http://www.w3.org/1999/xlink" id="svg602" width="48" height="48.8" enable-background="new 0 0 48 48.8" overflow="visible" viewBox="0 0 48 48.8" xml:space="preserve"><g id="Layer_1"><g id="g606"><g id="path688_2_" nodetypes="cccccc" opacity=".4"><path id="path608" fill="#9F9F9F" d="M31.6,16.1c0.5,1.4,0.9,1.1,1.6,1.6c3,0.2,3.2-6.8,5.9-5.9c3.4,0.7,4.8,21.5-6.6,28.6 c1.4-6.7-1.3-16-2.7-18.1C30.3,19.8,31.1,18.4,31.6,16.1z"/></g><radialGradient id="path700_1_" cx="-375.448" cy="22.987" r=".057" fx="-375.448" fy="22.987" gradientTransform="matrix(310.7065 0 0 144.1183 116675.1797 -3269.4287)" gradientUnits="userSpaceOnUse"><stop style="stop-color:#261700" id="stop610" offset="0"/><stop style="stop-color:#d2d2d2" id="stop611" offset="1"/></radialGradient><path id="path700" fill="url(#path700_1_)" d="M32.7,33.9c5.8,4,5.3,9.4-1.7,12.7c-7,3.3-17.4,2.8-23.1-1.3c-4.9-3.4-5.1-8.1-0.4-11.7c3,4.2,5.5,5.6,12.5,6.5 C25.8,40,29.5,37.5,32.7,33.9z" enable-background="new" opacity=".3"/><g id="path688" nodetypes="cccccc"><path id="path617" fill="none" stroke="#000" stroke-linejoin="round" stroke-width="1.782" d="M29.8,11c0.7,2,1.2,1.6,2.2,2.2c4.3,0.3,4.6-9.6,8.5-8.5c4.8,1,6.9,30.8-9.4,40.8c2-9.6-1.9-22.9-3.9-25.8 C28,16.3,29.2,14.3,29.8,11z" opacity=".332"/></g><g id="path699" nodetypes="cccccc"><path id="path619" fill="none" stroke="#000" stroke-linejoin="round" stroke-width="1.782" d="M22.3,8.1C21.2,9.2,21,8.9,20.2,9c-2.8-1,0-7.8-2.8-8.1C14.1,0.3,4,20.1,11.1,31.4c1.6-7.1,8-15.2,10.1-16.6 C21.8,12.2,21.7,10.6,22.3,8.1z" opacity=".332"/></g><path id="path597_5_" fill="none" stroke="#474000" stroke-width="1.677" d="M4,23.6C4,14,11.1,6.4,19.8,6.4c8.7,0,16.4,7.2,16.4,16.7c0,9.5-7.7,17.7-16.4,17.7C11.1,40.7,4,33.1,4,23.6z" enable-background="new" opacity=".15"/><path id="path597_4_" fill="none" stroke="#474000" stroke-width=".838" d="M4,23.6C4,14,11.1,6.4,19.8,6.4c8.7,0,16.4,7.2,16.4,16.7c0,9.5-7.7,17.7-16.4,17.7C11.1,40.7,4,33.1,4,23.6z" enable-background="new" opacity=".2"/><path id="path597_3_" fill="none" stroke="#474000" stroke-width=".419" d="M4,23.6C4,14,11.1,6.4,19.8,6.4c8.7,0,16.4,7.2,16.4,16.7c0,9.5-7.7,17.7-16.4,17.7C11.1,40.7,4,33.1,4,23.6z" enable-background="new" opacity=".3"/><radialGradient id="path577_1_" cx="-338.914" cy="61.986" r="37" fx="-338.914" fy="61.986" gradientTransform="matrix(298.9032 0 0 316.3969 112242.6875 -7632.5967)" gradientUnits="userSpaceOnUse"><stop style="stop-color:#ff6f00" id="stop624" offset="0"/><stop style="stop-color:#ff0" id="stop625" offset="1"/></radialGradient><circle id="path577" cx="20.3" cy="23.7" r="15.9" fill="url(#path577_1_)"/><linearGradient id="path597_1_" x1="-375.438" x2="-375.44" y1="24.148" y2="24.253" gradientTransform="matrix(303.6933 0 0 316.3967 114038.4688 -7632.3281)" gradientUnits="userSpaceOnUse"><stop style="stop-color:#ff6500" id="stop631" offset="0"/><stop style="stop-color:#ff0" id="stop632" offset="1"/></linearGradient><path id="path597" fill="url(#path597_1_)" d="M4,23.6C4,14,11.1,6.4,19.8,6.4c8.8,0,16.4,7.1,16.4,16.7c0,9.5-7.7,17.7-16.4,17.7C11.1,40.7,4,33.1,4,23.6z" enable-background="new" opacity=".75"/><radialGradient id="path587_1_" cx="24.211" cy="8.081" r="11.273" fx="24.211" fy="8.081" gradientUnits="userSpaceOnUse"><stop style="stop-color:#ff0" id="stop638" offset="0"/><stop style="stop-color:#fffc00" id="stop639" offset=".29"/><stop style="stop-color:#fff300" id="stop640" offset=".494"/><stop style="stop-color:#ffe300" id="stop641" offset=".671"/><stop style="stop-color:#ffce00" id="stop642" offset=".833"/><stop style="stop-color:#ffb100" id="stop643" offset=".984"/><stop style="stop-color:#ffae00" id="stop644" offset="1"/></radialGradient><path id="path587" fill="url(#path587_1_)" d="M19.8,18.5c-10-2.7-11-7.2-9.3-8.9 c1.9-1.8,7-3.9,13.6-2.3c6.4,1.5,8.9,5.1,9.4,8C33.8,17.4,29.7,21,19.8,18.5z" nodetypes="ccccc" opacity=".7"/><path id="path859" fill="none" stroke="#000" stroke-width="3.564" d="M35.7,11.5 c1.6,1.8-0.3,3.4-10.6,0.6C14.7,9.1,11.7,5.8,12.9,4.9c2.5-1.9,8.6-0.3,10.5,0.2C25.7,5.7,32.5,8,35.7,11.5z" nodetypes="ccccc" opacity=".2"/><path id="path859_2_" fill="none" stroke="#000" stroke-width="2.673" d="M35.7,11.5c1.6,1.8-0.3,3.4-10.6,0.6C14.7,9.1,11.7,5.8,12.9,4.9c2.5-1.9,8.6-0.3,10.5,0.2C25.7,5.7,32.5,8,35.7,11.5z" nodetypes="ccccc" opacity=".3"/><path id="path859_3_" fill="none" stroke="#000" stroke-linecap="round" stroke-width="1.782" d="M35.7,11.5c1.6,1.8-0.3,3.4-10.6,0.6C14.7,9.1,11.7,5.8,12.9,4.9c2.5-1.9,8.6-0.3,10.5,0.2C25.7,5.7,32.5,8,35.7,11.5z" nodetypes="ccccc" opacity=".5"/><g id="g652"><g id="path638" nodetypes="ccccc"><path id="path654" fill="none" stroke="#000" stroke-width="1.223" d="M9.4,28.6 c0.2-0.5-0.8-0.8-0.8-0.1c1.2,5.3,3.9,8.5,9,8.6c1.4-0.1,1-1.3-0.1-1.3C13.3,35.2,10.9,33.8,9.4,28.6z" opacity=".37"/></g><radialGradient id="path630_1_" cx="-203.981" cy="451.113" r=".085" fx="-203.981" fy="451.113" gradientTransform="matrix(-37.6362 -15.7254 22.805 -54.5799 -17941.9668 21436.2969)" gradientUnits="userSpaceOnUse"><stop style="stop-color:#dee2e7" id="stop656" offset="0"/><stop style="stop-color:#fff" id="stop657" offset="1"/></radialGradient><path id="path630" cx="50.247" cy="478.41" fill="url(#path630_1_)" stroke="#873C00" stroke-width=".524" d="M21.4,20.9c0.8-1.9,2.5-3,3.8-2.5c1.3,0.6,1.7,2.5,0.9,4.5c0,0,0,0,0,0c-0.8,1.9-2.5,3-3.8,2.5C21,24.8,20.6,22.8,21.4,20.9 C21.4,20.9,21.4,20.9,21.4,20.9z" rx="24.525" ry="34.993" type="arc"/><g id="path631" cx="50.097" cy="476.765" rx="28.862" ry="41.424" type="arc"><path id="path663" fill="none" stroke="#000" stroke-width=".476" d="M21,20.7 c0.9-2.1,2.8-3.3,4.4-2.7c1.5,0.6,2.1,2.9,1.2,5c0,0,0,0,0,0c-0.9,2.1-2.8,3.3-4.4,2.7C20.7,25,20.2,22.8,21,20.7 C21,20.7,21,20.7,21,20.7z" opacity=".038"/></g><g id="path632" cx="50.097" cy="476.765" rx="28.862" ry="41.424" type="arc"><path id="path665" fill="none" stroke="#000" stroke-width="1.656" d="M21,20.7 c0.9-2.1,2.8-3.3,4.4-2.7c1.5,0.6,2.1,2.9,1.2,5c0,0,0,0,0,0c-0.9,2.1-2.8,3.3-4.4,2.7C20.7,25,20.2,22.8,21,20.7 C21,20.7,21,20.7,21,20.7z" opacity=".014"/></g><g id="path633" cx="50.097" cy="476.765" rx="28.862" ry="41.424" type="arc"><path id="path667" fill="none" stroke="#000" stroke-width="1.047" d="M21,20.7 c0.9-2.1,2.8-3.3,4.4-2.7c1.5,0.6,2.1,2.9,1.2,5c0,0,0,0,0,0c-0.9,2.1-2.8,3.3-4.4,2.7C20.7,25,20.2,22.8,21,20.7 C21,20.7,21,20.7,21,20.7z" opacity=".014"/></g><g id="path634" cx="50.097" cy="476.765" rx="28.862" ry="41.424" type="arc"><path id="path669" fill="none" stroke="#000" stroke-width=".36" d="M21,20.7 c0.9-2.1,2.8-3.3,4.4-2.7c1.5,0.6,2.1,2.9,1.2,5c0,0,0,0,0,0c-0.9,2.1-2.8,3.3-4.4,2.7C20.7,25,20.2,22.8,21,20.7 C21,20.7,21,20.7,21,20.7z" opacity=".014"/></g><g id="path635" cx="50.097" cy="476.765" rx="28.862" ry="41.424" type="arc"><path id="path671" fill="none" stroke="#000" stroke-width=".181" d="M21.1,20.7 c0.9-2.1,2.8-3.2,4.2-2.6c1.5,0.6,2,2.8,1.1,4.9c0,0,0,0,0,0c-0.9,2.1-2.8,3.2-4.2,2.6C20.8,25,20.3,22.8,21.1,20.7 C21.1,20.7,21.1,20.7,21.1,20.7z" opacity=".152"/></g><radialGradient id="path607_1_" cx="-204.211" cy="451.088" r=".085" fx="-204.211" fy="451.088" gradientTransform="matrix(33.2109 13.8214 20.1236 -47.9714 -2283.0286 24479.3555)" gradientUnits="userSpaceOnUse"><stop style="stop-color:#dee2e7" id="stop673" offset="0"/><stop style="stop-color:#fff" id="stop674" offset="1"/></radialGradient><path id="path607" cx="50.247" cy="478.41" fill="url(#path607_1_)" stroke="#754000" stroke-width=".524" d="M14.2,17.5c0.7-1.7,0.3-3.4-0.8-3.9c-1.2-0.5-2.7,0.5-3.4,2.2c0,0,0,0,0,0c-0.7,1.7-0.3,3.4,0.8,3.9 C11.9,20.2,13.5,19.2,14.2,17.5C14.2,17.5,14.2,17.5,14.2,17.5z" rx="24.525" ry="34.993" type="arc"/><g id="path612" cx="50.097" cy="476.765" rx="28.862" ry="41.424" type="arc"><path id="path680" fill="none" stroke="#000" stroke-width=".476" d="M14.5,17.7 c0.8-1.9,0.3-3.8-1-4.4c-1.3-0.6-3.1,0.5-3.9,2.3c0,0,0,0,0,0c-0.8,1.9-0.3,3.8,1,4.4C12,20.6,13.7,19.5,14.5,17.7 C14.5,17.7,14.5,17.7,14.5,17.7z" opacity=".038"/></g><g id="path613" cx="50.097" cy="476.765" rx="28.862" ry="41.424" type="arc"><path id="path682" fill="none" stroke="#000" stroke-width="1.656" d="M14.5,17.7 c0.8-1.8,0.3-3.8-1-4.4c-1.3-0.6-3.1,0.5-3.8,2.3c0,0,0,0,0,0c-0.8,1.8-0.3,3.8,1,4.4C12,20.6,13.7,19.5,14.5,17.7 C14.5,17.7,14.5,17.7,14.5,17.7z" opacity=".014"/></g><g id="path614" cx="50.097" cy="476.765" rx="28.862" ry="41.424" type="arc"><path id="path684" fill="none" stroke="#000" stroke-width="1.047" d="M14.5,17.7 c0.8-1.8,0.3-3.8-1-4.4c-1.3-0.6-3.1,0.5-3.8,2.3c0,0,0,0,0,0c-0.8,1.8-0.3,3.8,1,4.4C12,20.6,13.7,19.5,14.5,17.7 C14.5,17.7,14.5,17.7,14.5,17.7z" opacity=".014"/></g><g id="path615" cx="50.097" cy="476.765" rx="28.862" ry="41.424" type="arc"><path id="path686" fill="none" stroke="#000" stroke-width=".36" d="M14.5,17.7 c0.8-1.8,0.3-3.8-1-4.4c-1.3-0.6-3.1,0.5-3.8,2.3c0,0,0,0,0,0c-0.8,1.8-0.3,3.8,1,4.4C12,20.6,13.7,19.5,14.5,17.7 C14.5,17.7,14.5,17.7,14.5,17.7z" opacity=".014"/></g><g id="path616" cx="50.097" cy="476.765" rx="28.862" ry="41.424" type="arc"><path id="path689" fill="none" stroke="#000" stroke-width=".181" d="M14.4,17.6 c0.8-1.8,0.3-3.7-1-4.3c-1.3-0.5-3,0.5-3.7,2.3c0,0,0,0,0,0c-0.8,1.8-0.3,3.7,1,4.3C12,20.5,13.6,19.4,14.4,17.6 C14.4,17.6,14.4,17.6,14.4,17.6z" opacity=".152"/></g><radialGradient id="path624_1_" cx="-202.997" cy="451.799" r=".078" fx="-202.997" fy="451.799" gradientTransform="matrix(13.8314 5.7562 6.4231 -15.3118 -82.4416 8103.7734)" gradientUnits="userSpaceOnUse"><stop style="stop-color:#000082" id="stop691" offset="0"/><stop style="stop-color:#000" id="stop692" offset="1"/></radialGradient><path id="path624" cx="61.649" cy="495.829" fill="url(#path624_1_)" d="M12.8,18.5c0.2-0.5,0-1.1-0.5-1.3c-0.5-0.2-1.1,0.1-1.3,0.6c0,0,0,0,0,0c-0.2,0.5,0,1.1,0.5,1.3C12,19.3,12.5,19,12.8,18.5 C12.8,18.5,12.8,18.5,12.8,18.5z" rx="10.469" ry="10.892" type="arc"/><radialGradient id="path637_1_" cx="-202.446" cy="451.88" r=".078" fx="-202.446" fy="451.88" gradientTransform="matrix(-15.6744 -6.5492 7.279 -17.4211 -6439.0757 6569.0581)" gradientUnits="userSpaceOnUse"><stop style="stop-color:#000082" id="stop698" offset="0"/><stop style="stop-color:#000" id="stop699" offset="1"/></radialGradient><path id="path637" cx="61.649" cy="495.829" fill="url(#path637_1_)" d="M21.8,22.7c0.3-0.6,0.9-0.9,1.5-0.7c0.5,0.2,0.8,0.9,0.5,1.5c0,0,0,0,0,0c-0.3,0.6-0.9,0.9-1.5,0.7 C21.8,24,21.5,23.3,21.8,22.7C21.8,22.7,21.8,22.7,21.8,22.7z" rx="10.469" ry="10.892" type="arc"/><path id="path629" fill="#5D1A00" d="M9.4,28.6c0.2-0.5-0.8-0.8-0.8-0.1c1.2,5.3,3.9,8.5,9,8.6 c1.4-0.1,1-1.3-0.1-1.3C13.3,35.2,10.9,33.8,9.4,28.6z" nodetypes="ccccc"/><g id="path639_1_" nodetypes="ccccc"><path id="path706" fill="none" stroke="#000" stroke-width=".397" d="M9.4,28.6 c0.2-0.5-0.8-0.8-0.8-0.1c1.2,5.3,3.9,8.5,9,8.6c1.4-0.1,1-1.3-0.1-1.3C13.3,35.2,10.9,33.8,9.4,28.6z" opacity=".37"/></g></g></g><rect id="rect707" width="48" height="48" y=".8" fill="none" opacity=".5"/></g></svg>