<svg xmlns="http://www.w3.org/2000/svg" xmlns:xlink="http://www.w3.org/1999/xlink" id="svg602" width="48" height="50.3" enable-background="new 0 0 48 50.3" overflow="visible" viewBox="0 0 48 50.3" xml:space="preserve"><g id="Layer_1"><g id="g606"><g id="g607"><g id="path609" nodetypes="ccccccc"><polygon id="polygon609" fill="#FFE0C2" points="6.1 36.5 17.1 46.3 41.1 39.9 41.1 13.9 30.5 4.1 6.3 10.9" opacity=".1"/><polygon id="polygon610" fill="none" stroke="#280000" stroke-linecap="round" stroke-linejoin="round" stroke-width="2.45" points="6.1 36.5 17.1 46.3 41.1 39.9 41.1 13.9 30.5 4.1 6.3 10.9" opacity=".03"/></g><g id="path636" nodetypes="ccccccc"><polygon id="polygon612" fill="none" stroke="#280000" stroke-linecap="round" stroke-linejoin="round" stroke-width="2.616" points="6 38.6 17.2 48.9 41.8 42.1 41.9 14.8 31 4.4 6.2 11.6" opacity=".02"/></g><g id="path612" nodetypes="ccccccc"><polygon id="polygon614" fill="#FFE0C2" points="6.1 36.5 17.1 46.3 41.1 39.9 41.1 13.9 30.5 4.1 6.3 10.9" opacity=".1"/><polygon id="polygon615" fill="none" stroke="#280000" stroke-linecap="round" stroke-linejoin="round" stroke-width="1.671" points="6.1 36.5 17.1 46.3 41.1 39.9 41.1 13.9 30.5 4.1 6.3 10.9" opacity=".03"/></g><g id="path611" nodetypes="ccccccc"><polygon id="polygon617" fill="#FFE0C2" points="6.1 36.5 17.1 46.3 41.1 39.9 41.1 13.9 30.5 4.1 6.3 10.9" opacity=".1"/><polygon id="polygon618" fill="none" stroke="#280000" stroke-linecap="round" stroke-linejoin="round" stroke-width="2.005" points="6.1 36.5 17.1 46.3 41.1 39.9 41.1 13.9 30.5 4.1 6.3 10.9" opacity=".03"/></g><g id="path610" nodetypes="ccccccc"><polygon id="polygon620" fill="#FFE0C2" points="6.1 36.5 17.1 46.3 41.1 39.9 41.1 13.9 30.5 4.1 6.3 10.9" opacity=".1"/><polygon id="polygon621" fill="none" stroke="#280000" stroke-linecap="round" stroke-linejoin="round" stroke-width="2.228" points="6.1 36.5 17.1 46.3 41.1 39.9 41.1 13.9 30.5 4.1 6.3 10.9" opacity=".03"/></g><g id="path608" nodetypes="ccccccc"><polygon id="polygon623" fill="#FFE0C2" points="6.1 36.5 17.1 46.3 41.1 39.9 41.1 13.9 30.5 4.1 6.3 10.9" opacity=".1"/><polygon id="polygon624" fill="none" stroke="#280000" stroke-linecap="round" stroke-linejoin="round" stroke-width="2.784" points="6.1 36.5 17.1 46.3 41.1 39.9 41.1 13.9 30.5 4.1 6.3 10.9" opacity=".03"/></g><g id="path607" nodetypes="ccccccc"><polygon id="polygon626" fill="#FFE0C2" points="6.1 36.5 17.1 46.3 41.1 39.9 41.1 13.9 30.5 4.1 6.3 10.9" opacity=".1"/><polygon id="polygon627" fill="none" stroke="#280000" stroke-linecap="round" stroke-linejoin="round" stroke-width="3.341" points="6.1 36.5 17.1 46.3 41.1 39.9 41.1 13.9 30.5 4.1 6.3 10.9" opacity=".03"/></g><g id="path606" nodetypes="ccccccc"><polygon id="polygon629" fill="#FFE0C2" points="6.1 38 17.4 48.3 42 41.5 42 14.2 31.1 3.8 6.3 11" opacity=".1"/><polygon id="polygon630" fill="none" stroke="#280000" stroke-linecap="round" stroke-linejoin="round" stroke-width="4.052" points="6.1 38 17.4 48.3 42 41.5 42 14.2 31.1 3.8 6.3 11" opacity=".03"/></g><g id="path676" nodetypes="ccccccc"><polygon id="polygon632" fill="#FFE0C2" points="6 36.4 17 46.2 41 39.8 41.1 13.8 30.4 3.9 6.3 10.8" opacity=".1"/><polygon id="polygon633" fill="none" stroke="#810000" stroke-linecap="round" stroke-linejoin="round" stroke-width="1.083" points="6 36.4 17 46.2 41 39.8 41.1 13.8 30.4 3.9 6.3 10.8"/></g><linearGradient id="path594_1_" x1="-331.535" x2="-331.519" y1="369.095" y2="369.089" gradientTransform="matrix(269.7917 0 0 -89.8186 89464.0391 33167.3594)" gradientUnits="userSpaceOnUse"><stop style="stop-color:#000" id="stop635" offset="0"/><stop style="stop-color:#fff" id="stop636" offset="1"/></linearGradient><polygon id="path594" fill="url(#path594_1_)" points="40.7 13.7 23.3 12.4 16.8 20.4 40.9 14.3" nodetypes="ccccc"/><linearGradient id="path673_1_" x1="-331.644" x2="-331.487" y1="370.612" y2="370.608" gradientTransform="matrix(264.7603 0 0 -322.0199 87802.3828 119373.25)" gradientUnits="userSpaceOnUse"><stop style="stop-color:#ff6f00" id="stop642" offset="0"/><stop style="stop-color:#ff0" id="stop643" offset="1"/></linearGradient><polygon id="path673" fill="url(#path673_1_)" points="17.6 21.2 40 14.8 39.9 39.1 17.7 45" nodetypes="ccccc"/><linearGradient id="path1082_1_" x1="-331.097" x2="-331.094" y1="368.133" y2="368.161" gradientTransform="matrix(267.3208 0 0 -92.2088 88525.7734 33957.3203)" gradientUnits="userSpaceOnUse"><stop style="stop-color:#000" id="stop649" offset="0"/><stop style="stop-color:#fff" id="stop650" offset="1"/></linearGradient><polygon id="path1082" fill="url(#path1082_1_)" points="6.5 11.2 23.9 12 30.1 3.7 6.3 10.7" nodetypes="ccccc" opacity=".2"/><linearGradient id="path674_1_" x1="-331.081" x2="-330.897" y1="370.177" y2="370.172" gradientTransform="matrix(227.0758 0 0 -269.8628 75176.3906 99909.0938)" gradientUnits="userSpaceOnUse"><stop style="stop-color:#ff6f00" id="stop656" offset="0"/><stop style="stop-color:#ff0" id="stop657" offset="1"/></linearGradient><polygon id="path674" fill="url(#path674_1_)" points="7.4 11.6 17.2 20.4 39.7 14.3 30 5.3" nodetypes="ccccc"/><linearGradient id="path675_1_" x1="-330.818" x2="-330.591" y1="370.242" y2="370.236" gradientTransform="matrix(179.35 0 0 -221.3565 59328.25 81983.5625)" gradientUnits="userSpaceOnUse"><stop style="stop-color:#ff6f00" id="stop663" offset="0"/><stop style="stop-color:#ff0" id="stop664" offset="1"/></linearGradient><polygon id="path675" fill="url(#path675_1_)" points="7.2 12.2 16.7 21.2 16.7 44.9 7.1 36.1" nodetypes="ccccc"/><linearGradient id="path1077_1_" x1="-331.348" x2="-331.203" y1="370.492" y2="370.524" gradientTransform="matrix(294.8137 0 0 -384.0615 97699.3438 142319.7969)" gradientUnits="userSpaceOnUse"><stop style="stop-color:#ff6f00" id="stop670" offset="0"/><stop style="stop-color:#ff0" id="stop671" offset="1"/></linearGradient><polygon id="path1077" fill="url(#path1077_1_)" stroke="#890000" stroke-width=".423" points="11.8 42 11.9 16.4 12.3 16 36.7 9.1 35.3 7.7 10.9 14.8 10.5 15.3 10.4 40.6" nodetypes="ccccccccc"/><g id="path631" nodetypes="cssssssssss"><path id="path677" fill="none" stroke="#410000" stroke-linecap="round" stroke-linejoin="round" stroke-width="2.743" d="M22.4,11.4c-3-0.6-3.7-1.6-5.1-3.8c-0.9-1.4-1.1-2.6-0.3-3.8c1.1-1.5,4.7-3.2,6.4-1.8c1.4,1.2,2.1,4.5,1.1,7.1l-0.7,1.9 c-0.1,0.4-1.5-0.3-0.5-2.6c1-2.3,0.2-4.5-1-5.7c-1.6-1.5-5-0.5-6.1,1c-0.8,1.1-0.9,2.8-0.4,3.9c1.3,3.1,2.8,4.8,7,4.8" opacity=".06"/></g><g id="path632" nodetypes="ccssssssccssssssc"><path id="path679" fill="none" stroke="#410000" stroke-linecap="round" stroke-linejoin="round" stroke-width="2.743" d="M11.2,12.4c0.1-0.7,0.1-1.3,0-1.8c2.8,0.4,7.1,1.8,9.9,1.1c3-0.6,5.5-2,6.8-4.2C28.8,6.1,29,5,28.2,3.7 c-1.1-1.5-4.7-3.2-6.4-1.8c-1.4,1.2-1.6,3.2-1.2,5.9c0.2,2.1,1.3,5.2,3.9,5c3.1-0.2,7.3,0,9.9-1.7c-0.5-0.8-0.7-1-0.9-1.4 c-2.2,1.5-5.6,1.7-8.2,2c-2.1,0.2-3-1.9-3.3-3.7c-0.5-2.4-0.3-4.2,0.9-5.4c1.6-1.5,5-0.5,6.1,1c0.8,1.1,0.9,2.8,0.4,3.9 c-1.3,3.1-5.1,5.8-9.2,5.7C18.7,13.2,14.3,12.6,11.2,12.4" opacity=".06"/></g><g id="path633" nodetypes="cssssssssss"><path id="path681" fill="none" stroke="#410000" stroke-linecap="round" stroke-linejoin="round" stroke-width="2.743" d="M22.4,11.4c-3-0.6-3.7-1.6-5.1-3.8c-0.9-1.4-1.1-2.6-0.3-3.8c1.1-1.5,4.7-3.2,6.4-1.8c1.4,1.2,2.1,4.5,1.1,7.1l-0.7,1.9 c-0.1,0.4-1.5-0.3-0.5-2.6c1-2.3,0.2-4.5-1-5.7c-1.6-1.5-5-0.5-6.1,1c-0.8,1.1-0.9,2.8-0.4,3.9c1.3,3.1,2.8,4.8,7,4.8" opacity=".06"/></g><g id="path634" nodetypes="ccssssssccssssssc"><path id="path683" fill="none" stroke="#410000" stroke-linecap="round" stroke-linejoin="round" stroke-width="2.743" d="M11.2,12.4c0.1-0.7,0.1-1.3,0-1.8c2.8,0.4,7.1,1.8,9.9,1.1c3-0.6,5.5-2,6.8-4.2C28.8,6.1,29,5,28.2,3.7 c-1.1-1.5-4.7-3.2-6.4-1.8c-1.4,1.2-1.6,3.2-1.2,5.9c0.2,2.1,1.3,5.2,3.9,5c3.1-0.2,7.3,0,9.9-1.7c-0.5-0.8-0.7-1-0.9-1.4 c-2.2,1.5-5.6,1.7-8.2,2c-2.1,0.2-3-1.9-3.3-3.7c-0.5-2.4-0.3-4.2,0.9-5.4c1.6-1.5,5-0.5,6.1,1c0.8,1.1,0.9,2.8,0.4,3.9 c-1.3,3.1-5.1,5.8-9.2,5.7C18.7,13.2,14.3,12.6,11.2,12.4" opacity=".06"/></g><linearGradient id="path1078_1_" x1="-331.271" x2="-331.004" y1="370.504" y2="370.541" gradientTransform="matrix(177.3209 0 0 -405.9364 58753.8984 150429.5625)" gradientUnits="userSpaceOnUse"><stop style="stop-color:#ff6f00" id="stop685" offset="0"/><stop style="stop-color:#ff0" id="stop686" offset="1"/></linearGradient><polygon id="path1078" fill="url(#path1078_1_)" stroke="#970000" stroke-width=".412" points="29.8 43.1 29.8 17.7 29.2 16.9 16 7.5 18 6.9 31 16.5 31.6 17.3 31.8 42.6" nodetypes="ccccccccc"/><g id="path627" nodetypes="cssssssssss"><path id="path692" fill="none" stroke="#410000" stroke-width="1.652" d="M22.4,11.4 c-3-0.6-3.7-1.6-5.1-3.8c-0.9-1.4-1.1-2.6-0.3-3.8c1.1-1.5,4.7-3.2,6.4-1.8c1.4,1.2,2.1,4.5,1.1,7.1l-0.7,1.9 c-0.1,0.4-1.5-0.3-0.5-2.6c1-2.3,0.2-4.5-1-5.7c-1.6-1.5-5-0.5-6.1,1c-0.8,1.1-0.9,2.8-0.4,3.9c1.3,3.1,2.8,4.8,7,4.8" opacity=".06"/></g><g id="path628" nodetypes="ccssssssccssssssc"><path id="path694" fill="none" stroke="#410000" stroke-width="1.652" d="M11.2,12.4 c0.1-0.7,0.1-1.3,0-1.8c2.8,0.4,7.1,1.8,9.9,1.1c3-0.6,5.5-2,6.8-4.2C28.8,6.1,29,5,28.2,3.7c-1.1-1.5-4.7-3.2-6.4-1.8 c-1.4,1.2-1.6,3.2-1.2,5.9c0.2,2.1,1.3,5.2,3.9,5c3.1-0.2,7.3,0,9.9-1.7c-0.5-0.8-0.7-1-0.9-1.4c-2.2,1.5-5.6,1.7-8.2,2 c-2.1,0.2-3-1.9-3.3-3.7c-0.5-2.4-0.3-4.2,0.9-5.4c1.6-1.5,5-0.5,6.1,1c0.8,1.1,0.9,2.8,0.4,3.9c-1.3,3.1-5.1,5.8-9.2,5.7 C18.7,13.2,14.3,12.6,11.2,12.4" opacity=".06"/></g><g id="path629" nodetypes="cssssssssss"><path id="path696" fill="none" stroke="#410000" stroke-width="1.652" d="M22.4,11.4 c-3-0.6-3.7-1.6-5.1-3.8c-0.9-1.4-1.1-2.6-0.3-3.8c1.1-1.5,4.7-3.2,6.4-1.8c1.4,1.2,2.1,4.5,1.1,7.1l-0.7,1.9 c-0.1,0.4-1.5-0.3-0.5-2.6c1-2.3,0.2-4.5-1-5.7c-1.6-1.5-5-0.5-6.1,1c-0.8,1.1-0.9,2.8-0.4,3.9c1.3,3.1,2.8,4.8,7,4.8" opacity=".06"/></g><g id="path630" nodetypes="ccssssssccssssssc"><path id="path698" fill="none" stroke="#410000" stroke-width="1.652" d="M11.2,12.4 c0.1-0.7,0.1-1.3,0-1.8c2.8,0.4,7.1,1.8,9.9,1.1c3-0.6,5.5-2,6.8-4.2C28.8,6.1,29,5,28.2,3.7c-1.1-1.5-4.7-3.2-6.4-1.8 c-1.4,1.2-1.6,3.2-1.2,5.9c0.2,2.1,1.3,5.2,3.9,5c3.1-0.2,7.3,0,9.9-1.7c-0.5-0.8-0.7-1-0.9-1.4c-2.2,1.5-5.6,1.7-8.2,2 c-2.1,0.2-3-1.9-3.3-3.7c-0.5-2.4-0.3-4.2,0.9-5.4c1.6-1.5,5-0.5,6.1,1c0.8,1.1,0.9,2.8,0.4,3.9c-1.3,3.1-5.1,5.8-9.2,5.7 C18.7,13.2,14.3,12.6,11.2,12.4" opacity=".06"/></g><linearGradient id="path605_1_" x1="-331.36" x2="-331.376" y1="368.917" y2="368.598" gradientTransform="matrix(366.4365 0 0 -120.4893 121447.4141 44454.1094)" gradientUnits="userSpaceOnUse"><stop style="stop-color:#fff" id="stop700" offset="0"/><stop style="stop-color:#fff" id="stop701" offset="1"/></linearGradient><path id="path605" fill="url(#path605_1_)" d="M7.7,10.1c-0.8,0.2,6.6,4.1,10,4.4 c4.1,0.4,8.6-2.3,12.8-2.4c2.7-0.1,5.5,1.8,8.1,2c0.6,0,2.1-0.8,1.6-1.2l-9.8-9L7.7,10.1z" nodetypes="csssscs" opacity=".2"/><linearGradient id="path599_1_" x1="-330.677" x2="-330.608" y1="368.678" y2="368.756" gradientTransform="matrix(106.0337 0 0 -121.675 35081.6563 44867.8164)" gradientUnits="userSpaceOnUse"><stop style="stop-color:#ff6f00" id="stop707" offset="0"/><stop style="stop-color:#ff0" id="stop708" offset="1"/></linearGradient><path id="path599" fill="url(#path599_1_)" stroke="#A00000" stroke-width=".527" d="M22.4,11.4c-3-0.6-3.7-1.6-5.1-3.8c-0.9-1.4-1.1-2.6-0.3-3.8c1.1-1.5,4.7-3.2,6.4-1.8c1.4,1.2,2.1,4.5,1.1,7.1l-0.7,1.9 c-0.1,0.4-1.5-0.3-0.5-2.6c1-2.3,0.2-4.5-1-5.7c-1.6-1.5-5-0.5-6.1,1c-0.8,1.1-0.9,2.8-0.4,3.9c1.3,3.1,2.8,4.8,7,4.8" nodetypes="cssssssssss"/><linearGradient id="path597_1_" x1="-331.269" x2="-331.2" y1="368.862" y2="368.94" gradientTransform="matrix(260.8709 0 0 -132.7356 86439.2734 48971.7617)" gradientUnits="userSpaceOnUse"><stop style="stop-color:#ff6f00" id="stop714" offset="0"/><stop style="stop-color:#ff0" id="stop715" offset="1"/></linearGradient><path id="path597" fill="url(#path597_1_)" stroke="#A00000" stroke-width=".527" d="M11.2,12.4c0.1-0.7,0.1-1.3,0-1.8c2.8,0.4,7.1,1.8,9.9,1.1c3-0.6,5.5-2,6.8-4.2C28.8,6.1,29,5,28.2,3.7 c-1.1-1.5-4.7-3.2-6.4-1.8c-1.4,1.2-1.6,3.2-1.2,5.9c0.2,2.1,1.3,5.2,3.9,5c3.1-0.2,7.3,0,9.9-1.7c-0.5-0.8-0.7-1-0.9-1.4 c-2.2,1.5-5.6,1.7-8.2,2c-2.1,0.2-3-1.9-3.3-3.7c-0.5-2.4-0.3-4.2,0.9-5.4c1.6-1.5,5-0.5,6.1,1c0.8,1.1,0.9,2.8,0.4,3.9 c-1.3,3.1-5.1,5.8-9.2,5.7C18.7,13.2,14.3,12.6,11.2,12.4" nodetypes="ccssssssccssssssc"/><g id="path600" nodetypes="ccccccc" opacity=".2"><radialGradient id="XMLID_1_" cx="-331.428" cy="370.506" r=".086" fx="-331.428" fy="370.506" gradientTransform="matrix(393.1364 0 0 -474.1998 130342.4063 175735.1406)" gradientUnits="userSpaceOnUse"><stop style="stop-color:#fff" id="stop722" offset="0"/><stop style="stop-color:#fff" id="stop723" offset="1"/></radialGradient><polygon id="polygon727" fill="url(#XMLID_1_)" points="6.2 36.3 17.2 46.1 41.1 39.7 41.2 13.7 30.6 3.8 6.4 10.7" opacity=".1"/></g><radialGradient id="path615_1_" cx="-331.08" cy="367.339" r=".119" fx="-331.08" fy="367.339" gradientTransform="matrix(159.2362 0 0 -81.022 52745.0313 29779.9531)" gradientUnits="userSpaceOnUse"><stop style="stop-color:#fff" id="stop729" offset="0"/><stop style="stop-color:#fff" id="stop730" offset="1"/></radialGradient><path id="path615" fill="url(#path615_1_)" d="M22.4,11.4 c-3-0.6-3.7-1.6-5.1-3.8c-0.9-1.4-1.1-2.6-0.3-3.8c1.1-1.5,4.7-3.2,6.4-1.8c1.4,1.2,2.1,4.5,1.1,7.1l-0.7,1.9 c-0.1,0.4-1.5-0.3-0.5-2.6c1-2.3,0.2-4.5-1-5.7c-1.6-1.5-5-0.5-6.1,1c-0.8,1.1-0.9,2.8-0.4,3.9c1.3,3.1,2.8,4.8,7,4.8" nodetypes="cssssssssss" opacity=".2"/><linearGradient id="path635_1_" x1="-331.64" x2="-331.631" y1="368.612" y2="368.657" gradientTransform="matrix(199.9321 0 0 -110.0739 66336.3047 40589.6445)" gradientUnits="userSpaceOnUse"><stop style="stop-color:#000" id="stop736" offset="0"/><stop style="stop-color:#fff" id="stop737" offset="1"/></linearGradient><polygon id="path635" fill="url(#path635_1_)" points="30.1 3.9 22.7 12 40.5 13.7 30.4 3.9" nodetypes="ccccc" opacity=".2"/></g><rect id="rect742" width="48" height="48" y="1.1" fill="none"/></g></g></svg>