<svg xmlns="http://www.w3.org/2000/svg" xmlns:xlink="http://www.w3.org/1999/xlink" id="svg602" width="49.5" height="48.7" enable-background="new 0 0 49.5 48.7" overflow="visible" viewBox="0 0 49.5 48.7" xml:space="preserve"><g id="Layer_1"><g id="g606"><radialGradient id="path700_1_" cx="-673.88" cy="-.799" r=".058" fx="-673.88" fy="-.799" gradientTransform="matrix(310.7065 0 0 144.1183 209411.8281 157.5188)" gradientUnits="userSpaceOnUse"><stop style="stop-color:#261700" id="stop608" offset="0"/><stop style="stop-color:#d2d2d2" id="stop609" offset="1"/></radialGradient><path id="path700" fill="url(#path700_1_)" d="M44.6,32.6c5.9,4,5.4,9.5-1.7,12.9c-7.1,3.3-17.5,2.8-23.3-1.3c-4.9-3.4-5.1-8.2-0.4-11.8c3.1,4.2,5.6,5.7,12.6,6.6 C37.6,38.8,41.4,36.2,44.6,32.6z" enable-background="new" opacity=".3"/><g id="g614"><linearGradient id="path703_1_" x1="-163.977" x2="-163.934" y1="427.178" y2="427.15" gradientTransform="matrix(327.4485 0 0 -418.1861 53701.0195 178648.7813)" gradientUnits="userSpaceOnUse"><stop style="stop-color:#9e0000" id="stop616" offset="0"/><stop style="stop-color:red" id="stop617" offset="1"/></linearGradient><path id="path703" fill="url(#path703_1_)" stroke="#670000" stroke-linejoin="round" stroke-width="1.368" d="M30.9,1.1c-4.4-1.8-6.7,3-4.1,5.3C26.9,6.4,0.7,29.9,0.7,29.9C7.5,39,18.2,44.5,28,41.8l2-33.9C33.5,7.9,35.2,3.3,30.9,1.1z" nodetypes="cscccc"/><linearGradient id="path707_1_" x1="-163.912" x2="-163.914" y1="427.29" y2="427.228" gradientTransform="matrix(253.4516 0 0 -314.7465 41558.6875 134510.0781)" gradientUnits="userSpaceOnUse"><stop style="stop-color:red" id="stop623" offset="0"/><stop style="stop-color:#fff" id="stop624" offset="1"/></linearGradient><path id="path707" fill="url(#path707_1_)" d="M26.7,10.5C20.6,15.3,1.8,30,1.8,30 C8,38.5,17.9,43.8,27.1,41.3L26.7,10.5z" nodetypes="cccc"/><radialGradient id="path712_1_" cx="-165.13" cy="423.586" r=".066" fx="-165.13" fy="423.586" gradientTransform="matrix(66.296 29.7036 24.9458 -55.6769 409.9528 28492.375)" gradientUnits="userSpaceOnUse"><stop style="stop-color:#fff" id="stop630" offset=".157"/><stop style="stop-color:red" id="stop631" offset="1"/></radialGradient><path id="path712" cx="481.535" cy="764.638" fill="url(#path712_1_)" d="M33,5.8c0.7-1.5-0.2-3.4-2.1-4.3c-1.8-0.8-3.9-0.2-4.6,1.3c0,0,0,0,0,0c-0.7,1.5,0.2,3.4,2.1,4.3C30.3,7.9,32.3,7.3,33,5.8 C33,5.8,33,5.8,33,5.8z" rx="16.151" ry="14.954" type="arc"/><g id="path725" cx="129.43" cy="670.838" rx="14.381" ry="21.149" type="arc"><circle id="circle637" cx="17.5" cy="27.5" r=".9" fill="#5E3000"/><circle id="circle638" cx="17.5" cy="27.5" r=".9" fill="none" stroke="#000" stroke-width=".713" opacity=".389"/></g><g id="path720" cx="129.43" cy="670.838" rx="14.381" ry="21.149" type="arc"><circle id="circle640" cx="8.3" cy="28" r="1" fill="#5E30FF"/><circle id="circle641" cx="8.3" cy="28" r="1" fill="none" stroke="#000" stroke-width=".713" opacity=".389"/></g><g id="path721" cx="129.43" cy="670.838" rx="14.381" ry="21.149" type="arc"><circle id="circle643" cx="20.7" cy="30.2" r="1" fill="#5E3000"/><circle id="circle644" cx="20.7" cy="30.2" r="1" fill="none" stroke="#000" stroke-width=".713" opacity=".389"/></g><g id="path722" cx="129.43" cy="670.838" rx="14.381" ry="21.149" type="arc"><circle id="circle646" cx="25.2" cy="16.3" r="1" fill="#5E8F00"/><circle id="circle647" cx="25.2" cy="16.3" r="1" fill="none" stroke="#000" stroke-width=".713" opacity=".389"/></g><g id="path723" cx="129.43" cy="670.838" rx="14.381" ry="21.149" type="arc"><circle id="circle649" cx="26.7" cy="25" r=".9" fill="#5E2E9E"/><circle id="circle650" cx="26.7" cy="25" r=".9" fill="none" stroke="#000" stroke-width=".713" opacity=".389"/></g><g id="path724" cx="129.43" cy="670.838" rx="14.381" ry="21.149" type="arc"><circle id="circle652" cx="18.7" cy="37" r=".9" fill="#9600D4"/><circle id="circle653" cx="18.7" cy="37" r=".9" fill="none" stroke="#000" stroke-width=".713" opacity=".389"/></g><g id="path726" cx="129.43" cy="670.838" rx="14.381" ry="21.149" type="arc"><circle id="circle655" cx="14.3" cy="23" r=".8" fill="#5E2E9E"/><circle id="circle656" cx="14.3" cy="23" r=".8" fill="none" stroke="#000" stroke-width=".713" opacity=".389"/></g><g id="path727" cx="129.43" cy="670.838" rx="14.381" ry="21.149" type="arc"><circle id="circle658" cx="11.4" cy="31.3" r=".8" fill="#9600D4"/><circle id="circle659" cx="11.4" cy="31.3" r=".8" fill="none" stroke="#000" stroke-width=".713" opacity=".389"/></g><g id="path728" cx="129.43" cy="670.838" rx="14.381" ry="21.149" type="arc"><circle id="circle661" cx="31.4" cy="5.1" r=".8" fill="#5E2E9E"/><circle id="circle662" cx="31.4" cy="5.1" r=".8" fill="none" stroke="#000" stroke-width=".713" opacity=".389"/></g></g><g id="g663"><path id="path597_5_" fill="none" stroke="#474000" stroke-width="1.694" d="M16.1,25.2c0-9.6,7.2-17.4,16-17.4s16.6,7.3,16.6,16.8c0,9.6-7.7,17.9-16.6,17.9S16.1,34.8,16.1,25.2z" enable-background="new" opacity=".15"/><path id="path597_4_" fill="none" stroke="#474000" stroke-width=".847" d="M16.1,25.2c0-9.6,7.2-17.4,16-17.4s16.6,7.3,16.6,16.8c0,9.6-7.7,17.9-16.6,17.9S16.1,34.8,16.1,25.2z" enable-background="new" opacity=".2"/><path id="path597_3_" fill="none" stroke="#474000" stroke-width=".423" d="M16.1,25.2c0-9.6,7.2-17.4,16-17.4s16.6,7.3,16.6,16.8c0,9.6-7.7,17.9-16.6,17.9S16.1,34.8,16.1,25.2z" enable-background="new" opacity=".3"/><radialGradient id="path577_1_" cx="-637.011" cy="38.326" r="37.268" fx="-637.011" fy="38.326" gradientTransform="matrix(298.9032 0 0 316.3969 201457.8594 -80.4092)" gradientUnits="userSpaceOnUse"><stop style="stop-color:#ff6f00" id="stop668" offset="0"/><stop style="stop-color:#ff0" id="stop669" offset="1"/></radialGradient><circle id="path577" cx="32.6" cy="25.4" r="16" fill="url(#path577_1_)"/><linearGradient id="path597_1_" x1="-673.872" x2="-673.873" y1=".283" y2=".39" gradientTransform="matrix(303.6933 0 0 316.3967 204682.7813 -80.146)" gradientUnits="userSpaceOnUse"><stop style="stop-color:#ff6500" id="stop675" offset="0"/><stop style="stop-color:#ff0" id="stop676" offset="1"/></linearGradient><path id="path597" fill="url(#path597_1_)" d="M16.1,25.2c0-9.6,7.2-17.4,16-17.4c8.9,0,16.6,7.2,16.6,16.8c0,9.6-7.7,17.9-16.6,17.9S16.1,34.8,16.1,25.2z" enable-background="new" opacity=".75"/><radialGradient id="path597_6_" cx="-477.679" cy="419.76" r="18.212" fx="-477.679" fy="419.76" gradientTransform="matrix(1 0 0 -1 509.7773 427.5791)" gradientUnits="userSpaceOnUse"><stop style="stop-color:#fff" id="stop682" offset="0"/><stop style="stop-color:#fffefa" id="stop683" offset=".105"/><stop style="stop-color:#fffbec" id="stop684" offset=".228"/><stop style="stop-color:#fff7d4" id="stop685" offset=".362"/><stop style="stop-color:#fff1b2" id="stop686" offset=".502"/><stop style="stop-color:#ffe988" id="stop687" offset=".647"/><stop style="stop-color:#ffdf53" id="stop688" offset=".798"/><stop style="stop-color:#ffd316" id="stop689" offset=".949"/><stop style="stop-color:#ffcf00" id="stop690" offset="1"/></radialGradient><path id="path597_2_" fill="url(#path597_6_)" d="M22,14c0-3.4,4.5-6.2,10-6.2c5.5,0,10.3,2.6,10.3,6S22,17.4,22,14z" enable-background="new" opacity=".75"/></g><g id="g709"><radialGradient id="path630_1_" cx="-160.145" cy="426.044" r=".096" fx="-160.145" fy="426.044" gradientTransform="matrix(-37.0822 -16.9909 24.6402 -53.7764 -16403.0957 20216.2949)" gradientUnits="userSpaceOnUse"><stop style="stop-color:#dee2e7" id="stop711" offset="0"/><stop style="stop-color:#fff" id="stop712" offset="1"/></radialGradient><path id="path630" cx="50.247" cy="478.41" fill="url(#path630_1_)" stroke="#873C00" d="M31.8,24.5c1-2.1,3-3.3,4.4-2.6c1.5,0.7,1.9,3,0.9,5.1h0c-1,2.1-3,3.3-4.4,2.7C31.2,28.9,30.8,26.6,31.8,24.5 C31.8,24.5,31.8,24.5,31.8,24.5z" rx="24.525" ry="34.993" type="arc"/><g id="path631" cx="50.097" cy="476.765" rx="28.862" ry="41.424" type="arc"><path id="path718" fill="none" stroke="#000" stroke-width=".54" d="M31.2,24.3 c1.1-2.4,3.3-3.6,5-2.9c1.7,0.8,2.2,3.3,1.1,5.7c0,0,0,0,0,0c-1.1,2.4-3.3,3.6-5,2.9C30.6,29.2,30.1,26.6,31.2,24.3 C31.2,24.3,31.2,24.3,31.2,24.3z" opacity=".038"/></g><g id="path632" cx="50.097" cy="476.765" rx="28.862" ry="41.424" type="arc"><path id="path729" fill="none" stroke="#000" stroke-width="1.878" d="M31.2,24.3 c1.1-2.3,3.3-3.6,5-2.8c1.7,0.8,2.2,3.3,1.1,5.7c0,0,0,0,0,0c-1.1,2.3-3.3,3.6-5,2.8C30.6,29.2,30.1,26.6,31.2,24.3 C31.2,24.3,31.2,24.3,31.2,24.3z" opacity=".014"/></g><g id="path633" cx="50.097" cy="476.765" rx="28.862" ry="41.424" type="arc"><path id="path731" fill="none" stroke="#000" stroke-width="1.187" d="M31.2,24.3 c1.1-2.3,3.3-3.6,5-2.8c1.7,0.8,2.2,3.3,1.1,5.7c0,0,0,0,0,0c-1.1,2.3-3.3,3.6-5,2.8C30.6,29.2,30.1,26.6,31.2,24.3 C31.2,24.3,31.2,24.3,31.2,24.3z" opacity=".014"/></g><g id="path634" cx="50.097" cy="476.765" rx="28.862" ry="41.424" type="arc"><path id="path733" fill="none" stroke="#000" stroke-width=".409" d="M31.2,24.3 c1.1-2.3,3.3-3.6,5-2.8c1.7,0.8,2.2,3.3,1.1,5.7c0,0,0,0,0,0c-1.1,2.3-3.3,3.6-5,2.8C30.6,29.2,30.1,26.6,31.2,24.3 C31.2,24.3,31.2,24.3,31.2,24.3z" opacity=".014"/></g><g id="path635" cx="50.097" cy="476.765" rx="28.862" ry="41.424" type="arc"><path id="path735" fill="none" stroke="#000" stroke-width=".205" d="M31.3,24.3 c1.1-2.3,3.3-3.6,4.9-2.8c1.6,0.8,2.1,3.2,1.1,5.5c0,0,0,0,0,0c-1.1,2.3-3.3,3.6-4.9,2.8C30.8,29.1,30.3,26.7,31.3,24.3 C31.3,24.3,31.3,24.3,31.3,24.3z" opacity=".152"/></g><radialGradient id="path607_1_" cx="-165.369" cy="425.863" r=".097" fx="-165.369" fy="425.863" gradientTransform="matrix(32.7239 14.9381 21.7364 -47.2624 -3823.5298 22618.0371)" gradientUnits="userSpaceOnUse"><stop style="stop-color:#dee2e7" id="stop737" offset="0"/><stop style="stop-color:#fff" id="stop738" offset="1"/></radialGradient><path id="path607" cx="50.247" cy="478.41" fill="url(#path607_1_)" stroke="#754000" d="M23.7,20.5c0.9-1.9,0.5-3.9-0.8-4.5c-1.3-0.6-3.1,0.4-3.9,2.3l0,0c-0.9,1.9-0.5,3.9,0.8,4.5C21.1,23.4,22.9,22.4,23.7,20.5 C23.7,20.5,23.7,20.5,23.7,20.5z" rx="24.525" ry="34.993" type="arc"/><g id="path612" cx="50.097" cy="476.765" rx="28.862" ry="41.424" type="arc"><path id="path744" fill="none" stroke="#000" stroke-width=".54" d="M24.1,20.6 c1-2.1,0.5-4.3-1-5c-1.5-0.7-3.5,0.4-4.5,2.5c0,0,0,0,0,0c-1,2.1-0.5,4.3,1,5C21.2,23.8,23.2,22.7,24.1,20.6 C24.1,20.6,24.1,20.6,24.1,20.6z" opacity=".038"/></g><g id="path613" cx="50.097" cy="476.765" rx="28.862" ry="41.424" type="arc"><path id="path746" fill="none" stroke="#000" stroke-width="1.878" d="M24.1,20.6 c0.9-2.1,0.5-4.3-1-5c-1.5-0.7-3.5,0.4-4.4,2.5c0,0,0,0,0,0c-0.9,2.1-0.5,4.3,1,5C21.2,23.8,23.2,22.7,24.1,20.6 C24.1,20.6,24.1,20.6,24.1,20.6z" opacity=".014"/></g><g id="path614" cx="50.097" cy="476.765" rx="28.862" ry="41.424" type="arc"><path id="path748" fill="none" stroke="#000" stroke-width="1.187" d="M24.1,20.6 c0.9-2.1,0.5-4.3-1-5c-1.5-0.7-3.5,0.4-4.4,2.5c0,0,0,0,0,0c-0.9,2.1-0.5,4.3,1,5C21.2,23.8,23.2,22.7,24.1,20.6 C24.1,20.6,24.1,20.6,24.1,20.6z" opacity=".014"/></g><g id="path615" cx="50.097" cy="476.765" rx="28.862" ry="41.424" type="arc"><path id="path750" fill="none" stroke="#000" stroke-width=".409" d="M24.1,20.6 c0.9-2.1,0.5-4.3-1-5c-1.5-0.7-3.5,0.4-4.4,2.5c0,0,0,0,0,0c-0.9,2.1-0.5,4.3,1,5C21.2,23.8,23.2,22.7,24.1,20.6 C24.1,20.6,24.1,20.6,24.1,20.6z" opacity=".014"/></g><g id="path616" cx="50.097" cy="476.765" rx="28.862" ry="41.424" type="arc"><path id="path752" fill="none" stroke="#000" stroke-width=".205" d="M24,20.6 c0.9-2,0.5-4.2-0.9-4.9c-1.5-0.7-3.4,0.4-4.3,2.5c0,0,0,0,0,0c-0.9,2-0.5,4.2,0.9,4.9C21.1,23.7,23.1,22.6,24,20.6 C24,20.6,24,20.6,24,20.6z" opacity=".152"/></g><radialGradient id="path624_1_" cx="-167.902" cy="423.756" r=".089" fx="-167.902" fy="423.756" gradientTransform="matrix(13.6286 6.2213 6.938 -15.0855 -630.7041 7457.3765)" gradientUnits="userSpaceOnUse"><stop style="stop-color:#000082" id="stop754" offset="0"/><stop style="stop-color:#000" id="stop755" offset="1"/></radialGradient><path id="path624" cx="61.649" cy="495.829" fill="url(#path624_1_)" d="M22.1,21.5c0.3-0.6,0.1-1.3-0.5-1.5c-0.5-0.2-1.2,0-1.5,0.6l0,0c-0.3,0.6-0.1,1.3,0.5,1.5C21.2,22.3,21.8,22.1,22.1,21.5 C22.1,21.5,22.1,21.5,22.1,21.5z" rx="10.469" ry="10.892" type="arc"/><radialGradient id="path637_1_" cx="-155.366" cy="424.326" r=".09" fx="-155.366" fy="424.326" gradientTransform="matrix(-15.4437 -7.0762 7.8648 -17.1646 -5702.6519 6210.6328)" gradientUnits="userSpaceOnUse"><stop style="stop-color:#000082" id="stop761" offset="0"/><stop style="stop-color:#000" id="stop762" offset="1"/></radialGradient><path id="path637" cx="61.649" cy="495.829" fill="url(#path637_1_)" d="M32.1,26.6c0.3-0.7,1.1-1,1.7-0.7c0.6,0.3,0.9,1.1,0.5,1.7c0,0,0,0,0,0c-0.3,0.7-1.1,1-1.7,0.7C32.1,28.1,31.8,27.3,32.1,26.6 C32.1,26.6,32.1,26.6,32.1,26.6z" rx="10.469" ry="10.892" type="arc"/></g><g id="g767"><g id="path638" nodetypes="ccccc"><path id="path769" fill="none" stroke="#000" stroke-width="1.545" d="M19.9,28.3 c0.1-0.6-1.2-0.8-1,0c2.7,6.2,6.8,9.5,13.4,8.7c1.8-0.4,1.1-1.8-0.4-1.5C26.3,35.6,23,34.3,19.9,28.3z" opacity=".37"/></g><path id="path629" fill="#5D1A00" d="M19.9,28.3c0.1-0.6-1.2-0.8-1,0c2.7,6.2,6.8,9.5,13.4,8.7 c1.8-0.4,1.1-1.8-0.4-1.5C26.3,35.6,23,34.3,19.9,28.3z" nodetypes="ccccc"/><g id="path639" nodetypes="ccccc"><path id="path772" fill="none" stroke="#000" stroke-width=".502" d="M19.9,28.3 c0.1-0.6-1.2-0.8-1,0c2.7,6.2,6.8,9.5,13.4,8.7c1.8-0.4,1.1-1.8-0.4-1.5C26.3,35.6,23,34.3,19.9,28.3z" opacity=".37"/></g></g><g id="g773"><path id="path774" fill="none" stroke="#B84D00" stroke-linecap="round" stroke-linejoin="round" stroke-width="1.283" d="M24.6,4.6C21.7,16.1,24,17,24.5,20.3c0.3,4.6-1.4,5-1.6,7.9c0.2,2.3,1.7,2.6,1.8,4.9c0.2,2.6-3.6,3.7-3.5,6.8 c-0.1,1.7,1.5,3.9,2.7,4c1.1,0,1.7-0.5,1.7-1.1c0.1-0.8-0.8-1.2-1.6-1.1c-1.2,0-2.7,1.3-1.5,4.9" nodetypes="ccccccccc"/><path id="path775" fill="none" stroke="#B89200" stroke-linecap="round" stroke-linejoin="round" stroke-width="1.317" d="M41.9,3.9C45,15.2,42.5,16.1,42,19.4c-0.4,4.5,1.5,5,1.8,7.7c-0.3,2.3-1.8,2.5-1.9,4.8c-0.2,2.5,3.9,3.6,3.7,6.6 c0.1,1.7-1.6,3.8-2.9,3.9c-1.1,0-1.8-0.5-1.8-1.1c-0.2-0.8,0.9-1.2,1.7-1.1c1.3,0,2.9,1.3,1.6,4.8" nodetypes="ccccccccc"/><path id="path730" fill="none" stroke="#B84D00" stroke-linecap="round" stroke-linejoin="round" stroke-width="1.169" d="M16.4,1.5c-2.9,9.5-0.5,10.3-0.1,13.1c0.3,3.8-1.4,4.2-1.6,6.5c0.2,1.9,1.7,2.1,1.8,4c0.2,2.1-3.6,3.1-3.5,5.6 c-0.1,1.4,1.5,3.2,2.7,3.3c1.1,0,1.7-0.4,1.7-0.9c0.1-0.7-0.8-1-1.6-0.9c-1.2,0-2.7,1.1-1.5,4.1" nodetypes="ccccccccc"/></g><rect id="rect662" width="48" height="48" x=".7" y=".7" fill="none"/></g></g></svg>