<svg xmlns="http://www.w3.org/2000/svg" xmlns:xlink="http://www.w3.org/1999/xlink" id="svg602" width="52.8" height="53.2" enable-background="new 0 0 52.8 53.2" overflow="visible" viewBox="0 0 52.8 53.2" xml:space="preserve"><g id="Layer_1"><g id="g606"><g id="g607"><g id="rect584"><path id="path609" fill="none" stroke="#000" stroke-width="5.416" d="M37.3,3.7l11.7,11.5 c1.3,1.3,1.4,3.5,0.1,4.8L20.3,49.5c-1.3,1.4-3.5,1.4-4.8,0.1L3.7,38.1c-1.4-1.3-1.4-3.5-0.1-4.8L32.5,3.7 C33.8,2.4,36,2.4,37.3,3.7z" opacity=".043"/></g><g id="rect583"><path id="path611" fill="none" stroke="#000" stroke-width="3.775" d="M37.3,3.7l11.7,11.5 c1.3,1.3,1.4,3.5,0.1,4.8L20.3,49.5c-1.3,1.4-3.5,1.4-4.8,0.1L3.7,38.1c-1.4-1.3-1.4-3.5-0.1-4.8L32.5,3.7 C33.8,2.4,36,2.4,37.3,3.7z" opacity=".043"/></g><g id="rect582"><path id="path613" fill="none" stroke="#000" stroke-width="2.134" d="M37.3,3.7l11.7,11.5 c1.3,1.3,1.4,3.5,0.1,4.8L20.3,49.5c-1.3,1.4-3.5,1.4-4.8,0.1L3.7,38.1c-1.4-1.3-1.4-3.5-0.1-4.8L32.5,3.7 C33.8,2.4,36,2.4,37.3,3.7z" opacity=".043"/></g><g id="rect581"><path id="path615" fill="none" stroke="#000" stroke-width="2.462" d="M37.3,3.7l11.7,11.5 c1.3,1.3,1.4,3.5,0.1,4.8L20.3,49.5c-1.3,1.4-3.5,1.4-4.8,0.1L3.7,38.1c-1.4-1.3-1.4-3.5-0.1-4.8L32.5,3.7 C33.8,2.4,36,2.4,37.3,3.7z" opacity=".043"/></g><g id="rect580"><path id="path617" fill="none" stroke="#000" stroke-width="2.954" d="M37.3,3.7l11.7,11.5 c1.3,1.3,1.4,3.5,0.1,4.8L20.3,49.5c-1.3,1.4-3.5,1.4-4.8,0.1L3.7,38.1c-1.4-1.3-1.4-3.5-0.1-4.8L32.5,3.7 C33.8,2.4,36,2.4,37.3,3.7z" opacity=".043"/></g><g id="rect579"><path id="path619" fill="none" stroke="#000" stroke-width="3.283" d="M37.3,3.7l11.7,11.5 c1.3,1.3,1.4,3.5,0.1,4.8L20.3,49.5c-1.3,1.4-3.5,1.4-4.8,0.1L3.7,38.1c-1.4-1.3-1.4-3.5-0.1-4.8L32.5,3.7 C33.8,2.4,36,2.4,37.3,3.7z" opacity=".043"/></g><g id="rect578"><path id="path621" fill="none" stroke="#000" stroke-width="4.103" d="M37.3,3.7l11.7,11.5 c1.3,1.3,1.4,3.5,0.1,4.8L20.3,49.5c-1.3,1.4-3.5,1.4-4.8,0.1L3.7,38.1c-1.4-1.3-1.4-3.5-0.1-4.8L32.5,3.7 C33.8,2.4,36,2.4,37.3,3.7z" opacity=".043"/></g><g id="rect577"><path id="path623" fill="none" stroke="#000" stroke-width="4.924" d="M37.3,3.7l11.7,11.5 c1.3,1.3,1.4,3.5,0.1,4.8L20.3,49.5c-1.3,1.4-3.5,1.4-4.8,0.1L3.7,38.1c-1.4-1.3-1.4-3.5-0.1-4.8L32.5,3.7 C33.8,2.4,36,2.4,37.3,3.7z" opacity=".043"/></g><path id="rect562" fill="#15150F" d="M37.3,3.7l11.7,11.5c1.3,1.3,1.4,3.5,0.1,4.8L20.3,49.5c-1.3,1.4-3.5,1.4-4.8,0.1 L3.7,38.1c-1.4-1.3-1.4-3.5-0.1-4.8L32.5,3.7C33.8,2.4,36,2.4,37.3,3.7z"/><path id="rect563" fill="#E6E6E6" d="M35.8,8.4l8.9,8.6c0.9,0.9,0.9,2.4,0,3.3l-4.9,4.9c-0.9,0.9-2.4,0.9-3.3,0l-8.9-8.6 c-0.9-0.9-0.9-2.4,0-3.3l4.9-4.9C33.4,7.6,34.9,7.5,35.8,8.4z"/><path id="rect564" fill="#E6E6E6" d="M26.4,18.1l8.9,8.6c0.9,0.9,0.9,2.4,0,3.3l-4.9,4.9c-0.9,0.9-2.4,0.9-3.3,0l-8.9-8.6 c-0.9-0.9-0.9-2.4,0-3.3l4.9-4.9C24,17.3,25.5,17.2,26.4,18.1z"/><path id="rect565" fill="#E6E6E6" d="M17.1,27.6l8.9,8.6c0.9,0.9,0.9,2.4,0,3.3l-4.9,4.9c-0.9,0.9-2.4,0.9-3.3,0l-8.9-8.6 C8,35,8,33.5,8.9,32.6l4.9-4.9C14.7,26.7,16.1,26.7,17.1,27.6z"/><linearGradient id="path573_1_" x1="-176.353" x2="-176.171" y1="469.223" y2="469.056" gradientTransform="matrix(227.2163 0 0 -175.2238 40090.043 82225.4297)" gradientUnits="userSpaceOnUse"><stop style="stop-color:#fff" id="stop629" offset="0"/><stop style="stop-color:#fff" id="stop630" offset="1"/></linearGradient><path id="path573" fill="url(#path573_1_)" d="M42.8,25.4 c-2,2.3-3.5-1.1-8.5-2.2c-5.1-1-4.3,0.8-9-0.1c-2.9-0.5-6.2-2-5.7-5c2.9-2.9,9.1-9.3,13.7-14c0.7-0.8,2.2-1.3,2.9-0.5 c4,3.8,8.7,8.4,12.5,12.4c1,1,0.8,2.4-0.2,3.4C46.9,21.2,44.3,23.9,42.8,25.4z" nodetypes="csscsssss" opacity=".45"/><radialGradient id="rect567_1_" cx="-176.139" cy="469.183" r=".107" fx="-176.139" fy="469.183" gradientTransform="matrix(126.6105 123.7748 255.9129 -261.7758 -97750.6172 144673.7813)" gradientUnits="userSpaceOnUse"><stop style="stop-color:#fff" id="stop636" offset="0"/><stop style="stop-color:#fff" id="stop637" offset="1"/></radialGradient><path id="rect567" fill="url(#rect567_1_)" d="M37.3,3.7l11.7,11.5c1.3,1.3,1.4,3.5,0.1,4.8L20.3,49.5 c-1.3,1.4-3.5,1.4-4.8,0.1L3.7,38.1c-1.4-1.3-1.4-3.5-0.1-4.8L32.5,3.7C33.8,2.4,36,2.4,37.3,3.7z" opacity=".2"/><path id="rect576" fill="none" stroke="#000" stroke-width="1.067" d="M37.3,3.7l11.7,11.5c1.3,1.3,1.4,3.5,0.1,4.8 L20.3,49.5c-1.3,1.4-3.5,1.4-4.8,0.1L3.7,38.1c-1.4-1.3-1.4-3.5-0.1-4.8L32.5,3.7C33.8,2.4,36,2.4,37.3,3.7z"/><linearGradient id="path585_1_" x1="-176.354" x2="-176.223" y1="469.175" y2="469.175" gradientTransform="matrix(227.2163 0 0 -175.2238 40090.043 82225.4297)" gradientUnits="userSpaceOnUse"><stop style="stop-color:#fff" id="stop644" offset="0"/><stop style="stop-color:#fff" id="stop645" offset="1"/></linearGradient><path id="path585" fill="url(#path585_1_)" d="M42.8,25.4 c-2,2.3-3.5-1.1-8.5-2.2c-5.1-1-4.3,0.8-9-0.1c-2.9-0.5-6.2-2-5.7-5c2.9-2.9,9.1-9.3,13.7-14c0.7-0.8,2.2-1.3,2.9-0.5 c4,3.8,8.7,8.4,12.5,12.4c1,1,0.8,2.4-0.2,3.4C46.9,21.2,44.3,23.9,42.8,25.4z" nodetypes="csscsssss" opacity=".35"/></g><rect id="rect650" width="48" height="48" x="2.4" y="2.6" fill="none" opacity=".25"/></g></g></svg>