<svg xmlns="http://www.w3.org/2000/svg" xmlns:xlink="http://www.w3.org/1999/xlink" id="svg602" width="52.5" height="48" enable-background="new 0 0 52.5 48" overflow="visible" viewBox="0 0 52.5 48" xml:space="preserve"><g id="Layer_1"><g id="g606"><g id="g607"><g id="path622" nodetypes="cccccccc"><path id="path609" fill="none" stroke="#232929" stroke-linejoin="round" stroke-width="2.443" d="M2.8,43c13.6-6.3,33.1-13.9,47.1-20c0.6-4.6,0.8-14.1-3-15c-1.2-0.4-11.1-2.2-16.2-2.7c-4.1-0.4-11.3-0.3-15.1-0.5 c-1.4,1.4-2,6.5-1.5,12.7c-3.3,6.3-7.4,12.3-11.5,18.6C1.7,38.2,3,41.1,2.8,43z" opacity=".038"/></g><g id="path621" nodetypes="cccccccc"><path id="path611" fill="none" stroke="#232929" stroke-linejoin="round" stroke-width="2.795" d="M2.8,43c13.6-6.3,33.1-13.9,47.1-20c0.6-4.6,0.8-14.1-3-15c-1.2-0.4-11.1-2.2-16.2-2.7c-4.1-0.4-11.3-0.3-15.1-0.5 c-1.4,1.4-2,6.5-1.5,12.7c-3.3,6.3-7.4,12.3-11.5,18.6C1.7,38.2,3,41.1,2.8,43z" opacity=".038"/></g><g id="path620" nodetypes="cccccccc"><path id="path613" fill="none" stroke="#232929" stroke-linejoin="round" stroke-width="3.038" d="M2.8,43c13.6-6.3,33.1-13.9,47.1-20c0.6-4.6,0.8-14.1-3-15c-1.2-0.4-11.1-2.2-16.2-2.7c-4.1-0.4-11.3-0.3-15.1-0.5 c-1.4,1.4-2,6.5-1.5,12.7c-3.3,6.3-7.4,12.3-11.5,18.6C1.7,38.2,3,41.1,2.8,43z" opacity=".038"/></g><g id="path619" nodetypes="cccccccc"><path id="path615" fill="none" stroke="#232929" stroke-linejoin="round" stroke-width="3.389" d="M2.8,43c13.6-6.3,33.1-13.9,47.1-20c0.6-4.6,0.8-14.1-3-15c-1.2-0.4-11.1-2.2-16.2-2.7c-4.1-0.4-11.3-0.3-15.1-0.5 c-1.4,1.4-2,6.5-1.5,12.7c-3.3,6.3-7.4,12.3-11.5,18.6C1.7,38.2,3,41.1,2.8,43z" opacity=".038"/></g><g id="path618" nodetypes="cccccccc"><path id="path617" fill="none" stroke="#232929" stroke-linejoin="round" stroke-width="3.982" d="M2.8,43c13.6-6.3,33.1-13.9,47.1-20c0.6-4.6,0.8-14.1-3-15c-1.2-0.4-11.1-2.2-16.2-2.7c-4.1-0.4-11.3-0.3-15.1-0.5 c-1.4,1.4-2,6.5-1.5,12.7c-3.3,6.3-7.4,12.3-11.5,18.6C1.7,38.2,3,41.1,2.8,43z" opacity=".038"/></g><g id="g618" nodetypes="cccccccc"><path id="path623" fill="none" stroke="#232929" stroke-linejoin="round" stroke-width="4.509" d="M2.8,43c13.6-6.3,33.1-13.9,47.1-20c0.6-4.6,0.8-14.1-3-15c-1.2-0.4-11.1-2.2-16.2-2.7c-4.1-0.4-11.3-0.3-15.1-0.5 c-1.4,1.4-2,6.5-1.5,12.7c-3.3,6.3-7.4,12.3-11.5,18.6C1.7,38.2,3,41.1,2.8,43z" opacity=".038"/></g><linearGradient id="path567_1_" x1="-183.789" x2="-183.681" y1="447.976" y2="447.976" gradientTransform="matrix(437.8213 0 0 -322.6064 80469.2734 144545.5625)" gradientUnits="userSpaceOnUse"><stop style="stop-color:#8c7a65" id="stop625" offset="0"/><stop style="stop-color:#d7d70a" id="stop626" offset="1"/></linearGradient><path id="path567" fill="url(#path567_1_)" d="M2.7,43.1l47.2-19.9c0.3-6.4,0.5-17.3-5.3-14.5 c-2.9,1.3-5.4,7.9-4.3,11.7L2.7,36.2V43.1z" nodetypes="ccsccc"/><linearGradient id="path570_1_" x1="-183.961" x2="-183.929" y1="447.465" y2="447.352" gradientTransform="matrix(303.1233 0 0 -144.1542 55787.4258 64506.9258)" gradientUnits="userSpaceOnUse"><stop style="stop-color:#baa77f" id="stop632" offset="0"/><stop style="stop-color:#ffff6f" id="stop633" offset="1"/></linearGradient><path id="path570" fill="url(#path570_1_)" d="M46.7,8.2C38.2,5.8,26,4.6,15.5,5 c-1.6,2.1-1.5,7.9-1.5,12.7c9.3,0,18.9,1,26.5,2.8C40.2,17.4,40.1,9.4,46.7,8.2z" nodetypes="ccccc"/><linearGradient id="path569_1_" x1="-183.728" x2="-183.66" y1="448.135" y2="448.107" gradientTransform="matrix(347.6206 0 0 -179.3531 63871.5625 80398.2891)" gradientUnits="userSpaceOnUse"><stop style="stop-color:#d9cd87" id="stop639" offset="0"/><stop style="stop-color:#fff" id="stop640" offset="1"/></linearGradient><path id="path569" fill="url(#path569_1_)" d="M14.2,17.6c1.2,0,2.5-0.8,3.7-0.8 c1.2,0,2.3,0.9,3.4,1c1.2,0.1,2.7-1,3.8-0.9c1.1,0.1,1.9,1.4,3,1.5c1.1,0.1,2.7-1.4,3.8-1.2c1.1,0.2,1.5,2,2.6,2.1 c1,0.2,2.5-0.8,3.5-0.6c1,0.2,1.5,1.6,2.4,1.8c0,0-37.7,15.9-37.5,15.7C2.9,36,14,17.7,14.2,17.6z" nodetypes="csssssssccc"/><radialGradient id="path583_1_" cx="-182.359" cy="453.463" r=".206" fx="-182.359" fy="453.463" gradientTransform="matrix(38.2834 0 0 -14.9674 7000.6792 6813.0444)" gradientUnits="userSpaceOnUse"><stop style="stop-color:#850000" id="stop646" offset="0"/><stop style="stop-color:#d50000" id="stop647" offset="1"/></radialGradient><path id="path583" cx="192.016" cy="601.035" fill="url(#path583_1_)" stroke="#000" stroke-width=".171" d="M12.4,30.1c0-0.4-0.9-0.8-2.1-0.8c-1.1,0-2.1,0.4-2.1,0.8v0c0,0.4,0.9,0.8,2.1,0.8C11.5,30.9,12.4,30.6,12.4,30.1 C12.4,30.1,12.4,30.1,12.4,30.1z" rx="25.722" ry="11.066" type="arc"/><radialGradient id="path588_1_" cx="-182.672" cy="452.244" r=".265" fx="-182.672" fy="452.244" gradientTransform="matrix(29.839 0 0 -11.666 5470.1348 5301.7646)" gradientUnits="userSpaceOnUse"><stop style="stop-color:#850000" id="stop653" offset="0"/><stop style="stop-color:#d50000" id="stop654" offset="1"/></radialGradient><path id="path588" cx="192.016" cy="601.035" fill="url(#path588_1_)" stroke="#000" stroke-width=".22" d="M14.3,26.6c0-0.3-0.8-0.6-1.7-0.6c-1,0-1.7,0.3-1.7,0.6c0,0,0,0,0,0c0,0.3,0.8,0.6,1.7,0.6S14.3,26.9,14.3,26.6 C14.3,26.6,14.3,26.6,14.3,26.6z" rx="25.722" ry="11.066" type="arc"/><radialGradient id="path589_1_" cx="-184.077" cy="452.065" r=".207" fx="-184.077" fy="452.065" gradientTransform="matrix(38.2834 0 0 -14.9674 7066.4604 6792.1069)" gradientUnits="userSpaceOnUse"><stop style="stop-color:#850000" id="stop660" offset="0"/><stop style="stop-color:#d50000" id="stop661" offset="1"/></radialGradient><path id="path589" cx="192.016" cy="601.035" fill="url(#path589_1_)" stroke="#000" stroke-width=".171" d="M19.5,27.9c0-0.4-0.9-0.8-2.1-0.8c-1.1,0-2.1,0.4-2.1,0.8c0,0,0,0,0,0c0,0.4,0.9,0.8,2.1,0.8C18.6,28.7,19.5,28.3,19.5,27.9 L19.5,27.9z" rx="25.722" ry="11.066" type="arc"/><radialGradient id="path590_1_" cx="-184.015" cy="449.905" r=".204" fx="-184.015" fy="449.905" gradientTransform="matrix(38.2834 0 0 -14.9674 7064.0854 6759.7944)" gradientUnits="userSpaceOnUse"><stop style="stop-color:#850000" id="stop667" offset="0"/><stop style="stop-color:#d50000" id="stop668" offset="1"/></radialGradient><path id="path590" cx="192.016" cy="601.035" fill="url(#path590_1_)" stroke="#000" stroke-width=".171" d="M19.2,24.4c0-0.4-0.9-0.8-2.1-0.8s-2.1,0.4-2.1,0.8v0c0,0.4,0.9,0.8,2.1,0.8C18.3,25.2,19.2,24.8,19.2,24.4 C19.2,24.4,19.2,24.4,19.2,24.4z" rx="25.722" ry="11.066" type="arc"/><radialGradient id="path591_1_" cx="-185.905" cy="450.144" r=".207" fx="-185.905" fy="450.144" gradientTransform="matrix(38.2834 0 0 -14.9674 7136.4604 6763.3882)" gradientUnits="userSpaceOnUse"><stop style="stop-color:#850000" id="stop674" offset="0"/><stop style="stop-color:#d50000" id="stop675" offset="1"/></radialGradient><path id="path591" cx="192.016" cy="601.035" fill="url(#path591_1_)" stroke="#232929" stroke-width=".171" d="M27.1,24.8c0-0.4-0.9-0.8-2.1-0.8c-1.1,0-2.1,0.4-2.1,0.8v0c0,0.4,0.9,0.8,2.1,0.8C26.1,25.6,27.1,25.2,27.1,24.8 C27.1,24.8,27.1,24.8,27.1,24.8z" rx="25.722" ry="11.066" type="arc"/><radialGradient id="path592_1_" cx="-185.698" cy="448.347" r=".241" fx="-185.698" fy="448.347" gradientTransform="matrix(32.6813 0 0 -12.7772 6088.2583 5754.5093)" gradientUnits="userSpaceOnUse"><stop style="stop-color:#850000" id="stop681" offset="0"/><stop style="stop-color:#d50000" id="stop682" offset="1"/></radialGradient><path id="path592" cx="192.016" cy="601.035" fill="url(#path592_1_)" stroke="#232929" stroke-width=".201" d="M24.5,21.8c0-0.4-0.8-0.7-1.7-0.7s-1.7,0.3-1.7,0.7v0c0,0.4,0.8,0.7,1.7,0.7C23.7,22.5,24.5,22.2,24.5,21.8 C24.5,21.8,24.5,21.8,24.5,21.8z" rx="25.722" ry="11.066" type="arc"/><radialGradient id="path593_1_" cx="-183.759" cy="447.832" r=".241" fx="-183.759" fy="447.832" gradientTransform="matrix(32.6813 0 0 -12.7772 6024.8521 5747.9312)" gradientUnits="userSpaceOnUse"><stop style="stop-color:#850000" id="stop688" offset="0"/><stop style="stop-color:#d50000" id="stop689" offset="1"/></radialGradient><path id="path593" cx="192.016" cy="601.035" fill="url(#path593_1_)" stroke="#000" stroke-width=".201" d="M17.6,21.1c0-0.4-0.8-0.7-1.7-0.7c-0.9,0-1.7,0.3-1.7,0.7c0,0,0,0,0,0c0,0.4,0.8,0.7,1.7,0.7C16.9,21.8,17.6,21.5,17.6,21.1 L17.6,21.1z" rx="25.722" ry="11.066" type="arc"/><radialGradient id="path594_1_" cx="-187.804" cy="448.207" r=".241" fx="-187.804" fy="448.207" gradientTransform="matrix(32.6813 0 0 -12.7772 6157.0552 5752.7202)" gradientUnits="userSpaceOnUse"><stop style="stop-color:#850000" id="stop695" offset="0"/><stop style="stop-color:#d50000" id="stop696" offset="1"/></radialGradient><path id="path594" cx="192.016" cy="601.035" fill="url(#path594_1_)" stroke="#232929" stroke-width=".201" d="M31.9,21.6c0-0.4-0.8-0.7-1.7-0.7c-0.9,0-1.7,0.3-1.7,0.7c0,0,0,0,0,0c0,0.4,0.8,0.7,1.7,0.7C31.1,22.3,31.9,22,31.9,21.6 L31.9,21.6z" rx="25.722" ry="11.066" type="arc"/><linearGradient id="path604_1_" x1="-184.131" x2="-184.132" y1="447.097" y2="446.936" gradientTransform="matrix(174.5632 0 0 -100.2257 32170.0586 44812.6602)" gradientUnits="userSpaceOnUse"><stop style="stop-color:#fff" id="stop702" offset="0"/><stop style="stop-color:#fff" id="stop703" offset="1"/></linearGradient><path id="path604" fill="url(#path604_1_)" d="M24.6,5c-2-0.2-5.4,0.6-6.2,2.7 c-0.5,1.5-0.1,3.8,1.1,4.8c2.2,2,5.5,3.3,8.9,3.2c3.3-0.1,8.4-2.4,8.6-4C38,4.4,30.4,5.6,24.6,5z" nodetypes="csssss" opacity=".35"/><path id="path708" fill="none" stroke="#6F4747" stroke-linejoin="round" stroke-width=".81" d="M2.8,43c13.6-6.3,33.1-13.9,47.1-20c0.6-4.6,0.8-14.1-3-15c-1.2-0.4-11.1-2.2-16.2-2.7c-4.1-0.4-11.3-0.3-15.1-0.5 c-1.4,1.4-2,6.5-1.5,12.7c-3.3,6.3-7.4,12.3-11.5,18.6C1.7,38.2,3,41.1,2.8,43z" nodetypes="cccccccc"/><linearGradient id="path595_1_" x1="-183.668" x2="-183.697" y1="448.234" y2="448.323" gradientTransform="matrix(360.7106 0 0 -196.4639 66278.9063 88101.5234)" gradientUnits="userSpaceOnUse"><stop style="stop-color:#d9cd87" id="stop710" offset="0"/><stop style="stop-color:#fff" id="stop711" offset="1"/></linearGradient><path id="path595" fill="url(#path595_1_)" d="M40.6,20.2l0.8,1 c0.5,0.6-0.3,2.2-0.8,2.6c-0.6,0.5-1.2-1-2-0.6c-0.4,0.2-1.3,1.8-1.7,1.9c-0.7,0.2-1-1.2-1.7-0.8c-1.1,0.5-1.7,2.5-2.7,2.9 c-0.6,0.2-1.7-1.4-2.3-1.1c-0.9,0.4-2.4,3.9-3.7,3.8c-1.2-0.1-1.4-1.4-2.4-0.9c-0.9,0.4-1.7,2.7-2.5,3 c-0.5,0.3-0.9-1.5-1.5-1.2c-1.1,0.5-2.4,2.5-3.4,3.6c-0.6,0.7-1.3-1.3-2-1c-0.9,0.3-1.6,1.6-2.5,2.4c-0.7,0.7-2.3-1.4-2.8-0.8 l-1.6,1.7c-0.7,0.8,0.7,2,0.6,2.6c-0.1,0.6-0.6,1.7-1.5,2.2c-0.5,0.2-1.7-0.7-2-1.3c-0.2-0.4,0.3-2.9,0.1-3 C4.7,37,3.3,38,2.8,37.9c-0.3-0.1-0.1-1.7,0.4-1.9L40.6,20.2z" nodetypes="cssssssssssssssssssssssc"/><radialGradient id="path610_1_" cx="-180.033" cy="456.697" r=".022" fx="-180.033" fy="456.697" gradientTransform="matrix(16.8797 0 0 -17.761 3046.5298 8151.0444)" gradientUnits="userSpaceOnUse"><stop style="stop-color:#fff" id="stop717" offset="0"/><stop style="stop-color:#fff" id="stop718" offset="1"/></radialGradient><path id="path610" fill="url(#path610_1_)" d="M7.5,40.5c0.3,0,0.9-1,0.9-1.3 c0-0.3-0.7-0.6-1.1-0.6c-0.3,0-0.8,0.5-0.8,0.8C6.6,39.7,7.2,40.5,7.5,40.5z" nodetypes="cssss"/><path id="path723" fill="url(#path610_1_)" d="M7.5,40.5c0.3,0,0.9-1,0.9-1.3 c0-0.3-0.7-0.6-1.1-0.6c-0.3,0-0.8,0.5-0.8,0.8C6.6,39.7,7.2,40.5,7.5,40.5z" nodetypes="cssss"/><linearGradient id="path599_1_" x1="-183.729" x2="-183.62" y1="448.262" y2="448.261" gradientTransform="matrix(350.8741 0 0 -155.8625 64468.1719 69895.3594)" gradientUnits="userSpaceOnUse"><stop style="stop-color:#fff" id="stop725" offset="0"/><stop style="stop-color:#fff" id="stop726" offset="1"/></linearGradient><path id="path599" fill="url(#path599_1_)" d="M40,19.9l0.5,0.6L2.7,36.7C2.2,37,3,35.5,3.3,35.2 c0.1-0.1,0.4,0.4,0.6,0.3L40,19.9z" nodetypes="ccsssc"/><linearGradient id="path612_1_" x1="-183.152" x2="-183.043" y1="448.146" y2="448.145" gradientTransform="matrix(116.8427 0 0 -172.7939 21402.3828 77463.5234)" gradientUnits="userSpaceOnUse"><stop style="stop-color:#fff" id="stop732" offset="0"/><stop style="stop-color:#fff" id="stop733" offset="1"/></linearGradient><path id="path612" fill="url(#path612_1_)" d="M14.5,17.5l0.5,0L3.7,35.8 c-0.1,0.2-1.4,0.5-1.3,0.1c0-0.1,0.8-0.8,0.8-0.9L14.5,17.5z" nodetypes="ccsssc"/><radialGradient id="path613_1_" cx="-181.538" cy="458.098" r=".022" fx="-181.538" fy="458.098" gradientTransform="matrix(10.2506 0 0 -11.5735 1873.105 5336.7202)" gradientUnits="userSpaceOnUse"><stop style="stop-color:#fff" id="stop739" offset="0"/><stop style="stop-color:#fff" id="stop740" offset="1"/></radialGradient><path id="path744" fill="url(#path613_1_)" d="M12.1,35.5c0.2,0,0.6-0.6,0.5-0.9 c0-0.2-0.4-0.4-0.6-0.4c-0.2,0-0.5,0.3-0.5,0.5C11.6,35,12,35.5,12.1,35.5z" nodetypes="cssss"/><radialGradient id="path614_1_" cx="-185.191" cy="457.11" r=".022" fx="-185.191" fy="457.11" gradientTransform="matrix(10.2506 0 0 -11.5735 1915.0894 5323.8999)" gradientUnits="userSpaceOnUse"><stop style="stop-color:#fff" id="stop746" offset="0"/><stop style="stop-color:#fff" id="stop747" offset="1"/></radialGradient><path id="path614" fill="url(#path614_1_)" d="M16.7,34.1c0.2,0,0.6-0.6,0.5-0.9 c0-0.2-0.4-0.4-0.6-0.4c-0.2,0-0.5,0.3-0.5,0.5C16.1,33.6,16.5,34.1,16.7,34.1z" nodetypes="cssss"/><radialGradient id="path615_1_" cx="-189.345" cy="455.407" r=".022" fx="-189.345" fy="455.407" gradientTransform="matrix(10.2506 0 0 -11.5735 1962.8159 5301.8062)" gradientUnits="userSpaceOnUse"><stop style="stop-color:#fff" id="stop753" offset="0"/><stop style="stop-color:#fff" id="stop754" offset="1"/></radialGradient><path id="path758" fill="url(#path615_1_)" d="M21.8,31.7c0.2,0,0.6-0.6,0.5-0.9 c0-0.2-0.4-0.4-0.6-0.4c-0.2,0-0.5,0.3-0.5,0.5C21.3,31.2,21.7,31.7,21.8,31.7z" nodetypes="cssss"/><path id="path637" cx="192.016" cy="601.035" fill="url(#path583_1_)" stroke="#000" stroke-width=".171" d="M12.4,30.1c0-0.4-0.9-0.8-2.1-0.8c-1.1,0-2.1,0.4-2.1,0.8v0c0,0.4,0.9,0.8,2.1,0.8C11.5,30.9,12.4,30.6,12.4,30.1 C12.4,30.1,12.4,30.1,12.4,30.1z" rx="25.722" ry="11.066" type="arc"/><radialGradient id="path635_1_" cx="-182.142" cy="457.781" r=".032" fx="-182.142" fy="457.781" gradientTransform="matrix(20.6057 0 0 -7.8903 3764.1177 3641.8176)" gradientUnits="userSpaceOnUse"><stop style="stop-color:#fff" id="stop761" offset="0"/><stop style="stop-color:#fff" id="stop762" offset="1"/></radialGradient><path id="path635" cx="192.016" cy="601.035" fill="url(#path635_1_)" d="M12.3,29.9c0-0.2-0.5-0.4-1.1-0.4c-0.6,0-1.1,0.2-1.1,0.4l0,0c0,0.2,0.5,0.4,1.1,0.4S12.3,30.2,12.3,29.9L12.3,29.9z" rx="25.722" ry="11.066" type="arc"/><path id="path639" cx="192.016" cy="601.035" fill="url(#path635_1_)" d="M12.3,29.9c0-0.2-0.5-0.4-1.1-0.4c-0.6,0-1.1,0.2-1.1,0.4l0,0c0,0.2,0.5,0.4,1.1,0.4S12.3,30.2,12.3,29.9L12.3,29.9z" rx="25.722" ry="11.066" type="arc"/><radialGradient id="path640_1_" cx="-184.935" cy="451.836" r=".033" fx="-184.935" fy="451.836" gradientTransform="matrix(20.6057 0 0 -7.8903 3828.6333 3589.2317)" gradientUnits="userSpaceOnUse"><stop style="stop-color:#fff" id="stop769" offset="0"/><stop style="stop-color:#fff" id="stop770" offset="1"/></radialGradient><path id="path640" cx="192.016" cy="601.035" fill="url(#path640_1_)" d="M19.2,24.3c0-0.2-0.5-0.4-1.1-0.4c-0.6,0-1.1,0.2-1.1,0.4c0,0,0,0,0,0c0,0.2,0.5,0.4,1.1,0.4C18.7,24.7,19.2,24.5,19.2,24.3 L19.2,24.3z" rx="25.722" ry="11.066" type="arc"/><path id="path641" cx="192.016" cy="601.035" fill="url(#path640_1_)" d="M19.2,24.3c0-0.2-0.5-0.4-1.1-0.4c-0.6,0-1.1,0.2-1.1,0.4c0,0,0,0,0,0c0,0.2,0.5,0.4,1.1,0.4C18.7,24.7,19.2,24.5,19.2,24.3 L19.2,24.3z" rx="25.722" ry="11.066" type="arc"/><radialGradient id="path642_1_" cx="-185.031" cy="455.383" r=".033" fx="-185.031" fy="455.383" gradientTransform="matrix(20.6057 0 0 -7.8903 3830.8521 3620.6067)" gradientUnits="userSpaceOnUse"><stop style="stop-color:#fff" id="stop777" offset="0"/><stop style="stop-color:#fff" id="stop778" offset="1"/></radialGradient><path id="path642" cx="192.016" cy="601.035" fill="url(#path642_1_)" d="M19.5,27.7c0-0.2-0.5-0.4-1.1-0.4c-0.6,0-1.1,0.2-1.1,0.4l0,0c0,0.2,0.5,0.4,1.1,0.4C19,28.1,19.5,27.9,19.5,27.7 C19.5,27.7,19.5,27.7,19.5,27.7z" rx="25.722" ry="11.066" type="arc"/><path id="path643" cx="192.016" cy="601.035" fill="url(#path642_1_)" d="M19.5,27.7c0-0.2-0.5-0.4-1.1-0.4c-0.6,0-1.1,0.2-1.1,0.4l0,0c0,0.2,0.5,0.4,1.1,0.4C19,28.1,19.5,27.9,19.5,27.7 C19.5,27.7,19.5,27.7,19.5,27.7z" rx="25.722" ry="11.066" type="arc"/><radialGradient id="path644_1_" cx="-188.035" cy="452.234" r=".032" fx="-188.035" fy="452.234" gradientTransform="matrix(20.6057 0 0 -7.8903 3900.2427 3592.7629)" gradientUnits="userSpaceOnUse"><stop style="stop-color:#fff" id="stop785" offset="0"/><stop style="stop-color:#fff" id="stop786" offset="1"/></radialGradient><path id="path644" cx="192.016" cy="601.035" fill="url(#path644_1_)" d="M27,24.6c0-0.2-0.5-0.4-1.1-0.4c-0.6,0-1.1,0.2-1.1,0.4c0,0,0,0,0,0c0,0.2,0.5,0.4,1.1,0.4C26.5,25.1,27,24.9,27,24.6L27,24.6z" rx="25.722" ry="11.066" type="arc"/><path id="path645" cx="192.016" cy="601.035" fill="url(#path644_1_)" d="M27,24.6c0-0.2-0.5-0.4-1.1-0.4c-0.6,0-1.1,0.2-1.1,0.4c0,0,0,0,0,0c0,0.2,0.5,0.4,1.1,0.4C26.5,25.1,27,24.9,27,24.6L27,24.6z" rx="25.722" ry="11.066" type="arc"/></g><rect id="rect792" width="48" height="48" x="2.2" fill="none"/></g></g></svg>