<svg xmlns="http://www.w3.org/2000/svg" xmlns:xlink="http://www.w3.org/1999/xlink" id="svg602" width="48" height="48.7" enable-background="new 0 0 48 48.7" overflow="visible" viewBox="0 0 48 48.7" xml:space="preserve"><g id="Layer_1"><path id="path597_5_" fill="none" stroke="#474000" stroke-width="1.882" d="M5.6,20.2c0-10.7,8-19.3,17.8-19.3c9.8,0,18.4,8.1,18.4,18.7c0,10.7-8.6,19.9-18.4,19.9C13.6,39.5,5.6,30.9,5.6,20.2z" enable-background="new" opacity=".15"/><path id="path597_4_" fill="none" stroke="#474000" stroke-width=".941" d="M5.6,20.2c0-10.7,8-19.3,17.8-19.3c9.8,0,18.4,8.1,18.4,18.7c0,10.7-8.6,19.9-18.4,19.9C13.6,39.5,5.6,30.9,5.6,20.2z" enable-background="new" opacity=".2"/><path id="path597_3_" fill="none" stroke="#474000" stroke-width=".47" d="M5.6,20.2c0-10.7,8-19.3,17.8-19.3c9.8,0,18.4,8.1,18.4,18.7c0,10.7-8.6,19.9-18.4,19.9C13.6,39.5,5.6,30.9,5.6,20.2z" enable-background="new" opacity=".3"/><radialGradient id="path700_1_" cx="-1019.423" cy="-.699" r=".064" fx="-1019.423" fy="-.699" gradientTransform="matrix(310.7065 0 0 144.1183 316766.1875 143.4774)" gradientUnits="userSpaceOnUse"><stop style="stop-color:#261700" id="stop610" offset="0"/><stop style="stop-color:#d2d2d2" id="stop611" offset="1"/></radialGradient><path id="path700" fill="url(#path700_1_)" d="M37.9,31.8c6.5,4.5,6,10.6-1.9,14.3c-7.9,3.7-19.5,3.1-25.9-1.5c-5.5-3.8-5.7-9.1-0.5-13.1c3.4,4.7,6.2,6.3,14,7.3 C30.1,38.7,34.3,35.8,37.9,31.8z" enable-background="new" opacity=".3"/><radialGradient id="path577_1_" cx="-978.348" cy="42.813" r="41.557" fx="-978.348" fy="42.813" gradientTransform="matrix(298.9032 0 0 316.3969 304733.6563 -111.2999)" gradientUnits="userSpaceOnUse"><stop style="stop-color:#ff6f00" id="stop617" offset="0"/><stop style="stop-color:#ff0" id="stop618" offset="1"/></radialGradient><circle id="path577" cx="23.9" cy="20.4" r="17.8" fill="url(#path577_1_)"/><linearGradient id="path597_1_" x1="-1019.417" x2="-1019.418" y1=".36" y2=".478" gradientTransform="matrix(303.6933 0 0 316.3967 309613.7813 -111.0366)" gradientUnits="userSpaceOnUse"><stop style="stop-color:#ff6500" id="stop624" offset="0"/><stop style="stop-color:#ff0" id="stop625" offset="1"/></linearGradient><path id="path597" fill="url(#path597_1_)" d="M5.6,20.2c0-10.7,8-19.3,17.8-19.3c9.9,0,18.4,8,18.4,18.7c0,10.7-8.6,19.9-18.4,19.9C13.6,39.5,5.6,30.9,5.6,20.2z" enable-background="new" opacity=".75"/><radialGradient id="path597_6_" cx="-826.258" cy="426.787" r="20.235" fx="-826.258" fy="426.787" gradientTransform="matrix(1 0 0 -1 849.6289 427.8164)" gradientUnits="userSpaceOnUse"><stop style="stop-color:#fff" id="stop631" offset="0"/><stop style="stop-color:#fffefa" id="stop632" offset=".105"/><stop style="stop-color:#fffbec" id="stop633" offset=".228"/><stop style="stop-color:#fff7d4" id="stop634" offset=".362"/><stop style="stop-color:#fff1b2" id="stop635" offset=".502"/><stop style="stop-color:#ffe988" id="stop636" offset=".647"/><stop style="stop-color:#ffdf53" id="stop637" offset=".798"/><stop style="stop-color:#ffd316" id="stop638" offset=".949"/><stop style="stop-color:#ffcf00" id="stop639" offset="1"/></radialGradient><path id="path597_2_" fill="url(#path597_6_)" d="M12.2,7.8c0-3.8,5-6.9,11.1-6.9c6.1,0,11.4,2.9,11.4,6.7C34.7,11.4,12.2,11.6,12.2,7.8z" enable-background="new" opacity=".75"/><rect id="rect662" width="48" height="48" y=".7" fill="none"/><g id="g659"><radialGradient id="path630_1_" cx="-166.689" cy="427.356" r=".089" fx="-166.689" fy="427.356" gradientTransform="matrix(-61.651 0 0 -88.1742 -10244.9775 37700.4727)" gradientUnits="userSpaceOnUse"><stop style="stop-color:#dee2e7" id="stop661" offset="0"/><stop style="stop-color:#fff" id="stop662" offset="1"/></radialGradient><path id="path630" cx="50.247" cy="478.41" fill="url(#path630_1_)" stroke="#7C5202" stroke-width=".541" d="M28.7,17.4c0-3.2,1.8-5.8,4-5.8c2.2,0,4,2.6,4,5.8c0,0,0,0,0,0c0,3.2-1.8,5.8-4,5.8C30.5,23.2,28.7,20.6,28.7,17.4 C28.7,17.4,28.7,17.4,28.7,17.4z" rx="24.525" ry="34.993" type="arc"/><g id="path631" cx="50.097" cy="476.765" rx="28.862" ry="41.424" type="arc"><path id="path668" fill="none" stroke="#000" stroke-width=".492" d="M28.1,17.4 c0-3.5,2.1-6.4,4.7-6.4c2.6,0,4.7,2.9,4.7,6.4c0,0,0,0,0,0c0,3.5-2.1,6.4-4.7,6.4C30.2,23.8,28.1,20.9,28.1,17.4 C28.1,17.4,28.1,17.4,28.1,17.4z" opacity=".038"/></g><g id="path632" cx="50.097" cy="476.765" rx="28.862" ry="41.424" type="arc"><path id="path670" fill="none" stroke="#000" stroke-width="1.711" d="M28.1,17.4 c0-3.5,2.1-6.4,4.7-6.4c2.6,0,4.7,2.8,4.7,6.4c0,0,0,0,0,0c0,3.5-2.1,6.4-4.7,6.4C30.2,23.8,28.1,20.9,28.1,17.4 C28.1,17.4,28.1,17.4,28.1,17.4z" opacity=".014"/></g><g id="path633" cx="50.097" cy="476.765" rx="28.862" ry="41.424" type="arc"><path id="path672" fill="none" stroke="#000" stroke-width="1.081" d="M28.1,17.4 c0-3.5,2.1-6.4,4.7-6.4c2.6,0,4.7,2.8,4.7,6.4c0,0,0,0,0,0c0,3.5-2.1,6.4-4.7,6.4C30.2,23.8,28.1,20.9,28.1,17.4 C28.1,17.4,28.1,17.4,28.1,17.4z" opacity=".014"/></g><g id="path634" cx="50.097" cy="476.765" rx="28.862" ry="41.424" type="arc"><path id="path674" fill="none" stroke="#000" stroke-width=".372" d="M28.1,17.4 c0-3.5,2.1-6.4,4.7-6.4c2.6,0,4.7,2.8,4.7,6.4c0,0,0,0,0,0c0,3.5-2.1,6.4-4.7,6.4C30.2,23.8,28.1,20.9,28.1,17.4 C28.1,17.4,28.1,17.4,28.1,17.4z" opacity=".014"/></g><g id="path635" cx="50.097" cy="476.765" rx="28.862" ry="41.424" type="arc"><path id="path676" fill="none" stroke="#000" stroke-width=".187" d="M28.3,17.4 c0-3.5,2-6.3,4.5-6.3c2.5,0,4.5,2.8,4.5,6.3c0,0,0,0,0,0c0,3.5-2,6.3-4.5,6.3C30.3,23.7,28.3,20.9,28.3,17.4 C28.3,17.4,28.3,17.4,28.3,17.4z" opacity=".152"/></g><radialGradient id="path637_1_" cx="-165.741" cy="427.62" r=".081" fx="-165.741" fy="427.62" gradientTransform="matrix(-45.0862 0 0 -56.2866 -7438.8394 24086.2852)" gradientUnits="userSpaceOnUse"><stop style="stop-color:#000082" id="stop678" offset="0"/><stop style="stop-color:#000" id="stop679" offset="1"/></radialGradient><path id="path637" cx="61.649" cy="495.829" fill="url(#path637_1_)" d="M29.8,18.9c0-2,1.3-3.7,3-3.7c1.6,0,3,1.7,3,3.7c0,0,0,0,0,0c0,2-1.3,3.7-3,3.7C31.1,22.6,29.8,20.9,29.8,18.9 C29.8,18.9,29.8,18.9,29.8,18.9z" rx="10.469" ry="10.892" type="arc"/><radialGradient id="path650_1_" cx="-170.344" cy="427.302" r=".088" fx="-170.344" fy="427.302" gradientTransform="matrix(61.651 0 0 -88.1742 10519.126 37694.9102)" gradientUnits="userSpaceOnUse"><stop style="stop-color:#dee2e7" id="stop685" offset="0"/><stop style="stop-color:#fff" id="stop686" offset="1"/></radialGradient><path id="path650" cx="50.247" cy="478.41" fill="url(#path650_1_)" stroke="#7C3902" stroke-width=".541" d="M20.2,16.7c0-3.2-1.8-5.8-4-5.8c-2.2,0-4,2.6-4,5.8c0,0,0,0,0,0c0,3.2,1.8,5.8,4,5.8C18.4,22.5,20.2,19.9,20.2,16.7 C20.2,16.7,20.2,16.7,20.2,16.7z" rx="24.525" ry="34.993" type="arc"/><g id="path651" cx="50.097" cy="476.765" rx="28.862" ry="41.424" type="arc"><path id="path692" fill="none" stroke="#000" stroke-width=".492" d="M20.9,16.6 c0-3.5-2.1-6.4-4.7-6.4c-2.6,0-4.7,2.9-4.7,6.4c0,0,0,0,0,0c0,3.5,2.1,6.4,4.7,6.4C18.8,23,20.9,20.2,20.9,16.6 C20.9,16.6,20.9,16.6,20.9,16.6z" opacity=".038"/></g><g id="path652" cx="50.097" cy="476.765" rx="28.862" ry="41.424" type="arc"><path id="path694" fill="none" stroke="#000" stroke-width="1.711" d="M20.9,16.7 c0-3.5-2.1-6.4-4.7-6.4c-2.6,0-4.7,2.8-4.7,6.4c0,0,0,0,0,0c0,3.5,2.1,6.4,4.7,6.4C18.8,23,20.9,20.2,20.9,16.7 C20.9,16.7,20.9,16.7,20.9,16.7z" opacity=".014"/></g><g id="path653" cx="50.097" cy="476.765" rx="28.862" ry="41.424" type="arc"><path id="path696" fill="none" stroke="#000" stroke-width="1.081" d="M20.9,16.7 c0-3.5-2.1-6.4-4.7-6.4c-2.6,0-4.7,2.8-4.7,6.4c0,0,0,0,0,0c0,3.5,2.1,6.4,4.7,6.4C18.8,23,20.9,20.2,20.9,16.7 C20.9,16.7,20.9,16.7,20.9,16.7z" opacity=".014"/></g><g id="path654" cx="50.097" cy="476.765" rx="28.862" ry="41.424" type="arc"><path id="path698" fill="none" stroke="#000" stroke-width=".372" d="M20.9,16.7 c0-3.5-2.1-6.4-4.7-6.4c-2.6,0-4.7,2.8-4.7,6.4c0,0,0,0,0,0c0,3.5,2.1,6.4,4.7,6.4C18.8,23,20.9,20.2,20.9,16.7 C20.9,16.7,20.9,16.7,20.9,16.7z" opacity=".014"/></g><g id="path655" cx="50.097" cy="476.765" rx="28.862" ry="41.424" type="arc"><path id="path701" fill="none" stroke="#000" stroke-width=".187" d="M20.7,16.7 c0-3.5-2-6.3-4.5-6.3c-2.5,0-4.5,2.8-4.5,6.3c0,0,0,0,0,0c0,3.5,2,6.3,4.5,6.3C18.6,22.9,20.7,20.1,20.7,16.7 C20.7,16.7,20.7,16.7,20.7,16.7z" opacity=".152"/></g><radialGradient id="path656_1_" cx="-170.737" cy="427.216" r=".081" fx="-170.737" fy="427.216" gradientTransform="matrix(45.0862 0 0 -56.2866 7712.9878 24059.9414)" gradientUnits="userSpaceOnUse"><stop style="stop-color:#000082" id="stop703" offset="0"/><stop style="stop-color:#000" id="stop704" offset="1"/></radialGradient><path id="path656" cx="61.649" cy="495.829" fill="url(#path656_1_)" d="M19.2,15.4c0-2-1.3-3.7-3-3.7c-1.6,0-3,1.7-3,3.7c0,0,0,0,0,0c0,2,1.3,3.7,3,3.7C17.9,19.1,19.2,17.5,19.2,15.4 C19.2,15.4,19.2,15.4,19.2,15.4z" rx="10.469" ry="10.892" type="arc"/><ellipse id="path646" cx="15.7" cy="17.4" fill="none" stroke="#000" stroke-width="2.099" rx="6.1" ry="8.1" type="arc"/><linearGradient id="path644_1_" x1="-170.029" x2="-169.919" y1="427.315" y2="427.213" gradientTransform="matrix(91.6887 0 0 -115.9486 15604.0381 49561.6563)" gradientUnits="userSpaceOnUse"><stop style="stop-color:#fff" id="stop711" offset="0"/><stop style="stop-color:#f5ffff" id="stop712" offset="1"/></linearGradient><linearGradient id="path644_2_" x1="-169.748" x2="-168.913" y1="427.604" y2="426.862" gradientUnits="userSpaceOnUse"><stop style="stop-color:#fff" id="stop717" offset="0"/><stop style="stop-color:#f5ffff" id="stop718" offset="1"/></linearGradient><ellipse id="path644" cx="15.6" cy="16.6" fill="url(#path644_1_)" stroke="url(#path644_2_)" stroke-width="3.528" opacity=".4" rx="6" ry="7.6" type="arc"/><ellipse id="path645" cx="33.7" cy="17.4" fill="none" stroke="#000" stroke-width="2.099" rx="6.1" ry="8.1" type="arc"/><linearGradient id="path647_1_" x1="-171.33" x2="-171.22" y1="427.316" y2="427.214" gradientTransform="matrix(91.6887 0 0 -115.9486 15741.3506 49561.6563)" gradientUnits="userSpaceOnUse"><stop style="stop-color:#fff" id="stop725" offset="0"/><stop style="stop-color:#f5ffff" id="stop726" offset="1"/></linearGradient><ellipse id="path647" cx="33.6" cy="16.6" fill="url(#path647_1_)" stroke="url(#path644_2_)" stroke-width="3.528" opacity=".4" rx="6" ry="7.6" type="arc"/><path id="path648" fill="none" stroke="#000" stroke-linecap="round" stroke-width="1.498" d="M21.6,13.5c1.9-0.9,4.8-0.9,6.5,0.2" nodetypes="cc"/><radialGradient id="path649_1_" cx="-169.424" cy="428.793" r="4.018" fx="-169.424" fy="428.793" gradientUnits="userSpaceOnUse"><stop style="stop-color:#fff" id="stop733" offset="0"/><stop style="stop-color:#f5ffff" id="stop734" offset="1"/></radialGradient><path id="path649" fill="none" stroke="url(#path649_1_)" stroke-linecap="round" stroke-width="1.076" d="M21.5,13.3c2.1-1,4.9-1,6.7,0.3" nodetypes="cc"/><path id="path657" fill="none" stroke="#000" stroke-linecap="round" stroke-width="1.138" d="M39.7,14.1c0.8-1.8,2.5-3.5,3.9-3.9" nodetypes="cc"/><path id="path658" fill="none" stroke="url(#path649_1_)" stroke-linecap="round" stroke-width=".818" d="M39.7,14.2c0.9-1.9,2.5-3.6,4-3.9" nodetypes="cc"/><path id="path659" fill="none" stroke="#000" stroke-linecap="round" stroke-width="1.074" d="M9.5,14.1c-0.7-1.8-2.3-3.5-3.5-3.9" nodetypes="cc"/><path id="path660" fill="none" stroke="url(#path649_1_)" stroke-linecap="round" stroke-width=".771" d="M9.5,14.2c-0.8-1.9-2.2-3.6-3.6-3.9" nodetypes="cc"/></g><g id="g743"><path id="path714" fill="none" stroke="#795000" stroke-linecap="round" stroke-width="1.035" d="M13.3,30.5c2,4.5,7.5,3.9,10,1.6c2.4-2.3,6.9-4.3,10.1,0.6" nodetypes="css"/><g id="path721" nodetypes="css"><path id="path746" fill="none" stroke="#010100" stroke-linecap="round" stroke-width="3.281" d="M13.3,30.5c2,4.5,7.5,3.9,10,1.6c2.4-2.3,6.9-4.3,10.1,0.6" opacity=".02"/></g><g id="path638" nodetypes="css"><path id="path748" fill="none" stroke="#010100" stroke-linecap="round" stroke-width="2.925" d="M13.3,30.5c2,4.5,7.5,3.9,10,1.6c2.4-2.3,6.9-4.3,10.1,0.6" opacity=".02"/></g><g id="path723" nodetypes="css"><path id="path750" fill="none" stroke="#010100" stroke-linecap="round" stroke-width="1.778" d="M13.3,30.5c2,4.5,7.5,3.9,10,1.6c2.4-2.3,6.9-4.3,10.1,0.6" opacity=".11"/></g><g id="path724" nodetypes="css"><path id="path752" fill="none" stroke="#010100" stroke-linecap="round" stroke-width="2.429" d="M13.3,30.5c2,4.5,7.5,3.9,10,1.6c2.4-2.3,6.9-4.3,10.1,0.6" opacity=".02"/></g><g id="path726" nodetypes="css"><path id="path754" fill="none" stroke="#010100" stroke-linecap="round" stroke-width="2.63" d="M13.3,30.5c2,4.5,7.5,3.9,10,1.6c2.4-2.3,6.9-4.3,10.1,0.6" opacity=".02"/></g></g></g></svg>