<svg xmlns="http://www.w3.org/2000/svg" xmlns:xlink="http://www.w3.org/1999/xlink" id="svg602" width="48.9" height="48.6" enable-background="new 0 0 48.9 48.6" overflow="visible" viewBox="0 0 48.9 48.6" xml:space="preserve"><g id="Layer_1"><g id="g606"><rect id="rect662" width="48" height="48" x=".9" y=".6" fill="none"/><g id="g632"><path id="path609" d="M43.4,18.8h-6.1v-7.3h1.8c1.3,0,2.3-0.3,3-0.8c0.7-0.5,1-1.3,1-2.3c0-0.8-0.3-1.5-0.8-2s-1.2-0.8-1.9-0.8 c-0.8,0-1.5,0.2-1.9,0.7c-0.5,0.4-0.7,1.1-0.8,1.9h-6V8.1c0-2.3,0.8-4.1,2.4-5.5s3.8-2,6.5-2c2.5,0,4.5,0.7,6,2.2 c1.5,1.4,2.3,3.3,2.3,5.7c0,2-0.5,3.6-1.6,4.8c-1,1.2-2.4,1.9-4.1,1.9L43.4,18.8z M36.6,24.6c0-1,0.3-1.8,1-2.5 c0.7-0.7,1.5-1,2.5-1s1.9,0.3,2.5,1s1,1.5,1,2.5s-0.3,1.9-1,2.5c-0.7,0.7-1.5,1-2.5,1s-1.8-0.3-2.5-1 C36.9,26.4,36.6,25.6,36.6,24.6z"/></g><g id="g610"><path id="path597_5_" fill="none" stroke="#474000" stroke-width="1.882" d="M0.9,20.2c0-10.7,8-19.3,17.8-19.3c9.8,0,18.4,8.1,18.4,18.7c0,10.7-8.6,19.9-18.4,19.9C8.9,39.5,0.9,30.9,0.9,20.2z" enable-background="new" opacity=".15"/><path id="path597_4_" fill="none" stroke="#474000" stroke-width=".941" d="M0.9,20.2c0-10.7,8-19.3,17.8-19.3c9.8,0,18.4,8.1,18.4,18.7c0,10.7-8.6,19.9-18.4,19.9C8.9,39.5,0.9,30.9,0.9,20.2z" enable-background="new" opacity=".2"/><path id="path597_3_" fill="none" stroke="#474000" stroke-width=".47" d="M0.9,20.2c0-10.7,8-19.3,17.8-19.3c9.8,0,18.4,8.1,18.4,18.7c0,10.7-8.6,19.9-18.4,19.9C8.9,39.5,0.9,30.9,0.9,20.2z" enable-background="new" opacity=".3"/><radialGradient id="path700_1_" cx="-508.723" cy="428.262" r=".064" fx="-508.723" fy="428.262" gradientTransform="matrix(310.7065 0 0 -144.1183 158083.8125 61762.9023)" gradientUnits="userSpaceOnUse"><stop style="stop-color:#261700" id="stop615" offset="0"/><stop style="stop-color:#d2d2d2" id="stop616" offset="1"/></radialGradient><path id="path700" fill="url(#path700_1_)" d="M33.2,31.8c6.5,4.5,6,10.6-1.9,14.3c-7.9,3.7-19.5,3.1-25.9-1.5c-5.5-3.8-5.7-9.1-0.5-13.1c3.4,4.7,6.2,6.3,14,7.3 C25.4,38.7,29.6,35.8,33.2,31.8z" enable-background="new" opacity=".3"/><radialGradient id="path577_1_" cx="-467.648" cy="384.381" r="41.745" fx="-467.648" fy="384.381" gradientTransform="matrix(298.9032 0 0 -316.3969 152079.5938 135168.0156)" gradientUnits="userSpaceOnUse"><stop style="stop-color:#ff6f00" id="stop622" offset="0"/><stop style="stop-color:#ff0" id="stop623" offset="1"/></radialGradient><circle id="path577" cx="19.2" cy="20.4" r="17.8" fill="url(#path577_1_)"/><linearGradient id="path597_1_" x1="-508.717" x2="-508.718" y1="427.204" y2="427.085" gradientTransform="matrix(303.6933 0 0 -316.3967 154513.25 135168.25)" gradientUnits="userSpaceOnUse"><stop style="stop-color:#ff6500" id="stop629" offset="0"/><stop style="stop-color:#ff0" id="stop630" offset="1"/></linearGradient><path id="path597" fill="url(#path597_1_)" d="M0.9,20.2c0-10.7,8-19.3,17.8-19.3c9.9,0,18.4,8,18.4,18.7c0,10.7-8.6,19.9-18.4,19.9C8.9,39.5,0.9,30.9,0.9,20.2z" enable-background="new" opacity=".75"/><radialGradient id="path597_6_" cx="-321.14" cy=".965" r="20.235" fx="-321.14" fy=".965" gradientTransform="matrix(1 0 0 1 339.8516 -5.859375e-002)" gradientUnits="userSpaceOnUse"><stop style="stop-color:#fff" id="stop636" offset="0"/><stop style="stop-color:#fffefa" id="stop637" offset=".105"/><stop style="stop-color:#fffbec" id="stop638" offset=".228"/><stop style="stop-color:#fff7d4" id="stop639" offset=".362"/><stop style="stop-color:#fff1b2" id="stop640" offset=".502"/><stop style="stop-color:#ffe988" id="stop641" offset=".647"/><stop style="stop-color:#ffdf53" id="stop642" offset=".798"/><stop style="stop-color:#ffd316" id="stop643" offset=".949"/><stop style="stop-color:#ffcf00" id="stop644" offset="1"/></radialGradient><path id="path597_2_" fill="url(#path597_6_)" d="M7.5,7.8c0-3.8,5-6.9,11.1-6.9C24.7,0.9,30,3.8,30,7.6C30,11.4,7.5,11.6,7.5,7.8z" enable-background="new" opacity=".75"/><g id="g663"><radialGradient id="path630_1_" cx="-165.191" cy="426.817" r=".12" fx="-165.191" fy="426.817" gradientTransform="matrix(-47.8028 0 0 -62.518 -7868.8853 26702.375)" gradientUnits="userSpaceOnUse"><stop style="stop-color:#dee2e7" id="stop665" offset="0"/><stop style="stop-color:#fff" id="stop666" offset="1"/></radialGradient><path id="path630" cx="50.247" cy="478.41" fill="url(#path630_1_)" stroke="#7C5202" stroke-width=".743" d="M24.7,17.4c0-3.1,1.9-5.6,4.3-5.6c2.4,0,4.3,2.5,4.3,5.6c0,0,0,0,0,0c0,3.1-1.9,5.6-4.3,5.6C26.6,23,24.7,20.5,24.7,17.4 C24.7,17.4,24.7,17.4,24.7,17.4z" rx="24.525" ry="34.993" type="arc"/><g id="path631" cx="50.097" cy="476.765" rx="28.862" ry="41.424" type="arc"><path id="path672" fill="none" stroke="#000" stroke-width=".675" d="M24,17.4 c0-3.4,2.2-6.2,5-6.2c2.8,0,5,2.8,5,6.2v0c0,3.4-2.2,6.2-5,6.2C26.3,23.6,24,20.8,24,17.4C24,17.4,24,17.4,24,17.4z" opacity=".038"/></g><g id="path632" cx="50.097" cy="476.765" rx="28.862" ry="41.424" type="arc"><path id="path674" fill="none" stroke="#000" stroke-width="2.347" d="M24,17.4 c0-3.4,2.2-6.2,5-6.2c2.8,0,5,2.8,5,6.2c0,0,0,0,0,0c0,3.4-2.2,6.2-5,6.2C26.3,23.6,24,20.8,24,17.4L24,17.4z" opacity=".014"/></g><g id="path633_1_" cx="50.097" cy="476.765" rx="28.862" ry="41.424" type="arc"><path id="path676" fill="none" stroke="#000" stroke-width="1.483" d="M24,17.4 c0-3.4,2.2-6.2,5-6.2c2.8,0,5,2.8,5,6.2c0,0,0,0,0,0c0,3.4-2.2,6.2-5,6.2C26.3,23.6,24,20.8,24,17.4L24,17.4z" opacity=".014"/></g><g id="path634" cx="50.097" cy="476.765" rx="28.862" ry="41.424" type="arc"><path id="path678" fill="none" stroke="#000" stroke-width=".511" d="M24,17.4 c0-3.4,2.2-6.2,5-6.2c2.8,0,5,2.8,5,6.2c0,0,0,0,0,0c0,3.4-2.2,6.2-5,6.2C26.3,23.6,24,20.8,24,17.4L24,17.4z" opacity=".014"/></g><g id="path635" cx="50.097" cy="476.765" rx="28.862" ry="41.424" type="arc"><path id="path680" fill="none" stroke="#000" stroke-width=".257" d="M24.2,17.4 c0-3.4,2.1-6.1,4.8-6.1c2.7,0,4.8,2.7,4.8,6.1c0,0,0,0,0,0c0,3.4-2.1,6.1-4.8,6.1C26.4,23.5,24.2,20.8,24.2,17.4 C24.2,17.4,24.2,17.4,24.2,17.4z" opacity=".152"/></g><radialGradient id="path637_1_" cx="-161.016" cy="425.865" r=".112" fx="-161.016" fy="425.865" gradientTransform="matrix(-21.5661 0 0 -19.9548 -3441.5073 8511.3926)" gradientUnits="userSpaceOnUse"><stop style="stop-color:#000082" id="stop682" offset="0"/><stop style="stop-color:#000" id="stop683" offset="1"/></radialGradient><path id="path637" cx="61.649" cy="495.829" fill="url(#path637_1_)" d="M28.3,14.3c0-1,0.9-1.8,1.9-1.8c1.1,0,1.9,0.8,1.9,1.8c0,0,0,0,0,0c0,1-0.9,1.8-1.9,1.8C29.2,16.1,28.3,15.3,28.3,14.3 C28.3,14.3,28.3,14.3,28.3,14.3z" rx="10.469" ry="10.892" type="arc"/><radialGradient id="path650_1_" cx="-169.399" cy="426.817" r=".12" fx="-169.399" fy="426.817" gradientTransform="matrix(47.8028 0 0 -62.518 8108.5718 26702.375)" gradientUnits="userSpaceOnUse"><stop style="stop-color:#dee2e7" id="stop689" offset="0"/><stop style="stop-color:#fff" id="stop690" offset="1"/></radialGradient><path id="path650" cx="50.247" cy="478.41" fill="url(#path650_1_)" stroke="#7C3902" stroke-width=".743" d="M13.8,17.4c0-3.1-1.9-5.6-4.3-5.6c-2.4,0-4.3,2.5-4.3,5.6c0,0,0,0,0,0c0,3.1,1.9,5.6,4.3,5.6C11.9,23,13.8,20.5,13.8,17.4 C13.8,17.4,13.8,17.4,13.8,17.4z" rx="24.525" ry="34.993" type="arc"/><g id="path651" cx="50.097" cy="476.765" rx="28.862" ry="41.424" type="arc"><path id="path696" fill="none" stroke="#000" stroke-width=".675" d="M14.5,17.4 c0-3.4-2.2-6.2-5-6.2c-2.8,0-5,2.8-5,6.2v0c0,3.4,2.2,6.2,5,6.2C12.3,23.6,14.5,20.8,14.5,17.4 C14.5,17.4,14.5,17.4,14.5,17.4z" opacity=".038"/></g><g id="path652" cx="50.097" cy="476.765" rx="28.862" ry="41.424" type="arc"><path id="path698" fill="none" stroke="#000" stroke-width="2.347" d="M14.5,17.4 c0-3.4-2.2-6.2-5-6.2c-2.8,0-5,2.8-5,6.2c0,0,0,0,0,0c0,3.4,2.2,6.2,5,6.2C12.3,23.6,14.5,20.8,14.5,17.4L14.5,17.4z" opacity=".014"/></g><g id="path653" cx="50.097" cy="476.765" rx="28.862" ry="41.424" type="arc"><path id="path701" fill="none" stroke="#000" stroke-width="1.483" d="M14.5,17.4 c0-3.4-2.2-6.2-5-6.2c-2.8,0-5,2.8-5,6.2c0,0,0,0,0,0c0,3.4,2.2,6.2,5,6.2C12.3,23.6,14.5,20.8,14.5,17.4L14.5,17.4z" opacity=".014"/></g><g id="path654" cx="50.097" cy="476.765" rx="28.862" ry="41.424" type="arc"><path id="path703" fill="none" stroke="#000" stroke-width=".511" d="M14.5,17.4 c0-3.4-2.2-6.2-5-6.2c-2.8,0-5,2.8-5,6.2c0,0,0,0,0,0c0,3.4,2.2,6.2,5,6.2C12.3,23.6,14.5,20.8,14.5,17.4L14.5,17.4z" opacity=".014"/></g><g id="path655" cx="50.097" cy="476.765" rx="28.862" ry="41.424" type="arc"><path id="path705" fill="none" stroke="#000" stroke-width=".257" d="M14.3,17.4 c0-3.4-2.1-6.1-4.8-6.1c-2.7,0-4.8,2.7-4.8,6.1c0,0,0,0,0,0c0,3.4,2.1,6.1,4.8,6.1C12.1,23.5,14.3,20.8,14.3,17.4 C14.3,17.4,14.3,17.4,14.3,17.4z" opacity=".152"/></g><radialGradient id="path656_1_" cx="-170.795" cy="425.865" r=".111" fx="-170.795" fy="425.865" gradientTransform="matrix(21.5661 0 0 -19.9548 3693.0845 8511.3926)" gradientUnits="userSpaceOnUse"><stop style="stop-color:#000082" id="stop707" offset="0"/><stop style="stop-color:#000" id="stop708" offset="1"/></radialGradient><path id="path656" cx="61.649" cy="495.829" fill="url(#path656_1_)" d="M12.3,14.3c0-1-0.9-1.8-1.9-1.8c-1.1,0-1.9,0.8-1.9,1.8c0,0,0,0,0,0c0,1,0.9,1.8,1.9,1.8C11.5,16.1,12.3,15.3,12.3,14.3 C12.3,14.3,12.3,14.3,12.3,14.3z" rx="10.469" ry="10.892" type="arc"/><g id="path746" nodetypes="cc"><path id="path714" fill="none" stroke="#001B00" stroke-linecap="round" stroke-linejoin="round" stroke-width="3.6" d="M11.4,33.5c-0.7-2.2,16-1.8,15.7,0.1" opacity=".043"/></g><g id="path747" nodetypes="cc"><path id="path716" fill="none" stroke="#001B00" stroke-linecap="round" stroke-linejoin="round" stroke-width="3.6" d="M11.4,33.5c-0.7-2.2,16-1.8,15.7,0.1" opacity=".043"/></g><path id="path924" fill="none" stroke="#751B00" stroke-linecap="round" stroke-linejoin="round" stroke-width="1.575" d="M11.4,33.5c-0.7-2.2,16-1.8,15.7,0.1" nodetypes="cc"/><g id="path748" nodetypes="cc"><path id="path719" fill="none" stroke="#001B00" stroke-linecap="round" stroke-linejoin="round" stroke-width="2.925" d="M11.4,33.5c-0.7-2.2,16-1.8,15.7,0.1" opacity=".043"/></g><g id="path750" nodetypes="cc"><path id="path721" fill="none" stroke="#001B00" stroke-linecap="round" stroke-linejoin="round" stroke-width="2.138" d="M11.4,33.5c-0.7-2.2,16-1.8,15.7,0.1" opacity=".043"/></g><g id="path751" nodetypes="cc"><path id="path723" fill="none" stroke="#001B00" stroke-linecap="round" stroke-linejoin="round" stroke-width="2.138" d="M11.4,33.5c-0.7-2.2,16-1.8,15.7,0.1" opacity=".043"/></g><g id="path749" nodetypes="cc"><path id="path725" fill="none" stroke="#001B00" stroke-linecap="round" stroke-linejoin="round" stroke-width="2.925" d="M11.4,33.5c-0.7-2.2,16-1.8,15.7,0.1" opacity=".043"/></g><g id="path925" nodetypes="cc"><path id="path727" fill="none" stroke="#001B00" stroke-linecap="round" stroke-linejoin="round" stroke-width="1.575" d="M11.4,33.5c-0.7-2.2,16-1.8,15.7,0.1" opacity=".038"/></g><g id="path752" nodetypes="cc"><path id="path729" fill="none" stroke="#001B00" stroke-linecap="round" stroke-linejoin="round" stroke-width="1.867" d="M11.4,33.5c-0.7-2.2,16-1.8,15.7,0.1" opacity=".043"/></g><g id="path753" nodetypes="cc"><path id="path731" fill="none" stroke="#001B00" stroke-linecap="round" stroke-linejoin="round" stroke-width="1.867" d="M11.4,33.5c-0.7-2.2,16-1.8,15.7,0.1" opacity=".043"/></g></g></g></g></g></svg>