<svg xmlns="http://www.w3.org/2000/svg" xmlns:xlink="http://www.w3.org/1999/xlink" id="svg602" width="48" height="48.7" enable-background="new 0 0 48 48.7" overflow="visible" viewBox="0 0 48 48.7" xml:space="preserve"><g id="Layer_1"><path id="path597_5_" fill="none" stroke="#474000" stroke-width="1.881" d="M5.6,20.2c0-10.7,8-19.3,17.8-19.3c9.8,0,18.4,8.1,18.4,18.7c0,10.7-8.6,19.9-18.4,19.9C13.6,39.5,5.6,30.9,5.6,20.2z" enable-background="new" opacity=".15"/><path id="path597_4_" fill="none" stroke="#474000" stroke-width=".941" d="M5.6,20.2c0-10.7,8-19.3,17.8-19.3c9.8,0,18.4,8.1,18.4,18.7c0,10.7-8.6,19.9-18.4,19.9C13.6,39.5,5.6,30.9,5.6,20.2z" enable-background="new" opacity=".2"/><path id="path597_3_" fill="none" stroke="#474000" stroke-width=".47" d="M5.6,20.2c0-10.7,8-19.3,17.8-19.3c9.8,0,18.4,8.1,18.4,18.7c0,10.7-8.6,19.9-18.4,19.9C13.6,39.5,5.6,30.9,5.6,20.2z" enable-background="new" opacity=".3"/><radialGradient id="path700_1_" cx="-1019.422" cy="-.707" r=".064" fx="-1019.422" fy="-.707" gradientTransform="matrix(310.7065 0 0 144.0699 316766.1875 144.5546)" gradientUnits="userSpaceOnUse"><stop style="stop-color:#261700" id="stop610" offset="0"/><stop style="stop-color:#d2d2d2" id="stop611" offset="1"/></radialGradient><path id="path700" fill="url(#path700_1_)" d="M37.9,31.8c6.5,4.5,6,10.6-1.9,14.3s-19.5,3.1-25.9-1.5c-5.5-3.8-5.7-9.1-0.5-13.1c3.4,4.7,6.2,6.3,14,7.3 C30.1,38.7,34.3,35.8,37.9,31.8z" enable-background="new" opacity=".3"/><radialGradient id="path577_1_" cx="-978.348" cy="42.989" r="41.65" fx="-978.348" fy="42.989" gradientTransform="matrix(298.9032 0 0 316.2907 304733.6563 -108.8552)" gradientUnits="userSpaceOnUse"><stop style="stop-color:#ff6f00" id="stop617" offset="0"/><stop style="stop-color:#ff0" id="stop618" offset="1"/></radialGradient><circle id="path577" cx="23.9" cy="20.4" r="17.8" fill="url(#path577_1_)"/><linearGradient id="path597_1_" x1="-1019.417" x2="-1019.418" y1=".352" y2=".47" gradientTransform="matrix(303.6933 0 0 316.3967 309613.7813 -108.5726)" gradientUnits="userSpaceOnUse"><stop style="stop-color:#ff6500" id="stop624" offset="0"/><stop style="stop-color:#ff0" id="stop625" offset="1"/></linearGradient><path id="path597" fill="url(#path597_1_)" d="M5.6,20.2c0-10.7,8-19.3,17.8-19.3c9.9,0,18.4,8,18.4,18.7s-8.6,19.9-18.4,19.9C13.6,39.5,5.6,30.9,5.6,20.2z" enable-background="new" opacity=".75"/><radialGradient id="path597_6_" cx="-819.444" cy="429.344" r="20.235" fx="-819.444" fy="429.344" gradientTransform="matrix(0.8032 0.5955 0.5957 -0.8029 435.6294 836.6303)" gradientUnits="userSpaceOnUse"><stop style="stop-color:#fff" id="stop631" offset="0"/><stop style="stop-color:#fffefa" id="stop632" offset=".105"/><stop style="stop-color:#fffbec" id="stop633" offset=".228"/><stop style="stop-color:#fff7d4" id="stop634" offset=".362"/><stop style="stop-color:#fff1b2" id="stop635" offset=".502"/><stop style="stop-color:#ffe988" id="stop636" offset=".647"/><stop style="stop-color:#ffdf53" id="stop637" offset=".798"/><stop style="stop-color:#ffd316" id="stop638" offset=".949"/><stop style="stop-color:#ffcf00" id="stop639" offset="1"/></radialGradient><path id="path597_2_" fill="url(#path597_6_)" d="M20.2,2.7c2.3-3.1,8.1-2.6,13,1.1c4.9,3.6,7.4,9.1,5.2,12.2C36.1,19,17.9,5.8,20.2,2.7z" enable-background="new" opacity=".75"/><rect id="rect662" width="48" height="48" y=".7" fill="none"/><radialGradient id="path607_1_" cx="-169.929" cy="426.941" r=".101" fx="-169.929" fy="426.941" gradientTransform="matrix(37.6178 18.3801 22.7937 -63.7936 -3323.146 30372.1953)" gradientUnits="userSpaceOnUse"><stop style="stop-color:#dee2e7" id="stop660" offset="0"/><stop style="stop-color:#fff" id="stop661" offset="1"/></radialGradient><path id="path607" cx="50.247" cy="478.41" fill="url(#path607_1_)" stroke="#754000" stroke-width=".619" d="M18.4,12.7c0.9-2.6,0.4-5.4-1.1-6.2c-1.6-0.8-3.6,0.8-4.5,3.4c0,0,0,0,0,0c-0.9,2.6-0.4,5.4,1.1,6.2 C15.5,16.8,17.5,15.3,18.4,12.7C18.4,12.7,18.4,12.7,18.4,12.7z" rx="24.525" ry="34.993" type="arc"/><g id="path612" cx="50.097" cy="476.765" rx="28.862" ry="41.424" type="arc"><path id="path667" fill="none" stroke="#000" stroke-width=".562" d="M18.9,12.8 c1-2.9,0.4-6-1.4-6.9c-1.8-0.9-4.1,0.8-5.2,3.7c0,0,0,0,0,0c-1,2.9-0.4,6,1.4,6.9C15.6,17.4,17.9,15.8,18.9,12.8 C18.9,12.8,18.9,12.8,18.9,12.8z" opacity=".038"/></g><g id="path613" cx="50.097" cy="476.765" rx="28.862" ry="41.424" type="arc"><path id="path669" fill="none" stroke="#000" stroke-width="1.956" d="M18.9,12.9 c1-2.9,0.4-6-1.4-6.9c-1.8-0.9-4.1,0.8-5.1,3.7c0,0,0,0,0,0c-1,2.9-0.4,6,1.4,6.9S17.9,15.8,18.9,12.9 C18.9,12.9,18.9,12.9,18.9,12.9z" opacity=".014"/></g><g id="path614" cx="50.097" cy="476.765" rx="28.862" ry="41.424" type="arc"><path id="path671" fill="none" stroke="#000" stroke-width="1.236" d="M18.9,12.9 c1-2.9,0.4-6-1.4-6.9c-1.8-0.9-4.1,0.8-5.1,3.7c0,0,0,0,0,0c-1,2.9-0.4,6,1.4,6.9S17.9,15.8,18.9,12.9 C18.9,12.9,18.9,12.9,18.9,12.9z" opacity=".014"/></g><g id="path615" cx="50.097" cy="476.765" rx="28.862" ry="41.424" type="arc"><path id="path673" fill="none" stroke="#000" stroke-width=".426" d="M18.9,12.9 c1-2.9,0.4-6-1.4-6.9c-1.8-0.9-4.1,0.8-5.1,3.7c0,0,0,0,0,0c-1,2.9-0.4,6,1.4,6.9S17.9,15.8,18.9,12.9 C18.9,12.9,18.9,12.9,18.9,12.9z" opacity=".014"/></g><g id="path616" cx="50.097" cy="476.765" rx="28.862" ry="41.424" type="arc"><path id="path675" fill="none" stroke="#000" stroke-width=".214" d="M18.8,12.8 c1-2.9,0.4-5.9-1.3-6.7c-1.7-0.9-4,0.8-5,3.6c0,0,0,0,0,0c-1,2.9-0.4,5.9,1.3,6.7C15.5,17.3,17.7,15.7,18.8,12.8 C18.8,12.8,18.8,12.8,18.8,12.8z" opacity=".152"/></g><path id="path629" fill="#5D1A00" d="M12.3,25c-0.1-0.4-0.4-0.7-0.6-0.7s-0.5,0.2-0.5,0.7 c1,4,2.6,7.2,5.1,9.3c1.8,1.4,5.1,2.8,9.3,3.1c1.2-0.1,1.2-0.2,1.5-1.3c0.2-0.6,0.4-2.5-1.2-1.6c-1,0.4-4.1-0.1-5.5-0.4 C17.3,33.2,13.3,29.3,12.3,25z" nodetypes="cscscscsc"/><radialGradient id="path624_1_" cx="-171.028" cy="426.346" r=".093" fx="-171.028" fy="426.346" gradientTransform="matrix(15.6667 7.6548 7.2754 -20.362 -406.1075 10001.2803)" gradientUnits="userSpaceOnUse"><stop style="stop-color:#000082" id="stop678" offset="0"/><stop style="stop-color:#000" id="stop679" offset="1"/></radialGradient><path id="path624" cx="61.649" cy="495.829" fill="url(#path624_1_)" d="M17.6,12.4c0.3-0.8,0-1.8-0.6-2.1c-0.6-0.3-1.4,0.1-1.7,1c0,0,0,0,0,0c-0.3,0.8,0,1.8,0.6,2.1C16.5,13.7,17.3,13.3,17.6,12.4 C17.6,12.4,17.6,12.4,17.6,12.4z" rx="10.469" ry="10.892" type="arc"/><g id="path702" nodetypes="ccccc"><path id="path685" fill="none" stroke="#000" stroke-width="1.021" d="M26,20.5 c-0.3-0.4-0.9-0.1-0.3,0.4c4.6,3,7.9,3.5,9.4,0.4c0.3-1-0.8-1.6-1.1-0.8C32.5,22.7,30.7,23.1,26,20.5z" opacity=".37"/></g><path id="path703" fill="#5D1A00" d="M26,20.5c-0.3-0.4-0.9-0.1-0.3,0.4c4.6,3,7.9,3.5,9.4,0.4 c0.3-1-0.8-1.6-1.1-0.8C32.5,22.7,30.7,23.1,26,20.5z" nodetypes="ccccc"/><g id="path705" nodetypes="cscscscsc"><path id="path688" fill="none" stroke="#020000" stroke-width="1.427" d="M12.3,25 c-0.1-0.4-0.4-0.7-0.6-0.7s-0.5,0.2-0.5,0.7c1,4,2.6,7.2,5.1,9.3c1.8,1.4,5.1,2.8,9.3,3.1c1.2-0.1,1.2-0.2,1.5-1.3 c0.2-0.6,0.4-2.5-1.2-1.6c-1,0.4-4.1-0.1-5.5-0.4C17.3,33.2,13.3,29.3,12.3,25z" opacity=".04"/></g><g id="g689" nodetypes="cscscscsc"><path id="path690" fill="none" stroke="#000" stroke-width="1.98" d="M12.3,25 c-0.1-0.4-0.4-0.7-0.6-0.7s-0.5,0.2-0.5,0.7c1,4,2.6,7.2,5.1,9.3c1.8,1.4,5.1,2.8,9.3,3.1c1.2-0.1,1.2-0.2,1.5-1.3 c0.2-0.6,0.4-2.5-1.2-1.6c-1,0.4-4.1-0.1-5.5-0.4C17.3,33.2,13.3,29.3,12.3,25z" opacity=".04"/></g><g id="path686" nodetypes="cscscscsc"><path id="path692" fill="none" stroke="#000" stroke-width="1.98" d="M12.3,25 c-0.1-0.4-0.4-0.7-0.6-0.7s-0.5,0.2-0.5,0.7c1,4,2.6,7.2,5.1,9.3c1.8,1.4,5.1,2.8,9.3,3.1c1.2-0.1,1.2-0.2,1.5-1.3 c0.2-0.6,0.4-2.5-1.2-1.6c-1,0.4-4.1-0.1-5.5-0.4C17.3,33.2,13.3,29.3,12.3,25z" opacity=".04"/></g><g id="path704" nodetypes="ccccc"><path id="path694" fill="none" stroke="#000" stroke-width=".332" d="M26,20.5 c-0.3-0.4-0.9-0.1-0.3,0.4c4.6,3,7.9,3.5,9.4,0.4c0.3-1-0.8-1.6-1.1-0.8C32.5,22.7,30.7,23.1,26,20.5z" opacity=".37"/></g><g id="path687" nodetypes="cscscscsc"><path id="path696" fill="none" stroke="#000" stroke-width=".607" d="M12.3,25 c-0.1-0.4-0.4-0.7-0.6-0.7s-0.5,0.2-0.5,0.7c1,4,2.6,7.2,5.1,9.3c1.8,1.4,5.1,2.8,9.3,3.1c1.2-0.1,1.2-0.2,1.5-1.3 c0.2-0.6,0.4-2.5-1.2-1.6c-1,0.4-4.1-0.1-5.5-0.4C17.3,33.2,13.3,29.3,12.3,25z" opacity=".04"/></g><g id="g697" nodetypes="cscscscsc"><path id="path698" fill="none" stroke="#000" stroke-width=".607" d="M12.3,25 c-0.1-0.4-0.4-0.7-0.6-0.7s-0.5,0.2-0.5,0.7c1,4,2.6,7.2,5.1,9.3c1.8,1.4,5.1,2.8,9.3,3.1c1.2-0.1,1.2-0.2,1.5-1.3 c0.2-0.6,0.4-2.5-1.2-1.6c-1,0.4-4.1-0.1-5.5-0.4C17.3,33.2,13.3,29.3,12.3,25z" opacity=".04"/></g></g></svg>