<svg xmlns="http://www.w3.org/2000/svg" xmlns:xlink="http://www.w3.org/1999/xlink" id="svg602" width="48.9" height="48.7" enable-background="new 0 0 48.9 48.7" overflow="visible" viewBox="0 0 48.9 48.7" xml:space="preserve"><g id="Layer_1"><g id="g606"><rect id="rect662" width="48" height="48" x=".9" y=".7" fill="none"/><path id="path597_5_" fill="none" stroke="#474000" stroke-width="1.882" d="M0.9,20.2c0-10.7,8-19.3,17.8-19.3c9.8,0,18.4,8.1,18.4,18.7c0,10.7-8.6,19.9-18.4,19.9C8.9,39.5,0.9,30.9,0.9,20.2z" enable-background="new" opacity=".15"/><path id="path597_4_" fill="none" stroke="#474000" stroke-width=".941" d="M0.9,20.2c0-10.7,8-19.3,17.8-19.3c9.8,0,18.4,8.1,18.4,18.7c0,10.7-8.6,19.9-18.4,19.9C8.9,39.5,0.9,30.9,0.9,20.2z" enable-background="new" opacity=".2"/><path id="path597_3_" fill="none" stroke="#474000" stroke-width=".47" d="M0.9,20.2c0-10.7,8-19.3,17.8-19.3c9.8,0,18.4,8.1,18.4,18.7c0,10.7-8.6,19.9-18.4,19.9C8.9,39.5,0.9,30.9,0.9,20.2z" enable-background="new" opacity=".3"/><radialGradient id="path700_1_" cx="-848.574" cy="428.492" r=".064" fx="-848.574" fy="428.492" gradientTransform="matrix(310.7065 0 0 -144.1183 263677.7813 61796.2813)" gradientUnits="userSpaceOnUse"><stop style="stop-color:#261700" id="stop612" offset="0"/><stop style="stop-color:#d2d2d2" id="stop613" offset="1"/></radialGradient><path id="path700" fill="url(#path700_1_)" d="M33.2,31.8c6.5,4.5,6,10.6-1.9,14.3c-7.9,3.7-19.5,3.1-25.9-1.5c-5.5-3.8-5.7-9.1-0.5-13.1c3.4,4.7,6.2,6.3,14,7.3 C25.4,38.7,29.6,35.8,33.2,31.8z" enable-background="new" opacity=".3"/><radialGradient id="path577_1_" cx="-807.5" cy="384.981" r="41.557" fx="-807.5" fy="384.981" gradientTransform="matrix(298.9032 0 0 -316.3969 253662.0938 135241.1094)" gradientUnits="userSpaceOnUse"><stop style="stop-color:#ff6f00" id="stop619" offset="0"/><stop style="stop-color:#ff0" id="stop620" offset="1"/></radialGradient><circle id="path577" cx="19.2" cy="20.4" r="17.8" fill="url(#path577_1_)"/><linearGradient id="path597_1_" x1="-848.568" x2="-848.57" y1="427.434" y2="427.315" gradientTransform="matrix(303.6933 0 0 -316.3967 257723.75 135241.1094)" gradientUnits="userSpaceOnUse"><stop style="stop-color:#ff6500" id="stop626" offset="0"/><stop style="stop-color:#ff0" id="stop627" offset="1"/></linearGradient><path id="path597" fill="url(#path597_1_)" d="M0.9,20.2c0-10.7,8-19.3,17.8-19.3c9.9,0,18.4,8,18.4,18.7c0,10.7-8.6,19.9-18.4,19.9C8.9,39.5,0.9,30.9,0.9,20.2z" enable-background="new" opacity=".75"/><linearGradient id="path597_7_" x1="-848.568" x2="-848.57" y1="427.434" y2="427.315" gradientTransform="matrix(303.6933 0 0 -316.3967 257723.75 135241.1094)" gradientUnits="userSpaceOnUse"><stop style="stop-color:#0f0" id="stop633" offset="0"/><stop style="stop-color:#ff0" id="stop634" offset="1"/></linearGradient><path id="path597_6_" fill="url(#path597_7_)" d="M0.9,20.2c0-10.7,8-19.3,17.8-19.3c9.9,0,18.4,8,18.4,18.7c0,10.7-8.6,19.9-18.4,19.9C8.9,39.5,0.9,30.9,0.9,20.2z" enable-background="new" opacity=".4"/><radialGradient id="path597_8_" cx="-660.991" cy="1.006" r="20.235" fx="-660.991" fy="1.006" gradientTransform="matrix(1 0 0 1 679.7031 -1.757813e-002)" gradientUnits="userSpaceOnUse"><stop style="stop-color:#fff" id="stop640" offset="0"/><stop style="stop-color:#fffefa" id="stop641" offset=".105"/><stop style="stop-color:#fffbec" id="stop642" offset=".228"/><stop style="stop-color:#fff7d4" id="stop643" offset=".362"/><stop style="stop-color:#fff1b2" id="stop644" offset=".502"/><stop style="stop-color:#ffe988" id="stop645" offset=".647"/><stop style="stop-color:#ffdf53" id="stop646" offset=".798"/><stop style="stop-color:#ffd316" id="stop647" offset=".949"/><stop style="stop-color:#ffcf00" id="stop648" offset="1"/></radialGradient><path id="path597_2_" fill="url(#path597_8_)" d="M7.5,7.8c0-3.8,5-6.9,11.1-6.9C24.7,0.9,30,3.8,30,7.6C30,11.4,7.5,11.6,7.5,7.8z" enable-background="new" opacity=".75"/><g id="g660"><g id="path643"><path id="path662" fill="none" stroke="#000" stroke-linecap="round" stroke-width="1.273" d="M28.1,31.8C24.6,27.5,13,27.6,9,31.6" enable-background="new" opacity=".033"/></g><path id="path639" fill="none" stroke="#795000" stroke-linecap="round" stroke-width="1.215" d="M28.1,31.8 C24.6,27.6,13,27.7,9,31.6"/><g id="path640"><path id="path665" fill="none" stroke="#000" stroke-linecap="round" stroke-width="2.201" d="M28.2,31.8c-3.5-4.3-15.1-4.2-19.1-0.2" enable-background="new" opacity=".033"/></g><g id="path641"><path id="path667" fill="none" stroke="#000" stroke-linecap="round" stroke-width="1.712" d="M28.2,31.9c-3.5-4.3-15.1-4.2-19.1-0.2" enable-background="new" opacity=".033"/></g><g id="path642"><path id="path669" fill="none" stroke="#000" stroke-linecap="round" stroke-width="2.906" d="M28.2,31.8c-3.5-4.3-15.1-4.2-19.1-0.2" enable-background="new" opacity=".033"/></g></g><g id="g670"><radialGradient id="path630_1_" cx="-334.779" cy=".369" r=".12" fx="-334.779" fy=".369" gradientTransform="matrix(-47.8028 0 0 65.5878 -15976.1621 -5.69)" gradientUnits="userSpaceOnUse"><stop style="stop-color:#dee2e7" id="stop679" offset="0"/><stop style="stop-color:#fff" id="stop680" offset="1"/></radialGradient><path id="path630" fill="url(#path630_1_)" stroke="#7C5202" stroke-width=".9" d="M24.3,17.3c0-3.3,1.9-5.9,4.3-5.9 c2.4,0,4.3,2.6,4.3,5.9l0,0c0,3.3-1.9,5.9-4.3,5.9C26.2,23.2,24.3,20.5,24.3,17.3L24.3,17.3z"/><g id="path631"><path id="path679" fill="none" stroke="#000" stroke-width=".675" d="M23.6,17.2c0-3.6,2.2-6.5,5-6.5c2.8,0,5,2.9,5,6.5l0,0c0,3.6-2.2,6.5-5,6.5C25.9,23.7,23.6,20.8,23.6,17.2L23.6,17.2z" enable-background="new" opacity=".038"/></g><g id="path632"><path id="path681" fill="none" stroke="#000" stroke-width="2.347" d="M23.6,17.2c0-3.6,2.2-6.5,5-6.5c2.8,0,5,2.9,5,6.5l0,0c0,3.6-2.2,6.5-5,6.5C25.9,23.7,23.6,20.8,23.6,17.2L23.6,17.2z" enable-background="new" opacity=".014"/></g><g id="path633"><path id="path683" fill="none" stroke="#000" stroke-width="1.483" d="M23.6,17.2c0-3.6,2.2-6.5,5-6.5c2.8,0,5,2.9,5,6.5l0,0c0,3.6-2.2,6.5-5,6.5C25.9,23.7,23.6,20.8,23.6,17.2L23.6,17.2z" enable-background="new" opacity=".014"/></g><g id="path634"><path id="path685" fill="none" stroke="#000" stroke-width=".511" d="M23.6,17.2c0-3.6,2.2-6.5,5-6.5c2.8,0,5,2.9,5,6.5l0,0c0,3.6-2.2,6.5-5,6.5C25.9,23.7,23.6,20.8,23.6,17.2L23.6,17.2z" enable-background="new" opacity=".014"/></g><g id="path635"><path id="path687" fill="none" stroke="#000" stroke-width=".257" d="M23.8,17.2c0-3.5,2.1-6.4,4.8-6.4c2.7,0,4.8,2.9,4.8,6.4l0,0c0,3.5-2.1,6.4-4.8,6.4C26,23.6,23.8,20.8,23.8,17.2L23.8,17.2z" enable-background="new" opacity=".152"/></g><radialGradient id="path637_1_" cx="-329.97" cy="-.972" r=".111" fx="-329.97" fy="-.972" gradientTransform="matrix(-19.9085 0 0 20.9347 -6540.6074 40.5836)" gradientUnits="userSpaceOnUse"><stop style="stop-color:#000082" id="stop696" offset="0"/><stop style="stop-color:#000" id="stop697" offset="1"/></radialGradient><path id="path637" fill="url(#path637_1_)" d="M26.1,21.2c0-1,0.8-1.9,1.8-1.9s1.8,0.8,1.8,1.9l0,0c0,1-0.8,1.9-1.8,1.9 S26.1,22.3,26.1,21.2L26.1,21.2z"/></g><g id="g695"><radialGradient id="path650_1_" cx="-339.658" cy=".369" r=".12" fx="-339.658" fy=".369" gradientTransform="matrix(47.8028 0 0 65.5878 16247.1309 -5.69)" gradientUnits="userSpaceOnUse"><stop style="stop-color:#dee2e7" id="stop704" offset="0"/><stop style="stop-color:#fff" id="stop705" offset="1"/></radialGradient><path id="path650" fill="url(#path650_1_)" stroke="#7C3902" stroke-width=".9" d="M13.4,17.3c0-3.3-1.9-5.9-4.3-5.9 c-2.4,0-4.3,2.6-4.3,5.9l0,0c0,3.3,1.9,5.9,4.3,5.9C11.5,23.2,13.4,20.5,13.4,17.3L13.4,17.3z"/><g id="path651"><path id="path704" fill="none" stroke="#000" stroke-width=".675" d="M14.1,17.2c0-3.6-2.2-6.5-5-6.5c-2.8,0-5,2.9-5,6.5l0,0c0,3.6,2.2,6.5,5,6.5C11.8,23.7,14.1,20.8,14.1,17.2L14.1,17.2z" enable-background="new" opacity=".038"/></g><g id="path652"><path id="path706" fill="none" stroke="#000" stroke-width="2.347" d="M14.1,17.2c0-3.6-2.2-6.5-5-6.5c-2.8,0-5,2.9-5,6.5l0,0c0,3.6,2.2,6.5,5,6.5C11.8,23.7,14.1,20.8,14.1,17.2L14.1,17.2z" enable-background="new" opacity=".014"/></g><g id="path653"><path id="path708" fill="none" stroke="#000" stroke-width="1.483" d="M14.1,17.2c0-3.6-2.2-6.5-5-6.5c-2.8,0-5,2.9-5,6.5l0,0c0,3.6,2.2,6.5,5,6.5C11.8,23.7,14.1,20.8,14.1,17.2L14.1,17.2z" enable-background="new" opacity=".014"/></g><g id="path654"><path id="path710" fill="none" stroke="#000" stroke-width=".511" d="M14.1,17.2c0-3.6-2.2-6.5-5-6.5c-2.8,0-5,2.9-5,6.5l0,0c0,3.6,2.2,6.5,5,6.5C11.8,23.7,14.1,20.8,14.1,17.2L14.1,17.2z" enable-background="new" opacity=".014"/></g><g id="path655"><path id="path712" fill="none" stroke="#000" stroke-width=".257" d="M13.9,17.2c0-3.5-2.1-6.4-4.8-6.4c-2.7,0-4.8,2.9-4.8,6.4l0,0c0,3.5,2.1,6.4,4.8,6.4C11.7,23.6,13.9,20.8,13.9,17.2L13.9,17.2 z" enable-background="new" opacity=".152"/></g><radialGradient id="path656_1_" cx="-341.68" cy="-.972" r=".111" fx="-341.68" fy="-.972" gradientTransform="matrix(19.9085 0 0 20.9347 6811.5752 40.5836)" gradientUnits="userSpaceOnUse"><stop style="stop-color:#000082" id="stop721" offset="0"/><stop style="stop-color:#000" id="stop722" offset="1"/></radialGradient><path id="path656" fill="url(#path656_1_)" d="M11.6,21.2c0-1-0.8-1.9-1.8-1.9S8,20.1,8,21.2l0,0c0,1,0.8,1.9,1.8,1.9 S11.6,22.3,11.6,21.2L11.6,21.2z"/></g><g id="g727"><g id="path674" nodetypes="cccccccc"><linearGradient id="XMLID_1_" x1="-170.36" x2="-170.289" y1="427.87" y2="427.87" gradientTransform="matrix(171.3486 0 0 -217.4325 29238.4395 93051.0938)" gradientUnits="userSpaceOnUse"><stop style="stop-color:#7d7aff" id="stop730" offset="0"/><stop style="stop-color:#a7caff" id="stop731" offset="1"/></linearGradient><path id="path735" fill="url(#XMLID_1_)" d="M42.9,7.7c-0.7,1-17,22.4-17.3,22.8c0.8,0.6,1.2,1,1.9,1.6L44.8,9.3 c0,0,1.5,0,2.3-1c0.8-1.4,0.5-2.5-0.7-3.5c-1.1-0.9-2.6-0.9-3.4,0C42.5,5.7,42.9,7.5,42.9,7.7z"/><path id="path736" fill="none" stroke="#0A0000" stroke-width=".344" d="M42.9,7.7 c-0.7,1-17,22.4-17.3,22.8c0.8,0.6,1.2,1,1.9,1.6L44.8,9.3c0,0,1.5,0,2.3-1c0.8-1.4,0.5-2.5-0.7-3.5c-1.1-0.9-2.6-0.9-3.4,0 C42.5,5.7,42.9,7.5,42.9,7.7z" opacity=".535"/></g><g id="path638" nodetypes="cccccccc"><linearGradient id="XMLID_2_" x1="-170.362" x2="-170.291" y1="427.873" y2="427.873" gradientTransform="matrix(171.3485 0 0 -217.4326 29238.457 93051.0938)" gradientUnits="userSpaceOnUse"><stop style="stop-color:#fff" id="stop739" offset="0"/><stop style="stop-color:#fff" id="stop740" offset="1"/></linearGradient><path id="path744" fill="url(#XMLID_2_)" d="M42.9,7.7c-0.7,1-17,22.4-17.3,22.8c0.8,0.6,1.2,1,1.9,1.6L44.8,9.3 c0,0,1.5,0,2.3-1c0.8-1.4,0.5-2.5-0.7-3.5c-1.1-0.9-2.6-0.9-3.4,0C42.5,5.7,42.9,7.5,42.9,7.7z"/><path id="path745" fill="none" stroke="#000" stroke-width=".813" d="M42.9,7.7 c-0.7,1-17,22.4-17.3,22.8c0.8,0.6,1.2,1,1.9,1.6L44.8,9.3c0,0,1.5,0,2.3-1c0.8-1.4,0.5-2.5-0.7-3.5c-1.1-0.9-2.6-0.9-3.4,0 C42.5,5.7,42.9,7.5,42.9,7.7z" opacity=".04"/></g><g id="path644" nodetypes="cccccccc"><linearGradient id="XMLID_3_" x1="-170.503" x2="-170.431" y1="427.92" y2="427.92" gradientTransform="matrix(157.8016 0 0 -200.9074 26952.752 85990.4844)" gradientUnits="userSpaceOnUse"><stop style="stop-color:red" id="stop748" offset="0"/><stop style="stop-color:#f51500" id="stop749" offset="1"/></linearGradient><path id="path753" fill="url(#XMLID_3_)" d="M43.4,7.9c-0.7,1-17,22.4-17.3,22.8c0.1,0.1,0.2,0.2,0.3,0.2L43.6,8.2 c0,0,1.4,0.7,2.2-0.3c0.7-1,0.7-1.7,0-2.3c-0.9-0.8-1.6-0.6-2.3,0.3C42.9,6.8,43.4,7.8,43.4,7.9z"/><path id="path754" fill="none" stroke="#000" stroke-width=".022" d="M43.4,7.9 c-0.7,1-17,22.4-17.3,22.8c0.1,0.1,0.2,0.2,0.3,0.2L43.6,8.2c0,0,1.4,0.7,2.2-0.3c0.7-1,0.7-1.7,0-2.3 c-0.9-0.8-1.6-0.6-2.3,0.3C42.9,6.8,43.4,7.8,43.4,7.9z" opacity=".161"/></g><g id="path649" nodetypes="cc"><path id="path756" fill="none" stroke="red" stroke-linecap="round" stroke-linejoin="round" stroke-width=".264" d="M34.5,21.3c0.4,0.3,0.5,0.5,0.5,0.5" opacity=".441"/></g><g id="path657" nodetypes="cc"><path id="path758" fill="none" stroke="red" stroke-linecap="round" stroke-linejoin="round" stroke-width=".264" d="M35.6,19.4c0.2,0.1,0.5,0.5,0.7,0.7" opacity=".441"/></g><g id="path658" nodetypes="cc"><path id="path760" fill="none" stroke="red" stroke-linecap="round" stroke-linejoin="round" stroke-width=".264" d="M32.1,24.4c0.3,0.3,0.5,0.5,0.5,0.5" opacity=".441"/></g><g id="path659" nodetypes="cc"><path id="path762" fill="none" stroke="red" stroke-linecap="round" stroke-linejoin="round" stroke-width=".264" d="M33.2,22.5c0.2,0.1,0.5,0.5,0.7,0.7" opacity=".441"/></g><g id="path660" nodetypes="cc"><path id="path764" fill="none" stroke="red" stroke-linecap="round" stroke-linejoin="round" stroke-width=".264" d="M29.6,27.8c0.4,0.3,0.5,0.5,0.5,0.5" opacity=".441"/></g><g id="path661" nodetypes="cc"><path id="path766" fill="none" stroke="red" stroke-linecap="round" stroke-linejoin="round" stroke-width=".264" d="M30.7,25.9c0.2,0.1,0.5,0.5,0.7,0.7" opacity=".441"/></g><g id="path662_1_" nodetypes="cc"><path id="path768" fill="none" stroke="red" stroke-linecap="round" stroke-linejoin="round" stroke-width=".264" d="M27.2,31c0.3,0.3,0.5,0.5,0.5,0.5" opacity=".441"/></g><g id="path663" nodetypes="cc"><path id="path770" fill="none" stroke="red" stroke-linecap="round" stroke-linejoin="round" stroke-width=".264" d="M28.3,29.1c0.2,0.1,0.5,0.5,0.7,0.7" opacity=".441"/></g><g id="path666" nodetypes="cc"><path id="path772" fill="none" stroke="red" stroke-linecap="round" stroke-linejoin="round" stroke-width=".264" d="M41.8,11.5c0.3,0.3,0.5,0.5,0.5,0.5" opacity=".441"/></g><g id="path667_1_" nodetypes="cc"><path id="path774" fill="none" stroke="red" stroke-linecap="round" stroke-linejoin="round" stroke-width=".264" d="M42.9,9.6c0.2,0.1,0.5,0.5,0.7,0.7" opacity=".441"/></g><g id="path668" nodetypes="cc"><path id="path776" fill="none" stroke="red" stroke-linecap="round" stroke-linejoin="round" stroke-width=".264" d="M39.3,14.9c0.4,0.3,0.5,0.5,0.5,0.5" opacity=".441"/></g><g id="path669_1_" nodetypes="cc"><path id="path778" fill="none" stroke="red" stroke-linecap="round" stroke-linejoin="round" stroke-width=".264" d="M40.4,13c0.2,0.1,0.5,0.5,0.7,0.7" opacity=".441"/></g><g id="path670" nodetypes="cc"><path id="path780" fill="none" stroke="red" stroke-linecap="round" stroke-linejoin="round" stroke-width=".264" d="M36.9,18.1c0.3,0.3,0.5,0.5,0.5,0.5" opacity=".441"/></g><g id="path671" nodetypes="cc"><path id="path782" fill="none" stroke="red" stroke-linecap="round" stroke-linejoin="round" stroke-width=".264" d="M38,16.2c0.2,0.1,0.5,0.5,0.7,0.7" opacity=".441"/></g><linearGradient id="path679_2_" x1="-169.708" x2="-169.702" y1="427.37" y2="427.285" gradientTransform="matrix(171.3485 0 0 -217.4326 29115.332 92934.5938)" gradientUnits="userSpaceOnUse"><stop style="stop-color:#fff" id="stop784" offset="0"/><stop style="stop-color:#fff" id="stop785" offset="1"/></linearGradient><path id="path679_1_" fill="url(#path679_2_)" stroke="#000" stroke-width=".457" d="M42.9,7.7c-0.7,1-17,22.4-17.3,22.8c0.8,0.6,1.2,1,1.9,1.6L44.8,9.3c0,0,1.5,0,2.3-1c0.8-1.4,0.5-2.5-0.7-3.5 c-1.1-0.9-2.6-0.9-3.4,0C42.5,5.7,42.9,7.5,42.9,7.7z" nodetypes="cccccccc" opacity=".25"/></g></g></g></svg>