<svg xmlns="http://www.w3.org/2000/svg" xmlns:xlink="http://www.w3.org/1999/xlink" id="svg602" width="48" height="48.7" enable-background="new 0 0 48 48.7" overflow="visible" viewBox="0 0 48 48.7" xml:space="preserve"><g id="Layer_1"><path id="path597_5_" fill="none" stroke="#474000" stroke-width="1.882" d="M5.6,20.2c0-10.7,8-19.3,17.8-19.3c9.8,0,18.4,8.1,18.4,18.7c0,10.7-8.6,19.9-18.4,19.9C13.6,39.5,5.6,30.9,5.6,20.2z" enable-background="new" opacity=".15"/><path id="path597_4_" fill="none" stroke="#474000" stroke-width=".941" d="M5.6,20.2c0-10.7,8-19.3,17.8-19.3c9.8,0,18.4,8.1,18.4,18.7c0,10.7-8.6,19.9-18.4,19.9C13.6,39.5,5.6,30.9,5.6,20.2z" enable-background="new" opacity=".2"/><path id="path597_3_" fill="none" stroke="#474000" stroke-width=".47" d="M5.6,20.2c0-10.7,8-19.3,17.8-19.3c9.8,0,18.4,8.1,18.4,18.7c0,10.7-8.6,19.9-18.4,19.9C13.6,39.5,5.6,30.9,5.6,20.2z" enable-background="new" opacity=".3"/><radialGradient id="path700_1_" cx="-679.571" cy="-.74" r=".064" fx="-679.571" fy="-.74" gradientTransform="matrix(310.7065 0 0 144.1183 211172.2188 149.3426)" gradientUnits="userSpaceOnUse"><stop style="stop-color:#261700" id="stop610" offset="0"/><stop style="stop-color:#d2d2d2" id="stop611" offset="1"/></radialGradient><path id="path700" fill="url(#path700_1_)" d="M37.9,31.8c6.5,4.5,6,10.6-1.9,14.3c-7.9,3.7-19.5,3.1-25.9-1.5c-5.5-3.8-5.7-9.1-0.5-13.1c3.4,4.7,6.2,6.3,14,7.3 C30.1,38.7,34.3,35.8,37.9,31.8z" enable-background="new" opacity=".3"/><radialGradient id="path577_1_" cx="-638.496" cy="42.772" r="41.557" fx="-638.496" fy="42.772" gradientTransform="matrix(298.9032 0 0 316.3969 203151.1563 -98.4275)" gradientUnits="userSpaceOnUse"><stop style="stop-color:#ff6f00" id="stop617" offset="0"/><stop style="stop-color:#ff0" id="stop618" offset="1"/></radialGradient><circle id="path577" cx="23.9" cy="20.4" r="17.8" fill="url(#path577_1_)"/><linearGradient id="path597_1_" x1="-679.565" x2="-679.567" y1=".318" y2=".437" gradientTransform="matrix(303.6933 0 0 316.3967 206403.3125 -98.1642)" gradientUnits="userSpaceOnUse"><stop style="stop-color:#ff6500" id="stop624" offset="0"/><stop style="stop-color:#ff0" id="stop625" offset="1"/></linearGradient><path id="path597" fill="url(#path597_1_)" d="M5.6,20.2c0-10.7,8-19.3,17.8-19.3c9.9,0,18.4,8,18.4,18.7c0,10.7-8.6,19.9-18.4,19.9C13.6,39.5,5.6,30.9,5.6,20.2z" enable-background="new" opacity=".75"/><radialGradient id="path597_6_" cx="-486.406" cy="426.746" r="20.235" fx="-486.406" fy="426.746" gradientTransform="matrix(1 0 0 -1 509.7773 427.6934)" gradientUnits="userSpaceOnUse"><stop style="stop-color:#fff" id="stop631" offset="0"/><stop style="stop-color:#fffefa" id="stop632" offset=".105"/><stop style="stop-color:#fffbec" id="stop633" offset=".228"/><stop style="stop-color:#fff7d4" id="stop634" offset=".362"/><stop style="stop-color:#fff1b2" id="stop635" offset=".502"/><stop style="stop-color:#ffe988" id="stop636" offset=".647"/><stop style="stop-color:#ffdf53" id="stop637" offset=".798"/><stop style="stop-color:#ffd316" id="stop638" offset=".949"/><stop style="stop-color:#ffcf00" id="stop639" offset="1"/></radialGradient><path id="path597_2_" fill="url(#path597_6_)" d="M12.2,7.8c0-3.8,5-6.9,11.1-6.9c6.1,0,11.4,2.9,11.4,6.7C34.7,11.4,12.2,11.6,12.2,7.8z" enable-background="new" opacity=".75"/><rect id="rect662" width="48" height="48" y=".7" fill="none"/><g id="g659"><g id="path644" nodetypes="cccc"><polygon id="polygon661" fill="#474000" points="37 11.7 28.9 13.1 30 14.1"/><polygon id="polygon662" fill="none" stroke="#2A0000" stroke-linecap="round" stroke-linejoin="round" stroke-width=".802" points="37 11.7 28.9 13.1 30 14.1" opacity=".772"/></g><g id="path663" nodetypes="cccc"><polygon id="polygon664" fill="#474000" points="37 11.7 28.9 13.1 30 14.1" opacity="0"/><polygon id="polygon665" fill="none" stroke="#2A0000" stroke-linecap="round" stroke-linejoin="round" stroke-width="1.565" points="37 11.7 28.9 13.1 30 14.1" opacity=".1"/></g><g id="path665" nodetypes="cccc"><polygon id="polygon667" fill="#474000" points="37 11.7 28.9 13.1 30 14.1" opacity="0"/><polygon id="polygon668" fill="none" stroke="#2A0000" stroke-linecap="round" stroke-linejoin="round" stroke-width="1.264" points="37 11.7 28.9 13.1 30 14.1" opacity=".1"/></g><g id="path667" nodetypes="cccc"><polygon id="polygon670" fill="#474000" points="37 11.7 28.9 13.1 30 14.1" opacity="0"/><polygon id="polygon671" fill="none" stroke="#2A0000" stroke-linecap="round" stroke-linejoin="round" stroke-width="2.006" points="37 11.7 28.9 13.1 30 14.1" opacity=".1"/></g></g><g id="g672"><g id="path670" nodetypes="cccc"><polygon id="polygon674" fill="#474000" points="12.2 8.9 23.3 15.5 21.9 15.6"/><polygon id="polygon675" fill="none" stroke="#2A0000" stroke-linecap="round" stroke-linejoin="round" stroke-width="1.5" points="12.2 8.9 23.3 15.5 21.9 15.6" opacity=".772"/></g><g id="path671" nodetypes="cccc"><polygon id="polygon677" fill="#474000" points="12.2 8.9 23.3 15.5 21.9 15.6" opacity="0"/><polygon id="polygon678" fill="none" stroke="#2A0000" stroke-linecap="round" stroke-linejoin="round" stroke-width="1.612" points="12.2 8.9 23.3 15.5 21.9 15.6" opacity=".1"/></g><g id="path672" nodetypes="cccc"><polygon id="polygon680" fill="#474000" points="12.2 8.9 23.3 15.5 21.9 15.6" opacity="0"/><polygon id="polygon681" fill="none" stroke="#2A0000" stroke-linecap="round" stroke-linejoin="round" stroke-width="1.8" points="12.2 8.9 23.3 15.5 21.9 15.6" opacity=".1"/></g><g id="path673" nodetypes="cccc"><polygon id="polygon683" fill="#474000" points="12.2 8.9 23.3 15.5 21.9 15.6" opacity="0"/><polygon id="polygon684" fill="none" stroke="#2A0000" stroke-linecap="round" stroke-linejoin="round" stroke-width="2.2" points="12.2 8.9 23.3 15.5 21.9 15.6" opacity=".1"/></g></g><g id="g685"><radialGradient id="path630_1_" cx="-163.642" cy="429.051" r=".1" fx="-163.642" fy="429.051" gradientTransform="matrix(-47.8028 0 0 -73.2626 -7789.8047 31454.6973)" gradientUnits="userSpaceOnUse"><stop style="stop-color:#dee2e7" id="stop687" offset="0"/><stop style="stop-color:#fff" id="stop688" offset="1"/></radialGradient><path id="path630" cx="50.247" cy="478.41" fill="url(#path630_1_)" stroke="#7C5202" stroke-width=".619" d="M30.2,20.2c0-3,1.6-5.5,3.6-5.5c2,0,3.6,2.5,3.6,5.5c0,0,0,0,0,0c0,3-1.6,5.5-3.6,5.5C31.8,25.7,30.2,23.2,30.2,20.2 C30.2,20.2,30.2,20.2,30.2,20.2z" rx="24.525" ry="34.993" type="arc"/><g id="path631" cx="50.097" cy="476.765" rx="28.862" ry="41.424" type="arc"><path id="path694" fill="none" stroke="#000" stroke-width=".563" d="M29.6,20.1 c0-3.3,1.9-6.1,4.2-6.1c2.3,0,4.2,2.7,4.2,6.1c0,0,0,0,0,0c0,3.3-1.9,6.1-4.2,6.1C31.5,26.2,29.6,23.5,29.6,20.1 C29.6,20.1,29.6,20.1,29.6,20.1z" opacity=".038"/></g><g id="path632" cx="50.097" cy="476.765" rx="28.862" ry="41.424" type="arc"><path id="path696" fill="none" stroke="#000" stroke-width="1.956" d="M29.6,20.2 c0-3.3,1.9-6,4.2-6c2.3,0,4.2,2.7,4.2,6c0,0,0,0,0,0c0,3.3-1.9,6-4.2,6C31.5,26.2,29.6,23.5,29.6,20.2 C29.6,20.2,29.6,20.2,29.6,20.2z" opacity=".014"/></g><g id="path633" cx="50.097" cy="476.765" rx="28.862" ry="41.424" type="arc"><path id="path698" fill="none" stroke="#000" stroke-width="1.236" d="M29.6,20.2 c0-3.3,1.9-6,4.2-6c2.3,0,4.2,2.7,4.2,6c0,0,0,0,0,0c0,3.3-1.9,6-4.2,6C31.5,26.2,29.6,23.5,29.6,20.2 C29.6,20.2,29.6,20.2,29.6,20.2z" opacity=".014"/></g><g id="path634" cx="50.097" cy="476.765" rx="28.862" ry="41.424" type="arc"><path id="path701" fill="none" stroke="#000" stroke-width=".426" d="M29.6,20.2 c0-3.3,1.9-6,4.2-6c2.3,0,4.2,2.7,4.2,6c0,0,0,0,0,0c0,3.3-1.9,6-4.2,6C31.5,26.2,29.6,23.5,29.6,20.2 C29.6,20.2,29.6,20.2,29.6,20.2z" opacity=".014"/></g><g id="path635" cx="50.097" cy="476.765" rx="28.862" ry="41.424" type="arc"><path id="path703" fill="none" stroke="#000" stroke-width=".214" d="M29.8,20.2c0-3.3,1.8-5.9,4-5.9 c2.2,0,4,2.7,4,5.9v0c0,3.3-1.8,5.9-4,5.9C31.6,26.1,29.8,23.5,29.8,20.2C29.8,20.2,29.8,20.2,29.8,20.2z" opacity=".152"/></g><radialGradient id="path637_1_" cx="-155.784" cy="433.627" r=".093" fx="-155.784" fy="433.627" gradientTransform="matrix(-19.9085 0 0 -23.3843 -3067.9324 10161.415)" gradientUnits="userSpaceOnUse"><stop style="stop-color:#000082" id="stop705" offset="0"/><stop style="stop-color:#000" id="stop706" offset="1"/></radialGradient><path id="path637" cx="61.649" cy="495.829" fill="url(#path637_1_)" d="M31.7,22.5c0-1,0.7-1.8,1.5-1.8c0.8,0,1.5,0.8,1.5,1.8c0,0,0,0,0,0c0,1-0.7,1.8-1.5,1.8C32.3,24.2,31.7,23.5,31.7,22.5 C31.7,22.5,31.7,22.5,31.7,22.5z" rx="10.469" ry="10.892" type="arc"/></g><g id="g711"><g id="path643" nodetypes="cs"><path id="path713" fill="none" stroke="#000" stroke-linecap="round" stroke-width="4" d="M13.4,30.5c3.8,5.3,16.2,5.2,20.5,0.2" opacity=".033"/></g><path id="path639" fill="none" stroke="#795000" stroke-linecap="round" stroke-width="2" d="M13.4,30.5c3.8,5.2,16.2,5,20.5,0.2" nodetypes="cs"/></g><g id="g715"><radialGradient id="path650_1_" cx="-172.826" cy="428.898" r=".101" fx="-172.826" fy="428.898" gradientTransform="matrix(47.8028 0 0 -73.2626 8277.6094 31442.8223)" gradientUnits="userSpaceOnUse"><stop style="stop-color:#dee2e7" id="stop717" offset="0"/><stop style="stop-color:#fff" id="stop718" offset="1"/></radialGradient><path id="path650" cx="50.247" cy="478.41" fill="url(#path650_1_)" stroke="#7C3902" stroke-width=".619" d="M18.8,19.4c0-3-1.6-5.5-3.6-5.5c-2,0-3.6,2.5-3.6,5.5c0,0,0,0,0,0c0,3,1.6,5.5,3.6,5.5C17.2,24.9,18.8,22.5,18.8,19.4 C18.8,19.4,18.8,19.4,18.8,19.4z" rx="24.525" ry="34.993" type="arc"/><g id="path651" cx="50.097" cy="476.765" rx="28.862" ry="41.424" type="arc"><path id="path724" fill="none" stroke="#000" stroke-width=".563" d="M19.3,19.4 c0-3.3-1.9-6.1-4.2-6.1S11,16,11,19.4c0,0,0,0,0,0c0,3.3,1.9,6.1,4.2,6.1C17.5,25.4,19.3,22.7,19.3,19.4 C19.3,19.4,19.3,19.4,19.3,19.4z" opacity=".038"/></g><g id="path652" cx="50.097" cy="476.765" rx="28.862" ry="41.424" type="arc"><path id="path726" fill="none" stroke="#000" stroke-width="1.956" d="M19.3,19.4 c0-3.3-1.9-6-4.2-6c-2.3,0-4.2,2.7-4.2,6c0,0,0,0,0,0c0,3.3,1.9,6,4.2,6C17.5,25.4,19.3,22.7,19.3,19.4 C19.3,19.4,19.3,19.4,19.3,19.4z" opacity=".014"/></g><g id="path653" cx="50.097" cy="476.765" rx="28.862" ry="41.424" type="arc"><path id="path728" fill="none" stroke="#000" stroke-width="1.236" d="M19.3,19.4 c0-3.3-1.9-6-4.2-6c-2.3,0-4.2,2.7-4.2,6c0,0,0,0,0,0c0,3.3,1.9,6,4.2,6C17.5,25.4,19.3,22.7,19.3,19.4 C19.3,19.4,19.3,19.4,19.3,19.4z" opacity=".014"/></g><g id="path654" cx="50.097" cy="476.765" rx="28.862" ry="41.424" type="arc"><path id="path730" fill="none" stroke="#000" stroke-width=".426" d="M19.3,19.4 c0-3.3-1.9-6-4.2-6c-2.3,0-4.2,2.7-4.2,6c0,0,0,0,0,0c0,3.3,1.9,6,4.2,6C17.5,25.4,19.3,22.7,19.3,19.4 C19.3,19.4,19.3,19.4,19.3,19.4z" opacity=".014"/></g><g id="path655" cx="50.097" cy="476.765" rx="28.862" ry="41.424" type="arc"><path id="path732" fill="none" stroke="#000" stroke-width=".214" d="M19.2,19.4c0-3.3-1.8-5.9-4-5.9 c-2.2,0-4,2.7-4,5.9c0,0,0,0,0,0c0,3.3,1.8,5.9,4,5.9S19.2,22.7,19.2,19.4L19.2,19.4z" opacity=".152"/></g><radialGradient id="path656_1_" cx="-177.837" cy="433.153" r=".093" fx="-177.837" fy="433.153" gradientTransform="matrix(19.9085 0 0 -23.3843 3555.7683 10149.5869)" gradientUnits="userSpaceOnUse"><stop style="stop-color:#000082" id="stop734" offset="0"/><stop style="stop-color:#000" id="stop735" offset="1"/></radialGradient><path id="path656" cx="61.649" cy="495.829" fill="url(#path656_1_)" d="M17.3,21.7c0-1-0.7-1.8-1.5-1.8c-0.8,0-1.5,0.8-1.5,1.8c0,0,0,0,0,0c0,1,0.7,1.8,1.5,1.8C16.6,23.5,17.3,22.7,17.3,21.7 C17.3,21.7,17.3,21.7,17.3,21.7z" rx="10.469" ry="10.892" type="arc"/></g></g></svg>