<svg xmlns="http://www.w3.org/2000/svg" xmlns:xlink="http://www.w3.org/1999/xlink" id="svg602" width="54.1" height="54.3" enable-background="new 0 0 54.1 54.3" overflow="visible" viewBox="0 0 54.1 54.3" xml:space="preserve"><g id="Layer_1"><g id="g606"><g id="g607"><g id="path592" nodetypes="ccccccccccccc"><path id="path609" fill="none" stroke="#140000" stroke-linejoin="round" stroke-width="1.674" d="M12.6,3.3C17,9.1,22,14.5,27.1,20c5.1-5.2,10.3-11,14.3-16.6c3,3.3,6.4,6.4,9.4,9.7c-4.3,5.5-9.2,11.3-14,16.3 c4.3,4.4,9,8.3,14.1,12.1c-3.2,3.3-6.3,6.2-9.5,9.5c-5.2-3.8-9.6-7.5-14.2-11.8c-4.6,4.1-9.3,8.8-14.3,11.8 c-3.2-3.2-6.2-6.2-9.4-9.5c5-3.7,9.5-7.7,14.1-12.1C12.2,24,7.6,18.6,3.3,13.1C6.4,9.8,9.6,6.7,12.6,3.3z" opacity=".043"/></g><g id="path591" nodetypes="ccccccccccccc"><path id="path611" fill="none" stroke="#140000" stroke-linejoin="round" stroke-width="2.009" d="M12.6,3.3C17,9.1,22,14.5,27.1,20c5.1-5.2,10.3-11,14.3-16.6c3,3.3,6.4,6.4,9.4,9.7c-4.3,5.5-9.2,11.3-14,16.3 c4.3,4.4,9,8.3,14.1,12.1c-3.2,3.3-6.3,6.2-9.5,9.5c-5.2-3.8-9.6-7.5-14.2-11.8c-4.6,4.1-9.3,8.8-14.3,11.8 c-3.2-3.2-6.2-6.2-9.4-9.5c5-3.7,9.5-7.7,14.1-12.1C12.2,24,7.6,18.6,3.3,13.1C6.4,9.8,9.6,6.7,12.6,3.3z" opacity=".043"/></g><g id="path590" nodetypes="ccccccccccccc"><path id="path613" fill="none" stroke="#140000" stroke-linejoin="round" stroke-width="2.511" d="M12.6,3.3C17,9.1,22,14.5,27.1,20c5.1-5.2,10.3-11,14.3-16.6c3,3.3,6.4,6.4,9.4,9.7c-4.3,5.5-9.2,11.3-14,16.3 c4.3,4.4,9,8.3,14.1,12.1c-3.2,3.3-6.3,6.2-9.5,9.5c-5.2-3.8-9.6-7.5-14.2-11.8c-4.6,4.1-9.3,8.8-14.3,11.8 c-3.2-3.2-6.2-6.2-9.4-9.5c5-3.7,9.5-7.7,14.1-12.1C12.2,24,7.6,18.6,3.3,13.1C6.4,9.8,9.6,6.7,12.6,3.3z" opacity=".043"/></g><g id="path589" nodetypes="ccccccccccccc"><path id="path615" fill="none" stroke="#140000" stroke-linejoin="round" stroke-width="3.013" d="M12.6,3.3C17,9.1,22,14.5,27.1,20c5.1-5.2,10.3-11,14.3-16.6c3,3.3,6.4,6.4,9.4,9.7c-4.3,5.5-9.2,11.3-14,16.3 c4.3,4.4,9,8.3,14.1,12.1c-3.2,3.3-6.3,6.2-9.5,9.5c-5.2-3.8-9.6-7.5-14.2-11.8c-4.6,4.1-9.3,8.8-14.3,11.8 c-3.2-3.2-6.2-6.2-9.4-9.5c5-3.7,9.5-7.7,14.1-12.1C12.2,24,7.6,18.6,3.3,13.1C6.4,9.8,9.6,6.7,12.6,3.3z" opacity=".043"/></g><g id="path588" nodetypes="ccccccccccccc"><path id="path617" fill="none" stroke="#140000" stroke-linejoin="round" stroke-width="3.348" d="M12.6,3.3C17,9.1,22,14.5,27.1,20c5.1-5.2,10.3-11,14.3-16.6c3,3.3,6.4,6.4,9.4,9.7c-4.3,5.5-9.2,11.3-14,16.3 c4.3,4.4,9,8.3,14.1,12.1c-3.2,3.3-6.3,6.2-9.5,9.5c-5.2-3.8-9.6-7.5-14.2-11.8c-4.6,4.1-9.3,8.8-14.3,11.8 c-3.2-3.2-6.2-6.2-9.4-9.5c5-3.7,9.5-7.7,14.1-12.1C12.2,24,7.6,18.6,3.3,13.1C6.4,9.8,9.6,6.7,12.6,3.3z" opacity=".043"/></g><g id="path587" nodetypes="ccccccccccccc"><path id="path619" fill="none" stroke="#140000" stroke-linejoin="round" stroke-width="4.185" d="M12.6,3.3C17,9.1,22,14.5,27.1,20c5.1-5.2,10.3-11,14.3-16.6c3,3.3,6.4,6.4,9.4,9.7c-4.3,5.5-9.2,11.3-14,16.3 c4.3,4.4,9,8.3,14.1,12.1c-3.2,3.3-6.3,6.2-9.5,9.5c-5.2-3.8-9.6-7.5-14.2-11.8c-4.6,4.1-9.3,8.8-14.3,11.8 c-3.2-3.2-6.2-6.2-9.4-9.5c5-3.7,9.5-7.7,14.1-12.1C12.2,24,7.6,18.6,3.3,13.1C6.4,9.8,9.6,6.7,12.6,3.3z" opacity=".043"/></g><g id="path586" nodetypes="ccccccccccccc"><path id="path621" fill="none" stroke="#140000" stroke-linejoin="round" stroke-width="5.022" d="M12.6,3.3C17,9.1,22,14.5,27.1,20c5.1-5.2,10.3-11,14.3-16.6c3,3.3,6.4,6.4,9.4,9.7c-4.3,5.5-9.2,11.3-14,16.3 c4.3,4.4,9,8.3,14.1,12.1c-3.2,3.3-6.3,6.2-9.5,9.5c-5.2-3.8-9.6-7.5-14.2-11.8c-4.6,4.1-9.3,8.8-14.3,11.8 c-3.2-3.2-6.2-6.2-9.4-9.5c5-3.7,9.5-7.7,14.1-12.1C12.2,24,7.6,18.6,3.3,13.1C6.4,9.8,9.6,6.7,12.6,3.3z" opacity=".043"/></g><g id="path585" nodetypes="ccccccccccccc"><path id="path623" fill="none" stroke="#140000" stroke-linejoin="round" stroke-width="5.859" d="M12.6,3.3C17,9.1,22,14.5,27.1,20c5.1-5.2,10.3-11,14.3-16.6c3,3.3,6.4,6.4,9.4,9.7c-4.3,5.5-9.2,11.3-14,16.3 c4.3,4.4,9,8.3,14.1,12.1c-3.2,3.3-6.3,6.2-9.5,9.5c-5.2-3.8-9.6-7.5-14.2-11.8c-4.6,4.1-9.3,8.8-14.3,11.8 c-3.2-3.2-6.2-6.2-9.4-9.5c5-3.7,9.5-7.7,14.1-12.1C12.2,24,7.6,18.6,3.3,13.1C6.4,9.8,9.6,6.7,12.6,3.3z" opacity=".043"/></g><g id="path584" nodetypes="ccccccccccccc"><path id="path625" fill="none" stroke="#140000" stroke-linejoin="round" stroke-width="6.696" d="M12.6,3.3C17,9.1,22,14.5,27.1,20c5.1-5.2,10.3-11,14.3-16.6c3,3.3,6.4,6.4,9.4,9.7c-4.3,5.5-9.2,11.3-14,16.3 c4.3,4.4,9,8.3,14.1,12.1c-3.2,3.3-6.3,6.2-9.5,9.5c-5.2-3.8-9.6-7.5-14.2-11.8c-4.6,4.1-9.3,8.8-14.3,11.8 c-3.2-3.2-6.2-6.2-9.4-9.5c5-3.7,9.5-7.7,14.1-12.1C12.2,24,7.6,18.6,3.3,13.1C6.4,9.8,9.6,6.7,12.6,3.3z" opacity=".043"/></g><linearGradient id="path617_1_" x1="-202.736" x2="-202.736" y1="460.905" y2="461.015" gradientTransform="matrix(354.121 0 0 -355.3172 71820.3281 163815.3281)" gradientUnits="userSpaceOnUse"><stop style="stop-color:#c50000" id="stop627" offset="0"/><stop style="stop-color:#a20000" id="stop628" offset="1"/></linearGradient><path id="path632" fill="url(#path617_1_)" stroke="#4A0000" stroke-linejoin="round" stroke-width="1.021" d="M12.6,3.3C17,9.1,22,14.5,27.1,20c5.1-5.2,10.3-11,14.3-16.6c3,3.3,6.4,6.4,9.4,9.7c-4.3,5.5-9.2,11.3-14,16.3 c4.3,4.4,9,8.3,14.1,12.1c-3.2,3.3-6.3,6.2-9.5,9.5c-5.2-3.8-9.6-7.5-14.2-11.8c-4.6,4.1-9.3,8.8-14.3,11.8 c-3.2-3.2-6.2-6.2-9.4-9.5c5-3.7,9.5-7.7,14.1-12.1C12.2,24,7.6,18.6,3.3,13.1C6.4,9.8,9.6,6.7,12.6,3.3z" nodetypes="ccccccccccccc"/><radialGradient id="path581_1_" cx="-202.655" cy="460.902" r=".131" fx="-202.655" fy="460.902" gradientTransform="matrix(354.121 0 0 -355.3172 71820.3281 163815.3281)" gradientUnits="userSpaceOnUse"><stop style="stop-color:#fff" id="stop634" offset="0"/><stop style="stop-color:#ff5b28" id="stop635" offset="1"/></radialGradient><path id="path581" fill="url(#path581_1_)" stroke="#4A0000" stroke-linejoin="round" stroke-width="1.021" d="M12.6,3.3C17,9.1,22,14.5,27.1,20c5.1-5.2,10.3-11,14.3-16.6c3,3.3,6.4,6.4,9.4,9.7c-4.3,5.5-9.2,11.3-14,16.3 c4.3,4.4,9,8.3,14.1,12.1c-3.2,3.3-6.3,6.2-9.5,9.5c-5.2-3.8-9.6-7.5-14.2-11.8c-4.6,4.1-9.3,8.8-14.3,11.8 c-3.2-3.2-6.2-6.2-9.4-9.5c5-3.7,9.5-7.7,14.1-12.1C12.2,24,7.6,18.6,3.3,13.1C6.4,9.8,9.6,6.7,12.6,3.3z" nodetypes="ccccccccccccc" opacity=".2"/><radialGradient id="path594_1_" cx="-202.296" cy="460.239" r=".445" fx="-202.296" fy="460.239" gradientTransform="matrix(139.1681 0 0 -103.3038 28180.1699 47546.6641)" gradientUnits="userSpaceOnUse"><stop style="stop-color:#fff" id="stop641" offset="0"/><stop style="stop-color:#ff2600" id="stop642" offset="1"/></radialGradient><path id="path594" fill="url(#path594_1_)" d="M12.5,3.2l9.4,11.1 c-1.6,0.8-3.5,2.5-7.2,1.5c-1.4-0.4-5.8-1-7.7,1.3l-3.8-4.1L12.5,3.2z" nodetypes="ccsccc" opacity=".6"/><radialGradient id="path593_1_" cx="-203.698" cy="460.354" r=".445" fx="-203.698" fy="460.354" gradientTransform="matrix(134.5577 0 0 -113.0244 27464.9277 52033.6602)" gradientUnits="userSpaceOnUse"><stop style="stop-color:#fff" id="stop648" offset="0"/><stop style="stop-color:#ff5103" id="stop649" offset="1"/></radialGradient><path id="path593" fill="url(#path593_1_)" d="M41.6,3.5l-8.8,10.7 c2,0.8,3.5,1.3,5.1,3.2c1.5,1.7,5.6,1.5,8.7,0.3l4.2-4.5L41.6,3.5z" nodetypes="ccsccc" opacity=".6"/></g><rect id="rect654" width="48" height="48" x="3.1" y="3.1" fill="none"/></g></g></svg>