<svg xmlns="http://www.w3.org/2000/svg" xmlns:xlink="http://www.w3.org/1999/xlink" id="svg602" width="48" height="48.7" enable-background="new 0 0 48 48.7" overflow="visible" viewBox="0 0 48 48.7" xml:space="preserve"><g id="Layer_1"><path id="path597_5_" fill="none" stroke="#474000" stroke-width="1.882" d="M5.6,20.2c0-10.7,8-19.3,17.8-19.3c9.8,0,18.4,8.1,18.4,18.7c0,10.7-8.6,19.9-18.4,19.9C13.6,39.5,5.6,30.9,5.6,20.2z" enable-background="new" opacity=".15"/><path id="path597_4_" fill="none" stroke="#474000" stroke-width=".941" d="M5.6,20.2c0-10.7,8-19.3,17.8-19.3c9.8,0,18.4,8.1,18.4,18.7c0,10.7-8.6,19.9-18.4,19.9C13.6,39.5,5.6,30.9,5.6,20.2z" enable-background="new" opacity=".2"/><path id="path597_3_" fill="none" stroke="#474000" stroke-width=".47" d="M5.6,20.2c0-10.7,8-19.3,17.8-19.3c9.8,0,18.4,8.1,18.4,18.7c0,10.7-8.6,19.9-18.4,19.9C13.6,39.5,5.6,30.9,5.6,20.2z" enable-background="new" opacity=".3"/><radialGradient id="path700_1_" cx="-849.497" cy="428.492" r=".064" fx="-849.497" fy="428.492" gradientTransform="matrix(310.7065 0 0 -144.1183 263969.1875 61796.2813)" gradientUnits="userSpaceOnUse"><stop style="stop-color:#261700" id="stop610" offset="0"/><stop style="stop-color:#d2d2d2" id="stop611" offset="1"/></radialGradient><path id="path700" fill="url(#path700_1_)" d="M37.9,31.8c6.5,4.5,6,10.6-1.9,14.3c-7.9,3.7-19.5,3.1-25.9-1.5c-5.5-3.8-5.7-9.1-0.5-13.1c3.4,4.7,6.2,6.3,14,7.3 C30.1,38.7,34.3,35.8,37.9,31.8z" enable-background="new" opacity=".3"/><radialGradient id="path577_1_" cx="-808.422" cy="384.981" r="41.557" fx="-808.422" fy="384.981" gradientTransform="matrix(298.9032 0 0 -316.3969 253942.4063 135241.1094)" gradientUnits="userSpaceOnUse"><stop style="stop-color:#ff6f00" id="stop617" offset="0"/><stop style="stop-color:#ff0" id="stop618" offset="1"/></radialGradient><circle id="path577" cx="23.9" cy="20.4" r="17.8" fill="url(#path577_1_)"/><linearGradient id="path597_1_" x1="-849.491" x2="-849.492" y1="427.434" y2="427.315" gradientTransform="matrix(303.6933 0 0 -316.3967 258008.5625 135241.1094)" gradientUnits="userSpaceOnUse"><stop style="stop-color:#ff6500" id="stop624" offset="0"/><stop style="stop-color:#ff0" id="stop625" offset="1"/></linearGradient><path id="path597" fill="url(#path597_1_)" d="M5.6,20.2c0-10.7,8-19.3,17.8-19.3c9.9,0,18.4,8,18.4,18.7c0,10.7-8.6,19.9-18.4,19.9C13.6,39.5,5.6,30.9,5.6,20.2z" enable-background="new" opacity=".75"/><radialGradient id="path597_6_" cx="-656.332" cy="1.006" r="20.235" fx="-656.332" fy="1.006" gradientTransform="matrix(1 0 0 1 679.7031 -1.757813e-002)" gradientUnits="userSpaceOnUse"><stop style="stop-color:#fff" id="stop631" offset="0"/><stop style="stop-color:#fffefa" id="stop632" offset=".105"/><stop style="stop-color:#fffbec" id="stop633" offset=".228"/><stop style="stop-color:#fff7d4" id="stop634" offset=".362"/><stop style="stop-color:#fff1b2" id="stop635" offset=".502"/><stop style="stop-color:#ffe988" id="stop636" offset=".647"/><stop style="stop-color:#ffdf53" id="stop637" offset=".798"/><stop style="stop-color:#ffd316" id="stop638" offset=".949"/><stop style="stop-color:#ffcf00" id="stop639" offset="1"/></radialGradient><path id="path597_2_" fill="url(#path597_6_)" d="M12.2,7.8c0-3.8,5-6.9,11.1-6.9c6.1,0,11.4,2.9,11.4,6.7C34.7,11.4,12.2,11.6,12.2,7.8z" enable-background="new" opacity=".75"/><rect id="rect662" width="48" height="48" y=".7" fill="none"/><g id="g659"><radialGradient id="path630_1_" cx="-335.82" cy=".443" r=".126" fx="-335.82" fy=".443" gradientTransform="matrix(-47.8028 0 0 73.2626 -16022.082 -14.0539)" gradientUnits="userSpaceOnUse"><stop style="stop-color:#dee2e7" id="stop661" offset="0"/><stop style="stop-color:#fff" id="stop662" offset="1"/></radialGradient><path id="path630" fill="url(#path630_1_)" stroke="#7C5202" stroke-width=".772" d="M27.8,16.9c0-3.8,2-6.9,4.5-6.9 s4.5,3.1,4.5,6.9l0,0c0,3.8-2,6.9-4.5,6.9S27.8,20.7,27.8,16.9L27.8,16.9z"/><g id="path631"><path id="path668" fill="none" stroke="#000" stroke-width=".702" d="M27.1,16.9c0-4.2,2.3-7.6,5.2-7.6c2.9,0,5.2,3.4,5.2,7.6l0,0c0,4.2-2.3,7.6-5.2,7.6C29.4,24.4,27.1,21,27.1,16.9L27.1,16.9z" enable-background="new" opacity=".038"/></g><g id="path632"><path id="path670" fill="none" stroke="#000" stroke-width="2.441" d="M27.1,16.9c0-4.2,2.3-7.5,5.2-7.5c2.9,0,5.2,3.4,5.2,7.5l0,0c0,4.2-2.3,7.5-5.2,7.5C29.4,24.4,27.1,21.1,27.1,16.9L27.1,16.9z" enable-background="new" opacity=".014"/></g><g id="path633"><path id="path672" fill="none" stroke="#000" stroke-width="1.542" d="M27.1,16.9c0-4.2,2.3-7.5,5.2-7.5c2.9,0,5.2,3.4,5.2,7.5l0,0c0,4.2-2.3,7.5-5.2,7.5C29.4,24.4,27.1,21.1,27.1,16.9L27.1,16.9z" enable-background="new" opacity=".014"/></g><g id="path634"><path id="path674" fill="none" stroke="#000" stroke-width=".531" d="M27.1,16.9c0-4.2,2.3-7.5,5.2-7.5c2.9,0,5.2,3.4,5.2,7.5l0,0c0,4.2-2.3,7.5-5.2,7.5C29.4,24.4,27.1,21.1,27.1,16.9L27.1,16.9z" enable-background="new" opacity=".014"/></g><g id="path635"><path id="path676" fill="none" stroke="#000" stroke-width=".267" d="M27.3,16.9c0-4.1,2.2-7.4,5-7.4c2.8,0,5,3.3,5,7.4l0,0c0,4.1-2.2,7.4-5,7.4C29.5,24.3,27.3,21,27.3,16.9L27.3,16.9z" enable-background="new" opacity=".152"/></g><radialGradient id="path637_1_" cx="-331.136" cy="-.409" r=".116" fx="-331.136" fy="-.409" gradientTransform="matrix(-19.9085 0 0 23.3843 -6560.2808 28.2144)" gradientUnits="userSpaceOnUse"><stop style="stop-color:#000082" id="stop678" offset="0"/><stop style="stop-color:#000" id="stop679" offset="1"/></radialGradient><path id="path637" fill="url(#path637_1_)" d="M29.6,19.8c0-1.2,0.8-2.2,1.9-2.2s1.9,1,1.9,2.2l0,0c0,1.2-0.8,2.2-1.9,2.2 C30.5,22,29.6,21,29.6,19.8L29.6,19.8z"/></g><g id="g684"><g id="path643"><path id="path686" fill="none" stroke="#000" stroke-linecap="round" stroke-width="1.811" d="M13.8,30.6c5.8,6.1,19.5,2.9,22.9-4.7" enable-background="new" opacity=".033"/></g><path id="path639" fill="none" stroke="#795000" stroke-linecap="round" stroke-width="1.62" d="M13.8,30.6 c5.7,5.9,19.4,2.8,22.9-4.7"/><path id="path640" fill="none" stroke="#000" stroke-linecap="round" stroke-width="3.131" d="M13.7,30.6c5.8,6.1,19.5,2.9,22.9-4.7" enable-background="new" opacity=".2"/></g><g id="g689"><radialGradient id="path650_1_" cx="-338.158" cy=".47" r=".125" fx="-338.158" fy=".47" gradientTransform="matrix(-47.7876 -1.2054 -1.8474 73.2392 -16146.5283 -423.6943)" gradientUnits="userSpaceOnUse"><stop style="stop-color:#dee2e7" id="stop691" offset="0"/><stop style="stop-color:#fff" id="stop692" offset="1"/></radialGradient><path id="path650" fill="url(#path650_1_)" stroke="#7C3902" stroke-width=".772" d="M9.3,16.7c0.1-3.8,2.2-6.8,4.6-6.7 c2.5,0.1,4.4,3.2,4.3,7l0,0c-0.1,3.8-2.2,6.8-4.6,6.7C11.2,23.6,9.3,20.5,9.3,16.7L9.3,16.7z"/><g id="path651"><path id="path698" fill="none" stroke="#000" stroke-width=".702" d="M8.6,16.7c0.1-4.2,2.5-7.5,5.4-7.4c2.9,0.1,5.1,3.5,5,7.7l0,0c-0.1,4.2-2.5,7.5-5.4,7.4C10.8,24.4,8.5,20.9,8.6,16.7L8.6,16.7z" enable-background="new" opacity=".038"/></g><g id="path652"><path id="path701" fill="none" stroke="#000" stroke-width="2.441" d="M8.6,16.7c0.1-4.2,2.5-7.5,5.4-7.4c2.9,0.1,5.1,3.5,5,7.7l0,0c-0.1,4.2-2.5,7.5-5.4,7.4C10.8,24.3,8.5,20.9,8.6,16.7L8.6,16.7z" enable-background="new" opacity=".014"/></g><g id="path653"><path id="path703" fill="none" stroke="#000" stroke-width="1.542" d="M8.6,16.7c0.1-4.2,2.5-7.5,5.4-7.4c2.9,0.1,5.1,3.5,5,7.7l0,0c-0.1,4.2-2.5,7.5-5.4,7.4C10.8,24.3,8.5,20.9,8.6,16.7L8.6,16.7z" enable-background="new" opacity=".014"/></g><g id="path654"><path id="path705" fill="none" stroke="#000" stroke-width=".531" d="M8.6,16.7c0.1-4.2,2.5-7.5,5.4-7.4c2.9,0.1,5.1,3.5,5,7.7l0,0c-0.1,4.2-2.5,7.5-5.4,7.4C10.8,24.3,8.5,20.9,8.6,16.7L8.6,16.7z" enable-background="new" opacity=".014"/></g><g id="path655"><path id="path707" fill="none" stroke="#000" stroke-width=".267" d="M8.8,16.7c0.1-4.1,2.4-7.4,5.2-7.3s4.9,3.4,4.8,7.5l0,0c-0.1,4.1-2.4,7.4-5.2,7.3C10.8,24.1,8.7,20.8,8.8,16.7L8.8,16.7z" enable-background="new" opacity=".152"/></g><radialGradient id="path656_1_" cx="-336.425" cy=".734" r=".116" fx="-336.425" fy=".734" gradientTransform="matrix(-19.9022 -0.502 -0.5896 23.3769 -6679.7744 -173.2411)" gradientUnits="userSpaceOnUse"><stop style="stop-color:#000082" id="stop708" offset="0"/><stop style="stop-color:#000" id="stop709" offset="1"/></radialGradient><path id="path656" fill="url(#path656_1_)" d="M12.8,13.9c0-1.2,0.9-2.2,1.9-2.1c1,0,1.8,1,1.8,2.2l0,0c0,1.2-0.9,2.2-1.9,2.1 S12.8,15.1,12.8,13.9L12.8,13.9z"/></g></g></svg>