<svg xmlns="http://www.w3.org/2000/svg" xmlns:xlink="http://www.w3.org/1999/xlink" id="svg602" width="48" height="48.7" enable-background="new 0 0 48 48.7" overflow="visible" viewBox="0 0 48 48.7" xml:space="preserve"><g id="Layer_1"><g id="g606"><path id="path597_5_" fill="none" stroke="#474000" stroke-width="1.882" d="M5.6,20.2c0-10.7,8-19.3,17.8-19.3c9.8,0,18.4,8.1,18.4,18.7c0,10.7-8.6,19.9-18.4,19.9C13.6,39.5,5.6,30.9,5.6,20.2z" enable-background="new" opacity=".15"/><path id="path597_4_" fill="none" stroke="#474000" stroke-width=".941" d="M5.6,20.2c0-10.7,8-19.3,17.8-19.3c9.8,0,18.4,8.1,18.4,18.7c0,10.7-8.6,19.9-18.4,19.9C13.6,39.5,5.6,30.9,5.6,20.2z" enable-background="new" opacity=".2"/><path id="path597_3_" fill="none" stroke="#474000" stroke-width=".47" d="M5.6,20.2c0-10.7,8-19.3,17.8-19.3c9.8,0,18.4,8.1,18.4,18.7c0,10.7-8.6,19.9-18.4,19.9C13.6,39.5,5.6,30.9,5.6,20.2z" enable-background="new" opacity=".3"/><radialGradient id="path700_1_" cx="-509.646" cy="428.451" r=".064" fx="-509.646" fy="428.451" gradientTransform="matrix(310.7065 0 0 -144.1183 158375.2188 61790.25)" gradientUnits="userSpaceOnUse"><stop style="stop-color:#261700" id="stop611" offset="0"/><stop style="stop-color:#d2d2d2" id="stop612" offset="1"/></radialGradient><path id="path700" fill="url(#path700_1_)" d="M37.9,31.8c6.5,4.5,6,10.6-1.9,14.3c-7.9,3.7-19.5,3.1-25.9-1.5c-5.5-3.8-5.7-9.1-0.5-13.1c3.4,4.7,6.2,6.3,14,7.3 C30.1,38.7,34.3,35.8,37.9,31.8z" enable-background="new" opacity=".3"/><radialGradient id="path577_1_" cx="-468.57" cy="384.94" r="41.557" fx="-468.57" fy="384.94" gradientTransform="matrix(298.9032 0 0 -316.3969 152359.9063 135227.8281)" gradientUnits="userSpaceOnUse"><stop style="stop-color:#ff6f00" id="stop618" offset="0"/><stop style="stop-color:#ff0" id="stop619" offset="1"/></radialGradient><circle id="path577" cx="23.9" cy="20.4" r="17.8" fill="url(#path577_1_)"/><linearGradient id="path597_1_" x1="-509.639" x2="-509.641" y1="427.393" y2="427.274" gradientTransform="matrix(303.6933 0 0 -316.3967 154798.0625 135228.0781)" gradientUnits="userSpaceOnUse"><stop style="stop-color:#ff6500" id="stop625" offset="0"/><stop style="stop-color:#ff0" id="stop626" offset="1"/></linearGradient><path id="path597" fill="url(#path597_1_)" d="M5.6,20.2c0-10.7,8-19.3,17.8-19.3c9.9,0,18.4,8,18.4,18.7c0,10.7-8.6,19.9-18.4,19.9C13.6,39.5,5.6,30.9,5.6,20.2z" enable-background="new" opacity=".75"/><radialGradient id="path597_6_" cx="-316.481" cy=".965" r="20.235" fx="-316.481" fy=".965" gradientTransform="matrix(1 0 0 1 339.8516 -5.859375e-002)" gradientUnits="userSpaceOnUse"><stop style="stop-color:#fff" id="stop632" offset="0"/><stop style="stop-color:#fffefa" id="stop633" offset=".105"/><stop style="stop-color:#fffbec" id="stop634" offset=".228"/><stop style="stop-color:#fff7d4" id="stop635" offset=".362"/><stop style="stop-color:#fff1b2" id="stop636" offset=".502"/><stop style="stop-color:#ffe988" id="stop637" offset=".647"/><stop style="stop-color:#ffdf53" id="stop638" offset=".798"/><stop style="stop-color:#ffd316" id="stop639" offset=".949"/><stop style="stop-color:#ffcf00" id="stop640" offset="1"/></radialGradient><path id="path597_2_" fill="url(#path597_6_)" d="M12.2,7.8c0-3.8,5-6.9,11.1-6.9c6.1,0,11.4,2.9,11.4,6.7C34.7,11.4,12.2,11.6,12.2,7.8z" enable-background="new" opacity=".75"/><g id="g659"><radialGradient id="path630_1_" cx="-165.916" cy="427.08" r=".097" fx="-165.916" fy="427.08" gradientTransform="matrix(-47.8028 0 0 -62.518 -7899.9922 26716.9082)" gradientUnits="userSpaceOnUse"><stop style="stop-color:#dee2e7" id="stop661" offset="0"/><stop style="stop-color:#fff" id="stop662" offset="1"/></radialGradient><path id="path630" cx="50.247" cy="478.41" fill="url(#path630_1_)" stroke="#7C5202" d="M28.8,15.7c0-2.5,1.5-4.5,3.4-4.5s3.4,2,3.4,4.5c0,0,0,0,0,0c0,2.5-1.5,4.5-3.4,4.5C30.4,20.2,28.8,18.2,28.8,15.7 C28.8,15.7,28.8,15.7,28.8,15.7z" rx="24.525" ry="34.993" type="arc"/><radialGradient id="path637_1_" cx="-161.216" cy="427.35" r=".089" fx="-161.216" fy="427.35" gradientTransform="matrix(-19.9085 0 0 -19.9548 -3177.3074 8543.873)" gradientUnits="userSpaceOnUse"><stop style="stop-color:#000082" id="stop668" offset="0"/><stop style="stop-color:#000" id="stop669" offset="1"/></radialGradient><path id="path637" cx="61.649" cy="495.829" fill="url(#path637_1_)" d="M30.4,17c0-0.8,0.6-1.4,1.4-1.4s1.4,0.6,1.4,1.4c0,0,0,0,0,0c0,0.8-0.6,1.4-1.4,1.4C31,18.4,30.4,17.8,30.4,17 C30.4,17,30.4,17,30.4,17z" rx="10.469" ry="10.892" type="arc"/></g><g id="g674"><radialGradient id="path650_1_" cx="-170.523" cy="427.091" r=".096" fx="-170.523" fy="427.091" gradientTransform="matrix(47.8028 0 0 -62.518 8167.3906 26716.9082)" gradientUnits="userSpaceOnUse"><stop style="stop-color:#dee2e7" id="stop676" offset="0"/><stop style="stop-color:#fff" id="stop677" offset="1"/></radialGradient><path id="path650" cx="50.247" cy="478.41" fill="url(#path650_1_)" stroke="#7C3902" d="M18.2,15.1c0-2.5-1.5-4.5-3.4-4.5c-1.9,0-3.4,2-3.4,4.5c0,0,0,0,0,0c0,2.5,1.5,4.5,3.4,4.5C16.7,19.6,18.2,17.5,18.2,15.1 C18.2,15.1,18.2,15.1,18.2,15.1z" rx="24.525" ry="34.993" type="arc"/><radialGradient id="path656_1_" cx="-172.356" cy="427.383" r=".089" fx="-172.356" fy="427.383" gradientTransform="matrix(19.9085 0 0 -19.9548 3446.3933 8543.873)" gradientUnits="userSpaceOnUse"><stop style="stop-color:#000082" id="stop683" offset="0"/><stop style="stop-color:#000" id="stop684" offset="1"/></radialGradient><path id="path656" cx="61.649" cy="495.829" fill="url(#path656_1_)" d="M17,16.3c0-0.8-0.6-1.4-1.4-1.4s-1.4,0.6-1.4,1.4c0,0,0,0,0,0c0,0.8,0.6,1.4,1.4,1.4C16.3,17.7,17,17.1,17,16.3 C17,16.3,17,16.3,17,16.3z" rx="10.469" ry="10.892" type="arc"/></g><radialGradient id="path767_1_" cx="-171.423" cy="427.472" r=".058" fx="-171.423" fy="427.472" gradientTransform="matrix(106.5898 0 0 -113.3574 18305.7988 48483.6094)" gradientUnits="userSpaceOnUse"><stop style="stop-color:#b8002f" id="stop690" offset="0"/><stop style="stop-color:#ffa200" id="stop691" offset="1"/></radialGradient><circle id="path767" cx="33.8" cy="26.5" r="6.1" fill="url(#path767_1_)" opacity=".7" rx="53.295" ry="56.679" type="arc"/><rect id="rect662" width="48" height="48" y=".7" fill="none"/><radialGradient id="path767_3_" cx="-171.62" cy="427.478" r=".058" fx="-171.62" fy="427.478" gradientTransform="matrix(106.5898 0 0 -113.3574 18305.7988 48483.6094)" gradientUnits="userSpaceOnUse"><stop style="stop-color:#b8002f" id="stop698" offset="0"/><stop style="stop-color:#ffa200" id="stop699" offset="1"/></radialGradient><circle id="path767_2_" cx="12.8" cy="25.9" r="6.1" fill="url(#path767_3_)" opacity=".7" rx="53.295" ry="56.679" type="arc"/><g id="g704"><path id="path643" fill="none" stroke="#000" stroke-linecap="round" stroke-width="3" d="M16.1,29.6c2.9,6.3,12.5,6.1,15.8,0.2" nodetypes="cs" opacity=".2"/><path id="path639" fill="none" stroke="#795000" stroke-linecap="round" d="M16.1,29.6 c2.9,6.1,12.5,6,15.8,0.2" nodetypes="cs"/></g></g></g></svg>