<svg xmlns="http://www.w3.org/2000/svg" xmlns:xlink="http://www.w3.org/1999/xlink" id="svg602" width="48" height="48.8" enable-background="new 0 0 48 48.8" overflow="visible" viewBox="0 0 48 48.8" xml:space="preserve"><g id="Layer_1"><g id="g606"><radialGradient id="path808_1_" cx="-254.161" cy="421.96" r=".051" fx="-254.161" fy="421.96" gradientTransform="matrix(242.9707 0 0 -67.3081 61776.2031 28445.582)" gradientUnits="userSpaceOnUse"><stop style="stop-color:#261700" id="stop608" offset="0"/><stop style="stop-color:#fff" id="stop609" offset="1"/></radialGradient><path id="path808" fill="url(#path808_1_)" d="M33.3,40.5c5.5,1.7,6.9,3.3,0.6,5.7 c-6.2,2.4-15.7,3.1-21.2,1.4c-4.6-1.4-5.2-3.2-1.2-5.6c3.3,1.2,5.5,1.9,11.8,1.7C28.8,43.3,30.3,42.4,33.3,40.5z" nodetypes="cccccc"/><path id="path802_3_" fill="none" stroke="#000" stroke-width="3" d="M19.6,21.1c-0.2,0.9,0,0.8-0.3,1.6c-2.1,0.2-15.9,5.9-8.6,12.4c1.1,1.2,2.9-1.2,0.7-2.7c-2.2-1.7,5-4.3,4.5-3.5 c-1.7,3.5-4.2,9.3-4.1,13.1c6.5,2.4,16.1,2.7,21.8-1.6c0-3.6-1.4-10.3-2.9-13.8c1.5,0.2,5.7-0.5,6.8,3.9 c0.2,1.3,2.4,1.5,2.3-0.5c-0.5-7.7-10-8.5-11-8.6c-0.3-0.8-0.2-0.5-0.5-1.3" nodetypes="ccccscccsscc" opacity=".05"/><path id="path802" fill="none" stroke="#000" stroke-width="2" d="M19.6,21.1c-0.2,0.9,0,0.8-0.3,1.6c-2.1,0.2-15.9,5.9-8.6,12.4c1.1,1.2,2.9-1.2,0.7-2.7c-2.2-1.7,5-4.3,4.5-3.5 c-1.7,3.5-4.2,9.3-4.1,13.1c6.5,2.4,16.1,2.7,21.8-1.6c0-3.6-1.4-10.3-2.9-13.8c1.5,0.2,5.7-0.5,6.8,3.9 c0.2,1.3,2.4,1.5,2.3-0.5c-0.5-7.7-10-8.5-11-8.6c-0.3-0.8-0.2-0.5-0.5-1.3" nodetypes="ccccscccsscc" opacity=".05"/><path id="path802_2_" fill="none" stroke="#000" d="M19.6,21.1 c-0.2,0.9,0,0.8-0.3,1.6c-2.1,0.2-15.9,5.9-8.6,12.4c1.1,1.2,2.9-1.2,0.7-2.7c-2.2-1.7,5-4.3,4.5-3.5c-1.7,3.5-4.2,9.3-4.1,13.1 c6.5,2.4,16.1,2.7,21.8-1.6c0-3.6-1.4-10.3-2.9-13.8c1.5,0.2,5.7-0.5,6.8,3.9c0.2,1.3,2.4,1.5,2.3-0.5c-0.5-7.7-10-8.5-11-8.6 c-0.3-0.8-0.2-0.5-0.5-1.3" nodetypes="ccccscccsscc" opacity=".05"/><linearGradient id="path807_1_" x1="-254.223" x2="-254.133" y1="420.05" y2="420.022" gradientTransform="matrix(260.0265 0 0 -197.232 66112.2656 82875.7734)" gradientUnits="userSpaceOnUse"><stop style="stop-color:#ff3aaf" id="stop618" offset="0"/><stop style="stop-color:#e7bae7" id="stop619" offset="1"/></linearGradient><path id="path807" fill="url(#path807_1_)" d="M19.3,21.2c-0.2,0.9,0,0.8-0.3,1.6 c-2.1,0.2-15.9,5.9-8.6,12.4c1.1,1.2,2.9-1.2,0.7-2.7c-2.2-1.7,5-4.3,4.5-3.5c-1.7,3.5-4.2,9.3-4.1,13.1 c6.5,2.4,16.1,2.7,21.8-1.6c0-3.6-1.4-10.3-2.9-13.8c1.5,0.2,5.7-0.5,6.8,3.9c0.2,1.3,2.4,1.5,2.3-0.5c-0.5-7.7-10-8.5-11-8.6 c-0.3-0.8-0.2-0.5-0.5-1.3C25.8,21.5,21.6,22.5,19.3,21.2z" nodetypes="ccccscccssccc"/><linearGradient id="path641_1_" x1="-254.092" x2="-254.197" y1="420.052" y2="420.021" gradientTransform="matrix(260.0265 0 0 -197.232 66112.2656 82875.7734)" gradientUnits="userSpaceOnUse"><stop style="stop-color:#ff3aaf" id="stop625" offset="0"/><stop style="stop-color:#e7bae7" id="stop626" offset="1"/></linearGradient><path id="path641" fill="url(#path641_1_)" d="M19.3,21.2c-0.2,0.9,0,0.8-0.3,1.6 c-2.1,0.2-15.9,5.9-8.6,12.4c1.1,1.2,2.9-1.2,0.7-2.7c-2.2-1.7,5-4.3,4.5-3.5c-1.7,3.5-4.2,9.3-4.1,13.1 c6.5,2.4,16.1,2.7,21.8-1.6c0-3.6-1.4-10.3-2.9-13.8c1.5,0.2,5.7-0.5,6.8,3.9c0.2,1.3,2.4,1.5,2.3-0.5c-0.5-7.7-10-8.5-11-8.6 c-0.3-0.8-0.2-0.5-0.5-1.3C25.8,21.5,21.6,22.5,19.3,21.2z" nodetypes="ccccscccssccc"/><g id="path658" nodetypes="ccscc"><path id="path632" fill="none" stroke="#000" stroke-linejoin="round" stroke-width=".98" d="M24.3,6.6C17.6,8,18.8,23.6,12.7,23.5C9.6,8.1,14.2,2.6,20.6,1.2C25.7,0.1,34.1,5,32,14C28.2,13.5,32.7,4.2,24.3,6.6" opacity=".04"/></g><g id="path657" nodetypes="ccscc"><path id="path634" fill="none" stroke="#000" stroke-linejoin="round" stroke-width="1.19" d="M24.3,6.6C17.6,8,18.8,23.6,12.7,23.5C9.6,8.1,14.2,2.6,20.6,1.2C25.7,0.1,34.1,5,32,14C28.2,13.5,32.7,4.2,24.3,6.6" opacity=".04"/></g><g id="path656" nodetypes="ccscc"><path id="path636" fill="none" stroke="#000" stroke-linejoin="round" stroke-width="1.609" d="M24.3,6.6C17.6,8,18.8,23.6,12.7,23.5C9.6,8.1,14.2,2.6,20.6,1.2C25.7,0.1,34.1,5,32,14C28.2,13.5,32.7,4.2,24.3,6.6" opacity=".04"/></g><g id="path655" nodetypes="ccscc"><path id="path638" fill="none" stroke="#000" stroke-linejoin="round" stroke-width="2.104" d="M24.3,6.6C17.6,8,18.8,23.6,12.7,23.5C9.6,8.1,14.2,2.6,20.6,1.2C25.7,0.1,34.1,5,32,14C28.2,13.5,32.7,4.2,24.3,6.6" opacity=".04"/></g><linearGradient id="path636_1_" x1="-254.15" x2="-254.15" y1="419.125" y2="419.197" gradientTransform="matrix(161.2654 0 0 -170.8617 41008.082 71637.5391)" gradientUnits="userSpaceOnUse"><stop style="stop-color:#eb852f" id="stop640" offset="0"/><stop style="stop-color:#ff0" id="stop641" offset="1"/></linearGradient><path id="path645" fill="url(#path636_1_)" d="M12.5,11.6c0-5.6,4.3-10.1,9.7-10.1s10,4.2,10,9.8 s-4.6,10.4-10,10.4S12.5,17.2,12.5,11.6z" nodetypes="ccccc"/><linearGradient id="path653_1_" x1="-254.167" x2="-254.089" y1="419.316" y2="419.153" gradientTransform="matrix(172.2965 0 0 -186.6927 43809.1328 78286.875)" gradientUnits="userSpaceOnUse"><stop style="stop-color:#cca277" id="stop647" offset="0"/><stop style="stop-color:#e7e700" id="stop648" offset="1"/></linearGradient><path id="path653" fill="url(#path653_1_)" d="M24.3,6.6C17.6,8,18.8,23.6,12.7,23.5 C9.6,8.1,14.2,2.6,20.6,1.2C25.7,0.1,34.1,5,32,14C28.2,13.5,32.7,4.2,24.3,6.6" nodetypes="ccscc"/><radialGradient id="path587_1_" cx="-254.221" cy="417.017" r=".149" fx="-254.221" fy="417.017" gradientTransform="matrix(91.7059 0 0 -52.0368 23335.9824 21701.8105)" gradientUnits="userSpaceOnUse"><stop style="stop-color:#fff" id="stop654" offset="0"/><stop style="stop-color:#f5ffff" id="stop655" offset="1"/></radialGradient><path id="path587" fill="url(#path587_1_)" d="M22.1,7.3c-4.8-0.1-5.8-2.3-5.3-3.4 c0.5-1.2,2.1-2.8,5.2-2.9c3-0.1,4.9,1.3,5.6,2.7C28,4.7,26.8,7.2,22.1,7.3z" nodetypes="ccccc" opacity=".46"/><path id="path652" fill="none" stroke="red" stroke-dasharray="2.175 4.35" stroke-dashoffset="1.957" stroke-linecap="round" stroke-width="2.175" d="M23.3,24.6c1.2,8.2-3.1,12-1.3,16.8" nodetypes="cc"/></g><rect id="rect661" width="48" height="48" y=".8" fill="none" opacity=".1"/></g></svg>