<svg xmlns="http://www.w3.org/2000/svg" xmlns:xlink="http://www.w3.org/1999/xlink" id="svg602" width="48" height="48" enable-background="new 0 0 48 48" overflow="visible" viewBox="0 0 48 48" xml:space="preserve"><g id="Layer_1"><g id="g606"><g id="path830"><linearGradient id="path615_1_" x1="-332.506" x2="-332.422" y1="-15.695" y2="-15.695" gradientTransform="matrix(142.3644 0 0 74.4379 47348.8086 1200.2842)" gradientUnits="userSpaceOnUse"><stop style="stop-color:#ebba2f" id="stop609" offset="0"/><stop style="stop-color:#ff0" id="stop610" offset="1"/></linearGradient><path id="path615" fill="url(#path615_1_)" d="M28.4,35.1c1.6,0.2,4.8-1.1,7.1-2c1.5-0.6,3.9-1.6,4.1-2.4c0.2-0.7-1.8-2-3-1.9c-2.6,0.3-6.5,1.9-8.4,3.4 C27.3,32.9,27.5,35,28.4,35.1z" enable-background="new" opacity=".043"/></g><g id="path829"><path id="path617" d="M18.9,37 c3.4,1.6,11.1-0.4,16.3-1.6c3.5-0.8,9.2-2.5,10-4.7c0.7-1.9-3-7.5-5.7-7.8c-5.8-0.6-15,1.8-19.8,5.1 C17.7,29.4,17.1,36.2,18.9,37z" enable-background="new" opacity=".043"/></g><g id="path828"><path id="path619" d="M21.3,35.7 c2.9,1.3,9.5-0.3,13.9-1.3c3-0.7,7.9-2,8.6-3.8c0.6-1.5-2.6-6-4.9-6.2c-5-0.5-12.8,1.4-17,4.1C20.3,29.6,19.8,35,21.3,35.7z" enable-background="new" opacity=".043"/></g><g id="path826"><path id="path621" d="M19.7,37.8 c3.6,1.6,11.8-0.4,17.4-1.7c3.8-0.9,9.9-2.5,10.7-4.8c0.7-2-3.2-7.7-6.1-8c-6.2-0.6-16,1.9-21.2,5.3C18.4,30,17.8,37,19.7,37.8 z" enable-background="new" opacity=".043"/></g><path id="path821" fill="none" stroke="#000" stroke-linejoin="round" stroke-width="2.026" d="M25.7,14.7c0.6-0.8,0.7-1.3,1.4-1.8c0.8-0.7,2.2-0.8,3.3-0.5c0.5,0.2,0.5,0.7,0.7,2.1c0.2,1,0.7,4.1,0.7,5.4 c0.1,2.1-0.2,3.1-0.7,4.5c-0.2,0.7-0.7,1.4-1.4,1.7c-0.6,0.3-1.5,0.2-2.2,0.1c-0.2,0-2-0.5-2-0.5c0-0.3,0-0.6-0.1-0.9 c0-3.1-0.1-6.3-0.1-9.4C25.5,15.1,25.5,14.8,25.7,14.7z" enable-background="new" opacity=".3"/><path id="path817" fill="none" stroke="#000" stroke-width="1.68" d="M25.4,35.9c0.9-0.4,0.7-2.8-0.2-3.4c0.3-0.5,0.4-2.4,0.4-2.7c4,0.1,7.2-2,7.2-2c1.1-0.5,1.6-2.3,1.6-7.1 c0.1-3.6-0.2-9.2-2.4-10.9c-1.1-0.5-5.6-0.5-6.6,1.1c-0.3,0-0.2-0.8-0.1-1.2c0.3-1.6,0.7-2.7-0.2-5c-0.1-0.4-0.9-0.3-1.4-0.3 c-1.2,0.1-2.6,0.2-3.9,0.1c-3.4-0.2-6-1.2-9.4-1.2C9.3,3.2,7.2,4,6.1,4.5C4.8,5.2,3.5,6.1,2.5,7.2C2,7.6,1.7,8.3,1.7,9 c0,0.9,0.4,2.2,0.9,2.8c0.5,0.5,1.4,0.9,2.2,0.7c0.6,6.2-0.6,19.4-0.1,20.1c-1,0.4-0.9,2.8-0.1,3.3c2.4,1.5,6.6,2.4,9.9,2.4 C18.2,38.3,21.9,37.2,25.4,35.9z" enable-background="new" opacity=".4"/><radialGradient id="path700_1_" cx="-332.155" cy="-1.05" r=".036" fx="-332.154" fy="-1.056" gradientTransform="matrix(366.4239 0 0 133.5708 121723.8281 178.9695)" gradientUnits="userSpaceOnUse"><stop style="stop-color:#261700" id="stop624" offset="0"/><stop style="stop-color:#fff" id="stop625" offset="1"/></radialGradient><path id="path700" fill="url(#path700_1_)" d="M28.9,34.1c4.6,3.2,0.4,6.5-5.3,9.1C18,45.9,9.4,44.9,4.8,41.6c-3.9-2.7-6.8-5.3-3.1-8.1c2.4,3.4,7.7,4.6,12.9,4.6 C19.5,37.6,26.2,36.9,28.9,34.1z" enable-background="new" opacity=".25"/><g id="path645" opacity=".4"><radialGradient id="path638_1_" cx="-332.195" cy="-3.662" r=".105" fx="-332.195" fy="-3.662" gradientTransform="matrix(109.0142 0 0 235.5801 36226.8242 972.8152)" gradientUnits="userSpaceOnUse"><stop style="stop-color:#dee2e7" id="stop632" offset="0"/><stop style="stop-color:#fff" id="stop633" offset="1"/></radialGradient><path id="path638" fill="url(#path638_1_)" d="M25.5,25.8c-0.6,1.5-0.4,2.6,0,3.7c0.1,0.4,5.1-0.2,7.3-2c2.5-2,1-12.8-0.2-16.3 c-0.2-0.5-0.6-1.2-1-1.3c-1.9-0.3-5.1-0.1-6.1,1.1c-0.7,0.9-0.5,2.6-0.1,3.6c0.1,0.4,1-1.8,1.8-2.1c1.2-0.5,3.2-1.1,3.6,0.1 c1,3.1,1.8,9,0.3,12.2c-1.1,2.4-3.1,1.6-4,1.5C26.8,26.3,25.7,25.5,25.5,25.8z"/><path id="path639" fill="none" stroke="#000" stroke-width=".468" d="M25.5,25.8c-0.6,1.5-0.4,2.6,0,3.7c0.1,0.4,5.1-0.2,7.3-2c2.5-2,1-12.8-0.2-16.3c-0.2-0.5-0.6-1.2-1-1.3 c-1.9-0.3-5.1-0.1-6.1,1.1c-0.7,0.9-0.5,2.6-0.1,3.6c0.1,0.4,1-1.8,1.8-2.1c1.2-0.5,3.2-1.1,3.6,0.1c1,3.1,1.8,9,0.3,12.2 c-1.1,2.4-3.1,1.6-4,1.5C26.8,26.3,25.7,25.5,25.5,25.8z" enable-background="new" opacity=".161"/></g><linearGradient id="path646_1_" x1="-332.193" x2="-332.149" y1=".434" y2=".433" gradientTransform="matrix(249.847 0 0 292.1136 83008.1875 -104.5149)" gradientUnits="userSpaceOnUse"><stop style="stop-color:#ff6f00" id="stop640" offset="0"/><stop style="stop-color:#ff0" id="stop641" offset="1"/></linearGradient><path id="path646" fill="url(#path646_1_)" d="M25.2,32.6C19,35,10.7,34.7,4.9,32.5c-1-0.2,0.6-6.5-0.1-20 c0.8-0.1,1.8-0.8,2.7-1.4c5.3,0,10.6,0,15.9-0.4c0.6-0.1,1.5-0.5,2-1C25.4,19.6,25.9,31.9,25.2,32.6z"/><radialGradient id="path647_1_" cx="-332.116" cy="1.768" r=".049" fx="-332.116" fy="1.768" gradientTransform="matrix(285.2248 0 0 108.9027 94740.1016 -180.8603)" gradientUnits="userSpaceOnUse"><stop style="stop-color:#ab9780" id="stop647" offset="0"/><stop style="stop-color:#e3dcdc" id="stop648" offset="1"/></radialGradient><path id="path647" fill="url(#path647_1_)" d="M25.4,9.7c0.4-1.5,0.4-3.9-0.2-5c-0.5-0.8-2.3-0.1-3.9-0.2 c-6-0.2-9.8-2.5-14.6-0.1c-0.5,0.2-5,2.2-4.9,4.7c0.1,2.6,1.4,3.1,2.7,3.4c1.2,0.3,2.6-1.4,3.4-1.4c3.8,0.3,10,0.3,15.1-0.3 C23.6,10.7,25.3,10.2,25.4,9.7z"/><radialGradient id="path587_1_" cx="-331.938" cy="2.67" r=".058" fx="-331.938" fy="2.67" gradientTransform="matrix(154.4034 0 0 69.429 51262.5664 -179.5048)" gradientUnits="userSpaceOnUse"><stop style="stop-color:#fff" id="stop654" offset="0"/><stop style="stop-color:#f5ffff" id="stop655" offset="1"/></radialGradient><path id="path587" fill="url(#path587_1_)" d="M10.9,9.3c-5.6,0.1-7-1.8-6.6-2.9c0.6-1.1,2.7-2.8,6.4-3c3.5-0.2,5.6,1.1,6.4,2.4C17.6,6.8,16.4,9,10.9,9.3z" enable-background="new" opacity=".6"/><g id="path788"><path id="path662" fill="#FFF" d="M5.5,13.7C6.1,14.2,7,14,7.7,13.6c-0.3,3.2-0.3,6.6-0.4,9.6C6.7,23.8,6,23,5.5,21.9C5.6,19.7,5.6,16.5,5.5,13.7z" enable-background="new" opacity=".919"/></g><linearGradient id="path790_1_" x1="-343.411" x2="-343.327" y1="-1.142" y2="-1.142" gradientTransform="matrix(12.5588 0 0 49.4991 4337.9624 84.1313)" gradientUnits="userSpaceOnUse"><stop style="stop-color:#000" id="stop663" offset="0"/><stop style="stop-color:#070000" id="stop664" offset="1"/></linearGradient><path id="path790" fill="url(#path790_1_)" d="M25.7,25.7c-0.5,0.4-0.5,1.2-0.6,2c0,0-0.1,0.7,0.4,1.8c0.5,0.9,0.3-1.1,0.3-1.5 C26,27.3,26.6,25,25.7,25.7z"/><linearGradient id="path791_1_" x1="-341.822" x2="-341.738" y1="2.241" y2="2.241" gradientTransform="matrix(14.4714 0 0 48.1289 4971.5806 -95.2938)" gradientUnits="userSpaceOnUse"><stop style="stop-color:#000" id="stop670" offset="0"/><stop style="stop-color:#070000" id="stop671" offset="1"/></linearGradient><path id="path791" fill="url(#path791_1_)" d="M25.8,10.6c-0.5,0.4-0.9,1.3-0.9,2.1c0,0-0.1,0.6,0.4,1.7 c0.4,0.8,0.1-0.9,0.1-1.3C25.5,12.4,26.7,10,25.8,10.6z" opacity=".5"/><linearGradient id="path792_1_" x1="-337.976" x2="-338.002" y1="3.367" y2="3.471" gradientTransform="matrix(31.7537 0 0 28.3231 10762.4102 -84.3447)" gradientUnits="userSpaceOnUse"><stop style="stop-color:#000" id="stop677" offset="0"/><stop style="stop-color:#070000" id="stop678" offset="1"/></linearGradient><path id="path792" fill="url(#path792_1_)" d="M31.2,13.5c0-0.7-0.6-1.2-0.9-1.3c-0.5-0.3-0.3-0.1-1.5-0.3 c-1-0.1,1.6-0.7,2-0.5C31.3,11.9,31.2,14.7,31.2,13.5z" opacity=".5"/><linearGradient id="path800_1_" x1="-334.127" x2="-334.134" y1="2.512" y2="2.259" gradientTransform="matrix(83.655 0 0 42.6338 27980.0391 -90.7723)" gradientUnits="userSpaceOnUse"><stop style="stop-color:#261700" id="stop684" offset="0"/><stop style="stop-color:#5a4f1f" id="stop685" offset="1"/></linearGradient><path id="path800" fill="url(#path800_1_)" d="M25.1,12.4c1.5-0.9,4.9-1.9,6.4-1.4c0.8,0.3,0.5,3.2,0.2,3.1 c-1-0.2-0.4-1.6-1.1-1.9c-0.9-0.4-2.4-0.1-3.4,0.3c-0.7,0.3-1.2,2-1.6,2C25.3,14.5,24.6,12.7,25.1,12.4z" opacity=".5"/><linearGradient id="path802_1_" x1="-333.859" x2="-333.887" y1="-1.152" y2="-1.202" gradientTransform="matrix(102.452 0 0 48.9568 34235.625 85.0459)" gradientUnits="userSpaceOnUse"><stop style="stop-color:#261700" id="stop691" offset="0"/><stop style="stop-color:#5a4f1f" id="stop692" offset="1"/></linearGradient><path id="path802" fill="url(#path802_1_)" d="M33.1,27.3c-1.3,1.1-5.4,2.6-6.9,2.4c-0.8-0.1-1.1-2.1-0.8-2.1 c1,0,0.9,0.2,1.6,0.4c0.9,0.2,2.2,0.1,3.1-0.5c0.6-0.4,3.3-1.9,3.7-1.9C34.1,25.6,33.5,27,33.1,27.3z" opacity=".5"/><g id="path818"><path id="path699" fill="none" stroke="#000" stroke-width=".945" d="M25.4,35.9c0.9-0.4,0.7-2.8-0.2-3.4c0.3-0.5,0.4-2.4,0.4-2.7c4,0.1,7.2-2,7.2-2c1.1-0.5,1.6-2.3,1.6-7.1 c0.1-3.6-0.2-9.2-2.4-10.9c-1.1-0.5-5.6-0.5-6.6,1.1c-0.3,0-0.2-0.8-0.1-1.2c0.3-1.6,0.7-2.7-0.2-5c-0.1-0.4-0.9-0.3-1.4-0.3 c-1.2,0.1-2.6,0.2-3.9,0.1c-3.4-0.2-6-1.2-9.4-1.2C9.3,3.2,7.2,4,6.1,4.5C4.8,5.2,3.5,6.1,2.5,7.2C2,7.6,1.7,8.3,1.7,9 c0,0.9,0.4,2.2,0.9,2.8c0.5,0.5,1.4,0.9,2.2,0.7c0.6,6.2-0.6,19.4-0.1,20.1c-1,0.4-0.9,2.8-0.1,3.3c2.4,1.5,6.6,2.4,9.9,2.4 C18.2,38.3,21.9,37.2,25.4,35.9z" enable-background="new" opacity=".03"/></g><linearGradient id="path644_1_" x1="-332.212" x2="-332.195" y1="-1.972" y2="-1.97" gradientTransform="matrix(261.2641 0 0 65.878 86798.7109 165.1383)" gradientUnits="userSpaceOnUse"><stop style="stop-color:#000" id="stop700" offset="0"/><stop style="stop-color:#070000" id="stop701" offset="1"/></linearGradient><path id="path644" fill="url(#path644_1_)" d="M4.7,36.2C9.1,39,19,39,25.3,36.2c0.7-0.5,1.1-3.1,0-3.4C19,35.1,10.4,35,4.8,32.6C3.7,32.7,3.9,35.8,4.7,36.2z" enable-background="new" opacity=".4"/><linearGradient id="path759_1_" x1="-332.117" x2="-332.149" y1="-1.96" y2="-1.97" gradientTransform="matrix(261.2641 0 0 65.8783 86799.4609 165.1183)" gradientUnits="userSpaceOnUse"><stop style="stop-color:#000" id="stop707" offset="0"/><stop style="stop-color:#070000" id="stop708" offset="1"/></linearGradient><path id="path759" fill="url(#path759_1_)" d="M4.8,36.1c5.2,2.3,14.1,2.6,20.6-0.1c0.7-0.5,1.1-3.1,0-3.4c-6.3,2.3-14.9,2.2-20.5-0.2C3.8,32.5,3.9,35.6,4.8,36.1z" enable-background="new" opacity=".15"/><radialGradient id="path752_1_" cx="-332.168" cy="-3.985" r=".083" fx="-332.168" fy="-3.985" gradientTransform="matrix(156.1983 0 0 37.629 51892.4883 184.9105)" gradientUnits="userSpaceOnUse"><stop style="stop-color:#eb852f" id="stop714" offset="0"/><stop style="stop-color:#ff0" id="stop715" offset="1"/></radialGradient><path id="path752" fill="url(#path752_1_)" d="M7.4,35.8c3,1.4,8.3,1.9,12.3,0.7c0.4-0.2,0.8-1.6,0.1-1.8c-3.9,1-9,0.8-12.2-0.7C6.9,34.1,6.9,35.6,7.4,35.8z" enable-background="new" opacity=".9"/><linearGradient id="path772_1_" x1="-331.533" x2="-331.379" y1=".493" y2=".495" gradientTransform="matrix(42.0685 0 0 408.573 13956.7461 -181.0118)" gradientUnits="userSpaceOnUse"><stop style="stop-color:#fff" id="stop721" offset="0"/><stop style="stop-color:#f5ffff" id="stop722" offset="1"/></linearGradient><path id="path772" fill="url(#path772_1_)" d="M10.6,10.8c0.8,7.4-0.2,15.4-0.2,22.9c0,0.3-0.6,0.5-0.6,0.8c-0.2,1-0.4,2.4,0.1,3.1c0.6,0,1.8,0,2.1,0c0.4-0.7-0.2-2.1-0.1-3.3 c0-0.3-0.1-0.5-0.1-0.8c-0.1-7.6,0.7-15.2,0.4-22.9c-0.5-2.3-1.2-5.1,0.1-7.3c-0.9-0.1-0.9,0.1-1.8-0.1 C8.2,5.8,8.1,8.3,10.6,10.8z" enable-background="new" opacity=".6"/><rect id="rect728" width="48" height="48" x="0" fill="none"/></g></g></svg>