<svg xmlns="http://www.w3.org/2000/svg" xmlns:xlink="http://www.w3.org/1999/xlink" id="svg602" width="48" height="48.7" enable-background="new 0 0 48 48.7" overflow="visible" viewBox="0 0 48 48.7" xml:space="preserve"><g id="Layer_1"><g id="g606"><path id="path597_5_" fill="none" stroke="#474000" stroke-width="1.882" d="M5.6,20.2c0-10.7,8-19.3,17.8-19.3c9.8,0,18.4,8.1,18.4,18.7c0,10.7-8.6,19.9-18.4,19.9C13.6,39.5,5.6,30.9,5.6,20.2z" enable-background="new" opacity=".15"/><path id="path597_4_" fill="none" stroke="#474000" stroke-width=".941" d="M5.6,20.2c0-10.7,8-19.3,17.8-19.3c9.8,0,18.4,8.1,18.4,18.7c0,10.7-8.6,19.9-18.4,19.9C13.6,39.5,5.6,30.9,5.6,20.2z" enable-background="new" opacity=".2"/><path id="path597_3_" fill="none" stroke="#474000" stroke-width=".47" d="M5.6,20.2c0-10.7,8-19.3,17.8-19.3c9.8,0,18.4,8.1,18.4,18.7c0,10.7-8.6,19.9-18.4,19.9C13.6,39.5,5.6,30.9,5.6,20.2z" enable-background="new" opacity=".3"/><radialGradient id="path700_1_" cx="-679.571" cy="-.74" r=".064" fx="-679.571" fy="-.74" gradientTransform="matrix(310.7065 0 0 144.1183 211172.2188 149.3426)" gradientUnits="userSpaceOnUse"><stop style="stop-color:#261700" id="stop611" offset="0"/><stop style="stop-color:#d2d2d2" id="stop612" offset="1"/></radialGradient><path id="path700" fill="url(#path700_1_)" d="M37.9,31.8c6.5,4.5,6,10.6-1.9,14.3c-7.9,3.7-19.5,3.1-25.9-1.5c-5.5-3.8-5.7-9.1-0.5-13.1c3.4,4.7,6.2,6.3,14,7.3 C30.1,38.7,34.3,35.8,37.9,31.8z" enable-background="new" opacity=".3"/><radialGradient id="path577_1_" cx="-638.496" cy="42.772" r="41.557" fx="-638.496" fy="42.772" gradientTransform="matrix(298.9032 0 0 316.3969 203151.1563 -98.4275)" gradientUnits="userSpaceOnUse"><stop style="stop-color:#ff6f00" id="stop618" offset="0"/><stop style="stop-color:#ff0" id="stop619" offset="1"/></radialGradient><circle id="path577" cx="23.9" cy="20.4" r="17.8" fill="url(#path577_1_)"/><linearGradient id="path597_1_" x1="-679.565" x2="-679.567" y1=".318" y2=".437" gradientTransform="matrix(303.6933 0 0 316.3967 206403.3125 -98.1642)" gradientUnits="userSpaceOnUse"><stop style="stop-color:#ff6500" id="stop625" offset="0"/><stop style="stop-color:#ff0" id="stop626" offset="1"/></linearGradient><path id="path597" fill="url(#path597_1_)" d="M5.6,20.2c0-10.7,8-19.3,17.8-19.3c9.9,0,18.4,8,18.4,18.7c0,10.7-8.6,19.9-18.4,19.9C13.6,39.5,5.6,30.9,5.6,20.2z" enable-background="new" opacity=".75"/><radialGradient id="path597_6_" cx="-486.406" cy="426.746" r="20.235" fx="-486.406" fy="426.746" gradientTransform="matrix(1 0 0 -1 509.7773 427.6934)" gradientUnits="userSpaceOnUse"><stop style="stop-color:#fff" id="stop632" offset="0"/><stop style="stop-color:#fffefa" id="stop633" offset=".105"/><stop style="stop-color:#fffbec" id="stop634" offset=".228"/><stop style="stop-color:#fff7d4" id="stop635" offset=".362"/><stop style="stop-color:#fff1b2" id="stop636" offset=".502"/><stop style="stop-color:#ffe988" id="stop637" offset=".647"/><stop style="stop-color:#ffdf53" id="stop638" offset=".798"/><stop style="stop-color:#ffd316" id="stop639" offset=".949"/><stop style="stop-color:#ffcf00" id="stop640" offset="1"/></radialGradient><path id="path597_2_" fill="url(#path597_6_)" d="M12.2,7.8c0-3.8,5-6.9,11.1-6.9c6.1,0,11.4,2.9,11.4,6.7C34.7,11.4,12.2,11.6,12.2,7.8z" enable-background="new" opacity=".75"/><rect id="rect662" width="48" height="48" y=".7" fill="none"/><g id="g660"><radialGradient id="path630_1_" cx="-166.832" cy="426.934" r=".116" fx="-166.832" fy="426.934" gradientTransform="matrix(-47.451 -5.7882 8.871 -72.7235 -11671.3232 30102.8555)" gradientUnits="userSpaceOnUse"><stop style="stop-color:#dee2e7" id="stop662" offset="0"/><stop style="stop-color:#fff" id="stop663" offset="1"/></radialGradient><path id="path630" cx="50.247" cy="478.41" fill="url(#path630_1_)" stroke="#7C5202" stroke-width=".712" d="M29.6,18.6c0.4-3.5,2.6-6,4.9-5.8c2.3,0.3,3.8,3.3,3.3,6.8c0,0,0,0,0,0c-0.4,3.5-2.6,6-4.9,5.8C30.7,25.1,29.2,22,29.6,18.6 C29.6,18.6,29.6,18.6,29.6,18.6z" rx="24.525" ry="34.993" type="arc"/><g id="path631" cx="50.097" cy="476.765" rx="28.862" ry="41.424" type="arc"><path id="path669" fill="none" stroke="#000" stroke-width=".647" d="M29,18.4 c0.5-3.8,3-6.7,5.6-6.3c2.6,0.3,4.4,3.7,3.9,7.5c0,0,0,0,0,0c-0.5,3.8-3,6.7-5.6,6.3C30.3,25.6,28.5,22.3,29,18.4 C29,18.4,29,18.4,29,18.4z" opacity=".038"/></g><g id="path632" cx="50.097" cy="476.765" rx="28.862" ry="41.424" type="arc"><path id="path671" fill="none" stroke="#000" stroke-width="2.249" d="M29,18.5 c0.5-3.8,3-6.6,5.6-6.3c2.6,0.3,4.4,3.7,3.9,7.5c0,0,0,0,0,0c-0.5,3.8-3,6.6-5.6,6.3C30.3,25.6,28.5,22.3,29,18.5 C29,18.5,29,18.5,29,18.5z" opacity=".014"/></g><g id="path633" cx="50.097" cy="476.765" rx="28.862" ry="41.424" type="arc"><path id="path673" fill="none" stroke="#000" stroke-width="1.421" d="M29,18.5 c0.5-3.8,3-6.6,5.6-6.3c2.6,0.3,4.4,3.7,3.9,7.5c0,0,0,0,0,0c-0.5,3.8-3,6.6-5.6,6.3C30.3,25.6,28.5,22.3,29,18.5 C29,18.5,29,18.5,29,18.5z" opacity=".014"/></g><g id="path634" cx="50.097" cy="476.765" rx="28.862" ry="41.424" type="arc"><path id="path675" fill="none" stroke="#000" stroke-width=".49" d="M29,18.5 c0.5-3.8,3-6.6,5.6-6.3c2.6,0.3,4.4,3.7,3.9,7.5c0,0,0,0,0,0c-0.5,3.8-3,6.6-5.6,6.3C30.3,25.6,28.5,22.3,29,18.5 C29,18.5,29,18.5,29,18.5z" opacity=".014"/></g><g id="path635" cx="50.097" cy="476.765" rx="28.862" ry="41.424" type="arc"><path id="path677" fill="none" stroke="#000" stroke-width=".246" d="M29.2,18.5 c0.5-3.7,2.9-6.5,5.4-6.2c2.5,0.3,4.2,3.6,3.7,7.3c0,0,0,0,0,0c-0.5,3.7-2.9,6.5-5.4,6.2C30.4,25.5,28.7,22.2,29.2,18.5 C29.2,18.5,29.2,18.5,29.2,18.5z" opacity=".152"/></g><radialGradient id="path637_1_" cx="-163.464" cy="426.399" r=".107" fx="-163.464" fy="426.399" gradientTransform="matrix(-19.7621 -2.4106 2.8315 -23.2123 -4403.8906 9521.4111)" gradientUnits="userSpaceOnUse"><stop style="stop-color:#000082" id="stop679" offset="0"/><stop style="stop-color:#000" id="stop680" offset="1"/></radialGradient><path id="path637" cx="61.649" cy="495.829" fill="url(#path637_1_)" d="M31.3,18.5c0.1-1.1,1-1.9,1.9-1.8c0.9,0.1,1.6,1.1,1.5,2.2c0,0,0,0,0,0c-0.1,1.1-1,1.9-1.9,1.8C31.9,20.6,31.2,19.6,31.3,18.5 L31.3,18.5z" rx="10.469" ry="10.892" type="arc"/><radialGradient id="path650_1_" cx="-169.888" cy="426.827" r=".115" fx="-169.888" fy="426.827" gradientTransform="matrix(38.305 5.0995 7.1611 -64.0713 3464.1833 28230.5605)" gradientUnits="userSpaceOnUse"><stop style="stop-color:#dee2e7" id="stop686" offset="0"/><stop style="stop-color:#fff" id="stop687" offset="1"/></radialGradient><path id="path650" cx="50.247" cy="478.41" fill="url(#path650_1_)" stroke="#7C3902" stroke-width=".712" d="M15.6,15.9c0.3-3.1-0.9-5.7-2.7-6c-1.8-0.2-3.6,2-3.9,5.1c0,0,0,0,0,0c-0.3,3.1,0.9,5.7,2.7,6C13.5,21.3,15.2,19,15.6,15.9 C15.6,16,15.6,15.9,15.6,15.9z" rx="24.525" ry="34.993" type="arc"/><g id="path651" cx="50.097" cy="476.765" rx="28.862" ry="41.424" type="arc"><path id="path693" fill="none" stroke="#000" stroke-width=".647" d="M16.1,16 c0.4-3.4-1-6.3-3.1-6.6c-2.1-0.3-4.1,2.2-4.5,5.6c0,0,0,0,0,0c-0.4,3.4,1,6.3,3.1,6.6C13.7,21.8,15.7,19.3,16.1,16 C16.1,16,16.1,16,16.1,16z" opacity=".038"/></g><g id="path652" cx="50.097" cy="476.765" rx="28.862" ry="41.424" type="arc"><path id="path695" fill="none" stroke="#000" stroke-width="2.249" d="M16.1,16 c0.4-3.4-1-6.3-3.1-6.6c-2.1-0.3-4.1,2.2-4.5,5.6c0,0,0,0,0,0c-0.4,3.4,1,6.3,3.1,6.6C13.7,21.8,15.7,19.3,16.1,16 C16.1,16,16.1,16,16.1,16z" opacity=".014"/></g><g id="path653" cx="50.097" cy="476.765" rx="28.862" ry="41.424" type="arc"><path id="path697" fill="none" stroke="#000" stroke-width="1.421" d="M16.1,16 c0.4-3.4-1-6.3-3.1-6.6c-2.1-0.3-4.1,2.2-4.5,5.6c0,0,0,0,0,0c-0.4,3.4,1,6.3,3.1,6.6C13.7,21.8,15.7,19.3,16.1,16 C16.1,16,16.1,16,16.1,16z" opacity=".014"/></g><g id="path654" cx="50.097" cy="476.765" rx="28.862" ry="41.424" type="arc"><path id="path699" fill="none" stroke="#000" stroke-width=".49" d="M16.1,16 c0.4-3.4-1-6.3-3.1-6.6c-2.1-0.3-4.1,2.2-4.5,5.6c0,0,0,0,0,0c-0.4,3.4,1,6.3,3.1,6.6C13.7,21.8,15.7,19.3,16.1,16 C16.1,16,16.1,16,16.1,16z" opacity=".014"/></g><g id="path655" cx="50.097" cy="476.765" rx="28.862" ry="41.424" type="arc"><path id="path701" fill="none" stroke="#000" stroke-width=".246" d="M15.9,16c0.4-3.3-1-6.2-3-6.5 c-2-0.3-4,2.2-4.4,5.5c0,0,0,0,0,0c-0.4,3.3,1,6.2,3,6.5C13.6,21.7,15.6,19.3,15.9,16C15.9,16,15.9,16,15.9,16z" opacity=".152"/></g><radialGradient id="path656_1_" cx="-170.802" cy="426.063" r=".107" fx="-170.802" fy="426.063" gradientTransform="matrix(15.953 2.1238 2.2857 -20.4506 1763.4426 9090.3271)" gradientUnits="userSpaceOnUse"><stop style="stop-color:#000082" id="stop703" offset="0"/><stop style="stop-color:#000" id="stop704" offset="1"/></radialGradient><path id="path656" cx="61.649" cy="495.829" fill="url(#path656_1_)" d="M14.3,15.5c0.1-1-0.4-1.8-1.2-1.9c-0.8-0.1-1.5,0.6-1.6,1.6v0c-0.1,1,0.4,1.8,1.2,1.9C13.4,17.2,14.1,16.5,14.3,15.5 C14.3,15.5,14.3,15.5,14.3,15.5z" rx="10.469" ry="10.892" type="arc"/></g><g id="g709"><g id="g710" nodetypes="ccccccccccccccccc"><path id="path711" fill="none" stroke="#000" stroke-width="1.073" d="M3.4,37.5 c-0.2,5,3.6,7.9,6.7,8.7c5.2,1.4,8.2-0.6,10.6-3.5c1.7-0.7,2.9-1.7,3.7-3.3c0.6-1.2,1-2.5,0.5-3.6c-0.5-1.2-1.9-1.5-3.3-1.1 c0.8-2.9,0.9-5.5,0.8-8.3c-0.1-1.7-0.8-3.8-1.9-4.1c-1.2-0.2-2.2,1-2.6,2.3c-0.7,1.5-1,2.8-1.4,4.8c-0.8-0.3-1.3-0.4-2-0.1 c-0.5,0.2-1,0.7-1.2,1.3c-0.5-0.8-1-1.6-1.9-1.9c-1.1-0.2-2.4,0.6-3.1,2.1c-0.4-0.8-0.9-1.2-1.8-1.6c-0.9-0.2-2.2,0.6-2.8,1.6 C2.7,32,2,35.4,3.4,37.5z" opacity=".081"/></g><g id="g712" nodetypes="ccccccccccccccccc"><path id="path713" fill="none" stroke="#000" stroke-width="1.657" d="M3.5,37.6 c-0.2,5,3.6,7.9,6.7,8.7c5.2,1.4,8.2-0.6,10.6-3.5c1.7-0.7,2.9-1.7,3.7-3.3c0.6-1.2,1-2.5,0.5-3.6c-0.5-1.2-1.9-1.5-3.3-1.1 c0.8-2.9,0.9-5.5,0.8-8.3c-0.1-1.7-0.8-3.8-1.9-4.1c-1.2-0.2-2.2,1-2.6,2.3c-0.7,1.5-1,2.8-1.4,4.8c-0.8-0.3-1.3-0.4-2-0.1 c-0.5,0.2-1,0.7-1.2,1.3c-0.5-0.8-1-1.6-1.9-1.9c-1.1-0.2-2.4,0.6-3.1,2.1c-0.4-0.8-0.9-1.2-1.8-1.6c-0.9-0.2-2.2,0.6-2.8,1.6 C2.8,32.1,2.1,35.5,3.5,37.6z" opacity=".081"/></g><path id="path672" fill="#FFF" d="M3.4,37.5c-0.2,5,3.6,7.9,6.7,8.7 c5.2,1.4,8.2-0.6,10.6-3.5c1.7-0.7,2.9-1.7,3.7-3.3c0.6-1.2,1-2.5,0.5-3.6c-0.5-1.2-1.9-1.5-3.3-1.1c0.8-2.9,0.9-5.5,0.8-8.3 c-0.1-1.7-0.8-3.8-1.9-4.1c-1.2-0.2-2.2,1-2.6,2.3c-0.7,1.5-1,2.8-1.4,4.8c-0.8-0.3-1.3-0.4-2-0.1c-0.5,0.2-1,0.7-1.2,1.3 c-0.5-0.8-1-1.6-1.9-1.9c-1.1-0.2-2.4,0.6-3.1,2.1c-0.4-0.8-0.9-1.2-1.8-1.6c-0.9-0.2-2.2,0.6-2.8,1.6C2.7,32,2,35.4,3.4,37.5z" nodetypes="ccccccccccccccccc"/><g id="path649" cx="186.109" cy="677.183" rx="46.527" ry="47.796" type="arc"><radialGradient id="XMLID_1_" cx="-178.076" cy="433.779" r=".075" fx="-178.076" fy="433.779" gradientTransform="matrix(26.2094 3.8964 3.2374 -29.477 3282.5325 13511.5791)" gradientUnits="userSpaceOnUse"><stop style="stop-color:#6e6d6d" id="stop717" offset="0"/><stop style="stop-color:#000" id="stop718" offset="1"/></radialGradient><path id="path722" fill="url(#XMLID_1_)" d="M21.6,31.6c0.1-1.2-0.6-2.3-1.7-2.5c-1.1-0.2-2.1,0.7-2.2,1.9l0,0 c-0.1,1.2,0.6,2.3,1.7,2.5C20.4,33.7,21.4,32.8,21.6,31.6L21.6,31.6z"/><path id="path723" fill="none" stroke="#000" stroke-width="3.075" d="M21.6,31.6 c0.1-1.2-0.6-2.3-1.7-2.5c-1.1-0.2-2.1,0.7-2.2,1.9l0,0c-0.1,1.2,0.6,2.3,1.7,2.5C20.4,33.7,21.4,32.8,21.6,31.6L21.6,31.6z" opacity=".05"/></g><g id="path647" cx="186.109" cy="677.183" rx="46.527" ry="47.796" type="arc"><path id="path725" fill="url(#XMLID_1_)" d="M21.6,31.6c0.1-1.2-0.6-2.3-1.7-2.5c-1.1-0.2-2.1,0.7-2.2,1.9l0,0 c-0.1,1.2,0.6,2.3,1.7,2.5C20.4,33.7,21.4,32.8,21.6,31.6L21.6,31.6z"/><path id="path726" fill="none" stroke="#000" stroke-width="4.031" d="M21.6,31.6 c0.1-1.2-0.6-2.3-1.7-2.5c-1.1-0.2-2.1,0.7-2.2,1.9l0,0c-0.1,1.2,0.6,2.3,1.7,2.5C20.4,33.7,21.4,32.8,21.6,31.6L21.6,31.6z" opacity=".05"/></g><g id="path662" cx="186.109" cy="677.183" rx="46.527" ry="47.796" type="arc"><path id="path728" fill="url(#XMLID_1_)" d="M21.6,31.6c0.1-1.2-0.6-2.3-1.7-2.5c-1.1-0.2-2.1,0.7-2.2,1.9l0,0 c-0.1,1.2,0.6,2.3,1.7,2.5C20.4,33.7,21.4,32.8,21.6,31.6L21.6,31.6z"/><path id="path729" fill="none" stroke="#000" stroke-width="1.931" d="M21.6,31.6 c0.1-1.2-0.6-2.3-1.7-2.5c-1.1-0.2-2.1,0.7-2.2,1.9l0,0c-0.1,1.2,0.6,2.3,1.7,2.5C20.4,33.7,21.4,32.8,21.6,31.6L21.6,31.6z" opacity=".05"/></g><g id="path663" cx="186.109" cy="677.183" rx="46.527" ry="47.796" type="arc"><path id="path731" fill="url(#XMLID_1_)" d="M21.6,31.6c0.1-1.2-0.6-2.3-1.7-2.5c-1.1-0.2-2.1,0.7-2.2,1.9l0,0 c-0.1,1.2,0.6,2.3,1.7,2.5C20.4,33.7,21.4,32.8,21.6,31.6L21.6,31.6z"/><path id="path732" fill="none" stroke="#000" stroke-width="2.194" d="M21.6,31.6 c0.1-1.2-0.6-2.3-1.7-2.5c-1.1-0.2-2.1,0.7-2.2,1.9l0,0c-0.1,1.2,0.6,2.3,1.7,2.5C20.4,33.7,21.4,32.8,21.6,31.6L21.6,31.6z" opacity=".05"/></g><g id="path664" cx="186.109" cy="677.183" rx="46.527" ry="47.796" type="arc"><path id="path734" fill="url(#XMLID_1_)" d="M21.6,31.6c0.1-1.2-0.6-2.3-1.7-2.5c-1.1-0.2-2.1,0.7-2.2,1.9l0,0 c-0.1,1.2,0.6,2.3,1.7,2.5C20.4,33.7,21.4,32.8,21.6,31.6L21.6,31.6z"/><path id="path735" fill="none" stroke="#000" stroke-width="5.4" d="M21.6,31.6 c0.1-1.2-0.6-2.3-1.7-2.5c-1.1-0.2-2.1,0.7-2.2,1.9l0,0c-0.1,1.2,0.6,2.3,1.7,2.5C20.4,33.7,21.4,32.8,21.6,31.6L21.6,31.6z" opacity=".05"/></g><g id="path640" cx="186.109" cy="677.183" rx="46.527" ry="47.796" type="arc"><path id="path737" fill="url(#XMLID_1_)" d="M21.6,31.6c0.1-1.2-0.6-2.3-1.7-2.5c-1.1-0.2-2.1,0.7-2.2,1.9l0,0 c-0.1,1.2,0.6,2.3,1.7,2.5C20.4,33.7,21.4,32.8,21.6,31.6L21.6,31.6z"/><path id="path738" fill="none" stroke="#561900" stroke-width="1.05" d="M21.6,31.6 c0.1-1.2-0.6-2.3-1.7-2.5c-1.1-0.2-2.1,0.7-2.2,1.9l0,0c-0.1,1.2,0.6,2.3,1.7,2.5C20.4,33.7,21.4,32.8,21.6,31.6L21.6,31.6z" opacity=".945"/></g><radialGradient id="path648_1_" cx="-169.769" cy="428.457" r=".143" fx="-169.769" fy="428.457" gradientTransform="matrix(120.9869 17.9864 11.5953 -105.5783 15584.3721 48330.3711)" gradientUnits="userSpaceOnUse"><stop style="stop-color:#ff6f00" id="stop740" offset="0"/><stop style="stop-color:#ff0" id="stop741" offset="1"/></radialGradient><path id="path648" cx="381.039" cy="1027.239" fill="url(#path648_1_)" d="M21.5,40c0.5-4.4-3.2-8.5-8.2-9.3s-9.5,2.2-9.9,6.6c0,0,0,0,0,0c-0.5,4.4,3.2,8.5,8.2,9.3C16.6,47.3,21,44.4,21.5,40 C21.5,40,21.5,40,21.5,40z" rx="108.27" ry="74.174" type="arc"/><radialGradient id="path689_1_" cx="-169.681" cy="428.477" r=".103" fx="-169.681" fy="428.477" gradientTransform="matrix(119.4855 0 0 -111.5589 20286.6953 47838.2188)" gradientUnits="userSpaceOnUse"><stop style="stop-color:#fff" id="stop747" offset="0"/><stop style="stop-color:#f5ffff" id="stop748" offset="1"/></radialGradient><path id="path689" fill="url(#path689_1_)" d="M12.9,47.1c-7.7-0.2-9.6-5.9-8.9-8.9 c0.9-3.1,3.9-7.7,8.9-7.9c4.9-0.2,7.6,3.8,8.7,7.5C22.4,40.5,20.5,46.9,12.9,47.1z" nodetypes="ccccc" opacity=".4"/><g id="path660" cx="305.968" cy="963.832" rx="32.002" ry="52.64" type="arc"><radialGradient id="XMLID_7_" cx="-173.776" cy="429.276" r=".08" fx="-173.776" fy="429.276" gradientTransform="matrix(53.1496 7.9014 9.4433 -85.983 5201.7876 38313.4492)" gradientUnits="userSpaceOnUse"><stop style="stop-color:#ff6f00" id="stop755" offset="0"/><stop style="stop-color:#ff0" id="stop756" offset="1"/></radialGradient><path id="path760" fill="url(#XMLID_7_)" d="M22.4,31.1c0.5-4.7-0.4-8.6-2.1-8.9c-1.7-0.3-3.5,3.3-4,8s0.4,8.6,2.1,8.9 S21.9,35.7,22.4,31.1L22.4,31.1z"/><path id="path761" fill="none" stroke="#000" stroke-width=".685" d="M22.4,31.1 c0.5-4.7-0.4-8.6-2.1-8.9c-1.7-0.3-3.5,3.3-4,8s0.4,8.6,2.1,8.9S21.9,35.7,22.4,31.1L22.4,31.1z" opacity=".194"/></g><g id="path658" cx="305.968" cy="963.832" rx="32.002" ry="52.64" type="arc"><radialGradient id="XMLID_8_" cx="-174.411" cy="430.427" r=".075" fx="-174.411" fy="430.427" gradientTransform="matrix(40.7095 6.052 7.233 -65.8579 4002.0693 29436.2422)" gradientUnits="userSpaceOnUse"><stop style="stop-color:#ff6f00" id="stop764" offset="0"/><stop style="stop-color:#ff0" id="stop765" offset="1"/></radialGradient><path id="path769" fill="url(#XMLID_8_)" d="M18.1,34.3c0.3-2.7-0.8-5.1-2.5-5.4c-1.7-0.3-3.3,1.8-3.6,4.5 c-0.3,2.7,0.8,5.1,2.5,5.4C16.2,39.1,17.8,37.1,18.1,34.3L18.1,34.3z"/><path id="path770" fill="none" stroke="#000" stroke-width=".894" d="M18.1,34.3 c0.3-2.7-0.8-5.1-2.5-5.4c-1.7-0.3-3.3,1.8-3.6,4.5c-0.3,2.7,0.8,5.1,2.5,5.4C16.2,39.1,17.8,37.1,18.1,34.3L18.1,34.3z" opacity=".194"/></g><g id="path657" cx="305.968" cy="963.832" rx="32.002" ry="52.64" type="arc"><radialGradient id="XMLID_9_" cx="-173.795" cy="430.45" r=".075" fx="-173.795" fy="430.45" gradientTransform="matrix(40.7095 6.052 7.233 -65.8579 3972.1006 29434.3672)" gradientUnits="userSpaceOnUse"><stop style="stop-color:#ff6f00" id="stop773" offset="0"/><stop style="stop-color:#ff0" id="stop774" offset="1"/></radialGradient><path id="path778" fill="url(#XMLID_9_)" d="M13.6,34c0.3-2.7-0.8-5.1-2.5-5.4c-1.7-0.3-3.3,1.8-3.6,4.5 c-0.3,2.7,0.8,5.1,2.5,5.4C11.7,38.8,13.3,36.8,13.6,34L13.6,34z"/><path id="path779" fill="none" stroke="#000" stroke-width=".894" d="M13.6,34 c0.3-2.7-0.8-5.1-2.5-5.4c-1.7-0.3-3.3,1.8-3.6,4.5c-0.3,2.7,0.8,5.1,2.5,5.4C11.7,38.8,13.3,36.8,13.6,34L13.6,34z" opacity=".194"/></g><g id="path646" cx="305.968" cy="963.832" rx="32.002" ry="52.64" type="arc"><radialGradient id="XMLID_10_" cx="-173.128" cy="430.55" r=".075" fx="-173.128" fy="430.55" gradientTransform="matrix(40.7095 6.052 7.233 -65.8579 3939.3506 29436.8047)" gradientUnits="userSpaceOnUse"><stop style="stop-color:#ff6f00" id="stop782" offset="0"/><stop style="stop-color:#ff0" id="stop783" offset="1"/></radialGradient><path id="path787" fill="url(#XMLID_10_)" d="M8.7,34.4C9,31.7,7.9,29.3,6.2,29c-1.7-0.3-3.3,1.8-3.6,4.5 c-0.3,2.7,0.8,5.1,2.5,5.4C6.8,39.2,8.4,37.1,8.7,34.4L8.7,34.4z"/><path id="path788" fill="none" stroke="#000" stroke-width=".894" d="M8.7,34.4 C9,31.7,7.9,29.3,6.2,29c-1.7-0.3-3.3,1.8-3.6,4.5c-0.3,2.7,0.8,5.1,2.5,5.4C6.8,39.2,8.4,37.1,8.7,34.4L8.7,34.4z" opacity=".194"/></g><g id="path661" cx="305.968" cy="963.832" rx="32.002" ry="52.64" type="arc"><radialGradient id="XMLID_11_" cx="-175.863" cy="430.66" r=".081" fx="-175.863" fy="430.66" gradientTransform="matrix(40.7095 6.052 7.2331 -65.8579 4065.1973 29465.832)" gradientUnits="userSpaceOnUse"><stop style="stop-color:#ff6f00" id="stop791" offset="0"/><stop style="stop-color:#ff0" id="stop792" offset="1"/></radialGradient><path id="path796" fill="url(#XMLID_11_)" d="M23.5,40.7c1.8-2,2.2-4.6,0.9-5.7c-1.3-1.1-3.8-0.4-5.6,1.7 c-1.8,2-2.2,4.6-0.9,5.7S21.7,42.7,23.5,40.7L23.5,40.7z"/><path id="path797" fill="none" stroke="#000" stroke-width=".894" d="M23.5,40.7 c1.8-2,2.2-4.6,0.9-5.7c-1.3-1.1-3.8-0.4-5.6,1.7c-1.8,2-2.2,4.6-0.9,5.7S21.7,42.7,23.5,40.7L23.5,40.7z" opacity=".194"/></g><path id="path670" fill="none" stroke="#645440" stroke-linecap="round" stroke-linejoin="round" stroke-width=".489" d="M3.4,37.7c-0.2,5,3.6,7.9,6.7,8.7c5.2,1.4,8.2-0.6,10.6-3.5c1.7-0.7,2.9-1.7,3.7-3.3c0.6-1.2,1-2.5,0.5-3.6 c-0.5-1.2-1.9-1.5-3.3-1.1c0.8-2.9,0.9-5.5,0.8-8.3c-0.1-1.7-0.8-3.8-1.9-4.1c-1.2-0.2-2.2,1-2.6,2.3c-0.7,1.5-1,2.8-1.4,4.8 c-0.8-0.3-1.3-0.4-2-0.1c-0.5,0.2-1,0.7-1.2,1.3c-0.5-0.8-1-1.6-1.9-1.9c-1.1-0.2-2.4,0.6-3.1,2.1c-0.4-0.8-0.9-1.2-1.8-1.6 c-0.9-0.2-2.2,0.6-2.8,1.6C2.7,32.2,2.1,35.6,3.4,37.7z" nodetypes="ccccccccccccccccc"/><radialGradient id="path679_1_" cx="-169.061" cy="432.05" r=".104" fx="-169.061" fy="432.05" gradientTransform="matrix(26.1688 0 0 -20.0384 4429.7852 8688.5439)" gradientUnits="userSpaceOnUse"><stop style="stop-color:#fff" id="stop800" offset="0"/><stop style="stop-color:#f5ffff" id="stop801" offset="1"/></radialGradient><path id="path679" fill="url(#path679_1_)" d="M5.9,32.5c-1.7,0-2.1-1.1-1.9-1.6 c0.2-0.6,0.8-1.4,1.9-1.4c1.1,0,1.7,0.7,1.9,1.4C8,31.4,7.5,32.5,5.9,32.5z" nodetypes="ccccc" opacity=".6"/><radialGradient id="path681_1_" cx="-170.157" cy="432.178" r=".103" fx="-170.157" fy="432.178" gradientTransform="matrix(25.2716 0 0 -18.842 4310.8296 8173.2695)" gradientUnits="userSpaceOnUse"><stop style="stop-color:#fff" id="stop807" offset="0"/><stop style="stop-color:#f5ffff" id="stop808" offset="1"/></radialGradient><path id="path681" fill="url(#path681_1_)" d="M10.8,31.8c-1.6,0-2-1-1.9-1.5 c0.2-0.5,0.8-1.3,1.9-1.3c1,0,1.6,0.6,1.9,1.3C12.8,30.7,12.4,31.8,10.8,31.8z" nodetypes="ccccc" opacity=".6"/><radialGradient id="path683_1_" cx="-171.188" cy="432.049" r=".104" fx="-171.188" fy="432.049" gradientTransform="matrix(24.9724 0 0 -19.7393 4290.1855 8558.8389)" gradientUnits="userSpaceOnUse"><stop style="stop-color:#fff" id="stop814" offset="0"/><stop style="stop-color:#f5ffff" id="stop815" offset="1"/></radialGradient><path id="path683" fill="url(#path683_1_)" d="M15.3,32.2c-1.6,0-2-1-1.9-1.6 c0.2-0.6,0.8-1.4,1.9-1.4c1,0,1.6,0.7,1.8,1.3C17.3,31.1,16.9,32.2,15.3,32.2z" nodetypes="ccccc" opacity=".6"/><radialGradient id="path685_1_" cx="-171.629" cy="431.856" r=".103" fx="-171.629" fy="431.856" gradientTransform="matrix(37.3964 0 0 -28.179 6440.3066 12205.9268)" gradientUnits="userSpaceOnUse"><stop style="stop-color:#fff" id="stop821" offset="0"/><stop style="stop-color:#f5ffff" id="stop822" offset="1"/></radialGradient><path id="path685" fill="url(#path685_1_)" d="M22.7,38.9c-2.4,0.7-3.4-0.4-3.4-1.1 c0-0.8,0.6-2.1,2.2-2.7c1.5-0.5,2.6,0.1,3.2,0.9C25.1,36.4,25,38.1,22.7,38.9z" nodetypes="ccccc" opacity=".5"/><radialGradient id="path687_1_" cx="-173.505" cy="431.133" r=".104" fx="-173.505" fy="431.133" gradientTransform="matrix(17.4951 0 0 -14.0566 3055.4934 6083.7261)" gradientUnits="userSpaceOnUse"><stop style="stop-color:#fff" id="stop828" offset="0"/><stop style="stop-color:#f5ffff" id="stop829" offset="1"/></radialGradient><path id="path687" fill="url(#path687_1_)" d="M20.2,24.7c-1.1,0-1.4-0.7-1.3-1.1 c0.1-0.4,0.6-1,1.3-1c0.7,0,1.1,0.5,1.3,1C21.6,23.9,21.3,24.7,20.2,24.7z" nodetypes="ccccc" opacity=".7"/></g></g></g></svg>