<svg xmlns="http://www.w3.org/2000/svg" xmlns:xlink="http://www.w3.org/1999/xlink" id="svg602" width="48" height="48.7" enable-background="new 0 0 48 48.7" overflow="visible" viewBox="0 0 48 48.7" xml:space="preserve"><g id="Layer_1"><g id="g607"><path id="path597_5_" fill="none" stroke="#474000" stroke-width="1.882" d="M5.6,20.2c0-10.7,8-19.3,17.8-19.3c9.8,0,18.4,8.1,18.4,18.7c0,10.7-8.6,19.9-18.4,19.9C13.6,39.5,5.6,30.9,5.6,20.2z" enable-background="new" opacity=".15"/><path id="path597_4_" fill="none" stroke="#474000" stroke-width=".941" d="M5.6,20.2c0-10.7,8-19.3,17.8-19.3c9.8,0,18.4,8.1,18.4,18.7c0,10.7-8.6,19.9-18.4,19.9C13.6,39.5,5.6,30.9,5.6,20.2z" enable-background="new" opacity=".2"/><path id="path597_3_" fill="none" stroke="#474000" stroke-width=".47" d="M5.6,20.2c0-10.7,8-19.3,17.8-19.3c9.8,0,18.4,8.1,18.4,18.7c0,10.7-8.6,19.9-18.4,19.9C13.6,39.5,5.6,30.9,5.6,20.2z" enable-background="new" opacity=".3"/><radialGradient id="path700_1_" cx="-339.72" cy="-.782" r=".064" fx="-339.72" fy="-.782" gradientTransform="matrix(310.7065 0 0 144.1183 105578.2188 155.2078)" gradientUnits="userSpaceOnUse"><stop style="stop-color:#261700" id="stop611" offset="0"/><stop style="stop-color:#d2d2d2" id="stop612" offset="1"/></radialGradient><path id="path700" fill="url(#path700_1_)" d="M37.9,31.8c6.5,4.5,6,10.6-1.9,14.3c-7.9,3.7-19.5,3.1-25.9-1.5c-5.5-3.8-5.7-9.1-0.5-13.1c3.4,4.7,6.2,6.3,14,7.3 C30.1,38.7,34.3,35.8,37.9,31.8z" enable-background="new" opacity=".3"/><radialGradient id="path577_1_" cx="-298.644" cy="42.73" r="41.557" fx="-298.644" fy="42.73" gradientTransform="matrix(298.9032 0 0 316.3969 101568.6563 -85.5551)" gradientUnits="userSpaceOnUse"><stop style="stop-color:#ff6f00" id="stop618" offset="0"/><stop style="stop-color:#ff0" id="stop619" offset="1"/></radialGradient><circle id="path577" cx="23.9" cy="20.4" r="17.8" fill="url(#path577_1_)"/><linearGradient id="path597_1_" x1="-339.714" x2="-339.715" y1=".278" y2=".397" gradientTransform="matrix(303.6933 0 0 316.3967 103192.7969 -85.2919)" gradientUnits="userSpaceOnUse"><stop style="stop-color:#ff6500" id="stop625" offset="0"/><stop style="stop-color:#ff0" id="stop626" offset="1"/></linearGradient><path id="path597" fill="url(#path597_1_)" d="M5.6,20.2c0-10.7,8-19.3,17.8-19.3c9.9,0,18.4,8,18.4,18.7c0,10.7-8.6,19.9-18.4,19.9C13.6,39.5,5.6,30.9,5.6,20.2z" enable-background="new" opacity=".75"/><g id="path644"><polygon id="polygon633" fill="#474000" points="35.8 18.1 29.2 15.1 29.5 16.4"/><polygon id="polygon634" fill="none" stroke="#2A0000" stroke-linecap="round" stroke-linejoin="round" stroke-width=".699" points="35.8 18.1 29.2 15.1 29.5 16.4" enable-background="new" opacity=".772"/></g><polygon id="path663" fill="#474000" stroke="#2A0000" stroke-linecap="round" stroke-linejoin="round" stroke-width="1.5" points="35.8 18.1 29.2 15.1 29.5 16.4" enable-background="new" opacity=".3"/><polygon id="path665" fill="#474000" stroke="#2A0000" stroke-linecap="round" stroke-linejoin="round" stroke-width="2" points="35.8 18.1 29.2 15.1 29.5 16.4" enable-background="new" opacity=".2"/><polygon id="path667" fill="#474000" stroke="#2A0000" stroke-linecap="round" stroke-linejoin="round" stroke-width="3" points="35.8 18.1 29.2 15.1 29.5 16.4" enable-background="new" opacity=".15"/><g id="path670"><polygon id="polygon639" fill="#474000" points="11 17.7 18.4 15.1 17.8 16.5"/><polygon id="polygon640" fill="none" stroke="#2A0000" stroke-linecap="round" stroke-linejoin="round" stroke-width=".762" points="11 17.7 18.4 15.1 17.8 16.5" enable-background="new" opacity=".772"/></g><linearGradient id="path671_1_" x1="11" x2="18.4" y1="16.441" y2="16.441" gradientUnits="userSpaceOnUse"><stop style="stop-color:#fff" id="stop641" offset="0"/><stop style="stop-color:#000" id="stop642" offset="1"/></linearGradient><polygon id="path671" fill="url(#path671_1_)" stroke="#2A0000" stroke-linecap="round" stroke-linejoin="round" stroke-width="1.5" points="11 17.7 18.4 15.1 17.8 16.5" enable-background="new" opacity=".3"/><polygon id="path672" fill="#474000" stroke="#2A0000" stroke-linecap="round" stroke-linejoin="round" stroke-width="2" points="11 17.7 18.4 15.1 17.8 16.5" enable-background="new" opacity=".25"/><polygon id="path673" fill="#474000" stroke="#2A0000" stroke-linecap="round" stroke-linejoin="round" stroke-width="3" points="11 17.7 18.4 15.1 17.8 16.5" enable-background="new" opacity=".15"/><path id="path639" fill="none" stroke="#795000" stroke-linecap="round" stroke-width=".864" d="M18.7,30.7 c2.2-5,0.6,0.7,9.1,0.6"/><path id="path640" fill="none" stroke="#000" stroke-linecap="round" stroke-width="1.578" d="M18.6,31.2c1.8-4.4,4,0.8,9,0.8" enable-background="new" opacity=".35"/><path id="path641" fill="none" stroke="#000" stroke-linecap="round" stroke-width="1.411" d="M18.6,31.3c1.8-5.9,3.2-0.2,9.1,0.5" enable-background="new" opacity=".3"/><path id="path642" fill="none" stroke="#000" stroke-linecap="round" stroke-width="2.321" d="M18.7,31.3c1.8-5.5,2.4,0,9,0.8" enable-background="new" opacity=".15"/><radialGradient id="path597_6_" cx="-146.555" cy="426.705" r="20.235" fx="-146.555" fy="426.705" gradientTransform="matrix(1 0 0 -1 169.9258 427.5703)" gradientUnits="userSpaceOnUse"><stop style="stop-color:#fff" id="stop654" offset="0"/><stop style="stop-color:#fffefa" id="stop655" offset=".105"/><stop style="stop-color:#fffbec" id="stop656" offset=".228"/><stop style="stop-color:#fff7d4" id="stop657" offset=".362"/><stop style="stop-color:#fff1b2" id="stop658" offset=".502"/><stop style="stop-color:#ffe988" id="stop659" offset=".647"/><stop style="stop-color:#ffdf53" id="stop660" offset=".798"/><stop style="stop-color:#ffd316" id="stop661" offset=".949"/><stop style="stop-color:#ffcf00" id="stop662" offset="1"/></radialGradient><path id="path597_2_" fill="url(#path597_6_)" d="M12.2,7.8c0-3.8,5-6.9,11.1-6.9c6.1,0,11.4,2.9,11.4,6.7C34.7,11.4,12.2,11.6,12.2,7.8z" enable-background="new" opacity=".75"/></g><rect id="rect662" width="48" height="48" y=".7" fill="none"/></g></svg>