<svg xmlns="http://www.w3.org/2000/svg" xmlns:xlink="http://www.w3.org/1999/xlink" id="svg602" width="54.1" height="48" enable-background="new 0 0 54.1 48" overflow="visible" viewBox="0 0 54.1 48" xml:space="preserve"><g id="Layer_1"><g id="g606"><g id="g607"><g id="path588" nodetypes="cccccc"><path id="path609" fill="none" stroke="#000" stroke-linecap="round" stroke-linejoin="round" stroke-width="1.421" d="M11.1,19.6l-7.8,6.7c3.7,6.4,8.9,12,15.7,14.9c12.8-5.2,26.2-24.2,31.8-34.5c-5.1,4.6-18.8,18-32,22.6 C15.7,27,14.1,24.2,11.1,19.6z" opacity=".038"/></g><g id="path587" nodetypes="cccccc"><path id="path611" fill="none" stroke="#000" stroke-linecap="round" stroke-linejoin="round" stroke-width="1.971" d="M11.1,19.6l-7.8,6.7c3.7,6.4,8.9,12,15.7,14.9c12.8-5.2,26.2-24.2,31.8-34.5c-5.1,4.6-18.8,18-32,22.6 C15.7,27,14.1,24.2,11.1,19.6z" opacity=".038"/></g><g id="path585" nodetypes="cccccc"><path id="path613" fill="none" stroke="#000" stroke-linecap="round" stroke-linejoin="round" stroke-width="2.887" d="M11.1,19.6l-7.8,6.7c3.7,6.4,8.9,12,15.7,14.9c12.8-5.2,26.2-24.2,31.8-34.5c-5.1,4.6-18.8,18-32,22.6 C15.7,27,14.1,24.2,11.1,19.6z" opacity=".038"/></g><g id="path584" nodetypes="cccccc"><path id="path615" fill="none" stroke="#000" stroke-linecap="round" stroke-linejoin="round" stroke-width="3.802" d="M11.1,19.6l-7.8,6.7c3.7,6.4,8.9,12,15.7,14.9c12.8-5.2,26.2-24.2,31.8-34.5c-5.1,4.6-18.8,18-32,22.6 C15.7,27,14.1,24.2,11.1,19.6z" opacity=".038"/></g><g id="path583" nodetypes="cccccc"><path id="path617" fill="none" stroke="#000" stroke-linecap="round" stroke-linejoin="round" stroke-width="4.718" d="M11.1,19.6l-7.8,6.7c3.7,6.4,8.9,12,15.7,14.9c12.8-5.2,26.2-24.2,31.8-34.5c-5.1,4.6-18.8,18-32,22.6 C15.7,27,14.1,24.2,11.1,19.6z" opacity=".038"/></g><g id="path582" nodetypes="cccccc"><path id="path619" fill="none" stroke="#000" stroke-linecap="round" stroke-linejoin="round" stroke-width="5.085" d="M11.1,19.6l-7.8,6.7c3.7,6.4,8.9,12,15.7,14.9c12.8-5.2,26.2-24.2,31.8-34.5c-5.1,4.6-18.8,18-32,22.6 C15.7,27,14.1,24.2,11.1,19.6z" opacity=".038"/></g><g id="path581" nodetypes="cccccc"><path id="path621" fill="none" stroke="#000" stroke-linecap="round" stroke-linejoin="round" stroke-width="5.634" d="M11.1,19.6l-7.8,6.7c3.7,6.4,8.9,12,15.7,14.9c12.8-5.2,26.2-24.2,31.8-34.5c-5.1,4.6-18.8,18-32,22.6 C15.7,27,14.1,24.2,11.1,19.6z" opacity=".038"/></g><g id="path580" nodetypes="cccccc"><path id="path623" fill="none" stroke="#000" stroke-linecap="round" stroke-linejoin="round" stroke-width="6" d="M11.1,19.6l-7.8,6.7c3.7,6.4,8.9,12,15.7,14.9c12.8-5.2,26.2-24.2,31.8-34.5c-5.1,4.6-18.8,18-32,22.6 C15.7,27,14.1,24.2,11.1,19.6z" opacity=".038"/></g><g id="path579" nodetypes="cccccc"><path id="path625" fill="none" stroke="#000" stroke-linecap="round" stroke-linejoin="round" stroke-width="6.55" d="M11.1,19.6l-7.8,6.7c3.7,6.4,8.9,12,15.7,14.9c12.8-5.2,26.2-24.2,31.8-34.5c-5.1,4.6-18.8,18-32,22.6 C15.7,27,14.1,24.2,11.1,19.6z" opacity=".038"/></g><linearGradient id="path578_1_" x1="-172.78" x2="-172.783" y1="455.552" y2="455.677" gradientTransform="matrix(343.3546 0 0 -249.5929 59352.875 113750.0391)" gradientUnits="userSpaceOnUse"><stop style="stop-color:#000" id="stop627" offset="0"/><stop style="stop-color:#fff" id="stop628" offset="1"/></linearGradient><path id="path578" fill="url(#path578_1_)" stroke="#000" stroke-linecap="round" stroke-linejoin="round" stroke-width=".652" d="M11.1,19.6l-7.8,6.7c3.7,6.4,8.9,12,15.7,14.9c12.8-5.2,26.2-24.2,31.8-34.5c-5.1,4.6-18.8,18-32,22.6 C15.7,27,14.1,24.2,11.1,19.6z" nodetypes="cccccc"/><linearGradient id="path577_1_" x1="-172.763" x2="-172.8" y1="455.662" y2="455.772" gradientTransform="matrix(305.0712 0 0 -199.9427 52741.6406 91147.2266)" gradientUnits="userSpaceOnUse"><stop style="stop-color:#006000" id="stop634" offset="0"/><stop style="stop-color:#00dc00" id="stop635" offset="1"/></linearGradient><path id="path577" fill="url(#path577_1_)" d="M11.1,21.6l-6.3,5c3.2,5.2,8.4,10.6,14.2,13 c11.4-5.4,18-15.2,28-27.7C36.3,21.8,30,26.5,18.8,30.9C16.2,29,13.7,25.4,11.1,21.6z" nodetypes="cccccc"/><g id="path586" nodetypes="cccccc"><path id="path641" fill="none" stroke="#000" stroke-linecap="round" stroke-linejoin="round" stroke-width="2.337" d="M11.1,19.6l-7.8,6.7c3.7,6.4,8.9,12,15.7,14.9c12.8-5.2,26.2-24.2,31.8-34.5c-5.1,4.6-18.8,18-32,22.6 C15.7,27,14.1,24.2,11.1,19.6z" opacity=".038"/></g><radialGradient id="path589_1_" cx="-172.792" cy="455.588" r=".032" fx="-172.792" fy="455.588" gradientTransform="matrix(343.3549 0 0 -249.5927 59352.8281 113749.8984)" gradientUnits="userSpaceOnUse"><stop style="stop-color:#fff" id="stop643" offset="0"/><stop style="stop-color:#fff" id="stop644" offset="1"/></radialGradient><path id="path589" fill="url(#path589_1_)" d="M11.1,19.6l-7.8,6.7 c3.7,6.4,8.9,12,15.7,14.9c12.8-5.2,26.2-24.2,31.8-34.5c-5.1,4.6-18.8,18-32,22.6C15.7,27,14.1,24.2,11.1,19.6z" nodetypes="cccccc" opacity=".2"/><linearGradient id="path598_1_" x1="-172.638" x2="-172.587" y1="456.121" y2="455.958" gradientTransform="matrix(95.9373 0 0 -102.6972 16571.8613 46860.832)" gradientUnits="userSpaceOnUse"><stop style="stop-color:#fff" id="stop650" offset="0"/><stop style="stop-color:#fff" id="stop651" offset="1"/></linearGradient><path id="path598" fill="url(#path598_1_)" d="M18.6,29.7c-2.6-3.3-5.2-6.6-7.8-9.8 l-5.4,5C8.2,30,16.1,36.8,17.9,33C18.1,32.8,18.9,31,18.6,29.7z" nodetypes="cccsc" opacity=".2"/></g><rect id="rect656" width="48" height="48" x="3" fill="none"/></g></g></svg>