<svg xmlns="http://www.w3.org/2000/svg" xmlns:xlink="http://www.w3.org/1999/xlink" id="svg602" width="48" height="50.1" enable-background="new 0 0 48 50.1" overflow="visible" viewBox="0 0 48 50.1" xml:space="preserve"><g id="Layer_1"><g id="g606"><radialGradient id="path630_1_" cx="-189.204" cy="453.313" r=".064" fx="-189.204" fy="453.313" gradientTransform="matrix(480.6302 0 0 -290.6096 90956.2031 131768.2344)" gradientUnits="userSpaceOnUse"><stop style="stop-color:#000" id="stop608" offset="0"/><stop style="stop-color:#000001" id="stop609" offset="1"/></radialGradient><path id="path630" fill="url(#path630_1_)" d="M44.9,22.4 C35.2,42.4,15.5,43,4.3,24c-4.9,4.5-5.8,17.1,12.3,24.4C36.2,56.4,52.2,29.4,44.9,22.4z" nodetypes="ccsc" opacity=".05"/><radialGradient id="path650_1_" cx="-189.211" cy="453.847" r=".075" fx="-189.211" fy="453.847" gradientTransform="matrix(363.8889 0 0 -140.0303 68874.3047 63581.4531)" gradientUnits="userSpaceOnUse"><stop style="stop-color:#000" id="stop615" offset="0"/><stop style="stop-color:#000001" id="stop616" offset="1"/></radialGradient><path id="path650" fill="url(#path650_1_)" d="M38.2,29.3c-7.4,9.6-22.3,9.9-30.7,0.8 c-3.7,2.2-4.4,8.2,9.3,11.8C31.5,45.7,43.7,32.7,38.2,29.3z" nodetypes="ccsc" opacity=".1"/><radialGradient id="path648_1_" cx="-189.285" cy="453.69" r=".064" fx="-189.285" fy="453.69" gradientTransform="matrix(355.4296 0 0 -168.7927 67298.2734 76613.0391)" gradientUnits="userSpaceOnUse"><stop style="stop-color:#000" id="stop622" offset="0"/><stop style="stop-color:#000001" id="stop623" offset="1"/></radialGradient><path id="path648" fill="url(#path648_1_)" d="M40,28.7c-7.2,11.6-21.8,11.9-30,0.9 c-3.6,2.6-4.3,9.9,9.1,14.2C33.5,48.4,45.3,32.7,40,28.7z" nodetypes="ccsc" opacity=".15"/><g id="path627" nodetypes="cscsc"><path id="path629" fill="none" stroke="#40210A" stroke-width="3.284" d="M11.8,11.9 C-0.6,25.7,12.2,37.7,25,37.8c14.5,0,25.2-17.7,10.9-27.1C35.3,5,30,2.2,24.2,2.3S12.8,5.3,11.8,11.9z" opacity=".033"/></g><g id="g630" nodetypes="cscsc"><path id="path631" fill="none" stroke="#40210A" stroke-width="2.055" d="M11.8,11.9 C-0.6,25.7,12.2,37.7,25,37.8c14.5,0,25.2-17.7,10.9-27.1C35.3,5,30,2.2,24.2,2.3S12.8,5.3,11.8,11.9z" opacity=".033"/></g><g id="path628" nodetypes="cscsc"><path id="path633" fill="none" stroke="#40210A" stroke-width="2.646" d="M11.8,11.9 C-0.6,25.7,12.2,37.7,25,37.8c14.5,0,25.2-17.7,10.9-27.1C35.3,5,30,2.2,24.2,2.3S12.8,5.3,11.8,11.9z" opacity=".033"/></g><g id="path626" nodetypes="cscsc"><path id="path635" fill="none" stroke="#40210A" stroke-width="3.284" d="M11.8,11.9 C-0.6,25.7,12.2,37.7,25,37.8c14.5,0,25.2-17.7,10.9-27.1C35.3,5,30,2.2,24.2,2.3S12.8,5.3,11.8,11.9z" opacity=".033"/></g><g id="path625" nodetypes="cscsc"><path id="path637" fill="none" stroke="#40210A" stroke-width="3.544" d="M11.8,11.9 C-0.6,25.7,12.2,37.7,25,37.8c14.5,0,25.2-17.7,10.9-27.1C35.3,5,30,2.2,24.2,2.3S12.8,5.3,11.8,11.9z" opacity=".033"/></g><g id="path624" nodetypes="cscsc"><path id="path639" fill="none" stroke="#40210A" stroke-width="4.205" d="M11.8,11.9 C-0.6,25.7,12.2,37.7,25,37.8c14.5,0,25.2-17.7,10.9-27.1C35.3,5,30,2.2,24.2,2.3S12.8,5.3,11.8,11.9z" opacity=".033"/></g><g id="path623" nodetypes="cscsc"><path id="path641" fill="none" stroke="#40210A" stroke-width="4.56" d="M11.8,11.9 C-0.6,25.7,12.2,37.7,25,37.8c14.5,0,25.2-17.7,10.9-27.1C35.3,5,30,2.2,24.2,2.3S12.8,5.3,11.8,11.9z" opacity=".033"/></g><linearGradient id="path607_1_" x1="-190.64" x2="-190.667" y1="453.142" y2="453.089" gradientTransform="matrix(83.9234 0 0 -112.4407 16029.3164 50973.8828)" gradientUnits="userSpaceOnUse"><stop style="stop-color:#d9d1b4" id="stop643" offset="0"/><stop style="stop-color:#b2b5a5" id="stop644" offset="1"/></linearGradient><path id="path607" fill="url(#path607_1_)" d="M29.9,19.9c1.2,1.2,3.1,6.9,2.9,8.1 c-0.2,1.9-3,2.7-4.1,2.4c-1.5-0.5-2.7-2.9-3.8-4.5c0.2-0.8,0.6-3.9,1.1-4.7C26.6,19.9,29.5,19.6,29.9,19.9z" nodetypes="csscss"/><linearGradient id="path581_1_" x1="-189.224" x2="-189.317" y1="452.908" y2="452.906" gradientTransform="matrix(369.8173 0 0 -279.168 70019.9688 126461.7969)" gradientUnits="userSpaceOnUse"><stop style="stop-color:#d7d7c2" id="stop650" offset="0"/><stop style="stop-color:#dde2df" id="stop651" offset="1"/></linearGradient><path id="path581" fill="url(#path581_1_)" d="M11.7,12.3c-13.1,17.2,6.2,25.1,12.6,25.2 c15.5,0.1,24.5-16.7,11.8-26.4c0.2,2.3-3.3,8.7-5.4,10.6c1,2.5,2.5,5.2,1.7,7c-0.4,1-2.8,2-3.9,1.6c-1.4-0.5-3-4.2-3.7-4.2 c-3.3,0-3.4-1.1-5.2-2.3C16.1,21.6,11.8,14.3,11.7,12.3z" nodetypes="csccssssc"/><linearGradient id="path621_1_" x1="-189.409" x2="-189.315" y1="452.266" y2="452.266" gradientTransform="matrix(254.103 0 0 -183.1892 48141.3945 82861.0313)" gradientUnits="userSpaceOnUse"><stop style="stop-color:#d9d1b4" id="stop657" offset="0"/><stop style="stop-color:#b2b5a5" id="stop658" offset="1"/></linearGradient><path id="path621" fill="url(#path621_1_)" d="M35.9,11c-1,6.5-7.6,8.4-12.2,8.6 c-6.4,0.3-11.4-3.3-11.8-7.1c-0.5-5.3,5-10.2,12-10.2C33.1,2.4,36.4,7.8,35.9,11z" nodetypes="cssss"/><g id="path579" nodetypes="css"><path id="path664" fill="none" stroke="#A6945C" stroke-width="1.04" d="M36.2,11.1 c13.7,12,0,26.6-10.7,26.2C12.9,37-0.1,26.6,11.8,12.5" opacity=".574"/></g><g id="path567" nodetypes="cssss"><linearGradient id="XMLID_1_" x1="-193.399" x2="-193.191" y1="455.638" y2="455.665" gradientTransform="matrix(32.3605 0 0 -82.8579 6285.875 37778.8398)" gradientUnits="userSpaceOnUse"><stop style="stop-color:#fff" id="stop667" offset="0"/><stop style="stop-color:#fff" id="stop668" offset="1"/></linearGradient><path id="path672" fill="url(#XMLID_1_)" d="M25.8,25.1c0.1-1.1,0.1-3.7,0.4-3.2c0.7,1,2.9,6.2,2.6,7.6 c-0.3,1.1-2-2.2-2.9-3.4C25.8,25.7,25.8,25.4,25.8,25.1z" opacity=".507"/><linearGradient id="XMLID_2_" x1="-187.637" x2="-190.677" y1="452.68" y2="452.938" gradientUnits="userSpaceOnUse"><stop style="stop-color:#600" id="stop674" offset="0"/><stop style="stop-color:#fff" id="stop675" offset="1"/></linearGradient><path id="path679" fill="none" stroke="url(#XMLID_2_)" stroke-width=".618" d="M25.8,25.1 c0.1-1.1,0.1-3.7,0.4-3.2c0.7,1,2.9,6.2,2.6,7.6c-0.3,1.1-2-2.2-2.9-3.4C25.8,25.7,25.8,25.4,25.8,25.1z" opacity=".246"/></g><g id="path566" nodetypes="cssss"><path id="path681" fill="none" stroke="#641500" stroke-width="1.465" d="M25.8,25.1 c0.1-1.1,0.1-3.7,0.4-3.2c0.7,1,2.9,6.2,2.6,7.6c-0.3,1.1-2-2.2-2.9-3.4C25.8,25.7,25.8,25.4,25.8,25.1z" opacity=".156"/></g><g id="path563" nodetypes="cscsc"><path id="path683" fill="none" stroke="#575A0A" stroke-width=".461" d="M11.8,11.9 C-0.6,25.7,12.2,37.7,25,37.8c14.5,0,25.2-17.7,10.9-27.1C35.3,5,30,2.2,24.2,2.3S12.8,5.3,11.8,11.9z" opacity=".934"/></g><g id="path565" nodetypes="cssss"><path id="path685" fill="none" stroke="#641500" stroke-width=".865" d="M25.8,25.1 c0.1-1.1,0.1-3.7,0.4-3.2c0.7,1,2.9,6.2,2.6,7.6c-0.3,1.1-2-2.2-2.9-3.4C25.8,25.7,25.8,25.4,25.8,25.1z" opacity=".246"/></g><g id="path580" nodetypes="css"><path id="path687" fill="none" stroke="#A18D54" stroke-linecap="round" stroke-width=".177" d="M36.2,11.1c14.2,11.5,0,26.8-10.6,26.4C13,37.2-0.1,26.6,11.8,12.5" opacity=".574"/></g><linearGradient id="path586_1_" x1="-188.92" x2="-188.995" y1="452.922" y2="452.961" gradientTransform="matrix(127.0988 0 0 -159.8858 24029.5176 72444.5234)" gradientUnits="userSpaceOnUse"><stop style="stop-color:#fff" id="stop689" offset="0"/><stop style="stop-color:#fff" id="stop690" offset="1"/></linearGradient><path id="path586" fill="url(#path586_1_)" d="M19.6,23.4c0.1,1.5,0.4,3.8-0.8,4.7 c-1.9,0.6-4.8-2.6-5.3-1.9c-0.6,0.2,1.1,3,0.2,3.9c-1.1,0.2-2.8-3-3.7-2.5c-0.6,0.2,0.5,3.1,0.2,3.8c-3.1-4.3-3.7-11-0.1-15.1 c2.6,0.5,4.4,2.2,6,4C17.1,21.6,18.2,22.5,19.6,23.4z" nodetypes="ccccccccc"/><radialGradient id="path591_1_" cx="-189.255" cy="452.87" r=".036" fx="-189.255" fy="452.87" gradientTransform="matrix(369.5546 0 0 -279.168 69969.8281 126461.7969)" gradientUnits="userSpaceOnUse"><stop style="stop-color:#fff" id="stop696" offset="0"/><stop style="stop-color:#fff" id="stop697" offset="1"/></radialGradient><path id="path591" fill="url(#path591_1_)" d="M11.7,12.3c-13.1,17.2,5.9,25.1,12.4,25.2 c15.5,0.1,24.8-16.7,12.1-26.4c0.2,2.3-3.3,8.7-5.4,10.6c1,2.5,2.5,5.2,1.7,7c-0.4,1-2.8,2-3.9,1.6c-1.4-0.5-3-4.2-3.7-4.2 c-3.3,0-3.4-1.1-5.2-2.3C16.1,21.6,11.8,14.3,11.7,12.3z" nodetypes="csccssssc"/><g id="path594" nodetypes="cc"><path id="path703" fill="none" stroke="#71653C" stroke-width=".898" d="M20,24.4 c1,1.7,3.5,2.2,5.1,1.9" opacity=".711"/></g><g id="path595" nodetypes="cc"><path id="path705" fill="none" stroke="#71653C" stroke-linecap="round" stroke-width=".343" d="M20,24.4c1,1.7,3.4,2.3,5.1,2.1" opacity=".711"/></g><g id="path596" nodetypes="cc"><path id="path707" fill="none" stroke="#75623A" stroke-linecap="round" stroke-width="1.335" d="M20,24.4c1,1.7,3.3,2.1,4.9,1.9" opacity=".365"/></g><linearGradient id="path597_1_" x1="-189.311" x2="-189.369" y1="452.638" y2="452.639" gradientTransform="matrix(259.133 0 0 -160.1619 49092.875 72513.875)" gradientUnits="userSpaceOnUse"><stop style="stop-color:#d9d1b4" id="stop709" offset="0"/><stop style="stop-color:#b2b5a5" id="stop710" offset="1"/></linearGradient><path id="path597" fill="url(#path597_1_)" d="M36.1,11c0.6,2-3.2,8.4-5,10.6 c-0.4,0.4-0.7-1.7-1.4-1.8c-1.1-0.1-3,0.4-3.8,1.2c-0.8,0.8-0.2,4.7-1.1,5c-2.7,0.6-4.3-1.8-5.2-2.4c-3.4-2.4-6.8-6.9-7.8-11.3 C14,22.2,33.3,22.4,36.1,11z" nodetypes="cssssscc"/><radialGradient id="path601_1_" cx="-188.018" cy="453.277" r=".086" fx="-188.018" fy="453.277" gradientTransform="matrix(39.8924 0 0 -57.5219 7509.522 26095.3047)" gradientUnits="userSpaceOnUse"><stop style="stop-color:#fff" id="stop716" offset="0"/><stop style="stop-color:#ecfbfb" id="stop717" offset="1"/></radialGradient><path id="path601" fill="url(#path601_1_)" d="M8.9,21.4c1.1,2.4,1.3,2.7,3.1,4.6 c-1.1,0.4-2.1-1.3-2.6-1c-0.4,0.3,0.5,1.7,0,1.8C8.4,26.9,7.6,21.7,8.9,21.4z" nodetypes="ccssc"/><radialGradient id="path608_1_" cx="-193.583" cy="453.212" r=".089" fx="-193.583" fy="453.212" gradientTransform="matrix(33.5391 0 0 -52.2734 6523.9692 23713.6914)" gradientUnits="userSpaceOnUse"><stop style="stop-color:#fff" id="stop723" offset="0"/><stop style="stop-color:#fff" id="stop724" offset="1"/></radialGradient><path id="path608" fill="url(#path608_1_)" d="M30.2,21.2c0.7,0.7,2,4.6,1.8,4.9 c-0.2,0.3-2.7-2-3.1-3.1C28.7,22.4,29.9,20.9,30.2,21.2z" nodetypes="csss"/><radialGradient id="path613_1_" cx="-195.875" cy="453.706" r=".089" fx="-195.875" fy="453.706" gradientTransform="matrix(17.4659 0 0 -45.5058 3448.4812 20671.2441)" gradientUnits="userSpaceOnUse"><stop style="stop-color:#fff" id="stop730" offset="0"/><stop style="stop-color:#fff" id="stop731" offset="1"/></radialGradient><path id="path613" fill="url(#path613_1_)" d="M26.8,23.6c0.4,0.6,1,4,0.9,4.2 c-0.1,0.2-1.4-1.8-1.6-2.7C26,24.6,26.6,23.3,26.8,23.6z" nodetypes="csss"/><linearGradient id="path614_1_" x1="-189.504" x2="-189.41" y1="452.121" y2="452.121" gradientTransform="matrix(199.7799 0 0 -121.934 37873.4922 55141.5898)" gradientUnits="userSpaceOnUse"><stop style="stop-color:#4f4a06" id="stop737" offset="0"/><stop style="stop-color:#575401" id="stop738" offset="1"/></linearGradient><path id="path614" fill="url(#path614_1_)" d="M24,7c5.6-0.1,10.4,3.9,9,6.8 C30.5,19.5,19.5,20.2,15,15C12.6,12.3,17.6,7,24,7z" nodetypes="csss"/><linearGradient id="path619_1_" x1="-189.57" x2="-189.76" y1="452.03" y2="452.084" gradientTransform="matrix(71.8194 0 0 -103.8746 13637.7852 46968.375)" gradientUnits="userSpaceOnUse"><stop style="stop-color:#fff" id="stop744" offset="0"/><stop style="stop-color:#fff" id="stop745" offset="1"/></linearGradient><path id="path619" fill="url(#path619_1_)" d="M20.3,18c-1.8-0.5-3.3-1.1-4.7-2.5 c0-4.4,3.6-6,6.8-7.3C20.3,10,16.9,14.1,20.3,18z" nodetypes="cccc"/><radialGradient id="path635_1_" cx="-189.274" cy="452.176" r=".048" fx="-189.274" fy="452.176" gradientTransform="matrix(89.8544 0 0 -141.4218 17023.9785 63959.5938)" gradientUnits="userSpaceOnUse"><stop style="stop-color:#fff" id="stop751" offset="0"/><stop style="stop-color:#ecfbfb" id="stop752" offset="1"/></radialGradient><path id="path756" fill="url(#path635_1_)" d="M17.3,5.4c-3.5,2.6-5.8,11.4,3.8,13.4 C9.6,17.6,11.3,7.4,17.3,5.4z" nodetypes="ccc"/><radialGradient id="path638_1_" cx="-191.049" cy="452.164" r=".047" fx="-191.049" fy="452.164" gradientTransform="matrix(81.1539 0 0 -157.3318 15536.042 71150.6016)" gradientUnits="userSpaceOnUse"><stop style="stop-color:#fff" id="stop758" offset="0"/><stop style="stop-color:#ecfbfb" id="stop759" offset="1"/></radialGradient><path id="path638" fill="url(#path638_1_)" d="M29.1,3.4c4.2,2.4,10.9,10-1.3,14.9 C40.1,14.4,35.4,5.4,29.1,3.4z" nodetypes="ccc"/><radialGradient id="path639_1_" cx="-189.517" cy="451.219" r=".184" fx="-189.517" fy="451.219" gradientTransform="matrix(187.4035 0 0 -86.4692 35539.3398 39034.0469)" gradientUnits="userSpaceOnUse"><stop style="stop-color:#000" id="stop765" offset="0"/><stop style="stop-color:#000001" id="stop766" offset="1"/></radialGradient><path id="path770" fill="url(#path639_1_)" d="M33.1,12.2c-0.3-3.5-9.6-8.9-17.7-1.5 C21.9-1,33.3,4.8,33.1,12.2z" nodetypes="ccc" opacity=".41"/><radialGradient id="path649_1_" cx="-189.208" cy="453.595" r=".075" fx="-189.208" fy="453.595" gradientTransform="matrix(418.8757 0 0 -202.6307 79278.1016 91939.5938)" gradientUnits="userSpaceOnUse"><stop style="stop-color:#000" id="stop772" offset="0"/><stop style="stop-color:#000001" id="stop773" offset="1"/></radialGradient><path id="path649" fill="url(#path649_1_)" d="M41.6,27.5C33.1,41.4,16,41.8,6.3,28.6 c-4.3,3.1-5,11.9,10.7,17C34,51.2,48,32.4,41.6,27.5z" nodetypes="ccsc" opacity=".3"/><radialGradient id="path651_1_" cx="-193.996" cy="449.67" r=".086" fx="-193.996" fy="449.67" gradientTransform="matrix(32.5311 0 0 -31.7565 6341.2056 14289.7402)" gradientUnits="userSpaceOnUse"><stop style="stop-color:#fff" id="stop779" offset="0"/><stop style="stop-color:#ecfbfb" id="stop780" offset="1"/></radialGradient><path id="path651" fill="url(#path651_1_)" d="M32.6,12.5c-1.3-1-1.5-1.1-3-1.4 c0.4-0.7,1.4-0.1,1.5-0.5c0.1-0.3-0.8-0.8-0.6-1.1C31,9.1,33.1,11.8,32.6,12.5z" nodetypes="ccssc"/></g><rect id="rect785" width="48" height="48" y="2.1" fill="none"/></g></svg>