<svg xmlns="http://www.w3.org/2000/svg" xmlns:xlink="http://www.w3.org/1999/xlink" id="svg602" width="50.8" height="48" enable-background="new 0 0 50.8 48" overflow="visible" viewBox="0 0 50.8 48" xml:space="preserve"><g id="Layer_1"><g id="g606"><g id="g607"><g id="path607" nodetypes="ccccccccccccccccc"><path id="path609" fill="none" stroke="#000" stroke-linecap="round" stroke-linejoin="round" stroke-width="1.369" d="M1.6,30.6c0.1,2.9,11.1,5,15.2,5c4.1,1.7,14.4,5.5,18.1,5.9c2,0.2,9.1,0,9-1.1c0-1.2-13.1-5.6-16.9-8.3 c2.7-2,10.5-4.3,16.3-14.1c1,0.2,4.9,1.8,5.9,1.3c0.7-0.8-2.5-4-4.2-5c0.5-3.5,0.5-7.2-0.5-9.8c-2.6,4-1.1,5.3-3.2,7.6 c-2.5-0.6-5.9-3.2-6.6-2.4c-0.4,0.7,1.4,3.3,2.4,5.1c-5.5-0.2-13.3-0.3-19.6,1C14.9,12,14.3,2.5,12.7,3 c-1.4,0-5.5,11.6-4.6,16.7c-0.5,2-1.4,3.2-2,5.2C4.6,26.8,1.2,28,1.6,30.6z" opacity=".052"/></g><g id="path606" nodetypes="ccccccccccccccccc"><path id="path611" fill="none" stroke="#000" stroke-linecap="round" stroke-linejoin="round" stroke-width="1.797" d="M1.6,30.6c0.1,2.9,11.1,5,15.2,5c4.1,1.7,14.4,5.5,18.1,5.9c2,0.2,9.1,0,9-1.1c0-1.2-13.1-5.6-16.9-8.3 c2.7-2,10.5-4.3,16.3-14.1c1,0.2,4.9,1.8,5.9,1.3c0.7-0.8-2.5-4-4.2-5c0.5-3.5,0.5-7.2-0.5-9.8c-2.6,4-1.1,5.3-3.2,7.6 c-2.5-0.6-5.9-3.2-6.6-2.4c-0.4,0.7,1.4,3.3,2.4,5.1c-5.5-0.2-13.3-0.3-19.6,1C14.9,12,14.3,2.5,12.7,3 c-1.4,0-5.5,11.6-4.6,16.7c-0.5,2-1.4,3.2-2,5.2C4.6,26.8,1.2,28,1.6,30.6z" opacity=".052"/></g><g id="path605" nodetypes="ccccccccccccccccc"><path id="path613" fill="none" stroke="#000" stroke-linecap="round" stroke-linejoin="round" stroke-width="2.468" d="M1.6,30.6c0.1,2.9,11.1,5,15.2,5c4.1,1.7,14.4,5.5,18.1,5.9c2,0.2,9.1,0,9-1.1c0-1.2-13.1-5.6-16.9-8.3 c2.7-2,10.5-4.3,16.3-14.1c1,0.2,4.9,1.8,5.9,1.3c0.7-0.8-2.5-4-4.2-5c0.5-3.5,0.5-7.2-0.5-9.8c-2.6,4-1.1,5.3-3.2,7.6 c-2.5-0.6-5.9-3.2-6.6-2.4c-0.4,0.7,1.4,3.3,2.4,5.1c-5.5-0.2-13.3-0.3-19.6,1C14.9,12,14.3,2.5,12.7,3 c-1.4,0-5.5,11.6-4.6,16.7c-0.5,2-1.4,3.2-2,5.2C4.6,26.8,1.2,28,1.6,30.6z" opacity=".052"/></g><g id="path604" nodetypes="ccccccccccccccccc"><path id="path615" fill="none" stroke="#000" stroke-linecap="round" stroke-linejoin="round" stroke-width="3.081" d="M1.6,30.6c0.1,2.9,11.1,5,15.2,5c4.1,1.7,14.4,5.5,18.1,5.9c2,0.2,9.1,0,9-1.1c0-1.2-13.1-5.6-16.9-8.3 c2.7-2,10.5-4.3,16.3-14.1c1,0.2,4.9,1.8,5.9,1.3c0.7-0.8-2.5-4-4.2-5c0.5-3.5,0.5-7.2-0.5-9.8c-2.6,4-1.1,5.3-3.2,7.6 c-2.5-0.6-5.9-3.2-6.6-2.4c-0.4,0.7,1.4,3.3,2.4,5.1c-5.5-0.2-13.3-0.3-19.6,1C14.9,12,14.3,2.5,12.7,3 c-1.4,0-5.5,11.6-4.6,16.7c-0.5,2-1.4,3.2-2,5.2C4.6,26.8,1.2,28,1.6,30.6z" opacity=".052"/></g><g id="path600" nodetypes="ccccc"><linearGradient id="XMLID_1_" x1="-170.013" x2="-169.955" y1="441.897" y2="441.803" gradientTransform="matrix(73.4445 0 0 -66.776 12510.8613 29545.1602)" gradientUnits="userSpaceOnUse"><stop style="stop-color:#ff6500" id="stop618" offset="0"/><stop style="stop-color:#ff0" id="stop619" offset="1"/></linearGradient><path id="path623" fill="url(#XMLID_1_)" d="M23.2,37.7c3.4-0.6,5.7-0.4,7.6,0.6c1.2,0.6,1,2.8,0.2,3.2 c-1.8,1.4-3.1,2.6-6.7,3.5C23.9,42.6,23.5,40.1,23.2,37.7z"/><path id="path624" fill="none" stroke="#000" stroke-width=".462" d="M23.2,37.7 c3.4-0.6,5.7-0.4,7.6,0.6c1.2,0.6,1,2.8,0.2,3.2c-1.8,1.4-3.1,2.6-6.7,3.5C23.9,42.6,23.5,40.1,23.2,37.7z" opacity=".668"/></g><g id="path595" cx="152.272" cy="885.709" rx="33.838" ry="34.684" type="arc"><radialGradient id="XMLID_2_" cx="-165.811" cy="441.806" r=".048" fx="-165.811" fy="441.806" gradientTransform="matrix(42.169 -32.3176 -30.9829 -52.6378 20703.0176 17938.1621)" gradientUnits="userSpaceOnUse"><stop style="stop-color:#ff6500" id="stop627" offset="0"/><stop style="stop-color:#ff0" id="stop628" offset="1"/></radialGradient><circle id="circle632" cx="23.3" cy="41.5" r="3" fill="url(#XMLID_2_)"/><circle id="circle633" cx="23.3" cy="41.5" r="3" fill="none" stroke="#000" stroke-width=".558" opacity=".668"/></g><g id="path601" nodetypes="ccccc"><linearGradient id="XMLID_3_" x1="-168.476" x2="-168.425" y1="438.998" y2="438.915" gradientTransform="matrix(79.2952 0 0 -61.9039 13369.9316 27186.4824)" gradientUnits="userSpaceOnUse"><stop style="stop-color:#ff6500" id="stop636" offset="0"/><stop style="stop-color:#ff0" id="stop637" offset="1"/></linearGradient><path id="path641" fill="url(#XMLID_3_)" d="M8.3,11.9c3.4-1.1,5.9-1.4,7.9-0.9c1.3,0.3,1.4,2.2,0.6,2.7 c-1.7,1.5-2.8,2.8-6.5,4.2C9.7,15.9,9,13.9,8.3,11.9z"/><path id="path642" fill="none" stroke="#000" stroke-width=".439" d="M8.3,11.9 c3.4-1.1,5.9-1.4,7.9-0.9c1.3,0.3,1.4,2.2,0.6,2.7c-1.7,1.5-2.8,2.8-6.5,4.2C9.7,15.9,9,13.9,8.3,11.9z" opacity=".668"/></g><g id="path602" cx="152.272" cy="885.709" rx="33.838" ry="34.684" type="arc"><radialGradient id="XMLID_4_" cx="-165.3" cy="438.021" r=".06" fx="-165.3" fy="438.021" gradientTransform="matrix(39.6973 -34.9927 -39.1046 -38.6031 23699.2773 11139.9717)" gradientUnits="userSpaceOnUse"><stop style="stop-color:#ff6500" id="stop645" offset="0"/><stop style="stop-color:#ff0" id="stop646" offset="1"/></radialGradient><circle id="circle650" cx="9" cy="15" r="3" fill="url(#XMLID_4_)"/><circle id="circle651" cx="9" cy="15" r="3" fill="none" stroke="#000" stroke-width=".558" opacity=".668"/></g><path id="path563" fill="#FF0" stroke="#000" stroke-linecap="round" stroke-linejoin="round" stroke-width=".998" d="M1.6,30.6c0.1,2.9,11.1,5,15.2,5c4.1,1.7,14.4,5.5,18.1,5.9c2,0.2,9.1,0,9-1.1c0-1.2-13.1-5.6-16.9-8.3 c2.7-2,10.5-4.3,16.3-14.1c1,0.2,4.9,1.8,5.9,1.3c0.7-0.8-2.5-4-4.2-5c0.5-3.5,0.2-7.5-0.5-9.8c-1.8,1.4-1.1,5.3-3.2,7.6 c-2.5-0.6-5.9-3.2-6.6-2.4c-0.4,0.7,0.9,3.2,2,5c-5.5-0.2-12.8-0.1-19.1,1.1C14.9,12,14.3,2.5,12.7,3c-1.4,0-5.5,11.6-4.6,16.7 c-0.5,2-1.4,3.2-2,5.2C4.6,26.8,1.2,28,1.6,30.6z" nodetypes="ccccccccccccccccc" opacity=".4"/><linearGradient id="path574_1_" x1="-2.882" x2="49.607" y1="22.934" y2="21.679" gradientUnits="userSpaceOnUse"><stop style="stop-color:#ffcd00" id="stop654" offset="0"/><stop style="stop-color:#ffaf00" id="stop655" offset=".345"/><stop style="stop-color:#ff6d00" id="stop656" offset="1"/></linearGradient><path id="path574" fill="url(#path574_1_)" stroke="#797C92" stroke-linecap="round" stroke-linejoin="round" stroke-width=".998" d="M1.6,30.6c0.1,2.9,11.1,5,15.2,5c4.1,1.7,14.4,5.5,18.1,5.9c2,0.2,9.1,0,9-1.1c0-1.2-13.1-5.6-16.9-8.3 c2.7-2,10.5-4.3,16.3-14.1c1,0.2,4.9,1.8,5.9,1.3c0.7-0.8-2.5-4-4.2-5c0.5-3.5,0.5-7.2-0.5-9.8c-2.6,4-1.1,5.3-3.2,7.6 c-2.5-0.6-5.9-3.2-6.6-2.4c-0.4,0.7,1.4,3.3,2.4,5.1c-5.5-0.2-13.3-0.3-19.6,1C14.9,12,14.3,2.5,12.7,3 c-1.4,0-5.5,11.6-4.6,16.7c-0.5,2-1.4,3.2-2,5.2C4.6,26.8,1.2,28,1.6,30.6z" nodetypes="ccccccccccccccccc"/><g id="path590"><radialGradient id="XMLID_5_" cx="-167.931" cy="441.476" r=".096" fx="-167.931" fy="441.476" gradientTransform="matrix(54.1411 0 0 -45.6816 9100.4297 20187.5352)" gradientUnits="userSpaceOnUse"><stop style="stop-color:#fff" id="stop663" offset="0"/><stop style="stop-color:#000052" id="stop664" offset="1"/></radialGradient><path id="path668" fill="url(#XMLID_5_)" d="M8.5,19.7c2.5,1.3,4.2,3,4.2,3l-0.9,2.2H6.5L8.5,19.7z" opacity=".706"/><path id="path669" fill="none" stroke="#000" stroke-width=".114" d="M8.5,19.7c2.5,1.3,4.2,3,4.2,3l-0.9,2.2H6.5 L8.5,19.7z"/></g><g id="path608" nodetypes="ccccc"><linearGradient id="XMLID_6_" x1="-169.171" x2="-169.146" y1="438.448" y2="438.404" gradientTransform="matrix(204.5767 0 0 -100.4939 34635.1172 44082.8203)" gradientUnits="userSpaceOnUse"><stop style="stop-color:#ffcd00" id="stop672" offset="0"/><stop style="stop-color:#ffca00" id="stop673" offset=".007"/><stop style="stop-color:#ffad00" id="stop674" offset=".098"/><stop style="stop-color:#ff9600" id="stop675" offset=".198"/><stop style="stop-color:#ff8400" id="stop676" offset=".312"/><stop style="stop-color:#f70" id="stop677" offset=".447"/><stop style="stop-color:#ff6f00" id="stop678" offset=".625"/><stop style="stop-color:#ff6d00" id="stop679" offset="1"/></linearGradient><path id="path683" fill="url(#XMLID_6_)" d="M17.4,26.7c0.2,0.8,0.5,1.8,0.7,2.6 c8.2-1,19.1-6.1,22.7-10.4c-0.2-0.4-0.5-0.7-0.7-1.1C36.1,21,25.6,25.3,17.4,26.7z" opacity=".995"/></g><radialGradient id="path584_1_" cx="-167.382" cy="436.835" r=".029" fx="-167.382" fy="436.835" gradientTransform="matrix(41.5034 0 0 -63.1053 6950.4326 27594.8438)" gradientUnits="userSpaceOnUse"><stop style="stop-color:#fff" id="stop685" offset="0"/><stop style="stop-color:#df0000" id="stop686" offset="1"/></radialGradient><path id="path584" fill="url(#path584_1_)" d="M2,30.4C1.9,28,3.9,27.1,5.5,26c2,3.7,1.3,5,0.1,7 C4.3,33,2.5,32.4,2,30.4z" nodetypes="cccc"/><path id="path582" fill="none" stroke="#797C92" stroke-linecap="round" stroke-linejoin="round" stroke-width=".913" d="M24.4,30.7c-3.1,1.5-4.7,1.7-10.1,3c3.3,2.6,10.3,4.9,15.2,6.3c1.7,0.5,3.5,1.1,5.3,1.3c2.2,0.5,7.4,0.8,8.9-1 C38.5,37.2,29.8,34,24.4,30.7z" nodetypes="cccccc"/><path id="path583" fill="none" stroke="#797C92" stroke-linecap="round" stroke-linejoin="round" stroke-width="1.084" d="M12.8,3c-2,0.1-5.5,12.3-4.8,17c0.4-1.5,4.6-3.4,9.6-4.3C15.3,12.6,14.1,3.1,12.8,3z" nodetypes="cccc"/></g><rect id="rect693" width="48" height="48" x="1.4" fill="none"/></g></g></svg>