<svg xmlns="http://www.w3.org/2000/svg" xmlns:xlink="http://www.w3.org/1999/xlink" id="svg602" width="48" height="49.9" enable-background="new 0 0 48 49.9" overflow="visible" viewBox="0 0 48 49.9" xml:space="preserve"><g id="Layer_1"><g id="g606"><g id="g607"><g id="g608" nodetypes="cccccssss"><g id="g609" opacity=".038"><path id="path610" fill="none" stroke="#000" stroke-linejoin="round" stroke-width="3.87" d="M35.7,19.7 C31.7,3.6,32.4,19.7,35.7,19.7z M7.1,33.4C20.9,33.5,10.5,46.6,7.1,33.4z M44.3,23.7c0,9.8-7.8,21.5-20.6,21.6 c-9.9-0.1-20.9-8.4-21-21.7C2.5,10.5,12.4,2.1,23.9,2.1C34.4,1.9,44.3,11.4,44.3,23.7z"/></g></g><g id="g611" nodetypes="cssssccccc"><g id="g612" opacity=".038"><path id="path613" fill="none" stroke="#000" stroke-linejoin="round" stroke-width="4.16" d="M44.3,23.7 c0,9.8-7.8,21.5-20.6,21.6c-9.9-0.1-20.9-8.4-21-21.7C2.5,10.5,12.4,2.1,23.9,2.1C34.4,1.9,44.3,11.4,44.3,23.7z M35.8,27 C33,41.5,31.4,27.1,35.8,27z M33.8,19c5.6-0.3-1.4,0.7,1.9,0.7C31.7,3.6,35.8,5.1,33.8,19z"/></g></g><g id="g614" nodetypes="csssscccc"><g id="g615" opacity=".038"><path id="path616" fill="none" stroke="#000" stroke-linejoin="round" stroke-width="3.322" d="M44.3,23.7 c0,9.8-7.8,21.5-20.6,21.6c-9.9-0.1-20.9-8.4-21-21.7C2.5,10.5,12.4,2.1,23.9,2.1C34.4,1.9,44.3,11.4,44.3,23.7z M35.8,26.9 C33,41.4,31.4,26.9,35.8,26.9z M11,19.7C16.6,19.4,13.1,5.7,11,19.7z"/></g></g><radialGradient id="path700_1_" cx="24" cy="39.939" r="17.36" fx="24" fy="39.939" gradientUnits="userSpaceOnUse"><stop style="stop-color:#000" id="stop618" offset="0"/><stop style="stop-color:#fff" id="stop619" offset="1"/></radialGradient><path id="path700" fill="url(#path700_1_)" d="M6,30.3c-8,5-4.8,9.6,4.2,17 c3.6,3.4,25.3,3.4,33.3-1.7c6.7-4.3,1.1-5.5-4.7-12.6c-4.8,3.8-9.8,6.5-19,6C12.1,37.2,10.5,36.1,6,30.3z" nodetypes="cccccc" opacity=".4"/><linearGradient id="path652_1_" x1="-193.74" x2="-193.744" y1="491.907" y2="491.993" gradientTransform="matrix(281.6937 0 0 -291.5229 54598.6406 143437.9531)" gradientUnits="userSpaceOnUse"><stop style="stop-color:#fff" id="stop625" offset="0"/><stop style="stop-color:#8f8f97" id="stop626" offset="1"/></linearGradient><path id="path652" cx="334.997" cy="604.854" fill="url(#path652_1_)" d="M41.2,23.2C41.2,12.9,33,4.5,23,4.5c-10,0-18.1,8.4-18.1,18.8l0,0C4.9,33.6,13,42,23,42C33,42,41.2,33.6,41.2,23.2z" rx="72.329" ry="70.637" type="arc"/><path id="path721" cx="152.694" cy="648.42" fill="#070702" d="M25.5,36.5c0-0.9-0.7-1.7-1.6-1.7c-0.9,0-1.6,0.8-1.6,1.7c0,0,0,0,0,0c0,0.9,0.7,1.7,1.6,1.7C24.8,38.2,25.5,37.4,25.5,36.5 C25.5,36.5,25.5,36.5,25.5,36.5z" rx="8.037" ry="7.191" type="arc"/><radialGradient id="XMLID_1_" cx="-193.713" cy="491.884" r=".06" fx="-193.713" fy="491.884" gradientTransform="matrix(323.4454 0 0 -335.7283 62679.0938 165182.3906)" gradientUnits="userSpaceOnUse"><stop style="stop-color:#ffdf00" id="stop633" offset="0"/><stop style="stop-color:#ffaa0a" id="stop634" offset="1"/></radialGradient><path id="path638" fill="url(#XMLID_1_)" stroke="#868A68" stroke-width=".695" d="M8.6,23.4 c0.3,11.3,8.6,16,15.2,16.1c10.4,0,14.9-8.9,14.9-15.9c0-7-6-16.3-15.5-15.8C12.5,8.3,8.5,16.8,8.6,23.4z M22.6,24 c-2.3-2.2,3.1-12,4-12.8C32.2,6,25.8,26.9,22.6,24z M44.3,23.7c0,9.8-7.8,21.5-20.6,21.6c-9.9-0.1-20.9-8.4-21-21.7 C2.5,10.5,12.4,2.1,23.9,2.1C34.4,1.9,44.3,11.4,44.3,23.7z M28.4,37.6c2.6-0.4-3-13.9-5.5-13.3C20.4,24.9,24.3,36.3,28.4,37.6 z" nodetypes="csssscsscsssscsc"/><path id="path720" cx="152.694" cy="648.42" fill="#070702" d="M25.2,10.6c0-0.9-0.8-1.7-1.7-1.7c-1,0-1.7,0.8-1.7,1.7c0,0,0,0,0,0c0,0.9,0.8,1.7,1.7,1.7C24.4,12.3,25.2,11.5,25.2,10.6 C25.2,10.6,25.2,10.6,25.2,10.6z" rx="8.037" ry="7.191" type="arc"/><path id="path659" fill="#FFF" d="M23.9,21 c14.9-0.3,14-6.5,12.6-11.1c-2-4.7-5.1-7.6-12.5-7.8c-7.8,0-12.2,2.8-14.4,8.7C8.2,14.9,9.3,20.7,23.9,21z" nodetypes="ccccc" opacity=".6"/><path id="path722" cx="152.694" cy="648.42" fill="#070702" d="M12.9,23.3c0-0.9-0.7-1.7-1.6-1.7c-0.9,0-1.6,0.8-1.6,1.7c0,0,0,0,0,0c0,0.9,0.7,1.7,1.6,1.7S12.9,24.3,12.9,23.3 C12.9,23.3,12.9,23.3,12.9,23.3z" rx="8.037" ry="7.191" type="arc"/><path id="path723" cx="152.694" cy="648.42" fill="#070702" d="M37.9,23c0-0.9-0.7-1.7-1.6-1.7c-0.9,0-1.6,0.8-1.6,1.7c0,0,0,0,0,0c0,0.9,0.7,1.7,1.6,1.7C37.2,24.7,37.9,23.9,37.9,23 C37.9,23,37.9,23,37.9,23z" rx="8.037" ry="7.191" type="arc"/></g><rect id="rect643" width="48" height="48" y="1.9" fill="none" opacity=".4"/></g></g></svg>