<svg xmlns="http://www.w3.org/2000/svg" xmlns:xlink="http://www.w3.org/1999/xlink" id="svg602" width="51.3" height="48" enable-background="new 0 0 51.3 48" overflow="visible" viewBox="0 0 51.3 48" xml:space="preserve"><g id="Layer_1"><g id="g606"><g id="path587" nodetypes="ccccc"><path id="path608" fill="none" stroke="#000" stroke-linejoin="round" stroke-width=".754" d="M10.1,36c-2.7,0.3-5.6,0.1-8.3-0.1C2.3,3.9,49.1,4.1,49.4,36.1c-2.5,0-5.5,0.1-8.5,0.1C41.2,15.7,10.9,14,10.1,36z" opacity=".033"/></g><g id="path586" nodetypes="ccccc"><path id="path610" fill="none" stroke="#000" stroke-linejoin="round" stroke-width=".934" d="M10.1,36c-2.7,0.3-5.6,0.1-8.3-0.1C2.3,3.9,49.1,4.1,49.4,36.1c-2.5,0-5.5,0.1-8.5,0.1C41.2,15.7,10.9,14,10.1,36z" opacity=".033"/></g><g id="path585" nodetypes="ccccc"><path id="path612" fill="none" stroke="#000" stroke-linejoin="round" stroke-width="1.226" d="M10.1,36c-2.7,0.3-5.6,0.1-8.3-0.1C2.3,3.9,49.1,4.1,49.4,36.1c-2.5,0-5.5,0.1-8.5,0.1C41.2,15.7,10.9,14,10.1,36z" opacity=".033"/></g><g id="path584" nodetypes="ccccc"><path id="path614" fill="none" stroke="#000" stroke-linejoin="round" stroke-width="1.496" d="M10.1,36c-2.7,0.3-5.6,0.1-8.3-0.1C2.3,3.9,49.1,4.1,49.4,36.1c-2.5,0-5.5,0.1-8.5,0.1C41.2,15.7,10.9,14,10.1,36z" opacity=".033"/></g><g id="path583" nodetypes="ccccc"><path id="path616" fill="none" stroke="#000" stroke-linejoin="round" stroke-width="1.913" d="M10.1,36c-2.7,0.3-5.6,0.1-8.3-0.1C2.3,3.9,49.1,4.1,49.4,36.1c-2.5,0-5.5,0.1-8.5,0.1C41.2,15.7,10.9,14,10.1,36z" opacity=".033"/></g><g id="path582" nodetypes="ccccc"><path id="path618" fill="none" stroke="#000" stroke-linejoin="round" stroke-width="2.239" d="M10.1,36c-2.7,0.3-5.6,0.1-8.3-0.1C2.3,3.9,49.1,4.1,49.4,36.1c-2.5,0-5.5,0.1-8.5,0.1C41.2,15.7,10.9,14,10.1,36z" opacity=".033"/></g><g id="path581" nodetypes="ccccc"><path id="path620" fill="none" stroke="#000" stroke-linejoin="round" stroke-width="2.61" d="M10.1,36c-2.7,0.3-5.6,0.1-8.3-0.1C2.3,3.9,49.1,4.1,49.4,36.1c-2.5,0-5.5,0.1-8.5,0.1C41.2,15.7,10.9,14,10.1,36z" opacity=".033"/></g><g id="path580" nodetypes="ccccc"><path id="path622" fill="none" stroke="#000" stroke-linejoin="round" stroke-width="3.15" d="M10.1,36c-2.7,0.3-5.6,0.1-8.3-0.1C2.3,3.9,49.1,4.1,49.4,36.1c-2.5,0-5.5,0.1-8.5,0.1C41.2,15.7,10.9,14,10.1,36z" opacity=".033"/></g><g id="path579" nodetypes="ccccc"><path id="path624" fill="none" stroke="#000" stroke-linejoin="round" stroke-width="3.679" d="M10.1,36c-2.7,0.3-5.6,0.1-8.3-0.1C2.3,3.9,49.1,4.1,49.4,36.1c-2.5,0-5.5,0.1-8.5,0.1C41.2,15.7,10.9,14,10.1,36z" opacity=".033"/></g><g id="path563" nodetypes="cscccc"><path id="path626" fill="#FF0" d="M2,36.1c0.1-16,11.8-24.2,23.7-24.3c11.9-0.1,23.7,7.9,23.6,24.3 c-0.1-0.1-2.2,0.1-3.3,0C45.7,7.8,5.5,9,5.3,36.2C3.7,36.3,3.1,36,2,36.1z" opacity=".9"/></g><g id="path564" nodetypes="cscccc"><path id="path628" fill="#F0F" d="M3.6,36.2c0.1-14.9,11-22.6,22-22.7c11-0.1,22,7.4,21.9,22.7 c-0.1,0-2.1,0.1-3.1,0C44.1,9.7,6.8,10.8,6.6,36.2C5.7,36.3,4.8,36.2,3.6,36.2z" opacity=".754"/></g><g id="path565" nodetypes="cscccc"><path id="path630" fill="#0FF" d="M5.6,36.2c0.1-13.7,9.9-20.7,19.9-20.8c10-0.1,19.9,6.8,19.8,20.8 c-0.1,0-1.9,0.1-2.8,0C42.3,12,8.6,12.9,8.4,36.3C7.5,36.2,6.9,36.4,5.6,36.2z" opacity=".654"/></g><g id="path566" nodetypes="cscccc"><path id="path632" fill="#EB0000" d="M8.2,36.3c0.1-11.8,8.6-17.8,17.3-17.9c8.7-0.1,17.3,5.8,17.2,17.9 c-0.1,0-0.9-0.2-1.8,0C40.8,15,10.4,14.9,10.1,36.2C9.2,36.1,9.2,36.2,8.2,36.3z" opacity=".668"/></g><g id="path578" nodetypes="ccccc" opacity=".28"><radialGradient id="XMLID_1_" cx="-178.541" cy="464.547" r=".045" fx="-178.541" fy="464.547" gradientTransform="matrix(528.7888 0 0 -268.8828 94436.2031 124932.6406)" gradientUnits="userSpaceOnUse"><stop style="stop-color:#fff" id="stop635" offset="0"/><stop style="stop-color:#727272" id="stop636" offset="1"/></radialGradient><path id="path640" fill="url(#XMLID_1_)" d="M10.1,36c-2.7,0.3-5.6,0.1-8.3-0.1C2.3,3.9,49.1,4.1,49.4,36.1 c-2.5,0-5.5,0.1-8.5,0.1C41.2,15.7,10.9,14,10.1,36z"/><path id="path641" fill="none" stroke="#000" stroke-width=".439" d="M10.1,36 c-2.7,0.3-5.6,0.1-8.3-0.1C2.3,3.9,49.1,4.1,49.4,36.1c-2.5,0-5.5,0.1-8.5,0.1C41.2,15.7,10.9,14,10.1,36z" opacity=".284"/></g><g id="path572" nodetypes="ccccc" opacity=".05"><radialGradient id="XMLID_2_" cx="-178.549" cy="464.477" r=".115" fx="-178.549" fy="464.477" gradientTransform="matrix(528.7888 0 0 -268.8828 94436.2031 124932.6406)" gradientUnits="userSpaceOnUse"><stop style="stop-color:#fff" id="stop644" offset="0"/><stop style="stop-color:#fff" id="stop645" offset="1"/></radialGradient><path id="path649" fill="url(#XMLID_2_)" d="M10.1,36c-2.7,0.3-5.6,0.1-8.3-0.1C2.3,3.9,49.1,4.1,49.4,36.1 c-2.5,0-5.5,0.1-8.5,0.1C41.2,15.7,10.9,14,10.1,36z"/><path id="path650" fill="none" stroke="#000" stroke-width=".439" d="M10.1,36 c-2.7,0.3-5.6,0.1-8.3-0.1C2.3,3.9,49.1,4.1,49.4,36.1c-2.5,0-5.5,0.1-8.5,0.1C41.2,15.7,10.9,14,10.1,36z" opacity=".284"/></g><radialGradient id="path567_1_" cx="-178.581" cy="463.871" r=".092" fx="-178.581" fy="463.871" gradientTransform="matrix(208.7519 0 0 -87.954 37304.3203 40810.9258)" gradientUnits="userSpaceOnUse"><stop style="stop-color:#fff" id="stop652" offset=".006"/><stop style="stop-color:#fcfcfc" id="stop653" offset=".271"/><stop style="stop-color:#f3f3f3" id="stop654" offset=".458"/><stop style="stop-color:#e3e3e3" id="stop655" offset=".621"/><stop style="stop-color:#cdcdcd" id="stop656" offset=".77"/><stop style="stop-color:#b1b1b1" id="stop657" offset=".908"/><stop style="stop-color:#9a9a9a" id="stop658" offset="1"/></radialGradient><path id="path567" fill="url(#path567_1_)" d="M25.4,11.7c-4.6,0.1-8.9,2.3-9.5,3.9 c-0.9,2.5,2.3,3.9,9.4,4c6.4,0,10.1-1.9,9.1-4.1C33.8,13.9,30.6,11.6,25.4,11.7z" nodetypes="cssss" opacity=".6"/></g><rect id="rect663" width="48" height="48" x="1.6" fill="none" opacity=".6"/></g></svg>