<svg xmlns="http://www.w3.org/2000/svg" xmlns:xlink="http://www.w3.org/1999/xlink" id="svg602" width="49.2" height="48" enable-background="new 0 0 49.2 48" overflow="visible" viewBox="0 0 49.2 48" xml:space="preserve"><g id="Layer_1"><g id="g606"><g id="g607"><radialGradient id="path633_1_" cx="-201.12" cy="455.809" r=".084" fx="-201.15" fy="455.887" gradientTransform="matrix(522.8659 0 0 -191.6858 105183.0469 87415.1719)" gradientUnits="userSpaceOnUse"><stop style="stop-color:#000" id="stop609" offset="0"/><stop style="stop-color:#fff" id="stop610" offset="1"/></radialGradient><path id="path633" fill="url(#path633_1_)" d="M24.4,43.3C8.8,43.2,2.1,39.5,2.1,37 c-0.2-4.2,12.5-10.1,12.7-10.2c0.1-0.1,16.5,0.1,19.8,0.1c0.2,0,12.7,4.4,12.5,9.8C47.2,39.2,41.7,43.4,24.4,43.3z" nodetypes="csssss" opacity=".2"/><linearGradient id="path649_1_" x1="-8086.464" x2="-8087.193" y1="-8131.519" y2="-8130.834" gradientUnits="userSpaceOnUse"><stop style="stop-color:#000082" id="stop616" offset="0"/><stop style="stop-color:#000" id="stop617" offset="1"/></linearGradient><path id="path649" fill="none" stroke="url(#path649_1_)" stroke-linejoin="round" stroke-width="1.9" d="M12.3,10.6C12.5,10.4,1,23.9,1,23.9l8.7,12.8l5-7.3l4.8,9.6c0.2,0.4,3.7-7.3,5.6-7.1c2.1,0,5,7.3,5,7.3l4.6-9.8l4.5,8.8 c0,0,8.9-12.5,9-12.5c0.1,0-10.9-14.7-10.9-14.7l-8.6,8.6l0.1-14.6L26.8,10l-3.6-0.1l-2-5l0.1,14.4L12.3,10.6z" nodetypes="ccccsscccccccccccc"/><linearGradient id="path649_3_" x1=".865" x2="48.145" y1="21.87" y2="21.87" gradientUnits="userSpaceOnUse"><stop style="stop-color:#fff" id="stop623" offset="0"/><stop style="stop-color:#969696" id="stop624" offset=".368"/><stop style="stop-color:#454545" id="stop625" offset=".677"/><stop style="stop-color:#131313" id="stop626" offset=".893"/><stop style="stop-color:#000" id="stop627" offset="1"/></linearGradient><path id="path649_2_" fill="url(#path649_3_)" d="M12.3,10.4 c0.1-0.1-11.4,13.3-11.4,13.3l8.7,12.8l5-7.3l4.8,9.6c0.2,0.4,3.7-7.3,5.6-7.2c2.1,0,5,7.3,5,7.3l4.6-9.8l4.5,8.8 c0,0,8.9-12.5,9-12.5c0.1,0-10.9-14.7-10.9-14.7l-8.6,8.6l0.1-14.6l-2.1,5.1l-3.6-0.1l-2-5l0.1,14.4L12.3,10.4z" nodetypes="ccccsscccccccccccc"/><linearGradient id="path654_1_" x1="20.788" x2="33.265" y1="31.976" y2="9.158" gradientUnits="userSpaceOnUse"><stop style="stop-color:#fff" id="stop633" offset="0"/><stop style="stop-color:#f9f9f9" id="stop634" offset=".091"/><stop style="stop-color:#e7e7e7" id="stop635" offset=".217"/><stop style="stop-color:#cacaca" id="stop636" offset=".363"/><stop style="stop-color:#a1a1a1" id="stop637" offset=".525"/><stop style="stop-color:#6d6d6d" id="stop638" offset=".698"/><stop style="stop-color:#2e2e2e" id="stop639" offset=".88"/><stop style="stop-color:#000" id="stop640" offset="1"/></linearGradient><path id="path654" fill="url(#path654_1_)" d="M12.3,10.5 c0.1-0.1-7.8,8.9-10.3,11.6c2.5,0.3,11.3,7.9,22.4,3.1c11.8-5.3,22.6,1.3,24.2,0.1c-1-0.9-11.2-14.5-11.2-14.5l-8.6,8.5 l0.1-14.4l-2.1,5l-3.6-0.1l-2-4.9l0.1,14.2L12.3,10.5z" nodetypes="ccsccccccccc" opacity=".7"/><radialGradient id="path655_1_" cx="-202.413" cy="453.338" r=".071" fx="-202.413" fy="453.338" gradientTransform="matrix(40.9161 0.8011 1.1069 -44.1805 7802.0806 20202.7031)" gradientUnits="userSpaceOnUse"><stop style="stop-color:#fff" id="stop646" offset="0"/><stop style="stop-color:#000" id="stop647" offset="1"/></radialGradient><radialGradient id="path655_2_" cx="-200.03" cy="454.803" r=".367" fx="-200.03" fy="454.803" gradientUnits="userSpaceOnUse"><stop style="stop-color:#a6002f" id="stop652" offset="0"/><stop style="stop-color:#200" id="stop653" offset="1"/></radialGradient><path id="path655" cx="-84.595" cy="547.329" fill="url(#path655_1_)" stroke="url(#path655_2_)" stroke-width=".086" d="M24.5,12.5c0-1.1-0.7-1.9-1.7-1.9c-1,0-1.8,0.8-1.8,1.9c0,0,0,0,0,0c0,1.1,0.7,1.9,1.7,1.9C23.6,14.4,24.4,13.6,24.5,12.5 C24.5,12.5,24.5,12.5,24.5,12.5z" rx="28.762" ry="31.3" type="arc"/><radialGradient id="path660_1_" cx="-203.645" cy="453.354" r=".071" fx="-203.645" fy="453.354" gradientTransform="matrix(40.9161 0.8011 1.1069 -44.1805 7857.2368 20204.5781)" gradientUnits="userSpaceOnUse"><stop style="stop-color:#fff" id="stop659" offset="0"/><stop style="stop-color:#000" id="stop660" offset="1"/></radialGradient><path id="path660" cx="-84.595" cy="547.329" fill="url(#path660_1_)" stroke="url(#path655_2_)" stroke-width=".086" d="M29.2,12.7c0-1.1-0.7-1.9-1.7-1.9c-1,0-1.8,0.8-1.8,1.9c0,0,0,0,0,0c0,1.1,0.7,1.9,1.7,1.9C28.4,14.6,29.2,13.7,29.2,12.7 C29.2,12.7,29.2,12.7,29.2,12.7z" rx="28.762" ry="31.3" type="arc"/></g><rect id="rect665" width="48" height="48" x=".7" fill="none"/></g></g></svg>