<svg xmlns="http://www.w3.org/2000/svg" xmlns:xlink="http://www.w3.org/1999/xlink" id="svg602" width="48" height="48.5" enable-background="new 0 0 48 48.5" overflow="visible" viewBox="0 0 48 48.5" xml:space="preserve"><g id="Layer_1"><g id="g606"><g id="g607"><g id="path564" nodetypes="cccccccss"><linearGradient id="XMLID_1_" x1="-109.559" x2="-109.559" y1="486.359" y2="486.417" gradientTransform="matrix(401.0489 0 0 -354.9566 43962.8555 172692.8125)" gradientUnits="userSpaceOnUse"><stop style="stop-color:#ffba00" id="stop610" offset="0"/><stop style="stop-color:#ff0" id="stop611" offset="1"/></linearGradient><path id="path615" fill="url(#XMLID_1_)" d="M9.3,34.2c-6.5-3.5-8.7-16.6-2.4-21.8c-2.9-4.2-2.6-8-3.8-12 c4,0,7.9,2.4,9.5,5c6.9-3.8,15.9-4.1,22,0.4c2.9-2.6,6.4-4.2,10.5-5c-1.3,4.2-1.1,10-4,12.5c5.8,4.4,2.6,18-4.2,21 C27.2,38.6,17.5,38.9,9.3,34.2z"/><path id="path616" fill="none" stroke="#5A1A1D" stroke-linejoin="round" stroke-width=".997" d="M9.3,34.2c-6.5-3.5-8.7-16.6-2.4-21.8c-2.9-4.2-2.6-8-3.8-12c4,0,7.9,2.4,9.5,5c6.9-3.8,15.9-4.1,22,0.4 c2.9-2.6,6.4-4.2,10.5-5c-1.3,4.2-1.1,10-4,12.5c5.8,4.4,2.6,18-4.2,21C27.2,38.6,17.5,38.9,9.3,34.2z" opacity=".465"/></g><radialGradient id="path700_1_" cx="-109.445" cy="487.15" r=".045" fx="-109.445" fy="487.15" gradientTransform="matrix(409.2627 0 0 -174.5831 44814.543 85087.0625)" gradientUnits="userSpaceOnUse"><stop style="stop-color:#261700" id="stop618" offset="0"/><stop style="stop-color:#fff" id="stop619" offset="1"/></radialGradient><path id="path700" fill="url(#path700_1_)" d="M40.2,30.5c7.6,4.9,7,11.4-2.2,15.4 c-9.2,4-22.8,3.3-30.4-1.6C1.2,40.1,0.9,34.5,7,30.2c3.9,5.1,7.3,6.8,16.4,7.9C31,38,35.9,34.7,40.2,30.5z" nodetypes="cccccc" opacity=".4"/><linearGradient id="path597_1_" x1="-109.46" x2="-109.461" y1="486.164" y2="486.063" gradientTransform="matrix(378.629 0 0 -333.0405 41468.5781 161915.9375)" gradientUnits="userSpaceOnUse"><stop style="stop-color:#eb852f" id="stop625" offset="0"/><stop style="stop-color:#ff0" id="stop626" offset="1"/></linearGradient><path id="path597" fill="url(#path597_1_)" d="M3.7,18.8c0.9-4.2,6.7-16.4,19.1-16.3 c11.1,0.2,18.5,7.6,20.8,15.7c1.9,12.3-10.4,18.7-21.2,18.7C11.5,36.8,2.5,30.6,3.7,18.8z" nodetypes="ccccc"/><radialGradient id="path587_1_" cx="-110.049" cy="484.898" r=".072" fx="-110.049" fy="484.898" gradientTransform="matrix(160.9175 0 0 -72.8419 17731.2441 35327.0938)" gradientUnits="userSpaceOnUse"><stop style="stop-color:#fff" id="stop632" offset="0"/><stop style="stop-color:#f5ffff" id="stop633" offset="1"/></radialGradient><path id="path587" fill="url(#path587_1_)" d="M23.2,10.6c-7.3-0.1-9-2.7-8.3-4 c0.8-1.4,3.6-3.5,8.3-3.6c4.6-0.1,7.1,1.7,8.2,3.4C32.1,7.6,30.3,10.5,23.2,10.6z" nodetypes="ccccc" opacity=".4"/><radialGradient id="path630_1_" cx="-104.945" cy="486.123" r=".071" fx="-104.945" fy="486.123" gradientTransform="matrix(-58.7614 0 0 -73.9179 -6135.8896 35951.5781)" gradientUnits="userSpaceOnUse"><stop style="stop-color:#dee2e7" id="stop639" offset="0"/><stop style="stop-color:#fff" id="stop640" offset="1"/></radialGradient><path id="path630" cx="50.247" cy="478.41" fill="url(#path630_1_)" stroke="#7C5202" stroke-width=".431" d="M28.6,17.4c0-2.1,1.4-3.9,3.1-3.9c1.7,0,3.1,1.7,3.1,3.9c0,0,0,0,0,0c0,2.1-1.4,3.9-3.1,3.9C30,21.2,28.6,19.5,28.6,17.4 C28.6,17.4,28.6,17.4,28.6,17.4z" rx="24.525" ry="34.993" type="arc"/><g id="path631" cx="50.097" cy="476.765" rx="28.862" ry="41.424" type="arc"><path id="path646" fill="none" stroke="#000" stroke-width=".392" d="M28.2,17.3 c0-2.4,1.6-4.3,3.6-4.3c2,0,3.6,1.9,3.6,4.3c0,0,0,0,0,0c0,2.4-1.6,4.3-3.6,4.3C29.7,21.6,28.2,19.7,28.2,17.3 C28.2,17.3,28.2,17.3,28.2,17.3z" opacity=".038"/></g><g id="path632" cx="50.097" cy="476.765" rx="28.862" ry="41.424" type="arc"><path id="path648" fill="none" stroke="#000" stroke-width="1.364" d="M28.2,17.4 c0-2.3,1.6-4.2,3.6-4.2c2,0,3.6,1.9,3.6,4.2c0,0,0,0,0,0c0,2.3-1.6,4.2-3.6,4.2C29.7,21.6,28.2,19.7,28.2,17.4 C28.2,17.4,28.2,17.4,28.2,17.4z" opacity=".014"/></g><g id="path633" cx="50.097" cy="476.765" rx="28.862" ry="41.424" type="arc"><path id="path650" fill="none" stroke="#000" stroke-width=".862" d="M28.2,17.4 c0-2.3,1.6-4.2,3.6-4.2c2,0,3.6,1.9,3.6,4.2c0,0,0,0,0,0c0,2.3-1.6,4.2-3.6,4.2C29.7,21.6,28.2,19.7,28.2,17.4 C28.2,17.4,28.2,17.4,28.2,17.4z" opacity=".014"/></g><g id="path634" cx="50.097" cy="476.765" rx="28.862" ry="41.424" type="arc"><path id="path652" fill="none" stroke="#000" stroke-width=".297" d="M28.2,17.4 c0-2.3,1.6-4.2,3.6-4.2c2,0,3.6,1.9,3.6,4.2c0,0,0,0,0,0c0,2.3-1.6,4.2-3.6,4.2C29.7,21.6,28.2,19.7,28.2,17.4 C28.2,17.4,28.2,17.4,28.2,17.4z" opacity=".014"/></g><g id="path635" cx="50.097" cy="476.765" rx="28.862" ry="41.424" type="arc"><path id="path654" fill="none" stroke="#000" stroke-width=".149" d="M28.3,17.4 c0-2.3,1.5-4.2,3.4-4.2c1.9,0,3.4,1.9,3.4,4.2c0,0,0,0,0,0c0,2.3-1.5,4.2-3.4,4.2C29.8,21.5,28.3,19.7,28.3,17.4 C28.3,17.4,28.3,17.4,28.3,17.4z" opacity=".152"/></g><radialGradient id="path637_1_" cx="-99.477" cy="486.987" r=".065" fx="-99.477" fy="486.987" gradientTransform="matrix(-24.4725 0 0 -23.5935 -2402.8103 11508.0371)" gradientUnits="userSpaceOnUse"><stop style="stop-color:#000082" id="stop656" offset="0"/><stop style="stop-color:#000" id="stop657" offset="1"/></radialGradient><path id="path637" cx="61.649" cy="495.829" fill="url(#path637_1_)" d="M29.9,19c0-0.7,0.6-1.2,1.3-1.2c0.7,0,1.3,0.6,1.3,1.2c0,0,0,0,0,0c0,0.7-0.6,1.2-1.3,1.2C30.5,20.2,29.9,19.7,29.9,19L29.9,19 z" rx="10.469" ry="10.892" type="arc"/><radialGradient id="path650_1_" cx="-110.618" cy="486.123" r=".071" fx="-110.618" fy="486.123" gradientTransform="matrix(58.7614 0 0 -73.9179 6515.8496 35951.5781)" gradientUnits="userSpaceOnUse"><stop style="stop-color:#dee2e7" id="stop663" offset="0"/><stop style="stop-color:#fff" id="stop664" offset="1"/></radialGradient><path id="path668" cx="50.247" cy="478.41" fill="url(#path650_1_)" stroke="#7C3902" stroke-width=".431" d="M18,17.4c0-2.1-1.4-3.9-3.1-3.9c-1.7,0-3.1,1.7-3.1,3.9c0,0,0,0,0,0c0,2.1,1.4,3.9,3.1,3.9C16.6,21.2,18,19.5,18,17.4 C18,17.4,18,17.4,18,17.4z" rx="24.525" ry="34.993" type="arc"/><g id="path651" cx="50.097" cy="476.765" rx="28.862" ry="41.424" type="arc"><path id="path670" fill="none" stroke="#000" stroke-width=".392" d="M18.5,17.3 c0-2.4-1.6-4.3-3.6-4.3c-2,0-3.6,1.9-3.6,4.3c0,0,0,0,0,0c0,2.4,1.6,4.3,3.6,4.3C16.9,21.6,18.5,19.7,18.5,17.3 C18.5,17.3,18.5,17.3,18.5,17.3z" opacity=".038"/></g><g id="g671" cx="50.097" cy="476.765" rx="28.862" ry="41.424" type="arc"><path id="path672" fill="none" stroke="#000" stroke-width="1.364" d="M18.5,17.4 c0-2.3-1.6-4.2-3.6-4.2c-2,0-3.6,1.9-3.6,4.2c0,0,0,0,0,0c0,2.3,1.6,4.2,3.6,4.2C16.9,21.6,18.5,19.7,18.5,17.4 C18.5,17.4,18.5,17.4,18.5,17.4z" opacity=".014"/></g><g id="path653" cx="50.097" cy="476.765" rx="28.862" ry="41.424" type="arc"><path id="path674" fill="none" stroke="#000" stroke-width=".862" d="M18.5,17.4 c0-2.3-1.6-4.2-3.6-4.2c-2,0-3.6,1.9-3.6,4.2c0,0,0,0,0,0c0,2.3,1.6,4.2,3.6,4.2C16.9,21.6,18.5,19.7,18.5,17.4 C18.5,17.4,18.5,17.4,18.5,17.4z" opacity=".014"/></g><g id="g675" cx="50.097" cy="476.765" rx="28.862" ry="41.424" type="arc"><path id="path676" fill="none" stroke="#000" stroke-width=".297" d="M18.5,17.4 c0-2.3-1.6-4.2-3.6-4.2c-2,0-3.6,1.9-3.6,4.2c0,0,0,0,0,0c0,2.3,1.6,4.2,3.6,4.2C16.9,21.6,18.5,19.7,18.5,17.4 C18.5,17.4,18.5,17.4,18.5,17.4z" opacity=".014"/></g><g id="path655" cx="50.097" cy="476.765" rx="28.862" ry="41.424" type="arc"><path id="path678" fill="none" stroke="#000" stroke-width=".149" d="M18.3,17.4 c0-2.3-1.5-4.2-3.4-4.2c-1.9,0-3.4,1.9-3.4,4.2c0,0,0,0,0,0c0,2.3,1.5,4.2,3.4,4.2C16.8,21.5,18.3,19.7,18.3,17.4 C18.3,17.4,18.3,17.4,18.3,17.4z" opacity=".152"/></g><radialGradient id="path656_1_" cx="-113.098" cy="486.987" r=".065" fx="-113.098" fy="486.987" gradientTransform="matrix(24.4725 0 0 -23.5935 2782.7859 11508.0371)" gradientUnits="userSpaceOnUse"><stop style="stop-color:#000082" id="stop680" offset="0"/><stop style="stop-color:#000" id="stop681" offset="1"/></radialGradient><path id="path656" cx="61.649" cy="495.829" fill="url(#path656_1_)" d="M16.7,19c0-0.7-0.6-1.2-1.3-1.2c-0.7,0-1.3,0.6-1.3,1.2c0,0,0,0,0,0c0,0.7,0.6,1.2,1.3,1.2C16.2,20.2,16.7,19.7,16.7,19 L16.7,19z" rx="10.469" ry="10.892" type="arc"/><linearGradient id="path737_1_" x1="-109.469" x2="-109.645" y1="485.08" y2="485.027" gradientTransform="matrix(40.2202 0 0 -79.9116 4412.7334 38768.3438)" gradientUnits="userSpaceOnUse"><stop style="stop-color:#261700" id="stop687" offset="0"/><stop style="stop-color:#5a4f1f" id="stop688" offset="1"/></linearGradient><path id="path737" fill="url(#path737_1_)" d="M5.8,3.5c2.1,1.8,2.6,4,2.7,6.9 l-1.4,1C5.2,9.6,4.8,6,4.3,3.1C4.8,3.3,5.3,3.4,5.8,3.5z" nodetypes="ccccc" opacity=".8"/><g id="path744" nodetypes="cc" opacity=".75"><path id="path694" fill="none" stroke="#62361B" stroke-linecap="round" stroke-width=".835" d="M5.9,3.8c1.6,2.1,2.3,4.3,2.3,6.5" opacity=".881"/></g><linearGradient id="path748_1_" x1="-116.952" x2="-117.129" y1="485.228" y2="485.174" gradientTransform="matrix(40.2203 0 0 -79.9115 4748.9312 38782.0781)" gradientUnits="userSpaceOnUse"><stop style="stop-color:#261700" id="stop696" offset="0"/><stop style="stop-color:#5a4f1f" id="stop697" offset="1"/></linearGradient><path id="path748" fill="url(#path748_1_)" d="M42.1,5c-2.1,1.8-2.6,4-2.7,6.9l1.4,1 c1.9-1.9,2.3-5.5,2.9-8.4C43.1,4.7,42.6,4.8,42.1,5z" nodetypes="ccccc" opacity=".8"/><g id="path749" nodetypes="cc" opacity=".6"><path id="path703" fill="none" stroke="#62361B" stroke-linecap="round" stroke-width=".835" d="M42,5.2c-1.6,2.1-2.3,4.3-2.3,6.5" opacity=".881"/></g><path id="path571" stroke="#000" stroke-width=".32" d="M20.4,23.7c1.6-1,3.8-1,5.4-0.1 c1,0.9-1.3,3.5-2.8,3.6C21.6,27,19.6,24.6,20.4,23.7z" nodetypes="cccc"/><path id="path573" fill="none" stroke="#000" stroke-linecap="round" stroke-linejoin="round" stroke-width="1.138" d="M23.1,30.4c0.2,1,1.4,1.7,3.1,1.7c1.3-0.2,2.2-1.1,3-1.7" nodetypes="ccc"/><line id="path574" x1="23" x2="23" y1="30.4" y2="27.5" fill="none" stroke="#000" stroke-linecap="round" stroke-linejoin="round" stroke-width="1.138" nodetypes="cc"/><path id="path575" fill="none" stroke="#000" stroke-linecap="round" stroke-linejoin="round" stroke-width="1.138" d="M23,30.3c-0.2,1-1.4,1.7-3.1,1.7c-1.3-0.2-2.2-1.1-3-1.7" nodetypes="ccc"/><g id="path757"><path id="path709" fill="none" stroke="#000" stroke-linecap="round" stroke-width=".419" d="M16.2,24.8c-8.3-0.3-8.6,2.3-8.6,2.3" opacity=".635"/></g><g id="path657"><path id="path711" fill="none" stroke="#000" stroke-linecap="round" stroke-width=".419" d="M16.3,25.7c-7.3,1.1-7.2,3.2-7.2,3.2" opacity=".635"/></g><g id="path658"><path id="path713" fill="none" stroke="#000" stroke-linecap="round" stroke-width=".419" d="M17,26.9c-5.4,2.5-4.9,3.9-4.9,3.9" opacity=".635"/></g><g id="path659"><path id="path715" fill="none" stroke="#000" stroke-linecap="round" stroke-width=".419" d="M30.1,25c8.3-0.3,8.6,2.3,8.6,2.3" opacity=".635"/></g><g id="path660"><path id="path717" fill="none" stroke="#000" stroke-linecap="round" stroke-width=".419" d="M30,25.9c7.3,1.1,7.2,3.2,7.2,3.2" opacity=".635"/></g><g id="path661"><path id="path719" fill="none" stroke="#000" stroke-linecap="round" stroke-width=".419" d="M29.3,27.1c5.4,2.5,4.9,3.9,4.9,3.9" opacity=".635"/></g></g><rect id="rect720" width="48" height="48" y=".5" fill="none"/></g></g></svg>