<svg xmlns="http://www.w3.org/2000/svg" xmlns:xlink="http://www.w3.org/1999/xlink" id="svg602" width="52.6" height="48" enable-background="new 0 0 52.6 48" overflow="visible" viewBox="0 0 52.6 48" xml:space="preserve"><g id="Layer_1"><g id="g606"><g id="path621" nodetypes="cssssss"><path id="path608" fill="none" stroke="#000" stroke-width="1.636" d="M2.3,22.4 c0-3.4,12.2-9.9,18.6-13.3c1.3-0.7,3.3,1.4,4.8,1.4c1.8,0,3.8-2.1,5.4-1.3c6.7,3.4,19.4,9.6,19.2,13.8 c-0.3,8.2-15.8,16-25,15.9C15.2,38.9,2.2,29.3,2.3,22.4z" opacity=".038"/></g><g id="path620" nodetypes="cssssss"><path id="path610" fill="none" stroke="#000" stroke-width="1.87" d="M2.3,22.4 c0-3.4,12.2-9.9,18.6-13.3c1.3-0.7,3.3,1.4,4.8,1.4c1.8,0,3.8-2.1,5.4-1.3c6.7,3.4,19.4,9.6,19.2,13.8 c-0.3,8.2-15.8,16-25,15.9C15.2,38.9,2.2,29.3,2.3,22.4z" opacity=".038"/></g><g id="path619" nodetypes="cssssss"><path id="path612" fill="none" stroke="#000" stroke-width="2.337" d="M2.3,22.4 c0-3.4,12.2-9.9,18.6-13.3c1.3-0.7,3.3,1.4,4.8,1.4c1.8,0,3.8-2.1,5.4-1.3c6.7,3.4,19.4,9.6,19.2,13.8 c-0.3,8.2-15.8,16-25,15.9C15.2,38.9,2.2,29.3,2.3,22.4z" opacity=".038"/></g><g id="path618" nodetypes="cssssss"><path id="path614" fill="none" stroke="#000" stroke-width="3.038" d="M2.3,22.4 c0-3.4,12.2-9.9,18.6-13.3c1.3-0.7,3.3,1.4,4.8,1.4c1.8,0,3.8-2.1,5.4-1.3c6.7,3.4,19.4,9.6,19.2,13.8 c-0.3,8.2-15.8,16-25,15.9C15.2,38.9,2.2,29.3,2.3,22.4z" opacity=".038"/></g><g id="path617" nodetypes="cssssss"><path id="path616" fill="none" stroke="#000" stroke-width="3.506" d="M2.3,22.4 c0-3.4,12.2-9.9,18.6-13.3c1.3-0.7,3.3,1.4,4.8,1.4c1.8,0,3.8-2.1,5.4-1.3c6.7,3.4,19.4,9.6,19.2,13.8 c-0.3,8.2-15.8,16-25,15.9C15.2,38.9,2.2,29.3,2.3,22.4z" opacity=".038"/></g><g id="g617" nodetypes="cssssss"><path id="path622" fill="none" stroke="#000" stroke-width="4.207" d="M2.3,22.4 c0-3.4,12.2-9.9,18.6-13.3c1.3-0.7,3.3,1.4,4.8,1.4c1.8,0,3.8-2.1,5.4-1.3c6.7,3.4,19.4,9.6,19.2,13.8 c-0.3,8.2-15.8,16-25,15.9C15.2,38.9,2.2,29.3,2.3,22.4z" opacity=".038"/></g><g id="path615" nodetypes="cssssss"><path id="path624" fill="none" stroke="#000" stroke-width="4.674" d="M2.3,22.4 c0-3.4,12.2-9.9,18.6-13.3c1.3-0.7,3.3,1.4,4.8,1.4c1.8,0,3.8-2.1,5.4-1.3c6.7,3.4,19.4,9.6,19.2,13.8 c-0.3,8.2-15.8,16-25,15.9C15.2,38.9,2.2,29.3,2.3,22.4z" opacity=".038"/></g><linearGradient id="path563_1_" x1="-165.926" x2="-165.926" y1="465.551" y2="465.485" gradientTransform="matrix(269.0338 0 0 -152.9243 44665.8711 71218.2734)" gradientUnits="userSpaceOnUse"><stop style="stop-color:#c00" id="stop626" offset="0"/><stop style="stop-color:#ff8275" id="stop627" offset="1"/></linearGradient><path id="path563" fill="url(#path563_1_)" stroke="#650000" stroke-width=".911" d="M2.3,22.4 c0-3.4,12.2-9.9,18.6-13.3c1.3-0.7,3.3,1.4,4.8,1.4c1.8,0,3.8-2.1,5.4-1.3c6.7,3.4,19.4,9.6,19.2,13.8c-0.3,8.2-15.8,16-25,15.9 C15.2,38.9,2.2,29.3,2.3,22.4z" nodetypes="cssssss"/><g id="path564" nodetypes="cssssssssssss"><linearGradient id="XMLID_1_" x1="3.418" x2="49.026" y1="21.32" y2="21.32" gradientUnits="userSpaceOnUse"><stop style="stop-color:#c00" id="stop634" offset="0"/><stop style="stop-color:#ff8275" id="stop635" offset="1"/></linearGradient><path id="path639" fill="url(#XMLID_1_)" d="M3.7,21.7c2.3-1.8,6.2-4.5,9.7-4.7 c3.1-0.2,7.5,3.9,10.3,3.7c1.2-0.1,1.8-3.7,2.6-3.7c0.8,0,1,3.5,2.1,3.7c3.1,0.3,7.9-3.9,11.4-3.7c3.3,0.2,6.8,3,8.9,4.8 c0.7,0.6-0.2,3.7-1.1,3.7c-2,0-4.9-3.8-7.5-3.8c-4.4-0.1-9,3.3-13.6,3.5c-4.1,0.1-8.3-2.7-12.4-2.7c-3.2,0-6.8,3.2-9.3,3 C3.9,25.5,2.9,22.3,3.7,21.7z" opacity=".038"/></g><linearGradient id="path565_1_" x1="25.961" x2="25.961" y1="26.06" y2="10.954" gradientUnits="userSpaceOnUse"><stop style="stop-color:#000" id="stop641" offset="0"/><stop style="stop-color:#030303" id="stop642" offset=".197"/><stop style="stop-color:#0c0c0c" id="stop643" offset=".331"/><stop style="stop-color:#1b1b1b" id="stop644" offset=".447"/><stop style="stop-color:#313131" id="stop645" offset=".551"/><stop style="stop-color:#4d4d4d" id="stop646" offset=".649"/><stop style="stop-color:#6f6f6f" id="stop647" offset=".742"/><stop style="stop-color:#989898" id="stop648" offset=".83"/><stop style="stop-color:#c7c7c7" id="stop649" offset=".915"/><stop style="stop-color:#fbfbfb" id="stop650" offset=".995"/><stop style="stop-color:#fff" id="stop651" offset="1"/></linearGradient><path id="path565" fill="url(#path565_1_)" d="M19.7,11 c-1.2,1.4,3.5,4.4,3.9,6.8c0.4,2.1-1.8,5-1.4,6.8c0.2,1.1,3,1.8,4.2,1.7c1.5-0.1,3.2-0.6,3.7-2c0.8-2.3-2.1-4.8-1.8-6.8 c0.3-1.9,5.4-5.2,3.9-6.8c-1.1-1.2-2.8,2.4-4.1,2.5c-0.9,0-1.6-2.2-2.4-2.2c-0.7,0-1.2,2.2-2,2.2C22.5,13.2,21,9.5,19.7,11z" nodetypes="cssssssssss" opacity=".31"/><linearGradient id="path566_1_" x1="-165.949" x2="-165.948" y1="466.17" y2="466.308" gradientTransform="matrix(258.3861 0 0 -75.582 42905.0625 35273.1133)" gradientUnits="userSpaceOnUse"><stop style="stop-color:#000" id="stop657" offset="0"/><stop style="stop-color:#fff" id="stop658" offset="1"/></linearGradient><path id="path566" fill="url(#path566_1_)" d="M3.6,25.1 c-1,3,10.2,13.6,21.5,13.8c13.4,0.2,24.6-11.3,24.5-14.6c-0.1-2-9,7.7-24.2,7.8C11.4,32.3,4,24.1,3.6,25.1z" nodetypes="cssss" opacity=".05"/><linearGradient id="path575_1_" x1="-166.057" x2="-165.909" y1="466.179" y2="466.356" gradientTransform="matrix(258.3861 0 0 -75.582 42905.0625 35273.1133)" gradientUnits="userSpaceOnUse"><stop style="stop-color:#000" id="stop664" offset="0"/><stop style="stop-color:#131313" id="stop665" offset=".056"/><stop style="stop-color:#353535" id="stop666" offset=".175"/><stop style="stop-color:#515151" id="stop667" offset=".302"/><stop style="stop-color:#676767" id="stop668" offset=".438"/><stop style="stop-color:#777" id="stop669" offset=".587"/><stop style="stop-color:gray" id="stop670" offset=".757"/><stop style="stop-color:#838383" id="stop671" offset="1"/></linearGradient><path id="path575" fill="url(#path575_1_)" d="M3.6,25.1 c-1,3,10.2,13.6,21.5,13.8c13.4,0.2,24.6-11.3,24.5-14.6c-0.1-2-9,7.7-24.2,7.8C11.4,32.3,4,24.1,3.6,25.1z" nodetypes="cssss" opacity=".07"/><linearGradient id="path576_1_" x1="-165.821" x2="-165.945" y1="466.193" y2="466.3" gradientTransform="matrix(258.3861 0 0 -75.582 42905.0625 35273.1133)" gradientUnits="userSpaceOnUse"><stop style="stop-color:#000" id="stop677" offset="0"/><stop style="stop-color:#040404" id="stop678" offset=".006"/><stop style="stop-color:#383838" id="stop679" offset=".085"/><stop style="stop-color:#676767" id="stop680" offset=".17"/><stop style="stop-color:#909090" id="stop681" offset=".258"/><stop style="stop-color:#b2b2b2" id="stop682" offset=".351"/><stop style="stop-color:#cecece" id="stop683" offset=".449"/><stop style="stop-color:#e4e4e4" id="stop684" offset=".553"/><stop style="stop-color:#f3f3f3" id="stop685" offset=".669"/><stop style="stop-color:#fcfcfc" id="stop686" offset=".803"/><stop style="stop-color:#fff" id="stop687" offset="1"/></linearGradient><path id="path576" fill="url(#path576_1_)" d="M3.6,25.1c-1,3,10.2,13.6,21.5,13.8 c13.4,0.2,24.6-11.3,24.5-14.6c-0.1-2-9,7.7-24.2,7.8C11.4,32.3,4,24.1,3.6,25.1z" nodetypes="cssss" opacity=".2"/><path id="path578" d="M4.4,22.9c2.3-1,6.3-3,9.8-3.1 c3.1-0.1,7,1.8,9.8,1.6c1.2-0.1,1.5-1.7,2.3-1.7c0.8,0,0.8,2,1.9,2c3.1,0.2,7.4-2.8,10.9-2.7c3.3,0.1,7.1,2.6,9.2,3.6 c0.7,0.3,0.2,1.2-0.6,1.2c-2,0-5.3-3-7.9-3c-4.4,0-9.2,3-13.7,3.1c-4.1,0.1-7.7-2.3-11.8-2.3c-3.2,0-6.6,3.1-9.2,3 C4.2,24.6,3.7,23.3,4.4,22.9z" nodetypes="cssssssssssss" opacity=".15"/><path id="path579" d="M5.4,23.4c2.3-1,5.5-2.9,9-3 c3.1-0.1,7.8,1.8,10.6,1.6c1.2-0.1,0.6-1,1.4-1c0.8,0,0.5,1.3,1.6,1.4c3.1,0.2,7.6-3.1,11.1-3c3.3,0.1,6.6,2.6,8.7,3.6 c0.7,0.3,0.7,0.6-0.2,0.6c-2,0-5.5-3.2-8.1-3.2c-4.4,0-8.5,4-13,4.1c-4.1,0.1-8-3.3-12.1-3.3c-3.2,0-6.4,2.9-9,2.8 C4.5,24,4.6,23.8,5.4,23.4z" nodetypes="cssssssssssss" opacity=".25"/><path id="path584" d="M26.3,21.6c-0.7,0-2.2,1.1-2.3,1.7 c-0.1,0.4,1.2,1.4,1.8,1.3c0.7,0,2.2-1,2.3-1.5C28.2,22.6,26.9,21.5,26.3,21.6z" nodetypes="cssss" opacity=".2"/><linearGradient id="path585_1_" x1="-166.552" x2="-166.551" y1="465.442" y2="465.241" gradientTransform="matrix(106.1742 0 0 -47.8795 17709.1113 22293.877)" gradientUnits="userSpaceOnUse"><stop style="stop-color:#fff" id="stop696" offset="0"/><stop style="stop-color:#fff" id="stop697" offset="1"/></linearGradient><path id="path585" fill="url(#path585_1_)" d="M25.7,10.5 c-2.2,0.1-2.6-1.4-4.5-1.4c-0.3,0.1-4.1,1.4-4.9,4c-1,3.2,6.6,5.6,9.7,5.4c3.1-0.2,10.2-3,9-5.9C34.3,10.6,31,9.1,30.6,9 C29,9.1,27.9,10.4,25.7,10.5z" nodetypes="cssssss" opacity=".55"/><linearGradient id="path590_1_" x1="-169.035" x2="-169.034" y1="469.749" y2="469.55" gradientTransform="matrix(16.0826 0 0 -13.8199 2732.3792 6518.0146)" gradientUnits="userSpaceOnUse"><stop style="stop-color:#fff" id="stop703" offset="0"/><stop style="stop-color:#fff" id="stop704" offset="1"/></linearGradient><path id="path590" fill="url(#path590_1_)" d="M13.9,26.2c-0.5,0.1-1.4,0.9-1.4,1.3 c0,0.9,1,1.4,1.5,1.4c0.5-0.1,1.4-0.7,1.4-1.5C15.3,26.9,14.4,26.1,13.9,26.2z" nodetypes="cssss" opacity=".55"/><path id="path591" fill="url(#path590_1_)" d="M13.9,26.2c-0.5,0.1-1.4,0.9-1.4,1.3 c0,0.9,1,1.4,1.5,1.4c0.5-0.1,1.4-0.7,1.4-1.5C15.3,26.9,14.4,26.1,13.9,26.2z" nodetypes="cssss" opacity=".6"/><linearGradient id="path592_1_" x1="-175.838" x2="-175.837" y1="470.028" y2="469.828" gradientTransform="matrix(16.2813 0 0 -12.4653 2900.9087 5884.707)" gradientUnits="userSpaceOnUse"><stop style="stop-color:#fff" id="stop711" offset="0"/><stop style="stop-color:#fff" id="stop712" offset="1"/></linearGradient><path id="path592" fill="url(#path592_1_)" d="M38.5,25.8c-0.5-0.3-1.7-0.1-1.9,0.3 c-0.3,0.7,0.4,1.7,0.9,1.9c0.5,0.2,1.6,0.2,1.9-0.5C39.6,27.2,39.1,26.1,38.5,25.8z" nodetypes="cssss" opacity=".6"/><linearGradient id="path593_1_" x1="-183.829" x2="-183.827" y1="471.487" y2="471.287" gradientTransform="matrix(10.3596 0 0 -7.8125 1947.0874 3707.1016)" gradientUnits="userSpaceOnUse"><stop style="stop-color:#fff" id="stop718" offset="0"/><stop style="stop-color:#fff" id="stop719" offset="1"/></linearGradient><path id="path593" fill="url(#path593_1_)" d="M43,23.7c-0.3-0.2-1.1,0-1.2,0.2 c-0.2,0.4,0.3,1.1,0.6,1.2c0.3,0.1,1,0.1,1.2-0.3C43.7,24.6,43.4,23.9,43,23.7z" nodetypes="cssss" opacity=".6"/><linearGradient id="path594_1_" x1="-178.894" x2="-178.893" y1="474.483" y2="474.283" gradientTransform="matrix(9.9366 0 0 -7.3895 1808.0077 3534.6094)" gradientUnits="userSpaceOnUse"><stop style="stop-color:#fff" id="stop725" offset="0"/><stop style="stop-color:#fff" id="stop726" offset="1"/></linearGradient><path id="path594" fill="url(#path594_1_)" d="M30.7,28.5c-0.3-0.1-1.1,0-1.1,0.2 c-0.2,0.4,0.3,1,0.6,1.1c0.3,0.1,1,0.1,1.2-0.3C31.4,29.3,31,28.7,30.7,28.5z" nodetypes="cssss" opacity=".6"/><linearGradient id="path595_1_" x1="-169.779" x2="-169.778" y1="472.232" y2="472.032" gradientTransform="matrix(10.2071 0 0 -7.6303 1743.9529 3628.0164)" gradientUnits="userSpaceOnUse"><stop style="stop-color:#fff" id="stop732" offset="0"/><stop style="stop-color:#fff" id="stop733" offset="1"/></linearGradient><path id="path595" fill="url(#path595_1_)" d="M10.9,24.8c-0.3,0.1-0.8,0.7-0.8,1 c0.1,0.5,0.8,0.6,1.1,0.5c0.3-0.1,0.8-0.6,0.7-1C11.9,25,11.2,24.7,10.9,24.8z" nodetypes="cssss" opacity=".6"/><linearGradient id="path596_1_" x1="-175.685" x2="-175.684" y1="473.831" y2="473.63" gradientTransform="matrix(9.5159 0 0 -7.9669 1694.3604 3803.3193)" gradientUnits="userSpaceOnUse"><stop style="stop-color:#fff" id="stop739" offset="0"/><stop style="stop-color:#fff" id="stop740" offset="1"/></linearGradient><path id="path596" fill="url(#path596_1_)" d="M22.3,28.5c-0.3,0.2-0.6,0.9-0.5,1.1 c0.2,0.4,0.9,0.4,1.2,0.2c0.3-0.2,0.6-0.8,0.5-1.2C23.3,28.4,22.6,28.3,22.3,28.5z" nodetypes="cssss" opacity=".55"/><path id="path597" fill="url(#path596_1_)" d="M22.3,28.5c-0.3,0.2-0.6,0.9-0.5,1.1 c0.2,0.4,0.9,0.4,1.2,0.2c0.3-0.2,0.6-0.8,0.5-1.2C23.3,28.4,22.6,28.3,22.3,28.5z" nodetypes="cssss" opacity=".6"/><g id="path598" nodetypes="cssssssssssss" opacity=".2"><path id="path747" d="M5.5,23.8c2.4-0.7,5.4-2.7,9-2.8c3.1-0.1,7.8,2.7,10.6,2.5 c1.2-0.1,0.5,0,1.3,0c0.8,0,0.7,0,1.8,0c3.1,0.2,7.8-3.4,11.3-3.3c3.3,0.1,5.6,2.4,7.7,3.4C48,24,48,24,47.1,24 c-2,0-4.9-3.3-7.6-3.3c-4.4,0-8.4,3.8-13,3.9c-4.1,0.1-8-3.2-12-3.1c-3.2,0-6.5,2.3-9,2.7C5.1,24.1,5.3,23.8,5.5,23.8z" opacity=".038"/><path id="path748" fill="none" stroke="#000" stroke-width=".374" d="M5.5,23.8c2.4-0.7,5.4-2.7,9-2.8 c3.1-0.1,7.8,2.7,10.6,2.5c1.2-0.1,0.5,0,1.3,0c0.8,0,0.7,0,1.8,0c3.1,0.2,7.8-3.4,11.3-3.3c3.3,0.1,5.6,2.4,7.7,3.4 C48,24,48,24,47.1,24c-2,0-4.9-3.3-7.6-3.3c-4.4,0-8.4,3.8-13,3.9c-4.1,0.1-8-3.2-12-3.1c-3.2,0-6.5,2.3-9,2.7 C5.1,24.1,5.3,23.8,5.5,23.8z"/></g><linearGradient id="path607_1_" x1="-166.202" x2="-165.861" y1="466.539" y2="466.522" gradientTransform="matrix(24.0121 0 0 -32.3778 3992.1841 15128.5732)" gradientUnits="userSpaceOnUse"><stop style="stop-color:#000" id="stop750" offset="0"/><stop style="stop-color:#fff" id="stop751" offset="1"/></linearGradient><path id="path607" fill="url(#path607_1_)" d="M4,19.8 c0.6-0.3,2.3,1.9,2.3,2.9c-0.1,1.3-1.9,4.4-2.4,4.1c-0.8-0.6-1.5-3-1.5-4.4C2.4,21.4,3.5,20.1,4,19.8z" nodetypes="cssss" opacity=".05"/><linearGradient id="path609_1_" x1="-166.289" x2="-165.795" y1="467.13" y2="467.106" gradientTransform="matrix(16.5883 0 0 -22.3677 2759.7834 10471.4189)" gradientUnits="userSpaceOnUse"><stop style="stop-color:#000" id="stop757" offset="0"/><stop style="stop-color:#fff" id="stop758" offset="1"/></linearGradient><path id="path609" fill="url(#path609_1_)" d="M3.4,20.8 c0.6-0.3,2,1.3,1.9,2.3c-0.1,1.3-1.5,2.4-2,2c-0.8-0.6-1.1-1.4-1-2.8C2.4,21.4,2.9,21.1,3.4,20.8z" nodetypes="cssss" opacity=".07"/><linearGradient id="path610_1_" x1="-174.394" x2="-174.579" y1="466.521" y2="466.525" gradientTransform="matrix(24.2471 0 0 -32.0881 4278.5117 14992.9219)" gradientUnits="userSpaceOnUse"><stop style="stop-color:#000" id="stop764" offset="0"/><stop style="stop-color:#fff" id="stop765" offset="1"/></linearGradient><path id="path769" fill="url(#path610_1_)" d="M48.9,26.5 c-0.6,0.4-2.5-1.7-2.5-2.6c0-1.3,1.5-4.6,2-4.3c0.9,0.5,1.8,2.9,1.9,4.3C50.4,24.7,49.4,26.2,48.9,26.5z" nodetypes="cssss" opacity=".05"/><linearGradient id="path611_1_" x1="-178.399" x2="-178.666" y1="467.209" y2="467.216" gradientTransform="matrix(16.822 0 0 -22.262 3051.009 10424.3936)" gradientUnits="userSpaceOnUse"><stop style="stop-color:#000" id="stop771" offset="0"/><stop style="stop-color:#fff" id="stop772" offset="1"/></linearGradient><path id="path611" fill="url(#path611_1_)" d="M49.5,25.5 c-0.6,0.4-2.1-1.1-2.1-2.1c0-1.3,1.2-2.5,1.8-2.2c0.9,0.5,1.2,1.3,1.2,2.7C50.4,24.7,50,25.1,49.5,25.5z" nodetypes="cssss" opacity=".07"/></g><rect id="rect777" width="48" height="48" x="2.3" fill="none" opacity=".31"/></g></svg>