<svg xmlns="http://www.w3.org/2000/svg" xmlns:xlink="http://www.w3.org/1999/xlink" id="svg602" width="48.1" height="48" enable-background="new 0 0 48.1 48" overflow="visible" viewBox="0 0 48.1 48" xml:space="preserve"><namedview id="base"/><g id="Layer_1"><g id="g606"><radialGradient id="path563_1_" cx="-228.649" cy="446.834" r=".028" fx="-228.649" fy="446.834" gradientTransform="matrix(219.4846 0 0 -524.4146 50210.0391 234355.875)" gradientUnits="userSpaceOnUse"><stop style="stop-color:#8f0002" id="stop608" offset="0"/><stop style="stop-color:#8d3a0d" id="stop609" offset="1"/></radialGradient><path id="path563" fill="url(#path563_1_)" stroke="#B47000" stroke-width=".55" d="M19.4,40.8 c-1.6,2.2,0.3,5.2,2.1,3.8c3-2.1,7-8.2,8.6-13.1c1.5-4.5,1.1-10.8,0.5-15c-0.3-1.5-2.4-1.5-2.4,0c0,4,0.9,9-1.3,14.3 C25.4,34.9,21.7,37.6,19.4,40.8z" nodetypes="cssssss"/><radialGradient id="path572_1_" cx="-228.68" cy="446.836" r=".028" fx="-228.68" fy="446.836" gradientTransform="matrix(201.9999 0 0 -505.8171 46218.4883 226046.8281)" gradientUnits="userSpaceOnUse"><stop style="stop-color:#8f0002" id="stop615" offset="0"/><stop style="stop-color:#8d3a0d" id="stop616" offset="1"/></radialGradient><path id="path572" fill="url(#path572_1_)" d="M20,40.9c-1.4,1.9-0.3,4.1,1.3,3 c2.9-2.2,6.7-7.8,8.3-12.6c1.5-4.5,1.4-10.5,0.6-14.7c-0.2-1.1-1.5-1.2-1.5-0.1c0.2,4,0.5,10.6-1.2,14.8 C25.9,34.9,22.2,37.6,20,40.9z" nodetypes="cssssss"/><radialGradient id="path573_1_" cx="-228.72" cy="446.834" r=".028" fx="-228.72" fy="446.834" gradientTransform="matrix(184.2494 0 0 -488.4845 42166.8359 218301.6563)" gradientUnits="userSpaceOnUse"><stop style="stop-color:#8f0002" id="stop622" offset="0"/><stop style="stop-color:#8d3a0d" id="stop623" offset="1"/></radialGradient><path id="path573" fill="url(#path573_1_)" d="M20.6,41c-1.1,1.4-0.6,3,0.4,2.2 c3-2.2,6.5-7.3,8.1-12.2c1.5-4.5,1.5-10.3,0.8-14.5c-0.2-0.8-0.9-1-0.9-0.2c0.2,4,0.7,10.7-1,14.9C26.3,35,23,37.9,20.6,41z" nodetypes="cssssss"/><g id="path615" nodetypes="ccccc"><radialGradient id="XMLID_1_" cx="-229.135" cy="446.262" r=".038" fx="-229.135" fy="446.262" gradientTransform="matrix(216.9625 0 0 -143.1767 49737.9492 63917.7852)" gradientUnits="userSpaceOnUse"><stop style="stop-color:#fff" id="stop630" offset="0"/><stop style="stop-color:#fff" id="stop631" offset="1"/></radialGradient><path id="path635" fill="url(#XMLID_1_)" d="M28.8,14.8c0.2-0.6,0.7-1.4,0.8-2c-5.8-0.6-10.8,0.8-12.2,7.9 c2-5.4,6.1-6.9,11.4-6.1C28.8,14.9,29,15,28.8,14.8z" opacity=".673"/></g><radialGradient id="path616_1_" cx="-227.761" cy="447.045" r=".028" fx="-227.761" fy="447.045" gradientTransform="matrix(194.8656 0 0 -393.2557 44396.9453 175836.4219)" gradientUnits="userSpaceOnUse"><stop style="stop-color:#8f0002" id="stop637" offset="0"/><stop style="stop-color:#8d3a0d" id="stop638" offset="1"/></radialGradient><path id="path616" fill="url(#path616_1_)" stroke="#B47000" stroke-width=".449" d="M19.2,41.1 c1.4,1.7-0.3,3.9-1.9,2.8c-2.7-1.6-6.2-6.2-7.6-9.8c-1.3-3.4-1-8.1-0.4-11.3c0.3-1.1,2.1-1.1,2.1,0c0,3-0.8,6.7,1.1,10.7 C13.9,36.7,17.1,38.7,19.2,41.1z" nodetypes="cssssss"/><radialGradient id="path617_1_" cx="-227.708" cy="447.054" r=".028" fx="-227.708" fy="447.054" gradientTransform="matrix(179.342 0 0 -379.3096 40851.8359 169605.1094)" gradientUnits="userSpaceOnUse"><stop style="stop-color:#8f0002" id="stop644" offset="0"/><stop style="stop-color:#8d3a0d" id="stop645" offset="1"/></radialGradient><path id="path617" fill="url(#path617_1_)" d="M18.7,41.2c1.2,1.5,0.2,3.1-1.2,2.3 c-2.6-1.7-6-5.8-7.3-9.5c-1.3-3.4-1.3-7.9-0.5-11c0.1-0.8,1.3-0.9,1.3-0.1c-0.1,3-0.4,7.9,1.1,11.1 C13.4,36.7,16.7,38.7,18.7,41.2z" nodetypes="cssssss"/><radialGradient id="path618_1_" cx="-227.642" cy="447.064" r=".028" fx="-227.642" fy="447.064" gradientTransform="matrix(163.5825 0 0 -366.312 37252.4141 163797.4531)" gradientUnits="userSpaceOnUse"><stop style="stop-color:#8f0002" id="stop651" offset="0"/><stop style="stop-color:#8d3a0d" id="stop652" offset="1"/></radialGradient><path id="path618" fill="url(#path618_1_)" d="M18.2,41.3c0.9,1.1,0.6,2.2-0.4,1.7 c-2.6-1.6-5.8-5.5-7.2-9.1C9.3,30.5,9.3,26.2,9.9,23c0.1-0.6,0.8-0.7,0.8-0.2c-0.2,3-0.6,8,0.9,11.2C13,36.8,16,39,18.2,41.3z" nodetypes="cssssss"/><g id="path619" nodetypes="ccccc"><path id="path658" fill="#00A800" d="M10.1,22.4c0.4,0.1,1.1,0.4,1.6,0.5c-0.4-5.6-2.2-10.1-7.8-10.3 c4.1,2,4.9,6.5,5.3,10.8C9,23.5,9.9,22.7,10.1,22.4z" opacity=".891"/><path id="path659" fill="none" stroke="#007600" stroke-linecap="round" stroke-linejoin="round" stroke-width=".429" d="M10.1,22.4c0.4,0.1,1.1,0.4,1.6,0.5c-0.4-5.6-2.2-10.1-7.8-10.3c4.1,2,4.9,6.5,5.3,10.8C9,23.5,9.9,22.7,10.1,22.4z"/></g><linearGradient id="path620_1_" x1="-223.281" x2="-223.333" y1="444.22" y2="444.274" gradientTransform="matrix(41.7132 0 0 -51.0406 9322.8828 22689.0977)" gradientUnits="userSpaceOnUse"><stop style="stop-color:#fff" id="stop661" offset="0"/><stop style="stop-color:#fff" id="stop662" offset="1"/></linearGradient><path id="path620" fill="url(#path620_1_)" d="M8.6,14.2c-0.3-0.3-1.3-0.8-1.4-0.5 c-0.1,0.4,0.4,1.1,0.8,1.6c0.4,0.5,1.2,1.5,1.4,1.1C9.7,15.8,9,14.8,8.6,14.2z" nodetypes="cssss"/><g id="path621" nodetypes="ccccc"><radialGradient id="XMLID_2_" cx="-227.673" cy="446.424" r=".037" fx="-227.673" fy="446.424" gradientTransform="matrix(137.8635 0 0 -182.2845 31398.5586 81401.5078)" gradientUnits="userSpaceOnUse"><stop style="stop-color:#fff" id="stop669" offset="0"/><stop style="stop-color:#fff" id="stop670" offset="1"/></radialGradient><path id="path674" fill="url(#XMLID_2_)" d="M10.1,22.4c0.4,0.1,1.1,0.4,1.6,0.5 c-0.4-5.6-2.2-10.1-7.8-10.3C8.3,13.6,10.1,17.3,10.1,22.4C10,22.5,9.9,22.7,10.1,22.4z" opacity=".673"/></g><g id="path622" nodetypes="ccccc"><path id="path676" fill="#009000" d="M10.4,22.4c0.3-0.3,0.9-0.7,1.2-1c-4-2.4-8.1-3.2-11.4,1.2 c3.7-2.3,7.2-0.8,10.3,1C10.5,23.8,10.5,22.7,10.4,22.4z" opacity=".673"/><path id="path677" fill="none" stroke="#007300" stroke-linecap="round" stroke-linejoin="round" stroke-width=".429" d="M10.4,22.4c0.3-0.3,0.9-0.7,1.2-1c-4-2.4-8.1-3.2-11.4,1.2c3.7-2.3,7.2-0.8,10.3,1C10.5,23.8,10.5,22.7,10.4,22.4z"/></g><linearGradient id="path623_1_" x1="-223.339" x2="-223.392" y1="444.908" y2="444.961" gradientTransform="matrix(55.5488 0 0 -20.5987 12411.4453 9185.084)" gradientUnits="userSpaceOnUse"><stop style="stop-color:#fff" id="stop679" offset="0"/><stop style="stop-color:#fff" id="stop680" offset="1"/></linearGradient><path id="path623" fill="url(#path623_1_)" d="M3.9,19.7c-0.4,0.1-1.3,0.7-1.2,0.9 c0.2,0.3,1,0.2,1.5,0.1c0.5-0.1,1.7-0.2,1.6-0.6C5.7,19.5,4.6,19.6,3.9,19.7z" nodetypes="cssss"/><g id="path624" nodetypes="ccccc"><radialGradient id="XMLID_3_" cx="-227.734" cy="447.09" r=".038" fx="-227.734" fy="447.09" gradientTransform="matrix(202.5135 0 0 -55.9926 46126.0898 25059.3105)" gradientUnits="userSpaceOnUse"><stop style="stop-color:#fff" id="stop687" offset="0"/><stop style="stop-color:#fff" id="stop688" offset="1"/></radialGradient><path id="path692" fill="url(#XMLID_3_)" d="M10.4,22.4c0.3-0.3,0.9-0.7,1.2-1c-4-2.4-8.1-3.2-11.4,1.2 C3.3,19.6,6.8,19.9,10.4,22.4C10.3,22.5,10.5,22.7,10.4,22.4z" opacity=".673"/></g><g id="path625" nodetypes="ccccc"><path id="path694" fill="#009000" d="M10.8,22.4c0.1-0.5,0.5-1.1,0.6-1.6C6,20.6,1.5,22,1,27.8 c2.2-4,6.6-4.4,10.8-4.3C11.7,23.7,11.1,22.7,10.8,22.4z" opacity=".673"/><path id="path695" fill="none" stroke="#007E00" stroke-linecap="round" stroke-linejoin="round" stroke-width=".429" d="M10.8,22.4c0.1-0.5,0.5-1.1,0.6-1.6C6,20.6,1.5,22,1,27.8c2.2-4,6.6-4.4,10.8-4.3C11.7,23.7,11.1,22.7,10.8,22.4z"/></g><linearGradient id="path626_1_" x1="-222.732" x2="-222.784" y1="447.118" y2="447.171" gradientTransform="matrix(51.6335 0 0 -39.2404 11504.9219 17569.3301)" gradientUnits="userSpaceOnUse"><stop style="stop-color:#fff" id="stop697" offset="0"/><stop style="stop-color:#fff" id="stop698" offset="1"/></linearGradient><path id="path626" fill="url(#path626_1_)" d="M2.8,23.2c-0.4,0.3-0.9,1.3-0.6,1.4 c0.4,0.2,1.1-0.3,1.6-0.6c0.5-0.3,1.5-1.1,1.2-1.4C4.4,22.1,3.4,22.7,2.8,23.2z" nodetypes="cssss"/><g id="path628" nodetypes="ccccc"><path id="path704" fill="#009000" d="M10.4,22.9c-0.2-0.5-0.3-1.3-0.5-1.7c-4.7,2.8-7.8,6.6-4.7,12 c-0.6-4.8,3-7.6,6.6-9.9C11.9,23.5,10.7,23,10.4,22.9z" opacity=".673"/><path id="path705" fill="none" stroke="#006D00" stroke-linecap="round" stroke-linejoin="round" stroke-width=".429" d="M10.4,22.9c-0.2-0.5-0.3-1.3-0.5-1.7c-4.7,2.8-7.8,6.6-4.7,12c-0.6-4.8,3-7.6,6.6-9.9C11.9,23.5,10.7,23,10.4,22.9z"/></g><path id="path631" fill="url(#path626_1_)" d="M2.8,23.2c-0.4,0.3-0.9,1.3-0.6,1.4 c0.4,0.2,1.1-0.3,1.6-0.6c0.5-0.3,1.5-1.1,1.2-1.4C4.4,22.1,3.4,22.7,2.8,23.2z" nodetypes="cssss"/><g id="path633" nodetypes="ccccc"><path id="path708" fill="#00B900" d="M11,21.2c-0.4-0.2-1.2-0.3-1.6-0.5c3.9-4.2,8.3-6.8,12.8-3.7 c-4.5-0.8-8.1,2.4-11.2,5.5C11.2,22.6,11,21.5,11,21.2z" opacity=".744"/><path id="path709" fill="none" stroke="#008300" stroke-linecap="round" stroke-linejoin="round" stroke-width=".429" d="M11,21.2c-0.4-0.2-1.2-0.3-1.6-0.5c3.9-4.2,8.3-6.8,12.8-3.7c-4.5-0.8-8.1,2.4-11.2,5.5C11.2,22.6,11,21.5,11,21.2z"/></g><linearGradient id="path634_1_" x1="-227.35" x2="-227.403" y1="442.856" y2="442.909" gradientTransform="matrix(62.5153 0 0 -26.9168 14231.082 11937.0508)" gradientUnits="userSpaceOnUse"><stop style="stop-color:#fff" id="stop711" offset="0"/><stop style="stop-color:#fff" id="stop712" offset="1"/></linearGradient><path id="path634" fill="url(#path634_1_)" d="M17.5,15.5c0.5-0.1,1.6,0.1,1.5,0.4 c-0.1,0.4-1.1,0.7-1.6,0.8c-0.6,0.1-1.9,0.5-1.9,0.1C15.6,16.1,16.8,15.7,17.5,15.5z" nodetypes="cssss"/><g id="g717" nodetypes="ccccc"><radialGradient id="XMLID_4_" cx="-228.531" cy="446.429" r=".038" fx="-228.531" fy="446.429" gradientTransform="matrix(227.3539 0 0 -102.5223 51973.3789 45793.0234)" gradientUnits="userSpaceOnUse"><stop style="stop-color:#fff" id="stop719" offset="0"/><stop style="stop-color:#fff" id="stop720" offset="1"/></radialGradient><path id="path724" fill="url(#XMLID_4_)" d="M11,21.2c-0.4-0.2-1.2-0.3-1.6-0.5c3.9-4.2,8.3-6.8,12.8-3.7 C18.1,15.2,14.4,17.1,11,21.2C11.1,21.3,11,21.5,11,21.2z" opacity=".673"/></g><g id="path636" nodetypes="ccccc"><path id="path726" fill="#00AC00" d="M11,23.1c0.2-0.4,0.3-1.2,0.5-1.6c4.6,4.1,7.5,8.6,4.3,13.3 c0.7-4.7-2.7-8.5-6.2-11.6C9.4,23.3,10.6,23.1,11,23.1z" opacity=".82"/><path id="path727" fill="none" stroke="#008B00" stroke-linecap="round" stroke-linejoin="round" stroke-width=".429" d="M11,23.1c0.2-0.4,0.3-1.2,0.5-1.6c4.6,4.1,7.5,8.6,4.3,13.3c0.7-4.7-2.7-8.5-6.2-11.6C9.4,23.3,10.6,23.1,11,23.1z"/></g><g id="path638" nodetypes="ccccc"><radialGradient id="XMLID_5_" cx="-228.43" cy="447.188" r=".037" fx="-228.43" fy="447.188" gradientTransform="matrix(112.2295 0 0 -236.2112 25654.3027 105667.9844)" gradientUnits="userSpaceOnUse"><stop style="stop-color:#fff" id="stop730" offset="0"/><stop style="stop-color:#fff" id="stop731" offset="1"/></radialGradient><path id="path735" fill="url(#XMLID_5_)" d="M11,23.1c0.2-0.4,0.3-1.2,0.5-1.6c4.6,4.1,7.5,8.6,4.3,13.3 C17.5,30.6,15.4,26.7,11,23.1C10.9,23.2,10.6,23.1,11,23.1z" opacity=".673"/></g><g id="path639" nodetypes="ccccc"><path id="path737" fill="#009000" d="M10.9,21.6c-0.2-0.4-0.6-1-0.8-1.5c5.1-0.5,9.6,0.6,10.9,5.9 c-2.6-3.7-6.9-3.8-10.8-3.5C10.1,22.8,10.7,21.8,10.9,21.6z" opacity=".673"/><path id="path738" fill="none" stroke="#008700" stroke-linecap="round" stroke-linejoin="round" stroke-width=".429" d="M10.9,21.6c-0.2-0.4-0.6-1-0.8-1.5c5.1-0.5,9.6,0.6,10.9,5.9c-2.6-3.7-6.9-3.8-10.8-3.5C10.1,22.8,10.7,21.8,10.9,21.6z"/></g><linearGradient id="path640_1_" x1="-227.338" x2="-227.391" y1="446.579" y2="446.632" gradientTransform="matrix(51.8084 0 0 -34.7558 11796.9043 15543.9902)" gradientUnits="userSpaceOnUse"><stop style="stop-color:#fff" id="stop740" offset="0"/><stop style="stop-color:#fff" id="stop741" offset="1"/></linearGradient><path id="path640" fill="url(#path640_1_)" d="M18.5,21.9c0.4,0.2,1,1.2,0.7,1.3 c-0.3,0.2-1.1-0.2-1.5-0.5c-0.5-0.3-1.6-0.9-1.3-1.2C16.9,21,17.9,21.5,18.5,21.9z" nodetypes="cssss"/><g id="path643" nodetypes="cssssssssssssssssssssss"><path id="path747" d="M19.3,44.5c-2.7-0.2-3-5.3-2.5-8.5c0.2-1.6,4.8-5.3,4.7-5.8 c-0.1-0.4-4.6,3.3-5.1,2.8c-0.7-0.6-0.2-4.4,1.4-6c1.8-1.8,6.1-3.3,8.8-3.9c2.1-0.5,5.3-0.5,5.4,0.7c0.1,1.7-2.8,6.8-4.6,8.2 c-1.1,0.8-2.9-2.1-3.9-1.5c-1.1,0.6-2.2,3.6-2.4,5.2c-0.3,1.7-0.5,4.5,0.9,4.4c1.8,0,6.1-2.6,8.5-4.6c2.8-2.3,6.3-6.8,7-8.2 c0.3-0.6-3.3,2.6-3.9,2.4c-0.8-0.2-0.2-2.2-0.3-3.3c0,0,1.7-4.8,6-6.9c3.6-1.8,6.2,0.2,6.2,0.2c0.4,1.1,1.4,1.9,1.1,3.2 c-0.5,1.9-1.9,4.5-3.5,6.3c-0.8,0.9-3.4,2.1-3.8,1.8c-0.5-0.3,1.5-4.2,0.9-3.7c-1.4,1.3-3.8,6.8-6.9,9.3 C29.4,40.1,22.1,44.6,19.3,44.5z" opacity=".033"/></g><g id="path641" nodetypes="ccccc"><radialGradient id="XMLID_6_" cx="-228.537" cy="447.156" r=".038" fx="-228.537" fy="447.156" gradientTransform="matrix(192.6263 0 0 -107.3676 44039.1172 48038.9883)" gradientUnits="userSpaceOnUse"><stop style="stop-color:#fff" id="stop750" offset="0"/><stop style="stop-color:#fff" id="stop751" offset="1"/></radialGradient><path id="path755" fill="url(#XMLID_6_)" d="M10.9,21.6c-0.2-0.4-0.6-1-0.8-1.5c5.1-0.5,9.6,0.6,10.9,5.9 C19.2,22.1,15.5,20.9,10.9,21.6C10.9,21.7,10.7,21.8,10.9,21.6z" opacity=".673"/></g><g id="path644" nodetypes="cssssssssssssssssssssss"><path id="path757" d="M18.8,45.1c-2.9-0.2-3.2-5.5-2.7-8.8c0.3-1.7,5.1-5.5,5-6.1 c-0.1-0.4-4.9,3.4-5.5,2.9c-0.8-0.6-0.2-4.6,1.5-6.2c1.9-1.8,6.5-3.4,9.4-4c2.2-0.5,5.6-0.5,5.7,0.8c0.2,1.8-3,7-4.9,8.5 c-1.1,0.9-3.1-2.1-4.1-1.5c-1.2,0.7-2.3,3.8-2.6,5.4c-0.3,1.7-0.5,4.6,1,4.6c1.9,0,6.5-2.7,9.1-4.7c3-2.4,6.7-7.1,7.5-8.5 c0.3-0.6-3.5,2.7-4.2,2.5c-0.8-0.2-0.2-2.3-0.4-3.4c0,0,1.8-5,6.4-7.1c3.9-1.9,6.6,0.2,6.6,0.2c0.4,1.1,1.5,2,1.2,3.4 c-0.5,1.9-2,4.7-3.8,6.5c-0.9,0.9-3.6,2.2-4,1.9c-0.6-0.4,1.6-4.4,1-3.8c-1.5,1.4-4.1,7.1-7.3,9.7 C29.6,40.5,21.8,45.2,18.8,45.1z" opacity=".033"/></g><g id="path645" nodetypes="cssssssssssssssssssssss"><path id="path759" d="M18.1,46.3c-2.9-0.2-3.3-6-2.8-9.4c0.3-1.8,5.3-5.9,5.2-6.5 c-0.1-0.5-5.1,3.6-5.6,3.2c-0.8-0.7-0.2-5,1.5-6.7c2-2,6.7-3.7,9.7-4.3c2.3-0.5,5.8-0.5,5.9,0.8c0.2,1.9-3.1,7.6-5.1,9.1 c-1.2,0.9-3.1-2.3-4.3-1.6c-1.2,0.7-2.4,4-2.6,5.8c-0.3,1.9-0.5,5,1,5c1.9,0,6.7-2.9,9.4-5.1c3.1-2.6,6.9-7.6,7.7-9.1 c0.3-0.6-3.6,2.9-4.3,2.7c-0.8-0.2-0.3-2.4-0.4-3.7c0,0,1.9-5.3,6.6-7.7c4-2,6.8,0.3,6.8,0.3c0.4,1.2,1.6,2.2,1.2,3.6 c-0.5,2.1-2.1,5-3.9,7c-0.9,1-3.7,2.3-4.2,2c-0.6-0.4,1.7-4.7,1-4.1c-1.5,1.5-4.2,7.6-7.6,10.4C29.1,41.4,21.1,46.5,18.1,46.3z" opacity=".033"/></g><g id="path646" nodetypes="cssssssssssssssssssssss"><path id="path761" d="M20.6,42.8c-2.5-0.1-2.8-4.8-2.4-7.6c0.2-1.5,4.5-4.7,4.4-5.3 c-0.1-0.4-4.4,2.9-4.8,2.5c-0.7-0.6-0.2-4,1.3-5.4c1.7-1.6,5.8-3,8.3-3.5c1.9-0.4,5-0.4,5.1,0.7c0.1,1.6-2.7,6.1-4.4,7.4 c-1,0.8-2.7-1.9-3.6-1.3c-1,0.6-2,3.3-2.3,4.6c-0.2,1.5-0.4,4,0.9,4c1.7,0,5.8-2.3,8-4.1c2.6-2.1,5.9-6.2,6.6-7.4 c0.3-0.5-3.1,2.3-3.7,2.2c-0.7-0.1-0.2-2-0.3-3c0,0,1.6-4.3,5.7-6.2c3.4-1.6,5.8,0.2,5.8,0.2c0.3,1,1.4,1.7,1,2.9 c-0.4,1.7-1.8,4.1-3.3,5.7c-0.8,0.8-3.2,1.9-3.6,1.6c-0.5-0.3,1.4-3.8,0.9-3.3c-1.3,1.2-3.6,6.2-6.5,8.4 C30.1,38.8,23.3,42.9,20.6,42.8z" opacity=".033"/></g><g id="path729" nodetypes="cssssssssssssssssssssss"><path id="path763" d="M20.5,42.8c-2.4-0.1-2.7-4.6-2.3-7.3c0.2-1.4,4.4-4.5,4.3-5 c-0.1-0.4-4.2,2.8-4.7,2.4c-0.7-0.5-0.2-3.8,1.3-5.1c1.7-1.5,5.6-2.8,8-3.3c1.9-0.4,4.8-0.4,4.9,0.6c0.1,1.5-2.6,5.8-4.2,7 c-1,0.7-2.6-1.8-3.5-1.3c-1,0.5-2,3.1-2.2,4.4c-0.2,1.4-0.4,3.8,0.9,3.8c1.6,0,5.6-2.2,7.8-3.9c2.6-2,5.8-5.9,6.4-7 c0.3-0.5-3,2.2-3.6,2.1c-0.7-0.1-0.2-1.9-0.3-2.8c0,0,1.5-4.1,5.5-5.9c3.3-1.5,5.6,0.2,5.6,0.2c0.3,0.9,1.3,1.7,1,2.8 c-0.4,1.6-1.7,3.9-3.2,5.4c-0.7,0.8-3.1,1.8-3.5,1.5c-0.5-0.3,1.4-3.6,0.8-3.1c-1.3,1.1-3.5,5.9-6.3,8 C29.7,39,23.1,42.9,20.5,42.8z" opacity=".033"/></g><g id="path730" nodetypes="cssssssssssssssssssssss"><path id="path765" d="M20.3,42.8c-2.2-0.1-2.5-4.3-2.1-6.8c0.2-1.3,3.9-4.2,3.9-4.7 c-0.1-0.3-3.8,2.6-4.2,2.3C17.2,33,17.7,30,19,28.7c1.5-1.4,5.1-2.7,7.3-3.1c1.7-0.4,4.4-0.4,4.4,0.6c0.1,1.4-2.4,5.5-3.8,6.6 c-0.9,0.7-2.4-1.7-3.2-1.2c-0.9,0.5-1.8,2.9-2,4.2c-0.2,1.3-0.4,3.6,0.8,3.6c1.5,0,5.1-2.1,7-3.7c2.3-1.8,5.2-5.5,5.8-6.6 c0.2-0.4-2.7,2.1-3.3,2c-0.6-0.1-0.2-1.8-0.3-2.7c0,0,1.4-3.9,5-5.5c3-1.4,5.1,0.2,5.1,0.2c0.3,0.9,1.2,1.6,0.9,2.6 c-0.4,1.5-1.6,3.6-2.9,5.1c-0.7,0.7-2.8,1.7-3.1,1.5c-0.4-0.3,1.2-3.4,0.8-3c-1.2,1.1-3.1,5.5-5.7,7.5 C28.6,39.2,22.6,42.9,20.3,42.8z" opacity=".033"/></g><g id="path731" nodetypes="cssssssssssssssssssssss"><path id="path767" d="M20.7,42.8c-2.5-0.2-2.8-5.4-2.4-8.6c0.2-1.7,4.5-5.3,4.5-5.9 c-0.1-0.4-4.4,3.3-4.9,2.9c-0.7-0.6-0.2-4.5,1.3-6.1c1.7-1.8,5.8-3.4,8.4-4c2-0.5,5-0.5,5.1,0.7c0.1,1.8-2.7,6.9-4.4,8.3 c-1,0.8-2.7-2.1-3.7-1.5c-1,0.6-2.1,3.7-2.3,5.2c-0.2,1.7-0.4,4.5,0.9,4.5c1.7,0,5.8-2.6,8.1-4.6c2.7-2.3,6-7,6.7-8.3 c0.3-0.6-3.1,2.6-3.8,2.5c-0.7-0.2-0.2-2.2-0.3-3.3c0,0,1.6-4.9,5.7-7c3.4-1.8,5.9,0.2,5.9,0.2c0.3,1.1,1.4,2,1,3.3 c-0.5,1.9-1.8,4.6-3.4,6.4c-0.8,0.9-3.2,2.1-3.6,1.8c-0.5-0.3,1.4-4.3,0.9-3.7c-1.3,1.4-3.6,7-6.5,9.5 C30.2,38.3,23.3,43,20.7,42.8z" opacity=".033"/></g><g id="path732" nodetypes="ccccc"><path id="path769" fill="#00A800" d="M29.3,14c-0.5,0.1-1.4,0.5-1.9,0.6c0.4-7,2.6-12.7,9.4-12.9 c-4.9,2.5-5.9,8.2-6.4,13.5C30.6,15.3,29.6,14.3,29.3,14z" opacity=".891"/><path id="path770" fill="none" stroke="#007600" stroke-linecap="round" stroke-linejoin="round" stroke-width=".527" d="M29.3,14c-0.5,0.1-1.4,0.5-1.9,0.6c0.4-7,2.6-12.7,9.4-12.9c-4.9,2.5-5.9,8.2-6.4,13.5C30.6,15.3,29.6,14.3,29.3,14z"/></g><linearGradient id="path733_1_" x1="-231.881" x2="-231.934" y1="441.997" y2="442.05" gradientTransform="matrix(50.2114 0 0 -64.1212 11675.4961 28347.2344)" gradientUnits="userSpaceOnUse"><stop style="stop-color:#fff" id="stop772" offset="0"/><stop style="stop-color:#fff" id="stop773" offset="1"/></linearGradient><path id="path733" fill="url(#path733_1_)" d="M31.2,3.7c0.3-0.4,1.6-1,1.7-0.7 c0.2,0.5-0.5,1.4-0.9,2c-0.4,0.6-1.5,1.9-1.7,1.4C29.8,5.7,30.6,4.4,31.2,3.7z" nodetypes="cssss"/><g id="path734" nodetypes="ccccc"><radialGradient id="XMLID_7_" cx="-230.236" cy="445.745" r=".037" fx="-230.236" fy="445.745" gradientTransform="matrix(165.9503 0 0 -229.0001 38241.9453 102092.6875)" gradientUnits="userSpaceOnUse"><stop style="stop-color:#fff" id="stop780" offset="0"/><stop style="stop-color:#fff" id="stop781" offset="1"/></radialGradient><path id="path785" fill="url(#XMLID_7_)" d="M29.3,14c-0.5,0.1-1.4,0.5-1.9,0.6c0.4-7,2.6-12.7,9.4-12.9 c-5.2,1.2-7.4,5.8-7.5,12.3C29.5,14,29.6,14.3,29.3,14z" opacity=".673"/></g><g id="g786" nodetypes="ccccc"><path id="path787" fill="#009000" d="M29,14c-0.4-0.4-1.1-0.9-1.5-1.3c4.8-3,9.8-4,13.7,1.5 c-4.4-2.9-8.7-1-12.5,1.3C28.9,15.7,28.9,14.3,29,14z" opacity=".673"/><path id="path788" fill="none" stroke="#007300" stroke-linecap="round" stroke-linejoin="round" stroke-width=".527" d="M29,14c-0.4-0.4-1.1-0.9-1.5-1.3c4.8-3,9.8-4,13.7,1.5c-4.4-2.9-8.7-1-12.5,1.3C28.9,15.7,28.9,14.3,29,14z"/></g><linearGradient id="path736_1_" x1="-232.19" x2="-232.242" y1="439.406" y2="439.459" gradientTransform="matrix(66.8658 0 0 -25.8777 15562.9863 11382.4512)" gradientUnits="userSpaceOnUse"><stop style="stop-color:#fff" id="stop790" offset="0"/><stop style="stop-color:#fff" id="stop791" offset="1"/></linearGradient><path id="path736" fill="url(#path736_1_)" d="M36.8,10.5c0.5,0.1,1.6,0.8,1.4,1.1 C38,12,37,11.9,36.3,11.8c-0.6-0.1-2.1-0.3-1.9-0.7C34.7,10.3,36,10.4,36.8,10.5z" nodetypes="cssss"/><g id="g796" nodetypes="ccccc"><radialGradient id="XMLID_8_" cx="-229.795" cy="444.881" r=".038" fx="-229.795" fy="444.881" gradientTransform="matrix(243.7714 0 0 -70.3425 56051.4844 31311.1738)" gradientUnits="userSpaceOnUse"><stop style="stop-color:#fff" id="stop798" offset="0"/><stop style="stop-color:#fff" id="stop799" offset="1"/></radialGradient><path id="path803" fill="url(#XMLID_8_)" d="M29,14c-0.4-0.4-1.1-0.9-1.5-1.3c4.8-3,9.8-4,13.7,1.5 c-3.8-3.7-8-3.3-12.3-0.3C29.1,14.1,28.9,14.3,29,14z" opacity=".673"/></g><g id="g804" nodetypes="ccccc"><path id="path805" fill="#009000" d="M28.5,14c-0.1-0.6-0.6-1.4-0.7-2c6.5-0.3,11.9,1.5,12.6,8.7 c-2.6-5.1-8-5.5-12.9-5.4C27.4,15.5,28.2,14.3,28.5,14z" opacity=".673"/><path id="path806" fill="none" stroke="#007E00" stroke-linecap="round" stroke-linejoin="round" stroke-width=".527" d="M28.5,14c-0.1-0.6-0.6-1.4-0.7-2c6.5-0.3,11.9,1.5,12.6,8.7c-2.6-5.1-8-5.5-12.9-5.4C27.4,15.5,28.2,14.3,28.5,14z"/></g><linearGradient id="path739_1_" x1="-232.711" x2="-232.763" y1="444.231" y2="444.284" gradientTransform="matrix(62.1528 0 0 -49.2969 14501.9805 21915.3809)" gradientUnits="userSpaceOnUse"><stop style="stop-color:#fff" id="stop808" offset="0"/><stop style="stop-color:#fff" id="stop809" offset="1"/></linearGradient><path id="path739" fill="url(#path739_1_)" d="M38.1,14.9c0.4,0.3,1,1.6,0.7,1.8 c-0.4,0.2-1.3-0.4-1.9-0.8c-0.6-0.4-1.9-1.4-1.4-1.7C36.2,13.6,37.4,14.4,38.1,14.9z" nodetypes="cssss"/><g id="path740" nodetypes="ccccc"><path id="path815" fill="#009000" d="M29,14.6c0.2-0.6,0.4-1.6,0.6-2.2c5.7,3.6,9.4,8.3,5.7,15.1 c0.7-6-3.6-9.6-7.9-12.4C27.2,15.3,28.6,14.7,29,14.6z" opacity=".673"/><path id="path816" fill="none" stroke="#006D00" stroke-linecap="round" stroke-linejoin="round" stroke-width=".527" d="M29,14.6c0.2-0.6,0.4-1.6,0.6-2.2c5.7,3.6,9.4,8.3,5.7,15.1c0.7-6-3.6-9.6-7.9-12.4C27.2,15.3,28.6,14.7,29,14.6z" opacity=".583"/></g><linearGradient id="path741_1_" x1="-235.016" x2="-235.068" y1="446.291" y2="446.344" gradientTransform="matrix(37.2164 0 0 -74.2238 8782.877 33147.625)" gradientUnits="userSpaceOnUse"><stop style="stop-color:#fff" id="stop818" offset="0"/><stop style="stop-color:#fff" id="stop819" offset="1"/></linearGradient><path id="path741" fill="url(#path741_1_)" d="M36.7,21.1c0.2,0.5-0.1,2-0.4,2 c-0.5,0-0.9-1.1-1.2-1.8c-0.2-0.7-0.8-2.3-0.2-2.3C35.8,18.8,36.4,20.2,36.7,21.1z" nodetypes="cssss"/><path id="path742" fill="url(#path739_1_)" d="M38.1,14.9c0.4,0.3,1,1.6,0.7,1.8 c-0.4,0.2-1.3-0.4-1.9-0.8c-0.6-0.4-1.9-1.4-1.4-1.7C36.2,13.6,37.4,14.4,38.1,14.9z" nodetypes="cssss"/><g id="path743" nodetypes="ccccc"><path id="path826" fill="#00B900" d="M28.3,12.4c0.5-0.3,1.4-0.4,1.9-0.7c-4.7-5.3-10-8.6-15.4-4.7 c5.5-1,9.8,3,13.5,7C28,14.2,28.3,12.8,28.3,12.4z" opacity=".744"/><path id="path827" fill="none" stroke="#008300" stroke-linecap="round" stroke-linejoin="round" stroke-width=".527" d="M28.3,12.4c0.5-0.3,1.4-0.4,1.9-0.7c-4.7-5.3-10-8.6-15.4-4.7c5.5-1,9.8,3,13.5,7C28,14.2,28.3,12.8,28.3,12.4z"/></g><linearGradient id="path744_1_" x1="-228.3" x2="-228.353" y1="438.646" y2="438.699" gradientTransform="matrix(75.2513 0 0 -33.815 17201.9746 14839.6504)" gradientUnits="userSpaceOnUse"><stop style="stop-color:#fff" id="stop829" offset="0"/><stop style="stop-color:#fff" id="stop830" offset="1"/></linearGradient><path id="path744" fill="url(#path744_1_)" d="M20.4,5.3c-0.5-0.1-1.9,0.2-1.8,0.5 c0.1,0.5,1.3,0.8,2,1C21.3,7,23,7.5,22.9,6.9C22.8,6,21.3,5.5,20.4,5.3z" nodetypes="cssss"/><g id="path745" nodetypes="ccccc"><radialGradient id="XMLID_9_" cx="-228.91" cy="445.221" r=".038" fx="-228.91" fy="445.221" gradientTransform="matrix(273.6722 0 0 -128.7966 62667.3203 57358.375)" gradientUnits="userSpaceOnUse"><stop style="stop-color:#fff" id="stop837" offset="0"/><stop style="stop-color:#fff" id="stop838" offset="1"/></radialGradient><path id="path842" fill="url(#XMLID_9_)" d="M28.3,12.4c0.5-0.3,1.4-0.4,1.9-0.7c-4.7-5.3-10-8.6-15.4-4.7 C19.7,4.9,24.2,7.3,28.3,12.4C28.2,12.5,28.3,12.8,28.3,12.4z" opacity=".673"/></g><g id="path746" nodetypes="ccccc"><path id="path844" fill="#00AC00" d="M28.3,14.8c-0.2-0.5-0.4-1.5-0.6-2c-5.5,5.1-9,10.9-5.1,16.7 c-0.9-5.9,3.3-10.6,7.4-14.6C30.2,15.1,28.7,14.8,28.3,14.8z" opacity=".82"/><path id="path845" fill="none" stroke="#008B00" stroke-linecap="round" stroke-linejoin="round" stroke-width=".527" d="M28.3,14.8c-0.2-0.5-0.4-1.5-0.6-2c-5.5,5.1-9,10.9-5.1,16.7c-0.9-5.9,3.3-10.6,7.4-14.6C30.2,15.1,28.7,14.8,28.3,14.8z"/></g><linearGradient id="path747_1_" x1="-228.832" x2="-228.884" y1="446.729" y2="446.782" gradientTransform="matrix(34.6038 0 0 -81.5816 7941.0161 36469.1914)" gradientUnits="userSpaceOnUse"><stop style="stop-color:#fff" id="stop847" offset="0"/><stop style="stop-color:#fff" id="stop848" offset="1"/></linearGradient><path id="path852" fill="url(#path747_1_)" d="M21,23.4c-0.2,0.6,0.1,2.1,0.5,1.9 c0.5-0.2,0.9-1.4,1.1-2.2c0.2-0.8,0.7-2.5,0.2-2.4C21.7,20.9,21.2,22.4,21,23.4z" nodetypes="cssss"/><g id="path748" nodetypes="ccccc"><radialGradient id="XMLID_10_" cx="-229.752" cy="446.664" r=".037" fx="-229.752" fy="446.664" gradientTransform="matrix(135.0938 0 0 -296.7469 31065.8203 132578.0313)" gradientUnits="userSpaceOnUse"><stop style="stop-color:#fff" id="stop855" offset="0"/><stop style="stop-color:#fff" id="stop856" offset="1"/></radialGradient><path id="path860" fill="url(#XMLID_10_)" d="M28.3,14.8c-0.2-0.5-0.4-1.5-0.6-2c-5.5,5.1-9,10.9-5.1,16.7 C20.5,24.2,23,19.3,28.3,14.8C28.4,14.9,28.7,14.8,28.3,14.8z" opacity=".673"/></g><g id="path749" nodetypes="ccccc"><path id="path862" fill="#009000" d="M28.4,12.9c0.2-0.5,0.7-1.3,0.9-1.8c-6.1-0.6-11.6,0.7-13.1,7.5 c3.1-4.6,8.3-4.8,13-4.4C29.3,14.4,28.7,13.2,28.4,12.9z" opacity=".673"/><path id="path863" fill="none" stroke="#008700" stroke-linecap="round" stroke-linejoin="round" stroke-width=".527" d="M28.4,12.9c0.2-0.5,0.7-1.3,0.9-1.8c-6.1-0.6-11.6,0.7-13.1,7.5c3.1-4.6,8.3-4.8,13-4.4C29.3,14.4,28.7,13.2,28.4,12.9z"/></g><linearGradient id="path750_1_" x1="-228.107" x2="-228.16" y1="443.314" y2="443.367" gradientTransform="matrix(62.3631 0 0 -43.6631 14246.5996 19371.0352)" gradientUnits="userSpaceOnUse"><stop style="stop-color:#fff" id="stop865" offset="0"/><stop style="stop-color:#fff" id="stop866" offset="1"/></linearGradient><path id="path750" fill="url(#path750_1_)" d="M19.3,13.3c-0.4,0.3-1.2,1.5-0.9,1.6 c0.4,0.2,1.3-0.3,1.9-0.7c0.6-0.4,1.9-1.2,1.5-1.5C21.2,12.2,20,12.8,19.3,13.3z" nodetypes="cssss"/><g id="path751" nodetypes="ccccc"><radialGradient id="XMLID_11_" cx="-229.034" cy="446.004" r=".038" fx="-229.034" fy="446.004" gradientTransform="matrix(231.8698 0 0 -134.8836 53128.7344 60180.0117)" gradientUnits="userSpaceOnUse"><stop style="stop-color:#fff" id="stop873" offset="0"/><stop style="stop-color:#fff" id="stop874" offset="1"/></radialGradient><path id="path878" fill="url(#XMLID_11_)" d="M28.4,12.9c0.2-0.5,0.7-1.3,0.9-1.8 c-6.1-0.6-11.6,0.7-13.1,7.5c2.1-5,6.5-6.5,12.2-5.7C28.4,13.1,28.7,13.2,28.4,12.9z" opacity=".673"/></g></g><rect id="rect879" width="48" height="48" x=".1" fill="none"/></g></svg>