<svg xmlns="http://www.w3.org/2000/svg" xmlns:xlink="http://www.w3.org/1999/xlink" id="svg602" width="42.3" height="54.2" enable-background="new 0 0 42.3 54.2" overflow="visible" viewBox="0 0 42.3 54.2" xml:space="preserve"><g id="Layer_1"><g id="g606"><g id="path583" nodetypes="ccc"><path id="path608" fill="none" stroke="#000" stroke-linecap="round" stroke-linejoin="round" stroke-width="3.403" d="M19.4,3.2C-10.9,13.3,4.6,64.3,39.1,47.7C17.3,42.7,10.3,18.6,19.4,3.2z" opacity=".03"/></g><g id="path582" nodetypes="ccc"><path id="path610" fill="none" stroke="#000" stroke-linecap="round" stroke-linejoin="round" stroke-width="3.552" d="M19.4,3.2C-10.9,13.3,4.6,64.3,39.1,47.7C17.3,42.7,10.3,18.6,19.4,3.2z" opacity=".03"/></g><g id="path581" nodetypes="ccc"><path id="path612" fill="none" stroke="#000" stroke-linecap="round" stroke-linejoin="round" stroke-width="3.787" d="M19.4,3.2C-10.9,13.3,4.6,64.3,39.1,47.7C17.3,42.7,10.3,18.6,19.4,3.2z" opacity=".03"/></g><g id="path580" nodetypes="ccc"><path id="path614" fill="none" stroke="#000" stroke-linecap="round" stroke-linejoin="round" stroke-width="4.678" d="M19.4,3.2C-10.9,13.3,4.6,64.3,39.1,47.7C17.3,42.7,10.3,18.6,19.4,3.2z" opacity=".03"/></g><g id="path579" nodetypes="ccc"><path id="path616" fill="none" stroke="#000" stroke-linecap="round" stroke-linejoin="round" stroke-width="5.891" d="M19.4,3.2C-10.9,13.3,4.6,64.3,39.1,47.7C17.3,42.7,10.3,18.6,19.4,3.2z" opacity=".03"/></g><g id="path577" nodetypes="ccc"><path id="path618" fill="none" stroke="#000" stroke-linecap="round" stroke-linejoin="round" stroke-width="6.398" d="M19.4,3.2C-10.9,13.3,4.6,64.3,39.1,47.7C17.3,42.7,10.3,18.6,19.4,3.2z" opacity=".03"/></g><linearGradient id="path565_1_" x1="-161.325" x2="-158.662" y1="475.037" y2="472.88" gradientUnits="userSpaceOnUse"><stop style="stop-color:#000" id="stop620" offset="0"/><stop style="stop-color:#fff" id="stop621" offset="1"/></linearGradient><path id="path565" stroke="url(#path565_1_)" stroke-linecap="round" stroke-linejoin="round" stroke-width="1.275" d="M19.4,3.2C-10.9,13.3,4.6,64.3,39.1,47.7C17.3,42.7,10.3,18.6,19.4,3.2z" nodetypes="ccc"/><linearGradient id="path572_1_" x1="22.579" x2="19.51" y1="54.568" y2="17.047" gradientUnits="userSpaceOnUse"><stop style="stop-color:#494247" id="stop627" offset="0"/><stop style="stop-color:#6c666a" id="stop628" offset=".106"/><stop style="stop-color:#999597" id="stop629" offset=".26"/><stop style="stop-color:#bdbbbd" id="stop630" offset=".415"/><stop style="stop-color:#dad9da" id="stop631" offset=".567"/><stop style="stop-color:#efeeee" id="stop632" offset=".717"/><stop style="stop-color:#fbfbfb" id="stop633" offset=".863"/><stop style="stop-color:#fff" id="stop634" offset="1"/></linearGradient><linearGradient id="path572_2_" x1="-8046.083" x2="-8045.306" y1="-8111.894" y2="-8112.523" gradientUnits="userSpaceOnUse"><stop style="stop-color:#000" id="stop639" offset="0"/><stop style="stop-color:#fff" id="stop640" offset="1"/></linearGradient><path id="path572" fill="url(#path572_1_)" stroke="url(#path572_2_)" stroke-linecap="round" stroke-linejoin="round" stroke-width="1.275" d="M19.4,3.2C-10.9,13.3,4.6,64.3,39.1,47.7C17.3,42.7,10.3,18.6,19.4,3.2z" nodetypes="ccc" opacity=".4"/></g></g></svg>