<svg xmlns="http://www.w3.org/2000/svg" xmlns:xlink="http://www.w3.org/1999/xlink" id="svg602" width="48" height="48" enable-background="new 0 0 48 48" overflow="visible" viewBox="0 0 48 48" xml:space="preserve"><g id="Layer_1"><g id="g606"><g id="g607"><radialGradient id="path700_1_" cx="-278.059" cy="416.677" r=".051" fx="-278.059" fy="416.677" gradientTransform="matrix(242.9707 0 0 -67.308 67582.8984 28089.1133)" gradientUnits="userSpaceOnUse"><stop style="stop-color:#8c92af" id="stop609" offset="0"/><stop style="stop-color:#e7e7e7" id="stop610" offset="1"/></radialGradient><path id="path700" fill="url(#path700_1_)" d="M33.5,39.7c5.5,1.7,6.9,3.3,0.6,5.7 c-6.2,2.4-15.7,3.1-21.2,1.4c-4.6-1.4-5.2-3.2-1.2-5.6c3.3,1.2,5.5,1.9,11.8,1.7C29,42.4,30.5,41.6,33.5,39.7z" nodetypes="cccccc" opacity=".6"/><path id="path647_3_" fill="none" stroke="#000" stroke-width="3" d="M19.4,20.2c-0.2,0.9,0,0.8-0.3,1.6c-2.1,0.2-15.9,5.9-8.6,12.4c1.1,1.2,2.9-1.2,0.7-2.7c-2.2-1.7,5-4.3,4.5-3.5 c-1.7,3.5-4.2,9.3-4.1,13.1c6.5,2.4,16.1,2.7,21.8-1.6c0-3.6-1.4-10.3-2.9-13.8c1.5,0.2,5.7-0.5,6.8,3.9 c0.2,1.3,2.4,1.5,2.3-0.5c-0.5-7.7-10-8.5-11-8.6c-0.3-0.8-0.2-0.5-0.5-1.3" nodetypes="ccccscccsscc" opacity=".1"/><path id="path647_4_" fill="none" stroke="#000" stroke-width="2" d="M19.4,20.2c-0.2,0.9,0,0.8-0.3,1.6c-2.1,0.2-15.9,5.9-8.6,12.4c1.1,1.2,2.9-1.2,0.7-2.7c-2.2-1.7,5-4.3,4.5-3.5 c-1.7,3.5-4.2,9.3-4.1,13.1c6.5,2.4,16.1,2.7,21.8-1.6c0-3.6-1.4-10.3-2.9-13.8c1.5,0.2,5.7-0.5,6.8,3.9 c0.2,1.3,2.4,1.5,2.3-0.5c-0.5-7.7-10-8.5-11-8.6c-0.3-0.8-0.2-0.5-0.5-1.3" nodetypes="ccccscccsscc" opacity=".15"/><path id="path647_2_" fill="none" stroke="#000" d="M19.4,20.2 c-0.2,0.9,0,0.8-0.3,1.6c-2.1,0.2-15.9,5.9-8.6,12.4c1.1,1.2,2.9-1.2,0.7-2.7c-2.2-1.7,5-4.3,4.5-3.5 c-1.7,3.5-4.2,9.3-4.1,13.1c6.5,2.4,16.1,2.7,21.8-1.6c0-3.6-1.4-10.3-2.9-13.8c1.5,0.2,5.7-0.5,6.8,3.9 c0.2,1.3,2.4,1.5,2.3-0.5c-0.5-7.7-10-8.5-11-8.6c-0.3-0.8-0.2-0.5-0.5-1.3" nodetypes="ccccscccsscc" opacity=".2"/><linearGradient id="path641_1_" x1="-277.995" x2="-278.103" y1="414.568" y2="414.527" gradientTransform="matrix(260.0263 0 0 -197.2322 72328.3984 81791.9063)" gradientUnits="userSpaceOnUse"><stop style="stop-color:#8c92af" id="stop619" offset="0"/><stop style="stop-color:#e7e7e7" id="stop620" offset="1"/></linearGradient><path id="path641" fill="url(#path641_1_)" d="M19.5,20.3c-0.2,0.9,0,0.8-0.3,1.6 c-2.1,0.2-15.9,5.9-8.6,12.4c1.1,1.2,2.9-1.2,0.7-2.7c-2.2-1.7,5-4.3,4.5-3.5c-1.7,3.5-4.2,9.3-4.1,13.1 c6.5,2.4,16.1,2.7,21.8-1.6c0-3.6-1.4-10.3-2.9-13.8c1.5,0.2,5.7-0.5,6.8,3.9c0.2,1.3,2.4,1.5,2.3-0.5c-0.5-7.7-10-8.5-11-8.6 c-0.3-0.8-0.2-0.5-0.5-1.3C26.1,20.6,21.8,21.6,19.5,20.3z" nodetypes="ccccscccssccc"/><linearGradient id="path648_1_" x1="-278.127" x2="-278.037" y1="414.56" y2="414.531" gradientTransform="matrix(260.0266 0 0 -197.232 72328.3906 81791.7734)" gradientUnits="userSpaceOnUse"><stop style="stop-color:#8c92af" id="stop626" offset="0"/><stop style="stop-color:#e7e7e7" id="stop627" offset="1"/></linearGradient><path id="path648" fill="url(#path648_1_)" stroke="#000" stroke-width=".5" d="M19.5,20.3c-0.2,0.9,0,0.8-0.3,1.6c-2.1,0.2-15.9,5.9-8.6,12.4c1.1,1.2,2.9-1.2,0.7-2.7c-2.2-1.7,5-4.3,4.5-3.5 c-1.7,3.5-4.2,9.3-4.1,13.1c6.5,2.4,16.1,2.7,21.8-1.6c0-3.6-1.4-10.3-2.9-13.8c1.5,0.2,5.7-0.5,6.8,3.9 c0.2,1.3,2.4,1.5,2.3-0.5c-0.5-7.7-10-8.5-11-8.6c-0.3-0.8-0.2-0.5-0.5-1.3C26.1,20.6,21.8,21.6,19.5,20.3z" nodetypes="ccccscccssccc"/><radialGradient id="path577_1_" cx="-236.092" cy="370.623" r="42.329" fx="-236.092" fy="370.623" gradientTransform="matrix(159.0767 0 0 -170.8617 44248.4063 70701.2188)" gradientUnits="userSpaceOnUse"><stop style="stop-color:#ff6f00" id="stop633" offset="0"/><stop style="stop-color:#ff0" id="stop634" offset="1"/></radialGradient><circle id="path577" cx="22.9" cy="10.7" r="9.7" fill="url(#path577_1_)"/><linearGradient id="path636_1_" x1="-278.016" x2="-278.016" y1="413.651" y2="413.723" gradientTransform="matrix(161.2655 0 0 -170.8616 44857.5078 70701.0938)" gradientUnits="userSpaceOnUse"><stop style="stop-color:#eb852f" id="stop640" offset="0"/><stop style="stop-color:#ff0" id="stop641" offset="1"/></linearGradient><path id="path636" fill="url(#path636_1_)" d="M13.1,10.7c0-5.6,4.3-10.1,9.7-10.1 s10,4.2,10,9.8s-4.6,10.4-10,10.4S13.1,16.3,13.1,10.7z" nodetypes="ccccc" opacity=".7"/><linearGradient id="path653_1_" x1="-278.041" x2="-277.963" y1="412.887" y2="412.725" gradientTransform="matrix(161.4472 0 0 -85.2899 44905.7109 35216.9141)" gradientUnits="userSpaceOnUse"><stop style="stop-color:#000" id="stop647" offset="0"/><stop style="stop-color:#e7e7e7" id="stop648" offset="1"/></linearGradient><linearGradient id="path653_2_" x1="-278.32" x2="-277.538" y1="414.305" y2="413.938" gradientUnits="userSpaceOnUse"><stop style="stop-color:#8c92af" id="stop653" offset="0"/><stop style="stop-color:#e7e7e7" id="stop654" offset="1"/></linearGradient><path id="path653" fill="url(#path653_1_)" stroke="url(#path653_2_)" stroke-width=".064" d="M24.9,5.7c-2.7,0.8-5.9,5-12.1,4.8C13.2-1.1,28.4-3.7,32.2,7.1C30.1,8.6,26.7,6.1,24.9,5.7" nodetypes="cccc"/><radialGradient id="path587_1_" cx="-277.989" cy="411.821" r=".149" fx="-277.989" fy="411.821" gradientTransform="matrix(91.706 0 0 -52.0368 25516.1836 21430.9258)" gradientUnits="userSpaceOnUse"><stop style="stop-color:#fff" id="stop660" offset="0"/><stop style="stop-color:#f5ffff" id="stop661" offset="1"/></radialGradient><path id="path587" fill="url(#path587_1_)" d="M22.7,6.8c-4.8-0.1-5.8-2.3-5.3-3.4 c0.5-1.2,2.1-2.8,5.2-2.9c3-0.1,4.9,1.3,5.6,2.7C28.6,4.2,27.4,6.7,22.7,6.8z" nodetypes="ccccc" opacity=".4"/><g id="path629" nodetypes="ccccccc"><linearGradient id="XMLID_1_" x1="-278.255" x2="-277.682" y1="416.438" y2="416.456" gradientTransform="matrix(34.898 0 0 -152.3408 9732.1855 63471.582)" gradientUnits="userSpaceOnUse"><stop style="stop-color:#eb2f2f" id="stop668" offset="0"/><stop style="stop-color:#ff0" id="stop669" offset="1"/></linearGradient><path id="path673" fill="url(#XMLID_1_)" d="M22.9,21.9c0.2,0.6,0.5,1.1,0.7,1.7c-0.8,6.7-1.3,9.7-2,16.4 c1.8-1.4,3.3-1.1,4.2-2.3c0-6.8-0.6-7.4-1.4-14.1c0.1-0.6,0.3-1.2,0.4-1.9C24.1,21.8,23.5,21.9,22.9,21.9z"/><path id="path674" fill="none" stroke="#000" stroke-width=".043" d="M22.9,21.9 c0.2,0.6,0.5,1.1,0.7,1.7c-0.8,6.7-1.3,9.7-2,16.4c1.8-1.4,3.3-1.1,4.2-2.3c0-6.8-0.6-7.4-1.4-14.1c0.1-0.6,0.3-1.2,0.4-1.9 C24.1,21.8,23.5,21.9,22.9,21.9z" opacity=".739"/></g><g id="path627" nodetypes="ccccccc" opacity=".2"><linearGradient id="XMLID_2_" x1="-278.047" x2="-278.143" y1="416.368" y2="416.41" gradientTransform="matrix(34.8981 0 0 -152.3409 9732.2158 63471.5859)" gradientUnits="userSpaceOnUse"><stop style="stop-color:#eb2f2f" id="stop677" offset="0"/><stop style="stop-color:#ff0" id="stop678" offset="1"/></linearGradient><path id="path682" fill="url(#XMLID_2_)" d="M22.9,21.9c0.2,0.6,0.5,1.1,0.7,1.7c-0.8,6.7-1.3,9.7-2,16.4 c1.8-1.4,3.3-1.1,4.2-2.3c0-6.8-0.6-7.4-1.4-14.1c0.1-0.6,0.3-1.2,0.4-1.9C24.1,21.8,23.5,21.9,22.9,21.9z"/><path id="path683" fill="none" stroke="#460000" stroke-linecap="round" stroke-linejoin="round" stroke-width=".224" d="M22.9,21.9c0.2,0.6,0.5,1.1,0.7,1.7c-0.8,6.7-1.3,9.7-2,16.4c1.8-1.4,3.3-1.1,4.2-2.3c0-6.8-0.6-7.4-1.4-14.1 c0.1-0.6,0.3-1.2,0.4-1.9C24.1,21.8,23.5,21.9,22.9,21.9z" opacity=".147"/></g><linearGradient id="path634_1_" x1="-277.659" x2="-277.291" y1="415.853" y2="415.957" gradientTransform="matrix(15.6602 0 0 -65.8411 4369.7432 27417.3633)" gradientUnits="userSpaceOnUse"><stop style="stop-color:#fff" id="stop685" offset="0"/><stop style="stop-color:#f5ffff" id="stop686" offset="1"/></linearGradient><path id="path634" fill="url(#path634_1_)" d="M22.5,32.2c-0.8,6.7-0.2,1-1,7.7 c1-0.8,1.3-0.7,1.9-1C23.5,32.1,22.4,31.6,22.5,32.2z" nodetypes="cccc" opacity=".8"/><linearGradient id="path637_1_" x1="-278.216" x2="-278.213" y1="414.862" y2="414.808" gradientTransform="matrix(15.3753 0 0 -30.7957 4301.5527 12799.5801)" gradientUnits="userSpaceOnUse"><stop style="stop-color:#000" id="stop692" offset="0"/><stop style="stop-color:#000" id="stop693" offset="1"/></linearGradient><path id="path637" fill="url(#path637_1_)" d="M22.9,21.9c0.2,0.6,0.5,1.1,0.7,1.7 c-0.3,2.4,1.1,2.4,0.8,0c0.1-0.6,0.3-1.2,0.4-1.9C24.1,21.8,23.5,21.9,22.9,21.9z" nodetypes="ccccc"/></g><rect id="rect698" width="48" height="48" fill="none" opacity=".1"/></g></g></svg>