<svg xmlns="http://www.w3.org/2000/svg" xmlns:xlink="http://www.w3.org/1999/xlink" id="svg602" width="48" height="48.7" enable-background="new 0 0 48 48.7" overflow="visible" viewBox="0 0 48 48.7" xml:space="preserve"><g id="Layer_1"><g id="g606"><path id="path597_5_" fill="none" stroke="#474000" stroke-width="1.882" d="M5.6,20.2c0-10.7,8-19.3,17.8-19.3c9.8,0,18.4,8.1,18.4,18.7c0,10.7-8.6,19.9-18.4,19.9C13.6,39.5,5.6,30.9,5.6,20.2z" enable-background="new" opacity=".15"/><path id="path597_4_" fill="none" stroke="#474000" stroke-width=".941" d="M5.6,20.2c0-10.7,8-19.3,17.8-19.3c9.8,0,18.4,8.1,18.4,18.7c0,10.7-8.6,19.9-18.4,19.9C13.6,39.5,5.6,30.9,5.6,20.2z" enable-background="new" opacity=".2"/><path id="path597_3_" fill="none" stroke="#474000" stroke-width=".47" d="M5.6,20.2c0-10.7,8-19.3,17.8-19.3c9.8,0,18.4,8.1,18.4,18.7c0,10.7-8.6,19.9-18.4,19.9C13.6,39.5,5.6,30.9,5.6,20.2z" enable-background="new" opacity=".3"/><radialGradient id="path700_1_" cx="-679.571" cy="-.74" r=".064" fx="-679.571" fy="-.74" gradientTransform="matrix(310.7065 0 0 144.1183 211172.2188 149.3426)" gradientUnits="userSpaceOnUse"><stop style="stop-color:#261700" id="stop611" offset="0"/><stop style="stop-color:#d2d2d2" id="stop612" offset="1"/></radialGradient><path id="path700" fill="url(#path700_1_)" d="M37.9,31.8c6.5,4.5,6,10.6-1.9,14.3c-7.9,3.7-19.5,3.1-25.9-1.5c-5.5-3.8-5.7-9.1-0.5-13.1c3.4,4.7,6.2,6.3,14,7.3 C30.1,38.7,34.3,35.8,37.9,31.8z" enable-background="new" opacity=".3"/><radialGradient id="path577_1_" cx="-638.496" cy="42.772" r="41.557" fx="-638.496" fy="42.772" gradientTransform="matrix(298.9032 0 0 316.3969 203151.1563 -98.4275)" gradientUnits="userSpaceOnUse"><stop style="stop-color:#ff6f00" id="stop618" offset="0"/><stop style="stop-color:#ff0" id="stop619" offset="1"/></radialGradient><circle id="path577" cx="23.9" cy="20.4" r="17.8" fill="url(#path577_1_)"/><linearGradient id="path597_1_" x1="-679.565" x2="-679.567" y1=".318" y2=".437" gradientTransform="matrix(303.6933 0 0 316.3967 206403.3125 -98.1642)" gradientUnits="userSpaceOnUse"><stop style="stop-color:#ff6500" id="stop625" offset="0"/><stop style="stop-color:#ff0" id="stop626" offset="1"/></linearGradient><path id="path597" fill="url(#path597_1_)" d="M5.6,20.2c0-10.7,8-19.3,17.8-19.3c9.9,0,18.4,8,18.4,18.7c0,10.7-8.6,19.9-18.4,19.9C13.6,39.5,5.6,30.9,5.6,20.2z" enable-background="new" opacity=".75"/><radialGradient id="path597_6_" cx="-486.406" cy="426.746" r="20.235" fx="-486.406" fy="426.746" gradientTransform="matrix(1 0 0 -1 509.7773 427.6934)" gradientUnits="userSpaceOnUse"><stop style="stop-color:#fff" id="stop632" offset="0"/><stop style="stop-color:#fffefa" id="stop633" offset=".105"/><stop style="stop-color:#fffbec" id="stop634" offset=".228"/><stop style="stop-color:#fff7d4" id="stop635" offset=".362"/><stop style="stop-color:#fff1b2" id="stop636" offset=".502"/><stop style="stop-color:#ffe988" id="stop637" offset=".647"/><stop style="stop-color:#ffdf53" id="stop638" offset=".798"/><stop style="stop-color:#ffd316" id="stop639" offset=".949"/><stop style="stop-color:#ffcf00" id="stop640" offset="1"/></radialGradient><path id="path597_2_" fill="url(#path597_6_)" d="M12.2,7.8c0-3.8,5-6.9,11.1-6.9c6.1,0,11.4,2.9,11.4,6.7C34.7,11.4,12.2,11.6,12.2,7.8z" enable-background="new" opacity=".75"/><rect id="rect662" width="48" height="48" y=".7" fill="none"/><radialGradient id="path762_1_" cx="-169.709" cy="427.865" r=".072" fx="-169.709" fy="427.865" gradientTransform="matrix(93.0546 0 0 -84.595 15805.3135 36220.1406)" gradientUnits="userSpaceOnUse"><stop style="stop-color:#ff002f" id="stop661" offset="0"/><stop style="stop-color:#ff022e" id="stop662" offset=".254"/><stop style="stop-color:#ff0b2c" id="stop663" offset=".404"/><stop style="stop-color:#ff1929" id="stop664" offset=".528"/><stop style="stop-color:#ff2d24" id="stop665" offset=".637"/><stop style="stop-color:#ff471d" id="stop666" offset=".736"/><stop style="stop-color:#ff6715" id="stop667" offset=".829"/><stop style="stop-color:#ff8d0c" id="stop668" offset=".914"/><stop style="stop-color:#ffb801" id="stop669" offset=".995"/><stop style="stop-color:#fb0" id="stop670" offset="1"/></radialGradient><circle id="path762" cx="13.1" cy="25" r="6.7" fill="url(#path762_1_)" opacity=".5" rx="53.295" ry="56.679" type="arc"/><radialGradient id="path767_1_" cx="-171.595" cy="427.884" r=".072" fx="-171.595" fy="427.884" gradientTransform="matrix(92.2086 0 0 -84.5951 15856.9668 36221.0195)" gradientUnits="userSpaceOnUse"><stop style="stop-color:#ff002f" id="stop676" offset="0"/><stop style="stop-color:#ff022e" id="stop677" offset=".254"/><stop style="stop-color:#ff0b2c" id="stop678" offset=".404"/><stop style="stop-color:#ff1929" id="stop679" offset=".528"/><stop style="stop-color:#ff2d24" id="stop680" offset=".637"/><stop style="stop-color:#ff471d" id="stop681" offset=".736"/><stop style="stop-color:#ff6715" id="stop682" offset=".829"/><stop style="stop-color:#ff8d0c" id="stop683" offset=".914"/><stop style="stop-color:#ffb801" id="stop684" offset=".995"/><stop style="stop-color:#fb0" id="stop685" offset="1"/></radialGradient><circle id="path767" cx="34.5" cy="24.1" r="6.6" fill="url(#path767_1_)" opacity=".5" rx="53.295" ry="56.679" type="arc"/><path id="path639" fill="none" stroke="#795000" stroke-linecap="round" stroke-width="3" d="M16.3,32.4c3.2-3.9,13.5-3.8,17-0.1" nodetypes="cs"/><g id="g691"><radialGradient id="path630_1_" cx="-165.942" cy="427.129" r=".118" fx="-165.942" fy="427.129" gradientTransform="matrix(-47.8028 0 0 -60.2156 -7899.9922 25737.1387)" gradientUnits="userSpaceOnUse"><stop style="stop-color:#dee2e7" id="stop693" offset="0"/><stop style="stop-color:#fff" id="stop694" offset="1"/></radialGradient><path id="path630" cx="50.247" cy="478.41" fill="url(#path630_1_)" stroke="#7C5202" stroke-width=".726" d="M29.6,16.1c0-2.9,1.9-5.3,4.2-5.3c2.3,0,4.2,2.4,4.2,5.3c0,0,0,0,0,0c0,2.9-1.9,5.3-4.2,5.3S29.6,19.1,29.6,16.1 C29.6,16.1,29.6,16.1,29.6,16.1z" rx="24.525" ry="34.993" type="arc"/><g id="path631" cx="50.097" cy="476.765" rx="28.862" ry="41.424" type="arc"><path id="path701" fill="none" stroke="#000" stroke-width=".66" d="M28.9,16.1 c0-3.2,2.2-5.8,4.9-5.8c2.7,0,4.9,2.6,4.9,5.8c0,0,0,0,0,0c0,3.2-2.2,5.8-4.9,5.8S28.9,19.3,28.9,16.1 C28.9,16.1,28.9,16.1,28.9,16.1z" opacity=".038"/></g><g id="path632" cx="50.097" cy="476.765" rx="28.862" ry="41.424" type="arc"><path id="path703" fill="none" stroke="#000" stroke-width="2.295" d="M28.9,16.1 c0-3.2,2.2-5.8,4.9-5.8c2.7,0,4.9,2.6,4.9,5.8c0,0,0,0,0,0c0,3.2-2.2,5.8-4.9,5.8S28.9,19.3,28.9,16.1 C28.9,16.1,28.9,16.1,28.9,16.1z" opacity=".014"/></g><g id="path633" cx="50.097" cy="476.765" rx="28.862" ry="41.424" type="arc"><path id="path705" fill="none" stroke="#000" stroke-width="1.45" d="M28.9,16.1 c0-3.2,2.2-5.8,4.9-5.8c2.7,0,4.9,2.6,4.9,5.8c0,0,0,0,0,0c0,3.2-2.2,5.8-4.9,5.8S28.9,19.3,28.9,16.1 C28.9,16.1,28.9,16.1,28.9,16.1z" opacity=".014"/></g><g id="path634" cx="50.097" cy="476.765" rx="28.862" ry="41.424" type="arc"><path id="path707" fill="none" stroke="#000" stroke-width=".499" d="M28.9,16.1 c0-3.2,2.2-5.8,4.9-5.8c2.7,0,4.9,2.6,4.9,5.8c0,0,0,0,0,0c0,3.2-2.2,5.8-4.9,5.8S28.9,19.3,28.9,16.1 C28.9,16.1,28.9,16.1,28.9,16.1z" opacity=".014"/></g><g id="path635" cx="50.097" cy="476.765" rx="28.862" ry="41.424" type="arc"><path id="path709" fill="none" stroke="#000" stroke-width=".251" d="M29.1,16.1 c0-3.2,2.1-5.7,4.7-5.7c2.6,0,4.7,2.6,4.7,5.7c0,0,0,0,0,0c0,3.2-2.1,5.7-4.7,5.7S29.1,19.3,29.1,16.1 C29.1,16.1,29.1,16.1,29.1,16.1z" opacity=".152"/></g><radialGradient id="path637_1_" cx="-161.594" cy="427.815" r=".11" fx="-161.594" fy="427.815" gradientTransform="matrix(-20.9741 0 0 -20.0662 -3354.9956 8603.0029)" gradientUnits="userSpaceOnUse"><stop style="stop-color:#000082" id="stop711" offset="0"/><stop style="stop-color:#000" id="stop712" offset="1"/></radialGradient><path id="path637" cx="61.649" cy="495.829" fill="url(#path637_1_)" d="M31.9,19.3c0-1,0.8-1.8,1.8-1.8c1,0,1.8,0.8,1.8,1.8c0,0,0,0,0,0c0,1-0.8,1.8-1.8,1.8S31.9,20.3,31.9,19.3 C31.9,19.3,31.9,19.3,31.9,19.3z" rx="10.469" ry="10.892" type="arc"/><radialGradient id="path650_1_" cx="-170.518" cy="427.129" r=".118" fx="-170.518" fy="427.129" gradientTransform="matrix(47.8028 0 0 -60.2156 8167.3906 25737.1387)" gradientUnits="userSpaceOnUse"><stop style="stop-color:#dee2e7" id="stop718" offset="0"/><stop style="stop-color:#fff" id="stop719" offset="1"/></radialGradient><path id="path650" cx="50.247" cy="478.41" fill="url(#path650_1_)" stroke="#7C3902" stroke-width=".726" d="M19,16.1c0-2.9-1.9-5.3-4.2-5.3c-2.3,0-4.2,2.4-4.2,5.3c0,0,0,0,0,0c0,2.9,1.9,5.3,4.2,5.3S19,19.1,19,16.1 C19,16.1,19,16.1,19,16.1z" rx="24.525" ry="34.993" type="arc"/><g id="path651" cx="50.097" cy="476.765" rx="28.862" ry="41.424" type="arc"><path id="path725" fill="none" stroke="#000" stroke-width=".66" d="M19.7,16.1 c0-3.2-2.2-5.8-4.9-5.8c-2.7,0-4.9,2.6-4.9,5.8c0,0,0,0,0,0c0,3.2,2.2,5.8,4.9,5.8S19.7,19.3,19.7,16.1 C19.7,16.1,19.7,16.1,19.7,16.1z" opacity=".038"/></g><g id="path652" cx="50.097" cy="476.765" rx="28.862" ry="41.424" type="arc"><path id="path727" fill="none" stroke="#000" stroke-width="2.295" d="M19.7,16.1 c0-3.2-2.2-5.8-4.9-5.8c-2.7,0-4.9,2.6-4.9,5.8c0,0,0,0,0,0c0,3.2,2.2,5.8,4.9,5.8S19.7,19.3,19.7,16.1 C19.7,16.1,19.7,16.1,19.7,16.1z" opacity=".014"/></g><g id="path653" cx="50.097" cy="476.765" rx="28.862" ry="41.424" type="arc"><path id="path729" fill="none" stroke="#000" stroke-width="1.45" d="M19.7,16.1 c0-3.2-2.2-5.8-4.9-5.8c-2.7,0-4.9,2.6-4.9,5.8c0,0,0,0,0,0c0,3.2,2.2,5.8,4.9,5.8S19.7,19.3,19.7,16.1 C19.7,16.1,19.7,16.1,19.7,16.1z" opacity=".014"/></g><g id="path654" cx="50.097" cy="476.765" rx="28.862" ry="41.424" type="arc"><path id="path731" fill="none" stroke="#000" stroke-width=".499" d="M19.7,16.1 c0-3.2-2.2-5.8-4.9-5.8c-2.7,0-4.9,2.6-4.9,5.8c0,0,0,0,0,0c0,3.2,2.2,5.8,4.9,5.8S19.7,19.3,19.7,16.1 C19.7,16.1,19.7,16.1,19.7,16.1z" opacity=".014"/></g><g id="path655" cx="50.097" cy="476.765" rx="28.862" ry="41.424" type="arc"><path id="path733" fill="none" stroke="#000" stroke-width=".251" d="M19.5,16.1 c0-3.2-2.1-5.7-4.7-5.7c-2.6,0-4.7,2.6-4.7,5.7c0,0,0,0,0,0c0,3.2,2.1,5.7,4.7,5.7C17.4,21.8,19.5,19.3,19.5,16.1 C19.5,16.1,19.5,16.1,19.5,16.1z" opacity=".152"/></g><radialGradient id="path656_1_" cx="-172.064" cy="427.815" r=".109" fx="-172.064" fy="427.815" gradientTransform="matrix(20.9741 0 0 -20.0662 3623.2378 8603.0029)" gradientUnits="userSpaceOnUse"><stop style="stop-color:#000082" id="stop735" offset="0"/><stop style="stop-color:#000" id="stop736" offset="1"/></radialGradient><path id="path656" cx="61.649" cy="495.829" fill="url(#path656_1_)" d="M16.9,19.3c0-1-0.8-1.8-1.8-1.8c-1,0-1.8,0.8-1.8,1.8c0,0,0,0,0,0c0,1,0.8,1.8,1.8,1.8S16.9,20.3,16.9,19.3 C16.9,19.3,16.9,19.3,16.9,19.3z" rx="10.469" ry="10.892" type="arc"/></g></g></g></svg>