<svg xmlns="http://www.w3.org/2000/svg" xmlns:xlink="http://www.w3.org/1999/xlink" id="svg602" width="48" height="48.7" enable-background="new 0 0 48 48.7" overflow="visible" viewBox="0 0 48 48.7" xml:space="preserve"><g id="Layer_1"><g id="g606"><path id="path597_5_" fill="none" stroke="#474000" stroke-width="1.882" d="M5.9,20.2c0-10.7,8-19.3,17.8-19.3c9.8,0,18.4,8.1,18.4,18.7c0,10.7-8.6,19.9-18.4,19.9C13.9,39.5,5.9,30.9,5.9,20.2z" enable-background="new" opacity=".15"/><path id="path597_4_" fill="none" stroke="#474000" stroke-width=".941" d="M5.9,20.2c0-10.7,8-19.3,17.8-19.3c9.8,0,18.4,8.1,18.4,18.7c0,10.7-8.6,19.9-18.4,19.9C13.9,39.5,5.9,30.9,5.9,20.2z" enable-background="new" opacity=".2"/><path id="path597_3_" fill="none" stroke="#474000" stroke-width=".47" d="M5.9,20.2c0-10.7,8-19.3,17.8-19.3c9.8,0,18.4,8.1,18.4,18.7c0,10.7-8.6,19.9-18.4,19.9C13.9,39.5,5.9,30.9,5.9,20.2z" enable-background="new" opacity=".3"/><radialGradient id="path700_1_" cx="-509.056" cy="428.451" r=".064" fx="-509.056" fy="428.451" gradientTransform="matrix(310.7065 0 0 -144.1183 158191.5781 61790.25)" gradientUnits="userSpaceOnUse"><stop style="stop-color:#261700" id="stop611" offset="0"/><stop style="stop-color:#d2d2d2" id="stop612" offset="1"/></radialGradient><path id="path700" fill="url(#path700_1_)" d="M37.8,31.8c6.5,4.5,6,10.6-1.9,14.3C28,49.8,16.4,49.2,10,44.6c-5.5-3.8-5.7-9.1-0.5-13.1c3.4,4.7,6.2,6.3,14,7.3 C30,38.7,34.2,35.8,37.8,31.8z" enable-background="new" opacity=".3"/><radialGradient id="path577_1_" cx="-468.148" cy="384.94" r="41.474" fx="-468.148" fy="384.94" gradientTransform="matrix(298.9032 0 0 -316.3969 152183.5156 135227.8281)" gradientUnits="userSpaceOnUse"><stop style="stop-color:#ff6f00" id="stop618" offset="0"/><stop style="stop-color:#ff0" id="stop619" offset="1"/></radialGradient><circle id="path577" cx="24" cy="20.4" r="17.8" fill="url(#path577_1_)"/><linearGradient id="path597_1_" x1="-509.048" x2="-509.049" y1="427.393" y2="427.274" gradientTransform="matrix(303.6933 0 0 -316.3967 154618.7344 135228.0781)" gradientUnits="userSpaceOnUse"><stop style="stop-color:#ff6500" id="stop625" offset="0"/><stop style="stop-color:#ff0" id="stop626" offset="1"/></linearGradient><path id="path597" fill="url(#path597_1_)" d="M5.9,20.2c0-10.7,8-19.3,17.8-19.3c9.9,0,18.4,8,18.4,18.7c0,10.7-8.6,19.9-18.4,19.9C13.9,39.5,5.9,30.9,5.9,20.2z" enable-background="new" opacity=".75"/><radialGradient id="path597_6_" cx="-315.635" cy=".965" r="20.235" fx="-315.635" fy=".965" gradientTransform="matrix(1 0 0 1 339.5557 -5.859375e-002)" gradientUnits="userSpaceOnUse"><stop style="stop-color:#fff" id="stop632" offset="0"/><stop style="stop-color:#fffefa" id="stop633" offset=".105"/><stop style="stop-color:#fffbec" id="stop634" offset=".228"/><stop style="stop-color:#fff7d4" id="stop635" offset=".362"/><stop style="stop-color:#fff1b2" id="stop636" offset=".502"/><stop style="stop-color:#ffe988" id="stop637" offset=".647"/><stop style="stop-color:#ffdf53" id="stop638" offset=".798"/><stop style="stop-color:#ffd316" id="stop639" offset=".949"/><stop style="stop-color:#ffcf00" id="stop640" offset="1"/></radialGradient><path id="path597_2_" fill="url(#path597_6_)" d="M12.8,7.8c0-3.8,5-6.9,11.1-6.9s11.4,2.9,11.4,6.7C35.3,11.4,12.8,11.6,12.8,7.8z" enable-background="new" opacity=".75"/><rect id="rect662" width="48" height="48" y=".7" fill="none"/><g id="g660"><g id="path661"><linearGradient id="path668_1_" x1="-340.054" x2="-340.054" y1="-2.678" y2="-2.743" gradientTransform="matrix(164.9603 0 0 65.4581 56119.6328 230.4714)" gradientUnits="userSpaceOnUse"><stop style="stop-color:#bfbfbf" id="stop663" offset="0"/><stop style="stop-color:#fff" id="stop664" offset="1"/></linearGradient><path id="path668" fill="url(#path668_1_)" d="M12.8,29.5c4.9,9.8,16.7,9.8,22.8,0C27.3,27.1,20.3,27.3,12.8,29.5z"/><path id="path669" fill="none" stroke="#000" stroke-linejoin="round" stroke-width="2.468" d="M12.8,29.5c4.9,9.8,16.7,9.8,22.8,0C27.3,27.1,20.3,27.3,12.8,29.5z" enable-background="new" opacity=".07"/></g><g id="path660"><path id="path671" fill="url(#path668_1_)" d="M12.8,29.5c4.9,9.8,16.7,9.8,22.8,0C27.3,27.1,20.3,27.3,12.8,29.5z"/><path id="path672" fill="none" stroke="#000" stroke-linejoin="round" stroke-width="3.01" d="M12.8,29.5c4.9,9.8,16.7,9.8,22.8,0C27.3,27.1,20.3,27.3,12.8,29.5z" enable-background="new" opacity=".019"/></g><g id="path658"><path id="path674" fill="url(#path668_1_)" d="M12.8,29.5c4.9,9.8,16.7,9.8,22.8,0C27.3,27.1,20.3,27.3,12.8,29.5z"/><path id="path675" fill="none" stroke="#000" stroke-linejoin="round" stroke-width="4.114" d="M12.8,29.5c4.9,9.8,16.7,9.8,22.8,0C27.3,27.1,20.3,27.3,12.8,29.5z" enable-background="new" opacity=".019"/></g><g id="path659"><path id="path677" fill="url(#path668_1_)" d="M12.8,29.5c4.9,9.8,16.7,9.8,22.8,0C27.3,27.1,20.3,27.3,12.8,29.5z"/><path id="path678" fill="none" stroke="#000" stroke-linejoin="round" stroke-width="2.87" d="M12.8,29.5c4.9,9.8,16.7,9.8,22.8,0C27.3,27.1,20.3,27.3,12.8,29.5z" enable-background="new" opacity=".019"/></g><g id="path657"><path id="path680" fill="url(#path668_1_)" d="M12.8,29.5c4.9,9.8,16.7,9.8,22.8,0C27.3,27.1,20.3,27.3,12.8,29.5z"/><path id="path681" fill="none" stroke="#000" stroke-linejoin="round" stroke-width="5.298" d="M12.8,29.5c4.9,9.8,16.7,9.8,22.8,0C27.3,27.1,20.3,27.3,12.8,29.5z" enable-background="new" opacity=".019"/></g><linearGradient id="path648_1_" x1="-339.449" x2="-339.436" y1="-.301" y2="-.301" gradientTransform="matrix(164.9603 0 0 72.2257 56020.0078 54.1251)" gradientUnits="userSpaceOnUse"><stop style="stop-color:#bfbfbf" id="stop683" offset="0"/><stop style="stop-color:#fff" id="stop684" offset="1"/></linearGradient><path id="path648" fill="url(#path648_1_)" stroke="#700000" stroke-linejoin="round" stroke-width="1.012" d="M12.8,29.3 c4.9,10.8,16.7,10.8,22.8,0C27.3,26.7,20.3,26.9,12.8,29.3z"/><g id="path642"><path id="path690" fill="none" stroke="#000" stroke-dasharray="4.147 1.037" stroke-dashoffset="5.495" stroke-linecap="round" stroke-width="1.037" d="M13.4,30.6c3.4,0.4,4.6,2,10.6,2c5.7,0,6.7-1.5,10.3-2c0.2,0,0.2-0.2,0.3-0.3" enable-background="new" opacity=".479"/></g><radialGradient id="path650_1_" cx="-339.294" cy="1.876" r=".093" fx="-339.294" fy="1.876" gradientTransform="matrix(49.5421 23.6888 -19.6726 42.3182 16861.4219 7975.0977)" gradientUnits="userSpaceOnUse"><stop style="stop-color:#dee2e7" id="stop692" offset="0"/><stop style="stop-color:#fff" id="stop693" offset="1"/></radialGradient><path id="path650" fill="url(#path650_1_)" stroke="#7C3902" stroke-width=".57" d="M17.9,17.5c0.8-1.6-0.2-3.7-2.1-4.6 c-1.9-0.9-4-0.3-4.8,1.3l0,0c-0.8,1.6,0.2,3.7,2.1,4.6C15,19.7,17.1,19.1,17.9,17.5L17.9,17.5z"/><g id="path651"><path id="path699" fill="none" stroke="#000" stroke-width=".518" d="M18.5,17.7c0.8-1.8-0.3-4.1-2.5-5.1s-4.6-0.5-5.5,1.3l0,0C9.7,15.7,10.8,18,13,19C15.2,20.1,17.6,19.5,18.5,17.7L18.5,17.7z" enable-background="new" opacity=".038"/></g><g id="path652"><path id="path701" fill="none" stroke="#000" stroke-width="1.803" d="M18.4,17.7c0.8-1.8-0.3-4.1-2.5-5.1c-2.2-1-4.6-0.5-5.5,1.3l0,0c-0.8,1.8,0.3,4.1,2.5,5.1C15.2,20.1,17.6,19.5,18.4,17.7 L18.4,17.7z" enable-background="new" opacity=".014"/></g><g id="path653"><path id="path703" fill="none" stroke="#000" stroke-width="1.139" d="M18.4,17.7c0.8-1.8-0.3-4.1-2.5-5.1c-2.2-1-4.6-0.5-5.5,1.3l0,0c-0.8,1.8,0.3,4.1,2.5,5.1C15.2,20.1,17.6,19.5,18.4,17.7 L18.4,17.7z" enable-background="new" opacity=".014"/></g><g id="path654"><path id="path705" fill="none" stroke="#000" stroke-width=".392" d="M18.4,17.7c0.8-1.8-0.3-4.1-2.5-5.1c-2.2-1-4.6-0.5-5.5,1.3l0,0c-0.8,1.8,0.3,4.1,2.5,5.1C15.2,20.1,17.6,19.5,18.4,17.7 L18.4,17.7z" enable-background="new" opacity=".014"/></g><g id="path655"><path id="path707" fill="none" stroke="#000" stroke-width=".197" d="M18.3,17.7c0.8-1.7-0.2-4-2.4-5c-2.1-1-4.5-0.4-5.3,1.3l0,0c-0.8,1.7,0.2,4,2.4,5S17.5,19.4,18.3,17.7L18.3,17.7z" enable-background="new" opacity=".152"/></g><radialGradient id="path656_1_" cx="-340.335" cy="2.952" r=".086" fx="-340.335" fy="2.952" gradientTransform="matrix(20.6329 9.8658 -10.2514 22.0519 7067.2979 3307.9934)" gradientUnits="userSpaceOnUse"><stop style="stop-color:#000082" id="stop709" offset="0"/><stop style="stop-color:#000" id="stop710" offset="1"/></radialGradient><path id="path656" fill="url(#path656_1_)" d="M16.5,17.2c0.4-0.8,0.1-1.8-0.7-2.2c-0.8-0.4-1.7,0-2.1,0.8l0,0 c-0.4,0.8-0.1,1.8,0.7,2.2C15.1,18.4,16.1,18,16.5,17.2L16.5,17.2z"/><radialGradient id="path722_1_" cx="-335.553" cy="-.175" r=".092" fx="-335.553" fy="-.175" gradientTransform="matrix(-49.5421 23.6888 19.6726 42.3182 -16587.7422 7972.9102)" gradientUnits="userSpaceOnUse"><stop style="stop-color:#dee2e7" id="stop716" offset="0"/><stop style="stop-color:#fff" id="stop717" offset="1"/></radialGradient><path id="path722" fill="url(#path722_1_)" stroke="#7C3902" stroke-width=".57" d="M30.1,17.2c-0.8-1.6,0.2-3.7,2.1-4.6 c1.9-0.9,4-0.3,4.8,1.3l0,0c0.8,1.6-0.2,3.7-2.1,4.6S30.9,18.8,30.1,17.2L30.1,17.2z"/><g id="path649"><path id="path723" fill="none" stroke="#000" stroke-width=".518" d="M29.5,17.4c-0.8-1.8,0.3-4.1,2.5-5.1s4.6-0.5,5.5,1.3l0,0c0.8,1.8-0.3,4.1-2.5,5.1C32.8,19.8,30.4,19.2,29.5,17.4L29.5,17.4z" enable-background="new" opacity=".038"/></g><g id="path724"><path id="path725" fill="none" stroke="#000" stroke-width="1.803" d="M29.6,17.4c-0.8-1.8,0.3-4.1,2.5-5.1c2.2-1,4.6-0.5,5.5,1.3l0,0c0.8,1.8-0.3,4.1-2.5,5.1C32.8,19.8,30.4,19.2,29.6,17.4 L29.6,17.4z" enable-background="new" opacity=".014"/></g><g id="g726"><path id="path727" fill="none" stroke="#000" stroke-width="1.139" d="M29.6,17.4c-0.8-1.8,0.3-4.1,2.5-5.1c2.2-1,4.6-0.5,5.5,1.3l0,0c0.8,1.8-0.3,4.1-2.5,5.1C32.8,19.8,30.4,19.2,29.6,17.4 L29.6,17.4z" enable-background="new" opacity=".014"/></g><g id="path726"><path id="path729" fill="none" stroke="#000" stroke-width=".392" d="M29.6,17.4c-0.8-1.8,0.3-4.1,2.5-5.1c2.2-1,4.6-0.5,5.5,1.3l0,0c0.8,1.8-0.3,4.1-2.5,5.1C32.8,19.8,30.4,19.2,29.6,17.4 L29.6,17.4z" enable-background="new" opacity=".014"/></g><g id="g730"><path id="path731" fill="none" stroke="#000" stroke-width=".197" d="M29.7,17.4c-0.8-1.7,0.2-4,2.4-5c2.1-1,4.5-0.4,5.3,1.3l0,0c0.8,1.7-0.2,4-2.4,5C32.9,19.7,30.5,19.1,29.7,17.4L29.7,17.4z" enable-background="new" opacity=".152"/></g><radialGradient id="path728_1_" cx="-331.349" cy="-.981" r=".086" fx="-331.349" fy="-.981" gradientTransform="matrix(-20.6329 9.8658 10.2514 22.0519 -6793.5576 3305.7903)" gradientUnits="userSpaceOnUse"><stop style="stop-color:#000082" id="stop733" offset="0"/><stop style="stop-color:#000" id="stop734" offset="1"/></radialGradient><path id="path728" fill="url(#path728_1_)" d="M31.5,16.9c-0.4-0.8-0.1-1.8,0.7-2.2c0.8-0.4,1.7,0,2.1,0.8l0,0 c0.4,0.8,0.1,1.8-0.7,2.2C32.9,18.1,31.9,17.7,31.5,16.9L31.5,16.9z"/><g id="path644"><polygon id="polygon740" fill="#474000" points="13 9.4 18.8 12.9 18.5 11.4"/><polygon id="polygon741" fill="none" stroke="#2A0000" stroke-linecap="round" stroke-linejoin="round" stroke-width=".721" points="13 9.4 18.8 12.9 18.5 11.4" enable-background="new" opacity=".772"/></g><g id="path663"><g id="polygon743"><polygon id="polygon744" fill="#474000" points="13 9.4 18.8 12.9 18.5 11.4" opacity="0"/></g><polygon id="polygon745" fill="none" stroke="#2A0000" stroke-linecap="round" stroke-linejoin="round" stroke-width="1.407" points="13 9.4 18.8 12.9 18.5 11.4" enable-background="new" opacity=".1"/></g><g id="path665"><g id="polygon746"><polygon id="polygon748" fill="#474000" points="13 9.4 18.8 12.9 18.5 11.4" opacity="0"/></g><polygon id="polygon747" fill="none" stroke="#2A0000" stroke-linecap="round" stroke-linejoin="round" stroke-width="1.136" points="13 9.4 18.8 12.9 18.5 11.4" enable-background="new" opacity=".1"/></g><g id="path667"><g id="polygon749"><polygon id="polygon752" fill="#474000" points="13 9.4 18.8 12.9 18.5 11.4" opacity="0"/></g><polygon id="polygon750" fill="none" stroke="#2A0000" stroke-linecap="round" stroke-linejoin="round" stroke-width="1.803" points="13 9.4 18.8 12.9 18.5 11.4" enable-background="new" opacity=".1"/></g><g id="path670"><polygon id="polygon755" fill="#474000" points="34.3 9.4 28.5 12.9 28.8 11.4"/><polygon id="polygon753" fill="none" stroke="#2A0000" stroke-linecap="round" stroke-linejoin="round" stroke-width=".721" points="34.3 9.4 28.5 12.9 28.8 11.4" enable-background="new" opacity=".772"/></g><g id="g754"><g id="g758"><polygon id="polygon759" fill="#474000" points="34.3 9.4 28.5 12.9 28.8 11.4" opacity="0"/></g><polygon id="polygon756" fill="none" stroke="#2A0000" stroke-linecap="round" stroke-linejoin="round" stroke-width="1.407" points="34.3 9.4 28.5 12.9 28.8 11.4" enable-background="new" opacity=".1"/></g><g id="g757"><g id="polygon758"><polygon id="polygon763" fill="#474000" points="34.3 9.4 28.5 12.9 28.8 11.4" opacity="0"/></g><polygon id="polygon764" fill="none" stroke="#2A0000" stroke-linecap="round" stroke-linejoin="round" stroke-width="1.136" points="34.3 9.4 28.5 12.9 28.8 11.4" enable-background="new" opacity=".1"/></g><g id="path673"><g id="polygon761"><polygon id="polygon767" fill="#474000" points="34.3 9.4 28.5 12.9 28.8 11.4" opacity="0"/></g><polygon id="polygon762" fill="none" stroke="#2A0000" stroke-linecap="round" stroke-linejoin="round" stroke-width="1.803" points="34.3 9.4 28.5 12.9 28.8 11.4" enable-background="new" opacity=".1"/></g></g></g></g></svg>