<svg xmlns="http://www.w3.org/2000/svg" xmlns:xlink="http://www.w3.org/1999/xlink" id="svg602" width="48.1" height="48.1" enable-background="new 0 0 48.1 48.1" overflow="visible" viewBox="0 0 48.1 48.1" xml:space="preserve"><g id="Layer_1"><g id="g606"><g id="path599"><polygon id="polygon608" fill="none" stroke="#000" stroke-linejoin="round" stroke-width=".838" points="12.8 29.4 46 34.5 33.9 45.9 2 39.6" opacity=".043"/></g><g id="path598"><polygon id="polygon610" fill="none" stroke="#000" stroke-linejoin="round" stroke-width="2.442" points="12.8 29.4 46 34.5 33.9 45.9 2 39.6" opacity=".043"/></g><g id="path597"><polygon id="polygon612" fill="none" stroke="#000" stroke-linejoin="round" stroke-width="1.029" points="12.8 2 46 15.6 33.9 45.9 2 29.2" opacity=".043"/></g><g id="path596"><polygon id="polygon614" fill="none" stroke="#000" stroke-linejoin="round" stroke-width="1.569" points="12.8 2 46 15.6 33.9 45.9 2 29.2" opacity=".043"/></g><g id="path595"><polygon id="polygon616" fill="none" stroke="#000" stroke-linejoin="round" stroke-width="2.537" points="12.8 2 46 15.6 33.9 45.9 2 29.2" opacity=".043"/></g><g id="path594"><polygon id="polygon618" fill="none" stroke="#000" stroke-linejoin="round" stroke-width="2.997" points="12.8 2 46 15.6 33.9 45.9 2 29.2" opacity=".043"/></g><g id="path593"><polygon id="polygon620" fill="none" stroke="#000" stroke-linejoin="round" stroke-width="3.347" points="12.8 2 46 15.6 33.9 45.9 2 29.2" opacity=".043"/></g><g id="path592"><polygon id="polygon622" fill="none" stroke="#000" stroke-linejoin="round" stroke-width="3.982" points="12.8 2 46 15.6 33.9 45.9 2 29.2" opacity=".043"/></g><g id="path587" opacity=".35"><linearGradient id="XMLID_1_" x1="-181.343" x2="-181.441" y1="459.741" y2="459.642" gradientTransform="matrix(346.6713 0 0 -138.9535 62863.2344 63931.1953)" gradientUnits="userSpaceOnUse"><stop style="stop-color:#8c8d87" id="stop625" offset="0"/><stop style="stop-color:#fff" id="stop626" offset="1"/></linearGradient><polygon id="polygon630" fill="url(#XMLID_1_)" points="13 28.9 46.1 34.4 34.1 46.6 2.1 39.9"/><polygon id="polygon631" fill="none" stroke="#000" stroke-linejoin="round" stroke-width=".532" points="13 28.9 46.1 34.4 34.1 46.6 2.1 39.9" opacity=".043"/></g><linearGradient id="path566_1_" x1="-181.064" x2="-181.161" y1="456.842" y2="456.744" gradientTransform="matrix(346.6713 0 0 -345.7833 62811.7344 157973.7031)" gradientUnits="userSpaceOnUse"><stop style="stop-color:#8c8d87" id="stop633" offset="0"/><stop style="stop-color:#fff" id="stop634" offset="1"/></linearGradient><polygon id="path566" fill="url(#path566_1_)" stroke="#000" stroke-linejoin="round" stroke-width=".838" points="12.8 2 46 15.6 33.9 45.9 2 29.2"/><radialGradient id="path606_1_" cx="-181.097" cy="456.734" r=".067" fx="-181.097" fy="456.734" gradientTransform="matrix(369.6523 0 0 -375.8356 66968.3438 171698.8281)" gradientUnits="userSpaceOnUse"><stop style="stop-color:#fff" id="stop640" offset="0"/><stop style="stop-color:#fff" id="stop641" offset="1"/></radialGradient><polygon id="path606" fill="url(#path606_1_)" points="12.2 .2 47.6 15 34.7 47.9 .6 29.8" opacity=".18"/><linearGradient id="path584_1_" x1="-181.005" x2="-181.053" y1="457.388" y2="457.363" gradientTransform="matrix(250.6259 0 0 -165.938 45396.6953 75930.7031)" gradientUnits="userSpaceOnUse"><stop style="stop-color:#54523d" id="stop647" offset="0"/><stop style="stop-color:#fff" id="stop648" offset="1"/></linearGradient><path id="path584" fill="url(#path584_1_)" d="M2,29.2c6.8-0.9,13.5-2.6,20-4.5 C25.6,32,29.4,39,33.9,45.8C23.3,40.2,12.6,34.7,2,29.2z" nodetypes="cccc" opacity=".4"/><linearGradient id="path582_1_" x1="-181.089" x2="-181.076" y1="457.429" y2="457.394" gradientTransform="matrix(250.6259 0 0 -165.938 45396.6953 75930.7031)" gradientUnits="userSpaceOnUse"><stop style="stop-color:#54523d" id="stop654" offset="0"/><stop style="stop-color:#fff" id="stop655" offset="1"/></linearGradient><path id="path582" fill="url(#path582_1_)" d="M2,29.2c6.8-0.9,13.5-2.6,20-4.5 C25.6,32,29.4,39,33.9,45.8C23.3,40.2,12.6,34.7,2,29.2z" nodetypes="cccc" opacity=".4"/><linearGradient id="path586_1_" x1="13.119" x2="46.068" y1="13.359" y2="13.359" gradientUnits="userSpaceOnUse"><stop style="stop-color:#fff" id="stop661" offset="0"/><stop style="stop-color:#d5e3f5" id="stop662" offset=".153"/><stop style="stop-color:#a3c2e8" id="stop663" offset=".358"/><stop style="stop-color:#7ca8df" id="stop664" offset=".552"/><stop style="stop-color:#6095d8" id="stop665" offset=".73"/><stop style="stop-color:#4f8ad3" id="stop666" offset=".885"/><stop style="stop-color:#4986d2" id="stop667" offset="1"/></linearGradient><path id="path586" fill="url(#path586_1_)" stroke="#474129" stroke-linejoin="round" stroke-width=".413" d="M13.1,2.1c2.4,7.4,5.5,15.2,8.9,22.5c8.2-2.5,16.3-5.6,24.1-9C35.1,11,24,6.7,13.1,2.1z" nodetypes="cccc"/><path id="path567" fill="none" stroke="#494951" stroke-width=".254" d="M12.8,1.9c5,14.9,12,30,21,43.8C23.2,40.1,12.6,34.8,2,29.2c13.2-1.7,33.9-8.4,44-13.6C37.8,12.6,15.3,2.8,12.8,1.9z" nodetypes="ccccc"/><linearGradient id="path579_1_" x1="-181.334" x2="-181.356" y1="456.433" y2="456.474" gradientTransform="matrix(261.4037 0 0 -178.5561 47436.6914 81520.7813)" gradientUnits="userSpaceOnUse"><stop style="stop-color:#54523d" id="stop674" offset="0"/><stop style="stop-color:#fff" id="stop675" offset="1"/></linearGradient><path id="path579" fill="url(#path579_1_)" d="M12.9,2c2.6,7.5,5.6,15.6,9.1,22.7 c8.3-2.5,16.4-5.4,24.1-9.1C34.9,11.3,24,6.5,12.9,2z" nodetypes="cccc" opacity=".2"/><linearGradient id="path580_1_" x1="-181.417" x2="-181.382" y1="456.474" y2="456.487" gradientTransform="matrix(261.4037 0 0 -178.1523 47436.6914 81336.1719)" gradientUnits="userSpaceOnUse"><stop style="stop-color:#54523d" id="stop681" offset="0"/><stop style="stop-color:#fff" id="stop682" offset="1"/></linearGradient><path id="path580" fill="url(#path580_1_)" d="M12.9,2c2.6,7.5,5.6,15.5,9.1,22.6 c8.4-2.2,16.4-5.3,24.1-9.1C34.9,11.3,24,6.5,12.9,2z" nodetypes="cccc" opacity=".2"/><linearGradient id="path600_1_" x1="8.794" x2="46.236" y1="12.156" y2="12.156" gradientUnits="userSpaceOnUse"><stop style="stop-color:#fff" id="stop688" offset="0"/><stop style="stop-color:#fafbfe" id="stop689" offset=".122"/><stop style="stop-color:#eaf1fa" id="stop690" offset=".273"/><stop style="stop-color:#d1e0f4" id="stop691" offset=".44"/><stop style="stop-color:#aec9eb" id="stop692" offset=".619"/><stop style="stop-color:#80abe0" id="stop693" offset=".806"/><stop style="stop-color:#4986d2" id="stop694" offset="1"/></linearGradient><path id="path600" fill="url(#path600_1_)" d="M44.5,19.4 c-0.7,1.5-4.2,3.6-8.3,3.1c-5.2-0.9-7.9-7-11.9-7c-4-0.2-6.3,3.3-10.4,3.4C11.1,19.1,8,14.3,9,11.7l3.8-10l33.5,13.9L44.5,19.4z" nodetypes="cssssccs" opacity=".4"/></g><rect id="rect699" width="48" height="48" x=".1" y=".1" fill="none"/></g></svg>