<svg xmlns="http://www.w3.org/2000/svg" xmlns:xlink="http://www.w3.org/1999/xlink" id="svg602" width="48" height="48.7" enable-background="new 0 0 48 48.7" overflow="visible" viewBox="0 0 48 48.7" xml:space="preserve"><g id="Layer_1"><g id="g606"><path id="path597_5_" fill="none" stroke="#474000" stroke-width="1.882" d="M5.6,20.2c0-10.7,8-19.3,17.8-19.3c9.8,0,18.4,8.1,18.4,18.7c0,10.7-8.6,19.9-18.4,19.9C13.6,39.5,5.6,30.9,5.6,20.2z" enable-background="new" opacity=".15"/><path id="path597_4_" fill="none" stroke="#474000" stroke-width=".941" d="M5.6,20.2c0-10.7,8-19.3,17.8-19.3c9.8,0,18.4,8.1,18.4,18.7c0,10.7-8.6,19.9-18.4,19.9C13.6,39.5,5.6,30.9,5.6,20.2z" enable-background="new" opacity=".2"/><path id="path597_3_" fill="none" stroke="#474000" stroke-width=".47" d="M5.6,20.2c0-10.7,8-19.3,17.8-19.3c9.8,0,18.4,8.1,18.4,18.7c0,10.7-8.6,19.9-18.4,19.9C13.6,39.5,5.6,30.9,5.6,20.2z" enable-background="new" opacity=".3"/><radialGradient id="path700_1_" cx="-679.571" cy="-.74" r=".064" fx="-679.571" fy="-.74" gradientTransform="matrix(310.7065 0 0 144.1183 211172.2188 149.3426)" gradientUnits="userSpaceOnUse"><stop style="stop-color:#261700" id="stop611" offset="0"/><stop style="stop-color:#d2d2d2" id="stop612" offset="1"/></radialGradient><path id="path700" fill="url(#path700_1_)" d="M37.9,31.8c6.5,4.5,6,10.6-1.9,14.3c-7.9,3.7-19.5,3.1-25.9-1.5c-5.5-3.8-5.7-9.1-0.5-13.1c3.4,4.7,6.2,6.3,14,7.3 C30.1,38.7,34.3,35.8,37.9,31.8z" enable-background="new" opacity=".3"/><radialGradient id="path577_1_" cx="-638.496" cy="42.772" r="41.557" fx="-638.496" fy="42.772" gradientTransform="matrix(298.9032 0 0 316.3969 203151.1563 -98.4275)" gradientUnits="userSpaceOnUse"><stop style="stop-color:#ff6f00" id="stop618" offset="0"/><stop style="stop-color:#ff0" id="stop619" offset="1"/></radialGradient><circle id="path577" cx="23.9" cy="20.4" r="17.8" fill="url(#path577_1_)"/><linearGradient id="path597_1_" x1="-679.565" x2="-679.567" y1=".318" y2=".437" gradientTransform="matrix(303.6933 0 0 316.3967 206403.3125 -98.1642)" gradientUnits="userSpaceOnUse"><stop style="stop-color:#ff6500" id="stop625" offset="0"/><stop style="stop-color:#ff0" id="stop626" offset="1"/></linearGradient><path id="path597" fill="url(#path597_1_)" d="M5.6,20.2c0-10.7,8-19.3,17.8-19.3c9.9,0,18.4,8,18.4,18.7c0,10.7-8.6,19.9-18.4,19.9C13.6,39.5,5.6,30.9,5.6,20.2z" enable-background="new" opacity=".75"/><radialGradient id="path597_6_" cx="-486.406" cy="426.746" r="20.235" fx="-486.406" fy="426.746" gradientTransform="matrix(1 0 0 -1 509.7773 427.6934)" gradientUnits="userSpaceOnUse"><stop style="stop-color:#fff" id="stop632" offset="0"/><stop style="stop-color:#fffefa" id="stop633" offset=".105"/><stop style="stop-color:#fffbec" id="stop634" offset=".228"/><stop style="stop-color:#fff7d4" id="stop635" offset=".362"/><stop style="stop-color:#fff1b2" id="stop636" offset=".502"/><stop style="stop-color:#ffe988" id="stop637" offset=".647"/><stop style="stop-color:#ffdf53" id="stop638" offset=".798"/><stop style="stop-color:#ffd316" id="stop639" offset=".949"/><stop style="stop-color:#ffcf00" id="stop640" offset="1"/></radialGradient><path id="path597_2_" fill="url(#path597_6_)" d="M12.2,7.8c0-3.8,5-6.9,11.1-6.9c6.1,0,11.4,2.9,11.4,6.7C34.7,11.4,12.2,11.6,12.2,7.8z" enable-background="new" opacity=".75"/><rect id="rect662" width="48" height="48" y=".7" fill="none"/><g id="g660"><g id="path643" nodetypes="cs"><path id="path662" fill="none" stroke="#000" stroke-linecap="round" stroke-width="1.273" d="M32.8,31.8c-3.5-4.3-15.1-4.2-19.1-0.2" opacity=".033"/></g><path id="path639" fill="none" stroke="#795000" stroke-linecap="round" stroke-width="1.215" d="M32.8,31.8c-3.5-4.2-15.1-4.1-19.1-0.2" nodetypes="cs"/><g id="path640" nodetypes="cs"><path id="path665" fill="none" stroke="#000" stroke-linecap="round" stroke-width="2.201" d="M32.9,31.8c-3.5-4.3-15.1-4.2-19.1-0.2" opacity=".033"/></g><g id="path641" nodetypes="cs"><path id="path667" fill="none" stroke="#000" stroke-linecap="round" stroke-width="1.712" d="M32.9,31.9c-3.5-4.3-15.1-4.2-19.1-0.2" opacity=".033"/></g><g id="path642" nodetypes="cs"><path id="path669" fill="none" stroke="#000" stroke-linecap="round" stroke-width="2.906" d="M32.9,31.8c-3.5-4.3-15.1-4.2-19.1-0.2" opacity=".033"/></g></g><g id="g670"><radialGradient id="path630_1_" cx="-165.912" cy="427.383" r=".12" fx="-165.912" fy="427.383" gradientTransform="matrix(-47.8028 0 0 -65.5878 -7899.1484 28049.5879)" gradientUnits="userSpaceOnUse"><stop style="stop-color:#dee2e7" id="stop672" offset="0"/><stop style="stop-color:#fff" id="stop673" offset="1"/></radialGradient><path id="path630" cx="50.247" cy="478.41" fill="url(#path630_1_)" stroke="#7C5202" stroke-width=".9" d="M29,17.3c0-3.3,1.9-5.9,4.3-5.9c2.4,0,4.3,2.6,4.3,5.9c0,0,0,0,0,0c0,3.3-1.9,5.9-4.3,5.9C30.9,23.2,29,20.5,29,17.3 C29,17.3,29,17.3,29,17.3z" rx="24.525" ry="34.993" type="arc"/><g id="path631" cx="50.097" cy="476.765" rx="28.862" ry="41.424" type="arc"><path id="path679" fill="none" stroke="#000" stroke-width=".675" d="M28.3,17.2 c0-3.6,2.2-6.5,5-6.5c2.8,0,5,2.9,5,6.5c0,0,0,0,0,0c0,3.6-2.2,6.5-5,6.5C30.6,23.7,28.3,20.8,28.3,17.2 C28.3,17.2,28.3,17.2,28.3,17.2z" opacity=".038"/></g><g id="path632" cx="50.097" cy="476.765" rx="28.862" ry="41.424" type="arc"><path id="path681" fill="none" stroke="#000" stroke-width="2.347" d="M28.3,17.2 c0-3.6,2.2-6.5,5-6.5c2.8,0,5,2.9,5,6.5c0,0,0,0,0,0c0,3.6-2.2,6.5-5,6.5C30.6,23.7,28.3,20.8,28.3,17.2 C28.3,17.2,28.3,17.2,28.3,17.2z" opacity=".014"/></g><g id="path633" cx="50.097" cy="476.765" rx="28.862" ry="41.424" type="arc"><path id="path683" fill="none" stroke="#000" stroke-width="1.483" d="M28.3,17.2 c0-3.6,2.2-6.5,5-6.5c2.8,0,5,2.9,5,6.5c0,0,0,0,0,0c0,3.6-2.2,6.5-5,6.5C30.6,23.7,28.3,20.8,28.3,17.2 C28.3,17.2,28.3,17.2,28.3,17.2z" opacity=".014"/></g><g id="path634" cx="50.097" cy="476.765" rx="28.862" ry="41.424" type="arc"><path id="path685" fill="none" stroke="#000" stroke-width=".511" d="M28.3,17.2 c0-3.6,2.2-6.5,5-6.5c2.8,0,5,2.9,5,6.5c0,0,0,0,0,0c0,3.6-2.2,6.5-5,6.5C30.6,23.7,28.3,20.8,28.3,17.2 C28.3,17.2,28.3,17.2,28.3,17.2z" opacity=".014"/></g><g id="path635" cx="50.097" cy="476.765" rx="28.862" ry="41.424" type="arc"><path id="path687" fill="none" stroke="#000" stroke-width=".257" d="M28.5,17.2 c0-3.5,2.1-6.4,4.8-6.4c2.7,0,4.8,2.9,4.8,6.4c0,0,0,0,0,0c0,3.5-2.1,6.4-4.8,6.4C30.7,23.6,28.5,20.8,28.5,17.2 C28.5,17.2,28.5,17.2,28.5,17.2z" opacity=".152"/></g><radialGradient id="path637_1_" cx="-161.266" cy="428.724" r=".111" fx="-161.266" fy="428.724" gradientTransform="matrix(-19.9085 0 0 -20.9347 -3177.3074 8995.3936)" gradientUnits="userSpaceOnUse"><stop style="stop-color:#000082" id="stop689" offset="0"/><stop style="stop-color:#000" id="stop690" offset="1"/></radialGradient><path id="path637" cx="61.649" cy="495.829" fill="url(#path637_1_)" d="M30.8,21.2c0-1,0.8-1.9,1.8-1.9c1,0,1.8,0.8,1.8,1.9c0,0,0,0,0,0c0,1-0.8,1.9-1.8,1.9C31.6,23.1,30.8,22.3,30.8,21.2 C30.8,21.2,30.8,21.2,30.8,21.2z" rx="10.469" ry="10.892" type="arc"/></g><g id="g695"><radialGradient id="path650_1_" cx="-170.556" cy="427.383" r=".12" fx="-170.556" fy="427.383" gradientTransform="matrix(47.8028 0 0 -65.5878 8168.2344 28049.5879)" gradientUnits="userSpaceOnUse"><stop style="stop-color:#dee2e7" id="stop697" offset="0"/><stop style="stop-color:#fff" id="stop698" offset="1"/></radialGradient><path id="path650" cx="50.247" cy="478.41" fill="url(#path650_1_)" stroke="#7C3902" stroke-width=".9" d="M18.1,17.3c0-3.3-1.9-5.9-4.3-5.9c-2.4,0-4.3,2.6-4.3,5.9c0,0,0,0,0,0c0,3.3,1.9,5.9,4.3,5.9C16.2,23.2,18.1,20.5,18.1,17.3 C18.1,17.3,18.1,17.3,18.1,17.3z" rx="24.525" ry="34.993" type="arc"/><g id="path651" cx="50.097" cy="476.765" rx="28.862" ry="41.424" type="arc"><path id="path704" fill="none" stroke="#000" stroke-width=".675" d="M18.8,17.2 c0-3.6-2.2-6.5-5-6.5s-5,2.9-5,6.5c0,0,0,0,0,0c0,3.6,2.2,6.5,5,6.5C16.5,23.7,18.8,20.8,18.8,17.2 C18.8,17.2,18.8,17.2,18.8,17.2z" opacity=".038"/></g><g id="path652" cx="50.097" cy="476.765" rx="28.862" ry="41.424" type="arc"><path id="path706" fill="none" stroke="#000" stroke-width="2.347" d="M18.8,17.2 c0-3.6-2.2-6.5-5-6.5c-2.8,0-5,2.9-5,6.5c0,0,0,0,0,0c0,3.6,2.2,6.5,5,6.5C16.5,23.7,18.8,20.8,18.8,17.2 C18.8,17.2,18.8,17.2,18.8,17.2z" opacity=".014"/></g><g id="path653" cx="50.097" cy="476.765" rx="28.862" ry="41.424" type="arc"><path id="path708" fill="none" stroke="#000" stroke-width="1.483" d="M18.8,17.2 c0-3.6-2.2-6.5-5-6.5c-2.8,0-5,2.9-5,6.5c0,0,0,0,0,0c0,3.6,2.2,6.5,5,6.5C16.5,23.7,18.8,20.8,18.8,17.2 C18.8,17.2,18.8,17.2,18.8,17.2z" opacity=".014"/></g><g id="path654" cx="50.097" cy="476.765" rx="28.862" ry="41.424" type="arc"><path id="path710" fill="none" stroke="#000" stroke-width=".511" d="M18.8,17.2 c0-3.6-2.2-6.5-5-6.5c-2.8,0-5,2.9-5,6.5c0,0,0,0,0,0c0,3.6,2.2,6.5,5,6.5C16.5,23.7,18.8,20.8,18.8,17.2 C18.8,17.2,18.8,17.2,18.8,17.2z" opacity=".014"/></g><g id="path655" cx="50.097" cy="476.765" rx="28.862" ry="41.424" type="arc"><path id="path712" fill="none" stroke="#000" stroke-width=".257" d="M18.6,17.2 c0-3.5-2.1-6.4-4.8-6.4c-2.7,0-4.8,2.9-4.8,6.4c0,0,0,0,0,0c0,3.5,2.1,6.4,4.8,6.4C16.4,23.6,18.6,20.8,18.6,17.2 C18.6,17.2,18.6,17.2,18.6,17.2z" opacity=".152"/></g><radialGradient id="path656_1_" cx="-172.414" cy="428.724" r=".111" fx="-172.414" fy="428.724" gradientTransform="matrix(19.9085 0 0 -20.9347 3446.3933 8995.3936)" gradientUnits="userSpaceOnUse"><stop style="stop-color:#000082" id="stop714" offset="0"/><stop style="stop-color:#000" id="stop715" offset="1"/></radialGradient><path id="path656" cx="61.649" cy="495.829" fill="url(#path656_1_)" d="M16.3,21.2c0-1-0.8-1.9-1.8-1.9c-1,0-1.8,0.8-1.8,1.9c0,0,0,0,0,0c0,1,0.8,1.9,1.8,1.9C15.5,23.1,16.3,22.3,16.3,21.2 C16.3,21.2,16.3,21.2,16.3,21.2z" rx="10.469" ry="10.892" type="arc"/></g></g></g></svg>