<svg xmlns="http://www.w3.org/2000/svg" xmlns:xlink="http://www.w3.org/1999/xlink" id="svg602" width="48" height="53.8" enable-background="new 0 0 48 53.8" overflow="visible" viewBox="0 0 48 53.8" xml:space="preserve"><g id="Layer_1"><g id="g606"><g id="path674" nodetypes="cccccccc"><path id="path608" fill="none" stroke="#000" stroke-linejoin="round" stroke-width="1.052" d="M32.9,3.3c2.8,0.1,5.7,0.9,7.8,1.9c-2,3.8-5.1,7.6-8.1,11.3c2,0,4.1,0,6.4-0.3c-3.2,6.1-7.2,13.3-12.3,18.8 c2.2-5.1,4-9.5,5.2-15.2c-1.6,0.3-3.8,0.2-5.8,0.3C29.2,15.1,31.5,8.6,32.9,3.3z" opacity=".033"/></g><g id="path675" nodetypes="cccccccc"><path id="path610" fill="none" stroke="#000" stroke-linejoin="round" stroke-width="1.756" d="M32.9,3.3c2.8,0.1,5.7,0.9,7.8,1.9c-2,3.8-5.1,7.6-8.1,11.3c2,0,4.1,0,6.4-0.3c-3.2,6.1-7.2,13.3-12.3,18.8 c2.2-5.1,4-9.5,5.2-15.2c-1.6,0.3-3.8,0.2-5.8,0.3C29.2,15.1,31.5,8.6,32.9,3.3z" opacity=".033"/></g><g id="path676" nodetypes="cccccccc"><path id="path612" fill="none" stroke="#000" stroke-linejoin="round" stroke-width="2.55" d="M32.9,3.3c2.8,0.1,5.7,0.9,7.8,1.9c-2,3.8-5.1,7.6-8.1,11.3c2,0,4.1,0,6.4-0.3c-3.2,6.1-7.2,13.3-12.3,18.8 c2.2-5.1,4-9.5,5.2-15.2c-1.6,0.3-3.8,0.2-5.8,0.3C29.2,15.1,31.5,8.6,32.9,3.3z" opacity=".033"/></g><g id="path677" nodetypes="cccccccc"><path id="path614" fill="none" stroke="#000" stroke-linejoin="round" stroke-width="3.488" d="M32.9,3.3c2.8,0.1,5.7,0.9,7.8,1.9c-2,3.8-5.1,7.6-8.1,11.3c2,0,4.1,0,6.4-0.3c-3.2,6.1-7.2,13.3-12.3,18.8 c2.2-5.1,4-9.5,5.2-15.2c-1.6,0.3-3.8,0.2-5.8,0.3C29.2,15.1,31.5,8.6,32.9,3.3z" opacity=".033"/></g><g id="path678" nodetypes="cccccccc"><path id="path616" fill="none" stroke="#000" stroke-linejoin="round" stroke-width="4.83" d="M32.9,3.3c2.8,0.1,5.7,0.9,7.8,1.9c-2,3.8-5.1,7.6-8.1,11.3c2,0,4.1,0,6.4-0.3c-3.2,6.1-7.2,13.3-12.3,18.8 c2.2-5.1,4-9.5,5.2-15.2c-1.6,0.3-3.8,0.2-5.8,0.3C29.2,15.1,31.5,8.6,32.9,3.3z" opacity=".033"/></g><g id="path679" nodetypes="cccccccc"><linearGradient id="XMLID_1_" x1="-205.824" x2="-205.824" y1="462.676" y2="462.552" gradientTransform="matrix(103.8936 0 0 -225.1939 21417.1543 104202.6719)" gradientUnits="userSpaceOnUse"><stop style="stop-color:#ff6f00" id="stop619" offset="0"/><stop style="stop-color:#ff0" id="stop620" offset="1"/></linearGradient><path id="path624" fill="url(#XMLID_1_)" d="M32.9,3.3c2.8,0.1,5.7,0.9,7.8,1.9c-2,3.8-5.1,7.6-8.1,11.3c2,0,4.1,0,6.4-0.3 c-3.2,6.1-7.2,13.3-12.3,18.8c2.2-5.1,4-9.5,5.2-15.2c-1.6,0.3-3.8,0.2-5.8,0.3C29.2,15.1,31.5,8.6,32.9,3.3z"/><path id="path625" fill="none" stroke="#460000" stroke-width=".649" d="M32.9,3.3 c2.8,0.1,5.7,0.9,7.8,1.9c-2,3.8-5.1,7.6-8.1,11.3c2,0,4.1,0,6.4-0.3c-3.2,6.1-7.2,13.3-12.3,18.8c2.2-5.1,4-9.5,5.2-15.2 c-1.6,0.3-3.8,0.2-5.8,0.3C29.2,15.1,31.5,8.6,32.9,3.3z" opacity=".716"/></g><radialGradient id="path680_1_" cx="-205.201" cy="462.059" r=".146" fx="-205.201" fy="462.059" gradientTransform="matrix(77.0069 0 0 -119.0872 15833.6885 55036.3008)" gradientUnits="userSpaceOnUse"><stop style="stop-color:#fff" id="stop627" offset="0"/><stop style="stop-color:#f5ffff" id="stop628" offset="1"/></radialGradient><path id="path680" fill="url(#path680_1_)" d="M32.9,3.3c1.3-0.1,3.8,0.7,4,0.5 c-2,3.8-9.1,16.6-10.8,16.2C29.3,15,31.5,8.6,32.9,3.3z" nodetypes="cccc" opacity=".7"/><radialGradient id="path681_1_" cx="-205.833" cy="462.907" r=".146" fx="-205.833" fy="462.907" gradientTransform="matrix(51.7653 0 0 -108.3145 10685.2568 50166.5313)" gradientUnits="userSpaceOnUse"><stop style="stop-color:#fff" id="stop634" offset="0"/><stop style="stop-color:#f5ffff" id="stop635" offset="1"/></radialGradient><path id="path681" fill="url(#path681_1_)" d="M31.9,19.9c0-0.1,1.1,0.6,1.8,2 c-1.8,3.9-5.8,13.5-7.3,13.2C29.3,30,30.5,25.1,31.9,19.9z" nodetypes="cccc" opacity=".7"/><g id="path673" nodetypes="cccccccc"><path id="path641" fill="none" stroke="#000" stroke-linejoin="round" stroke-width="1.422" d="M17.5,3.3c3.5,0,7,1,9.5,2.3c-2.7,5.8-6.8,11.6-10.8,17.2c2.5-0.1,5.1-0.3,7.9-0.8c-4.4,9.2-9.8,20.1-16.5,28.6 c3.1-7.6,5.5-14.4,7.4-22.8c-2.1,0.6-4.7,0.6-7.2,0.9C12.1,20.9,15.4,11.1,17.5,3.3z" opacity=".033"/></g><g id="path672" nodetypes="cccccccc"><path id="path643" fill="none" stroke="#000" stroke-linejoin="round" stroke-width="2.372" d="M17.5,3.3c3.5,0,7,1,9.5,2.3c-2.7,5.8-6.8,11.6-10.8,17.2c2.5-0.1,5.1-0.3,7.9-0.8c-4.4,9.2-9.8,20.1-16.5,28.6 c3.1-7.6,5.5-14.4,7.4-22.8c-2.1,0.6-4.7,0.6-7.2,0.9C12.1,20.9,15.4,11.1,17.5,3.3z" opacity=".033"/></g><g id="path671" nodetypes="cccccccc"><path id="path645" fill="none" stroke="#000" stroke-linejoin="round" stroke-width="3.446" d="M17.5,3.3c3.5,0,7,1,9.5,2.3c-2.7,5.8-6.8,11.6-10.8,17.2c2.5-0.1,5.1-0.3,7.9-0.8c-4.4,9.2-9.8,20.1-16.5,28.6 c3.1-7.6,5.5-14.4,7.4-22.8c-2.1,0.6-4.7,0.6-7.2,0.9C12.1,20.9,15.4,11.1,17.5,3.3z" opacity=".033"/></g><g id="path670" nodetypes="cccccccc"><path id="path647" fill="none" stroke="#000" stroke-linejoin="round" stroke-width="4.713" d="M17.5,3.3c3.5,0,7,1,9.5,2.3c-2.7,5.8-6.8,11.6-10.8,17.2c2.5-0.1,5.1-0.3,7.9-0.8c-4.4,9.2-9.8,20.1-16.5,28.6 c3.1-7.6,5.5-14.4,7.4-22.8c-2.1,0.6-4.7,0.6-7.2,0.9C12.1,20.9,15.4,11.1,17.5,3.3z" opacity=".033"/></g><g id="path669" nodetypes="cccccccc"><path id="path649" fill="none" stroke="#000" stroke-linejoin="round" stroke-width="6.525" d="M17.5,3.3c3.5,0,7,1,9.5,2.3c-2.7,5.8-6.8,11.6-10.8,17.2c2.5-0.1,5.1-0.3,7.9-0.8c-4.4,9.2-9.8,20.1-16.5,28.6 c3.1-7.6,5.5-14.4,7.4-22.8c-2.1,0.6-4.7,0.6-7.2,0.9C12.1,20.9,15.4,11.1,17.5,3.3z" opacity=".033"/></g><g id="path562" nodetypes="cccccccc"><linearGradient id="XMLID_2_" x1="-204.557" x2="-204.557" y1="462.776" y2="462.652" gradientTransform="matrix(137.5928 0 0 -335.9719 28162.7441 155491.4688)" gradientUnits="userSpaceOnUse"><stop style="stop-color:#ff6f00" id="stop652" offset="0"/><stop style="stop-color:#ff0" id="stop653" offset="1"/></linearGradient><path id="path657" fill="url(#XMLID_2_)" d="M17.5,3.3c3.5,0,7,1,9.5,2.3c-2.7,5.8-6.8,11.6-10.8,17.2 c2.5-0.1,5.1-0.3,7.9-0.8c-4.4,9.2-9.8,20.1-16.5,28.6c3.1-7.6,5.5-14.4,7.4-22.8c-2.1,0.6-4.7,0.6-7.2,0.9 C12.1,20.9,15.4,11.1,17.5,3.3z"/><path id="path658" fill="none" stroke="#510000" stroke-width=".876" d="M17.5,3.3c3.5,0,7,1,9.5,2.3 c-2.7,5.8-6.8,11.6-10.8,17.2c2.5-0.1,5.1-0.3,7.9-0.8c-4.4,9.2-9.8,20.1-16.5,28.6c3.1-7.6,5.5-14.4,7.4-22.8 c-2.1,0.6-4.7,0.6-7.2,0.9C12.1,20.9,15.4,11.1,17.5,3.3z" opacity=".782"/></g><radialGradient id="path662_1_" cx="-203.82" cy="462.348" r=".146" fx="-203.82" fy="462.348" gradientTransform="matrix(102.9999 0 0 -179.5178 21008.834 83014.5469)" gradientUnits="userSpaceOnUse"><stop style="stop-color:#fff" id="stop660" offset="0"/><stop style="stop-color:#f5ffff" id="stop661" offset="1"/></radialGradient><path id="path662" fill="url(#path662_1_)" d="M17.5,3.3C19.1,3,22.1,4,22.4,3.7 C19.7,9.5,10.1,28.8,7.9,28.5C12.2,20.7,15.4,11.1,17.5,3.3z" nodetypes="cccc" opacity=".7"/><radialGradient id="path668_1_" cx="-203.691" cy="463.211" r=".146" fx="-203.691" fy="463.211" gradientTransform="matrix(70.3449 0 0 -162.7324 14341.0723 75417.8984)" gradientUnits="userSpaceOnUse"><stop style="stop-color:#fff" id="stop667" offset="0"/><stop style="stop-color:#f5ffff" id="stop668" offset="1"/></radialGradient><path id="path668" fill="url(#path668_1_)" d="M15.1,27.8c0-0.1,1.3,0.9,2.1,2.8 C14.7,36.5,9.2,51,7.3,50.7C11.3,42.9,13,35.7,15.1,27.8z" nodetypes="cccc" opacity=".7"/></g><rect id="rect673" width="48" height="48" y="3" fill="none" opacity=".7"/></g></svg>