<svg xmlns="http://www.w3.org/2000/svg" xmlns:xlink="http://www.w3.org/1999/xlink" id="svg602" width="48" height="48.7" enable-background="new 0 0 48 48.7" overflow="visible" viewBox="0 0 48 48.7" xml:space="preserve"><g id="Layer_1"><path id="path597_5_" fill="none" stroke="#474000" stroke-width="1.882" d="M5.6,20.2c0-10.7,8-19.3,17.8-19.3c9.8,0,18.4,8.1,18.4,18.7c0,10.7-8.6,19.9-18.4,19.9C13.6,39.5,5.6,30.9,5.6,20.2z" enable-background="new" opacity=".15"/><path id="path597_4_" fill="none" stroke="#474000" stroke-width=".941" d="M5.6,20.2c0-10.7,8-19.3,17.8-19.3c9.8,0,18.4,8.1,18.4,18.7c0,10.7-8.6,19.9-18.4,19.9C13.6,39.5,5.6,30.9,5.6,20.2z" enable-background="new" opacity=".2"/><path id="path597_3_" fill="none" stroke="#474000" stroke-width=".47" d="M5.6,20.2c0-10.7,8-19.3,17.8-19.3c9.8,0,18.4,8.1,18.4,18.7c0,10.7-8.6,19.9-18.4,19.9C13.6,39.5,5.6,30.9,5.6,20.2z" enable-background="new" opacity=".3"/><radialGradient id="path700_1_" cx="-1189.348" cy="428.533" r=".064" fx="-1189.348" fy="428.533" gradientTransform="matrix(310.7065 0 0 -144.1183 369563.1875 61802.1875)" gradientUnits="userSpaceOnUse"><stop style="stop-color:#261700" id="stop610" offset="0"/><stop style="stop-color:#d2d2d2" id="stop611" offset="1"/></radialGradient><path id="path700" fill="url(#path700_1_)" d="M37.9,31.8c6.5,4.5,6,10.6-1.9,14.3c-7.9,3.7-19.5,3.1-25.9-1.5c-5.5-3.8-5.7-9.1-0.5-13.1c3.4,4.7,6.2,6.3,14,7.3 C30.1,38.7,34.3,35.8,37.9,31.8z" enable-background="new" opacity=".3"/><radialGradient id="path577_1_" cx="-1148.273" cy="385.022" r="41.557" fx="-1148.273" fy="385.022" gradientTransform="matrix(298.9032 0 0 -316.3969 355525.0313 135254.1563)" gradientUnits="userSpaceOnUse"><stop style="stop-color:#ff6f00" id="stop617" offset="0"/><stop style="stop-color:#ff0" id="stop618" offset="1"/></radialGradient><circle id="path577" cx="23.9" cy="20.4" r="17.8" fill="url(#path577_1_)"/><linearGradient id="path597_1_" x1="-1189.342" x2="-1189.344" y1="427.474" y2="427.355" gradientTransform="matrix(303.6933 0 0 -316.3967 361219.0313 135254.1406)" gradientUnits="userSpaceOnUse"><stop style="stop-color:#ff6500" id="stop624" offset="0"/><stop style="stop-color:#ff0" id="stop625" offset="1"/></linearGradient><path id="path597" fill="url(#path597_1_)" d="M5.6,20.2c0-10.7,8-19.3,17.8-19.3c9.9,0,18.4,8,18.4,18.7c0,10.7-8.6,19.9-18.4,19.9C13.6,39.5,5.6,30.9,5.6,20.2z" enable-background="new" opacity=".75"/><radialGradient id="path597_6_" cx="-996.184" cy="1.047" r="20.235" fx="-996.184" fy="1.047" gradientTransform="matrix(1 0 0 1 1019.5547 2.343750e-002)" gradientUnits="userSpaceOnUse"><stop style="stop-color:#fff" id="stop631" offset="0"/><stop style="stop-color:#fffefa" id="stop632" offset=".105"/><stop style="stop-color:#fffbec" id="stop633" offset=".228"/><stop style="stop-color:#fff7d4" id="stop634" offset=".362"/><stop style="stop-color:#fff1b2" id="stop635" offset=".502"/><stop style="stop-color:#ffe988" id="stop636" offset=".647"/><stop style="stop-color:#ffdf53" id="stop637" offset=".798"/><stop style="stop-color:#ffd316" id="stop638" offset=".949"/><stop style="stop-color:#ffcf00" id="stop639" offset="1"/></radialGradient><path id="path597_2_" fill="url(#path597_6_)" d="M12.2,7.8c0-3.8,5-6.9,11.1-6.9c6.1,0,11.4,2.9,11.4,6.7C34.7,11.4,12.2,11.6,12.2,7.8z" enable-background="new" opacity=".75"/><rect id="rect662" width="48" height="48" y=".7" fill="none"/><g id="g659"><g id="path643"><path id="path661" fill="none" stroke="#000" stroke-linecap="round" stroke-width="2.345" d="M14.9,31.5c9.6,7.6,24.2,1.3,24.5-9.7" enable-background="new" opacity=".033"/></g><linearGradient id="path645_1_" x1="-345.623" x2="-345.727" y1="-3.582" y2="-3.921" gradientTransform="matrix(30.2455 0 0 27.1625 10490.3213 132.4182)" gradientUnits="userSpaceOnUse"><stop style="stop-color:#fff" id="stop663" offset="0"/><stop style="stop-color:#f5ffff" id="stop664" offset="1"/></linearGradient><path id="path645" fill="url(#path645_1_)" d="M33.4,32.4c-0.6,1.1,1.1,2.2,2.1,2.8c1.1,0.6,2.4,1,3.5,0.2 c0.9-0.9-0.2-2-0.8-2.4c-0.6-0.4-4.3-2.6-4.3-2.6v1.1l-0.3,0.6L33.4,32.4z"/><g id="path647"><radialGradient id="path676_1_" cx="-342.155" cy="-2.151" r=".152" fx="-342.155" fy="-2.151" gradientTransform="matrix(85.0605 0 0 83.8074 29150.6602 250.8544)" gradientUnits="userSpaceOnUse"><stop style="stop-color:#fff" id="stop671" offset="0"/><stop style="stop-color:#f5ffff" id="stop672" offset="1"/></radialGradient><path id="path676" fill="url(#path676_1_)" d="M25.9,34.9c1.7,2.7,3.6,5.5,5.3,8c1.7,2.1,4.6,3.7,6.2,2.9 c0.8-0.5,0.8-1.6,1.5-1.8c1-0.5,1.5,0.1,2.9-0.6c1.4-0.7,1.5-4.4-0.2-7.3c-1.6-2.6-2.7-5-4.2-7C35.6,33.3,29.1,34.9,25.9,34.9z"/><path id="path677" fill="none" stroke="#CE0000" stroke-width=".611" d="M25.9,34.9c1.7,2.7,3.6,5.5,5.3,8c1.7,2.1,4.6,3.7,6.2,2.9c0.8-0.5,0.8-1.6,1.5-1.8c1-0.5,1.5,0.1,2.9-0.6 c1.4-0.7,1.5-4.4-0.2-7.3c-1.6-2.6-2.7-5-4.2-7C35.6,33.3,29.1,34.9,25.9,34.9z" enable-background="new" opacity=".649"/></g><linearGradient id="path638_1_" x1="-341.526" x2="-341.469" y1="-.957" y2="-1.024" gradientTransform="matrix(85.0602 0 0 83.8077 29080.5137 123.0943)" gradientUnits="userSpaceOnUse"><stop style="stop-color:red" id="stop679" offset="0"/><stop style="stop-color:#cf0000" id="stop680" offset="1"/></linearGradient><path id="path638" fill="url(#path638_1_)" stroke="#000" stroke-width=".161" d="M25.5,34.7c1.7,2.7,3.6,5.5,5.3,8 c1.7,2.1,4.6,3.7,6.2,2.9c0.8-0.5,0.8-1.6,1.5-1.8c1-0.5,1.5,0.1,2.9-0.6s1.5-4.4-0.2-7.3c-1.6-2.6-2.7-5-4.2-7 C35.2,33.1,28.7,34.7,25.5,34.7z"/><path id="path639" fill="none" stroke="#795000" stroke-linecap="round" stroke-width="1.171" d="M14.9,31.5 c9.5,7.4,24,1.1,24.5-9.7"/><g id="path640"><path id="path687" fill="none" stroke="#000" stroke-linecap="round" stroke-width="4.054" d="M14.7,31.6c9.6,7.6,24.2,1.3,24.5-9.7" enable-background="new" opacity=".033"/></g><g id="path641"><path id="path689" fill="none" stroke="#000" stroke-linecap="round" stroke-width="3.153" d="M14.6,31.3c9.6,7.6,24.2,1.3,24.5-9.7" enable-background="new" opacity=".033"/></g><g id="path642"><path id="path691" fill="none" stroke="#000" stroke-linecap="round" stroke-width="5.351" d="M14.7,31.5c9.6,7.6,24.2,1.3,24.5-9.7" enable-background="new" opacity=".033"/></g></g><g id="g692"><radialGradient id="path630_1_" cx="-334.956" cy=".248" r=".134" fx="-334.956" fy=".248" gradientTransform="matrix(-42.8545 7.3081 11.3939 64.5643 -14325.4424 2446.8237)" gradientUnits="userSpaceOnUse"><stop style="stop-color:#dee2e7" id="stop694" offset="0"/><stop style="stop-color:#fff" id="stop695" offset="1"/></radialGradient><path id="path630" fill="url(#path630_1_)" stroke="#7C5202" stroke-width=".825" d="M28.4,13.9c-0.6-3.6,0.8-6.8,3.1-7.2 c2.4-0.4,4.8,2.2,5.4,5.7l0,0c0.6,3.6-0.8,6.8-3.1,7.2C31.4,20,29,17.4,28.4,13.9L28.4,13.9z"/><g id="path631"><path id="path701" fill="none" stroke="#000" stroke-width=".75" d="M27.7,13.9c-0.7-3.9,1-7.5,3.7-8c2.7-0.5,5.5,2.3,6.2,6.3l0,0c0.7,3.9-1,7.5-3.7,8C31.2,20.7,28.4,17.9,27.7,13.9L27.7,13.9z" enable-background="new" opacity=".038"/></g><g id="path632"><path id="path703" fill="none" stroke="#000" stroke-width="2.608" d="M27.7,14c-0.7-4,1-7.5,3.7-8c2.7-0.5,5.5,2.3,6.2,6.2l0,0c0.7,3.9-1,7.5-3.7,7.9C31.2,20.7,28.4,17.9,27.7,14L27.7,14z" enable-background="new" opacity=".014"/></g><g id="path633"><path id="path705" fill="none" stroke="#000" stroke-width="1.648" d="M27.7,14c-0.7-4,1-7.5,3.7-8c2.7-0.5,5.5,2.3,6.2,6.2l0,0c0.7,3.9-1,7.5-3.7,7.9C31.2,20.7,28.4,17.9,27.7,14L27.7,14z" enable-background="new" opacity=".014"/></g><g id="path634"><path id="path707" fill="none" stroke="#000" stroke-width=".568" d="M27.7,14c-0.7-4,1-7.5,3.7-8c2.7-0.5,5.5,2.3,6.2,6.2l0,0c0.7,3.9-1,7.5-3.7,7.9C31.2,20.7,28.4,17.9,27.7,14L27.7,14z" enable-background="new" opacity=".014"/></g><g id="path635"><path id="path709" fill="none" stroke="#000" stroke-width=".285" d="M27.9,13.9c-0.7-3.9,0.9-7.3,3.5-7.8s5.3,2.3,6,6.2l0,0c0.7,3.9-0.9,7.3-3.5,7.8C31.3,20.5,28.6,17.8,27.9,13.9L27.9,13.9z" enable-background="new" opacity=".152"/></g><radialGradient id="path637_1_" cx="-329.07" cy="-1.031" r=".123" fx="-329.07" fy="-1.031" gradientTransform="matrix(-17.8477 3.0436 3.6367 20.6079 -5836.4575 1037.6046)" gradientUnits="userSpaceOnUse"><stop style="stop-color:#000082" id="stop711" offset="0"/><stop style="stop-color:#000" id="stop712" offset="1"/></radialGradient><path id="path637" fill="url(#path637_1_)" d="M30.6,16.3c-0.2-1.1,0.4-2.2,1.4-2.4c1-0.2,1.9,0.6,2.1,1.8l0,0 c0.2,1.1-0.4,2.2-1.4,2.4C31.8,18.2,30.8,17.4,30.6,16.3L30.6,16.3z"/><radialGradient id="path650_1_" cx="-341.313" cy=".169" r=".134" fx="-341.313" fy=".169" gradientTransform="matrix(47.0993 -8.1707 12.5225 72.1844 16092.3809 -2780.0249)" gradientUnits="userSpaceOnUse"><stop style="stop-color:#dee2e7" id="stop718" offset="0"/><stop style="stop-color:#fff" id="stop719" offset="1"/></radialGradient><path id="path650" fill="url(#path650_1_)" stroke="#7C3902" stroke-width=".825" d="M21.9,18.3c-0.7-4-3.4-6.9-6-6.4 s-4.2,4-3.5,8l0,0c0.7,4,3.4,6.9,6,6.4C21,25.9,22.6,22.3,21.9,18.3L21.9,18.3z"/><g id="path651"><path id="path725" fill="none" stroke="#000" stroke-width=".75" d="M22.6,18.1c-0.8-4.4-3.8-7.5-6.8-7S11,15.6,11.7,20l0,0c0.8,4.4,3.8,7.5,6.8,7S23.4,22.5,22.6,18.1L22.6,18.1z" enable-background="new" opacity=".038"/></g><g id="path652"><path id="path727" fill="none" stroke="#000" stroke-width="2.608" d="M22.6,18.2c-0.8-4.4-3.8-7.5-6.8-7s-4.8,4.5-4.1,8.9l0,0c0.8,4.4,3.8,7.5,6.8,7C21.5,26.5,23.4,22.5,22.6,18.2L22.6,18.2z" enable-background="new" opacity=".014"/></g><g id="path653"><path id="path729" fill="none" stroke="#000" stroke-width="1.648" d="M22.6,18.2c-0.8-4.4-3.8-7.5-6.8-7s-4.8,4.5-4.1,8.9l0,0c0.8,4.4,3.8,7.5,6.8,7C21.5,26.5,23.4,22.5,22.6,18.2L22.6,18.2z" enable-background="new" opacity=".014"/></g><g id="path654"><path id="path731" fill="none" stroke="#000" stroke-width=".568" d="M22.6,18.2c-0.8-4.4-3.8-7.5-6.8-7s-4.8,4.5-4.1,8.9l0,0c0.8,4.4,3.8,7.5,6.8,7C21.5,26.5,23.4,22.5,22.6,18.2L22.6,18.2z" enable-background="new" opacity=".014"/></g><g id="path655"><path id="path733" fill="none" stroke="#000" stroke-width=".285" d="M22.4,18.2c-0.7-4.3-3.7-7.4-6.6-6.9c-2.9,0.5-4.7,4.4-3.9,8.7l0,0c0.7,4.3,3.7,7.4,6.6,6.9S23.1,22.5,22.4,18.2L22.4,18.2z" enable-background="new" opacity=".152"/></g><radialGradient id="path656_1_" cx="-344.336" cy="-1.283" r=".123" fx="-344.336" fy="-1.283" gradientTransform="matrix(19.6156 -3.4029 3.997 23.0402 6777.0303 -1121.149)" gradientUnits="userSpaceOnUse"><stop style="stop-color:#000082" id="stop735" offset="0"/><stop style="stop-color:#000" id="stop736" offset="1"/></radialGradient><path id="path656" fill="url(#path656_1_)" d="M20.5,21.7c-0.2-1.3-1.3-2.2-2.4-2c-1.1,0.2-1.8,1.4-1.6,2.6l0,0 c0.2,1.3,1.3,2.2,2.4,2C20,24.1,20.7,22.9,20.5,21.7L20.5,21.7z"/></g></g></svg>