<svg xmlns="http://www.w3.org/2000/svg" xmlns:xlink="http://www.w3.org/1999/xlink" id="svg602" width="48" height="48.7" enable-background="new 0 0 48 48.7" overflow="visible" viewBox="0 0 48 48.7" xml:space="preserve"><g id="Layer_1"><g id="g606"><path id="path597_5_" fill="none" stroke="#474000" stroke-width="1.882" d="M5.6,20.2c0-10.7,8-19.3,17.8-19.3c9.8,0,18.4,8.1,18.4,18.7c0,10.7-8.6,19.9-18.4,19.9C13.6,39.5,5.6,30.9,5.6,20.2z" enable-background="new" opacity=".15"/><path id="path597_4_" fill="none" stroke="#474000" stroke-width=".941" d="M5.6,20.2c0-10.7,8-19.3,17.8-19.3c9.8,0,18.4,8.1,18.4,18.7c0,10.7-8.6,19.9-18.4,19.9C13.6,39.5,5.6,30.9,5.6,20.2z" enable-background="new" opacity=".2"/><path id="path597_3_" fill="none" stroke="#474000" stroke-width=".47" d="M5.6,20.2c0-10.7,8-19.3,17.8-19.3c9.8,0,18.4,8.1,18.4,18.7c0,10.7-8.6,19.9-18.4,19.9C13.6,39.5,5.6,30.9,5.6,20.2z" enable-background="new" opacity=".3"/><radialGradient id="path700_1_" cx="-339.72" cy="-.782" r=".064" fx="-339.72" fy="-.782" gradientTransform="matrix(310.7065 0 0 144.1183 105578.2188 155.2078)" gradientUnits="userSpaceOnUse"><stop style="stop-color:#261700" id="stop611" offset="0"/><stop style="stop-color:#d2d2d2" id="stop612" offset="1"/></radialGradient><path id="path700" fill="url(#path700_1_)" d="M37.9,31.8c6.5,4.5,6,10.6-1.9,14.3c-7.9,3.7-19.5,3.1-25.9-1.5c-5.5-3.8-5.7-9.1-0.5-13.1c3.4,4.7,6.2,6.3,14,7.3 C30.1,38.7,34.3,35.8,37.9,31.8z" enable-background="new" opacity=".3"/><radialGradient id="path577_1_" cx="-298.644" cy="42.73" r="41.557" fx="-298.644" fy="42.73" gradientTransform="matrix(298.9032 0 0 316.3969 101568.6563 -85.5551)" gradientUnits="userSpaceOnUse"><stop style="stop-color:#ff6f00" id="stop618" offset="0"/><stop style="stop-color:#ff0" id="stop619" offset="1"/></radialGradient><circle id="path577" cx="23.9" cy="20.4" r="17.8" fill="url(#path577_1_)"/><linearGradient id="path597_1_" x1="-339.714" x2="-339.715" y1=".278" y2=".397" gradientTransform="matrix(303.6933 0 0 316.3967 103192.7969 -85.2919)" gradientUnits="userSpaceOnUse"><stop style="stop-color:#ff6500" id="stop625" offset="0"/><stop style="stop-color:#ff0" id="stop626" offset="1"/></linearGradient><path id="path597" fill="url(#path597_1_)" d="M5.6,20.2c0-10.7,8-19.3,17.8-19.3c9.9,0,18.4,8,18.4,18.7c0,10.7-8.6,19.9-18.4,19.9C13.6,39.5,5.6,30.9,5.6,20.2z" enable-background="new" opacity=".75"/><rect id="rect662" width="48" height="48" y=".7" fill="none"/><g id="g632"><path id="path633" d="M26.7,25.7h-6.1v-7.3h1.8c1.3,0,2.3-0.3,3-0.8s1-1.3,1-2.3c0-0.8-0.3-1.5-0.8-2s-1.2-0.8-1.9-0.8 c-0.8,0-1.5,0.2-1.9,0.7c-0.5,0.4-0.7,1.1-0.8,1.9h-6v-0.1c0-2.3,0.8-4.1,2.4-5.5c1.6-1.4,3.8-2,6.5-2c2.5,0,4.5,0.7,6,2.2 c1.5,1.4,2.3,3.3,2.3,5.7c0,2-0.5,3.6-1.6,4.8c-1,1.2-2.4,1.9-4.1,1.9L26.7,25.7z M19.9,31.5c0-1,0.3-1.8,1-2.5s1.5-1,2.5-1 c1,0,1.9,0.3,2.5,1s1,1.5,1,2.5s-0.3,1.9-1,2.5c-0.7,0.7-1.5,1-2.5,1c-1,0-1.8-0.3-2.5-1C20.2,33.3,19.9,32.5,19.9,31.5z"/></g><radialGradient id="path597_6_" cx="-146.555" cy="426.705" r="20.235" fx="-146.555" fy="426.705" gradientTransform="matrix(1 0 0 -1 169.9258 427.5703)" gradientUnits="userSpaceOnUse"><stop style="stop-color:#fff" id="stop635" offset="0"/><stop style="stop-color:#fffefa" id="stop636" offset=".105"/><stop style="stop-color:#fffbec" id="stop637" offset=".228"/><stop style="stop-color:#fff7d4" id="stop638" offset=".362"/><stop style="stop-color:#fff1b2" id="stop639" offset=".502"/><stop style="stop-color:#ffe988" id="stop640" offset=".647"/><stop style="stop-color:#ffdf53" id="stop641" offset=".798"/><stop style="stop-color:#ffd316" id="stop642" offset=".949"/><stop style="stop-color:#ffcf00" id="stop643" offset="1"/></radialGradient><path id="path597_2_" fill="url(#path597_6_)" d="M12.2,7.8c0-3.8,5-6.9,11.1-6.9c6.1,0,11.4,2.9,11.4,6.7C34.7,11.4,12.2,11.6,12.2,7.8z" enable-background="new" opacity=".75"/></g></g></svg>