<svg xmlns="http://www.w3.org/2000/svg" xmlns:xlink="http://www.w3.org/1999/xlink" id="svg602" width="48" height="48.7" enable-background="new 0 0 48 48.7" overflow="visible" viewBox="0 0 48 48.7" xml:space="preserve"><g id="Layer_1"><path id="path597_5_" fill="none" stroke="#474000" stroke-width="1.882" d="M5.6,20.2c0-10.7,8-19.3,17.8-19.3c9.8,0,18.4,8.1,18.4,18.7c0,10.7-8.6,19.9-18.4,19.9C13.6,39.5,5.6,30.9,5.6,20.2z" enable-background="new" opacity=".15"/><path id="path597_4_" fill="none" stroke="#474000" stroke-width=".941" d="M5.6,20.2c0-10.7,8-19.3,17.8-19.3c9.8,0,18.4,8.1,18.4,18.7c0,10.7-8.6,19.9-18.4,19.9C13.6,39.5,5.6,30.9,5.6,20.2z" enable-background="new" opacity=".2"/><path id="path597_3_" fill="none" stroke="#474000" stroke-width=".47" d="M5.6,20.2c0-10.7,8-19.3,17.8-19.3c9.8,0,18.4,8.1,18.4,18.7c0,10.7-8.6,19.9-18.4,19.9C13.6,39.5,5.6,30.9,5.6,20.2z" enable-background="new" opacity=".3"/><radialGradient id="path700_1_" cx="-679.571" cy="-.74" r=".064" fx="-679.571" fy="-.74" gradientTransform="matrix(310.7065 0 0 144.1183 211172.2188 149.3426)" gradientUnits="userSpaceOnUse"><stop style="stop-color:#261700" id="stop610" offset="0"/><stop style="stop-color:#d2d2d2" id="stop611" offset="1"/></radialGradient><path id="path700" fill="url(#path700_1_)" d="M37.9,31.8c6.5,4.5,6,10.6-1.9,14.3c-7.9,3.7-19.5,3.1-25.9-1.5c-5.5-3.8-5.7-9.1-0.5-13.1c3.4,4.7,6.2,6.3,14,7.3 C30.1,38.7,34.3,35.8,37.9,31.8z" enable-background="new" opacity=".3"/><radialGradient id="path577_1_" cx="-638.496" cy="42.772" r="41.557" fx="-638.496" fy="42.772" gradientTransform="matrix(298.9032 0 0 316.3969 203151.1563 -98.4275)" gradientUnits="userSpaceOnUse"><stop style="stop-color:#ff6f00" id="stop617" offset="0"/><stop style="stop-color:#ff0" id="stop618" offset="1"/></radialGradient><circle id="path577" cx="23.9" cy="20.4" r="17.8" fill="url(#path577_1_)"/><linearGradient id="path597_1_" x1="-679.565" x2="-679.567" y1=".318" y2=".437" gradientTransform="matrix(303.6933 0 0 316.3967 206403.3125 -98.1642)" gradientUnits="userSpaceOnUse"><stop style="stop-color:#ff6500" id="stop624" offset="0"/><stop style="stop-color:#ff0" id="stop625" offset="1"/></linearGradient><path id="path597" fill="url(#path597_1_)" d="M5.6,20.2c0-10.7,8-19.3,17.8-19.3c9.9,0,18.4,8,18.4,18.7c0,10.7-8.6,19.9-18.4,19.9C13.6,39.5,5.6,30.9,5.6,20.2z" enable-background="new" opacity=".75"/><radialGradient id="path597_6_" cx="-486.406" cy="426.746" r="20.235" fx="-486.406" fy="426.746" gradientTransform="matrix(1 0 0 -1 509.7773 427.6934)" gradientUnits="userSpaceOnUse"><stop style="stop-color:#fff" id="stop631" offset="0"/><stop style="stop-color:#fffefa" id="stop632" offset=".105"/><stop style="stop-color:#fffbec" id="stop633" offset=".228"/><stop style="stop-color:#fff7d4" id="stop634" offset=".362"/><stop style="stop-color:#fff1b2" id="stop635" offset=".502"/><stop style="stop-color:#ffe988" id="stop636" offset=".647"/><stop style="stop-color:#ffdf53" id="stop637" offset=".798"/><stop style="stop-color:#ffd316" id="stop638" offset=".949"/><stop style="stop-color:#ffcf00" id="stop639" offset="1"/></radialGradient><path id="path597_2_" fill="url(#path597_6_)" d="M12.2,7.8c0-3.8,5-6.9,11.1-6.9c6.1,0,11.4,2.9,11.4,6.7C34.7,11.4,12.2,11.6,12.2,7.8z" enable-background="new" opacity=".75"/><rect id="rect662" width="48" height="48" y=".7" fill="none"/><g id="g659"><radialGradient id="path630_1_" cx="-165.896" cy="427.225" r=".121" fx="-165.896" fy="427.225" gradientTransform="matrix(-47.8028 0 0 -73.2626 -7898.3047 31318.1973)" gradientUnits="userSpaceOnUse"><stop style="stop-color:#dee2e7" id="stop661" offset="0"/><stop style="stop-color:#fff" id="stop662" offset="1"/></radialGradient><path id="path630" cx="50.247" cy="478.41" fill="url(#path630_1_)" stroke="#7C5202" stroke-width=".743" d="M28.9,17.2c0-3.6,1.9-6.6,4.3-6.6c2.4,0,4.3,2.9,4.3,6.6c0,0,0,0,0,0c0,3.6-1.9,6.6-4.3,6.6C30.8,23.8,28.9,20.8,28.9,17.2 C28.9,17.2,28.9,17.2,28.9,17.2z" rx="24.525" ry="34.993" type="arc"/><g id="path631" cx="50.097" cy="476.765" rx="28.862" ry="41.424" type="arc"><path id="path668" fill="none" stroke="#000" stroke-width=".675" d="M28.2,17.1 c0-4,2.2-7.3,5-7.3s5,3.3,5,7.3c0,0,0,0,0,0c0,4-2.2,7.3-5,7.3C30.4,24.4,28.2,21.1,28.2,17.1C28.2,17.1,28.2,17.1,28.2,17.1z" opacity=".038"/></g><g id="path632" cx="50.097" cy="476.765" rx="28.862" ry="41.424" type="arc"><path id="path670" fill="none" stroke="#000" stroke-width="2.347" d="M28.2,17.1 c0-4,2.2-7.2,5-7.2c2.8,0,5,3.2,5,7.2c0,0,0,0,0,0c0,4-2.2,7.2-5,7.2C30.4,24.4,28.2,21.1,28.2,17.1 C28.2,17.1,28.2,17.1,28.2,17.1z" opacity=".014"/></g><g id="path633" cx="50.097" cy="476.765" rx="28.862" ry="41.424" type="arc"><path id="path672" fill="none" stroke="#000" stroke-width="1.483" d="M28.2,17.1 c0-4,2.2-7.2,5-7.2c2.8,0,5,3.2,5,7.2c0,0,0,0,0,0c0,4-2.2,7.2-5,7.2C30.4,24.4,28.2,21.1,28.2,17.1 C28.2,17.1,28.2,17.1,28.2,17.1z" opacity=".014"/></g><g id="path634" cx="50.097" cy="476.765" rx="28.862" ry="41.424" type="arc"><path id="path674" fill="none" stroke="#000" stroke-width=".511" d="M28.2,17.1 c0-4,2.2-7.2,5-7.2c2.8,0,5,3.2,5,7.2c0,0,0,0,0,0c0,4-2.2,7.2-5,7.2C30.4,24.4,28.2,21.1,28.2,17.1 C28.2,17.1,28.2,17.1,28.2,17.1z" opacity=".014"/></g><g id="path635" cx="50.097" cy="476.765" rx="28.862" ry="41.424" type="arc"><path id="path676" fill="none" stroke="#000" stroke-width=".257" d="M28.4,17.1 c0-3.9,2.1-7.1,4.8-7.1c2.7,0,4.8,3.2,4.8,7.1c0,0,0,0,0,0c0,3.9-2.1,7.1-4.8,7.1C30.5,24.3,28.4,21.1,28.4,17.1 C28.4,17.1,28.4,17.1,28.4,17.1z" opacity=".152"/></g><radialGradient id="path637_1_" cx="-161.213" cy="427.9" r=".111" fx="-161.213" fy="427.9" gradientTransform="matrix(-19.9085 0 0 -23.3843 -3176.4636 10024.9307)" gradientUnits="userSpaceOnUse"><stop style="stop-color:#000082" id="stop678" offset="0"/><stop style="stop-color:#000" id="stop679" offset="1"/></radialGradient><path id="path637" cx="61.649" cy="495.829" fill="url(#path637_1_)" d="M30.6,19.9c0-1.2,0.8-2.1,1.8-2.1c1,0,1.8,0.9,1.8,2.1c0,0,0,0,0,0c0,1.2-0.8,2.1-1.8,2.1C31.4,22,30.6,21.1,30.6,19.9 C30.6,19.9,30.6,19.9,30.6,19.9z" rx="10.469" ry="10.892" type="arc"/></g><g id="g684"><radialGradient id="path650_1_" cx="-170.582" cy="427.225" r=".121" fx="-170.582" fy="427.225" gradientTransform="matrix(47.8028 0 0 -73.2626 8169.1094 31318.1973)" gradientUnits="userSpaceOnUse"><stop style="stop-color:#dee2e7" id="stop686" offset="0"/><stop style="stop-color:#fff" id="stop687" offset="1"/></radialGradient><path id="path650" cx="50.247" cy="478.41" fill="url(#path650_1_)" stroke="#7C3902" stroke-width=".743" d="M17.9,17.2c0-3.6-1.9-6.6-4.3-6.6c-2.4,0-4.3,2.9-4.3,6.6c0,0,0,0,0,0c0,3.6,1.9,6.6,4.3,6.6C16,23.8,17.9,20.8,17.9,17.2 C17.9,17.2,17.9,17.2,17.9,17.2z" rx="24.525" ry="34.993" type="arc"/><g id="path651" cx="50.097" cy="476.765" rx="28.862" ry="41.424" type="arc"><path id="path693" fill="none" stroke="#000" stroke-width=".675" d="M18.6,17.1 c0-4-2.2-7.3-5-7.3s-5,3.3-5,7.3c0,0,0,0,0,0c0,4,2.2,7.3,5,7.3C16.4,24.4,18.6,21.1,18.6,17.1C18.6,17.1,18.6,17.1,18.6,17.1z" opacity=".038"/></g><g id="path652" cx="50.097" cy="476.765" rx="28.862" ry="41.424" type="arc"><path id="path695" fill="none" stroke="#000" stroke-width="2.347" d="M18.6,17.1 c0-4-2.2-7.2-5-7.2c-2.8,0-5,3.2-5,7.2c0,0,0,0,0,0c0,4,2.2,7.2,5,7.2C16.4,24.4,18.6,21.1,18.6,17.1 C18.6,17.1,18.6,17.1,18.6,17.1z" opacity=".014"/></g><g id="path653" cx="50.097" cy="476.765" rx="28.862" ry="41.424" type="arc"><path id="path697" fill="none" stroke="#000" stroke-width="1.483" d="M18.6,17.1 c0-4-2.2-7.2-5-7.2c-2.8,0-5,3.2-5,7.2c0,0,0,0,0,0c0,4,2.2,7.2,5,7.2C16.4,24.4,18.6,21.1,18.6,17.1 C18.6,17.1,18.6,17.1,18.6,17.1z" opacity=".014"/></g><g id="path654" cx="50.097" cy="476.765" rx="28.862" ry="41.424" type="arc"><path id="path699" fill="none" stroke="#000" stroke-width=".511" d="M18.6,17.1 c0-4-2.2-7.2-5-7.2c-2.8,0-5,3.2-5,7.2c0,0,0,0,0,0c0,4,2.2,7.2,5,7.2C16.4,24.4,18.6,21.1,18.6,17.1 C18.6,17.1,18.6,17.1,18.6,17.1z" opacity=".014"/></g><g id="path655" cx="50.097" cy="476.765" rx="28.862" ry="41.424" type="arc"><path id="path701" fill="none" stroke="#000" stroke-width=".257" d="M18.4,17.1 c0-3.9-2.1-7.1-4.8-7.1s-4.8,3.2-4.8,7.1c0,0,0,0,0,0c0,3.9,2.1,7.1,4.8,7.1C16.3,24.3,18.4,21.1,18.4,17.1 C18.4,17.1,18.4,17.1,18.4,17.1z" opacity=".152"/></g><radialGradient id="path656_1_" cx="-172.463" cy="427.9" r=".112" fx="-172.463" fy="427.9" gradientTransform="matrix(19.9085 0 0 -23.3843 3447.2371 10024.9307)" gradientUnits="userSpaceOnUse"><stop style="stop-color:#000082" id="stop703" offset="0"/><stop style="stop-color:#000" id="stop704" offset="1"/></radialGradient><path id="path656" cx="61.649" cy="495.829" fill="url(#path656_1_)" d="M16.2,19.9c0-1.2-0.8-2.1-1.8-2.1c-1,0-1.8,0.9-1.8,2.1c0,0,0,0,0,0c0,1.2,0.8,2.1,1.8,2.1C15.4,22,16.2,21.1,16.2,19.9 C16.2,19.9,16.2,19.9,16.2,19.9z" rx="10.469" ry="10.892" type="arc"/></g><g id="g709"><g id="path649" cx="186.109" cy="677.183" rx="46.527" ry="47.796" type="arc"><radialGradient id="XMLID_1_" cx="-172.179" cy="429.996" r=".185" fx="-172.179" fy="429.996" gradientTransform="matrix(68.522 0 0 -75.2895 11840.043 32425.127)" gradientUnits="userSpaceOnUse"><stop style="stop-color:#6e6d6d" id="stop712" offset="0"/><stop style="stop-color:#000" id="stop713" offset="1"/></radialGradient><path id="path717" fill="url(#XMLID_1_)" d="M29.3,29.7c0-3.4-2.5-6.1-5.6-6.1c-3.1,0-5.6,2.7-5.6,6.1l0,0 c0,3.4,2.5,6.1,5.6,6.1C26.8,35.8,29.3,33.1,29.3,29.7L29.3,29.7z"/><path id="path718" fill="none" stroke="#000" stroke-width="3.321" d="M29.3,29.7 c0-3.4-2.5-6.1-5.6-6.1c-3.1,0-5.6,2.7-5.6,6.1l0,0c0,3.4,2.5,6.1,5.6,6.1C26.8,35.8,29.3,33.1,29.3,29.7L29.3,29.7z" opacity=".05"/></g><g id="path647" cx="186.109" cy="677.183" rx="46.527" ry="47.796" type="arc"><path id="path720" fill="url(#XMLID_1_)" d="M29.3,29.7c0-3.4-2.5-6.1-5.6-6.1c-3.1,0-5.6,2.7-5.6,6.1l0,0 c0,3.4,2.5,6.1,5.6,6.1C26.8,35.8,29.3,33.1,29.3,29.7L29.3,29.7z"/><path id="path721" fill="none" stroke="#000" stroke-width="4.354" d="M29.3,29.7 c0-3.4-2.5-6.1-5.6-6.1c-3.1,0-5.6,2.7-5.6,6.1l0,0c0,3.4,2.5,6.1,5.6,6.1C26.8,35.8,29.3,33.1,29.3,29.7L29.3,29.7z" opacity=".05"/></g><g id="path662" cx="186.109" cy="677.183" rx="46.527" ry="47.796" type="arc"><path id="path723" fill="url(#XMLID_1_)" d="M29.3,29.7c0-3.4-2.5-6.1-5.6-6.1c-3.1,0-5.6,2.7-5.6,6.1l0,0 c0,3.4,2.5,6.1,5.6,6.1C26.8,35.8,29.3,33.1,29.3,29.7L29.3,29.7z"/><path id="path724" fill="none" stroke="#000" stroke-width="2.086" d="M29.3,29.7 c0-3.4-2.5-6.1-5.6-6.1c-3.1,0-5.6,2.7-5.6,6.1l0,0c0,3.4,2.5,6.1,5.6,6.1C26.8,35.8,29.3,33.1,29.3,29.7L29.3,29.7z" opacity=".05"/></g><g id="path663" cx="186.109" cy="677.183" rx="46.527" ry="47.796" type="arc"><path id="path726" fill="url(#XMLID_1_)" d="M29.3,29.7c0-3.4-2.5-6.1-5.6-6.1c-3.1,0-5.6,2.7-5.6,6.1l0,0 c0,3.4,2.5,6.1,5.6,6.1C26.8,35.8,29.3,33.1,29.3,29.7L29.3,29.7z"/><path id="path727" fill="none" stroke="#000" stroke-width="2.369" d="M29.3,29.7 c0-3.4-2.5-6.1-5.6-6.1c-3.1,0-5.6,2.7-5.6,6.1l0,0c0,3.4,2.5,6.1,5.6,6.1C26.8,35.8,29.3,33.1,29.3,29.7L29.3,29.7z" opacity=".05"/></g><g id="path664" cx="186.109" cy="677.183" rx="46.527" ry="47.796" type="arc"><path id="path729" fill="url(#XMLID_1_)" d="M29.3,29.7c0-3.4-2.5-6.1-5.6-6.1c-3.1,0-5.6,2.7-5.6,6.1l0,0 c0,3.4,2.5,6.1,5.6,6.1C26.8,35.8,29.3,33.1,29.3,29.7L29.3,29.7z"/><path id="path730" fill="none" stroke="#000" stroke-width="5.832" d="M29.3,29.7 c0-3.4-2.5-6.1-5.6-6.1c-3.1,0-5.6,2.7-5.6,6.1l0,0c0,3.4,2.5,6.1,5.6,6.1C26.8,35.8,29.3,33.1,29.3,29.7L29.3,29.7z" opacity=".05"/></g><g id="path640" cx="186.109" cy="677.183" rx="46.527" ry="47.796" type="arc"><path id="path732" fill="url(#XMLID_1_)" d="M29.3,29.7c0-3.4-2.5-6.1-5.6-6.1c-3.1,0-5.6,2.7-5.6,6.1l0,0 c0,3.4,2.5,6.1,5.6,6.1C26.8,35.8,29.3,33.1,29.3,29.7L29.3,29.7z"/><path id="path733" fill="none" stroke="#561900" stroke-width="1.134" d="M29.3,29.7 c0-3.4-2.5-6.1-5.6-6.1c-3.1,0-5.6,2.7-5.6,6.1l0,0c0,3.4,2.5,6.1,5.6,6.1C26.8,35.8,29.3,33.1,29.3,29.7L29.3,29.7z" opacity=".945"/></g></g></g></svg>