<svg xmlns="http://www.w3.org/2000/svg" xmlns:xlink="http://www.w3.org/1999/xlink" id="svg602" width="48" height="50.8" enable-background="new 0 0 48 50.8" overflow="visible" viewBox="0 0 48 50.8" xml:space="preserve"><g id="Layer_1"><g id="g607"><g id="path647"><path id="path607" d="M18.2,23.9 c-2.7-0.4-6.2-0.4-8.2,1.2c-3.1,2.5-7.5,7.6-7,11c0.7,4,6.3,9.1,10.6,11.2c4.3,2.1,11.1,3.2,15.3,1.7c3.6-1.3,6-6.5,8.1-10.2 c1.6-2.9,4.8-8.1,2.9-9.6C35.6,25.7,25.4,24.8,18.2,23.9z" enable-background="new" opacity=".038"/></g><g id="path646"><path id="path609" d="M19.6,26.3 c-2.2-0.3-5-0.3-6.6,1c-2.5,2-6.1,6.2-5.6,9c0.5,3.3,5.1,7.4,8.6,9.2c3.5,1.8,8.9,2.6,12.3,1.4c2.9-1.1,4.8-5.3,6.5-8.3 c1.3-2.4,3.9-6.6,2.3-7.9C33.5,27.8,25.4,27.1,19.6,26.3z" enable-background="new" opacity=".038"/></g><g id="path645"><path id="path611" d="M21,25.5 c-2-0.3-4.6-0.3-6.1,1c-2.3,2-5.6,6-5.2,8.7c0.5,3.2,4.7,7.2,7.9,8.9c3.2,1.7,8.2,2.5,11.3,1.3c2.6-1,4.5-5.1,6-8.1 c1.2-2.3,3.6-6.4,2.1-7.6C33.9,27,26.4,26.3,21,25.5z" enable-background="new" opacity=".038"/></g><g id="path644"><path id="path613" d="M20,25.6 c-2.6-0.3-6-0.3-7.9,1.1c-3,2.3-7.2,7-6.7,10.1c0.6,3.7,6.1,8.4,10.2,10.3c4.2,2,10.6,3,14.7,1.5c3.4-1.2,5.8-6,7.8-9.4 c1.5-2.7,4.6-7.5,2.8-8.9C36.7,27.2,27,26.4,20,25.6z" enable-background="new" opacity=".038"/></g><g id="path643"><path id="path615" d="M18.8,24.9 c-2.7-0.4-6.2-0.4-8.2,1.2c-3.1,2.5-7.5,7.6-7,11c0.7,4,6.3,9.1,10.6,11.2c4.3,2.1,11.1,3.2,15.3,1.7c3.6-1.3,6-6.5,8.1-10.2 c1.6-2.9,4.8-8.1,2.9-9.6C36.2,26.7,26.1,25.9,18.8,24.9z" enable-background="new" opacity=".038"/></g><g id="path637"><path id="path617" fill="none" stroke="#4E4242" stroke-linejoin="round" stroke-width="1.474" d="M29.3,35.5c-2.4,0.3-5.7-1-8.1-2.4c-2.2-1.3-4.1-3.6-5.6-5.7c-1.5-2.1-2.6-4.5-3.3-6.9c-0.5-1.8-0.7-4-0.4-5.8 c0.3-1.9,1.1-4,2.3-5.4c1.6-1.9,3.9-3.8,6.2-4.8c2.9-1.2,6.3-1.7,9.4-1.6c2.9,0.1,6.1,0.7,8.6,1.9c2.2,1.1,4.4,3.1,5.6,5.2 c1,1.8,1.3,4.3,1,6.5c-0.3,3.1-1.4,6.2-2.6,9.1c-0.9,2-2.2,3.8-3.7,5.4c-1.5,1.9-3.9,3.2-6.2,4C31.5,35.4,30.5,35.4,29.3,35.5" enable-background="new" opacity=".03"/></g><g id="path636"><path id="path619" fill="none" stroke="#4E4242" stroke-linejoin="round" stroke-width="1.801" d="M29.3,35.5c-2.4,0.3-5.7-1-8.1-2.4c-2.2-1.3-4.1-3.6-5.6-5.7c-1.5-2.1-2.6-4.5-3.3-6.9c-0.5-1.8-0.7-4-0.4-5.8 c0.3-1.9,1.1-4,2.3-5.4c1.6-1.9,3.9-3.8,6.2-4.8c2.9-1.2,6.3-1.7,9.4-1.6c2.9,0.1,6.1,0.7,8.6,1.9c2.2,1.1,4.4,3.1,5.6,5.2 c1,1.8,1.3,4.3,1,6.5c-0.3,3.1-1.4,6.2-2.6,9.1c-0.9,2-2.2,3.8-3.7,5.4c-1.5,1.9-3.9,3.2-6.2,4C31.5,35.4,30.5,35.4,29.3,35.5" enable-background="new" opacity=".03"/></g><g id="path634"><path id="path621" fill="none" stroke="#4E4242" stroke-linejoin="round" stroke-width="2.129" d="M29.3,35.5c-2.4,0.3-5.7-1-8.1-2.4c-2.2-1.3-4.1-3.6-5.6-5.7c-1.5-2.1-2.6-4.5-3.3-6.9c-0.5-1.8-0.7-4-0.4-5.8 c0.3-1.9,1.1-4,2.3-5.4c1.6-1.9,3.9-3.8,6.2-4.8c2.9-1.2,6.3-1.7,9.4-1.6c2.9,0.1,6.1,0.7,8.6,1.9c2.2,1.1,4.4,3.1,5.6,5.2 c1,1.8,1.3,4.3,1,6.5c-0.3,3.1-1.4,6.2-2.6,9.1c-0.9,2-2.2,3.8-3.7,5.4c-1.5,1.9-3.9,3.2-6.2,4C31.5,35.4,30.5,35.4,29.3,35.5" enable-background="new" opacity=".03"/></g><g id="path633"><path id="path623" fill="none" stroke="#4E4242" stroke-linejoin="round" stroke-width="2.456" d="M29.3,35.5c-2.4,0.3-5.7-1-8.1-2.4c-2.2-1.3-4.1-3.6-5.6-5.7c-1.5-2.1-2.6-4.5-3.3-6.9c-0.5-1.8-0.7-4-0.4-5.8 c0.3-1.9,1.1-4,2.3-5.4c1.6-1.9,3.9-3.8,6.2-4.8c2.9-1.2,6.3-1.7,9.4-1.6c2.9,0.1,6.1,0.7,8.6,1.9c2.2,1.1,4.4,3.1,5.6,5.2 c1,1.8,1.3,4.3,1,6.5c-0.3,3.1-1.4,6.2-2.6,9.1c-0.9,2-2.2,3.8-3.7,5.4c-1.5,1.9-3.9,3.2-6.2,4C31.5,35.4,30.5,35.4,29.3,35.5" enable-background="new" opacity=".03"/></g><g id="path632"><path id="path625" fill="none" stroke="#4E4242" stroke-linejoin="round" stroke-width="2.62" d="M29.3,35.5c-2.4,0.3-5.7-1-8.1-2.4c-2.2-1.3-4.1-3.6-5.6-5.7c-1.5-2.1-2.6-4.5-3.3-6.9c-0.5-1.8-0.7-4-0.4-5.8 c0.3-1.9,1.1-4,2.3-5.4c1.6-1.9,3.9-3.8,6.2-4.8c2.9-1.2,6.3-1.7,9.4-1.6c2.9,0.1,6.1,0.7,8.6,1.9c2.2,1.1,4.4,3.1,5.6,5.2 c1,1.8,1.3,4.3,1,6.5c-0.3,3.1-1.4,6.2-2.6,9.1c-0.9,2-2.2,3.8-3.7,5.4c-1.5,1.9-3.9,3.2-6.2,4C31.5,35.4,30.5,35.4,29.3,35.5" enable-background="new" opacity=".03"/></g><g id="path631"><path id="path627" fill="none" stroke="#4E4242" stroke-linejoin="round" stroke-width="2.784" d="M29.3,35.5c-2.4,0.3-5.7-1-8.1-2.4c-2.2-1.3-4.1-3.6-5.6-5.7c-1.5-2.1-2.6-4.5-3.3-6.9c-0.5-1.8-0.7-4-0.4-5.8 c0.3-1.9,1.1-4,2.3-5.4c1.6-1.9,3.9-3.8,6.2-4.8c2.9-1.2,6.3-1.7,9.4-1.6c2.9,0.1,6.1,0.7,8.6,1.9c2.2,1.1,4.4,3.1,5.6,5.2 c1,1.8,1.3,4.3,1,6.5c-0.3,3.1-1.4,6.2-2.6,9.1c-0.9,2-2.2,3.8-3.7,5.4c-1.5,1.9-3.9,3.2-6.2,4C31.5,35.4,30.5,35.4,29.3,35.5" enable-background="new" opacity=".03"/></g><g id="path630"><path id="path629" fill="none" stroke="#4E4242" stroke-linejoin="round" stroke-width="2.947" d="M29.3,35.5c-2.4,0.3-5.7-1-8.1-2.4c-2.2-1.3-4.1-3.6-5.6-5.7c-1.5-2.1-2.6-4.5-3.3-6.9c-0.5-1.8-0.7-4-0.4-5.8 c0.3-1.9,1.1-4,2.3-5.4c1.6-1.9,3.9-3.8,6.2-4.8c2.9-1.2,6.3-1.7,9.4-1.6c2.9,0.1,6.1,0.7,8.6,1.9c2.2,1.1,4.4,3.1,5.6,5.2 c1,1.8,1.3,4.3,1,6.5c-0.3,3.1-1.4,6.2-2.6,9.1c-0.9,2-2.2,3.8-3.7,5.4c-1.5,1.9-3.9,3.2-6.2,4C31.5,35.4,30.5,35.4,29.3,35.5" enable-background="new" opacity=".03"/></g><g id="g630"><path id="path635" fill="none" stroke="#4E4242" stroke-linejoin="round" stroke-width="3.111" d="M29.3,35.5c-2.4,0.3-5.7-1-8.1-2.4c-2.2-1.3-4.1-3.6-5.6-5.7c-1.5-2.1-2.6-4.5-3.3-6.9c-0.5-1.8-0.7-4-0.4-5.8 c0.3-1.9,1.1-4,2.3-5.4c1.6-1.9,3.9-3.8,6.2-4.8c2.9-1.2,6.3-1.7,9.4-1.6c2.9,0.1,6.1,0.7,8.6,1.9c2.2,1.1,4.4,3.1,5.6,5.2 c1,1.8,1.3,4.3,1,6.5c-0.3,3.1-1.4,6.2-2.6,9.1c-0.9,2-2.2,3.8-3.7,5.4c-1.5,1.9-3.9,3.2-6.2,4C31.5,35.4,30.5,35.4,29.3,35.5" enable-background="new" opacity=".03"/></g><g id="path628"><path id="path638" fill="none" stroke="#4E4242" stroke-linejoin="round" stroke-width="3.275" d="M29.3,35.5c-2.4,0.3-5.7-1-8.1-2.4c-2.2-1.3-4.1-3.6-5.6-5.7c-1.5-2.1-2.6-4.5-3.3-6.9c-0.5-1.8-0.7-4-0.4-5.8 c0.3-1.9,1.1-4,2.3-5.4c1.6-1.9,3.9-3.8,6.2-4.8c2.9-1.2,6.3-1.7,9.4-1.6c2.9,0.1,6.1,0.7,8.6,1.9c2.2,1.1,4.4,3.1,5.6,5.2 c1,1.8,1.3,4.3,1,6.5c-0.3,3.1-1.4,6.2-2.6,9.1c-0.9,2-2.2,3.8-3.7,5.4c-1.5,1.9-3.9,3.2-6.2,4C31.5,35.4,30.5,35.4,29.3,35.5" enable-background="new" opacity=".03"/></g><g id="g639"><path id="path640" fill="none" stroke="#4E4242" stroke-linejoin="round" stroke-width="4.093" d="M29.3,35.5c-2.4,0.3-5.7-1-8.1-2.4c-2.2-1.3-4.1-3.6-5.6-5.7c-1.5-2.1-2.6-4.5-3.3-6.9c-0.5-1.8-0.7-4-0.4-5.8 c0.3-1.9,1.1-4,2.3-5.4c1.6-1.9,3.9-3.8,6.2-4.8c2.9-1.2,6.3-1.7,9.4-1.6c2.9,0.1,6.1,0.7,8.6,1.9c2.2,1.1,4.4,3.1,5.6,5.2 c1,1.8,1.3,4.3,1,6.5c-0.3,3.1-1.4,6.2-2.6,9.1c-0.9,2-2.2,3.8-3.7,5.4c-1.5,1.9-3.9,3.2-6.2,4C31.5,35.4,30.5,35.4,29.3,35.5" enable-background="new" opacity=".03"/></g><g id="path626"><path id="path642" fill="none" stroke="#4E4242" stroke-linejoin="round" stroke-width="4.912" d="M29.3,35.5c-2.4,0.3-5.7-1-8.1-2.4c-2.2-1.3-4.1-3.6-5.6-5.7c-1.5-2.1-2.6-4.5-3.3-6.9c-0.5-1.8-0.7-4-0.4-5.8 c0.3-1.9,1.1-4,2.3-5.4c1.6-1.9,3.9-3.8,6.2-4.8c2.9-1.2,6.3-1.7,9.4-1.6c2.9,0.1,6.1,0.7,8.6,1.9c2.2,1.1,4.4,3.1,5.6,5.2 c1,1.8,1.3,4.3,1,6.5c-0.3,3.1-1.4,6.2-2.6,9.1c-0.9,2-2.2,3.8-3.7,5.4c-1.5,1.9-3.9,3.2-6.2,4C31.5,35.4,30.5,35.4,29.3,35.5" enable-background="new" opacity=".03"/></g><g id="g643"><path id="path648" fill="none" stroke="#4E4242" stroke-linejoin="round" stroke-width="5.731" d="M29.3,35.5c-2.4,0.3-5.7-1-8.1-2.4c-2.2-1.3-4.1-3.6-5.6-5.7c-1.5-2.1-2.6-4.5-3.3-6.9c-0.5-1.8-0.7-4-0.4-5.8 c0.3-1.9,1.1-4,2.3-5.4c1.6-1.9,3.9-3.8,6.2-4.8c2.9-1.2,6.3-1.7,9.4-1.6c2.9,0.1,6.1,0.7,8.6,1.9c2.2,1.1,4.4,3.1,5.6,5.2 c1,1.8,1.3,4.3,1,6.5c-0.3,3.1-1.4,6.2-2.6,9.1c-0.9,2-2.2,3.8-3.7,5.4c-1.5,1.9-3.9,3.2-6.2,4C31.5,35.4,30.5,35.4,29.3,35.5" enable-background="new" opacity=".03"/></g><linearGradient id="path655_1_" x1="-379.205" x2="-379.074" y1="-135.184" y2="-135.184" gradientTransform="matrix(254.103 0 0 183.1892 96368.8359 24779.1523)" gradientUnits="userSpaceOnUse"><stop style="stop-color:#edeae3" id="stop643" offset="0"/><stop style="stop-color:#b5b2aa" id="stop644" offset="1"/></linearGradient><path id="path655" fill="url(#path655_1_)" d="M44.9,14.8c-1.4,9-10.5,11.7-16.8,12c-8.9,0.5-15.8-4.6-16.3-9.8 C11,9.6,18.6,2.9,28.3,2.9C41.1,2.8,45.6,10.4,44.9,14.8z"/><linearGradient id="path597_1_" x1="-379.075" x2="-379.154" y1="-135.554" y2="-135.556" gradientTransform="matrix(255.5962 0 0 166.8831 96934.9922 22646.2305)" gradientUnits="userSpaceOnUse"><stop style="stop-color:#edeae3" id="stop650" offset="0"/><stop style="stop-color:#b5b2aa" id="stop651" offset="1"/></linearGradient><path id="path597" fill="url(#path597_1_)" d="M45,13.7c0.9,4.9-3.7,21.2-15.3,21.8c-12.1,0.7-18.2-14.2-18.1-18.9 C13.7,30.8,43.9,30.3,45,13.7z"/><radialGradient id="path669_1_" cx="-378.821" cy="-135.194" r=".065" fx="-378.821" fy="-135.194" gradientTransform="matrix(89.8545 0 0 141.4218 34057.3086 19135.7344)" gradientUnits="userSpaceOnUse"><stop style="stop-color:#fff" id="stop657" offset="0"/><stop style="stop-color:#ecfbfb" id="stop658" offset="1"/></radialGradient><path id="path669" fill="url(#path669_1_)" d="M19.1,7.1c-6.4,2.4-8.4,16.4,5.3,18.5C8.4,24,10.9,9.9,19.1,7.1z"/><radialGradient id="path676_1_" cx="-380.487" cy="-135.141" r=".066" fx="-380.487" fy="-135.141" gradientTransform="matrix(81.1539 0 0 157.3318 30916.9688 21276.5234)" gradientUnits="userSpaceOnUse"><stop style="stop-color:#fff" id="stop664" offset="0"/><stop style="stop-color:#ecfbfb" id="stop665" offset="1"/></radialGradient><path id="path676" fill="url(#path676_1_)" d="M35.4,4.3c6.7,2.6,15.4,14.3-1.7,20.6C50.7,19.5,44.3,7.1,35.4,4.3z"/><radialGradient id="path651_1_" cx="-382.462" cy="-134.179" r=".12" fx="-382.462" fy="-134.179" gradientTransform="matrix(36.9857 0 0 47.0892 14183.6934 6327.5166)" gradientUnits="userSpaceOnUse"><stop style="stop-color:#fff" id="stop671" offset="0"/><stop style="stop-color:#ecfbfb" id="stop672" offset="1"/></radialGradient><path id="path651" fill="url(#path651_1_)" d="M41.7,14.6c-2.1-2.7-2.4-3-4.7-4.9c0.6-0.5,2.2,1.2,2.4,0.8 c0.1-0.4-1.3-1.9-1-2.1C39.1,8.2,42.5,14.1,41.7,14.6z"/><radialGradient id="path639_1_" cx="-379.209" cy="-135.179" r=".108" fx="-379.209" fy="-135.179" gradientTransform="matrix(201.771 0 0 163.2772 76536.0859 22082.918)" gradientUnits="userSpaceOnUse"><stop style="stop-color:#9f9f9f" id="stop678" offset="0"/><stop style="stop-color:#6a6a6a" id="stop679" offset=".309"/><stop style="stop-color:#1e1e1e" id="stop680" offset=".782"/><stop style="stop-color:#000" id="stop681" offset="1"/></radialGradient><path id="path639" fill="url(#path639_1_)" d="M41.1,20.5c-4.3,6.1-24.3,8.1-26.4-2.5C26.3-4.3,41.2,3,41.1,20.5z" enable-background="new" opacity=".3"/><radialGradient id="path649_1_" cx="-379.36" cy="-135.376" r=".253" fx="-379.36" fy="-135.376" gradientTransform="matrix(122.692 0 0 56.5346 46571.2734 7683.4658)" gradientUnits="userSpaceOnUse"><stop style="stop-color:#000" id="stop691" offset="0"/><stop style="stop-color:#000001" id="stop692" offset="1"/></radialGradient><path id="path649" fill="url(#path649_1_)" d="M35.4,24.1c-1.3,0.7-4.4,1.2-7.6,1.2c-3.2,0.1-6.4-0.2-7.9-1.1c-1-3.8,3.6-6.4,8.2-6.3C32.8,18,37.4,20.8,35.4,24.1z" enable-background="new" opacity=".4"/><radialGradient id="path650_1_" cx="-379.565" cy="-135.56" r=".065" fx="-379.565" fy="-135.56" gradientTransform="matrix(32.3352 0 0 50.2699 12296.3145 6836.4102)" gradientUnits="userSpaceOnUse"><stop style="stop-color:#fff" id="stop698" offset="0"/><stop style="stop-color:#ecfbfb" id="stop699" offset="1"/></radialGradient><path id="path650" fill="url(#path650_1_)" d="M25.1,18.5c-3.2,1.2-3.5,5.1-1.9,6.6c-0.3,0-0.9,0-2-0.4 C20.3,22.5,21,19.9,25.1,18.5z"/><g id="path624"><path id="path708" fill="none" stroke="#4E4242" stroke-linejoin="round" stroke-width=".426" d="M29.3,35.5c-2.4,0.3-5.7-1-8.1-2.4c-2.2-1.3-4.1-3.6-5.6-5.7c-1.5-2.1-2.6-4.5-3.3-6.9c-0.5-1.8-0.7-4-0.4-5.8 c0.3-1.9,1.1-4,2.3-5.4c1.6-1.9,3.9-3.8,6.2-4.8c2.9-1.2,6.3-1.7,9.4-1.6c2.9,0.1,6.1,0.7,8.6,1.9c2.2,1.1,4.4,3.1,5.6,5.2 c1,1.8,1.3,4.3,1,6.5c-0.3,3.1-1.4,6.2-2.6,9.1c-0.9,2-2.2,3.8-3.7,5.4c-1.5,1.9-3.9,3.2-6.2,4C31.5,35.4,30.5,35.4,29.3,35.5" enable-background="new" opacity=".872"/></g><g id="g709"><path id="path710" fill="none" stroke="#244242" stroke-linejoin="round" stroke-width="1.474" d="M29.3,35.5c-2.4,0.3-5.7-1-8.1-2.4c-2.2-1.3-4.1-3.6-5.6-5.7c-1.5-2.1-2.6-4.5-3.3-6.9c-0.5-1.8-0.7-4-0.4-5.8 c0.3-1.9,1.1-4,2.3-5.4c1.6-1.9,3.9-3.8,6.2-4.8c2.9-1.2,6.3-1.7,9.4-1.6c2.9,0.1,6.1,0.7,8.6,1.9c2.2,1.1,4.4,3.1,5.6,5.2 c1,1.8,1.3,4.3,1,6.5c-0.3,3.1-1.4,6.2-2.6,9.1c-0.9,2-2.2,3.8-3.7,5.4c-1.5,1.9-3.9,3.2-6.2,4C31.5,35.4,30.5,35.4,29.3,35.5" enable-background="new" opacity=".19"/></g><linearGradient id="path641_1_" x1="-379.205" x2="-379.074" y1="-135.554" y2="-135.554" gradientTransform="matrix(255.5952 0 0 166.8837 96934.5547 22646.3438)" gradientUnits="userSpaceOnUse"><stop style="stop-color:#585858" id="stop709" offset="0"/><stop style="stop-color:#fff" id="stop710" offset="1"/></linearGradient><path id="path641" fill="url(#path641_1_)" d="M45,13.7c0.9,4.9-3.7,21.2-15.3,21.8c-12.1,0.7-18.2-14.2-18.1-18.9 C13.7,30.8,43.9,30.3,45,13.7z"/></g><rect id="rect715" width="48" height="48" y="2.8" fill="none"/></g></svg>