<svg xmlns="http://www.w3.org/2000/svg" xmlns:xlink="http://www.w3.org/1999/xlink" id="svg602" width="48" height="48.7" enable-background="new 0 0 48 48.7" overflow="visible" viewBox="0 0 48 48.7" xml:space="preserve"><g id="Layer_1"><path id="path597_5_" fill="none" stroke="#474000" stroke-width="1.882" d="M5.6,20.2c0-10.7,8-19.3,17.8-19.3c9.8,0,18.4,8.1,18.4,18.7c0,10.7-8.6,19.9-18.4,19.9C13.6,39.5,5.6,30.9,5.6,20.2z" enable-background="new" opacity=".15"/><path id="path597_4_" fill="none" stroke="#474000" stroke-width=".941" d="M5.6,20.2c0-10.7,8-19.3,17.8-19.3c9.8,0,18.4,8.1,18.4,18.7c0,10.7-8.6,19.9-18.4,19.9C13.6,39.5,5.6,30.9,5.6,20.2z" enable-background="new" opacity=".2"/><path id="path597_3_" fill="none" stroke="#474000" stroke-width=".47" d="M5.6,20.2c0-10.7,8-19.3,17.8-19.3c9.8,0,18.4,8.1,18.4,18.7c0,10.7-8.6,19.9-18.4,19.9C13.6,39.5,5.6,30.9,5.6,20.2z" enable-background="new" opacity=".3"/><radialGradient id="path700_1_" cx="-679.571" cy="-.74" r=".064" fx="-679.571" fy="-.74" gradientTransform="matrix(310.7065 0 0 144.1183 211172.2188 149.3426)" gradientUnits="userSpaceOnUse"><stop style="stop-color:#261700" id="stop610" offset="0"/><stop style="stop-color:#d2d2d2" id="stop611" offset="1"/></radialGradient><path id="path700" fill="url(#path700_1_)" d="M37.9,31.8c6.5,4.5,6,10.6-1.9,14.3c-7.9,3.7-19.5,3.1-25.9-1.5c-5.5-3.8-5.7-9.1-0.5-13.1c3.4,4.7,6.2,6.3,14,7.3 C30.1,38.7,34.3,35.8,37.9,31.8z" enable-background="new" opacity=".3"/><radialGradient id="path577_1_" cx="-638.496" cy="42.772" r="41.557" fx="-638.496" fy="42.772" gradientTransform="matrix(298.9032 0 0 316.3969 203151.1563 -98.4275)" gradientUnits="userSpaceOnUse"><stop style="stop-color:#ff6f00" id="stop617" offset="0"/><stop style="stop-color:#ff0" id="stop618" offset="1"/></radialGradient><circle id="path577" cx="23.9" cy="20.4" r="17.8" fill="url(#path577_1_)"/><linearGradient id="path597_1_" x1="-679.565" x2="-679.567" y1=".318" y2=".437" gradientTransform="matrix(303.6933 0 0 316.3967 206403.3125 -98.1642)" gradientUnits="userSpaceOnUse"><stop style="stop-color:#ff6500" id="stop624" offset="0"/><stop style="stop-color:#ff0" id="stop625" offset="1"/></linearGradient><path id="path597" fill="url(#path597_1_)" d="M5.6,20.2c0-10.7,8-19.3,17.8-19.3c9.9,0,18.4,8,18.4,18.7c0,10.7-8.6,19.9-18.4,19.9C13.6,39.5,5.6,30.9,5.6,20.2z" enable-background="new" opacity=".75"/><radialGradient id="path597_6_" cx="-486.406" cy="426.746" r="20.235" fx="-486.406" fy="426.746" gradientTransform="matrix(1 0 0 -1 509.7773 427.6934)" gradientUnits="userSpaceOnUse"><stop style="stop-color:#fff" id="stop631" offset="0"/><stop style="stop-color:#fffefa" id="stop632" offset=".105"/><stop style="stop-color:#fffbec" id="stop633" offset=".228"/><stop style="stop-color:#fff7d4" id="stop634" offset=".362"/><stop style="stop-color:#fff1b2" id="stop635" offset=".502"/><stop style="stop-color:#ffe988" id="stop636" offset=".647"/><stop style="stop-color:#ffdf53" id="stop637" offset=".798"/><stop style="stop-color:#ffd316" id="stop638" offset=".949"/><stop style="stop-color:#ffcf00" id="stop639" offset="1"/></radialGradient><path id="path597_2_" fill="url(#path597_6_)" d="M12.2,7.8c0-3.8,5-6.9,11.1-6.9c6.1,0,11.4,2.9,11.4,6.7C34.7,11.4,12.2,11.6,12.2,7.8z" enable-background="new" opacity=".75"/><rect id="rect662" width="48" height="48" y=".7" fill="none"/><g id="g659"><g id="path643" nodetypes="cs"><path id="path661" fill="none" stroke="#000" stroke-linecap="round" stroke-width="3" d="M11.4,28.8c4.4,8.8,18.9,8.5,24,0.3" opacity=".033"/></g><path id="path639" fill="none" stroke="#795000" stroke-linecap="round" stroke-width="2" d="M11.4,28.8c4.4,8.6,18.9,8.3,24,0.3" nodetypes="cs"/><g id="path640" nodetypes="cs"><path id="path664" fill="none" stroke="#000" stroke-linecap="round" stroke-width="3.509" d="M11.2,28.8c4.4,8.8,18.9,8.5,24,0.3" opacity=".033"/></g><g id="path641" nodetypes="cs"><path id="path666" fill="none" stroke="#000" stroke-linecap="round" stroke-width="2.729" d="M11.2,28.5c4.4,8.8,18.9,8.5,24,0.3" opacity=".033"/></g><g id="path642" nodetypes="cs"><path id="path668" fill="none" stroke="#000" stroke-linecap="round" stroke-width="4.632" d="M11.2,28.6c4.4,8.8,18.9,8.5,24,0.3" opacity=".033"/></g></g><g id="g669"><radialGradient id="path630_1_" cx="-166.675" cy="427.266" r=".094" fx="-166.675" fy="427.266" gradientTransform="matrix(-61.651 0 0 -88.1742 -10244.9775 37693.1602)" gradientUnits="userSpaceOnUse"><stop style="stop-color:#dee2e7" id="stop671" offset="0"/><stop style="stop-color:#fff" id="stop672" offset="1"/></radialGradient><path id="path630" cx="50.247" cy="478.41" fill="url(#path630_1_)" stroke="#7C5202" stroke-width=".578" d="M27.6,18c0-3.4,1.9-6.2,4.3-6.2c2.4,0,4.3,2.8,4.3,6.2c0,0,0,0,0,0c0,3.4-1.9,6.2-4.3,6.2C29.6,24.2,27.6,21.4,27.6,18 C27.6,18,27.6,18,27.6,18z" rx="24.525" ry="34.993" type="arc"/><g id="path631" cx="50.097" cy="476.765" rx="28.862" ry="41.424" type="arc"><path id="path678" fill="none" stroke="#000" stroke-width=".525" d="M27,17.9 c0-3.8,2.2-6.8,5-6.8c2.8,0,5,3,5,6.8c0,0,0,0,0,0c0,3.8-2.2,6.8-5,6.8C29.2,24.7,27,21.7,27,17.9C27,17.9,27,17.9,27,17.9z" opacity=".038"/></g><g id="path632" cx="50.097" cy="476.765" rx="28.862" ry="41.424" type="arc"><path id="path680" fill="none" stroke="#000" stroke-width="1.826" d="M27,18 c0-3.7,2.2-6.8,5-6.8c2.8,0,5,3,5,6.8c0,0,0,0,0,0c0,3.7-2.2,6.8-5,6.8C29.2,24.7,27,21.7,27,18C27,18,27,18,27,18z" opacity=".014"/></g><g id="path633" cx="50.097" cy="476.765" rx="28.862" ry="41.424" type="arc"><path id="path682" fill="none" stroke="#000" stroke-width="1.154" d="M27,18 c0-3.7,2.2-6.8,5-6.8c2.8,0,5,3,5,6.8c0,0,0,0,0,0c0,3.7-2.2,6.8-5,6.8C29.2,24.7,27,21.7,27,18C27,18,27,18,27,18z" opacity=".014"/></g><g id="path634" cx="50.097" cy="476.765" rx="28.862" ry="41.424" type="arc"><path id="path684" fill="none" stroke="#000" stroke-width=".397" d="M27,18 c0-3.7,2.2-6.8,5-6.8c2.8,0,5,3,5,6.8c0,0,0,0,0,0c0,3.7-2.2,6.8-5,6.8C29.2,24.7,27,21.7,27,18C27,18,27,18,27,18z" opacity=".014"/></g><g id="path635" cx="50.097" cy="476.765" rx="28.862" ry="41.424" type="arc"><path id="path686" fill="none" stroke="#000" stroke-width=".2" d="M27.2,18 c0-3.7,2.2-6.7,4.8-6.7c2.7,0,4.8,3,4.8,6.7c0,0,0,0,0,0c0,3.7-2.2,6.7-4.8,6.7C29.3,24.6,27.2,21.6,27.2,18 C27.2,18,27.2,18,27.2,18z" opacity=".152"/></g><radialGradient id="path637_1_" cx="-165.817" cy="427.362" r=".087" fx="-165.817" fy="427.362" gradientTransform="matrix(-45.0862 0 0 -56.2866 -7443.6206 24070.8047)" gradientUnits="userSpaceOnUse"><stop style="stop-color:#000082" id="stop688" offset="0"/><stop style="stop-color:#000" id="stop689" offset="1"/></radialGradient><path id="path637" cx="61.649" cy="495.829" fill="url(#path637_1_)" d="M28.1,18c0-2.2,1.4-3.9,3.2-3.9c1.7,0,3.2,1.8,3.2,3.9c0,0,0,0,0,0c0,2.2-1.4,3.9-3.2,3.9C29.5,22,28.1,20.2,28.1,18 C28.1,18,28.1,18,28.1,18z" rx="10.469" ry="10.892" type="arc"/><radialGradient id="path650_1_" cx="-170.373" cy="427.211" r=".094" fx="-170.373" fy="427.211" gradientTransform="matrix(61.651 0 0 -88.1742 10519.126 37687.5977)" gradientUnits="userSpaceOnUse"><stop style="stop-color:#dee2e7" id="stop695" offset="0"/><stop style="stop-color:#fff" id="stop696" offset="1"/></radialGradient><path id="path650" cx="50.247" cy="478.41" fill="url(#path650_1_)" stroke="#7C3902" stroke-width=".578" d="M18.6,17.2c0-3.4-1.9-6.2-4.3-6.2c-2.4,0-4.3,2.8-4.3,6.2c0,0,0,0,0,0c0,3.4,1.9,6.2,4.3,6.2C16.6,23.4,18.6,20.6,18.6,17.2 C18.6,17.2,18.6,17.2,18.6,17.2z" rx="24.525" ry="34.993" type="arc"/><g id="path651" cx="50.097" cy="476.765" rx="28.862" ry="41.424" type="arc"><path id="path702" fill="none" stroke="#000" stroke-width=".525" d="M19.3,17.1 c0-3.8-2.2-6.8-5-6.8c-2.8,0-5,3-5,6.8c0,0,0,0,0,0c0,3.8,2.2,6.8,5,6.8C17,24,19.3,20.9,19.3,17.1 C19.3,17.2,19.3,17.2,19.3,17.1z" opacity=".038"/></g><g id="path652" cx="50.097" cy="476.765" rx="28.862" ry="41.424" type="arc"><path id="path704" fill="none" stroke="#000" stroke-width="1.826" d="M19.3,17.2 c0-3.7-2.2-6.8-5-6.8c-2.8,0-5,3-5,6.8c0,0,0,0,0,0c0,3.7,2.2,6.8,5,6.8C17,24,19.3,20.9,19.3,17.2 C19.3,17.2,19.3,17.2,19.3,17.2z" opacity=".014"/></g><g id="path653" cx="50.097" cy="476.765" rx="28.862" ry="41.424" type="arc"><path id="path706" fill="none" stroke="#000" stroke-width="1.154" d="M19.3,17.2 c0-3.7-2.2-6.8-5-6.8c-2.8,0-5,3-5,6.8c0,0,0,0,0,0c0,3.7,2.2,6.8,5,6.8C17,24,19.3,20.9,19.3,17.2 C19.3,17.2,19.3,17.2,19.3,17.2z" opacity=".014"/></g><g id="path654" cx="50.097" cy="476.765" rx="28.862" ry="41.424" type="arc"><path id="path708" fill="none" stroke="#000" stroke-width=".397" d="M19.3,17.2 c0-3.7-2.2-6.8-5-6.8c-2.8,0-5,3-5,6.8c0,0,0,0,0,0c0,3.7,2.2,6.8,5,6.8C17,24,19.3,20.9,19.3,17.2 C19.3,17.2,19.3,17.2,19.3,17.2z" opacity=".014"/></g><g id="path655" cx="50.097" cy="476.765" rx="28.862" ry="41.424" type="arc"><path id="path710" fill="none" stroke="#000" stroke-width=".2" d="M19,17.2 c0-3.7-2.2-6.7-4.8-6.7c-2.7,0-4.8,3-4.8,6.7c0,0,0,0,0,0c0,3.7,2.2,6.7,4.8,6.7C16.9,23.9,19,20.9,19,17.2 C19,17.2,19,17.2,19,17.2z" opacity=".152"/></g><radialGradient id="path656_1_" cx="-170.872" cy="427.309" r=".087" fx="-170.872" fy="427.309" gradientTransform="matrix(45.0862 0 0 -56.2866 7717.769 24067.2109)" gradientUnits="userSpaceOnUse"><stop style="stop-color:#000082" id="stop712" offset="0"/><stop style="stop-color:#000" id="stop713" offset="1"/></radialGradient><path id="path656" cx="61.649" cy="495.829" fill="url(#path656_1_)" d="M18.1,17.5c0-2.2-1.4-3.9-3.2-3.9c-1.7,0-3.2,1.8-3.2,3.9c0,0,0,0,0,0c0,2.2,1.4,3.9,3.2,3.9C16.7,21.5,18.1,19.7,18.1,17.5 C18.1,17.5,18.1,17.5,18.1,17.5z" rx="10.469" ry="10.892" type="arc"/><circle id="path646" cx="13.6" cy="17.7" r="6.5" fill="none" stroke="#000" stroke-width="2.1" rx="89.727" ry="87.334" type="arc"/><linearGradient id="path644_1_" x1="-170.039" x2="-169.922" y1="427.247" y2="427.138" gradientTransform="matrix(91.6887 0 0 -92.823 15602.8506 39674.1641)" gradientUnits="userSpaceOnUse"><stop style="stop-color:#fff" id="stop720" offset="0"/><stop style="stop-color:#f5ffff" id="stop721" offset="1"/></linearGradient><circle id="path644" cx="13.5" cy="17.3" r="6.4" fill="url(#path644_1_)" opacity=".4" rx="89.727" ry="87.334" type="arc"/><circle id="path645" cx="32.8" cy="17.7" r="6.5" fill="none" stroke="#000" stroke-width="2.1" rx="89.727" ry="87.334" type="arc"/><linearGradient id="path647_1_" x1="-171.326" x2="-171.214" y1="427.246" y2="427.141" gradientTransform="matrix(91.6887 0 0 -92.823 15740.1631 39674.1641)" gradientUnits="userSpaceOnUse"><stop style="stop-color:#fff" id="stop728" offset="0"/><stop style="stop-color:#f5ffff" id="stop729" offset="1"/></linearGradient><circle id="path647" cx="32.7" cy="17.3" r="6.2" fill="url(#path647_1_)" opacity=".4" rx="89.727" ry="87.334" type="arc"/><path id="path648" fill="none" stroke="#000" stroke-linecap="round" stroke-width="1.43" d="M19.8,14.4c2.1-0.8,5.1-0.7,7,0.2" nodetypes="cc"/><radialGradient id="path649_1_" cx="-169.424" cy="428.711" r="4.018" fx="-169.424" fy="428.711" gradientUnits="userSpaceOnUse"><stop style="stop-color:#fff" id="stop736" offset="0"/><stop style="stop-color:#f5ffff" id="stop737" offset="1"/></radialGradient><path id="path649" fill="none" stroke="url(#path649_1_)" stroke-linecap="round" stroke-width="1.027" d="M19.8,14.5c2.2-0.9,5.2-0.9,7.1,0.3" nodetypes="cc"/><path id="path657" fill="none" stroke="#000" stroke-linecap="round" stroke-width="1.214" d="M39.4,14.4c0.9-1.9,2.7-3.8,4.2-4.1" nodetypes="cc"/><path id="path658" fill="none" stroke="url(#path649_1_)" stroke-linecap="round" stroke-width=".872" d="M39.4,14.5c0.9-2.1,2.7-3.9,4.3-4.1" nodetypes="cc"/><path id="path659" fill="none" stroke="#000" stroke-linecap="round" stroke-width="1.145" d="M7.1,14.4c-0.8-1.9-2.4-3.8-3.7-4.1" nodetypes="cc"/><path id="path660" fill="none" stroke="url(#path649_1_)" stroke-linecap="round" stroke-width=".823" d="M7.1,14.5c-0.8-2.1-2.4-3.9-3.8-4.1" nodetypes="cc"/></g></g></svg>