<svg xmlns="http://www.w3.org/2000/svg" xmlns:xlink="http://www.w3.org/1999/xlink" id="svg602" width="52.7" height="54" enable-background="new 0 0 52.7 54" overflow="visible" viewBox="0 0 52.7 54" xml:space="preserve"><g id="Layer_1"><g id="g606"><g id="path582" nodetypes="csscssc"><path id="path608" fill="none" stroke="#000" stroke-linejoin="round" stroke-width="4.526" d="M24.5,10.3c2.5-4.9,7.5-7.4,13.2-7.1c6.1,0.4,13.1,8,11.5,16.8c-1.5,8.6-9.8,24.2-23.8,30.7c-1.7-8.7-12.6-13.7-18.6-19.5 c-5.8-5.7-3.8-15.5-0.3-19.4C9.9,8.1,18.2,5,24.5,10.3z" opacity=".03"/></g><g id="path577" nodetypes="csscssc"><path id="path610" fill="none" stroke="#000" stroke-linejoin="round" stroke-width="6.482" d="M24.5,10.3c2.5-4.9,7.5-7.4,13.2-7.1c6.1,0.4,13.1,8,11.5,16.8c-1.5,8.6-9.8,24.2-23.8,30.7c-1.7-8.7-12.6-13.7-18.6-19.5 c-5.8-5.7-3.8-15.5-0.3-19.4C9.9,8.1,18.2,5,24.5,10.3z" opacity=".03"/></g><linearGradient id="path564_1_" x1="-190.326" x2="-190.302" y1="634.477" y2="634.378" gradientTransform="matrix(470.1058 0 0 -483.0744 89497.5625 306511.375)" gradientUnits="userSpaceOnUse"><stop style="stop-color:red" id="stop612" offset="0"/><stop style="stop-color:#c50000" id="stop613" offset="1"/></linearGradient><path id="path564" fill="url(#path564_1_)" stroke="#C90000" stroke-width="1.906" d="M24.5,10.3 c2.5-4.9,7.5-7.4,13.2-7.1c6.1,0.4,13.1,8,11.5,16.8c-1.5,8.6-9.8,24.2-23.8,30.7c-1.7-8.7-12.6-13.7-18.6-19.5 c-5.8-5.7-3.8-15.5-0.3-19.4C9.9,8.1,18.2,5,24.5,10.3z" nodetypes="csscssc"/><radialGradient id="path575_1_" cx="39.898" cy="4.523" r="28.298" fx="39.898" fy="4.523" gradientUnits="userSpaceOnUse"><stop style="stop-color:#fff" id="stop619" offset="0"/><stop style="stop-color:#ff8383" id="stop620" offset=".462"/><stop style="stop-color:#ff2525" id="stop621" offset=".834"/><stop style="stop-color:red" id="stop622" offset="1"/></radialGradient><path id="path575" fill="url(#path575_1_)" d="M24.5,10.3c2.5-4.9,7.5-7.4,13.2-7.1 c6.1,0.4,13.1,8,11.5,16.8c-1.5,8.6-9.8,24.2-23.8,30.7c-1.7-8.7-12.6-13.7-18.6-19.5c-5.8-5.7-3.8-15.5-0.3-19.4 C9.9,8.1,18.2,5,24.5,10.3z" nodetypes="csscssc" opacity=".5"/><radialGradient id="path570_1_" cx="-190.287" cy="634.468" r=".08" fx="-190.287" fy="634.468" gradientTransform="matrix(470.1058 0 0 -284.6221 89497.5625 180592.0469)" gradientUnits="userSpaceOnUse"><stop style="stop-color:#fff" id="stop628" offset="0"/><stop style="stop-color:#fff6f6" id="stop629" offset=".032"/><stop style="stop-color:#ffbcbc" id="stop630" offset=".268"/><stop style="stop-color:#ff9292" id="stop631" offset=".469"/><stop style="stop-color:#ff7878" id="stop632" offset=".626"/><stop style="stop-color:#ff6e6e" id="stop633" offset=".719"/><stop style="stop-color:#ff5252" id="stop634" offset=".783"/><stop style="stop-color:#ff1d1d" id="stop635" offset=".888"/><stop style="stop-color:red" id="stop636" offset="1"/></radialGradient><path id="path570" fill="url(#path570_1_)" d="M24.5,10.3 c2.5-4.9,7.5-7.4,13.2-7.1c6.1,0.4,13.1,8,11.5,16.8c-6.2-4.2-13.5-4-23.3-1.9C17.1,20,10.2,24.8,6.9,31.2 c-5.8-5.7-3.8-15.5-0.3-19.4C9.9,8.1,18.2,5,24.5,10.3z" nodetypes="cscscsc" opacity=".58"/></g><rect id="rect645" width="48" height="48" x="2.4" y="3" fill="none"/></g></svg>