<svg xmlns="http://www.w3.org/2000/svg" xmlns:xlink="http://www.w3.org/1999/xlink" id="svg602" width="53.2" height="48" enable-background="new 0 0 53.2 48" overflow="visible" viewBox="0 0 53.2 48" xml:space="preserve"><g id="Layer_1"><g id="g606"><g id="path603" nodetypes="cccc"><polyline id="polyline608" fill="none" stroke="#001212" stroke-linecap="round" stroke-linejoin="round" stroke-width="3.47" points="20.5 45 26.3 27.5 19.2 22.7 19.7 10.9" opacity=".043"/></g><g id="path602" nodetypes="cccc"><polyline id="polyline610" fill="none" stroke="#001212" stroke-linecap="round" stroke-linejoin="round" stroke-width="3.94" points="20.5 45 26.3 27.5 19.2 22.7 19.7 10.9" opacity=".043"/></g><g id="path591" nodetypes="csscssc"><path id="path612" fill="none" stroke="#000" stroke-linejoin="round" stroke-width="3.68" d="M19.9,11.7c2-4,6.1-6,10.8-5.7c5,0.3,10.6,6.5,9.3,13.7c-1.3,7-8,19.7-19.4,25c-1.4-7-10.2-11.1-15.1-15.9 C0.9,24,2.5,16.1,5.3,12.9C8.1,9.9,14.8,7.4,19.9,11.7z" opacity=".03"/></g><g id="path604" nodetypes="cccc"><polyline id="polyline614" fill="none" stroke="#001212" stroke-linecap="round" stroke-linejoin="round" stroke-width="3.04" points="20.5 45 26.3 27.5 19.2 22.7 19.7 10.9" opacity=".043"/></g><g id="path595" nodetypes="csscssc"><path id="path616" fill="none" stroke="#000" stroke-linejoin="round" stroke-width="5.27" d="M19.9,11.7c2-4,6.1-6,10.8-5.7c5,0.3,10.6,6.5,9.3,13.7c-1.3,7-8,19.7-19.4,25c-1.4-7-10.2-11.1-15.1-15.9 C0.9,24,2.5,16.1,5.3,12.9C8.1,9.9,14.8,7.4,19.9,11.7z" opacity=".03"/></g><linearGradient id="path596_1_" x1="-154.313" x2="-154.293" y1="497.399" y2="497.319" gradientTransform="matrix(470.1057 0 0 -483.0744 72562.6953 240293.875)" gradientUnits="userSpaceOnUse"><stop style="stop-color:red" id="stop618" offset="0"/><stop style="stop-color:#c50000" id="stop619" offset="1"/></linearGradient><path id="path596" fill="url(#path596_1_)" stroke="#C90000" stroke-width="1.55" d="M19.9,11.7 c2-4,6.1-6,10.8-5.7c5,0.3,10.6,6.5,9.3,13.7c-1.3,7-8,19.7-19.4,25c-1.4-7-10.2-11.1-15.1-15.9C0.9,24,2.5,16.1,5.3,12.9 C8.1,9.9,14.8,7.4,19.9,11.7z" nodetypes="csscssc"/><radialGradient id="path597_1_" cx="14.782" cy="11.792" r="13.035" fx="14.782" fy="11.792" gradientUnits="userSpaceOnUse"><stop style="stop-color:#fff" id="stop625" offset="0"/><stop style="stop-color:#ff1e00" id="stop626" offset="1"/></radialGradient><path id="path597" fill="url(#path597_1_)" d="M19.9,11.7c2-4,6.1-6,10.8-5.7 c5,0.3,10.6,6.5,9.3,13.7c-5-3.4-11-3.3-19-1.6c-7.2,1.5-12.8,5.4-15.5,10.7C0.9,24,2.5,16.1,5.3,12.9 C8.1,9.9,14.8,7.4,19.9,11.7z" nodetypes="cscscsc" opacity=".5"/><path id="path600" fill="#FFF" d="M19.9,10l-0.5,12.7l7,4.9l-5.7,17.1l-0.2,0.9l16.7-4.7 c0,0,18.7-29.2-4.9-38.4L19.1,4.3L19.9,10z" nodetypes="ccccccccc"/><g id="path578" nodetypes="csscssc"><linearGradient id="XMLID_1_" x1="-155.213" x2="-155.193" y1="497.815" y2="497.734" gradientTransform="matrix(300.9082 0 0 -483.0743 46745.9805 240512.6094)" gradientUnits="userSpaceOnUse"><stop style="stop-color:red" id="stop634" offset="0"/><stop style="stop-color:#c50000" id="stop635" offset="1"/></linearGradient><path id="path639" fill="url(#XMLID_1_)" d="M30.2,10.3c2-4,6.1-6,10.8-5.7c5,0.3,10.6,6.5,9.3,13.7c-1.3,7-8,19.7-19.4,25 c-1.4-7-2.1-14.4-3.5-21C26.4,15.3,27.7,22,27,18C26.6,14,25.1,6,30.2,10.3z"/><path id="path640" fill="none" stroke="#000" stroke-linejoin="round" stroke-width="4.67" d="M30.2,10.3c2-4,6.1-6,10.8-5.7c5,0.3,10.6,6.5,9.3,13.7c-1.3,7-8,19.7-19.4,25c-1.4-7-2.1-14.4-3.5-21C26.4,15.3,27.7,22,27,18 C26.6,14,25.1,6,30.2,10.3z" opacity=".03"/></g><g id="path577" nodetypes="csscssc"><path id="path642" fill="none" stroke="#000" stroke-linejoin="round" stroke-width="5.27" d="M30.2,10.3c2-4,6.1-6,10.8-5.7c5,0.3,10.6,6.5,9.3,13.7c-1.3,7-8,19.7-19.4,25c-1.4-7-2.6-17-3.7-23.7c-0.6-5.2,0.5-5.8,3.3-9 C33.2,7.4,25.1,6,30.2,10.3z" opacity=".03"/></g><linearGradient id="path564_1_" x1="-155.032" x2="-155.012" y1="497.368" y2="497.287" gradientTransform="matrix(303.3149 0 0 -483.0743 47060.8594 240276.8594)" gradientUnits="userSpaceOnUse"><stop style="stop-color:#ff1e00" id="stop644" offset="0"/><stop style="stop-color:#c50000" id="stop645" offset="1"/></linearGradient><path id="path564" fill="url(#path564_1_)" stroke="#C90000" stroke-width="1.55" d="M30.2,10.3 c2-4,6.1-6,10.8-5.7c5,0.3,10.6,6.5,9.3,13.7c-1.3,7-8,19.7-19.4,25c-1.4-7-3-13.1-3.5-19.9c-0.1-5.2-2.8-2.6,0-5.8 C30.3,14.5,25.1,6,30.2,10.3z" nodetypes="csscssc"/><radialGradient id="path570_1_" cx="-155.036" cy="497.035" r=".04" fx="-155.036" fy="497.035" gradientTransform="matrix(299.5481 0 0 -230.4812 46481.9102 114561.9844)" gradientUnits="userSpaceOnUse"><stop style="stop-color:#fff" id="stop651" offset="0"/><stop style="stop-color:#fffcfc" id="stop652" offset=".23"/><stop style="stop-color:#fff4f4" id="stop653" offset=".366"/><stop style="stop-color:#ffe6e6" id="stop654" offset=".478"/><stop style="stop-color:#ffd2d2" id="stop655" offset=".577"/><stop style="stop-color:#ffb8b8" id="stop656" offset=".667"/><stop style="stop-color:#ff9797" id="stop657" offset=".751"/><stop style="stop-color:#ff7171" id="stop658" offset=".83"/><stop style="stop-color:#ff4545" id="stop659" offset=".905"/><stop style="stop-color:#ff1414" id="stop660" offset=".974"/><stop style="stop-color:red" id="stop661" offset="1"/></radialGradient><path id="path570" fill="url(#path570_1_)" d="M30.2,10.3c2-4,6.1-6,10.8-5.7 c5,0.3,10.6,6.5,9.3,13.7c-5-3.4-11-3.3-19-1.6c-7.2,1.5-1.1,1-3.9,6.3c-0.3-6-2.3-2.8,0.6-6.1C30.8,13.9,25.1,6,30.2,10.3z" nodetypes="cscscsc" opacity=".31"/><linearGradient id="path575_1_" x1="38.491" x2="35.531" y1="4.678" y2="41.398" gradientUnits="userSpaceOnUse"><stop style="stop-color:#fff" id="stop667" offset="0"/><stop style="stop-color:#ff790a" id="stop668" offset="1"/></linearGradient><path id="path575" fill="url(#path575_1_)" d="M30.2,10.3c2-4,6.1-6,10.8-5.7 c5,0.3,10.6,6.5,9.3,13.7c-1.3,7-8,19.7-19.4,25c-1.4-7,1.4-14.7-3.5-19.4c-4.7-4.7-3.6-4.7-0.8-8C29.4,12.9,25.1,6,30.2,10.3z" nodetypes="csscssc" opacity=".15"/><path id="path599" fill="#FFF" d="M30.1,7.4l-0.5,12.7l7,4.9l-6.2,18.5l-0.2,1.1l-5.1-2.3 c2.9-9.7,3.2-9.4-4.4-27.3c5.1-10.8-0.9-5,1.4-6c2.6-0.1,3,1.6,2.4-0.4l1.8-2.4L30.1,7.4z" nodetypes="ccccccccccc"/><g id="path601" nodetypes="cccc"><polyline id="polyline675" fill="none" stroke="#BF1212" stroke-linecap="round" stroke-linejoin="round" stroke-width=".8" points="20.5 45 26.3 27.5 19.2 22.7 19.7 10.9" opacity=".939"/></g><g id="path605" nodetypes="cccc"><polyline id="polyline677" fill="none" stroke="#001212" stroke-linecap="round" stroke-linejoin="round" stroke-width="3.04" points="29.6 43.4 35.4 25.9 28.3 21.1 28.8 9.2" opacity=".043"/></g><g id="path606" nodetypes="cccc"><polyline id="polyline679" fill="none" stroke="#001212" stroke-linecap="round" stroke-linejoin="round" stroke-width="1.7" points="30 42.9 35.9 25.4 28.8 20.6 29.3 8.8" opacity=".043"/></g><g id="path607" nodetypes="cccc"><polyline id="polyline681" fill="none" stroke="#001212" stroke-linecap="round" stroke-linejoin="round" stroke-width=".8" points="21.1 44.6 27 27 19.9 22.3 20.4 10.4" opacity=".043"/></g><g id="path608" nodetypes="cccc"><polyline id="polyline683" fill="none" stroke="#001212" stroke-linecap="round" stroke-linejoin="round" stroke-width=".08" points="30.7 42.5 36.5 24.9 29.5 20.2 29.9 8.3" opacity=".043"/></g><g id="path609" nodetypes="cccc"><polyline id="polyline685" fill="none" stroke="#001212" stroke-linecap="round" stroke-linejoin="round" stroke-width=".08" points="21 45 26.9 27.5 19.8 22.7 20.3 10.9" opacity=".043"/></g><g id="path610" nodetypes="cccc"><polyline id="polyline687" fill="none" stroke="#001212" stroke-linecap="round" stroke-linejoin="round" stroke-width=".08" points="30.7 42.5 36.5 24.9 29.5 20.2 29.9 8.3" opacity=".043"/></g><g id="path611" nodetypes="cccc"><polyline id="polyline689" fill="none" stroke="#001212" stroke-linecap="round" stroke-linejoin="round" stroke-width="1.7" points="21.4 44.5 27.3 26.9 20.2 22.2 20.7 10.3" opacity=".043"/></g><g id="g690" nodetypes="cccc"><polyline id="polyline691" fill="none" stroke="#001212" stroke-linecap="round" stroke-linejoin="round" stroke-width="3.04" points="22.5 44 28.3 26.5 21.2 21.7 21.7 9.8" opacity=".043"/></g><g id="path613" nodetypes="cccc"><polyline id="polyline693" fill="none" stroke="#001212" stroke-linecap="round" stroke-linejoin="round" stroke-width="1.7" points="21.4 44.5 27.3 26.9 20.2 22.2 20.7 10.3" opacity=".043"/></g><g id="path590" nodetypes="cccc"><polyline id="polyline695" fill="none" stroke="#BF1212" stroke-linecap="round" stroke-linejoin="round" stroke-width=".8" points="30.9 43.6 36.8 25.2 29.7 20.4 30 9.5" opacity=".939"/></g></g><rect id="rect696" width="48" height="48" x="2.6" fill="none"/></g></svg>