<svg xmlns="http://www.w3.org/2000/svg" xmlns:xlink="http://www.w3.org/1999/xlink" id="svg602" width="52.6" height="51.4" enable-background="new 0 0 52.6 51.4" overflow="visible" viewBox="0 0 52.6 51.4" xml:space="preserve"><g id="Layer_1"><g id="g606"><radialGradient id="path700_1_" cx="-846.774" cy="431.721" r=".059" fx="-846.774" fy="431.721" gradientTransform="matrix(310.7065 0 0 -144.1183 263126.125 62264.3047)" gradientUnits="userSpaceOnUse"><stop style="stop-color:#261700" id="stop608" offset="0"/><stop style="stop-color:#d2d2d2" id="stop609" offset="1"/></radialGradient><path id="path700" fill="url(#path700_1_)" d="M39.9,35.4c6,4.2,5.5,9.8-1.8,13.2c-7.3,3.4-18,2.9-23.9-1.4c-5.1-3.5-5.3-8.4-0.5-12.1c3.1,4.3,5.7,5.8,12.9,6.7 C32.7,41.8,36.5,39.1,39.9,35.4z" enable-background="new" opacity=".3"/><polygon id="polygon614" fill="none" stroke="#000" stroke-width="2.767" points="49.6 32.3 33.8 34.4 26.3 48.3 19.7 34.3 4 31.9 15.8 21.2 13.5 5.9 27.4 13.2 41.7 6.1 38.5 21.4" opacity=".3"/><polygon id="polygon615" fill="none" stroke="#000" stroke-width="2.767" points="40.9 45 26.6 38.1 12.7 45.6 14.9 30.2 3.1 19.6 18.8 17.1 25.3 3.1 32.9 16.8 48.7 18.7 37.7 29.8" opacity=".3"/><radialGradient id="XMLID_1_" cx="25.295" cy="25.721" r="22.137" fx="25.295" fy="25.721" gradientTransform="matrix(0.9742 0.2258 -0.2258 0.9742 5.5906 -5.1992)" gradientUnits="userSpaceOnUse"><stop style="stop-color:#ff6500" id="stop617" offset="0"/><stop style="stop-color:#ff0" id="stop618" offset="1"/></radialGradient><polygon id="polygon622" fill="url(#XMLID_1_)" points="40.9 45 26.6 38.1 12.7 45.6 14.9 30.2 3.1 19.6 18.8 17.1 25.3 3.1 32.9 16.8 48.7 18.7 37.7 29.8"/><radialGradient id="XMLID_2_" cx="42.174" cy="-49.132" r="22.137" fx="42.174" fy="-49.132" gradientTransform="matrix(0.9379 -0.347 0.347 0.9379 2.6308 85.8734)" gradientUnits="userSpaceOnUse"><stop style="stop-color:#ff6500" id="stop624" offset="0"/><stop style="stop-color:#ff0" id="stop625" offset="1"/></radialGradient><polygon id="polygon629" fill="url(#XMLID_2_)" points="49.6 32.3 33.8 34.4 26.3 48.3 19.7 34.3 4 31.9 15.8 21.2 13.5 5.9 27.4 13.2 41.7 6.1 38.5 21.4"/><path id="path597_5_" fill="none" stroke="#474000" stroke-width="1.736" d="M10.1,24.7c0-9.9,7.4-17.8,16.4-17.8s17,7.5,17,17.2c0,9.9-7.9,18.4-17,18.4S10.1,34.6,10.1,24.7z" enable-background="new" opacity=".15"/><path id="path597_4_" fill="none" stroke="#474000" stroke-width=".868" d="M10.1,24.7c0-9.9,7.4-17.8,16.4-17.8s17,7.5,17,17.2c0,9.9-7.9,18.4-17,18.4S10.1,34.6,10.1,24.7z" enable-background="new" opacity=".2"/><path id="path597_3_" fill="none" stroke="#474000" stroke-width=".434" d="M10.1,24.7c0-9.9,7.4-17.8,16.4-17.8s17,7.5,17,17.2c0,9.9-7.9,18.4-17,18.4S10.1,34.6,10.1,24.7z" enable-background="new" opacity=".3"/><radialGradient id="path577_1_" cx="-808.898" cy="391.857" r="38.142" fx="-808.898" fy="391.857" gradientTransform="matrix(298.9032 0 0 -316.3969 253131.4531 136264.7656)" gradientUnits="userSpaceOnUse"><stop style="stop-color:#ff6f00" id="stop634" offset="0"/><stop style="stop-color:#ff0" id="stop635" offset="1"/></radialGradient><circle id="path577" cx="27" cy="24.9" r="16.4" fill="url(#path577_1_)"/><linearGradient id="path597_1_" x1="-846.767" x2="-846.768" y1="430.65" y2="430.541" gradientTransform="matrix(303.6933 0 0 -316.3967 257184.5625 136264.75)" gradientUnits="userSpaceOnUse"><stop style="stop-color:#ff6500" id="stop641" offset="0"/><stop style="stop-color:#ff0" id="stop642" offset="1"/></linearGradient><path id="path597" fill="url(#path597_1_)" d="M10.1,24.7c0-9.9,7.4-17.8,16.4-17.8c9.1,0,17,7.4,17,17.2c0,9.9-7.9,18.4-17,18.4S10.1,34.6,10.1,24.7z" enable-background="new" opacity=".75"/><radialGradient id="path597_6_" cx="-653.239" cy="6.949" r="18.665" fx="-653.239" fy="6.949" gradientTransform="matrix(1 0 0 1 679.7031 -1.757813e-002)" gradientUnits="userSpaceOnUse"><stop style="stop-color:#fff" id="stop648" offset="0"/><stop style="stop-color:#fffefa" id="stop649" offset=".105"/><stop style="stop-color:#fffbec" id="stop650" offset=".228"/><stop style="stop-color:#fff7d4" id="stop651" offset=".362"/><stop style="stop-color:#fff1b2" id="stop652" offset=".502"/><stop style="stop-color:#ffe988" id="stop653" offset=".647"/><stop style="stop-color:#ffdf53" id="stop654" offset=".798"/><stop style="stop-color:#ffd316" id="stop655" offset=".949"/><stop style="stop-color:#ffcf00" id="stop656" offset="1"/></radialGradient><path id="path597_2_" fill="url(#path597_6_)" d="M16.2,13.3c0-3.5,4.6-6.4,10.2-6.4s10.5,2.7,10.5,6.2C36.9,16.6,16.2,16.8,16.2,13.3z" enable-background="new" opacity=".75"/></g><rect id="rect662" width="48" height="48" x="2.3" y="2.9" fill="none"/></g></svg>