<svg xmlns="http://www.w3.org/2000/svg" xmlns:xlink="http://www.w3.org/1999/xlink" id="svg602" width="48" height="48.7" enable-background="new 0 0 48 48.7" overflow="visible" viewBox="0 0 48 48.7" xml:space="preserve"><g id="Layer_1"><g id="g606"><path id="path597_5_" fill="none" stroke="#474000" stroke-width="1.882" d="M5.6,20.2c0-10.7,8-19.3,17.8-19.3c9.8,0,18.4,8.1,18.4,18.7c0,10.7-8.6,19.9-18.4,19.9C13.6,39.5,5.6,30.9,5.6,20.2z" enable-background="new" opacity=".15"/><path id="path597_4_" fill="none" stroke="#474000" stroke-width=".941" d="M5.6,20.2c0-10.7,8-19.3,17.8-19.3c9.8,0,18.4,8.1,18.4,18.7c0,10.7-8.6,19.9-18.4,19.9C13.6,39.5,5.6,30.9,5.6,20.2z" enable-background="new" opacity=".2"/><path id="path597_3_" fill="none" stroke="#474000" stroke-width=".47" d="M5.6,20.2c0-10.7,8-19.3,17.8-19.3c9.8,0,18.4,8.1,18.4,18.7c0,10.7-8.6,19.9-18.4,19.9C13.6,39.5,5.6,30.9,5.6,20.2z" enable-background="new" opacity=".3"/><radialGradient id="path700_1_" cx="-679.571" cy="-.74" r=".064" fx="-679.571" fy="-.74" gradientTransform="matrix(310.7065 0 0 144.1183 211172.2188 149.3426)" gradientUnits="userSpaceOnUse"><stop style="stop-color:#261700" id="stop611" offset="0"/><stop style="stop-color:#d2d2d2" id="stop612" offset="1"/></radialGradient><path id="path700" fill="url(#path700_1_)" d="M37.9,31.8c6.5,4.5,6,10.6-1.9,14.3c-7.9,3.7-19.5,3.1-25.9-1.5c-5.5-3.8-5.7-9.1-0.5-13.1c3.4,4.7,6.2,6.3,14,7.3 C30.1,38.7,34.3,35.8,37.9,31.8z" enable-background="new" opacity=".3"/><radialGradient id="path577_1_" cx="-638.496" cy="42.772" r="41.557" fx="-638.496" fy="42.772" gradientTransform="matrix(298.9032 0 0 316.3969 203151.1563 -98.4275)" gradientUnits="userSpaceOnUse"><stop style="stop-color:#ff6f00" id="stop618" offset="0"/><stop style="stop-color:#ff0" id="stop619" offset="1"/></radialGradient><circle id="path577" cx="23.9" cy="20.4" r="17.8" fill="url(#path577_1_)"/><linearGradient id="path597_1_" x1="-679.565" x2="-679.567" y1=".318" y2=".437" gradientTransform="matrix(303.6933 0 0 316.3967 206403.3125 -98.1642)" gradientUnits="userSpaceOnUse"><stop style="stop-color:#ff6500" id="stop625" offset="0"/><stop style="stop-color:#ff0" id="stop626" offset="1"/></linearGradient><path id="path597" fill="url(#path597_1_)" d="M5.6,20.2c0-10.7,8-19.3,17.8-19.3c9.9,0,18.4,8,18.4,18.7c0,10.7-8.6,19.9-18.4,19.9C13.6,39.5,5.6,30.9,5.6,20.2z" enable-background="new" opacity=".75"/><radialGradient id="path597_6_" cx="-486.406" cy="426.746" r="20.235" fx="-486.406" fy="426.746" gradientTransform="matrix(1 0 0 -1 509.7773 427.6934)" gradientUnits="userSpaceOnUse"><stop style="stop-color:#fff" id="stop632" offset="0"/><stop style="stop-color:#fffefa" id="stop633" offset=".105"/><stop style="stop-color:#fffbec" id="stop634" offset=".228"/><stop style="stop-color:#fff7d4" id="stop635" offset=".362"/><stop style="stop-color:#fff1b2" id="stop636" offset=".502"/><stop style="stop-color:#ffe988" id="stop637" offset=".647"/><stop style="stop-color:#ffdf53" id="stop638" offset=".798"/><stop style="stop-color:#ffd316" id="stop639" offset=".949"/><stop style="stop-color:#ffcf00" id="stop640" offset="1"/></radialGradient><path id="path597_2_" fill="url(#path597_6_)" d="M12.2,7.8c0-3.8,5-6.9,11.1-6.9c6.1,0,11.4,2.9,11.4,6.7C34.7,11.4,12.2,11.6,12.2,7.8z" enable-background="new" opacity=".75"/><rect id="rect662" width="48" height="48" y=".7" fill="none"/><g id="path702" nodetypes="ccccc"><path id="path661" fill="none" stroke="#000" stroke-width=".969" d="M28.7,13.8 c-0.6,0-1-0.5-0.1-0.4c6.5,1.1,10.3,2.8,10.3,5.4c-0.2,0.7-1.6,0.4-1.6-0.2C36.8,16.4,35.1,15.1,28.7,13.8z" opacity=".37"/></g><path id="path703" fill="#5D1A00" d="M28.7,13.8c-0.6,0-1-0.5-0.1-0.4c6.5,1.1,10.3,2.8,10.3,5.4 c-0.2,0.7-1.6,0.4-1.6-0.2C36.8,16.4,35.1,15.1,28.7,13.8z" nodetypes="ccccc"/><g id="path704" nodetypes="ccccc"><path id="path664" fill="none" stroke="#000" stroke-width=".315" d="M28.7,13.8 c-0.6,0-1-0.5-0.1-0.4c6.5,1.1,10.3,2.8,10.3,5.4c-0.2,0.7-1.6,0.4-1.6-0.2C36.8,16.4,35.1,15.1,28.7,13.8z" opacity=".37"/></g><g id="g665"><g id="path921" nodetypes="ccccc"><path id="path667" fill="none" stroke="#000" stroke-width=".857" d="M18,12.7 c0.5,0.1,0.9-0.4,0.2-0.4c-5.6,0.5-9.1,1.7-9.8,4.1c0,0.7,1.2,0.5,1.4,0C10.8,14.5,12.5,13.4,18,12.7z" opacity=".37"/></g><path id="path922" fill="#5D1A00" d="M17.1,12.4c0.4,0.1,0.7-0.5,0.2-0.4c-4.5,0.6-7.3,2-7.8,5 c0,0.8,1,0.6,1.1,0C11.3,14.5,12.7,13.2,17.1,12.4z" nodetypes="ccccc"/><g id="path923" nodetypes="ccccc"><path id="path670" fill="none" stroke="#000" stroke-width=".278" d="M18,12.7 c0.5,0.1,0.9-0.4,0.2-0.4c-5.6,0.5-9.1,1.7-9.8,4.1c0,0.7,1.2,0.5,1.4,0C10.8,14.5,12.5,13.4,18,12.7z" opacity=".37"/></g></g><g id="g671"><g id="path755" nodetypes="cccccc"><linearGradient id="XMLID_1_" x1="-172.34" x2="-172.346" y1="429.994" y2="429.893" gradientTransform="matrix(67.0105 0 0 -74.7332 11570.9121 32183.9297)" gradientUnits="userSpaceOnUse"><stop style="stop-color:#dee2e7" id="stop674" offset="0"/><stop style="stop-color:#fff" id="stop675" offset="1"/></linearGradient><path id="path679" fill="url(#XMLID_1_)" d="M23,25.7c3.3-0.1,5.5,1.7,5.7,6.1c-0.1,5.5-2,5.5-4.2,5.9 c-2.8-0.4-3.5-1.8-4.4-3.5c-1.3-1.7-1.9-0.8-2.1-4.3C18.2,27.4,20.8,25.8,23,25.7z"/><path id="path680" fill="none" stroke="#000" stroke-width="3.557" d="M23,25.7 c3.3-0.1,5.5,1.7,5.7,6.1c-0.1,5.5-2,5.5-4.2,5.9c-2.8-0.4-3.5-1.8-4.4-3.5c-1.3-1.7-1.9-0.8-2.1-4.3 C18.2,27.4,20.8,25.8,23,25.7z" opacity=".03"/></g><g id="path756" nodetypes="cccccc"><path id="path682" fill="url(#XMLID_1_)" d="M23,25.7c3.3-0.1,5.5,1.7,5.7,6.1c-0.1,5.5-2,5.5-4.2,5.9 c-2.8-0.4-3.5-1.8-4.4-3.5c-1.3-1.7-1.9-0.8-2.1-4.3C18.2,27.4,20.8,25.8,23,25.7z"/><path id="path683" fill="none" stroke="#000" stroke-width="3.056" d="M23,25.7 c3.3-0.1,5.5,1.7,5.7,6.1c-0.1,5.5-2,5.5-4.2,5.9c-2.8-0.4-3.5-1.8-4.4-3.5c-1.3-1.7-1.9-0.8-2.1-4.3 C18.2,27.4,20.8,25.8,23,25.7z" opacity=".03"/></g><g id="path757" nodetypes="cccccc"><path id="path685" fill="url(#XMLID_1_)" d="M23,25.7c3.3-0.1,5.5,1.7,5.7,6.1c-0.1,5.5-2,5.5-4.2,5.9 c-2.8-0.4-3.5-1.8-4.4-3.5c-1.3-1.7-1.9-0.8-2.1-4.3C18.2,27.4,20.8,25.8,23,25.7z"/><path id="path686" fill="none" stroke="#000" stroke-width="2.475" d="M23,25.7 c3.3-0.1,5.5,1.7,5.7,6.1c-0.1,5.5-2,5.5-4.2,5.9c-2.8-0.4-3.5-1.8-4.4-3.5c-1.3-1.7-1.9-0.8-2.1-4.3 C18.2,27.4,20.8,25.8,23,25.7z" opacity=".03"/></g><g id="path758" nodetypes="cccccc"><path id="path688" fill="url(#XMLID_1_)" d="M23,25.7c3.3-0.1,5.5,1.7,5.7,6.1c-0.1,5.5-2,5.5-4.2,5.9 c-2.8-0.4-3.5-1.8-4.4-3.5c-1.3-1.7-1.9-0.8-2.1-4.3C18.2,27.4,20.8,25.8,23,25.7z"/><path id="path689" fill="none" stroke="#000" stroke-width="1.843" d="M23,25.7 c3.3-0.1,5.5,1.7,5.7,6.1c-0.1,5.5-2,5.5-4.2,5.9c-2.8-0.4-3.5-1.8-4.4-3.5c-1.3-1.7-1.9-0.8-2.1-4.3 C18.2,27.4,20.8,25.8,23,25.7z" opacity=".03"/></g><g id="path759" nodetypes="cccccc"><path id="path691" fill="url(#XMLID_1_)" d="M23,25.7c3.3-0.1,5.5,1.7,5.7,6.1c-0.1,5.5-2,5.5-4.2,5.9 c-2.8-0.4-3.5-1.8-4.4-3.5c-1.3-1.7-1.9-0.8-2.1-4.3C18.2,27.4,20.8,25.8,23,25.7z"/><path id="path692" fill="none" stroke="#000" stroke-width="1.783" d="M23,25.7 c3.3-0.1,5.5,1.7,5.7,6.1c-0.1,5.5-2,5.5-4.2,5.9c-2.8-0.4-3.5-1.8-4.4-3.5c-1.3-1.7-1.9-0.8-2.1-4.3 C18.2,27.4,20.8,25.8,23,25.7z" opacity=".03"/></g><g id="path760" nodetypes="cccccc"><path id="path694" fill="url(#XMLID_1_)" d="M23,25.7c3.3-0.1,5.5,1.7,5.7,6.1c-0.1,5.5-2,5.5-4.2,5.9 c-2.8-0.4-3.5-1.8-4.4-3.5c-1.3-1.7-1.9-0.8-2.1-4.3C18.2,27.4,20.8,25.8,23,25.7z"/><path id="path695" fill="none" stroke="#000" stroke-width="1.703" d="M23,25.7 c3.3-0.1,5.5,1.7,5.7,6.1c-0.1,5.5-2,5.5-4.2,5.9c-2.8-0.4-3.5-1.8-4.4-3.5c-1.3-1.7-1.9-0.8-2.1-4.3 C18.2,27.4,20.8,25.8,23,25.7z" opacity=".03"/></g><linearGradient id="path754_1_" x1="-171.228" x2="-171.234" y1="428.644" y2="428.544" gradientTransform="matrix(67.0105 0 0 -74.7332 11497.2871 32064.9922)" gradientUnits="userSpaceOnUse"><stop style="stop-color:#dee2e7" id="stop697" offset="0"/><stop style="stop-color:#fff" id="stop698" offset="1"/></linearGradient><path id="path754" fill="url(#path754_1_)" stroke="#580000" stroke-width="1.042" d="M23,25.7 c3.3-0.1,5.5,1.7,5.7,6.1c-0.1,5.5-2,5.5-4.2,5.9c-2.8-0.4-3.5-1.8-4.4-3.5c-1.3-1.7-1.9-0.8-2.1-4.3 C18.2,27.4,20.8,25.8,23,25.7z" nodetypes="cccccc"/></g></g></g></svg>