<svg xmlns="http://www.w3.org/2000/svg" xmlns:xlink="http://www.w3.org/1999/xlink" id="svg602" width="51.4" height="50.4" enable-background="new 0 0 51.4 50.4" overflow="visible" viewBox="0 0 51.4 50.4" xml:space="preserve"><g id="Layer_1"><g id="g606"><g id="g607"><g id="path647"><path id="path609" fill="none" stroke="#000" stroke-linejoin="round" stroke-width="2.281" d="M22.3,32.9c-1.3,0-2.5-1-3.3-1.9c-0.8-0.9-1.4-1.6-1.6-3.5c-1.4,0.7-3.7,0.4-5-0.3c-1.4-0.8-2.8-2.6-3-4.4 c-3.7,0.9-8.4-3-7.1-7.8c0.9-3.5,5.7-5.9,8.5-4.3c1.4-2.6,4.8-4.2,7.4-4.4c2.6-0.2,6.8,1,8.4,3.3c0.8-4.8,5.6-7.8,10.6-7.5 c7.3,0.7,10.2,7.8,8.5,13c2.6,1,4,5,3.6,7c-0.5,2.2-2.5,5.7-6.7,5.6c0,5.1-4,9.3-7.1,10.2C30.7,39.5,26.3,38.8,22.3,32.9z" enable-background="new" opacity=".03"/></g><g id="path646"><path id="path611" fill="none" stroke="#000" stroke-linejoin="round" stroke-width="2.677" d="M22.3,32.9c-1.3,0-2.5-1-3.3-1.9c-0.8-0.9-1.4-1.6-1.6-3.5c-1.4,0.7-3.7,0.4-5-0.3c-1.4-0.8-2.8-2.6-3-4.4 c-3.7,0.9-8.4-3-7.1-7.8c0.9-3.5,5.7-5.9,8.5-4.3c1.4-2.6,4.8-4.2,7.4-4.4c2.6-0.2,6.8,1,8.4,3.3c0.8-4.8,5.6-7.8,10.6-7.5 c7.3,0.7,10.2,7.8,8.5,13c2.6,1,4,5,3.6,7c-0.5,2.2-2.5,5.7-6.7,5.6c0,5.1-4,9.3-7.1,10.2C30.7,39.5,26.3,38.8,22.3,32.9z" enable-background="new" opacity=".03"/></g><g id="path645"><path id="path613" fill="none" stroke="#000" stroke-linejoin="round" stroke-width="3.154" d="M22.3,32.9c-1.3,0-2.5-1-3.3-1.9c-0.8-0.9-1.4-1.6-1.6-3.5c-1.4,0.7-3.7,0.4-5-0.3c-1.4-0.8-2.8-2.6-3-4.4 c-3.7,0.9-8.4-3-7.1-7.8c0.9-3.5,5.7-5.9,8.5-4.3c1.4-2.6,4.8-4.2,7.4-4.4c2.6-0.2,6.8,1,8.4,3.3c0.8-4.8,5.6-7.8,10.6-7.5 c7.3,0.7,10.2,7.8,8.5,13c2.6,1,4,5,3.6,7c-0.5,2.2-2.5,5.7-6.7,5.6c0,5.1-4,9.3-7.1,10.2C30.7,39.5,26.3,38.8,22.3,32.9z" enable-background="new" opacity=".03"/></g><g id="path644"><path id="path615" fill="none" stroke="#000" stroke-linejoin="round" stroke-width="3.491" d="M22.3,32.9c-1.3,0-2.5-1-3.3-1.9c-0.8-0.9-1.4-1.6-1.6-3.5c-1.4,0.7-3.7,0.4-5-0.3c-1.4-0.8-2.8-2.6-3-4.4 c-3.7,0.9-8.4-3-7.1-7.8c0.9-3.5,5.7-5.9,8.5-4.3c1.4-2.6,4.8-4.2,7.4-4.4c2.6-0.2,6.8,1,8.4,3.3c0.8-4.8,5.6-7.8,10.6-7.5 c7.3,0.7,10.2,7.8,8.5,13c2.6,1,4,5,3.6,7c-0.5,2.2-2.5,5.7-6.7,5.6c0,5.1-4,9.3-7.1,10.2C30.7,39.5,26.3,38.8,22.3,32.9z" enable-background="new" opacity=".03"/></g><g id="path643"><path id="path617" fill="none" stroke="#000" stroke-linejoin="round" stroke-width="4.131" d="M22.3,32.9c-1.3,0-2.5-1-3.3-1.9c-0.8-0.9-1.4-1.6-1.6-3.5c-1.4,0.7-3.7,0.4-5-0.3c-1.4-0.8-2.8-2.6-3-4.4 c-3.7,0.9-8.4-3-7.1-7.8c0.9-3.5,5.7-5.9,8.5-4.3c1.4-2.6,4.8-4.2,7.4-4.4c2.6-0.2,6.8,1,8.4,3.3c0.8-4.8,5.6-7.8,10.6-7.5 c7.3,0.7,10.2,7.8,8.5,13c2.6,1,4,5,3.6,7c-0.5,2.2-2.5,5.7-6.7,5.6c0,5.1-4,9.3-7.1,10.2C30.7,39.5,26.3,38.8,22.3,32.9z" enable-background="new" opacity=".03"/></g><g id="path674"><path id="path619" fill="none" stroke="#000" stroke-linejoin="round" stroke-width=".669" d="M22.9,31.7c2.1,0.2,4.2,0.7,5.6,1.3c-1.6,2-4.1,4-6.4,5.9c1.5,0.1,3,0.1,4.7,0.1c-2.6,3.2-5.8,7-9.8,9.9 c1.8-2.7,3.3-5.1,4.4-8.2c-1.2,0.1-2.8,0-4.3,0C19.7,38,21.6,34.5,22.9,31.7z" enable-background="new" opacity=".033"/></g><g id="path675"><path id="path621" fill="none" stroke="#000" stroke-linejoin="round" stroke-width="1.117" d="M22.9,31.7c2.1,0.2,4.2,0.7,5.6,1.3c-1.6,2-4.1,4-6.4,5.9c1.5,0.1,3,0.1,4.7,0.1c-2.6,3.2-5.8,7-9.8,9.9 c1.8-2.7,3.3-5.1,4.4-8.2c-1.2,0.1-2.8,0-4.3,0C19.7,38,21.6,34.5,22.9,31.7z" enable-background="new" opacity=".033"/></g><g id="path676"><path id="path623" fill="none" stroke="#000" stroke-linejoin="round" stroke-width="1.622" d="M22.9,31.7c2.1,0.2,4.2,0.7,5.6,1.3c-1.6,2-4.1,4-6.4,5.9c1.5,0.1,3,0.1,4.7,0.1c-2.6,3.2-5.8,7-9.8,9.9 c1.8-2.7,3.3-5.1,4.4-8.2c-1.2,0.1-2.8,0-4.3,0C19.7,38,21.6,34.5,22.9,31.7z" enable-background="new" opacity=".033"/></g><g id="path677"><path id="path625" fill="none" stroke="#000" stroke-linejoin="round" stroke-width="2.219" d="M22.9,31.7c2.1,0.2,4.2,0.7,5.6,1.3c-1.6,2-4.1,4-6.4,5.9c1.5,0.1,3,0.1,4.7,0.1c-2.6,3.2-5.8,7-9.8,9.9 c1.8-2.7,3.3-5.1,4.4-8.2c-1.2,0.1-2.8,0-4.3,0C19.7,38,21.6,34.5,22.9,31.7z" enable-background="new" opacity=".033"/></g><g id="path678"><path id="path627" fill="none" stroke="#000" stroke-linejoin="round" stroke-width="3.072" d="M22.9,31.7c2.1,0.2,4.2,0.7,5.6,1.3c-1.6,2-4.1,4-6.4,5.9c1.5,0.1,3,0.1,4.7,0.1c-2.6,3.2-5.8,7-9.8,9.9 c1.8-2.7,3.3-5.1,4.4-8.2c-1.2,0.1-2.8,0-4.3,0C19.7,38,21.6,34.5,22.9,31.7z" enable-background="new" opacity=".033"/></g><g id="path679"><linearGradient id="path635_1_" x1="-389.513" x2="-389.513" y1="-.142" y2="-.059" gradientTransform="matrix(124.0231 0 0 184.3998 48331.4648 52.2718)" gradientUnits="userSpaceOnUse"><stop style="stop-color:#ff6f00" id="stop630" offset="0"/><stop style="stop-color:#ff0" id="stop631" offset="1"/></linearGradient><path id="path635" fill="url(#path635_1_)" d="M22.9,31.7c2.1,0.2,4.2,0.7,5.6,1.3c-1.6,2-4.1,4-6.4,5.9 c1.5,0.1,3,0.1,4.7,0.1c-2.6,3.2-5.8,7-9.8,9.9c1.8-2.7,3.3-5.1,4.4-8.2c-1.2,0.1-2.8,0-4.3,0C19.7,38,21.6,34.5,22.9,31.7z"/><path id="path636" fill="none" stroke="#460000" stroke-width=".413" d="M22.9,31.7c2.1,0.2,4.2,0.7,5.6,1.3c-1.6,2-4.1,4-6.4,5.9c1.5,0.1,3,0.1,4.7,0.1c-2.6,3.2-5.8,7-9.8,9.9 c1.8-2.7,3.3-5.1,4.4-8.2c-1.2,0.1-2.8,0-4.3,0C19.7,38,21.6,34.5,22.9,31.7z" enable-background="new" opacity=".716"/></g><radialGradient id="path680_1_" cx="-389.154" cy="-.891" r=".096" fx="-389.154" fy="-.891" gradientTransform="matrix(92.8209 0 0 96.3397 36143.2852 121.7451)" gradientUnits="userSpaceOnUse"><stop style="stop-color:#fff" id="stop638" offset="0"/><stop style="stop-color:#f5ffff" id="stop639" offset="1"/></radialGradient><path id="path680" fill="url(#path680_1_)" d="M22.9,31.7c1,0,2.8,0.5,2.9,0.4c-1.6,2-7.4,8.8-8.6,8.6C19.7,38,21.6,34.5,22.9,31.7z" enable-background="new" opacity=".6"/><radialGradient id="path681_1_" cx="-388.658" cy="-2.008" r=".096" fx="-388.658" fy="-2.008" gradientTransform="matrix(54.0696 0 0 80.7929 21034.9688 205.9523)" gradientUnits="userSpaceOnUse"><stop style="stop-color:#fff" id="stop645" offset="0"/><stop style="stop-color:#f5ffff" id="stop646" offset="1"/></radialGradient><path id="path681" fill="url(#path681_1_)" d="M21.8,40.2c0,0,0.7,0.4,1.1,1c-1.3,1.9-4.1,6.6-5,6.5C19.8,45.2,20.7,42.8,21.8,40.2z" enable-background="new" opacity=".6"/><g id="path673"><path id="path652" fill="none" stroke="#000" stroke-linejoin="round" stroke-width=".725" d="M9.5,26.2c2,0.1,4,0.6,5.4,1.3c-1.8,2.5-4.3,5-6.8,7.5c1.4,0,3,0,4.6-0.2c-2.8,4-6.3,8.8-10.4,12.4c2-3.3,3.7-6.3,5-10 c-1.2,0.1-2.7,0.1-4.2,0.1C5.9,34,8,29.7,9.5,26.2z" enable-background="new" opacity=".033"/></g><g id="path672"><path id="path654" fill="none" stroke="#000" stroke-linejoin="round" stroke-width="1.21" d="M9.5,26.2c2,0.1,4,0.6,5.4,1.3c-1.8,2.5-4.3,5-6.8,7.5c1.4,0,3,0,4.6-0.2c-2.8,4-6.3,8.8-10.4,12.4c2-3.3,3.7-6.3,5-10 c-1.2,0.1-2.7,0.1-4.2,0.1C5.9,34,8,29.7,9.5,26.2z" enable-background="new" opacity=".033"/></g><g id="path671"><path id="path656" fill="none" stroke="#000" stroke-linejoin="round" stroke-width="1.758" d="M9.5,26.2c2,0.1,4,0.6,5.4,1.3c-1.8,2.5-4.3,5-6.8,7.5c1.4,0,3,0,4.6-0.2c-2.8,4-6.3,8.8-10.4,12.4c2-3.3,3.7-6.3,5-10 c-1.2,0.1-2.7,0.1-4.2,0.1C5.9,34,8,29.7,9.5,26.2z" enable-background="new" opacity=".033"/></g><g id="path670"><path id="path658" fill="none" stroke="#000" stroke-linejoin="round" stroke-width="2.404" d="M9.5,26.2c2,0.1,4,0.6,5.4,1.3c-1.8,2.5-4.3,5-6.8,7.5c1.4,0,3,0,4.6-0.2c-2.8,4-6.3,8.8-10.4,12.4c2-3.3,3.7-6.3,5-10 c-1.2,0.1-2.7,0.1-4.2,0.1C5.9,34,8,29.7,9.5,26.2z" enable-background="new" opacity=".033"/></g><g id="path669"><path id="path660" fill="none" stroke="#000" stroke-linejoin="round" stroke-width="3.329" d="M9.5,26.2c2,0.1,4,0.6,5.4,1.3c-1.8,2.5-4.3,5-6.8,7.5c1.4,0,3,0,4.6-0.2c-2.8,4-6.3,8.8-10.4,12.4c2-3.3,3.7-6.3,5-10 c-1.2,0.1-2.7,0.1-4.2,0.1C5.9,34,8,29.7,9.5,26.2z" enable-background="new" opacity=".033"/></g><g id="path562"><linearGradient id="path668_1_" x1="-388.43" x2="-388.43" y1=".121" y2=".203" gradientTransform="matrix(135.5807 0 0 225.3177 52672.1875 -6.4182)" gradientUnits="userSpaceOnUse"><stop style="stop-color:#ff6f00" id="stop663" offset="0"/><stop style="stop-color:#ff0" id="stop664" offset="1"/></linearGradient><path id="path668" fill="url(#path668_1_)" d="M9.5,26.2c2,0.1,4,0.6,5.4,1.3c-1.8,2.5-4.3,5-6.8,7.5c1.4,0,3,0,4.6-0.2 c-2.8,4-6.3,8.8-10.4,12.4c2-3.3,3.7-6.3,5-10c-1.2,0.1-2.7,0.1-4.2,0.1C5.9,34,8,29.7,9.5,26.2z"/><path id="path682" fill="none" stroke="#510000" stroke-width=".447" d="M9.5,26.2c2,0.1,4,0.6,5.4,1.3c-1.8,2.5-4.3,5-6.8,7.5c1.4,0,3,0,4.6-0.2c-2.8,4-6.3,8.8-10.4,12.4c2-3.3,3.7-6.3,5-10 c-1.2,0.1-2.7,0.1-4.2,0.1C5.9,34,8,29.7,9.5,26.2z" enable-background="new" opacity=".782"/></g><radialGradient id="path662_1_" cx="-387.771" cy="-.264" r=".096" fx="-387.771" fy="-.264" gradientTransform="matrix(98.4707 0 0 119.1429 38192.0234 62.6985)" gradientUnits="userSpaceOnUse"><stop style="stop-color:#fff" id="stop671" offset="0"/><stop style="stop-color:#f5ffff" id="stop672" offset="1"/></radialGradient><path id="path662" fill="url(#path662_1_)" d="M9.5,26.2c1-0.1,2.7,0.5,2.8,0.3c-1.8,2.5-7.9,11-9.2,10.7C5.9,33.9,8,29.7,9.5,26.2z" enable-background="new" opacity=".6"/><radialGradient id="path696_1_" cx="-387.022" cy="-1.28" r=".095" fx="-387.022" fy="-1.28" gradientTransform="matrix(68.328 0 0 108.3678 26449.8281 180.499)" gradientUnits="userSpaceOnUse"><stop style="stop-color:#fff" id="stop678" offset="0"/><stop style="stop-color:#f5ffff" id="stop679" offset="1"/></radialGradient><path id="path696" fill="url(#path696_1_)" d="M7.4,37.2c0-0.1,0.8,0.4,1.1,1.3c-1.7,2.5-5.3,8.9-6.4,8.8C4.7,43.8,5.9,40.6,7.4,37.2z" enable-background="new" opacity=".6"/><linearGradient id="path639_1_" x1="-388.884" x2="-388.826" y1=".576" y2=".506" gradientTransform="matrix(508.2638 0 0 393.1809 197667.0938 -192.5941)" gradientUnits="userSpaceOnUse"><stop style="stop-color:#000" id="stop685" offset="0"/><stop style="stop-color:#fff" id="stop686" offset="1"/></linearGradient><path id="path639" fill="url(#path639_1_)" stroke="#000" stroke-linejoin="round" stroke-width=".838" d="M22.3,32.9 c-1.3,0-2.5-1-3.3-1.9c-0.8-0.9-1.4-1.6-1.6-3.5c-1.4,0.7-3.7,0.4-5-0.3c-1.4-0.8-2.8-2.6-3-4.4c-3.7,0.9-8.4-3-7.1-7.8 c0.9-3.5,5.7-5.9,8.5-4.3c1.4-2.6,4.8-4.2,7.4-4.4c2.6-0.2,6.8,1,8.4,3.3c0.8-4.8,5.6-7.8,10.6-7.5c7.3,0.7,10.2,7.8,8.5,13 c2.6,1,4,5,3.6,7c-0.5,2.2-2.5,5.7-6.7,5.6c0,5.1-4,9.3-7.1,10.2C30.7,39.5,26.3,38.8,22.3,32.9z"/><g id="path648"><path id="path705" fill="#FFF" d="M22.3,32.9c-1.3,0-2.5-1-3.3-1.9c-0.8-0.9-1.4-1.6-1.6-3.5c-1.4,0.7-3.7,0.4-5-0.3c-1.4-0.8-2.8-2.6-3-4.4 c-3.7,0.9-8.4-3-7.1-7.8c0.9-3.5,5.7-5.9,8.5-4.3c1.4-2.6,4.8-4.2,7.4-4.4c2.6-0.2,6.8,1,8.4,3.3c0.8-4.8,5.6-7.8,10.6-7.5 c7.3,0.7,10.2,7.8,8.5,13c2.6,1,4,5,3.6,7c-0.5,2.2-2.5,5.7-6.7,5.6c0,5.1-4,9.3-7.1,10.2C30.7,39.5,26.3,38.8,22.3,32.9z" enable-background="new" opacity=".365"/><path id="path706" fill="none" stroke="#746B69" stroke-linejoin="round" stroke-width=".838" d="M22.3,32.9 c-1.3,0-2.5-1-3.3-1.9c-0.8-0.9-1.4-1.6-1.6-3.5c-1.4,0.7-3.7,0.4-5-0.3c-1.4-0.8-2.8-2.6-3-4.4c-3.7,0.9-8.4-3-7.1-7.8 c0.9-3.5,5.7-5.9,8.5-4.3c1.4-2.6,4.8-4.2,7.4-4.4c2.6-0.2,6.8,1,8.4,3.3c0.8-4.8,5.6-7.8,10.6-7.5c7.3,0.7,10.2,7.8,8.5,13 c2.6,1,4,5,3.6,7c-0.5,2.2-2.5,5.7-6.7,5.6c0,5.1-4,9.3-7.1,10.2C30.7,39.5,26.3,38.8,22.3,32.9z"/></g><linearGradient id="path692_1_" x1="-390.468" x2="-390.239" y1=".822" y2=".451" gradientTransform="matrix(151.9369 0 0 145.9553 59346.4922 -63.5277)" gradientUnits="userSpaceOnUse"><stop style="stop-color:#000" id="stop695" offset="0"/><stop style="stop-color:#080808" id="stop696" offset=".018"/><stop style="stop-color:#484848" id="stop697" offset=".18"/><stop style="stop-color:gray" id="stop698" offset=".34"/><stop style="stop-color:#adadad" id="stop699" offset=".494"/><stop style="stop-color:#d1d1d1" id="stop700" offset=".64"/><stop style="stop-color:#eaeaea" id="stop701" offset=".777"/><stop style="stop-color:#fafafa" id="stop702" offset=".901"/><stop style="stop-color:#fff" id="stop703" offset="1"/></linearGradient><circle id="path692" cx="42.5" cy="21.2" r="7.1" fill="url(#path692_1_)"/><linearGradient id="path691_1_" x1="-389.685" x2="-389.51" y1="1.152" y2=".868" gradientTransform="matrix(215.112 0 0 216.7229 83835.4453 -194.0167)" gradientUnits="userSpaceOnUse"><stop style="stop-color:#000" id="stop723" offset="0"/><stop style="stop-color:#fff" id="stop724" offset="1"/></linearGradient><circle id="path691" cx="36.2" cy="12.3" r="10" fill="url(#path691_1_)"/><linearGradient id="path686_1_" x1="-389.367" x2="-389.226" y1=".413" y2=".183" gradientTransform="matrix(243.4524 0 0 233.868 94807.5625 -43.1698)" gradientUnits="userSpaceOnUse"><stop style="stop-color:#000" id="stop730" offset="0"/><stop style="stop-color:#080808" id="stop731" offset=".086"/><stop style="stop-color:#1e1e1e" id="stop732" offset=".219"/><stop style="stop-color:#434343" id="stop733" offset=".384"/><stop style="stop-color:#757575" id="stop734" offset=".574"/><stop style="stop-color:#b6b6b6" id="stop735" offset=".785"/><stop style="stop-color:#fff" id="stop736" offset="1"/></linearGradient><circle id="path686" cx="31.8" cy="27.5" r="10.9" fill="url(#path686_1_)"/><linearGradient id="path688_1_" x1="-388.665" x2="-388.483" y1=".636" y2=".342" gradientTransform="matrix(128.591 0 0 111.2992 49983.2422 -32.9248)" gradientUnits="userSpaceOnUse"><stop style="stop-color:#000" id="stop752" offset="0"/><stop style="stop-color:#fff" id="stop753" offset="1"/></linearGradient><path id="path688" fill="url(#path688_1_)" d="M21.2,22.6c0-3-2.6-5.4-5.8-5.4c-3.2,0-5.8,2.4-5.8,5.3l0,0c0,3,2.6,5.4,5.8,5.4 C18.6,28,21.2,25.6,21.2,22.6L21.2,22.6z"/><linearGradient id="path689_1_" x1="-388.223" x2="-387.977" y1="1.098" y2=".7" gradientTransform="matrix(140.3718 0 0 134.9724 54489.1133 -107.8726)" gradientUnits="userSpaceOnUse"><stop style="stop-color:#000" id="stop759" offset="0"/><stop style="stop-color:#424242" id="stop760" offset=".167"/><stop style="stop-color:#7c7c7c" id="stop761" offset=".332"/><stop style="stop-color:#ababab" id="stop762" offset=".49"/><stop style="stop-color:#cfcfcf" id="stop763" offset=".64"/><stop style="stop-color:#eaeaea" id="stop764" offset=".779"/><stop style="stop-color:#f9f9f9" id="stop765" offset=".903"/><stop style="stop-color:#fff" id="stop766" offset="1"/></linearGradient><path id="path689" fill="url(#path689_1_)" d="M15,16.7c0-3.5-2.9-6.4-6.4-6.4s-6.4,2.9-6.4,6.4l0,0c0,3.5,2.9,6.4,6.4,6.4 C12.2,23.1,15,20.2,15,16.7L15,16.7z"/><linearGradient id="path685_1_" x1="-389.26" x2="-389.025" y1=".379" y2="-.003" gradientTransform="matrix(146.4748 0 0 140.7083 57025.8281 -3.7397)" gradientUnits="userSpaceOnUse"><stop style="stop-color:#000" id="stop784" offset="0"/><stop style="stop-color:#3d3d3d" id="stop785" offset=".217"/><stop style="stop-color:#a4a4a4" id="stop786" offset=".605"/><stop style="stop-color:#e6e6e6" id="stop787" offset=".874"/><stop style="stop-color:#fff" id="stop788" offset="1"/></linearGradient><path id="path685" fill="url(#path685_1_)" d="M30.6,26.7c0-3.7-3-6.7-6.7-6.7c-3.7,0-6.7,3-6.7,6.7l0,0c0,3.7,3,6.7,6.7,6.7 C27.6,33.3,30.6,30.3,30.6,26.7z"/><linearGradient id="path687_1_" x1="-388.878" x2="-388.714" y1=".969" y2=".702" gradientTransform="matrix(209.2932 0 0 201.0536 81390.1406 -150.0618)" gradientUnits="userSpaceOnUse"><stop style="stop-color:#000" id="stop800" offset="0"/><stop style="stop-color:#2f2f2f" id="stop801" offset=".101"/><stop style="stop-color:#656565" id="stop802" offset=".234"/><stop style="stop-color:#949494" id="stop803" offset=".368"/><stop style="stop-color:#bbb" id="stop804" offset=".5"/><stop style="stop-color:#d9d9d9" id="stop805" offset=".63"/><stop style="stop-color:#eee" id="stop806" offset=".758"/><stop style="stop-color:#fbfbfb" id="stop807" offset=".883"/><stop style="stop-color:#fff" id="stop808" offset="1"/></linearGradient><circle id="path687" cx="19.2" cy="15.6" r="9.7" fill="url(#path687_1_)"/></g><rect id="rect784" width="48" height="48" x="1.8" y="1.5" fill="none"/></g></g></svg>