<svg xmlns="http://www.w3.org/2000/svg" xmlns:xlink="http://www.w3.org/1999/xlink" id="svg602" width="48" height="48.2" enable-background="new 0 0 48 48.2" overflow="visible" viewBox="0 0 48 48.2" xml:space="preserve"><g id="Layer_1"><g id="g606"><g id="path649"><path id="path609" fill="none" stroke="#000" stroke-linejoin="round" stroke-width=".476" d="M19.9,20.8c-1.7,6.8-7.9,13.4-7.7,20.8c6.4,2.4,15.9,2.6,21.5-1.6c0.1-7.1-3.2-13.7-5.3-20.1" enable-background="new" opacity=".043"/></g><g id="path645"><path id="path611" fill="none" stroke="#000" stroke-linejoin="round" stroke-width=".941" d="M19.9,20.8c-1.7,6.8-7.9,13.4-7.7,20.8c6.4,2.4,15.9,2.6,21.5-1.6c0.1-7.1-3.2-13.7-5.3-20.1" enable-background="new" opacity=".043"/></g><g id="path644"><path id="path613" fill="none" stroke="#000" stroke-linejoin="round" stroke-width="1.183" d="M19.9,20.8c-1.7,6.8-7.9,13.4-7.7,20.8c6.4,2.4,15.9,2.6,21.5-1.6c0.1-7.1-3.2-13.7-5.3-20.1" enable-background="new" opacity=".043"/></g><g id="path643"><path id="path615" fill="none" stroke="#000" stroke-linejoin="round" stroke-width="1.44" d="M19.9,20.8c-1.7,6.8-7.9,13.4-7.7,20.8c6.4,2.4,15.9,2.6,21.5-1.6c0.1-7.1-3.2-13.7-5.3-20.1" enable-background="new" opacity=".043"/></g><g id="path642"><path id="path617" fill="none" stroke="#000" stroke-linejoin="round" stroke-width="1.669" d="M19.9,20.8c-1.7,6.8-7.9,13.4-7.7,20.8c6.4,2.4,15.9,2.6,21.5-1.6c0.1-7.1-3.2-13.7-5.3-20.1" enable-background="new" opacity=".043"/></g><linearGradient id="path651_1_" x1="-448.21" x2="-448.314" y1="-.049" y2="-.018" gradientTransform="matrix(181.3356 0 0 197.232 81311.7266 37.4425)" gradientUnits="userSpaceOnUse"><stop style="stop-color:#8c92af" id="stop618" offset="0"/><stop style="stop-color:#e7e7e7" id="stop619" offset="1"/></linearGradient><path id="path651" fill="url(#path651_1_)" stroke="#000" stroke-width=".276" d="M19.9,20.8c-1.7,6.8-7.9,13.4-7.7,20.8 c6.4,2.4,15.9,2.6,21.5-1.6c0.1-7.1-3.2-13.7-5.3-20.1C26.3,21.2,22.2,22.1,19.9,20.8z"/><radialGradient id="path700_1_" cx="-448.243" cy="-2.397" r=".05" fx="-448.243" fy="-2.397" gradientTransform="matrix(242.9707 0 0 67.308 108933.0469 205.0347)" gradientUnits="userSpaceOnUse"><stop style="stop-color:#261700" id="stop625" offset="0"/><stop style="stop-color:#fff" id="stop626" offset="1"/></radialGradient><path id="path700" fill="url(#path700_1_)" d="M33.7,40c5.4,1.6,6.8,3.3,0.6,5.7c-6.2,2.4-15.5,3-21,1.4c-4.6-1.4-5.1-3.2-1.2-5.5c3.3,1.2,5.4,1.9,11.7,1.7 C29.2,42.7,30.7,41.9,33.7,40z" enable-background="new" opacity=".4"/><g id="path627"><linearGradient id="path639_1_" x1="-449.554" x2="-449.649" y1="-1.895" y2="-1.937" gradientTransform="matrix(34.8981 0 0 152.3409 15717.4941 330.3812)" gradientUnits="userSpaceOnUse"><stop style="stop-color:#eb2f2f" id="stop633" offset="0"/><stop style="stop-color:#ff0" id="stop634" offset="1"/></linearGradient><path id="path639" fill="url(#path639_1_)" d="M23.2,22.4c0.2,0.6,0.5,1.1,0.7,1.7c-0.8,6.6-1.3,9.6-2,16.2 c1.8-1.3,3.3-1.1,4.1-2.3c0-6.7-0.6-7.3-1.4-13.9c0.1-0.6,0.3-1.2,0.4-1.9C24.5,22.4,23.8,22.5,23.2,22.4z"/><path id="path640" fill="none" stroke="#460000" stroke-linecap="round" stroke-linejoin="round" stroke-width=".221" d="M23.2,22.4c0.2,0.6,0.5,1.1,0.7,1.7c-0.8,6.6-1.3,9.6-2,16.2c1.8-1.3,3.3-1.1,4.1-2.3c0-6.7-0.6-7.3-1.4-13.9 c0.1-0.6,0.3-1.2,0.4-1.9C24.5,22.4,23.8,22.5,23.2,22.4z" enable-background="new" opacity=".147"/></g><g id="path629"><linearGradient id="path648_1_" x1="-449.762" x2="-449.196" y1="-1.963" y2="-1.98" gradientTransform="matrix(34.898 0 0 152.3408 15717.4404 330.3822)" gradientUnits="userSpaceOnUse"><stop style="stop-color:#eb2f2f" id="stop642" offset="0"/><stop style="stop-color:#ff0" id="stop643" offset="1"/></linearGradient><path id="path648" fill="url(#path648_1_)" d="M23.2,22.4c0.2,0.6,0.5,1.1,0.7,1.7c-0.8,6.6-1.3,9.6-2,16.2 c1.8-1.3,3.3-1.1,4.1-2.3c0-6.7-0.6-7.3-1.4-13.9c0.1-0.6,0.3-1.2,0.4-1.9C24.5,22.4,23.8,22.5,23.2,22.4z"/><path id="path650" fill="none" stroke="#000" stroke-width=".043" d="M23.2,22.4c0.2,0.6,0.5,1.1,0.7,1.7c-0.8,6.6-1.3,9.6-2,16.2c1.8-1.3,3.3-1.1,4.1-2.3c0-6.7-0.6-7.3-1.4-13.9 c0.1-0.6,0.3-1.2,0.4-1.9C24.5,22.4,23.8,22.5,23.2,22.4z" enable-background="new" opacity=".739"/></g><linearGradient id="path634_1_" x1="-451.231" x2="-450.868" y1="-1.579" y2="-1.682" gradientTransform="matrix(15.6602 0 0 65.8411 7088.2437 141.5189)" gradientUnits="userSpaceOnUse"><stop style="stop-color:#fff" id="stop650" offset="0"/><stop style="stop-color:#f5ffff" id="stop651" offset="1"/></linearGradient><path id="path634" fill="url(#path634_1_)" d="M22.8,32.6c-0.8,6.6-0.2,1-0.9,7.6c1-0.8,1.3-0.7,1.9-1 C23.8,32.6,22.7,32.1,22.8,32.6z" opacity=".8"/><linearGradient id="path637_1_" x1="-451.857" x2="-451.854" y1="-.988" y2="-.934" gradientTransform="matrix(15.3753 0 0 30.7957 6971.6392 54.5857)" gradientUnits="userSpaceOnUse"><stop style="stop-color:#000" id="stop657" offset="0"/><stop style="stop-color:#000" id="stop658" offset="1"/></linearGradient><path id="path637" fill="url(#path637_1_)" d="M23.2,22.4c0.2,0.6,0.5,1.1,0.7,1.7c-0.3,2.3,1.1,2.4,0.8,0 c0.1-0.6,0.3-1.2,0.4-1.9C24.5,22.4,23.8,22.5,23.2,22.4z"/><g id="path646"><path id="path666" fill="none" stroke="#000" stroke-linejoin="round" stroke-width=".705" d="M19.9,20.8c-1.7,6.8-7.9,13.4-7.7,20.8c6.4,2.4,15.9,2.6,21.5-1.6c0.1-7.1-3.2-13.7-5.3-20.1" enable-background="new" opacity=".043"/></g><g id="path647"><path id="path668" fill="none" stroke="#000" stroke-linejoin="round" stroke-width=".569" d="M19.9,20.8c-1.7,6.8-7.9,13.4-7.7,20.8c6.4,2.4,15.9,2.6,21.5-1.6c0.1-7.1-3.2-13.7-5.3-20.1" enable-background="new" opacity=".043"/></g><path id="path597_5_" fill="none" stroke="#474000" stroke-width=".978" d="M13.5,10.5c0-5.6,4.2-10,9.2-10c5.1,0,9.6,4.2,9.6,9.7c0,5.6-4.5,10.3-9.6,10.3C17.7,20.5,13.5,16.1,13.5,10.5z" enable-background="new" opacity=".15"/><path id="path597_4_" fill="none" stroke="#474000" stroke-width=".489" d="M13.5,10.5c0-5.6,4.2-10,9.2-10c5.1,0,9.6,4.2,9.6,9.7c0,5.6-4.5,10.3-9.6,10.3C17.7,20.5,13.5,16.1,13.5,10.5z" enable-background="new" opacity=".2"/><path id="path597_3_" fill="none" stroke="#474000" stroke-width=".244" d="M13.5,10.5c0-5.6,4.2-10,9.2-10c5.1,0,9.6,4.2,9.6,9.7c0,5.6-4.5,10.3-9.6,10.3C17.7,20.5,13.5,16.1,13.5,10.5z" enable-background="new" opacity=".3"/><radialGradient id="path577_1_" cx="-596.738" cy="405.228" r="21.657" fx="-596.738" fy="405.228" gradientTransform="matrix(298.9032 0 0 -316.3969 184781.0156 135222.0938)" gradientUnits="userSpaceOnUse"><stop style="stop-color:#ff6f00" id="stop671" offset="0"/><stop style="stop-color:#ff0" id="stop672" offset="1"/></radialGradient><circle id="path577" cx="23" cy="10.6" r="9.2" fill="url(#path577_1_)"/><linearGradient id="path597_1_" x1="-618.113" x2="-618.114" y1="427.378" y2="427.317" gradientTransform="matrix(303.6933 0 0 -316.3967 187739.625 135222.3281)" gradientUnits="userSpaceOnUse"><stop style="stop-color:#ff6500" id="stop678" offset="0"/><stop style="stop-color:#ff0" id="stop679" offset="1"/></linearGradient><path id="path597" fill="url(#path597_1_)" d="M13.5,10.5c0-5.6,4.2-10,9.2-10c5.1,0,9.6,4.2,9.6,9.7c0,5.6-4.5,10.3-9.6,10.3C17.7,20.5,13.5,16.1,13.5,10.5z" enable-background="new" opacity=".75"/><linearGradient id="path653_1_" x1="-448.343" x2="-448.266" y1="1.463" y2="1.624" gradientTransform="matrix(161.4472 0 0 85.2899 72400.8672 -122.9976)" gradientUnits="userSpaceOnUse"><stop style="stop-color:#000" id="stop685" offset="0"/><stop style="stop-color:#e7e7e7" id="stop686" offset="1"/></linearGradient><linearGradient id="path653_2_" x1="-448.272" x2="-447.489" y1=".325" y2=".692" gradientUnits="userSpaceOnUse"><stop style="stop-color:#8c92af" id="stop691" offset="0"/><stop style="stop-color:#e7e7e7" id="stop692" offset="1"/></linearGradient><path id="path653" fill="url(#path653_1_)" stroke="url(#path653_2_)" stroke-width=".064" d="M25.2,5.7 c-2.7,0.8-5.8,5-11.9,4.8C13.6-1,28.7-3.6,32.4,7C30.3,8.6,27,6.1,25.2,5.7"/><radialGradient id="path587_1_" cx="-448.558" cy="2.345" r=".147" fx="-448.558" fy="2.345" gradientTransform="matrix(91.706 0 0 52.0368 41158.7031 -121.2396)" gradientUnits="userSpaceOnUse"><stop style="stop-color:#fff" id="stop698" offset="0"/><stop style="stop-color:#f5ffff" id="stop699" offset="1"/></radialGradient><path id="path587" fill="url(#path587_1_)" d="M23,6.5c-4.8-0.1-5.7-2.3-5.3-3.4c0.5-1.2,2.1-2.8,5.1-2.8c3-0.1,4.9,1.2,5.6,2.6C28.9,3.9,27.7,6.4,23,6.5z" enable-background="new" opacity=".6"/><rect id="rect706" width="48" height="48" y=".2" fill="none"/></g></g></svg>