<svg xmlns="http://www.w3.org/2000/svg" xmlns:xlink="http://www.w3.org/1999/xlink" id="svg602" width="49.4" height="50.2" enable-background="new 0 0 49.4 50.2" overflow="visible" viewBox="0 0 49.4 50.2" xml:space="preserve"><g id="Layer_1"><g id="g606"><g id="path613" nodetypes="cccccccccccccc"><path id="path608" fill="none" stroke="#000" stroke-linejoin="round" stroke-width="2.147" d="M3.5,16.5c8.7,9.4,18.7,18.9,27.3,27.2c0.8,0.5,1.6,1.1,2.3,1.6c0.8,0.2,1.7,0.5,2.5,0.7c1.1,0.6,2.2,1.2,3.3,1.8 c1.4-0.4,2.8-0.8,4.3-1.3c0.1-0.8,0.2-1.6,0.3-2.4c-0.6-0.3-1.2-0.6-1.8-1c-0.1-0.6-0.3-1.2-0.4-1.8c-0.4-0.3-0.7-0.5-1.1-0.8 c-0.6-1-1.1-2-1.7-3.1c-9-9.2-18.1-18.4-27.1-27.6c-2-2.2-5.5-2.3-7.4,0C2.4,11.6,1.7,14.4,3.5,16.5z" opacity=".033"/></g><g id="path612" nodetypes="cccccccccccccc"><path id="path610" fill="none" stroke="#000" stroke-linejoin="round" stroke-width="2.606" d="M3.5,16.5c8.7,9.4,18.7,18.9,27.3,27.2c0.8,0.5,1.6,1.1,2.3,1.6c0.8,0.2,1.7,0.5,2.5,0.7c1.1,0.6,2.2,1.2,3.3,1.8 c1.4-0.4,2.8-0.8,4.3-1.3c0.1-0.8,0.2-1.6,0.3-2.4c-0.6-0.3-1.2-0.6-1.8-1c-0.1-0.6-0.3-1.2-0.4-1.8c-0.4-0.3-0.7-0.5-1.1-0.8 c-0.6-1-1.1-2-1.7-3.1c-9-9.2-18.1-18.4-27.1-27.6c-2-2.2-5.5-2.3-7.4,0C2.4,11.6,1.7,14.4,3.5,16.5z" opacity=".033"/></g><g id="path611" nodetypes="cccccccccccccc"><path id="path614" fill="none" stroke="#000" stroke-linejoin="round" stroke-width="3.46" d="M3.5,16.5c8.7,9.4,18.7,18.9,27.3,27.2c0.8,0.5,1.6,1.1,2.3,1.6c0.8,0.2,1.7,0.5,2.5,0.7c1.1,0.6,2.2,1.2,3.3,1.8 c1.4-0.4,2.8-0.8,4.3-1.3c0.1-0.8,0.2-1.6,0.3-2.4c-0.6-0.3-1.2-0.6-1.8-1c-0.1-0.6-0.3-1.2-0.4-1.8c-0.4-0.3-0.7-0.5-1.1-0.8 c-0.6-1-1.1-2-1.7-3.1c-9-9.2-18.1-18.4-27.1-27.6c-2-2.2-5.5-2.3-7.4,0C2.4,11.6,1.7,14.4,3.5,16.5z" opacity=".033"/></g><g id="g615" nodetypes="cccccccccccccc"><path id="path616" fill="none" stroke="#000" stroke-linejoin="round" stroke-width="3.981" d="M3.5,16.5c8.7,9.4,18.7,18.9,27.3,27.2c0.8,0.5,1.6,1.1,2.3,1.6c0.8,0.2,1.7,0.5,2.5,0.7c1.1,0.6,2.2,1.2,3.3,1.8 c1.4-0.4,2.8-0.8,4.3-1.3c0.1-0.8,0.2-1.6,0.3-2.4c-0.6-0.3-1.2-0.6-1.8-1c-0.1-0.6-0.3-1.2-0.4-1.8c-0.4-0.3-0.7-0.5-1.1-0.8 c-0.6-1-1.1-2-1.7-3.1c-9-9.2-18.1-18.4-27.1-27.6c-2-2.2-5.5-2.3-7.4,0C2.4,11.6,1.7,14.4,3.5,16.5z" opacity=".033"/></g><g id="path609" nodetypes="cccccccccccccc"><path id="path618" fill="none" stroke="#000" stroke-linejoin="round" stroke-width="4.836" d="M3.5,16.5c8.7,9.4,18.7,18.9,27.3,27.2c0.8,0.5,1.6,1.1,2.3,1.6c0.8,0.2,1.7,0.5,2.5,0.7c1.1,0.6,2.2,1.2,3.3,1.8 c1.4-0.4,2.8-0.8,4.3-1.3c0.1-0.8,0.2-1.6,0.3-2.4c-0.6-0.3-1.2-0.6-1.8-1c-0.1-0.6-0.3-1.2-0.4-1.8c-0.4-0.3-0.7-0.5-1.1-0.8 c-0.6-1-1.1-2-1.7-3.1c-9-9.2-18.1-18.4-27.1-27.6c-2-2.2-5.5-2.3-7.4,0C2.4,11.6,1.7,14.4,3.5,16.5z" opacity=".033"/></g><linearGradient id="path579_1_" x1="-169.051" x2="-169.159" y1="474.39" y2="474.262" gradientTransform="matrix(209.4362 0 0 -205.7111 35439.0391 97597.2422)" gradientUnits="userSpaceOnUse"><stop style="stop-color:#aeada5" id="stop620" offset="0"/><stop style="stop-color:#f7f8fa" id="stop621" offset="1"/></linearGradient><path id="path579" fill="url(#path579_1_)" stroke="#000" stroke-width=".13" d="M38.3,37.5 c-1.1,3.8-4,7.1-7.8,5.8C9.1,23.9,4.2,17.6,4.2,17.6c-5.1-5.5,2.5-12.1,7-7.8C28.7,27.5,20.7,19.8,38.3,37.5z" nodetypes="ccccc"/><linearGradient id="path581_1_" x1="-169.117" x2="-169.206" y1="474.223" y2="474.089" gradientTransform="matrix(96.4706 0 0 -92.5913 16329.8379 43917.6797)" gradientUnits="userSpaceOnUse"><stop style="stop-color:#000" id="stop627" offset="0"/><stop style="stop-color:#fff" id="stop628" offset="1"/></linearGradient><linearGradient id="path581_2_" x1="-167.783" x2="-168.62" y1="474.154" y2="474.224" gradientUnits="userSpaceOnUse"><stop style="stop-color:#000" id="stop633" offset="0"/><stop style="stop-color:#fff" id="stop634" offset="1"/></linearGradient><path id="path581" fill="url(#path581_1_)" stroke="url(#path581_2_)" stroke-linejoin="round" stroke-width=".894" d="M11.1,24.1c-2.4-2.6-4.3-3.9-6.9-6.6c-5-5.4,2.6-12.3,7-7.8c2.6,2.7,5.2,5.3,7.9,8C14.8,13.6,7.6,20.3,11.1,24.1z" nodetypes="ccccc"/><linearGradient id="path588_1_" x1="-171.054" x2="-170.991" y1="476.341" y2="476.253" gradientTransform="matrix(75.0865 0 0 -61.2005 12877.0254 29190.9453)" gradientUnits="userSpaceOnUse"><stop style="stop-color:#70624f" id="stop640" offset="0"/><stop style="stop-color:#c7d2ca" id="stop641" offset="1"/></linearGradient><polygon id="path588" fill="url(#path588_1_)" points="38.5 37.4 37 37.3 36.4 37.7 35 37.3 34.7 38.2 33.3 38.4 32.9 39.9 31.9 39.4 31.6 41.3 31 41.9 31.2 43.1 30.7 43.2 33 45.1 35.7 46 38.8 47.7 40.2 47.3 43.2 46.6 43.5 44.1 41.7 43.1 41.4 41.5 40 40.4 38.9 38.3" nodetypes="ccccccccccccccccccccccc"/><radialGradient id="path593_1_" cx="-170.943" cy="476.228" r=".155" fx="-170.943" fy="476.228" gradientTransform="matrix(75.0865 0 0 -61.2005 12877.0254 29190.9453)" gradientUnits="userSpaceOnUse"><stop style="stop-color:red" id="stop647" offset="0"/><stop style="stop-color:#c7d2ca" id="stop648" offset="1"/></radialGradient><polygon id="path593" fill="url(#path593_1_)" points="38.5 37.4 37 37.3 36.4 37.7 35 37.3 34.7 38.2 33.3 38.4 32.9 39.9 31.9 39.4 31.6 41.3 31 41.9 31.2 43.1 30.7 43.2 33 45.1 35.7 46 38.8 47.7 40.2 47.3 43.2 46.6 43.5 44.1 41.7 43.1 41.4 41.5 40 40.4 38.9 38.3" nodetypes="ccccccccccccccccccccccc"/><path id="path602" fill="none" stroke="#000" stroke-linejoin="round" stroke-width=".813" d="M3.5,16.5c8.7,9.4,18.7,18.9,27.3,27.2c0.8,0.5,1.6,1.1,2.3,1.6c0.8,0.2,1.7,0.5,2.5,0.7c1.1,0.6,2.2,1.2,3.3,1.8 c1.4-0.4,2.8-0.8,4.3-1.3c0.1-0.8,0.2-1.6,0.3-2.4c-0.6-0.3-1.2-0.6-1.8-1c-0.1-0.6-0.3-1.2-0.4-1.8c-0.4-0.3-0.7-0.5-1.1-0.8 c-0.6-1-1.1-2-1.7-3.1c-9-9.2-18.1-18.4-27.1-27.6c-2-2.2-5.5-2.3-7.4,0C2.4,11.6,1.7,14.4,3.5,16.5z" nodetypes="cccccccccccccc"/><linearGradient id="path603_1_" x1="-169.234" x2="-169.085" y1="474.332" y2="474.332" gradientTransform="matrix(220.1445 0 0 -230.3123 37260.0195 109268.4297)" gradientUnits="userSpaceOnUse"><stop style="stop-color:#aeada5" id="stop655" offset="0"/><stop style="stop-color:#fff" id="stop656" offset=".236"/><stop style="stop-color:#f7f8fa" id="stop657" offset="1"/></linearGradient><path id="path603" fill="url(#path603_1_)" d="M34,38.5L4.1,9.1c0,0,1.8-1,2.7-1.2 C7.3,7.9,8,8,8.4,8.4l28,29.1C37.7,39.5,36.4,40.2,34,38.5z" nodetypes="cccssscc" opacity=".4"/><g id="g664" nodetypes="csscsssc"><path id="path665" d="M40.7,36.6c2.4-3.3,7.6-6.7,7.7-9.8c0-3.8-7-6.8-7-11c0-3.8,4-8.6,6.4-12.9 c-3.4,3.7-6.7,6.5-9.6,11.2c-0.7,1.1-1.2,5-0.7,6.1c1.3,2.8,6.4,4,5.9,8C42.9,31.8,41.5,32.9,40.7,36.6z" opacity=".152"/></g><g id="path615" nodetypes="csscsssc"><path id="path667" d="M40.5,39.7c1.4-4,4.8-8.3,4.6-12c-0.3-4.4-5.5-7.3-5.8-12.2 c-0.3-4.4,2.1-10.2,3.4-15.4c-2.1,4.6-4.2,8.1-5.8,13.6c-0.4,1.4-0.4,5.9,0,7.1c1.2,3.1,4.8,4.2,4.8,8.7 C41.6,34,40.7,35.4,40.5,39.7z" opacity=".152"/></g></g><rect id="rect668" width="48" height="48" x="1.4" fill="none"/></g></svg>