<svg xmlns="http://www.w3.org/2000/svg" xmlns:xlink="http://www.w3.org/1999/xlink" id="svg602" width="48" height="48.7" enable-background="new 0 0 48 48.7" overflow="visible" viewBox="0 0 48 48.7" xml:space="preserve"><g id="Layer_1"><g id="g606"><path id="path597_5_" fill="none" stroke="#474000" stroke-width="1.882" d="M5.6,20.2c0-10.7,8-19.3,17.8-19.3c9.8,0,18.4,8.1,18.4,18.7c0,10.7-8.6,19.9-18.4,19.9C13.6,39.5,5.6,30.9,5.6,20.2z" enable-background="new" opacity=".15"/><path id="path597_4_" fill="none" stroke="#474000" stroke-width=".941" d="M5.6,20.2c0-10.7,8-19.3,17.8-19.3c9.8,0,18.4,8.1,18.4,18.7c0,10.7-8.6,19.9-18.4,19.9C13.6,39.5,5.6,30.9,5.6,20.2z" enable-background="new" opacity=".2"/><path id="path597_3_" fill="none" stroke="#474000" stroke-width=".47" d="M5.6,20.2c0-10.7,8-19.3,17.8-19.3c9.8,0,18.4,8.1,18.4,18.7c0,10.7-8.6,19.9-18.4,19.9C13.6,39.5,5.6,30.9,5.6,20.2z" enable-background="new" opacity=".3"/><radialGradient id="path700_1_" cx="-679.571" cy="-.74" r=".064" fx="-679.571" fy="-.74" gradientTransform="matrix(310.7065 0 0 144.1183 211172.2188 149.3426)" gradientUnits="userSpaceOnUse"><stop style="stop-color:#261700" id="stop611" offset="0"/><stop style="stop-color:#d2d2d2" id="stop612" offset="1"/></radialGradient><path id="path700" fill="url(#path700_1_)" d="M37.9,31.8c6.5,4.5,6,10.6-1.9,14.3c-7.9,3.7-19.5,3.1-25.9-1.5c-5.5-3.8-5.7-9.1-0.5-13.1c3.4,4.7,6.2,6.3,14,7.3 C30.1,38.7,34.3,35.8,37.9,31.8z" enable-background="new" opacity=".3"/><radialGradient id="path577_1_" cx="-638.496" cy="42.772" r="41.557" fx="-638.496" fy="42.772" gradientTransform="matrix(298.9032 0 0 316.3969 203151.1563 -98.4275)" gradientUnits="userSpaceOnUse"><stop style="stop-color:#ff6f00" id="stop618" offset="0"/><stop style="stop-color:#ff0" id="stop619" offset="1"/></radialGradient><circle id="path577" cx="23.9" cy="20.4" r="17.8" fill="url(#path577_1_)"/><linearGradient id="path597_1_" x1="-679.565" x2="-679.567" y1=".318" y2=".437" gradientTransform="matrix(303.6933 0 0 316.3967 206403.3125 -98.1642)" gradientUnits="userSpaceOnUse"><stop style="stop-color:#ff6500" id="stop625" offset="0"/><stop style="stop-color:#ff0" id="stop626" offset="1"/></linearGradient><path id="path597" fill="url(#path597_1_)" d="M5.6,20.2c0-10.7,8-19.3,17.8-19.3c9.9,0,18.4,8,18.4,18.7c0,10.7-8.6,19.9-18.4,19.9C13.6,39.5,5.6,30.9,5.6,20.2z" enable-background="new" opacity=".75"/><radialGradient id="path597_6_" cx="-486.406" cy="426.746" r="20.235" fx="-486.406" fy="426.746" gradientTransform="matrix(1 0 0 -1 509.7773 427.6934)" gradientUnits="userSpaceOnUse"><stop style="stop-color:#fff" id="stop632" offset="0"/><stop style="stop-color:#fffefa" id="stop633" offset=".105"/><stop style="stop-color:#fffbec" id="stop634" offset=".228"/><stop style="stop-color:#fff7d4" id="stop635" offset=".362"/><stop style="stop-color:#fff1b2" id="stop636" offset=".502"/><stop style="stop-color:#ffe988" id="stop637" offset=".647"/><stop style="stop-color:#ffdf53" id="stop638" offset=".798"/><stop style="stop-color:#ffd316" id="stop639" offset=".949"/><stop style="stop-color:#ffcf00" id="stop640" offset="1"/></radialGradient><path id="path597_2_" fill="url(#path597_6_)" d="M12.2,7.8c0-3.8,5-6.9,11.1-6.9c6.1,0,11.4,2.9,11.4,6.7C34.7,11.4,12.2,11.6,12.2,7.8z" enable-background="new" opacity=".75"/><rect id="rect662" width="48" height="48" y=".7" fill="none"/><g id="g660"><radialGradient id="path630_1_" cx="-165.926" cy="427.308" r=".107" fx="-165.926" fy="427.308" gradientTransform="matrix(-47.8028 0 0 -73.2626 -7899.1484 31324.1348)" gradientUnits="userSpaceOnUse"><stop style="stop-color:#dee2e7" id="stop662" offset="0"/><stop style="stop-color:#fff" id="stop663" offset="1"/></radialGradient><path id="path630" cx="50.247" cy="478.41" fill="url(#path630_1_)" stroke="#7C5202" stroke-width=".66" d="M29.8,17.2c0-3.2,1.7-5.9,3.8-5.9c2.1,0,3.8,2.6,3.8,5.9c0,0,0,0,0,0c0,3.2-1.7,5.9-3.8,5.9C31.6,23.1,29.8,20.5,29.8,17.2 C29.8,17.2,29.8,17.2,29.8,17.2z" rx="24.525" ry="34.993" type="arc"/><g id="path631" cx="50.097" cy="476.765" rx="28.862" ry="41.424" type="arc"><path id="path669" fill="none" stroke="#000" stroke-width=".6" d="M29.2,17.2 c0-3.6,2-6.5,4.4-6.5s4.4,2.9,4.4,6.5c0,0,0,0,0,0c0,3.6-2,6.5-4.4,6.5C31.2,23.6,29.2,20.7,29.2,17.2 C29.2,17.2,29.2,17.2,29.2,17.2z" opacity=".038"/></g><g id="path632" cx="50.097" cy="476.765" rx="28.862" ry="41.424" type="arc"><path id="path671" fill="none" stroke="#000" stroke-width="2.086" d="M29.2,17.2 c0-3.6,2-6.4,4.4-6.4c2.4,0,4.4,2.9,4.4,6.4c0,0,0,0,0,0c0,3.6-2,6.4-4.4,6.4C31.2,23.6,29.2,20.8,29.2,17.2 C29.2,17.2,29.2,17.2,29.2,17.2z" opacity=".014"/></g><g id="path633" cx="50.097" cy="476.765" rx="28.862" ry="41.424" type="arc"><path id="path673" fill="none" stroke="#000" stroke-width="1.318" d="M29.2,17.2 c0-3.6,2-6.4,4.4-6.4c2.4,0,4.4,2.9,4.4,6.4c0,0,0,0,0,0c0,3.6-2,6.4-4.4,6.4C31.2,23.6,29.2,20.8,29.2,17.2 C29.2,17.2,29.2,17.2,29.2,17.2z" opacity=".014"/></g><g id="path634" cx="50.097" cy="476.765" rx="28.862" ry="41.424" type="arc"><path id="path675" fill="none" stroke="#000" stroke-width=".454" d="M29.2,17.2 c0-3.6,2-6.4,4.4-6.4c2.4,0,4.4,2.9,4.4,6.4c0,0,0,0,0,0c0,3.6-2,6.4-4.4,6.4C31.2,23.6,29.2,20.8,29.2,17.2 C29.2,17.2,29.2,17.2,29.2,17.2z" opacity=".014"/></g><g id="path635" cx="50.097" cy="476.765" rx="28.862" ry="41.424" type="arc"><path id="path677" fill="none" stroke="#000" stroke-width=".228" d="M29.4,17.2 c0-3.5,1.9-6.3,4.3-6.3c2.4,0,4.3,2.8,4.3,6.3c0,0,0,0,0,0c0,3.5-1.9,6.3-4.3,6.3C31.3,23.5,29.4,20.7,29.4,17.2 C29.4,17.2,29.4,17.2,29.4,17.2z" opacity=".152"/></g><radialGradient id="path637_1_" cx="-161.282" cy="428.159" r=".099" fx="-161.282" fy="428.159" gradientTransform="matrix(-19.9085 0 0 -23.3843 -3177.3074 10030.8525)" gradientUnits="userSpaceOnUse"><stop style="stop-color:#000082" id="stop679" offset="0"/><stop style="stop-color:#000" id="stop680" offset="1"/></radialGradient><path id="path637" cx="61.649" cy="495.829" fill="url(#path637_1_)" d="M31.4,19.7c0-1,0.7-1.9,1.6-1.9c0.9,0,1.6,0.8,1.6,1.9c0,0,0,0,0,0c0,1-0.7,1.9-1.6,1.9C32.1,21.5,31.4,20.7,31.4,19.7 C31.4,19.7,31.4,19.7,31.4,19.7z" rx="10.469" ry="10.892" type="arc"/></g><g id="g685"><radialGradient id="path650_1_" cx="-170.576" cy="427.308" r=".107" fx="-170.576" fy="427.308" gradientTransform="matrix(47.8028 0 0 -73.2626 8168.2344 31324.1348)" gradientUnits="userSpaceOnUse"><stop style="stop-color:#dee2e7" id="stop687" offset="0"/><stop style="stop-color:#fff" id="stop688" offset="1"/></radialGradient><path id="path650" cx="50.247" cy="478.41" fill="url(#path650_1_)" stroke="#7C3902" stroke-width=".66" d="M16.9,17.2c0-3.2-1.7-5.9-3.8-5.9c-2.1,0-3.8,2.6-3.8,5.9c0,0,0,0,0,0c0,3.2,1.7,5.9,3.8,5.9C15.2,23.1,16.9,20.5,16.9,17.2 C16.9,17.2,16.9,17.2,16.9,17.2z" rx="24.525" ry="34.993" type="arc"/><g id="path651" cx="50.097" cy="476.765" rx="28.862" ry="41.424" type="arc"><path id="path694" fill="none" stroke="#000" stroke-width=".6" d="M17.5,17.2 c0-3.6-2-6.5-4.4-6.5s-4.4,2.9-4.4,6.5c0,0,0,0,0,0c0,3.6,2,6.5,4.4,6.5C15.5,23.6,17.5,20.7,17.5,17.2 C17.5,17.2,17.5,17.2,17.5,17.2z" opacity=".038"/></g><g id="path652" cx="50.097" cy="476.765" rx="28.862" ry="41.424" type="arc"><path id="path696" fill="none" stroke="#000" stroke-width="2.086" d="M17.5,17.2 c0-3.6-2-6.4-4.4-6.4c-2.4,0-4.4,2.9-4.4,6.4c0,0,0,0,0,0c0,3.6,2,6.4,4.4,6.4C15.5,23.6,17.5,20.8,17.5,17.2 C17.5,17.2,17.5,17.2,17.5,17.2z" opacity=".014"/></g><g id="path653" cx="50.097" cy="476.765" rx="28.862" ry="41.424" type="arc"><path id="path698" fill="none" stroke="#000" stroke-width="1.318" d="M17.5,17.2 c0-3.6-2-6.4-4.4-6.4c-2.4,0-4.4,2.9-4.4,6.4c0,0,0,0,0,0c0,3.6,2,6.4,4.4,6.4C15.5,23.6,17.5,20.8,17.5,17.2 C17.5,17.2,17.5,17.2,17.5,17.2z" opacity=".014"/></g><g id="path654" cx="50.097" cy="476.765" rx="28.862" ry="41.424" type="arc"><path id="path701" fill="none" stroke="#000" stroke-width=".454" d="M17.5,17.2 c0-3.6-2-6.4-4.4-6.4c-2.4,0-4.4,2.9-4.4,6.4c0,0,0,0,0,0c0,3.6,2,6.4,4.4,6.4C15.5,23.6,17.5,20.8,17.5,17.2 C17.5,17.2,17.5,17.2,17.5,17.2z" opacity=".014"/></g><g id="path655" cx="50.097" cy="476.765" rx="28.862" ry="41.424" type="arc"><path id="path703" fill="none" stroke="#000" stroke-width=".228" d="M17.3,17.2 c0-3.5-1.9-6.3-4.3-6.3c-2.4,0-4.3,2.8-4.3,6.3c0,0,0,0,0,0c0,3.5,1.9,6.3,4.3,6.3C15.4,23.5,17.3,20.7,17.3,17.2 C17.3,17.2,17.3,17.2,17.3,17.2z" opacity=".152"/></g><radialGradient id="path656_1_" cx="-172.449" cy="428.159" r=".099" fx="-172.449" fy="428.159" gradientTransform="matrix(19.9085 0 0 -23.3843 3446.3933 10030.8525)" gradientUnits="userSpaceOnUse"><stop style="stop-color:#000082" id="stop705" offset="0"/><stop style="stop-color:#000" id="stop706" offset="1"/></radialGradient><path id="path656" cx="61.649" cy="495.829" fill="url(#path656_1_)" d="M15.4,19.7c0-1-0.7-1.9-1.6-1.9s-1.6,0.8-1.6,1.9c0,0,0,0,0,0c0,1,0.7,1.9,1.6,1.9C14.6,21.5,15.4,20.7,15.4,19.7 C15.4,19.7,15.4,19.7,15.4,19.7z" rx="10.469" ry="10.892" type="arc"/></g><g id="g711"><g id="path661" nodetypes="ccc"><linearGradient id="XMLID_1_" x1="-170.68" x2="-170.68" y1="430.485" y2="430.561" gradientTransform="matrix(164.9603 0 0 -65.4581 28179.1445 28226.9707)" gradientUnits="userSpaceOnUse"><stop style="stop-color:#d7d7da" id="stop714" offset="0"/><stop style="stop-color:#fff" id="stop715" offset="1"/></linearGradient><path id="path719" fill="url(#XMLID_1_)" d="M10.4,27.4c5.8,11.5,19.6,11.5,26.7,0C27.5,24.6,19.2,24.8,10.4,27.4z"/><path id="path720" fill="none" stroke="#000" stroke-linejoin="round" stroke-width="2.892" d="M10.4,27.4c5.8,11.5,19.6,11.5,26.7,0C27.5,24.6,19.2,24.8,10.4,27.4z" opacity=".07"/></g><g id="path660" nodetypes="ccc"><path id="path722" fill="url(#XMLID_1_)" d="M10.4,27.4c5.8,11.5,19.6,11.5,26.7,0C27.5,24.6,19.2,24.8,10.4,27.4z"/><path id="path723" fill="none" stroke="#000" stroke-linejoin="round" stroke-width="3.527" d="M10.4,27.4c5.8,11.5,19.6,11.5,26.7,0C27.5,24.6,19.2,24.8,10.4,27.4z" opacity=".019"/></g><g id="path658" nodetypes="ccc"><path id="path725" fill="url(#XMLID_1_)" d="M10.4,27.4c5.8,11.5,19.6,11.5,26.7,0C27.5,24.6,19.2,24.8,10.4,27.4z"/><path id="path726" fill="none" stroke="#000" stroke-linejoin="round" stroke-width="4.821" d="M10.4,27.4c5.8,11.5,19.6,11.5,26.7,0C27.5,24.6,19.2,24.8,10.4,27.4z" opacity=".019"/></g><g id="path659" nodetypes="ccc"><path id="path728" fill="url(#XMLID_1_)" d="M10.4,27.4c5.8,11.5,19.6,11.5,26.7,0C27.5,24.6,19.2,24.8,10.4,27.4z"/><path id="path729" fill="none" stroke="#000" stroke-linejoin="round" stroke-width="3.363" d="M10.4,27.4c5.8,11.5,19.6,11.5,26.7,0C27.5,24.6,19.2,24.8,10.4,27.4z" opacity=".019"/></g><g id="path657" nodetypes="ccc"><path id="path731" fill="url(#XMLID_1_)" d="M10.4,27.4c5.8,11.5,19.6,11.5,26.7,0C27.5,24.6,19.2,24.8,10.4,27.4z"/><path id="path732" fill="none" stroke="#000" stroke-linejoin="round" stroke-width="6.208" d="M10.4,27.4c5.8,11.5,19.6,11.5,26.7,0C27.5,24.6,19.2,24.8,10.4,27.4z" opacity=".019"/></g><linearGradient id="path648_1_" x1="-170.103" x2="-170.103" y1="428.839" y2="428.914" gradientTransform="matrix(164.9603 0 0 -72.2256 28084.0195 31002.4668)" gradientUnits="userSpaceOnUse"><stop style="stop-color:#d7d7da" id="stop734" offset="0"/><stop style="stop-color:#fff" id="stop735" offset="1"/></linearGradient><path id="path648" fill="url(#path648_1_)" stroke="#700000" stroke-linejoin="round" stroke-width="1.186" d="M10.4,27.2c5.8,12.6,19.6,12.6,26.7,0C27.5,24.2,19.2,24.4,10.4,27.2z" nodetypes="ccc"/></g></g></g></svg>