<svg xmlns="http://www.w3.org/2000/svg" xmlns:xlink="http://www.w3.org/1999/xlink" id="svg602" width="48" height="48" enable-background="new 0 0 48 48" overflow="visible" viewBox="0 0 48 48" xml:space="preserve"><g id="Layer_x0020_1"><g id="g606"><ellipse id="path4" cx="20.8" cy="40.4" enable-background="new" opacity=".2" rx="19.2" ry="5.6"/><linearGradient id="XMLID_7_" x1="-260.63" x2="-154.97" y1="345.805" y2="345.805" gradientTransform="matrix(0.3715 0 0 -0.3611 103.817 148.8358)" gradientUnits="userSpaceOnUse"><stop style="stop-color:#fff" id="stop609" offset="0"/><stop style="stop-color:#000" id="stop610" offset="1"/></linearGradient><path id="path614" fill="url(#XMLID_7_)" d="M14.7,5.3 C6.1,10.5,4.4,23.1,11,33.4c6.6,10.3,18.9,14.4,27.6,9.2c8.6-5.2,10.3-17.8,3.7-28.1C35.7,4.2,23.3,0.1,14.7,5.3z M28.2,26.4 c-1.1,0.7-2.8,0.1-3.7-1.2c-0.9-1.4-0.7-3,0.5-3.7c1.1-0.7,2.8-0.1,3.7,1.2C29.6,24.1,29.4,25.7,28.2,26.4L28.2,26.4z" enable-background="new" opacity=".2"/><linearGradient id="XMLID_8_" x1="-245.603" x2="-174.352" y1="308.843" y2="383.955" gradientTransform="matrix(0.3715 0 0 -0.3611 103.817 148.8358)" gradientUnits="userSpaceOnUse"><stop style="stop-color:#98aff2" id="stop616" offset=".011"/><stop style="stop-color:#9db3f3" id="stop617" offset=".096"/><stop style="stop-color:#acbff5" id="stop618" offset=".199"/><stop style="stop-color:#c4d2f8" id="stop619" offset=".31"/><stop style="stop-color:#e6ecfc" id="stop620" offset=".428"/><stop style="stop-color:#fff" id="stop621" offset=".5"/><stop style="stop-color:#f7f9fe" id="stop622" offset=".519"/><stop style="stop-color:#d5defa" id="stop623" offset=".611"/><stop style="stop-color:#bacaf6" id="stop624" offset=".704"/><stop style="stop-color:#a7bbf4" id="stop625" offset=".799"/><stop style="stop-color:#9cb2f2" id="stop626" offset=".897"/><stop style="stop-color:#98aff2" id="stop627" offset="1"/></linearGradient><path id="path651" fill="url(#XMLID_8_)" d="M13.9,5.1c-8.6,5.2-10.3,17.8-3.7,28.1c6.6,10.3,18.9,14.4,27.6,9.2c8.6-5.2,10.3-17.8,3.7-28.1 C34.8,4,22.5-0.1,13.9,5.1z M27.4,26.2c-1.1,0.7-2.8,0.1-3.7-1.2c-0.9-1.4-0.7-3,0.5-3.7c1.1-0.7,2.8-0.1,3.7,1.2 C28.7,23.9,28.5,25.5,27.4,26.2L27.4,26.2z"/><linearGradient id="path34_1_" x1="791.223" x2="883.818" y1="325.262" y2="417.857" gradientTransform="matrix(0.3154 -0.1908 -0.1963 -0.3066 -167.7451 296)" gradientUnits="userSpaceOnUse"><stop style="stop-color:#b1caff" id="stop653" offset=".011"/><stop style="stop-color:#b6cdff" id="stop654" offset=".111"/><stop style="stop-color:#c5d8ff" id="stop655" offset=".232"/><stop style="stop-color:#dde8ff" id="stop656" offset=".363"/><stop style="stop-color:#fff" id="stop657" offset=".5"/><stop style="stop-color:#f8faff" id="stop658" offset=".526"/><stop style="stop-color:#dde6ff" id="stop659" offset=".64"/><stop style="stop-color:#cad8ff" id="stop660" offset=".755"/><stop style="stop-color:#bfd0ff" id="stop661" offset=".874"/><stop style="stop-color:#bbcdff" id="stop662" offset="1"/></linearGradient><path id="path34" fill="url(#path34_1_)" d="M23.7,25c-0.1-0.1-0.1-0.3-0.2-0.4L12.2,36c3.8,4.6,8.9,7.5,14,8.4l-0.6-17.9 C24.9,26.2,24.2,25.8,23.7,25z"/><linearGradient id="path46_1_" x1="798.954" x2="890.412" y1="317.505" y2="408.964" gradientTransform="matrix(0.3154 -0.1908 -0.1963 -0.3066 -167.7451 296)" gradientUnits="userSpaceOnUse"><stop style="stop-color:#b1caff" id="stop684" offset=".011"/><stop style="stop-color:#b6cdff" id="stop685" offset=".111"/><stop style="stop-color:#c5d8ff" id="stop686" offset=".232"/><stop style="stop-color:#dde8ff" id="stop687" offset=".363"/><stop style="stop-color:#fff" id="stop688" offset=".5"/><stop style="stop-color:#f8faff" id="stop689" offset=".526"/><stop style="stop-color:#dde6ff" id="stop690" offset=".64"/><stop style="stop-color:#cad8ff" id="stop691" offset=".755"/><stop style="stop-color:#bfd0ff" id="stop692" offset=".874"/><stop style="stop-color:#bbcdff" id="stop693" offset="1"/></linearGradient><path id="path46" fill="url(#path46_1_)" d="M26.7,21.4L38,10c-3.8-3.9-8.5-6.3-13.1-6.9L25.4,21C25.9,21,26.3,21.2,26.7,21.4z"/><g id="g47"><path id="path48" fill="#FFF" d="M23.7,25 c-0.1-0.1-0.1-0.3-0.2-0.4L12.2,36c3.8,4.6,8.9,7.5,14,8.4l-0.6-17.9C24.9,26.2,24.2,25.8,23.7,25z" enable-background="new" opacity=".8"/><path id="path49" fill="#FFF" d="M26.7,21.4 L38,10c-3.8-3.9-8.5-6.3-13.1-6.9L25.4,21C25.9,21,26.3,21.2,26.7,21.4z" enable-background="new" opacity=".8"/></g><g id="g50" opacity=".4"><path id="path51" fill="#FFF" d="M24.2,25.5 c-0.1-0.1-0.2-0.2-0.3-0.3l-7.7,14.6c4.6,3.6,10,5.2,14.9,4.8l-4.8-18C25.5,26.5,24.8,26.1,24.2,25.5L24.2,25.5z" enable-background="new" opacity=".8"/><path id="path52" fill="#FFF" d="M26.1,21 l7.7-14.6C29.4,3.6,24.5,2.4,20,2.9l4.8,18C25.2,20.9,25.6,20.9,26.1,21L26.1,21z" enable-background="new" opacity=".8"/></g><g id="g53" opacity=".68"><path id="path54" fill="#FFF" d="M26.6,26.2 c-0.1,0-0.3,0-0.4,0l9.2,17c4.6-1.8,7.8-5.7,9.2-10.6l-16.5-7.7C27.8,25.6,27.3,26.1,26.6,26.2L26.6,26.2z" enable-background="new" opacity=".9"/><path id="path55" fill="#FFF" d="M23.6,21.4 l-9.2-17c-3.9,2.1-6.7,5.8-7.8,10.4l16.5,7.7C23.1,22.1,23.3,21.7,23.6,21.4L23.6,21.4z" enable-background="new" opacity=".9"/></g><linearGradient id="XMLID_1_" x1="-200.374" x2="-108.107" y1="330.788" y2="181.606" gradientTransform="matrix(0.3715 0 0 -0.3611 103.817 148.8358)" gradientUnits="userSpaceOnUse"><stop style="stop-color:#fff" id="stop724" offset="0"/><stop style="stop-color:#9195f2" id="stop725" offset="1"/></linearGradient><path id="path729" fill="url(#XMLID_1_)" d="M10.4,33.1c6.5,10.2,18.7,14.2,27.2,9.1c8.5-5.2,10.1-17.6,3.6-27.7C34.7,4.3,22.5,0.2,14,5.3 C5.5,10.5,3.9,22.9,10.4,33.1z M40.3,15c6.2,9.6,4.7,21.4-3.3,26.3c-3.3,2-7.4,2.6-11.5,1.6c-5.6-1.3-10.7-5-14.1-10.3 c-6.2-9.6-4.7-21.4,3.3-26.3C22.6,1.4,34.1,5.3,40.3,15L40.3,15z"/><linearGradient id="XMLID_2_" x1="-261.547" x2="-158.478" y1="346.367" y2="346.367" gradientTransform="matrix(0.3715 0 0 -0.3611 103.817 148.8358)" gradientUnits="userSpaceOnUse"><stop style="stop-color:#9ab1ff" id="stop731" offset="0"/><stop style="stop-color:#444973" id="stop732" offset="1"/></linearGradient><path id="path736" fill="url(#XMLID_2_)" d="M26.7,2.4C32.9,3.8,38.6,8,42.3,13.8c6.9,10.7,5,23.9-4.1,29.4c-9.1,5.5-22.1,1.3-28.9-9.4 c-2.7-4.3-4.2-9-4.2-13.7c0-1.7,0.2-3.3,0.6-4.9c1.1-4.6,3.8-8.5,7.7-10.8C17.2,2,21.9,1.4,26.7,2.4z M37.4,41.9 c8.4-5.1,10-17.4,3.6-27.4c-6.4-10-18.5-14-26.9-9C5.7,10.7,4.1,23,10.5,33C17,43,29,47,37.4,41.9z"/><linearGradient id="XMLID_3_" x1="-218.228" x2="-201.787" y1="346.368" y2="346.368" gradientTransform="matrix(0.3715 0 0 -0.3611 103.817 148.8358)" gradientUnits="userSpaceOnUse"><stop style="stop-color:#9ab1ff" id="stop738" offset="0"/><stop style="stop-color:#444973" id="stop739" offset="1"/></linearGradient><path id="path743" fill="url(#XMLID_3_)" d="M23.3,25.2c1,1.6,3,2.3,4.3,1.4c1.4-0.8,1.6-2.8,0.6-4.4c-1-1.6-3-2.3-4.3-1.4 C22.6,21.7,22.3,23.6,23.3,25.2L23.3,25.2z M27,23c0.6,0.9,0.5,2-0.1,2.4c-0.6,0.4-1.7-0.1-2.3-1c-0.3-0.4-0.4-0.9-0.4-1.3 c0-0.5,0.2-0.9,0.5-1.1C25.3,21.7,26.4,22.1,27,23L27,23z"/><linearGradient id="XMLID_4_" x1="-225.808" x2="-194.208" y1="346.366" y2="346.366" gradientTransform="matrix(0.3715 0 0 -0.3611 103.817 148.8358)" gradientUnits="userSpaceOnUse"><stop style="stop-color:#9ab1ff" id="stop745" offset="0"/><stop style="stop-color:#626aa4" id="stop746" offset="1"/></linearGradient><path id="path750" fill="url(#XMLID_4_)" d="M21.1,26.6 c2,3.1,5.7,4.3,8.3,2.8c2.6-1.6,3.1-5.4,1.1-8.5c-2-3.1-5.7-4.3-8.3-2.8C19.6,19.7,19.1,23.5,21.1,26.6L21.1,26.6z M22.5,25.7 c-1.4-2.1-1-4.8,0.8-5.9c1.8-1.1,4.4-0.2,5.8,1.9c1.4,2.1,1,4.8-0.8,5.9C26.5,28.7,23.9,27.9,22.5,25.7z" enable-background="new" opacity=".5"/></g></g><g id="Layer_2_1_"><rect id="path3" width="48" height="48" fill="none"/></g></svg>