<svg xmlns="http://www.w3.org/2000/svg" xmlns:xlink="http://www.w3.org/1999/xlink" id="svg602" width="48" height="48" enable-background="new 0 0 48 48" overflow="visible" viewBox="0 0 48 48" xml:space="preserve"><g id="Layer_3"><path id="path606" d="M17,42.4c0,3.2,2.8,5.6,6.3,5.6c3.6,0,6.3-2.5,6.3-5.6s-2.8-5.6-6.3-5.6S17,39.2,17,42.4z"/><path id="path607" d="M0,40.8v4.5h48v-5.6c0,0-20.4,0-22,0c0-2.1,0-26.8,0-26.8h-4.8c0,0,0,24.7,0,26.8c-1.6,0-21.2,0-21.2,0 V40.8L0,40.8z"/><linearGradient id="rect620_1_" x1="-143.519" x2="-143.519" y1="49.026" y2="52.558" gradientTransform="matrix(1 0 0 1 167.6685 -8.1084)" gradientUnits="userSpaceOnUse"><stop style="stop-color:#c2c4b5" id="stop609" offset="0"/><stop style="stop-color:#e1e1d1" id="stop610" offset=".185"/><stop style="stop-color:#f1f2e1" id="stop611" offset=".315"/><stop style="stop-color:#83867b" id="stop612" offset="1"/></linearGradient><rect id="rect620" width="46.3" height="3.5" x="1" y="40.9" fill="url(#rect620_1_)"/><linearGradient id="path633_1_" x1="-145.659" x2="-142.784" y1="35.89" y2="35.89" gradientTransform="matrix(1 0 0 1 167.6685 -8.1084)" gradientUnits="userSpaceOnUse"><stop style="stop-color:#c2c4b5" id="stop622" offset="0"/><stop style="stop-color:#e1e1d1" id="stop623" offset=".185"/><stop style="stop-color:#f1f2e1" id="stop624" offset=".315"/><stop style="stop-color:#83867b" id="stop625" offset="1"/></linearGradient><path id="path633" fill="url(#path633_1_)" d="M24.9,40.9c0,0.8-2.9,0.7-2.9,0V14.1h2.9V40.9L24.9,40.9z"/><radialGradient id="circle640_1_" cx="-1829.066" cy="-575.32" r="44.258" fx="-1829.066" fy="-575.32" gradientTransform="matrix(0.1195 0 0 0.1273 240.6134 114.7079)" gradientUnits="userSpaceOnUse"><stop style="stop-color:#f1f200" id="stop635" offset="0"/><stop style="stop-color:red" id="stop636" offset="1"/></radialGradient><circle id="circle640" cx="23.2" cy="42.3" r="4.5" fill="url(#circle640_1_)"/></g><g id="Layer_2_1_"><polygon id="polygon649" points="11.7 11.4 11.7 29.3 24.8 34.6 38.3 23.2 38.3 5.3 25.2 0"/><linearGradient id="polygon712_1_" x1="-782.402" x2="-783.242" y1="830.156" y2="838.556" gradientTransform="matrix(1 0 0 -1 808.0547 845.3809)" gradientUnits="userSpaceOnUse"><stop style="stop-color:#f2f2f2" id="stop644" offset="0"/><stop style="stop-color:#eee" id="stop645" offset=".312"/><stop style="stop-color:#e0e0e0" id="stop646" offset=".665"/><stop style="stop-color:#ccc" id="stop647" offset="1"/></linearGradient><polygon id="polygon712" fill="url(#polygon712_1_)" points="24.5 16.6 13.2 12.1 15.6 10 16 10.2 15.9 9.7 25.5 1.7 36.9 6.3"/><linearGradient id="polygon722_1_" x1="-783.385" x2="-789.185" y1="812.375" y2="822.797" gradientTransform="matrix(1 0 0 -1 808.0547 845.3809)" gradientUnits="userSpaceOnUse"><stop style="stop-color:#e6e6e6" id="stop657" offset="0"/><stop style="stop-color:#c7c7c7" id="stop658" offset=".621"/><stop style="stop-color:#b3b3b3" id="stop659" offset="1"/></linearGradient><polygon id="polygon722" fill="url(#polygon722_1_)" points="24.5 33.1 17.9 30.4 17.8 30.1 17.3 30.2 13.2 28.5 13.2 12.1 17.3 13.7 17.9 13.8 17.9 14 24.5 16.6"/><polygon id="polygon723" points="17.8 30.1 17.3 30.1 17.3 13.8 17.9 13.8 17.8 14" enable-background="new" opacity=".3"/><rect id="polygon724" width=".6" height="16.4" x="17.8" y="14.1" fill="#FFF" enable-background="new" opacity=".8"/><linearGradient id="polygon734_1_" x1="-774.587" x2="-781.397" y1="823.514" y2="828.848" gradientTransform="matrix(1 0 0 -1 808.0547 845.3809)" gradientUnits="userSpaceOnUse"><stop style="stop-color:#999" id="stop669" offset="0"/><stop style="stop-color:#7b7b7b" id="stop670" offset=".684"/><stop style="stop-color:#6b6b6b" id="stop671" offset="1"/></linearGradient><polygon id="polygon734" fill="url(#polygon734_1_)" points="36.9 22.7 27.3 30.8 26.8 30.6 26.8 31.1 24.5 33.1 24.5 16.6 36.9 6.3"/><polygon id="polygon735" fill="#FFF" points="16 9.7 27.2 14.4 27.8 13.9 16.4 9.4" enable-background="new" opacity=".8"/><rect id="polygon736" width=".8" height="16.4" x="27.1" y="14.1" fill="#242424" enable-background="new" opacity=".6"/><polygon id="polygon737" fill="#FFF" points="13.2 12.1 13.2 12.5 17.3 14.2 17.3 13.8 17.9 13.8 17.8 14.4 24.5 17.1 24.6 16.7 24.9 16.3 13.5 11.8" enable-background="new" opacity=".84"/><polygon id="polygon738" points="16 10.2 26.8 14.7 26.8 30.6 27.2 30.8 27.2 14.4 15.9 9.7" enable-background="new" opacity=".3"/><linearGradient id="polygon722_5_" x1="-90.485" x2="-88.128" y1="19.399" y2="19.399" gradientTransform="matrix(1 0 0 1 110.3721 9.765625e-004)" gradientUnits="userSpaceOnUse"><stop style="stop-color:#00a200" id="stop683" offset="0"/><stop style="stop-color:#0f0" id="stop684" offset="1"/></linearGradient><polygon id="polygon722_2_" fill="url(#polygon722_5_)" points="22.2 21.1 20.9 20.7 20.9 20.6 20.7 20.6 19.9 20.4 19.9 17.7 20.7 18 20.9 18 20.9 18 22.2 18.5"/><linearGradient id="polygon722_6_" x1="-90.485" x2="-88.128" y1="23.799" y2="23.799" gradientTransform="matrix(1 0 0 1 110.3721 9.765625e-004)" gradientUnits="userSpaceOnUse"><stop style="stop-color:#f70" id="stop690" offset=".006"/><stop style="stop-color:#ffdc00" id="stop691" offset="1"/></linearGradient><polygon id="polygon722_3_" fill="url(#polygon722_6_)" points="22.2 25.5 20.9 25.1 20.9 25 20.7 25 19.9 24.8 19.9 22.1 20.7 22.4 20.9 22.4 20.9 22.4 22.2 22.9"/><linearGradient id="polygon722_7_" x1="-90.485" x2="-88.128" y1="28.249" y2="28.249" gradientTransform="matrix(1 0 0 1 110.3721 9.765625e-004)" gradientUnits="userSpaceOnUse"><stop style="stop-color:#a20000" id="stop697" offset="0"/><stop style="stop-color:red" id="stop698" offset="1"/></linearGradient><polygon id="polygon722_4_" fill="url(#polygon722_7_)" points="22.2 29.9 20.9 29.5 20.9 29.4 20.7 29.5 19.9 29.2 19.9 26.6 20.7 26.8 20.9 26.8 20.9 26.9 22.2 27.3"/></g></svg>