<svg xmlns="http://www.w3.org/2000/svg" xmlns:xlink="http://www.w3.org/1999/xlink" id="svg602" width="48" height="48" enable-background="new 0 0 48 48" overflow="visible" viewBox="0 0 48 48" xml:space="preserve"><g id="Layer_1_2_"><g id="g604"><linearGradient id="XMLID_1_" x1="-219.974" x2="-219.974" y1="327.746" y2="388.917" gradientTransform="matrix(1 0 0 -1 243.9736 380.9727)" gradientUnits="userSpaceOnUse"><stop style="stop-color:#ffc200" id="stop608" offset="0"/><stop style="stop-color:#f7b500" id="stop609" offset=".155"/><stop style="stop-color:#de8800" id="stop610" offset=".716"/><stop style="stop-color:#d47700" id="stop611" offset="1"/></linearGradient><path id="path619" fill="url(#XMLID_1_)" d="M0,24c0,13.2,10.8,24,24,24c13.2,0,24-10.8,24-24C48,10.8,37.2,0,24,0C10.8,0,0,10.8,0,24z M2.2,24C2.2,12,12,2.2,24,2.2S45.8,12,45.8,24S36,45.8,24,45.8S2.2,36,2.2,24z"/><linearGradient id="path620_1_" x1="-219.973" x2="-219.973" y1="367.538" y2="327.227" gradientTransform="matrix(1 0 0 -1 243.9736 380.9727)" gradientUnits="userSpaceOnUse"><stop style="stop-color:#ffa700" id="stop621" offset="0"/><stop style="stop-color:#ff0" id="stop622" offset=".691"/><stop style="stop-color:#fffc00" id="stop623" offset=".792"/><stop style="stop-color:#fff400" id="stop624" offset=".855"/><stop style="stop-color:#ffe500" id="stop625" offset=".907"/><stop style="stop-color:#ffd100" id="stop626" offset=".953"/><stop style="stop-color:#ffb700" id="stop627" offset=".995"/><stop style="stop-color:#ffb300" id="stop628" offset="1"/></linearGradient><circle id="path620" cx="24" cy="24" r="22.9" fill="url(#path620_1_)"/><radialGradient id="path629_1_" cx="-222.711" cy="303.806" r="93.467" fx="-222.711" fy="303.806" gradientTransform="matrix(0.3838 0 0 -0.3838 108.4344 161.0193)" gradientUnits="userSpaceOnUse"><stop style="stop-color:#ff0" id="stop646" offset="0"/><stop style="stop-color:#fff100" id="stop647" offset=".164"/><stop style="stop-color:#ffc400" id="stop648" offset=".719"/><stop style="stop-color:#ffb300" id="stop649" offset="1"/></radialGradient><ellipse id="path629" cx="24" cy="27.8" fill="url(#path629_1_)" rx="20.9" ry="17.2"/><linearGradient id="path633_1_" x1="-219.973" x2="-219.973" y1="377.739" y2="355.093" gradientTransform="matrix(1 0 0 -1 243.9736 380.9727)" gradientUnits="userSpaceOnUse"><stop style="stop-color:#fff" id="stop659" offset=".075"/><stop style="stop-color:#fff" id="stop660" offset="1"/></linearGradient><ellipse id="path633" cx="24" cy="16.2" fill="url(#path633_1_)" enable-background="new" opacity=".8" rx="19.2" ry="13.8"/><g id="g634"><linearGradient id="path641_1_" x1="-219.849" x2="-219.849" y1="387.151" y2="359.8" gradientTransform="matrix(1 0 0 -1 243.9736 380.9727)" gradientUnits="userSpaceOnUse"><stop style="stop-color:#fff" id="stop667" offset="0"/><stop style="stop-color:#000" id="stop668" offset="1"/></linearGradient><path id="path641" fill="url(#path641_1_)" d="M28.4,27.3c0,2-1.6,3.5-3.5,3.5h-1.4c-2,0-3.5-1.6-3.5-3.5V9.9 c0-2,1.6-3.5,3.5-3.5h1.4c2,0,3.5,1.6,3.5,3.5V27.3z"/><linearGradient id="path648_1_" x1="-219.973" x2="-219.973" y1="387.149" y2="359.799" gradientTransform="matrix(1 0 0 -1 243.9736 380.9727)" gradientUnits="userSpaceOnUse"><stop style="stop-color:#fff" id="stop674" offset="0"/><stop style="stop-color:#000" id="stop675" offset="1"/></linearGradient><circle id="path648" cx="24" cy="37.4" r="4.6" fill="url(#path648_1_)"/></g><g id="g649" opacity=".2"><linearGradient id="path656_1_" x1="-217.758" x2="-217.758" y1="382.812" y2="357.928" gradientTransform="matrix(1 0 0 -1 243.9736 380.9727)" gradientUnits="userSpaceOnUse"><stop style="stop-color:#fff" id="stop682" offset="0"/><stop style="stop-color:#000" id="stop683" offset="1"/></linearGradient><path id="path656" fill="url(#path656_1_)" d="M30.1,28.6c0,1.8-1.4,3.2-3.2,3.2h-1.3c-1.8,0-3.2-1.4-3.2-3.2V12.8 c0-1.8,1.4-3.2,3.2-3.2h1.3c1.8,0,3.2,1.4,3.2,3.2V28.6z"/><linearGradient id="path663_1_" x1="-217.871" x2="-217.871" y1="382.81" y2="357.928" gradientTransform="matrix(1 0 0 -1 243.9736 380.9727)" gradientUnits="userSpaceOnUse"><stop style="stop-color:#fff" id="stop689" offset="0"/><stop style="stop-color:#000" id="stop690" offset="1"/></linearGradient><circle id="path663" cx="26.1" cy="37.8" r="4.2" fill="url(#path663_1_)"/></g></g></g></svg>