<svg xmlns="http://www.w3.org/2000/svg" xmlns:xlink="http://www.w3.org/1999/xlink" id="svg602" width="48" height="48" enable-background="new 0 0 48 48" overflow="visible" viewBox="0 0 48 48" xml:space="preserve"><g id="Layer_1_2_"><path id="path604" fill="none" d="M13,39.7c1.7,0.2,3.6-1.1,4.5-3.1c-0.1-1.5-1-2.7-2.3-2.8 c-1.5-0.2-3.3,0.8-4.3,2.5C10.7,38.1,11.5,39.5,13,39.7z"/><g id="g605"><linearGradient id="path609_1_" x1="-223.05" x2="-223.05" y1="332.758" y2="345.059" gradientTransform="matrix(1 0 0 -1 247.0498 382.0273)" gradientUnits="userSpaceOnUse"><stop style="stop-color:#9e9e9e" id="stop609" offset="0"/><stop style="stop-color:#616161" id="stop610" offset="1"/></linearGradient><ellipse id="path609" cx="24" cy="41.6" fill="url(#path609_1_)" rx="16.4" ry="6.4"/><linearGradient id="path616_1_" x1="-223.044" x2="-223.044" y1="341.861" y2="333.751" gradientTransform="matrix(1 0 0 -1 247.0498 382.0273)" gradientUnits="userSpaceOnUse"><stop style="stop-color:#fff" id="stop616" offset="0"/><stop style="stop-color:#cfcfcf" id="stop617" offset="1"/></linearGradient><ellipse id="path616" cx="24" cy="41.4" fill="url(#path616_1_)" rx="15.9" ry="5.5"/><linearGradient id="path620_1_" x1="-228.925" x2="-217.413" y1="347.359" y2="334.686" gradientTransform="matrix(1 0 0 -1 247.0498 382.0273)" gradientUnits="userSpaceOnUse"><stop style="stop-color:#fff" id="stop623" offset=".034"/><stop style="stop-color:#878787" id="stop624" offset="1"/></linearGradient><ellipse id="path620" cx="23.6" cy="40.7" fill="url(#path620_1_)" enable-background="new" opacity=".5" rx="9.6" ry="2.1"/><linearGradient id="path624_1_" x1="-223.407" x2="-223.407" y1="339.383" y2="351.62" gradientTransform="matrix(1 0 0 -1 247.0498 382.0273)" gradientUnits="userSpaceOnUse"><stop style="stop-color:#9e9e9e" id="stop630" offset="0"/><stop style="stop-color:#616161" id="stop631" offset="1"/></linearGradient><ellipse id="path624" cx="23.6" cy="35" fill="url(#path624_1_)" rx="9.6" ry="6.4"/><linearGradient id="path628_1_" x1="-223.407" x2="-223.407" y1="341.396" y2="347.13" gradientTransform="matrix(1 0 0 -1 247.0498 382.0273)" gradientUnits="userSpaceOnUse"><stop style="stop-color:#fff" id="stop637" offset="0"/><stop style="stop-color:#cfcfcf" id="stop638" offset="1"/></linearGradient><ellipse id="path628" cx="23.6" cy="35.2" fill="url(#path628_1_)" rx="9" ry="6"/><linearGradient id="path632_1_" x1="-229.625" x2="-216.549" y1="353.58" y2="339.186" gradientTransform="matrix(1 0 0 -1 247.0498 382.0273)" gradientUnits="userSpaceOnUse"><stop style="stop-color:#fff" id="stop644" offset=".034"/><stop style="stop-color:#878787" id="stop645" offset="1"/></linearGradient><rect id="path632" width="19.2" height="2.7" x="14.1" y="34" fill="url(#path632_1_)" enable-background="new" opacity=".5"/><g id="g633"><linearGradient id="XMLID_1_" x1="-223.05" x2="-223.05" y1="343.049" y2="376.932" gradientTransform="matrix(1 0 0 -1 247.0498 382.0273)" gradientUnits="userSpaceOnUse"><stop style="stop-color:#9e9e9e" id="stop652" offset="0"/><stop style="stop-color:#616161" id="stop653" offset="1"/></linearGradient><path id="path657" fill="url(#XMLID_1_)" d="M4.6,0C2.1,0,0,1.9,0,4.3v26.9c0,2.4,2.1,4.3,4.6,4.3h38.8c2.5,0,4.6-1.9,4.6-4.3V4.3 C48,1.9,45.9,0,43.4,0H4.6 M1.1,31.2V4.3C1.1,2.5,2.7,1,4.6,1h38.8c1.9,0,3.5,1.5,3.5,3.3v26.9c0,1.8-1.6,3.3-3.5,3.3H4.6 C2.7,34.5,1.1,33,1.1,31.2z"/><linearGradient id="path641_1_" x1="-223.417" x2="-221.769" y1="354.847" y2="397.196" gradientTransform="matrix(1 0 0 -1 247.0498 382.0273)" gradientUnits="userSpaceOnUse"><stop style="stop-color:#fff" id="stop659" offset=".034"/><stop style="stop-color:#b2b2b2" id="stop660" offset="1"/></linearGradient><path id="path641" fill="url(#path641_1_)" d="M47.5,31.2c0,2.1-1.8,3.8-4.1,3.8H4.6c-2.2,0-4.1-1.7-4.1-3.8V4.3 c0-2.1,1.8-3.8,4.1-3.8h38.8c2.2,0,4.1,1.7,4.1,3.8V31.2z"/><linearGradient id="path645_1_" x1="-229.431" x2="-199.009" y1="370.668" y2="340.246" gradientTransform="matrix(1 0 0 -1 247.0498 382.0273)" gradientUnits="userSpaceOnUse"><stop style="stop-color:#fff" id="stop666" offset=".034"/><stop style="stop-color:#b2b2b2" id="stop667" offset="1"/></linearGradient><path id="path645" fill="url(#path645_1_)" d="M47,30.9c0,2-1.8,3.7-3.9,3.7H4.9C2.7,34.6,1,33,1,30.9V4.6c0-2,1.8-3.7,3.9-3.7 h38.2c2.2,0,3.9,1.6,3.9,3.7V30.9z"/><linearGradient id="path649_1_" x1="-246.389" x2="-246.389" y1="391.798" y2="360.012" gradientTransform="matrix(1 0 0 -1 247.0498 382.0273)" gradientUnits="userSpaceOnUse"><stop style="stop-color:#fff" id="stop673" offset="0"/><stop style="stop-color:#fff" id="stop674" offset="1"/></linearGradient><path id="path649" fill="url(#path649_1_)" d="M0.3,23.1c0,1.4,0.2,2.8,0.6,4.1c0,0,0.1,0,0.1,0v-16C0.6,12.7,0.3,21.6,0.3,23.1z" enable-background="new"/><linearGradient id="path653_1_" x1="-222.919" x2="-222.919" y1="382.016" y2="358.903" gradientTransform="matrix(1 0 0 -1 247.0498 382.0273)" gradientUnits="userSpaceOnUse"><stop style="stop-color:#fff" id="stop680" offset="0"/><stop style="stop-color:#fff" id="stop681" offset="1"/></linearGradient><path id="path653" fill="url(#path653_1_)" d="M42.8,1.2H5.5c-2.1,0-3.8,1.6-3.8,3.5v22.2c2.8,0.5,12.9,2.1,20.2-7C30.6,9,43.4,10.3,46.6,9.5V4.8C46.6,2.8,44.9,1.2,42.8,1.2 z" enable-background="new"/><radialGradient id="path660_1_" cx="-296.248" cy="324.009" r="61.608" fx="-296.248" fy="324.009" gradientTransform="matrix(0.4194 0 0 -0.3904 146.835 163.7798)" gradientUnits="userSpaceOnUse"><stop style="stop-color:#85caff" id="stop687" offset="0"/><stop style="stop-color:#003da9" id="stop688" offset="1"/></radialGradient><rect id="path660" width="38.5" height="26.2" x="4.7" y="4.7" fill="url(#path660_1_)"/><linearGradient id="path667_1_" x1="-223.078" x2="-223.078" y1="358.586" y2="393.122" gradientTransform="matrix(1 0 0 -1 247.0498 382.0273)" gradientUnits="userSpaceOnUse"><stop style="stop-color:#ccc" id="stop694" offset="0"/><stop style="stop-color:#616161" id="stop695" offset="1"/></linearGradient><polygon id="path667" fill="url(#path667_1_)" points="43.3 4.6 4.7 4.6 4.7 30.8 5.3 30.8 5.3 5.2 43.3 5.2 43.3 4.6"/><polygon id="path668" fill="#FFF" points="42.7 4.6 42.7 30.2 4.7 30.2 4.7 30.8 42.7 30.8 42.7 30.8 43.3 30.8 43.3 4.6"/><radialGradient id="path675_1_" cx="-299.231" cy="404.13" r="67.632" fx="-299.231" fy="404.13" gradientTransform="matrix(0.4224 0 0 -0.3598 149.5823 148.6862)" gradientUnits="userSpaceOnUse"><stop style="stop-color:#85caff" id="stop702" offset="0"/><stop style="stop-color:#003da9" id="stop703" offset="1"/></radialGradient><path id="path675" fill="url(#path675_1_)" d="M5.8,10.1c0,5.4,8.2,9.7,18.2,9.7c10.1,0,18.3-4.4,18.3-9.7 c0-1.8-0.9-3.5-2.5-4.9H8.3C6.7,6.6,5.8,8.3,5.8,10.1z"/></g></g></g></svg>