<svg xmlns="http://www.w3.org/2000/svg" xmlns:xlink="http://www.w3.org/1999/xlink" id="svg602" width="50.8" height="48.3" enable-background="new 0 0 50.8 48.3" overflow="visible" viewBox="0 0 50.8 48.3" xml:space="preserve"><g id="Layer_3"><g id="g622"><linearGradient id="path724_1_" x1="-783.514" x2="-783.514" y1="499.627" y2="440.577" gradientTransform="matrix(1 0 0 -1 805.4922 483.8262)" gradientUnits="userSpaceOnUse"><stop style="stop-color:#b8b8b8" id="stop608" offset="0"/><stop style="stop-color:#e9e9e9" id="stop609" offset=".253"/><stop style="stop-color:#909090" id="stop610" offset=".298"/><stop style="stop-color:#919191" id="stop611" offset=".299"/><stop style="stop-color:#aaa" id="stop612" offset=".346"/><stop style="stop-color:#bebebe" id="stop613" offset=".397"/><stop style="stop-color:#ccc" id="stop614" offset=".457"/><stop style="stop-color:#d4d4d4" id="stop615" offset=".529"/><stop style="stop-color:#d6d6d6" id="stop616" offset=".657"/><stop style="stop-color:#a2a2a2" id="stop617" offset="1"/></linearGradient><path id="path724" fill="url(#path724_1_)" stroke="#000" stroke-linecap="round" stroke-linejoin="round" stroke-width="4.307" d="M41.3,37L20.6,15.6c1.2-2.9,2.4-6.7,1.7-8.4c-1.7-2.6-7.9-5-7.9-5L12,4.6l4.3,4.3l-1.7,6l-5.8,1.4L4.6,12l-2.4,2.4 c0,0,1.4,6.7,5,7.9c2.2,0.7,5.5-0.5,8.2-1.4l20.4,21.4c1.4,1.4,3.6,1.4,5,0c1.4-1.4,1.4-3.6,0-5L41.3,37z"/><linearGradient id="path752_1_" x1="-793.238" x2="-793.238" y1="483.324" y2="440.248" gradientTransform="matrix(1 0 0 -1 805.4922 483.8262)" gradientUnits="userSpaceOnUse"><stop style="stop-color:#b8b8b8" id="stop639" offset="0"/><stop style="stop-color:#f8f8f8" id="stop640" offset=".253"/><stop style="stop-color:#c2c2c2" id="stop641" offset=".298"/><stop style="stop-color:#c6c6c6" id="stop642" offset=".307"/><stop style="stop-color:#d9d9d9" id="stop643" offset=".365"/><stop style="stop-color:#e7e7e7" id="stop644" offset=".431"/><stop style="stop-color:#f0f0f0" id="stop645" offset=".513"/><stop style="stop-color:#f2f2f2" id="stop646" offset=".657"/><stop style="stop-color:#a2a2a2" id="stop647" offset="1"/></linearGradient><path id="path752" fill="url(#path752_1_)" d="M22.1,7.2c-1.4-2.6-7.7-5-7.7-5L12,4.6l4.3,4.3l-1.7,6l-5.8,1.4L4.6,12l-2.4,2.4 c0,0,1.4,6.7,5,7.9c3.6,1.2,11.8-3.1,11.8-3.1s4.6-8.9,3.1-11.8V7.2z"/><line id="line753" x1="16.8" x2="40.6" y1="16.8" y2="41.8" fill="#787878"/><linearGradient id="path781_1_" x1="-777.489" x2="-777.489" y1="481.42" y2="440.926" gradientTransform="matrix(1 0 0 -1 805.4922 483.8262)" gradientUnits="userSpaceOnUse"><stop style="stop-color:#b8b8b8" id="stop668" offset="0"/><stop style="stop-color:#f8f8f8" id="stop669" offset=".253"/><stop style="stop-color:#c2c2c2" id="stop670" offset=".298"/><stop style="stop-color:#c6c6c6" id="stop671" offset=".307"/><stop style="stop-color:#d9d9d9" id="stop672" offset=".365"/><stop style="stop-color:#e7e7e7" id="stop673" offset=".431"/><stop style="stop-color:#f0f0f0" id="stop674" offset=".513"/><stop style="stop-color:#f2f2f2" id="stop675" offset=".657"/><stop style="stop-color:#a2a2a2" id="stop676" offset="1"/></linearGradient><path id="path781" fill="url(#path781_1_)" d="M14.9,14.9c-1.4,1.4-1.4,3.6,0,5L36.2,42c1.4,1.4,3.6,1.4,5,0 c1.4-1.4,1.4-3.6,0-5L19.9,14.9C18.5,13.4,16.3,13.4,14.9,14.9z"/><path id="path782" fill="#FFF" d="M12.7,5.3L12,4.6l2.4-2.4c0,0,5.3,1.9,7.2,4.1c-2.6-1.7-7-2.9-7-2.9L12.7,5.3z"/><polygon id="polygon783" fill="#FFF" points="2.2 14.4 4.6 12 8.9 16.3 14.9 14.6 16.3 8.6 15.6 15.4 8.4 17.8 4.6 13.4 2.4 15.6"/><polygon id="polygon784" fill="#FFF" points="20.4 15.4 41 37 21.1 17.8 20.4 15.1"/><radialGradient id="path791_1_" cx="-754.595" cy="428.554" r="1.36" fx="-754.595" fy="428.554" gradientTransform="matrix(1.6135 0 0 -1.6135 1255.652 730.2909)" gradientUnits="userSpaceOnUse"><stop style="stop-color:#4d4d4d" id="stop699" offset="0"/><stop style="stop-color:#b8b8b8" id="stop700" offset="1"/></radialGradient><path id="path791" fill="url(#path791_1_)" d="M40.1,39.8c0,0.7-0.7,1.4-1.4,1.4c-0.7,0-1.4-0.7-1.4-1.4c0-0.7,0.7-1.4,1.4-1.4 C39.4,38.4,40.1,39.1,40.1,39.8z"/><path id="path792" fill="none" stroke="#000" stroke-linecap="round" stroke-linejoin="round" stroke-width="4.307" d="M45.8,4.3l-7.2,4.1l-1,2.9l1,1l-13,13c-1.7-1-4.1-0.7-5.5,0.7L7.9,38.4c-1.7,1.7-1.7,4.6,0,6.5c1.7,1.7,4.6,1.7,6.5,0l12.2-12.2 c1.4-1.4,1.7-3.8,0.7-5.5l13-13l1.2,1.2l3.4-1l3.8-7l-2.9-2.9V4.3z"/><path id="path793" fill="#B5B5B5" d="M40.6,10.8L25.7,25.7c-0.5,0.5-0.5,1.2,0,1.7s1.2,0.5,1.7,0l14.9-14.9 c0.5-0.5,0.5-1.2,0-1.7S41,10.3,40.6,10.8z"/><linearGradient id="path827_1_" x1="-497.183" x2="-486.914" y1="-20.41" y2="-10.14" gradientTransform="matrix(1 0 0 1 510.9922 52.4189)" gradientUnits="userSpaceOnUse"><stop style="stop-color:red" id="stop708" offset=".006"/><stop style="stop-color:#ff1003" id="stop709" offset=".027"/><stop style="stop-color:#ff420b" id="stop710" offset=".098"/><stop style="stop-color:#ff6f13" id="stop711" offset=".175"/><stop style="stop-color:#ff9619" id="stop712" offset=".256"/><stop style="stop-color:#ffb61f" id="stop713" offset=".342"/><stop style="stop-color:#ffd123" id="stop714" offset=".433"/><stop style="stop-color:#ffe527" id="stop715" offset=".533"/><stop style="stop-color:#fff429" id="stop716" offset=".645"/><stop style="stop-color:#fffc2b" id="stop717" offset=".78"/><stop style="stop-color:#ffff2b" id="stop718" offset="1"/></linearGradient><path id="path827" fill="url(#path827_1_)" d="M20.2,26.4L8,38.4c-1.7,1.7-1.7,4.6,0,6.5c1.7,1.7,4.6,1.7,6.5,0l12.2-12.2 c1.7-1.7,1.7-4.6,0-6.5c-1.7-1.7-4.6-1.7-6.5,0V26.4z"/><linearGradient id="polygon861_1_" x1="-497.533" x2="-486.426" y1="-20.681" y2="-9.364" gradientTransform="matrix(1 0 0 1 510.9922 52.4189)" gradientUnits="userSpaceOnUse"><stop style="stop-color:red" id="stop742" offset=".006"/><stop style="stop-color:#ff1003" id="stop743" offset=".027"/><stop style="stop-color:#ff420b" id="stop744" offset=".098"/><stop style="stop-color:#ff6f13" id="stop745" offset=".175"/><stop style="stop-color:#ff9619" id="stop746" offset=".256"/><stop style="stop-color:#ffb61f" id="stop747" offset=".342"/><stop style="stop-color:#ffd123" id="stop748" offset=".433"/><stop style="stop-color:#ffe527" id="stop749" offset=".533"/><stop style="stop-color:#fff429" id="stop750" offset=".645"/><stop style="stop-color:#fffc2b" id="stop751" offset=".78"/><stop style="stop-color:#ffff2b" id="stop752" offset="1"/></linearGradient><polygon id="polygon861" fill="url(#polygon861_1_)" points="20.2 26.4 26.6 32.9 14.4 45.1 7.9 38.4 20.2 26.2"/><line id="line862" x1="23" x2="9.6" y1="28.1" y2="41.5" fill="none" stroke="#FFF" stroke-linecap="round" stroke-width="1.436" enable-background="new" opacity=".53"/><linearGradient id="polygon875_1_" x1="-764.335" x2="-757.726" y1="477.023" y2="468.414" gradientTransform="matrix(1 0 0 -1 805.4922 483.8262)" gradientUnits="userSpaceOnUse"><stop style="stop-color:#a7a7a7" id="stop777" offset="0"/><stop style="stop-color:#afafaf" id="stop778" offset=".242"/><stop style="stop-color:#c5c5c5" id="stop779" offset=".62"/><stop style="stop-color:#e2e2e2" id="stop780" offset="1"/></linearGradient><polygon id="polygon875" fill="url(#polygon875_1_)" points="37.7 11.5 41.5 15.4 44.9 14.4 48.7 7.4 45.8 4.6 38.6 8.6"/><polygon id="polygon876" fill="#FFF" points="45.8 4.3 38.6 8.4 37.7 11.3 38.6 12.2 25.7 25.2 40.6 12.2 39.1 11 39.6 8.9" enable-background="new" opacity=".7"/></g><rect id="rect806" width="48" height="48" x="1.4" y=".1" fill="none"/></g></svg>