<svg xmlns="http://www.w3.org/2000/svg" xmlns:xlink="http://www.w3.org/1999/xlink" id="svg602" width="48" height="48" enable-background="new 0 0 48 48" overflow="visible" viewBox="0 0 48 48" xml:space="preserve"><g id="Layer_x0020_1"><rect id="rect605" width="48" height="48" fill="none"/></g><g id="Layer_x0020_3"><g id="g607"><path id="path608" fill="#5B0000" d="M11,28.6c1.3,4.6,7.2,5.3,12.1,5.8c2.2,0.2,5,0.5,5.8,1.3c1.9,1.9-0.2,5.9-0.2,5.9l-1.9,3.3l3.5-1.2 c3-1.1,11.6-3.3,15-0.8l2.4,1.8l-0.2-3c-0.4-5-1.7-8.5-4.1-10.5c-3.4-2.8-8.2-2.4-13.3-1.9c-5.4,0.5-11.6,1.2-16.9-2.2L10,25 l0.9,3.5L11,28.6z"/><path id="path609" d="M15.5,3.8c-3.3,0.8-6.6,2.8-9.2,5.5c-2.6,2.7-4.6,6-5.5,9.2c-0.3,1.4-0.5,2.6-0.5,3.9s0.2,2.5,0.5,3.8 c0.7,2.3,2,4.3,3.9,5.7c2.1,2.9,5.5,4.5,9.5,4.5c4.7,0,9.7-2.1,13.3-5.9c3.8-3.8,5.9-8.6,5.9-13.3c0-3.9-1.6-7.1-4.3-9.2 c-1.4-1.9-3.4-3.4-5.8-4.1c-2.4-0.7-5.1-0.7-7.9,0H15.5z"/><linearGradient id="XMLID_7_" x1="-256.135" x2="-250.08" y1="427.987" y2="421.031" gradientTransform="matrix(1 0 0 -1 276.0498 451.3877)" gradientUnits="userSpaceOnUse"><stop style="stop-color:#000095" id="stop611" offset="0"/><stop style="stop-color:#28284e" id="stop612" offset="1"/></linearGradient><path id="path616" fill="url(#XMLID_7_)" d="M17.8,7.5C11.6,9.2,5.9,14.8,4.3,21c-1.8,7,1.9,13.4,9.5,13.4c9,0,17.5-8.5,17.5-17.5 C31.3,9.3,24.8,5.6,17.8,7.5z M13.9,25.1c-0.4,2.5-2.6,4.6-4.8,4.7c-2.1,0.1-3.3-1.8-2.7-4.1c0.5-2.2,2.4-4.2,4.4-4.4 c2.1-0.3,3.5,1.4,3.1,3.7V25.1z M15.4,14.4c-0.3,2-2.3,4-4.3,4.3c-1.9,0.3-3-1-2.6-2.9c0.4-1.8,2.2-3.6,4-4 C14.4,11.4,15.8,12.5,15.4,14.4z M26,24c-0.1,2.7-2.6,5.3-5.4,5.4c-2.6,0.1-4.4-1.9-4-4.5c0.3-2.4,2.5-4.6,4.9-4.9 c2.5-0.3,4.6,1.4,4.5,4L26,24z M26.6,12.2c-0.1,2.2-2.3,4.4-4.8,4.8c-2.4,0.4-4-1-3.7-3c0.3-2,2.2-3.9,4.4-4.4 c2.3-0.5,4.2,0.6,4.1,2.7V12.2z"/><radialGradient id="XMLID_8_" cx="-261.597" cy="435.1" r="11.424" fx="-261.597" fy="435.1" gradientTransform="matrix(1 0 0 -1 276.0498 451.3877)" gradientUnits="userSpaceOnUse"><stop style="stop-color:#000045" id="stop618" offset="0"/><stop style="stop-color:#003" id="stop619" offset="1"/></radialGradient><path id="path623" fill="url(#XMLID_8_)" d="M25.5,17.7c0,5.6-5.4,10.9-11,10.9c-4.7,0-7-4-5.9-8.4c1-3.9,4.5-7.5,8.4-8.4 C21.4,10.6,25.5,12.9,25.5,17.7z"/><radialGradient id="XMLID_9_" cx="-251.459" cy="417.576" r="28.319" fx="-251.459" fy="417.576" gradientTransform="matrix(1 0 0 -1 276.0498 451.3877)" gradientUnits="userSpaceOnUse"><stop style="stop-color:#000076" id="stop625" offset="0"/><stop style="stop-color:#000048" id="stop626" offset="1"/></radialGradient><path id="path630" fill="url(#XMLID_9_)" d="M23.8,16c0,5.7-5.4,10.9-10.9,10.9c-4.7,0-7-4-5.9-8.4c1.1-3.9,4.5-7.5,8.4-8.4 c4.4-1.2,8.5,1.2,8.5,5.9H23.8z"/><path id="path631" fill="#00003B" d="M29,10.1c3.7,3.7,3.8,12-1.9,18.3c-5.7,6.4-14.2,7.8-19.2,4.3C22.1,39.5,36.5,20.5,29,10.1z"/><radialGradient id="XMLID_10_" cx="-265.966" cy="424.318" r="14.859" fx="-265.966" fy="424.318" gradientTransform="matrix(1 0 0 -1 276.0498 451.3877)" gradientUnits="userSpaceOnUse"><stop style="stop-color:#ff7600" id="stop633" offset="0"/><stop style="stop-color:#900000" id="stop634" offset="1"/></radialGradient><path id="path638" fill="url(#XMLID_10_)" d="M46.1,41.6c-4.7-3.4-16.3,0.6-16.3,0.6s2.7-4.9,0-7.6c-2.7-2.7-15.8-0.4-17.4-6.4 c14.2,8.7,32.1-7.7,33.7,13.4V41.6z"/><radialGradient id="XMLID_11_" cx="-242.895" cy="422.24" r="15.153" fx="-242.895" fy="422.24" gradientTransform="matrix(1 0 0 -1 276.0498 451.3877)" gradientUnits="userSpaceOnUse"><stop style="stop-color:#ff0" id="stop640" offset="0"/><stop style="stop-color:#b80000" id="stop641" offset="1"/></radialGradient><path id="path645" fill="url(#XMLID_11_)" d="M46,41.5c-4.7-3.4-16.3,0.6-16.3,0.6s6.1-9.7-5.8-11.3C38,29.3,45.5,28.6,46,41.5z"/><path id="path646" fill="red" d="M30.9,33.8c1.5,5.4-1.2,8.3-1.2,8.3s2.4-4.3,0.5-8c-2.3-4.4-12.6-0.3-18-6C17.9,33.7,29.3,28,30.9,33.8z"/><linearGradient id="XMLID_12_" x1="-277.025" x2="-247.865" y1="451.474" y2="418.301" gradientTransform="matrix(1 0 0 -1 276.0498 451.3877)" gradientUnits="userSpaceOnUse"><stop style="stop-color:#fff" id="stop648" offset="0"/><stop style="stop-color:#6d6dff" id="stop649" offset="1"/></linearGradient><path id="path653" fill="url(#XMLID_12_)" d="M15.5,5.3C9.4,7,3.7,12.6,2.1,18.8c-1.8,7,1.9,13.4,9.5,13.4c9,0,17.5-8.5,17.5-17.5 C29.1,7.1,22.6,3.4,15.5,5.3z M11.7,22.8c-0.4,2.5-2.6,4.6-4.8,4.7c-2.1,0.1-3.3-1.8-2.7-4.1c0.5-2.2,2.4-4.2,4.4-4.4 c2.1-0.3,3.5,1.4,3.1,3.7V22.8z M13.2,12.2c-0.3,2-2.3,4-4.3,4.3c-1.9,0.3-3-1-2.6-2.9c0.4-1.8,2.2-3.6,4-4 C12.2,9.2,13.6,10.3,13.2,12.2z M23.8,21.7c-0.1,2.7-2.6,5.2-5.4,5.4c-2.6,0.1-4.4-1.9-4-4.5c0.3-2.4,2.5-4.6,4.9-4.9 c2.5-0.3,4.6,1.4,4.5,4L23.8,21.7z M24.4,9.9c-0.1,2.2-2.3,4.4-4.8,4.8c-2.4,0.4-4-1-3.7-3c0.3-2,2.2-3.9,4.4-4.4 c2.3-0.5,4.2,0.6,4.1,2.7V9.9z"/><path id="path654" fill="#3B3B3B" d="M22.6,18.5c-1.6-1.4-4.4-1.3-6.3,0.6c-2,2-2.9,5.3-0.4,7.1C12.1,21.5,18.6,16.1,22.6,18.5z"/><path id="path655" fill="#E6E6E6" d="M15.9,26.3c5.1,3.5,11-4.7,6.7-7.8C26.6,22.6,20.5,28.9,15.9,26.3z"/><path id="path656" fill="#545454" d="M12.7,10c-0.7-0.7-2.6-1-4.7,0.8c-1.4,1.3-2.6,3.9-0.8,5.3c-2.2-2.2,2.6-7.9,5.7-6.1H12.7z"/><path id="path657" fill="#E6E6E6" d="M7,16.1c0.7,0.7,2.6,1.1,4.7-0.8c1.4-1.3,2.6-3.9,0.8-5.3c2.2,2.2-2.6,7.9-5.7,6.1H7z"/><path id="path658" fill="#454545" d="M10.5,19.7c-0.7-0.7-2.7-0.9-4.7,0.8c-2.2,2.1-2.5,5.4-0.7,6.6c-2.5-3.3,2.1-9,5.5-7.6V19.7z"/><path id="path659" fill="#E6E6E6" d="M5.4,27.3c0.7,0.7,2.7,0.9,4.7-0.8c2.2-2.1,2.5-5.4,0.7-6.6c2.5,3.3-2.1,9-5.5,7.6V27.3z"/><path id="path660" fill="#545454" d="M23.2,7.6c-0.7-0.7-3.6-0.8-5.7,1c-1.9,1.8-2.4,4-0.8,5.5C14,10.5,19.9,6,23.1,7.5L23.2,7.6z"/><path id="path661" fill="#E6E6E6" d="M17.3,14.5c0.7,0.7,3.6,0.8,5.7-1.1c1.9-1.8,2.4-4,0.8-5.5c2.7,3.6-3.2,8.1-6.4,6.6L17.3,14.5z"/><path id="path662" fill="#00003B" d="M26.7,7.8c3.7,3.7,3.8,12-1.9,18.3c-5.7,6.4-14.2,7.8-19.2,4.3c14.2,6.7,28.8-12.3,21.1-22.7V7.8z"/></g></g></svg>