<svg xmlns="http://www.w3.org/2000/svg" xmlns:xlink="http://www.w3.org/1999/xlink" id="svg602" width="48" height="48" enable-background="new 0 0 48 48" overflow="visible" viewBox="0 0 48 48" xml:space="preserve"><g id="Layer_1"><g id="g606"><rect id="rect606" width="48" height="48" fill="none"/><circle id="circle608" cx="22.7" cy="26.8" r="20.3" fill="#007C00"/><rect id="rect609" width="9.2" height="8.5" x="29.8" y="7.4" fill="#007C00" transform="matrix(-0.7741 -0.633 0.633 -0.7741 53.6774 42.4093)"/><linearGradient id="path624_1_" x1="-388.095" x2="-379.422" y1="10.824" y2="23.513" gradientTransform="matrix(1 0 0 1 399.8457 0)" gradientUnits="userSpaceOnUse"><stop style="stop-color:#fff" id="stop611" offset="0"/><stop style="stop-color:#007c00" id="stop612" offset="1"/></linearGradient><path id="path624" fill="url(#path624_1_)" d="M28.8,11.1c2.8,4.4-0.1,11.5-6.6,15.6C15.9,31,8.4,30.9,5.6,26.5 C2.9,22.1,5.7,15,12.2,10.9C18.6,6.5,26.1,6.7,28.8,11.1z"/><linearGradient id="path631_1_" x1="-552.175" x2="-560.049" y1="399.542" y2="409.791" gradientTransform="matrix(1.0733 9.580456e-002 -9.580457e-002 -1.1252 668.0593 548.134)" gradientUnits="userSpaceOnUse"><stop style="stop-color:#0f0" id="stop618" offset="0"/><stop style="stop-color:#007c00" id="stop619" offset="1"/></linearGradient><path id="path631" fill="url(#path631_1_)" d="M15.9,41.2c4.1,4.9,12.1,5.2,18.2,0.5c6.1-4.6,7.9-12.5,4.2-17.7L15.9,41.2z"/><linearGradient id="polygon638_1_" x1="-610.629" x2="-606.88" y1="493.717" y2="490.842" gradientTransform="matrix(0.7815 -0.2756 0.2756 -0.893 372.7067 280.2341)" gradientUnits="userSpaceOnUse"><stop style="stop-color:#fff" id="stop625" offset="0"/><stop style="stop-color:#007c00" id="stop626" offset=".433"/></linearGradient><polygon id="polygon638" fill="url(#polygon638_1_)" points="34 13 30 9.7 33.5 5.4 37.5 8.7"/><ellipse id="ellipse639" cx="37.4" cy="8" fill="#FFF" stroke="#007C00" stroke-width=".72" rx="2.3" ry="4.4" transform="matrix(-0.6212 0.7837 -0.7837 -0.6212 66.8648 -16.2958)"/><path id="path640" fill="none" stroke="#FFCA00" stroke-linecap="round" stroke-width="2.25" d="M44.2,1.7 C46,3,46.1,5.4,43.4,5.6c-1.1,0.1-2.3-0.5-3.4-0.3c-1,0.3-1.6,1.1-2.2,1.9"/></g></g></svg>