<svg xmlns="http://www.w3.org/2000/svg" xmlns:xlink="http://www.w3.org/1999/xlink" id="svg602" width="48" height="48" enable-background="new 0 0 48 48" overflow="visible" viewBox="0 0 48 48" xml:space="preserve"><g id="Layer_1"><g id="g605"><rect id="rect606" width="48" height="48" fill="none"/><g id="g607"><circle id="circle608" cx="22.7" cy="26.8" r="20.3"/><rect id="rect609" width="9.2" height="8.5" x="29.8" y="7.4" transform="matrix(-0.7741 -0.6331 0.6331 -0.7741 53.6883 42.4425)"/><linearGradient id="path624_1_" x1="-187.319" x2="-173.194" y1="448.594" y2="426.844" gradientTransform="matrix(1 0 0 -1 199.9229 458.8887)" gradientUnits="userSpaceOnUse"><stop style="stop-color:#fff" id="stop612" offset="0"/><stop style="stop-color:#f1f1f1" id="stop613" offset=".026"/><stop style="stop-color:#b9b9b9" id="stop614" offset=".139"/><stop style="stop-color:#888" id="stop615" offset=".255"/><stop style="stop-color:#5e5e5e" id="stop616" offset=".373"/><stop style="stop-color:#3c3c3c" id="stop617" offset=".491"/><stop style="stop-color:#222" id="stop618" offset=".612"/><stop style="stop-color:#0f0f0f" id="stop619" offset=".735"/><stop style="stop-color:#040404" id="stop620" offset=".863"/><stop style="stop-color:#000" id="stop621" offset="1"/></linearGradient><path id="path624" fill="url(#path624_1_)" d="M30.1,10.5C33,15,30,22.3,23.2,26.6C16.5,31,8.6,30.9,5.7,26.4 c-2.9-4.5,0.1-11.8,6.9-16.1C19.3,5.8,27.2,6,30.1,10.5z"/><linearGradient id="path631_1_" x1="-152.329" x2="-160.204" y1="399.543" y2="409.792" gradientTransform="matrix(1.0733 9.580456e-002 -9.580457e-002 -1.1252 238.9055 509.8274)" gradientUnits="userSpaceOnUse"><stop style="stop-color:#666" id="stop643" offset="0"/><stop style="stop-color:#000" id="stop644" offset="1"/></linearGradient><path id="path631" fill="url(#path631_1_)" d="M15.9,41.2c4.1,4.9,12.1,5.2,18.2,0.5c6.1-4.6,7.9-12.5,4.2-17.7L15.9,41.2z"/><linearGradient id="polygon638_1_" x1="-210.783" x2="-207.033" y1="493.717" y2="490.842" gradientTransform="matrix(0.7815 -0.2756 0.2756 -0.893 60.2271 390.4314)" gradientUnits="userSpaceOnUse"><stop style="stop-color:#fff" id="stop650" offset="0"/><stop style="stop-color:#000" id="stop651" offset=".433"/></linearGradient><polygon id="polygon638" fill="url(#polygon638_1_)" points="34 13 30 9.7 33.5 5.4 37.5 8.7"/><ellipse id="ellipse639" cx="37.4" cy="8" fill="#FFF" stroke="#000" stroke-width=".72" rx="2.3" ry="4.4" transform="matrix(0.6211 -0.7837 0.7837 0.6211 7.8887 32.353)"/><path id="path640" fill="none" stroke="#FFCA00" stroke-linecap="round" stroke-width="2.25" d="M44.2,1.7 C46,3,46.1,5.4,43.4,5.6c-1.1,0.1-2.3-0.5-3.4-0.3c-1,0.3-1.6,1.1-2.2,1.9"/></g></g></g></svg>