<svg xmlns="http://www.w3.org/2000/svg" xmlns:xlink="http://www.w3.org/1999/xlink" id="svg602" width="37.7" height="38.1" enable-background="new 0 0 37.7 38.1" overflow="visible" viewBox="0 0 37.7 38.1" xml:space="preserve"><g id="Layer_x0020_1"><g id="g606"><g id="g607"><path id="path608" fill="#1C1B3C" d="M16.5,0C7.3,0-0.3,7.3,0,16.5C0,25.7,7.3,33,16.5,33C25.7,33,33,25.7,33,16.5S25.7,0,16.5,0z M16.5,27.3c-6,0-10.8-4.8-10.8-10.8c-0.2-6,4.8-10.8,10.8-10.8c6,0,10.8,4.8,10.8,10.8S22.5,27.3,16.5,27.3z"/></g></g><path id="path609" fill="#919191" d="M36.7,32.3l-5.2-5.2c-0.8-0.8-2.2-1.2-3.4-0.8c2.2-2.6,3.6-6,3.6-9.8c0-8.4-6.8-15.4-15.4-15.4 C7.9,1.1,0.9,7.9,0.9,16.5c0,8.4,6.8,15.4,15.4,15.4c3.6,0,7-1.4,9.8-3.4c-0.4,1.2-0.2,2.4,0.8,3.4l5.2,5.2 c1.2,1.2,3.4,1.2,4.6,0c1.2-1.2,1.2-3.4,0-4.6V32.3z M16.5,29.9c-7.4,0-13.2-6-13.2-13.2c0-7.4,6-13.2,13.2-13.2 c7.4,0,13.2,6,13.2,13.2C29.7,24.1,23.7,29.9,16.5,29.9z"/><path id="path617" fill="none" stroke="#FFF" stroke-linecap="round" stroke-width=".371" d="M1.9,16.3c0-7.8,6.4-14.2,14.2-14.2" enable-background="new" opacity=".5"/><path id="path618" fill="none" stroke="#FFF" stroke-linecap="round" stroke-width=".371" d="M30.1,17.7c0,7-5.6,12.6-12.6,12.6" enable-background="new" opacity=".5"/><radialGradient id="path634_1_" cx="-851.754" cy="400.764" r="8.671" fx="-851.754" fy="400.764" gradientTransform="matrix(2 0 0 -2 1724.4077 823.8984)" gradientUnits="userSpaceOnUse"><stop style="stop-color:#fff" id="stop613" offset="0"/><stop style="stop-color:#3f4a8e" id="stop614" offset=".73"/><stop style="stop-color:#3a4a92" id="stop615" offset=".839"/><stop style="stop-color:#2c499e" id="stop616" offset=".997"/><stop style="stop-color:#2c499e" id="stop617" offset="1"/></radialGradient><path id="path634" fill="url(#path634_1_)" d="M27.3,16.5c0,6-4.8,10.8-10.8,10.8c-6,0-10.8-4.8-10.8-10.8c-0.2-6,4.8-10.8,10.8-10.8C22.5,5.7,27.3,10.5,27.3,16.5z" enable-background="new" opacity=".47"/><linearGradient id="path641_1_" x1="-861.439" x2="-852.982" y1="412.036" y2="403.579" gradientTransform="matrix(1 0 0 -1 871.4395 421.7988)" gradientUnits="userSpaceOnUse"><stop style="stop-color:#fff" id="stop629" offset="0"/><stop style="stop-color:#a8bddb" id="stop630" offset="1"/></linearGradient><path id="path641" fill="url(#path641_1_)" d="M6.5,16.5c0-5.4,4.4-10,10-10C29.9,6.5,6.5,28.5,6.5,16.5z"/><path id="path642" fill="url(#path641_1_)" d="M6.5,16.5c0-5.4,4.4-10,10-10C29.9,6.5,6.5,28.5,6.5,16.5z" enable-background="new" opacity=".48"/><linearGradient id="circle642_1_" x1="-256.691" x2="-261.287" y1="388.139" y2="383.543" gradientTransform="matrix(1 0 0 -1 288.0386 415.1992)" gradientUnits="userSpaceOnUse"><stop style="stop-color:red" id="stop637" offset="0"/><stop style="stop-color:#810000" id="stop638" offset="1"/></linearGradient><circle id="circle642" cx="29" cy="29.4" r="3.3" fill="url(#circle642_1_)"/><linearGradient id="circle649_1_" x1="-251.291" x2="-255.886" y1="382.738" y2="378.143" gradientTransform="matrix(1 0 0 -1 288.0386 415.1992)" gradientUnits="userSpaceOnUse"><stop style="stop-color:red" id="stop644" offset="0"/><stop style="stop-color:#810000" id="stop645" offset="1"/></linearGradient><circle id="circle649" cx="34.4" cy="34.8" r="3.3" fill="url(#circle649_1_)"/><linearGradient id="polygon615_1_" x1="-837.37" x2="-841.939" y1="391.959" y2="387.39" gradientTransform="matrix(1 0 0 -1 871.4395 421.7988)" gradientUnits="userSpaceOnUse"><stop style="stop-color:#ff3200" id="stop651" offset="0"/><stop style="stop-color:#ffed00" id="stop652" offset=".332"/><stop style="stop-color:#ff3000" id="stop653" offset="1"/></linearGradient><polygon id="polygon615" fill="url(#polygon615_1_)" points="31.5 27.2 26.9 31.8 32.1 37 36.7 32.4"/><line id="line616" x1="30.1" x2="34.9" y1="28.8" y2="33.6" fill="none" stroke="#FFF" stroke-linecap="round" stroke-width=".742" enable-background="new" opacity=".54"/></g></svg>