<svg xmlns="http://www.w3.org/2000/svg" xmlns:xlink="http://www.w3.org/1999/xlink" id="svg602" width="48" height="48" enable-background="new 0 0 48 48" overflow="visible" viewBox="0 0 48 48" xml:space="preserve"><g id="Layer_1"><rect id="path550" width="48" height="48" fill="none"/></g><g id="Layer_2_1_"><path id="path552" d="M2.1,24.5 c0,12.7,10.3,22.9,22.9,22.9C37.7,47.4,48,37.1,48,24.5C48,11.8,37.7,1.6,25.1,1.6C12.4,1.6,2.1,11.8,2.1,24.5z" enable-background="new" opacity=".2"/><g id="g553" display="none"><path id="path554" d="M25,10 l1.5,1.3l15.6,13.3l-18,15.3c0,0,0-5.7,0-6.4c-0.8-0.2-14.5-3.7-14.5-3.7V19.2c0,0,13.7-3.4,14.5-3.6c0-0.7,0-6.4,0-6.4L25,10z" display="inline" enable-background="new" opacity=".2"/><path id="path555" fill="#06C" d="M41.8,23.2l-19-16.2v0.8c0,0,0,5.6,0,6.1c-0.5,0.1-14.5,3.6-14.5,3.6 v11.2c0,0,13.9,3.6,14.5,3.7c0,0.5,0,6.9,0,6.9L41.8,23.2z" display="inline"/><linearGradient id="path562_1_" x1="-228.139" x2="-74.785" y1="295.71" y2="295.71" gradientTransform="matrix(0.1875 0 0 -0.1875 52.9688 78.6563)" gradientUnits="userSpaceOnUse"><stop style="stop-color:#39f" id="stop613" offset="0"/><stop style="stop-color:#9cf" id="stop614" offset="1"/></linearGradient><polygon id="path562" fill="url(#path562_1_)" points="10.2 19 24.7 15.4 24.7 11.1 31.8 17.1 38.9 23.2 31.8 29.3 24.7 35.4 24.7 31 10.2 27.3" display="inline"/><linearGradient id="path574_1_" x1="-108.748" x2="-123.842" y1="330.822" y2="315.728" gradientTransform="matrix(0.1875 0 0 -0.1875 52.9688 78.6563)" gradientUnits="userSpaceOnUse"><stop style="stop-color:#fff" id="stop620" offset="0"/><stop style="stop-color:#fbfdff" id="stop621" offset=".211"/><stop style="stop-color:#f0f8ff" id="stop622" offset=".406"/><stop style="stop-color:#def" id="stop623" offset=".595"/><stop style="stop-color:#c3e1ff" id="stop624" offset=".78"/><stop style="stop-color:#a2d0ff" id="stop625" offset=".96"/><stop style="stop-color:#9cf" id="stop626" offset="1"/></linearGradient><path id="path574" fill="url(#path574_1_)" d="M25,13c0-0.3,0-0.5,0-0.7c1.4,1.2,6.2,5.3,6.2,5.3s5.8,4.9,6.6,5.7c-0.3,0.2-1.5,1.3-3.1,2.7C32.9,20.2,29.4,15.6,25,13z" display="inline" enable-background="new" opacity=".7"/></g><path id="path575" fill="#600" d="M1.2,23.6c0,12.7,10.3,22.9,22.9,22.9c12.6,0,22.9-10.3,22.9-22.9S36.8,0.6,24.2,0.6 C11.5,0.6,1.2,10.9,1.2,23.6z"/><path id="path576" fill="#600" d="M24.2,1C11.7,1,1.6,11.1,1.6,23.6s10.1,22.6,22.6,22.6c12.4,0,22.6-10.1,22.6-22.6 S36.6,1,24.2,1z"/><radialGradient id="path586_1_" cx="-231.914" cy="364.49" r="259.508" fx="-231.914" fy="364.49" gradientTransform="matrix(0.1875 0 0 -0.1875 52.9688 78.6563)" gradientUnits="userSpaceOnUse"><stop style="stop-color:#f99" id="stop644" offset=".006"/><stop style="stop-color:red" id="stop645" offset=".584"/><stop style="stop-color:#900" id="stop646" offset="1"/></radialGradient><circle id="path586" cx="24.2" cy="23.6" r="21.4" fill="url(#path586_1_)"/><path id="path587" fill="#FFF" d="M3.3,24.3 c0-11.8,9.6-21.4,21.4-21.4c6.9,0,13,3.2,16.9,8.3c-3.9-5.5-10.3-9-17.5-9c-11.8,0-21.4,9.6-21.4,21.4c0,5,1.7,9.6,4.5,13.2 C4.7,33.3,3.3,29,3.3,24.3z" enable-background="new" opacity=".5"/><linearGradient id="path594_1_" x1="-154.984" x2="-154.984" y1="406.502" y2="317.502" gradientTransform="matrix(0.1875 0 0 -0.1875 52.9688 78.6563)" gradientUnits="userSpaceOnUse"><stop style="stop-color:#fff" id="stop655" offset=".006"/><stop style="stop-color:#ff5656" id="stop656" offset="1"/></linearGradient><path id="path594" fill="url(#path594_1_)" d="M6.7,13.5c4.1,1.9,9.9,3,16.3,3c7.4,0,14-1.5,18.1-3.9c-3.4-5.9-9.7-9.8-17-9.8 C16.5,2.7,9.9,7.1,6.7,13.5z"/><path id="path595" fill="#600" d="M30.2,7.8v6.3c3.1,2,5.2,5.5,5.2,9.5c0,6.2-5.1,11.3-11.3,11.3s-11.3-5.1-11.3-11.3 c0-4,2.1-7.5,5.2-9.5V7.8c-6.3,2.5-10.8,8.6-10.8,15.8c0,9.3,7.6,16.9,16.9,16.9s16.9-7.6,16.9-16.9 C41.1,16.4,36.6,10.2,30.2,7.8z"/><path id="path596" fill="#FFF" d="M30.8,8.6v5.1c3.1,2.1,5.2,5.7,5.2,9.8c0,6.6-5.3,11.9-11.9,11.9c-6.6,0-11.9-5.3-11.9-11.9 c0-4.1,2.1-7.7,5.2-9.8V8.6c-5.7,2.6-9.7,8.3-9.7,15c0,9,7.3,16.4,16.4,16.4c9,0,16.4-7.3,16.4-16.4 C40.5,16.9,36.5,11.2,30.8,8.6z"/><path id="path597" fill="#600" d="M21.1,6.2c-0.3,0-0.6,0.2-0.6,0.5v23c0,0.3,0.3,0.5,0.6,0.5h6.2c0.3,0,0.6-0.2,0.6-0.5v-23 c0-0.3-0.3-0.5-0.6-0.5H21.1z"/><rect id="path598" width="6.2" height="23" x="21.1" y="6.7" fill="#FFF"/></g></svg>