<svg xmlns="http://www.w3.org/2000/svg" xmlns:xlink="http://www.w3.org/1999/xlink" id="svg602" width="48" height="48" enable-background="new 0 0 48 48" overflow="visible" viewBox="0 0 48 48" xml:space="preserve"><g id="Layer_2_1_"><circle id="path622_6_" cx="24" cy="24" r="24" enable-background="new" opacity=".1"/><circle id="path622_4_" cx="24" cy="24" r="23.5" enable-background="new" opacity=".2"/><circle id="path622_5_" cx="24" cy="24" r="23" enable-background="new" opacity=".4"/><radialGradient id="path622_1_" cx="-3165.696" cy="-1664.8" r="319.461" fx="-3165.696" fy="-1664.8" gradientTransform="matrix(0.1167 0 0 0.1169 399.1769 235.1366)" gradientUnits="userSpaceOnUse"><stop style="stop-color:#90b2d4" id="stop610" offset="0"/><stop style="stop-color:#86a7cf" id="stop611" offset=".027"/><stop style="stop-color:#28459c" id="stop612" offset=".315"/><stop style="stop-color:#243b8f" id="stop613" offset=".358"/><stop style="stop-color:#1d2570" id="stop614" offset=".484"/><stop style="stop-color:#1a1e66" id="stop615" offset=".556"/><stop style="stop-color:#1b1f65" id="stop616" offset=".724"/><stop style="stop-color:#1e2265" id="stop617" offset=".784"/><stop style="stop-color:#262663" id="stop618" offset=".827"/><stop style="stop-color:#2e2d61" id="stop619" offset=".862"/><stop style="stop-color:#36335d" id="stop620" offset=".892"/><stop style="stop-color:#3c3856" id="stop621" offset=".918"/><stop style="stop-color:#3d394c" id="stop622" offset=".942"/><stop style="stop-color:#35323b" id="stop623" offset=".964"/><stop style="stop-color:#201f21" id="stop624" offset=".984"/><stop style="stop-color:#000" id="stop625" offset="1"/></radialGradient><circle id="path622" cx="24" cy="24" r="22.5" fill="url(#path622_1_)"/><path id="path658" d="M17.4,5.9c-0.1,0-0.2,0-0.3,0.1 C17.3,5.9,17.5,5.9,17.4,5.9z M23.9,7.1L24,6.2l-1,0.1l0.1,0.9h0.8V7.1z M12.6,23.5c-0.2-0.2-0.1-1-0.1-1s-3-1.6-6.3-2.5 c-0.4-0.1-0.2-0.9,0.2-1.3l-0.1-0.9c0-0.5,0.7-2.6,1.4-2.8c0.7-0.2-0.1,1.3-0.1,1.3l-0.7,0.4c0,0,0.9,1,1.1,1s0.5-0.5,0.5-0.5 l-0.9-0.6l0.9-0.4l0.1-0.3h0.1l1.4-2.2c1-0.4,2.2-0.9,2.4-1c0.3-0.1,2.1-1.2,2.5-1.4c0.3-0.3,1-0.3,1.3-0.3 c0.3,0,0.7-0.1,0.7-0.8c0.1-0.7,0.3-0.8,0.5-0.6c0.2,0.2-0.2,0.5,0.3,0.6c0.5,0.1,0.9,0.4,1.2,0.1c0.2-0.2-0.1-0.5-0.3-0.7h3.7 l0.4-1.1l-0.9-0.1l-3.2-0.3V7.7h-0.3c0.3-1.9,2.4-1.6,0.9-2.7c-0.1-0.1-1.4,2.1-1.8,2.1C16.9,7,16.1,7,15.9,7.2 c-0.2,0.3,0.5-0.9,1.1-1.3c-1,0.3-4.2,1.4-7.6,5c-3.2,3.5-4.5,8.1-4.5,8.3c0,0.3,0.7,0.4,0.7,0.8c0.1,0.4-1.3,1.6-1.3,2.3 c0,0.3-0.3,4.2,0.8,7.4c1.3,3.7,4.1,6.9,4.4,7.1l0.7-0.3c0,0-1.5-2.7-1.6-3s1.7-3.9,2.6-3.8c0.9,0.1,0.7,0.4,1.2,0.1 s0.9-2.9,1.5-3.2c0.6-0.3,1.3-0.6,1.2-1.2C15.1,24.8,12.8,23.6,12.6,23.5L12.6,23.5z M27.1,4.9l-1.8-0.6l0.3,1L27.1,4.9z M20.3,7.2c0.2,0,4.2-2.6,3.8-2.7c-0.4-0.1-0.5,0-1.5-0.1c-1.1-0.1-2.2,1.5-2.5,1.8C19.9,6.4,20,7.2,20.3,7.2z M38.7,26.3 l0.5-0.7l-0.5-0.2l-0.4,0.5l-0.5,0.7l0.4,0.2L38.7,26.3z M40.9,28.4l-0.1-1H40l-0.1,0.7L39.1,28l-0.2-0.8L38.5,27L38,27.5 l-0.4-0.1l-0.1,0.4L38,28v4l1.8,0.4c0,0.1-0.1,0.1-0.1,0.2c-0.1,0.4,0.5,0.6,1,0.4c0.2-0.1,0.7-0.6,1-1.4c0.5-1.1,0.9-2.6,1-3.1 l0.2-0.4l-1.3,0.5L40.9,28.4L40.9,28.4z M43.6,21.1l-0.3-0.7c-0.4-2.2-1.3-5.1-3.3-8.1c-3-4.5-11.2-7.1-11.2-7.1l-0.4,0.5 l-0.3-0.4l-0.6-0.2v0.5l0.6,0.5l-0.4,0.2l-1.5,0.1l-3.4,1.8l0.3,1.5l-0.4,0.1l-0.2,0.3l1.1,1.6l0.1,0.5l-0.9,0.2v1.1l-0.5,0.1 l0.1,0.9l-4.4,3l0.1,1.7c0.3,0.4,2.8,3,2.8,3s2.9,0.1,3.5-0.2c0.6-0.4,0.2,0.4,0.4,0.5s0.3,1.5,0.5,1.6s0,0.9,0.3,1.1 c0.3,0.2,0.3,3.2,0.3,3.2s1.5,2.6,1.5,3.3s-0.1,0.6,1.2,0.5c1.2-0.1,1.5-0.5,1.7-0.7c0.3-0.2,0.3-0.6,0.5-1 c0.3-0.4,0.7-1.8,1.3-2.2c0.6-0.5,2.1-0.9,2.3-1.7c0.1-0.9,0.7-1.5,0.7-1.5l2.8-2.9l-0.1,0.4l-0.1,1.5l0.8-0.3l-0.1-1.6l-0.3-0.3 l0,0c0,0-0.2-0.4-0.5-0.4c-0.3,0-1.8,0.4-2.1,0.3c-0.3-0.1-1.4-3-1.5-3.1c-0.2-0.1-1.4-2.1-1.4-2.1s2.8,3.4,3.3,4.7 c0.3,0.8,1.2,0.1,2-0.8l0.2,0.5l0.5-0.1l-0.1-0.6h0.6v0.9l-0.2,0.5l-0.1,0.8l0.5,0.5l0.3-0.4l0.8-0.8l1-0.5l0.3,0.5l0.1,0.7 l-0.3,0.7L41,23.6l-0.3,1.1v0.5l-0.6-0.4L40,23.6l-0.8,0.1l-0.4,1l0.6,0.9l1.4,0.2l1.1-1l0.1-2l0.5-0.6c0.3,0.8,0.5,1.7,0.5,2.5 c0,0.9,0.4-0.6,0.1-3.3L43.6,21.1L43.6,21.1L43.6,21.1z M27.4,14.9l-3.5-0.1l1.5-1.2h0.8l1.2,0.8V14.9L27.4,14.9z M31.6,14.5V15 h-1.5l0.1,0.4l-0.9,0.1l-0.1,0.3l-0.6-0.1l-1.2-0.2l0.2-0.3l0.2-0.4l0.6-0.7l0.3,0.5l1-0.1l0.5-0.5l2,0.4L31.6,14.5L31.6,14.5 L31.6,14.5z M31.8,13.7L31,13.8l-0.1-0.5l1-0.1l0.1-0.5l0.7,0.7L31.8,13.7L31.8,13.7z M35.5,32.6L35,33l0.1,0.9h0.6v-0.8l0.5-0.7 V31l-0.3-0.1L35.5,32.6L35.5,32.6z M31.2,30.8c0,0-0.5,0.1,0.1,0.3c0.5,0.2,2.6-3,2.6-3l-1.7,1.1L31.2,30.8L31.2,30.8L31.2,30.8z M27.7,42.4L27.3,42l-0.8-0.1l-0.1,0.4l-1-0.1l-0.1-0.5h-0.8l-0.8,0.5h-1.5l-0.1-0.4l-2.4-0.2L19.3,42l-1-0.2l-0.1-0.9l-0.5-0.1 l-0.5,0.9l-1.7-0.1c0.3,0.1,2.9,1.7,6.9,2c5.3,0.4,7.8-0.9,7.8-0.9L30,42.6L27.7,42.4L27.7,42.4L27.7,42.4z" enable-background="new" opacity=".5"/><path id="path659" fill="#FFF" d="M16.7,3.8c-0.1,0-0.2,0-0.4,0.1C16.6,3.9,16.7,3.8,16.7,3.8z M23.8,5.2l0.1-1l-1.1,0.1l0.1,1L23.8,5.2 L23.8,5.2z M11.3,23.4c-0.2-0.2-0.1-1.1-0.1-1.1s-3.3-1.8-7-2.8c-0.4-0.1-0.2-1.1,0.2-1.4l-0.1-1C4.2,16.6,5,14.2,5.9,14 c0.8-0.2-0.1,1.4-0.1,1.4L5,15.9c0,0,1,1.1,1.2,1.1c0.2,0,0.6-0.6,0.6-0.6l-1-0.7l1-0.4V15L7,14.9l1.6-2.4c1.1-0.5,2.5-1,2.6-1.1 c0.3-0.1,2.4-1.3,2.7-1.6c0.3-0.3,1.2-0.2,1.5-0.2c0.3,0,0.7-0.1,0.8-0.9c0.1-0.8,0.4-0.9,0.6-0.7c0.2,0.2-0.2,0.6,0.3,0.7 c0.5,0.1,1,0.5,1.3,0.1c0.3-0.3-0.1-0.5-0.3-0.8h4.1l0.4-1.3l-1-0.1L18,6.2V5.9h-0.3c0.4-2.1,2.7-1.8,1-3c-0.1-0.1-1.6,2.4-2,2.3 c-0.7-0.1-1.6-0.1-1.8,0.1c-0.3,0.3,0.6-1,1.3-1.4c-1.1,0.3-4.7,1.6-8.5,5.6c-3.6,3.8-5,9-5,9.2c0,0.3,0.7,0.5,0.8,0.9 s-1.4,1.8-1.4,2.5c0,0.3-0.3,4.6,0.9,8.2c1.6,4.2,4.6,7.7,5,7.9l0.7-0.4c0,0-1.7-3-1.8-3.3s1.9-4.3,2.9-4.2 c1,0.1,0.7,0.4,1.3,0.1c0.6-0.3,1-3.2,1.6-3.5c0.7-0.3,1.4-0.6,1.3-1.3C14.1,24.9,11.6,23.6,11.3,23.4L11.3,23.4z M27.4,2.8 l-2-0.7l0.4,1.1L27.4,2.8z M19.9,5.4c0.2,0,4.7-2.9,4.2-3c-0.4-0.1-0.5,0-1.7-0.1c-1.2-0.1-2.4,1.7-2.7,2 C19.4,4.5,19.5,5.4,19.9,5.4z M40.3,26.5l0.6-0.7l-0.6-0.2l-0.4,0.5l-0.5,0.7l0.4,0.2L40.3,26.5z M42.8,28.9l-0.1-1.1h-0.9 l-0.1,0.8l-0.9-0.1l-0.2-0.9l-0.4-0.3L39.7,28l-0.5-0.1L39,28.3l0.6,0.1v4.4l2,0.5c0,0.1-0.1,0.1-0.1,0.2 c-0.1,0.5,0.6,0.7,1.1,0.5c0.2-0.1,0.8-0.7,1.1-1.6c0.5-1.2,1-2.8,1.1-3.4l0.2-0.5L43.6,29L42.8,28.9L42.8,28.9z M45.8,20.8 L45.4,20c-0.4-2.5-1.5-5.7-3.6-9c-3.3-5-12.4-7.8-12.4-7.8l-0.5,0.6l-0.3-0.5L27.9,3v0.6l0.6,0.5l-0.4,0.2l-1.6,0.1l-3.7,2 L23.2,8l-0.4,0.1l-0.2,0.3l1.2,1.8l0.1,0.6l-1,0.2v1.2l-0.6,0.1l0.1,0.9l-5,3.8l0.1,1.9c0.4,0.5,3.2,3.3,3.2,3.3s3.2,0.1,3.9-0.3 c0.7-0.4,0.2,0.4,0.4,0.6s0.3,1.6,0.5,1.8c0.2,0.1,0,0.9,0.3,1.2s0.3,3.5,0.3,3.5s1.7,2.9,1.7,3.6c0,0.7-0.1,0.7,1.3,0.6 c1.4-0.1,1.6-0.6,1.9-0.8c0.3-0.2,0.3-0.7,0.6-1.1c0.3-0.4,0.8-2,1.4-2.5s2.4-0.9,2.5-1.9c0.1-0.9,0.8-1.7,0.8-1.7l3.1-3.3 l-0.1,0.4L39.2,24l0.9-0.3l0.1-1.7l-0.3-0.4v-0.1c0,0-0.2-0.4-0.5-0.4c-0.3,0-2,0.4-2.3,0.3c-0.3-0.1-1.5-3.3-1.7-3.4 c-0.2-0.1-1.6-2.4-1.6-2.4s3.2,3.8,3.7,5.3c0.3,0.9,1.4,0.1,2.3-0.8l0.2,0.6l0.6-0.1l-0.1-0.7h0.6v1l-0.2,0.5l-0.1,0.9l0.6,0.5 l0.3-0.5l0.9-0.9l1.1-0.5l0.3,0.5l0.1,0.7l-0.3,0.8l-0.6,0.5l-0.3,1.2v0.6L42.3,25l-0.1-1.3l-0.9,0.1l-0.4,1.1l0.6,0.9L43,26 l1.2-1.2l0.1-2.2l0.5-0.7c0.4,0.9,0.6,1.9,0.6,2.7c0,1,0.4-0.7,0.1-3.6L45.8,20.8L45.8,20.8L45.8,20.8z M27.8,13.9l-3.9-0.1 l1.6-1.3h0.9l1.4,0.9V13.9L27.8,13.9z M32.5,13.4V14h-1.6l0.1,0.4l-1,0.1l-0.1,0.3l-0.7-0.1l-1.3-0.3l0.2-0.3l0.2-0.4L29,13 l0.3,0.5l1.1-0.1l0.6-0.6l2.2,0.4L32.5,13.4L32.5,13.4L32.5,13.4z M32.6,12.5l-0.9,0.1L31.6,12l1.1-0.1l0.1-0.6l0.8,0.8 L32.6,12.5L32.6,12.5z M36.8,33.5l-0.5,0.4l0.1,1H37V34l0.6-0.7v-1.6l-0.4-0.1L36.8,33.5L36.8,33.5z M32,31.5 c0,0-0.5,0.1,0.1,0.3c0.6,0.2,2.9-3.3,2.9-3.3l-2,1.3L32,31.5L32,31.5L32,31.5z M28.1,44.5L27.7,44l-0.9-0.1l-0.1,0.4l-1.1-0.1 l-0.1-0.5h-0.9l-0.9,0.5H22l-0.1-0.4l-2.6-0.3l-0.4,0.4l-1.1-0.3l-0.1-1l-0.5-0.1l-0.6,1l-1.9-0.1c0.3,0.2,3.2,1.9,7.7,2.2 c5.9,0.5,8.7-1,8.7-1l-0.2-0.2L28.1,44.5L28.1,44.5L28.1,44.5z"/><circle id="path622_2_" cx="24" cy="24" r="22.5" fill="#0000D7" enable-background="new" opacity=".1"/><ellipse id="path622_3_" cx="24" cy="13" fill="#FFF" enable-background="new" opacity=".75" rx="16.2" ry="10.6"/></g><g id="Layer_1"><linearGradient id="rect688_1_" x1="-1430.24" x2="-1401.888" y1="407.522" y2="384.387" gradientTransform="matrix(1 0 0 -1 1440.2539 419.1289)" gradientUnits="userSpaceOnUse"><stop style="stop-color:#492109" id="stop664" offset="0"/><stop style="stop-color:#4f270e" id="stop665" offset=".019"/><stop style="stop-color:#845837" id="stop666" offset=".205"/><stop style="stop-color:#b0815a" id="stop667" offset=".387"/><stop style="stop-color:#d2a175" id="stop668" offset=".561"/><stop style="stop-color:#ebb888" id="stop669" offset=".725"/><stop style="stop-color:#fac694" id="stop670" offset=".876"/><stop style="stop-color:#ffcb98" id="stop671" offset="1"/></linearGradient><rect id="rect688" width="28" height="23.2" x="10.1" y="11.5" fill="url(#rect688_1_)"/><linearGradient id="rect946_2_" x1="-2512.313" x2="-2502.368" y1="406.002" y2="396.341" gradientTransform="matrix(1 0 0 -1 2536.8965 419.1289)" gradientUnits="userSpaceOnUse"><stop style="stop-color:#900000" id="stop689" offset=".006"/><stop style="stop-color:#ff3a00" id="stop690" offset="1"/></linearGradient><rect id="rect946_5_" width="10.1" height="9.5" x="24.6" y="13.3" fill="url(#rect946_2_)"/><linearGradient id="rect946_4_" x1="-2523.53" x2="-2513.586" y1="406.018" y2="396.357" gradientTransform="matrix(1 0 0 -1 2536.8965 419.1289)" gradientUnits="userSpaceOnUse"><stop style="stop-color:#ff9000" id="stop696" offset=".006"/><stop style="stop-color:#ff0" id="stop697" offset="1"/></linearGradient><rect id="rect946_3_" width="10.1" height="9.5" x="13.4" y="13.3" fill="url(#rect946_4_)"/><linearGradient id="rect946_7_" x1="-2512.3" x2="-2502.355" y1="395.888" y2="386.227" gradientTransform="matrix(1 0 0 -1 2536.8965 419.1289)" gradientUnits="userSpaceOnUse"><stop style="stop-color:#000090" id="stop703" offset=".006"/><stop style="stop-color:#0ff" id="stop704" offset="1"/></linearGradient><rect id="rect946_6_" width="10.1" height="9.5" x="24.6" y="23.4" fill="url(#rect946_7_)"/><linearGradient id="rect946_8_" x1="-2523.518" x2="-2513.573" y1="395.905" y2="386.245" gradientTransform="matrix(1 0 0 -1 2536.8965 419.1289)" gradientUnits="userSpaceOnUse"><stop style="stop-color:#009000" id="stop710" offset=".006"/><stop style="stop-color:#00fc00" id="stop711" offset="1"/></linearGradient><rect id="rect946_1_" width="10.1" height="9.5" x="13.4" y="23.4" fill="url(#rect946_8_)"/><linearGradient id="rect918_1_" x1="-2526.955" x2="-2498.954" y1="396.079" y2="396.079" gradientTransform="matrix(1 0 0 -1 2536.8965 419.1289)" gradientUnits="userSpaceOnUse"><stop style="stop-color:#492109" id="stop717" offset="0"/><stop style="stop-color:#b9622b" id="stop718" offset="1"/></linearGradient><rect id="rect918" width="28.1" height="1.5" x="10.1" y="22.3" fill="url(#rect918_1_)"/><linearGradient id="rect900_1_" x1="-1429.854" x2="-1402.353" y1="406.429" y2="406.429" gradientTransform="matrix(1 0 0 -1 1440.2539 419.1289)" gradientUnits="userSpaceOnUse"><stop style="stop-color:#6b3513" id="stop724" offset="0"/><stop style="stop-color:#793d17" id="stop725" offset=".048"/><stop style="stop-color:#904a1e" id="stop726" offset=".153"/><stop style="stop-color:#a25524" id="stop727" offset=".274"/><stop style="stop-color:#af5c28" id="stop728" offset=".417"/><stop style="stop-color:#b7612a" id="stop729" offset=".604"/><stop style="stop-color:#b9622b" id="stop730" offset="1"/></linearGradient><rect id="rect900_5_" width="27.5" height="2" x="10.4" y="11.7" fill="url(#rect900_1_)"/><linearGradient id="rect900_6_" x1="-2526.955" x2="-2498.954" y1="385.079" y2="385.079" gradientTransform="matrix(1 0 0 -1 2536.8965 419.1289)" gradientUnits="userSpaceOnUse"><stop style="stop-color:#b9622b" id="stop746" offset="0"/><stop style="stop-color:#cd7f4a" id="stop747" offset=".175"/><stop style="stop-color:#e2a06b" id="stop748" offset=".408"/><stop style="stop-color:#f2b884" id="stop749" offset=".629"/><stop style="stop-color:#fcc693" id="stop750" offset=".833"/><stop style="stop-color:#ffcb98" id="stop751" offset="1"/></linearGradient><rect id="rect900" width="28.1" height="4.1" x="10.1" y="32" fill="url(#rect900_6_)"/><linearGradient id="rect900_7_" x1="-1428.454" x2="-1428.454" y1="407.637" y2="381.258" gradientTransform="matrix(1 0 0 -1 1440.2539 419.1289)" gradientUnits="userSpaceOnUse"><stop style="stop-color:#6b3513" id="stop765" offset="0"/><stop style="stop-color:#85441b" id="stop766" offset=".148"/><stop style="stop-color:#9c5122" id="stop767" offset=".325"/><stop style="stop-color:#ac5b27" id="stop768" offset=".515"/><stop style="stop-color:#b6602a" id="stop769" offset=".727"/><stop style="stop-color:#b9622b" id="stop770" offset="1"/></linearGradient><rect id="rect900_3_" width="3.4" height="26.3" x="10.1" y="11.4" fill="url(#rect900_7_)"/><linearGradient id="rect900_8_" x1="-1403.954" x2="-1403.954" y1="407.637" y2="381.063" gradientTransform="matrix(1 0 0 -1 1440.2539 419.1289)" gradientUnits="userSpaceOnUse"><stop style="stop-color:#b9622b" id="stop784" offset="0"/><stop style="stop-color:#c06d35" id="stop785" offset=".076"/><stop style="stop-color:#d0864b" id="stop786" offset=".281"/><stop style="stop-color:#db975b" id="stop787" offset=".497"/><stop style="stop-color:#e2a264" id="stop788" offset=".728"/><stop style="stop-color:#e4a567" id="stop789" offset="1"/></linearGradient><rect id="rect900_4_" width="3.6" height="26.4" x="34.5" y="11.4" fill="url(#rect900_8_)"/><linearGradient id="rect900_9_" x1="-2412.219" x2="-2385.004" y1="509.254" y2="509.254" gradientTransform="matrix(4.489659e-011 1 -1 4.489659e-011 533.4043 2422.6191)" gradientUnits="userSpaceOnUse"><stop style="stop-color:#b9622b" id="stop803" offset="0"/><stop style="stop-color:#cd7f4a" id="stop804" offset=".175"/><stop style="stop-color:#e2a06b" id="stop805" offset=".408"/><stop style="stop-color:#f2b884" id="stop806" offset=".629"/><stop style="stop-color:#fcc693" id="stop807" offset=".833"/><stop style="stop-color:#ffcb98" id="stop808" offset="1"/></linearGradient><rect id="rect900_2_" width="1.3" height="27.3" x="23.5" y="10.4" fill="url(#rect900_9_)"/><polygon id="polygon813" fill="#7C4127" points="38.2 34.7 38.1 33.6 10.1 33.6 10.1 33.6 10.1 34.7 9.3 38 9.3 40.8 39.2 40.8 39.2 38"/><linearGradient id="polygon829_1_" x1="-2705.597" x2="-2675.696" y1="-280.343" y2="-280.343" gradientTransform="matrix(1 0 0 1 2714.8965 316.793)" gradientUnits="userSpaceOnUse"><stop style="stop-color:#fdca97" id="stop823" offset=".006"/><stop style="stop-color:#f8c28f" id="stop824" offset=".162"/><stop style="stop-color:#eaad79" id="stop825" offset=".407"/><stop style="stop-color:#d38a55" id="stop826" offset=".707"/><stop style="stop-color:#b9622b" id="stop827" offset="1"/></linearGradient><polygon id="polygon829" fill="url(#polygon829_1_)" points="38.2 34.8 38.2 34.9 10.1 34.9 10.1 34.8 9.3 38.1 39.2 38.1"/><linearGradient id="polygon770_1_" x1="-1430.201" x2="-1402.116" y1="407.829" y2="407.829" gradientTransform="matrix(1 0 0 -1 1440.2539 419.1289)" gradientUnits="userSpaceOnUse"><stop style="stop-color:#fdca97" id="stop839" offset=".006"/><stop style="stop-color:#f8c28f" id="stop840" offset=".162"/><stop style="stop-color:#eaad79" id="stop841" offset=".407"/><stop style="stop-color:#d38a55" id="stop842" offset=".707"/><stop style="stop-color:#b9622b" id="stop843" offset="1"/></linearGradient><polygon id="polygon770" fill="url(#polygon770_1_)" points="38.1 11.3 37.3 10 10.6 10 10.1 11.3 10.1 11.3 10.1 12.6 38.1 12.6"/><polygon id="polygon771" fill="#7C4127" points="38.1 11.4 10.1 11.4 10.1 11.4 10.1 12.7 38.1 12.7"/><g id="g958"><linearGradient id="polygon974_1_" x1="-1333.486" x2="-1321.403" y1="392.478" y2="392.478" gradientTransform="matrix(-1 0 0 -1 -1285.4863 419.1289)" gradientUnits="userSpaceOnUse"><stop style="stop-color:#6b3513" id="stop857" offset=".006"/><stop style="stop-color:#683312" id="stop858" offset=".424"/><stop style="stop-color:#602e10" id="stop859" offset=".69"/><stop style="stop-color:#51260b" id="stop860" offset=".913"/><stop style="stop-color:#492109" id="stop861" offset="1"/></linearGradient><polygon id="polygon974" fill="url(#polygon974_1_)" points="35.9 12.8 38 12.8 48 16.9 48 40.5 45.9 40.5 45.9 40.4 35.9 33.5"/><g id="g809_2_"><g id="g810_2_"><linearGradient id="XMLID_1_" x1="-2606.065" x2="-2595.966" y1="-290.143" y2="-290.143" gradientTransform="matrix(-1 0 0 1 -2560.1289 316.793)" gradientUnits="userSpaceOnUse"><stop style="stop-color:#fdca97" id="stop875" offset=".006"/><stop style="stop-color:#b9622b" id="stop876" offset="1"/></linearGradient><path id="path880" fill="url(#XMLID_1_)" d="M35.9,12.8v20.7l10.1,7V17L35.9,12.8z M37.4,31.4l-0.1-14.5l7.1,2.9v16.6L37.4,31.4L37.4,31.4z"/></g></g><linearGradient id="polygon849_3_" x1="-2426.459" x2="-2419.45" y1="398.179" y2="398.179" gradientTransform="matrix(-1 0 0 -1 -2382.1289 419.1289)" gradientUnits="userSpaceOnUse"><stop style="stop-color:#e4a567" id="stop882" offset="0"/><stop style="stop-color:#e2a264" id="stop883" offset=".307"/><stop style="stop-color:#db975b" id="stop884" offset=".566"/><stop style="stop-color:#d0864b" id="stop885" offset=".808"/><stop style="stop-color:#c37239" id="stop886" offset="1"/></linearGradient><polygon id="polygon849_1_" fill="url(#polygon849_3_)" points="44.3 21.3 44.3 23.5 37.3 19.9 38.5 18.4"/><linearGradient id="polygon859_3_" x1="-2426.459" x2="-2419.45" y1="394.978" y2="394.978" gradientTransform="matrix(-1 0 0 -1 -2382.1289 419.1289)" gradientUnits="userSpaceOnUse"><stop style="stop-color:#e4a567" id="stop898" offset="0"/><stop style="stop-color:#e2a264" id="stop899" offset=".307"/><stop style="stop-color:#db975b" id="stop900" offset=".566"/><stop style="stop-color:#d0864b" id="stop901" offset=".808"/><stop style="stop-color:#c37239" id="stop902" offset="1"/></linearGradient><polygon id="polygon859_1_" fill="url(#polygon859_3_)" points="44.3 24.5 44.3 26.7 37.3 23.1 38.5 21.6"/><linearGradient id="polygon869_3_" x1="-2426.459" x2="-2419.45" y1="391.879" y2="391.879" gradientTransform="matrix(-1 0 0 -1 -2382.1289 419.1289)" gradientUnits="userSpaceOnUse"><stop style="stop-color:#e4a567" id="stop914" offset="0"/><stop style="stop-color:#e2a264" id="stop915" offset=".307"/><stop style="stop-color:#db975b" id="stop916" offset=".566"/><stop style="stop-color:#d0864b" id="stop917" offset=".808"/><stop style="stop-color:#c37239" id="stop918" offset="1"/></linearGradient><polygon id="polygon869_1_" fill="url(#polygon869_3_)" points="44.3 27.6 44.3 29.8 37.3 26.2 38.5 24.7"/><linearGradient id="polygon879_3_" x1="-2426.459" x2="-2419.45" y1="388.728" y2="388.728" gradientTransform="matrix(-1 0 0 -1 -2382.1289 419.1289)" gradientUnits="userSpaceOnUse"><stop style="stop-color:#e4a567" id="stop930" offset="0"/><stop style="stop-color:#e2a264" id="stop931" offset=".307"/><stop style="stop-color:#db975b" id="stop932" offset=".566"/><stop style="stop-color:#d0864b" id="stop933" offset=".808"/><stop style="stop-color:#c37239" id="stop934" offset="1"/></linearGradient><polygon id="polygon879_1_" fill="url(#polygon879_3_)" points="44.3 30.8 44.3 33 37.3 29.3 38.5 27.8"/><linearGradient id="polygon889_3_" x1="-2426.459" x2="-2419.529" y1="385.379" y2="385.379" gradientTransform="matrix(-1 0 0 -1 -2382.1289 419.1289)" gradientUnits="userSpaceOnUse"><stop style="stop-color:#e4a567" id="stop946" offset="0"/><stop style="stop-color:#e1a366" id="stop947" offset=".37"/><stop style="stop-color:#d69e62" id="stop948" offset=".684"/><stop style="stop-color:#c5965c" id="stop949" offset=".976"/><stop style="stop-color:#c3955b" id="stop950" offset="1"/></linearGradient><polygon id="polygon889_1_" fill="url(#polygon889_3_)" points="44.3 34 44.3 36.4 37.4 31.5 38.7 31.1"/><linearGradient id="polygon1085_1_" x1="-1333.361" x2="-1321.278" y1="404.328" y2="404.328" gradientTransform="matrix(-1 0 0 -1 -1285.4863 419.1289)" gradientUnits="userSpaceOnUse"><stop style="stop-color:#c4723c" id="stop962" offset=".006"/><stop style="stop-color:#ca7b45" id="stop963" offset=".045"/><stop style="stop-color:#db9662" id="stop964" offset=".195"/><stop style="stop-color:#e9ac78" id="stop965" offset=".356"/><stop style="stop-color:#f3bb88" id="stop966" offset=".53"/><stop style="stop-color:#f9c491" id="stop967" offset=".728"/><stop style="stop-color:#fbc794" id="stop968" offset="1"/></linearGradient><polygon id="polygon1085" fill="url(#polygon1085_1_)" points="35.8 12.7 35.8 12.7 37.9 12.7 47.9 16.8 47.9 16.9 45.8 16.9 45.8 16.9"/></g><g id="g830"><linearGradient id="polygon846_1_" x1="-1440.254" x2="-1428.171" y1="392.578" y2="392.578" gradientTransform="matrix(1 0 0 -1 1440.2539 419.1289)" gradientUnits="userSpaceOnUse"><stop style="stop-color:#6b3513" id="stop985" offset=".006"/><stop style="stop-color:#683312" id="stop986" offset=".424"/><stop style="stop-color:#602e10" id="stop987" offset=".69"/><stop style="stop-color:#51260b" id="stop988" offset=".913"/><stop style="stop-color:#492109" id="stop989" offset="1"/></linearGradient><polygon id="polygon846" fill="url(#polygon846_1_)" points="12.1 12.7 10 12.7 0 16.8 0 40.4 2.1 40.4 2.1 40.3 12.1 33.4"/><g id="g809_1_"><g id="g810_1_"><linearGradient id="XMLID_2_" x1="-2712.834" x2="-2702.733" y1="-290.243" y2="-290.243" gradientTransform="matrix(1 0 0 1 2714.8965 316.793)" gradientUnits="userSpaceOnUse"><stop style="stop-color:#fdca97" id="stop1003" offset=".006"/><stop style="stop-color:#b9622b" id="stop1004" offset="1"/></linearGradient><path id="path1008" fill="url(#XMLID_2_)" d="M2,16.9v23.5l10.1-7V12.7L2,16.9z M10.6,31.3l-7,5V19.7l7.1-2.9L10.6,31.3L10.6,31.3z"/></g></g><linearGradient id="polygon849_4_" x1="-2533.227" x2="-2526.218" y1="398.179" y2="398.179" gradientTransform="matrix(1 0 0 -1 2536.8965 419.1289)" gradientUnits="userSpaceOnUse"><stop style="stop-color:#e4a567" id="stop1010" offset="0"/><stop style="stop-color:#e2a264" id="stop1011" offset=".307"/><stop style="stop-color:#db975b" id="stop1012" offset=".566"/><stop style="stop-color:#d0864b" id="stop1013" offset=".808"/><stop style="stop-color:#c37239" id="stop1014" offset="1"/></linearGradient><polygon id="polygon849_2_" fill="url(#polygon849_4_)" points="9.5 18.4 10.7 19.9 3.7 23.5 3.7 21.3"/><linearGradient id="polygon859_4_" x1="-2533.227" x2="-2526.218" y1="395.079" y2="395.079" gradientTransform="matrix(1 0 0 -1 2536.8965 419.1289)" gradientUnits="userSpaceOnUse"><stop style="stop-color:#e4a567" id="stop1026" offset="0"/><stop style="stop-color:#e2a264" id="stop1027" offset=".307"/><stop style="stop-color:#db975b" id="stop1028" offset=".566"/><stop style="stop-color:#d0864b" id="stop1029" offset=".808"/><stop style="stop-color:#c37239" id="stop1030" offset="1"/></linearGradient><polygon id="polygon859_2_" fill="url(#polygon859_4_)" points="9.5 21.5 10.7 23 3.7 26.6 3.7 24.4"/><linearGradient id="polygon869_4_" x1="-2533.227" x2="-2526.218" y1="391.879" y2="391.879" gradientTransform="matrix(1 0 0 -1 2536.8965 419.1289)" gradientUnits="userSpaceOnUse"><stop style="stop-color:#e4a567" id="stop1042" offset="0"/><stop style="stop-color:#e2a264" id="stop1043" offset=".307"/><stop style="stop-color:#db975b" id="stop1044" offset=".566"/><stop style="stop-color:#d0864b" id="stop1045" offset=".808"/><stop style="stop-color:#c37239" id="stop1046" offset="1"/></linearGradient><polygon id="polygon869_2_" fill="url(#polygon869_4_)" points="9.5 24.7 10.7 26.2 3.7 29.8 3.7 27.6"/><linearGradient id="polygon879_4_" x1="-2533.227" x2="-2526.218" y1="388.728" y2="388.728" gradientTransform="matrix(1 0 0 -1 2536.8965 419.1289)" gradientUnits="userSpaceOnUse"><stop style="stop-color:#e4a567" id="stop1058" offset="0"/><stop style="stop-color:#e2a264" id="stop1059" offset=".307"/><stop style="stop-color:#db975b" id="stop1060" offset=".566"/><stop style="stop-color:#d0864b" id="stop1061" offset=".808"/><stop style="stop-color:#c37239" id="stop1062" offset="1"/></linearGradient><polygon id="polygon879_2_" fill="url(#polygon879_4_)" points="9.5 27.8 10.7 29.3 3.7 33 3.7 30.8"/><linearGradient id="polygon889_4_" x1="-2533.227" x2="-2526.297" y1="385.478" y2="385.478" gradientTransform="matrix(1 0 0 -1 2536.8965 419.1289)" gradientUnits="userSpaceOnUse"><stop style="stop-color:#e4a567" id="stop1074" offset="0"/><stop style="stop-color:#e1a366" id="stop1075" offset=".37"/><stop style="stop-color:#d69e62" id="stop1076" offset=".684"/><stop style="stop-color:#c5965c" id="stop1077" offset=".976"/><stop style="stop-color:#c3955b" id="stop1078" offset="1"/></linearGradient><polygon id="polygon889_2_" fill="url(#polygon889_4_)" points="9.3 31 10.6 31.4 3.7 36.3 3.7 33.9"/><linearGradient id="polygon957_1_" x1="-1440.129" x2="-1428.047" y1="404.379" y2="404.379" gradientTransform="matrix(1 0 0 -1 1440.2539 419.1289)" gradientUnits="userSpaceOnUse"><stop style="stop-color:#c4723c" id="stop1090" offset=".006"/><stop style="stop-color:#ca7b45" id="stop1091" offset=".045"/><stop style="stop-color:#db9662" id="stop1092" offset=".195"/><stop style="stop-color:#e9ac78" id="stop1093" offset=".356"/><stop style="stop-color:#f3bb88" id="stop1094" offset=".53"/><stop style="stop-color:#f9c491" id="stop1095" offset=".728"/><stop style="stop-color:#fbc794" id="stop1096" offset="1"/></linearGradient><polygon id="polygon957" fill="url(#polygon957_1_)" points="12.2 12.6 12.2 12.6 10.1 12.6 .1 16.7 .1 16.9 2.2 16.9 2.2 16.8"/></g></g></svg>