<svg xmlns="http://www.w3.org/2000/svg" xmlns:xlink="http://www.w3.org/1999/xlink" id="svg602" width="49.5" height="48.9" enable-background="new 0 0 49.5 48.9" overflow="visible" viewBox="0 0 49.5 48.9" xml:space="preserve"><g id="Layer_1"><g id="g606"><rect id="rect606" width="48" height="48" x=".9" fill="none"/><circle id="circle608" cx="23.6" cy="26.8" r="20.3" fill="#007C00"/><rect id="rect609" width="9.2" height="8.5" x="30.7" y="7.4" fill="#007C00" transform="matrix(0.7741 0.633 -0.633 0.7741 15.3228 -19.7139)"/><linearGradient id="path624_1_" x1="-587.154" x2="-578.481" y1="384.62" y2="371.931" gradientTransform="matrix(1 0 0 -1 599.7686 395.4434)" gradientUnits="userSpaceOnUse"><stop style="stop-color:#fff" id="stop611" offset="0"/><stop style="stop-color:#007c00" id="stop612" offset="1"/></linearGradient><path id="path624" fill="url(#path624_1_)" d="M29.7,11.1c2.8,4.4-0.1,11.5-6.6,15.6C16.8,31,9.3,30.9,6.5,26.5 C3.8,22.1,6.6,15,13.1,10.9C19.5,6.5,27,6.7,29.7,11.1z"/><linearGradient id="path631_1_" x1="-753.768" x2="-761.643" y1="56.032" y2="45.782" gradientTransform="matrix(1.0733 9.580456e-002 9.580457e-002 1.1252 841.6487 54.8343)" gradientUnits="userSpaceOnUse"><stop style="stop-color:#0f0" id="stop618" offset="0"/><stop style="stop-color:#007c00" id="stop619" offset="1"/></linearGradient><path id="path631" fill="url(#path631_1_)" d="M16.8,41.2c4.1,4.9,12.1,5.2,18.2,0.5c6.1-4.6,7.9-12.5,4.2-17.7L16.8,41.2z"/><linearGradient id="polygon638_1_" x1="-795.63" x2="-791.881" y1="-26.688" y2="-23.813" gradientTransform="matrix(0.7815 -0.2756 -0.2756 0.893 646.8628 -187.8082)" gradientUnits="userSpaceOnUse"><stop style="stop-color:#fff" id="stop625" offset="0"/><stop style="stop-color:#007c00" id="stop626" offset=".433"/></linearGradient><polygon id="polygon638" fill="url(#polygon638_1_)" points="34.9 13 30.9 9.7 34.4 5.4 38.4 8.7"/><ellipse id="ellipse639" cx="38.2" cy="8" fill="#FFF" stroke="#007C00" stroke-width=".72" rx="4.4" ry="2.3" transform="matrix(0.7837 0.6212 -0.6212 0.7837 13.2677 -22.0061)"/><path id="path640" fill="none" stroke="#FFCA00" stroke-linecap="round" stroke-width="2.25" d="M45.1,1.7 C46.9,3,47,5.4,44.3,5.6c-1.1,0.1-2.3-0.5-3.4-0.3c-1,0.3-1.6,1.1-2.2,1.9"/></g><g id="g633"><path id="path634" stroke="#000" stroke-width="1.73" d="M32.1,15.9c-0.9,0-1.6,0.4-2,1.1c-1.8,0-6.2,0-6.2,0c-2.5,0-5.1,1.8-7.8,5.4 c-1.3,1.8-2.5,3.6-3.1,4.5c-0.9,0-12,0-12,0v11.8c0,0,11.2,0,12,0c0.4,0.7,1.6,2.2,3.1,3.8c2.9,2.9,5.4,4.5,7.8,4.5 c0,0,4.5,0,6.5,0c0.4,0.7,1.3,1.1,2.2,1.1H35c1.1,0,2.5-0.7,2.5-2.7c0,0,0-2.5,0-4.2c2.5,0,8.5,0,8.5,0c1.6,0,2.7-1.1,2.7-2.7 v-1.3c0-1.6-1.1-2.7-2.7-2.7c0,0-6.3,0-8.5,0c0-1.8,0-4.2,0-6c2.5,0,8.5,0,8.5,0c1.6,0,2.7-1.1,2.7-2.7v-1.3 c0-1.6-1.1-2.7-2.7-2.7c0,0-6.3,0-8.5,0c0-1.6,0-3.3,0-3.3c0-1.3-1.1-2.5-2.5-2.5h-2.7H32.1z"/><linearGradient id="XMLID_1_" x1="38.576" x2="38.576" y1="36.583" y2="39.833" gradientUnits="userSpaceOnUse"><stop style="stop-color:#ff7c00" id="stop636" offset="0"/><stop style="stop-color:#ff0" id="stop637" offset="1"/></linearGradient><path id="path641" fill="url(#XMLID_1_)" d="M46.8,38.9c0,0.4-0.4,0.9-0.9,0.9H31.2c-0.4,0-0.9-0.4-0.9-0.9v-1.3c0-0.4,0.4-0.9,0.9-0.9h14.7 c0.4,0,0.9,0.4,0.9,0.9V38.9z"/><linearGradient id="XMLID_2_" x1="-255.924" x2="-255.924" y1="425.15" y2="422.376" gradientTransform="matrix(1 0 0 -1 294.5 448.832)" gradientUnits="userSpaceOnUse"><stop style="stop-color:#ff7c00" id="stop643" offset="0"/><stop style="stop-color:#ff0" id="stop644" offset="1"/></linearGradient><path id="path648" fill="url(#XMLID_2_)" d="M46.8,25.9c0,0.4-0.4,0.9-0.9,0.9H31.2c-0.4,0-0.9-0.4-0.9-0.9v-1.6c0-0.4,0.4-0.9,0.9-0.9h14.7 c0.4,0,0.9,0.4,0.9,0.9v1.3V25.9z"/><radialGradient id="XMLID_3_" cx="-230.867" cy="421.402" r="12.573" fx="-230.867" fy="421.402" gradientTransform="matrix(2 0 0 -2 481.5581 864.998)" gradientUnits="userSpaceOnUse"><stop style="stop-color:#ececec" id="stop650" offset="0"/><stop style="stop-color:#8b8b8b" id="stop651" offset="1"/></radialGradient><path id="path655" fill="url(#XMLID_3_)" d="M2.6,28.6h10.7c0.2,0,0.7,0,0.7-0.4c0,0,5.1-9.4,9.8-9.4h7.8v-0.7c0-0.2,0.2-0.7,0.7-0.7H35 c0.4,0,0.7,0.4,0.7,0.7v27.4c0,0.7-0.2,0.9-0.7,0.9h-2.5c-0.7,0-0.9-0.4-0.9-0.9v-0.4h-7.8c-4.5,0-9.8-7.8-9.8-7.8 s-0.2-0.4-0.7-0.4H2.6V28.6z"/><path id="path656" fill="#FFF" d="M2.6,28.6h10.9 c0.4,0,0.4-0.4,0.4-0.4c0.4-0.9,5.6-9.4,9.6-9.4h7.8l-7.8,0.4c-5.4,0.9-7.4,11.2-10.5,11.2H2.4v-1.8H2.6z" enable-background="new" opacity=".5"/><linearGradient id="XMLID_4_" x1="-264.834" x2="-263.012" y1="417.457" y2="417.457" gradientTransform="matrix(1 0 0 -1 294.5 448.832)" gradientUnits="userSpaceOnUse"><stop style="stop-color:#959595" id="stop658" offset="0"/><stop style="stop-color:#fff" id="stop659" offset="1"/></linearGradient><polygon id="polygon663" fill="url(#XMLID_4_)" points="31.4 18.8 29.6 44 31.4 44" enable-background="new" opacity=".5"/></g></g></svg>