<svg xmlns="http://www.w3.org/2000/svg" xmlns:xlink="http://www.w3.org/1999/xlink" id="svg602" width="48" height="48" enable-background="new 0 0 48 48" overflow="visible" viewBox="0 0 48 48" xml:space="preserve"><g id="Layer_3"><g id="g605"><path id="path606" d="M7.3,1.2c-1.9,0-3.4,1.5-3.4,3.4v40 c0,1.9,1.5,3.4,3.4,3.4h35.2c1.9,0,3.4-1.5,3.4-3.4v-40c0-1.9-1.5-3.4-3.4-3.4H7.3z" enable-background="new" opacity=".2"/><linearGradient id="XMLID_7_" x1="-175.9" x2="-133.9" y1="325.6" y2="325.6" gradientTransform="matrix(1 0 0 -1 178 349)" gradientUnits="userSpaceOnUse"><stop style="stop-color:#a7abac" id="stop608" offset="0"/><stop style="stop-color:#85898a" id="stop609" offset="1"/></linearGradient><path id="path613" fill="url(#XMLID_7_)" d="M5.5,0C3.6,0,2.1,1.5,2.1,3.4v40c0,1.9,1.5,3.4,3.4,3.4h35.2c1.9,0,3.4-1.5,3.4-3.4v-40 c0-1.9-1.5-3.4-3.4-3.4H5.5z"/><path id="path614" fill="#9CF" d="M3.1,43.4c0,1.3,1.1,2.4,2.4,2.4h35.2c1.3,0,2.4-1.1,2.4-2.4v-40C43.1,2.1,42,1,40.7,1H5.5 C4.2,1,3.1,2.1,3.1,3.4V43.4z"/><linearGradient id="XMLID_8_" x1="-163.599" x2="-116.2" y1="334.3" y2="286.9" gradientTransform="matrix(1 0 0 -1 178 349)" gradientUnits="userSpaceOnUse"><stop style="stop-color:#fff" id="stop616" offset="0"/><stop style="stop-color:#9cf" id="stop617" offset="1"/></linearGradient><path id="path621" fill="url(#XMLID_8_)" d="M5.5,2C4.7,2,4.1,2.6,4.1,3.4v40c0,0.8,0.6,1.4,1.4,1.4h35.2c0.8,0,1.4-0.6,1.4-1.4v-40 c0-0.8-0.6-1.4-1.4-1.4H5.5z"/><path id="path622" fill="#FFF" d="M30.1,19 c3.7-3.5,8.2-5.2,13-6.1V3.4C43.1,2.1,42,1,40.7,1H5.5C4.2,1,3.1,2.1,3.1,3.4v28.7C13,32.8,22.4,25.9,30.1,19z" enable-background="new" opacity=".4"/><g id="g623"><path id="path624" fill="#9CBCDA" d="M24.5,5.1 c0,0,0,21.1,0,25.2c-1.9-0.7-4.1-1.1-6.4-1.1c-6.8,0-12.1,3.2-12.1,7.3c0,4.1,5.3,7.3,12.1,7.3c6.8,0,12.1-3.2,12.1-7.3 c0-0.4-0.1-0.9-0.2-1.3c0-0.3,0-17.6,0-21.9c1,0.7,2.1,1.5,3.6,1.8c2.5,0.4,4.8-0.4,6.7-1.1l0.8-0.3l-1-3c-1.7,0.5-3-0.5-5-2.2 c-1.5-1.3-3.1-2.7-5.2-3.1c0,0,0-0.1,0-0.1s-0.7,0-1.2,0c-0.1,0-0.2,0-0.2,0c0,0-0.7,0-0.7,0l-1.8,0H24.5z" enable-background="new" opacity=".5"/><linearGradient id="XMLID_9_" x1="-161.366" x2="-142.165" y1="325.746" y2="325.746" gradientTransform="matrix(1 0 0 -1 178 349)" gradientUnits="userSpaceOnUse"><stop style="stop-color:#9cf" id="stop626" offset="0"/><stop style="stop-color:#c7e3ef" id="stop627" offset="1"/></linearGradient><path id="path631" fill="url(#XMLID_9_)" d="M23.3,3.9c0,0,0,21.1,0,25.2c-1.9-0.7-4.1-1.1-6.4-1.1C10,28,4.7,31.2,4.7,35.3 s5.3,7.3,12.1,7.3c6.8,0,12.1-3.2,12.1-7.3c0-0.4-0.1-0.9-0.2-1.3c0-0.3,0-17.6,0-21.9c1,0.7,2.1,1.5,3.6,1.8 c2.5,0.4,4.8-0.4,6.7-1.1l0.8-0.3l-1-3c-1.7,0.5-3-0.5-5-2.2c-1.5-1.3-3.1-2.7-5.2-3.1c0,0,0-0.1,0-0.1s-0.7,0-1.2,0 c-0.1,0-0.2,0-0.2,0c0,0-0.7,0-0.7,0l-1.8,0H23.3z"/><linearGradient id="XMLID_10_" x1="-155.154" x2="-155.154" y1="345.499" y2="334.598" gradientTransform="matrix(1 0 0 -1 178 349)" gradientUnits="userSpaceOnUse"><stop style="stop-color:#06c" id="stop633" offset="0"/><stop style="stop-color:#0d73d9" id="stop634" offset=".141"/><stop style="stop-color:#28e" id="stop635" offset=".438"/><stop style="stop-color:#2f95fb" id="stop636" offset=".727"/><stop style="stop-color:#39f" id="stop637" offset="1"/></linearGradient><path id="path647" fill="url(#XMLID_10_)" d="M27.3,5.5l-0.2,0.1V5.5h-0.5v0h-1.8v26.1c-1.9-1.2-4.8-2-8-2c-5.8,0-10.5,2.6-10.5,5.7 c0,3.1,4.7,5.7,10.5,5.7c5.8,0,10.5-2.6,10.5-5.7c0-0.4-0.1-0.8-0.2-1.1V9.4c2,0.6,3.3,2.6,5.5,2.9c2.5,0.4,4.6-0.6,6.8-1.4 C34.4,12.5,32.1,5.3,27.3,5.5z"/><linearGradient id="XMLID_11_" x1="-361.134" x2="-360.327" y1=".009" y2="4.851" gradientTransform="matrix(1 0 0 1 372.1221 31.4082)" gradientUnits="userSpaceOnUse"><stop style="stop-color:#fff" id="stop649" offset="0"/><stop style="stop-color:#f9f9f9" id="stop650" offset=".015"/><stop style="stop-color:#dcdcdc" id="stop651" offset=".111"/><stop style="stop-color:#c3c3c3" id="stop652" offset=".217"/><stop style="stop-color:#b0b0b0" id="stop653" offset=".336"/><stop style="stop-color:#a3a3a3" id="stop654" offset=".475"/><stop style="stop-color:#9b9b9b" id="stop655" offset=".653"/><stop style="stop-color:#999" id="stop656" offset="1"/></linearGradient><path id="path672" fill="url(#XMLID_11_)" d="M15.7,30.1c-5.1,0.4-9,2.5-9,5.1c0,1,0.6,2,1.6,2.8C8.7,34.8,11.5,31.9,15.7,30.1z" enable-background="new" opacity=".5"/><linearGradient id="XMLID_12_" x1="-348.248" x2="-352.199" y1="9.354" y2="5.404" gradientTransform="matrix(1 0 0 1 372.1221 31.4082)" gradientUnits="userSpaceOnUse"><stop style="stop-color:#fff" id="stop674" offset="0"/><stop style="stop-color:#f9f9f9" id="stop675" offset=".015"/><stop style="stop-color:#dcdcdc" id="stop676" offset=".111"/><stop style="stop-color:#c3c3c3" id="stop677" offset=".217"/><stop style="stop-color:#b0b0b0" id="stop678" offset=".336"/><stop style="stop-color:#a3a3a3" id="stop679" offset=".475"/><stop style="stop-color:#9b9b9b" id="stop680" offset=".653"/><stop style="stop-color:#999" id="stop681" offset="1"/></linearGradient><path id="path697" fill="url(#XMLID_12_)" d="M24.5,33.4c0.2,0.4,0.3,0.8,0.3,1.2c0,2.7-4.6,4.8-10.3,4.8c-0.1,0-0.2,0-0.2,0c1.2,0.3,2.5,0.5,3.9,0.5c4.4,0,8-1.8,8-4 C26.2,34.9,25.6,34,24.5,33.4z" enable-background="new" opacity=".5"/></g></g></g><g id="Layer_2_2_"><rect id="rect699" width="48" height="48" fill="none"/></g></svg>