<svg xmlns="http://www.w3.org/2000/svg" xmlns:xlink="http://www.w3.org/1999/xlink" id="svg602" width="48.3" height="37.4" enable-background="new 0 0 48.3 37.4" overflow="visible" viewBox="0 0 48.3 37.4" xml:space="preserve"><g id="Layer_1"><radialGradient id="XMLID_2_" cx="16.398" cy="10.721" r="33.904" fx="16.398" fy="10.721" gradientTransform="matrix(1 0 0 1.44 0 -8.237)" gradientUnits="userSpaceOnUse"><stop style="stop-color:#ffff46" id="stop606" offset="0"/><stop style="stop-color:#edd83a" id="stop607" offset=".372"/><stop style="stop-color:#e1bf33" id="stop608" offset=".657"/><stop style="stop-color:#daba32" id="stop609" offset=".771"/><stop style="stop-color:#c8aa2f" id="stop610" offset=".93"/><stop style="stop-color:#bea22d" id="stop611" offset="1"/></radialGradient><path id="path617" fill="url(#XMLID_2_)" d="M45.2,0H2.5C1.2,3.7,2.8,6.6,0,8.1v20.5c3,1.6,1.5,4.8,2.8,8.8h42.1 c1.4-4.2,0.3-7.4,3.4-9V8.3C45.3,6.8,46.6,3.8,45.2,0z"/><g id="g618"><path id="path619" fill="none" stroke="#FFF" stroke-width="1.2" d="M45.9,20.4c0,7.6-4.3,13.8-9.6,13.8H11.7 c-5.3,0-9.6-6.2-9.6-13.8v-3.3c0-7.6,4.3-13.8,9.6-13.8h24.7c5.3,0,9.6,6.2,9.6,13.8V20.4z"/><g id="g620"><path id="path621" fill="#FFF" d="M9.1,7.7v20.5H5.4V7.7H9.1z"/><path id="path622" fill="#FFF" d="M22,7.7v20.5h-3.3l0-13.8l-1.3,13.8h-2.3l-1.4-13.5l0,13.5h-3.3V7.7h4.8 c0.1,1.2,0.3,2.7,0.4,4.3l0.5,5.2l0.9-9.6H22z"/><path id="path623" fill="#FFF" d="M23.5,7.7h2.8c1.8,0,3,0.1,3.6,0.4c0.6,0.2,1.1,0.6,1.4,1.2c0.3,0.5,0.5,1.1,0.6,1.8 c0.1,0.7,0.1,2,0.1,3.9v7.2c0,1.8-0.1,3.1-0.2,3.7c-0.1,0.6-0.3,1.1-0.6,1.5c-0.3,0.3-0.7,0.6-1.1,0.7c-0.4,0.1-1.1,0.2-2,0.2 h-4.6V7.7z M27.2,11.2v13.5c0.5,0,0.9-0.2,1-0.5c0.1-0.3,0.2-1.1,0.2-2.5v-7.9c0-0.9,0-1.5-0.1-1.8c0-0.3-0.1-0.5-0.3-0.6 C27.8,11.3,27.6,11.2,27.2,11.2z"/><path id="path624" fill="#FFF" d="M36.9,7.7v4.8c0.3-0.5,0.6-0.9,1-1.1s0.8-0.4,1.2-0.4c0.5,0,0.9,0.1,1.3,0.3 c0.4,0.2,0.6,0.5,0.8,0.9c0.2,0.4,0.3,0.8,0.3,1.2c0,0.4,0.1,1.2,0.1,2.4v7.6c0,1.2-0.1,2.2-0.2,2.8c-0.1,0.6-0.4,1.1-0.8,1.6 c-0.4,0.4-0.9,0.7-1.5,0.7c-0.4,0-0.8-0.1-1.2-0.4c-0.4-0.3-0.7-0.7-1-1.2l-0.2,1.3h-3.3V7.7H36.9z M37.9,16.2 c0-0.9,0-1.4-0.1-1.7c-0.1-0.3-0.2-0.4-0.4-0.4c-0.2,0-0.4,0.1-0.4,0.3c-0.1,0.2-0.1,0.8-0.1,1.8v7.3c0,0.9,0,1.5,0.1,1.7 c0.1,0.3,0.2,0.4,0.4,0.4c0.2,0,0.4-0.1,0.4-0.4s0.1-0.9,0.1-1.9V16.2z"/></g><g id="g625"><path id="path626" d="M9.7,8.4v20.5H6.1V8.4H9.7z"/><path id="path627" d="M22.6,8.4v20.5h-3.3l0-13.8l-1.3,13.8h-2.3l-1.4-13.5l0,13.5h-3.3V8.4H16c0.1,1.2,0.3,2.7,0.4,4.3 L17,18l0.9-9.6H22.6z"/><path id="path628" d="M24.1,8.4h2.8c1.8,0,3,0.1,3.6,0.4c0.6,0.2,1.1,0.6,1.4,1.2c0.3,0.5,0.5,1.1,0.6,1.8 c0.1,0.7,0.1,2,0.1,3.9v7.2c0,1.8-0.1,3.1-0.2,3.7s-0.3,1.1-0.6,1.5c-0.3,0.3-0.7,0.6-1.1,0.7c-0.4,0.1-1.1,0.2-2,0.2h-4.6V8.4 z M27.8,12v13.5c0.5,0,0.9-0.2,1-0.5c0.1-0.3,0.2-1.1,0.2-2.5v-7.9c0-0.9,0-1.5-0.1-1.8c0-0.3-0.1-0.5-0.3-0.6 C28.5,12,28.2,12,27.8,12z"/><path id="path629" d="M37.5,8.4v4.8c0.3-0.5,0.6-0.9,1-1.1c0.4-0.2,0.8-0.4,1.2-0.4c0.5,0,0.9,0.1,1.3,0.3 c0.4,0.2,0.6,0.5,0.8,0.9s0.3,0.8,0.3,1.2c0,0.4,0.1,1.2,0.1,2.4v7.6c0,1.2-0.1,2.2-0.2,2.8c-0.1,0.6-0.4,1.1-0.8,1.6 c-0.4,0.4-0.9,0.7-1.5,0.7c-0.4,0-0.8-0.1-1.2-0.4c-0.4-0.3-0.7-0.7-1-1.2l-0.2,1.3H34V8.4H37.5z M38.6,16.9 c0-0.9,0-1.4-0.1-1.7c-0.1-0.3-0.2-0.4-0.4-0.4c-0.2,0-0.4,0.1-0.4,0.3c-0.1,0.2-0.1,0.8-0.1,1.8v7.3c0,0.9,0,1.5,0.1,1.7 c0.1,0.3,0.2,0.4,0.4,0.4c0.2,0,0.4-0.1,0.4-0.4c0.1-0.3,0.1-0.9,0.1-1.9V16.9z"/></g></g></g></svg>