<svg xmlns="http://www.w3.org/2000/svg" xmlns:xlink="http://www.w3.org/1999/xlink" id="svg602" width="48" height="48" enable-background="new 0 0 48 48" overflow="visible" viewBox="0 0 48 48" xml:space="preserve"><g id="g633"><g id="path710"><circle id="circle607" cx="24" cy="24" r="22" enable-background="new" opacity=".4"/></g><g id="path701"><circle id="circle609" cx="24" cy="24" r="24" fill="#000004" enable-background="new" opacity=".103"/></g><g id="path709"><circle id="circle611" cx="24" cy="24" r="23" fill="#000004" enable-background="new" opacity=".197"/></g><radialGradient id="path622_1_" cx="-905.625" cy="349.072" r="188.367" fx="-905.625" fy="349.072" gradientTransform="matrix(0.1103 0 0 0.1103 124.6453 8.819580e-003)" gradientUnits="userSpaceOnUse"><stop style="stop-color:#6300ff" id="stop613" offset="0"/><stop style="stop-color:#3a3a86" id="stop614" offset="1"/></radialGradient><circle id="path622" cx="24" cy="24" r="21.2" fill="url(#path622_1_)"/><g id="path805"><radialGradient id="ellipse626_1_" cx="1648.736" cy="3390.682" r="235.764" fx="1648.736" fy="3390.682" gradientTransform="matrix(0.1103 0 0 0.1103 -157.8557 -370.9985)" gradientUnits="userSpaceOnUse"><stop style="stop-color:#bbfaff" id="stop621" offset="0"/><stop style="stop-color:#3f3fe1" id="stop622" offset="1"/></radialGradient><ellipse id="ellipse626" cx="24.3" cy="12.7" fill="url(#ellipse626_1_)" enable-background="new" opacity=".65" rx="15.1" ry="9.7"/></g><ellipse id="path634" cx="24.8" cy="24.7" fill="none" rx="11.9" ry="20.5" transform="matrix(0.5528 0.8333 -0.8333 0.5528 31.6686 -9.5888)"/><g id="g635"><path id="path636" fill="#FFF" d="M34.4,9.7c-0.3,0-0.7,0-1,0c0.2,0,0.3,0,0.5,0C34.1,9.7,34.2,9.7,34.4,9.7L34.4,9.7z"/><polygon id="path637" fill="#FFF" points="32.4 9.7 32.2 9.7 32.1 9.7"/><path id="path638" fill="#FFF" d="M30.6,9.8c0.3,0,0.6-0.1,0.9-0.1C31.3,9.7,31,9.8,30.6,9.8z"/><path id="path639" fill="#FFF" d="M32,9.7C31.9,9.7,31.9,9.7,32,9.7L32,9.7h-0.5C31.7,9.7,31.9,9.7,32,9.7L32,9.7z"/><path id="path640" fill="#FFF" d="M32,9.7c0.1,0,0.3,0,0.3,0S32.2,9.7,32,9.7z"/><path id="path641" fill="#FFF" d="M31.6,9.8c-0.2,0-0.1,0-0.5,0c-0.8,0.1-1.5,0.2-2.3,0.4c-0.3,0.1-0.9,0.2-1.3,0.3 c-0.8,0.2-2.9,1-1.6,0.5c1.8-0.6,3-0.9,4.7-1.1c1.4-0.2,2.7-0.3,4.1-0.1c0.4,0,0.8,0.1,1.1,0.2c-0.5-0.1-1-0.2-1.5-0.2 C33.6,9.7,32.7,9.7,31.6,9.8L31.6,9.8z"/><path id="path642" fill="#FFF" d="M41.2,12.7c-0.1-0.1-0.4-0.4-0.4-0.4c-0.6-0.6-1.3-1.1-2-1.5c0.1,0.1,0.2,0.1,0.3,0.2 c0.4,0.2,0.5,0.3,0.1,0c0.8,0.5,1.6,1.1,2.2,1.9C41.4,12.9,41.4,12.9,41.2,12.7L41.2,12.7z"/><polygon id="path643" fill="#FFF" points="41.3 13.2 41.9 13.2 41.9 13.2"/><path id="path644" fill="#FFF" d="M26.9,10.6c-2.3,0.7-4.4,1.6-6.3,2.7c-0.1,0.1-0.2,0.2-0.4,0.3c-0.2,0.1-0.3,0.2-0.5,0.3 c-0.3,0.2-0.6,0.3-0.8,0.5l-0.3,0.2l0,0c-0.2,0.1-0.1,0.1,0,0s0.2-0.1,0.3-0.2c-0.1,0-0.2,0.1-0.3,0.2s-0.3,0.2-0.4,0.3 c-0.2,0.2-0.5,0.3-0.8,0.5c0.3-0.2,0.5-0.4,0.8-0.5c0.2-0.1,0.3-0.2,0.5-0.3l0.1-0.1c-0.6,0.4-1.2,0.8-1.8,1.2 c-0.1,0.1-0.3,0.2-0.4,0.3c-0.4,0.3-0.8,0.6-1.1,0.8L15.1,17h0.1l-0.1,0.1c-0.4,0.4-0.8,0.7-1.3,1.1c-0.3,0.3-0.5,0.5-0.8,0.8 c0,0-0.2,0.2-0.3,0.3c-0.1,0.1-0.2,0.3-0.4,0.5c0.2-0.2,0.4-0.4,0.6-0.6c0.3-0.3,0.6-0.6,0.9-0.9c-0.3,0.3-0.6,0.6-0.9,0.9 c-0.2,0.2-0.4,0.4-0.6,0.6c-0.4,0.4-0.8,0.9-1.2,1.3c0.4-0.5,0.8-0.9,1.2-1.3c0.2-0.2,0.3-0.3,0.4-0.5C12.8,19.2,13,19,13,19 c0.3-0.3,0.5-0.5,0.8-0.8c-0.8,0.7-1.6,1.5-2.3,2.4c-2.4,2.7-4.3,5.8-5,9.2c-0.3,1.7-0.3,3.6,0.4,5.2c0.7,1.7,2.1,3,3.8,3.8 c3.8,1.7,7.9,1.2,11.6,0.2c3.7-1,7-2.8,10-4.9c3-2.1,5.7-4.7,7.9-7.9c0.8-1.2,1.9-3.1,2.5-5.1c0.6-2,0.6-4.2,0.2-5.6 c-0.6-1.9-1.1-2.1-1-2.1c0,0.1,0.3,0.5,0.3,0.6c0.5,1.1,0.8,2.1,0.8,3.4c0,1.3-0.2,3-1.1,5.2c0.6-1.5,0.4-0.9-0.1,0.3 c-0.5,1.3-1.7,3.2-2.6,4.4c-2.7,3.5-7.6,7.7-12.7,9.9c-1.2,0.6-2.6,1.1-4.2,1.5c-4,1.1-8.4,1.5-12.1-0.5c-1.8-1-3.1-2.8-3.5-4.8 c-0.4-2.1,0-4.3,0.8-6.3c0.9-2.2,2-3.9,3.2-5.5c0.9-1.1,2-2.3,2.8-3.1c1.4-1.3,2.6-2.3,3.9-3.2c-1.4,1-2.4,1.8-3.8,3.1 c-0.9,0.9,0.6-0.6,1.3-1.2c0.3-0.2,0.7-0.6,1-0.8c0.6-0.5,1.2-0.9,1.9-1.4c0.3-0.2,0.3-0.2,0.4-0.3c1-0.6,1.7-1.1,2.4-1.5 c0.5-0.3,0.9-0.5,1.4-0.7c0.3-0.1,0.6-0.3,0.9-0.4c0.2-0.1,0.4-0.2,0.6-0.3c-0.2,0.1-0.2,0.1-0.3,0.1c0.3-0.1,0.7-0.3,1-0.4 c-0.3,0.1-0.7,0.3-1,0.4c0.1,0,0.1,0,0.3-0.1c1.4-0.6,3-1.2,4.6-1.6l0,0c-0.9,0.2-1.8,0.5-2.7,0.8c0.4-0.1,0.4-0.1-0.1,0.1 l-0.4,0.1c0.8-0.3,1.6-0.6,2.4-0.8c0,0,0.3-0.1,0.5-0.1c0.3-0.1,0.2-0.1,0.3-0.1l0.5-0.1C28.1,10.3,26.9,10.6,26.9,10.6 L26.9,10.6z"/><path id="path645" fill="#FFF" d="M18.1,14.8c0.1-0.1,0.2-0.2,0.4-0.3c-0.5,0.3-1,0.7-1.5,1C17.2,15.4,17.6,15.1,18.1,14.8z"/></g></g><g id="g646"><ellipse id="path647" cx="26" cy="24.3" fill="none" rx="3.7" ry="20.1"/><g id="g648"><path id="path649" fill="#FFF" d="M29.6,17.4l-0.1-0.8V17C29.6,17.1,29.6,17.2,29.6,17.4L29.6,17.4z"/><polygon id="path650" fill="#FFF" points="29.5 15.8 29.5 15.6 29.5 15.5"/><path id="path651" fill="#FFF" d="M29.3,14.3c0,0.3,0.1,0.5,0.1,0.7C29.4,14.8,29.4,14.6,29.3,14.3z"/><path id="path652" fill="#FFF" d="M29.4,15.5C29.4,15.4,29.4,15.3,29.4,15.5L29.4,15.5v-0.4C29.4,15.2,29.4,15.3,29.4,15.5 L29.4,15.5z"/><path id="path653" fill="#FFF" d="M29.4,15.5c0,0.1,0,0.2,0,0.3C29.5,15.7,29.4,15.6,29.4,15.5z"/><path id="path654" fill="#FFF" d="M29.3,15.1c0-0.1,0-0.1,0-0.4c-0.1-0.7-0.2-1.3-0.2-1.9c0-0.3-0.1-0.8-0.1-1 c-0.1-0.7-0.5-2.4-0.3-1.4c0.3,1.5,0.4,2.5,0.6,3.9c0.1,1.1,0.2,2.2,0.3,3.4c0,0.3,0,0.6,0.1,0.9c0-0.4,0-0.8-0.1-1.3 C29.5,16.7,29.4,16,29.3,15.1L29.3,15.1z"/><path id="path655" fill="#FFF" d="M29.8,23.6c0-0.1,0-0.4,0-0.4c0-0.7,0-1.3,0-2v0.3c0,0.4,0,0.4,0,0.1c0,0.8,0,1.6,0,2.3 C29.8,23.8,29.8,23.8,29.8,23.6z"/><polygon id="path656" fill="#FFF" points="29.6 24.1 30.1 24.1 30.1 24.1"/><path id="path657" fill="#FFF" d="M28.9,11.2c-0.3-1.9-0.7-3.7-1.4-5.4c-0.1-0.1-0.1-0.2-0.2-0.4c-0.1-0.1-0.1-0.3-0.2-0.4 c-0.1-0.2-0.3-0.4-0.5-0.6c-0.1-0.1-0.1-0.1-0.2-0.2l0,0c-0.1-0.1-0.1,0,0,0c0.1,0.1,0.2,0.1,0.2,0.2c0,0-0.1-0.1-0.2-0.2 c-0.1-0.1-0.2-0.1-0.4-0.1s-0.5,0.1-0.7,0.3c0.2-0.2,0.5-0.3,0.7-0.3s0.3,0.1,0.4,0.1l0.1,0.1c-0.5-0.5-1.2,0-1.5,0.5 c0,0.1-0.1,0.2-0.1,0.3c-0.2,0.4-0.4,0.8-0.5,1l-0.1,0.3V6.3v0.1c-0.1,0.4-0.3,0.9-0.4,1.3c-0.1,0.3-0.1,0.6-0.2,0.9 c0,0-0.1,0.2-0.1,0.3s-0.1,0.3-0.1,0.5c0.1-0.2,0.1-0.5,0.2-0.7c0.1-0.3,0.1-0.7,0.2-1c-0.1,0.3-0.2,0.7-0.2,1 c0,0.2-0.1,0.4-0.2,0.7c-0.1,0.4-0.2,1-0.3,1.4c0.1-0.5,0.2-1,0.3-1.4c0-0.2,0.1-0.4,0.1-0.5s0.1-0.3,0.1-0.3 c0.1-0.3,0.1-0.6,0.2-0.9c-0.2,0.9-0.4,1.7-0.6,2.6c-1,5.8-1.1,11.2-1,17.3c0.1,3.3,0.3,6.5,0.8,9.5c0.2,1.5,0.5,3,1,4.5 c0.2,0.7,0.5,1.4,0.9,2.1c0.2,0.3,0.5,0.6,0.9,0.8c0.4,0.1,0.8-0.2,1.1-0.5c0.9-1.2,1.3-2.7,1.6-4.2c0.3-1.5,0.6-3,0.8-4.5 c0.3-2.4,0.6-6.8,0.6-9.2c0-3.1-0.1-1.5-0.1-1.3c-0.1,1.9-0.1,3.4-0.4,7.3c0.2-2.6,0,2-0.5,4.4c-0.3,1.8-0.7,4-1.5,6.1 c-0.2,0.5-0.5,1.1-0.8,1.4c-0.4,0.4-0.9,0.3-1.3-0.2c-0.7-0.9-1-2-1.3-3.1c-0.3-1.1-0.5-2.2-0.7-3.5c-0.9-6.8-1.1-13.3-0.6-20.5 c0.1-1.9,0.3-3.6,0.5-5.2c0.2-1.2,0.4-2.4,0.7-3.3c0.4-1.4,0.7-2.8,1.5-3.6c-0.9,1-1.1,2.1-1.5,3.6c-0.2,1,0.1-0.7,0.3-1.4 c0.1-0.3,0.3-0.7,0.4-1c0.3-0.6,0.5-1.1,1.1-1.5c0.2-0.1,0.2,0,0.4,0c0.8,0.2,1.1,1.1,1.4,1.6c0.2,0.4,0.3,0.8,0.4,1.2 c0,0.1,0,0.4,0.1,0.6c0,0.2,0.1,0.3,0.1,0.5c0-0.1,0-0.2,0-0.2c0.1,0.2,0.1,0.6,0.2,0.8c-0.1-0.2-0.1-0.6-0.2-0.8 c0,0,0,0.1,0,0.2c0.3,1.2,0.6,2.6,0.8,3.9l0,0c-0.1-0.8-0.2-1.5-0.4-2.3c0.1,0.3,0,0.3,0-0.1V9.4c0.1,0.7,0.3,1.3,0.4,2 c0,0,0,0.3,0.1,0.4c0,0.2,0,0.2,0,0.3l0.1,0.5C29,12.2,28.9,11.2,28.9,11.2L28.9,11.2z"/><path id="path658" fill="#FFF" d="M26,4.1c0.1,0,0.2,0,0.4,0.1c-0.5-0.3-1,0.1-1.3,0.5C25.3,4.6,25.6,4.2,26,4.1L26,4.1z"/></g></g><g id="g659"><path id="path660" fill="none" d="M23.6,23.6c6,9,10.5,16.6,10,17c-0.5,0.4-5.9-6.7-11.9-15.7 c-6-9-10.5-16.6-10-17C12.3,7.6,17.6,14.6,23.6,23.6L23.6,23.6z"/><g id="g661"><path id="path662" fill="#FFF" d="M20,18.2l-0.5-0.6l0.2,0.3C19.8,18,19.9,18.1,20,18.2z"/><polygon id="path663" fill="#FFF" points="19.1 17 19 16.8 18.9 16.8"/><path id="path664" fill="#FFF" d="M18.3,15.8c0.1,0.2,0.3,0.4,0.4,0.6C18.6,16.3,18.5,16.1,18.3,15.8z"/><path id="path665" fill="#FFF" d="M18.9,16.7C18.9,16.7,18.9,16.6,18.9,16.7L18.9,16.7l-0.2-0.3 C18.8,16.5,18.9,16.6,18.9,16.7L18.9,16.7z"/><path id="path666" fill="#FFF" d="M18.9,16.7c0,0.1,0.1,0.2,0.1,0.2S19,16.8,18.9,16.7z"/><path id="path667" fill="#FFF" d="M18.6,16.5c-0.1-0.1,0-0.1-0.2-0.3c-0.4-0.5-0.7-1-1.1-1.4c-0.2-0.2-0.4-0.6-0.6-0.8 c-0.4-0.5-1.4-1.8-0.8-1c0.9,1.2,1.4,1.9,2.2,3c0.6,0.9,1.2,1.7,1.9,2.6c0.2,0.2,0.3,0.5,0.5,0.7c-0.2-0.3-0.4-0.6-0.7-1 C19.6,17.8,19.2,17.2,18.6,16.5L18.6,16.5z"/><path id="path668" fill="#FFF" d="M23.3,23c-0.1-0.1-0.2-0.3-0.2-0.3c-0.3-0.5-0.7-1.1-1.1-1.6l0.1,0.2 c0.2,0.3,0.2,0.3,0.1,0.1c0.4,0.6,0.8,1.2,1.2,1.8C23.4,23.2,23.4,23.2,23.3,23L23.3,23z"/><polygon id="path669" fill="#FFF" points="23.3 23.4 23.7 23.4 23.7 23.4"/><path id="path670" fill="#FFF" d="M16.6,13.5c-1.1-1.5-2.1-2.8-3.2-4.1c-0.1-0.1-0.2-0.2-0.3-0.3l-0.3-0.3 c-0.2-0.2-0.3-0.4-0.5-0.5c-0.1-0.1-0.1-0.1-0.2-0.2l0,0C12,8,12,8,12.1,8.1s0.1,0.1,0.2,0.2c0,0-0.1-0.1-0.2-0.2 s-0.2-0.2-0.4-0.2c-0.1,0.2,0,0.4,0.1,0.7c-0.1-0.2-0.2-0.5-0.1-0.7c0.2,0,0.3,0.1,0.4,0.2l0.1,0.1C12.1,8.1,12,8,11.8,7.9 c-0.2-0.1-0.2,0.2-0.2,0.3C11.7,8.5,11.9,8.7,12,9c0.1,0.1,0.1,0.2,0.1,0.3c0.2,0.4,0.4,0.7,0.5,1l0.1,0.3v-0.1v0.1 c0.2,0.4,0.4,0.7,0.6,1.1l0.4,0.7c0,0,0.1,0.2,0.1,0.3c0.1,0.1,0.2,0.2,0.2,0.4c-0.1-0.2-0.2-0.4-0.3-0.6 c-0.1-0.3-0.3-0.5-0.5-0.8c0.1,0.3,0.4,0.6,0.5,0.8c0.1,0.2,0.2,0.4,0.3,0.6c0.2,0.3,0.5,0.8,0.7,1.2c-0.3-0.4-0.5-0.8-0.7-1.2 c-0.1-0.2-0.2-0.3-0.2-0.4c0-0.1-0.1-0.3-0.1-0.3l-0.4-0.7c0.4,0.7,0.8,1.5,1.3,2.2c2.8,4.7,5.6,9,8.8,13.7 c1.7,2.6,3.4,5,5.2,7.4c0.9,1.2,1.7,2.3,2.6,3.4c0.4,0.5,0.9,1.1,1.4,1.6c0.2,0.3,0.5,0.5,0.8,0.7c0.1,0.1,0.3,0.1,0.4-0.1 c0-0.1,0-0.2,0-0.3c0-0.2-0.1-0.3-0.2-0.5c-1.2-2.6-2.6-4.9-4.1-7.5c-1.2-1.9-3.4-5.5-4.6-7.3c-1.7-2.4-0.9-1.1-0.8-1 c0.9,1.5,1.7,2.7,3.6,5.8c-1.3-2.1,1.1,1.5,2.2,3.5c0.8,1.5,1.9,3.2,2.9,5.1c0.2,0.5,0.5,1,0.7,1.5c0.1,0.2,0.1,0.7,0.2,0.5 c-0.2-0.1-0.4-0.3-0.6-0.5c-0.8-0.8-1.4-1.6-2.1-2.5c-0.6-0.8-1.3-1.7-2.1-2.7c-3.8-5.3-7.2-10.2-10.9-16 c-1-1.5-1.8-2.9-2.6-4.2c-0.6-0.9-1.2-2-1.6-2.8c-0.7-1.2-1.3-2.3-1.8-3.4c0.5,1.2,1,2,1.7,3.3c0.5,0.8-0.4-0.6-0.7-1.1 c-0.1-0.2-0.3-0.6-0.4-0.9c-0.3-0.5-0.5-1-0.7-1.6c-0.1-0.3,0-0.2,0-0.2c0.7,0.4,1.1,1,1.5,1.4c0.3,0.3,0.5,0.6,0.7,0.9 c0.1,0.2,0.3,0.4,0.4,0.6l0.3,0.4c-0.1-0.1-0.1-0.1-0.1-0.2c0.1,0.2,0.3,0.4,0.5,0.6c-0.1-0.2-0.3-0.4-0.5-0.6 c0,0,0,0.1,0.1,0.2c0.7,0.9,1.5,2,2.3,3l0,0c-0.4-0.6-0.9-1.2-1.3-1.8c0.2,0.3,0.2,0.2-0.1-0.1L15.5,12 C15.9,12.5,16.3,13,16.6,13.5c0,0,0.2,0.2,0.3,0.3C17,14,17,14,17,14l0.3,0.3C17.1,14.3,16.6,13.5,16.6,13.5L16.6,13.5z"/><path id="path671" fill="#FFF" d="M11.7,7.9C11.8,7.9,11.9,8,12,8C11.9,8,11.8,7.9,11.7,7.9c-0.1,0.1,0,0.2,0,0.4 c0.1,0.2,0.2,0.4,0.2,0.7C11.9,8.7,11.6,8.3,11.7,7.9z"/></g></g><g id="g672"><g id="g673"><g id="path674"><g id="circle668"><g id="circle670"><g id="circle672"><circle id="circle671" cx="28.5" cy="10.8" r="1.3" fill="#FFF" opacity="0"/></g></g></g></g><circle id="path675" cx="28.5" cy="10.8" r="1.2" fill="#FFF" enable-background="new" opacity=".167"/><circle id="path676" cx="28.5" cy="10.8" r="1" fill="#FFF" enable-background="new" opacity=".333"/><circle id="path677" cx="28.5" cy="10.8" r=".9" fill="#FFF" enable-background="new" opacity=".5"/><circle id="path678" cx="28.5" cy="10.8" r=".8" fill="#FFF" enable-background="new" opacity=".667"/><circle id="path679" cx="28.5" cy="10.8" r=".6" fill="#FFF" enable-background="new" opacity=".833"/><circle id="path680" cx="28.5" cy="10.8" r=".5" fill="#FFF"/></g></g><g id="g681"><g id="g682"><g id="path683"><g id="circle678"><g id="circle681"><g id="circle684"><circle id="circle685" cx="23.2" cy="12.2" r="1.7" fill="#FFF" opacity="0"/></g></g></g></g><circle id="path684" cx="23.2" cy="12.2" r="1.5" fill="#FFF" enable-background="new" opacity=".167"/><circle id="path685" cx="23.2" cy="12.2" r="1.3" fill="#FFF" enable-background="new" opacity=".333"/><circle id="path686" cx="23.2" cy="12.2" r="1.2" fill="#FFF" enable-background="new" opacity=".5"/><circle id="path687" cx="23.2" cy="12.2" r="1" fill="#FFF" enable-background="new" opacity=".667"/><circle id="path688" cx="23.2" cy="12.2" r=".8" fill="#FFF" enable-background="new" opacity=".833"/><circle id="path689" cx="23.2" cy="12.2" r=".6" fill="#FFF"/></g></g><g id="g690"><g id="g691"><g id="path692"><g id="circle688"><g id="circle692"><g id="circle696"><circle id="circle698" cx="16.1" cy="16.2" r="2.4" fill="#FFF" opacity="0"/></g></g></g></g><circle id="path693" cx="16.1" cy="16.2" r="2.2" fill="#FFF" enable-background="new" opacity=".167"/><circle id="path694" cx="16.1" cy="16.2" r="1.9" fill="#FFF" enable-background="new" opacity=".333"/><circle id="path695" cx="16.1" cy="16.2" r="1.6" fill="#FFF" enable-background="new" opacity=".5"/><circle id="path696" cx="16.1" cy="16.2" r="1.4" fill="#FFF" enable-background="new" opacity=".667"/><circle id="path697" cx="16.1" cy="16.2" r="1.1" fill="#FFF" enable-background="new" opacity=".833"/><circle id="path698" cx="16.1" cy="16.2" r=".8" fill="#FFF"/></g><g id="path699"><g id="g704"><g id="circle701"><g id="circle706"><circle id="circle709" cx="23.2" cy="38.5" r="2.2" fill="#FFF" opacity="0"/></g></g></g></g></g><g id="g700"><g id="g701"><g id="path702"><g id="circle700"><g id="g711"><g id="circle712"><circle id="circle716" cx="30.3" cy="34.8" r="3.7" fill="#FFF" opacity="0"/></g></g></g></g><circle id="path703" cx="30.3" cy="34.8" r="3.3" fill="#FFF" enable-background="new" opacity=".167"/><circle id="path704" cx="30.3" cy="34.8" r="2.8" fill="#FFF" enable-background="new" opacity=".333"/><circle id="path705" cx="30.3" cy="34.8" r="2.3" fill="#FFF" enable-background="new" opacity=".5"/><circle id="path706" cx="30.3" cy="34.8" r="1.9" fill="#FFF" enable-background="new" opacity=".667"/><circle id="path707" cx="30.3" cy="34.8" r="1.4" fill="#FFF" enable-background="new" opacity=".833"/><circle id="path708" cx="30.3" cy="34.8" r="1" fill="#FFF"/></g></g><g id="g709"><g id="g710"><g id="path711"><g id="circle710"><g id="circle717"><g id="circle724"><circle id="circle729" cx="22.3" cy="26.1" r="2.4" fill="#FFF" opacity="0"/></g></g></g></g><circle id="path712" cx="22.3" cy="26.1" r="2.2" fill="#FFF" enable-background="new" opacity=".167"/><circle id="path713" cx="22.3" cy="26.1" r="2" fill="#FFF" enable-background="new" opacity=".333"/><circle id="path714" cx="22.3" cy="26.1" r="1.8" fill="#FFF" enable-background="new" opacity=".5"/><circle id="path715" cx="22.3" cy="26.1" r="1.5" fill="#FFF" enable-background="new" opacity=".667"/><circle id="path716" cx="22.3" cy="26.1" r="1.3" fill="#FFF" enable-background="new" opacity=".833"/><circle id="path717" cx="22.3" cy="26.1" r="1.1" fill="#FFF"/></g></g><g id="Layer_2_1_"><path id="path552" d="M46.7,15.7l-8.1,10.6 c-0.2,0.2-0.5,0.4-0.8,0.4s-0.6-0.1-0.8-0.4l-8-10.6c-0.2-0.3-0.3-0.7-0.1-1c0.2-0.3,0.5-0.6,0.9-0.6c0,0,2.8,0,3.2,0 c0-1.2-0.3-2.9-1.4-4.6c-2-3.3-5.8-5.6-11.3-6.8c-0.5-0.1-0.8-0.6-0.8-1.1c0.1-0.5,0.5-0.9,1-0.9c8.3,0,14.6,2.2,18.5,6.4 c2.5,2.7,3.3,5.5,3.6,7c0.3,0,3.4,0,3.4,0c0.4,0,0.7,0.2,0.9,0.6C47.1,15.1,46.9,15.4,46.7,15.7z" enable-background="new" opacity=".2"/><path id="path553" fill="#3A3333" d="M47.2,15.1l-8.1,10.6c-0.1,0.2-0.4,0.4-0.7,0.4c-0.3,0-0.6-0.1-0.8-0.4l-8.1-10.6 c-0.2-0.3-0.3-0.7-0.1-1c0.2-0.3,0.5-0.6,0.9-0.6c0,0,2.8,0,3.2,0c0-1.2-0.3-2.8-1.4-4.6c-2-3.3-5.8-5.6-11.3-6.8 C20.3,2,20,1.5,20,1c0.1-0.5,0.5-0.9,1-0.9c8.3,0,14.6,2.2,18.5,6.4c2.5,2.7,3.3,5.5,3.6,7c0.3,0,3.4,0,3.4,0 c0.4,0,0.7,0.2,0.9,0.6C47.5,14.4,47.5,14.8,47.2,15.1z"/><path id="path554" fill="#3A3333" d="M47.1,15L39,25.7c-0.1,0.2-0.4,0.3-0.6,0.3c-0.2,0-0.5-0.1-0.6-0.3L29.7,15 c-0.2-0.2-0.2-0.5-0.1-0.8c0.1-0.3,0.4-0.4,0.7-0.4c0,0,3,0,3.4,0c0-1.1-0.2-3-1.4-5c-2-3.4-5.9-5.7-11.4-6.9 c-0.4-0.1-0.6-0.4-0.6-0.8s0.4-0.7,0.8-0.7c8.3,0,14.4,2.1,18.3,6.3c2.5,2.7,3.3,5.5,3.6,7.1c0.3,0,3.5,0,3.5,0 c0.3,0,0.6,0.2,0.7,0.4C47.3,14.5,47.2,14.8,47.1,15z"/><path id="path555" fill="#583333" d="M46.9,14.9l-8.1,10.6c-0.1,0.1-0.3,0.2-0.4,0.2c-0.1,0-0.3-0.1-0.4-0.2l-8.1-10.6 c-0.1-0.2-0.1-0.4-0.1-0.6c0.1-0.2,0.3-0.3,0.5-0.3c0,0,2.8,0,3.6,0c0-1-0.2-3.1-1.5-5.3c-2-3.4-5.9-5.8-11.6-7 c-0.3-0.1-0.5-0.3-0.4-0.6c0-0.3,0.3-0.5,0.5-0.5c8.2,0,14.3,2.1,18.1,6.3c2.6,2.8,3.3,5.8,3.6,7.2c0.8,0,3.7,0,3.7,0 c0.2,0,0.4,0.1,0.5,0.3C47,14.5,47,14.7,46.9,14.9z"/><linearGradient id="path562_1_" x1="-1875.972" x2="-1658.388" y1="-988.691" y2="-988.691" gradientTransform="matrix(-4.952094e-012 -0.1103 -0.1103 4.952094e-012 -75.3521 -181.7687)" gradientUnits="userSpaceOnUse"><stop style="stop-color:#fc6" id="stop742" offset="0"/><stop style="stop-color:#f90" id="stop743" offset="1"/></linearGradient><path id="path562" fill="url(#path562_1_)" d="M42.2,14.5h4.2l-8,10.6l-8.1-10.6h4.2C34.6,13.1,34.8,4.1,21,1.1 C40.2,1.1,42.1,12.8,42.2,14.5z"/><path id="path748" fill="#FF9" d="M38.6,24.8l-7.4-10.2h-0.9l8.1,10.5L38.6,24.8z M22.6,1.1c-0.5,0-1.1,0-1.6,0c13.8,3,13.6,12,13.5,13.4 h0.7C35.3,13.1,35.5,4.1,22.6,1.1z"/><linearGradient id="path562_3_" x1="-1782.124" x2="-1658.367" y1="-974.636" y2="-974.636" gradientTransform="matrix(-4.952094e-012 -0.1103 -0.1103 4.952094e-012 -75.3521 -181.7687)" gradientUnits="userSpaceOnUse"><stop style="stop-color:#ffb600" id="stop750" offset="0"/><stop style="stop-color:#ffba0e" id="stop751" offset=".034"/><stop style="stop-color:#ffcc4b" id="stop752" offset=".188"/><stop style="stop-color:#ffdc80" id="stop753" offset=".341"/><stop style="stop-color:#ffe8aa" id="stop754" offset=".489"/><stop style="stop-color:#fff2cc" id="stop755" offset=".632"/><stop style="stop-color:#fff9e4" id="stop756" offset=".768"/><stop style="stop-color:#fffef2" id="stop757" offset=".893"/><stop style="stop-color:#fffff7" id="stop758" offset="1"/></linearGradient><path id="path562_2_" fill="url(#path562_3_)" d="M42.5,14.8h-7.7c-0.5-4.3,0.8-10.7-13-13.7C41,1.1,41.3,11.7,42.5,14.8z"/></g></svg>