<svg xmlns="http://www.w3.org/2000/svg" xmlns:xlink="http://www.w3.org/1999/xlink" id="svg602" width="48" height="48" enable-background="new 0 0 48 48" overflow="visible" viewBox="0 0 48 48" xml:space="preserve"><g id="Layer_1"><path id="path157" d="M48,47.1 c0,0.5-0.4,0.9-0.8,0.9H2.3c-0.4,0-0.8-0.4-0.8-0.9V2.7c0-0.5,0.4-0.9,0.8-0.9h44.9c0.4,0,0.8,0.4,0.8,0.9V47.1z" enable-background="new" opacity=".2"/><linearGradient id="path164_1_" x1="-561.978" x2="-313.978" y1="127.202" y2="127.202" gradientTransform="matrix(0.1875 0 0 0.1875 105.3711 -0.75)" gradientUnits="userSpaceOnUse"><stop style="stop-color:#999" id="stop609" offset="0"/><stop style="stop-color:#666" id="stop610" offset="1"/></linearGradient><path id="path164" fill="url(#path164_1_)" d="M46.5,45.3c0,0.5-0.4,0.9-0.8,0.9H0.8c-0.4,0-0.8-0.4-0.8-0.9V0.9 C0,0.4,0.4,0,0.8,0h44.9c0.4,0,0.8,0.4,0.8,0.9V45.3z"/><linearGradient id="path171_1_" x1="-558.175" x2="-317.25" y1="13.498" y2="240.872" gradientTransform="matrix(0.1875 0 0 0.1875 105.3711 -0.75)" gradientUnits="userSpaceOnUse"><stop style="stop-color:#fff" id="stop616" offset="0"/><stop style="stop-color:#d4ccbf" id="stop617" offset="1"/></linearGradient><path id="path171" fill="url(#path171_1_)" d="M1,1.1C1,1.5,1,44.6,1,45c0.4,0,44.1,0,44.5,0c0-0.4,0-43.5,0-43.9 C45.1,1.1,1.4,1.1,1,1.1z"/><linearGradient id="path178_1_" x1="-411.731" x2="-568.805" y1="151.672" y2="-1.643" gradientTransform="matrix(0.1875 0 0 0.1875 105.3711 -0.75)" gradientUnits="userSpaceOnUse"><stop style="stop-color:#fff" id="stop623" offset="0"/><stop style="stop-color:#666" id="stop624" offset="1"/></linearGradient><path id="path178" fill="url(#path178_1_)" d="M40.5,37.5c0,0.5-0.4,0.9-0.8,0.9H5.5c-0.4,0-0.8-0.4-0.8-0.9V7 c0-0.5,0.4-0.9,0.8-0.9h34.2c0.4,0,0.8,0.4,0.8,0.9V37.5z"/><path id="path179" fill="#FFF" d="M41.9,39.1c0,0.5-0.4,0.9-0.8,0.9L6,39.5c-0.4,0-0.5-0.6-0.5-1.1L6.1,8.6 c0-0.5,0.4-0.9,0.8-0.9L39.5,7c0.4,0,1.7,0.1,1.7,0.6L41.9,39.1z"/><path id="path180" fill="#036" d="M41.1,38.2c0,0.5-0.4,0.9-0.8,0.9H6.1c-0.4,0-0.8-0.4-0.8-0.9V7.7c0-0.5,0.4-0.9,0.8-0.9 h34.2c0.4,0,0.8,0.4,0.8,0.9V38.2z"/><path id="path181" fill="#39F" d="M6.3,7.9c0,0.4,0,29.6,0,30c0.4,0,33.4,0,33.8,0c0-0.4,0-29.6,0-30 C39.7,7.9,6.7,7.9,6.3,7.9z"/><linearGradient id="path188_1_" x1="-510.091" x2="-399.272" y1="25.533" y2="143.691" gradientTransform="matrix(0.1875 0 0 0.1875 105.3711 -0.75)" gradientUnits="userSpaceOnUse"><stop style="stop-color:#fff" id="stop633" offset="0"/><stop style="stop-color:#39f" id="stop634" offset="1"/></linearGradient><path id="path188" fill="url(#path188_1_)" d="M33,19.2c3.3-2.7,5.2-6.1,7.1-9.7c0-1,0-1.5,0-1.6c-0.4,0-33.4,0-33.8,0 c0,0.3,0,12.3,0,21c2.1-2,4.6-3.5,7.2-4.5C20,22.2,27,24,33,19.2z"/><g id="g189"><path id="path190" d="M9.6,35.4c-0.8-0.1-1.5-0.3-2.1-0.8l0.6-1.7c0.7,0.6,1.4,0.8,2,0.8c1,0,1.5-0.4,1.5-1.2 c0-0.4-0.1-0.8-0.4-1.1c-0.3-0.3-0.8-0.7-1.5-1.1c-0.7-0.4-1.2-0.8-1.5-1c-0.3-0.3-0.5-0.6-0.6-1c-0.1-0.4-0.2-0.8-0.2-1.3 c0-0.7,0.2-1.3,0.6-1.8s0.9-0.9,1.5-1v-1.4H11v1.3c0.8,0.1,1.4,0.3,1.8,0.7l-0.5,1.7c-0.6-0.5-1.2-0.7-1.9-0.7 c-0.4,0-0.7,0.1-0.9,0.4c-0.2,0.2-0.3,0.5-0.3,0.9c0,0.6,0.6,1.3,1.8,2c0.6,0.4,1.1,0.7,1.4,1c0.3,0.3,0.5,0.7,0.7,1.1 c0.1,0.4,0.2,0.9,0.2,1.3c0,0.7-0.2,1.3-0.6,1.8c-0.4,0.5-1,0.9-1.7,1.1V37H9.6V35.4L9.6,35.4z"/><polygon id="path191" points="16.2 34 16.2 32.3 19.7 30.5 16.2 28.7 16.2 27 21.5 29.9 21.5 31.1"/></g><g id="g192"><path id="path193" fill="#FFF" d="M9.2,35c-0.8-0.1-1.5-0.3-2.1-0.8l0.6-1.7c0.7,0.6,1.4,0.8,2,0.8c1,0,1.5-0.4,1.5-1.2 c0-0.4-0.1-0.8-0.4-1.1c-0.3-0.3-0.8-0.7-1.5-1.1c-0.7-0.4-1.2-0.8-1.5-1c-0.3-0.3-0.5-0.6-0.6-1C7.1,27.5,7,27.1,7,26.6 c0-0.7,0.2-1.3,0.6-1.8s0.9-0.9,1.5-1v-1.4h1.5v1.3c0.8,0.1,1.4,0.3,1.8,0.7L12,26c-0.6-0.5-1.2-0.7-1.9-0.7 c-0.4,0-0.7,0.1-0.9,0.4C9,26,8.9,26.2,8.9,26.6c0,0.6,0.6,1.3,1.8,2c0.6,0.4,1.1,0.7,1.4,1c0.3,0.3,0.5,0.7,0.7,1.1 c0.1,0.4,0.2,0.9,0.2,1.3c0,0.7-0.2,1.3-0.6,1.8s-1,0.9-1.7,1.1v1.7H9.2V35L9.2,35z"/><polygon id="path194" fill="#FFF" points="15.8 33.5 15.8 31.8 19.3 30 15.8 28.2 15.8 26.5 21.1 29.4 21.1 30.6"/></g></g></svg>