<svg xmlns="http://www.w3.org/2000/svg" xmlns:xlink="http://www.w3.org/1999/xlink" id="svg602" width="48" height="48" enable-background="new 0 0 48 48" overflow="visible" viewBox="0 0 48 48" xml:space="preserve"><g id="Layer_1"><g id="g604"><g id="g605"><g id="g606"><path id="path609" fill="#646373" d="M31.2,6.9l2-2c1,0.3,1.7,0.9,2.1,1.9l-2.2,2.7c0,0,0,0,0,0c0.1,0.3,0.1,0.6,0.1,0.9 c-2.1,2-5.2,5-6.8,6.6c-0.5,1.9-1.3,4.1-1.6,5.4c-0.1,0.6-0.1,1-0.1,1.3c0.5-0.2,0.9-0.3,1.3-0.5c0.9-0.6,1.6-1.6,3-2.3 c0.3-0.1,0.5-0.2,0.8-0.3h0c1-0.7,1.6-0.3,3.1-2c1.5-1.7,4.4-6.6,5.5-8c1.2-1.4,1.7-1.1,0.9,0.4s-4.2,6.3-5.4,7.9 c-0.3,0.4-0.5,0.7-0.7,0.9c0.4-0.1,0.8-0.3,1.2-0.6c2.4-1.4,5.3-4.4,8-6.6c0.8-0.7,1.8-0.2,0.7,0.8c-2.6,2.5-4.2,4.6-7.3,7.2 c-3.1,2.6-8,4.9-11,8.2c-2.9,3.4-4.5,9.6-6.2,11.4c-1.1,1.2-2.5,0.8-3.1-0.2c0,0,0,0,0,0.1c-3.5,0.8-6.8,2-9.7,3.6 c-0.1,0-0.2-0.1-0.3-0.1l-0.9,0.6l-2-0.4l3.9-5.1L7.3,39c0.5-0.9,0.8-1.8,1.1-2.8c0,0,0,0,0,0c-0.3-0.2-0.6-0.3-0.9-0.5 c0,0,0,0,0,0c-0.6,0.8-1.2,1.7-1.8,2.5L6,38.5l-3.4,5.1l-1.2-1.4l0.2-0.5c-1.5-2.1-0.8-4.9,1.3-8.2c0.4,0.3,0.9,0.3,1.3-0.1 c0,0,0.1,0,0.2,0c-0.4-0.3-0.8-0.5-1.2-0.8c1.9-2,2.9-3.6,5.7-6c2.8-2.4,7.4-5.2,11-8.5c3.6-3.3,7.1-7.4,10.6-11.1 C30.6,7,30.9,6.9,31.2,6.9L31.2,6.9 M15.5,40.2C15.5,40.2,15.5,40.1,15.5,40.2L15.5,40.2C15.5,40.1,15.5,40.1,15.5,40.2 C15.5,40.1,15.5,40.1,15.5,40.2C15.5,40.1,15.5,40.1,15.5,40.2C15.5,40.1,15.5,40.1,15.5,40.2C15.5,40.1,15.5,40.1,15.5,40.2 C15.5,40.1,15.5,40.1,15.5,40.2C15.5,40,15.5,40,15.4,40C15.5,40,15.5,40,15.5,40.2 M17.2,35.2c0.4-1.3-0.1-2.6,0.9-4.5 c0.2-0.3,0.4-0.6,0.6-1c0.6-1.5,1.1-3.2,1.7-4.7c0.9-0.4,1.3-1.2,1.3-2.2c-1.1,1.1-2.2,2.4-3.2,3.5l-2.2,7l-1.4,0.2 c0,0.1-0.1,0.2-0.1,0.2l1.2,0.1L16,35.4l-1.9,0.1c-0.1,0.2-0.3,0.4-0.4,0.6C14.2,35.4,15.8,39.3,17.2,35.2 M25.6,17.7 c0.2-0.2,0.4-0.4,0.8-0.8C26.1,17.2,25.9,17.8,25.6,17.7"/><linearGradient id="path614_1_" x1="-220.465" x2="-221.948" y1="360.747" y2="362.179" gradientTransform="matrix(1 0 0 -1 257.0942 364.5273)" gradientUnits="userSpaceOnUse"><stop style="stop-color:#333" id="stop611" offset=".33"/><stop style="stop-color:#fff" id="stop612" offset=".67"/></linearGradient><path id="path614" fill="url(#path614_1_)" d="M33.7,2.6C34.9,2.7,36,3.5,36.8,5l1-1.2c-0.5-1.3-1.5-2.1-3-2.4l-0.9,0.9 L33.7,2.6C33.7,2.5,33.7,2.5,33.7,2.6z"/><path id="path615" fill="#191919" d="M33.1,4.8l1.2-1.2c-0.2-0.3-0.5-0.6-0.6-1C35,2.6,36,3.4,36.8,5l0,0l0,0 c-0.4,0-0.8-0.2-1.2-0.4l-1.3,1.3C34.1,5.4,33.6,5,33.1,4.8L33.1,4.8z"/><g id="g616"><linearGradient id="path626_1_" x1="-240.245" x2="-238.329" y1="339.464" y2="331.78" gradientTransform="matrix(1 0 0 -1 255.3154 365.2109)" gradientUnits="userSpaceOnUse"><stop style="stop-color:#8b8b94" id="stop620" offset=".19"/><stop style="stop-color:#e5e5eb" id="stop621" offset=".376"/><stop style="stop-color:#fff" id="stop622" offset=".81"/></linearGradient><path id="path626" fill="url(#path626_1_)" stroke="#646373" stroke-miterlimit="2.414" stroke-width=".081" d="M17.9,26l-2.2,7l-1.4,0.2c0.6-1.7,1.2-3.8,2.4-5.7C17,27.1,17.4,26.5,17.9,26z"/><linearGradient id="path636_1_" x1="-238.193" x2="-237.698" y1="338.119" y2="336.131" gradientTransform="matrix(1 0 0 -1 252.3247 371.4297)" gradientUnits="userSpaceOnUse"><stop style="stop-color:#8b8b94" id="stop630" offset=".2"/><stop style="stop-color:#e5e5eb" id="stop631" offset=".38"/><stop style="stop-color:#fff" id="stop632" offset=".8"/></linearGradient><path id="path636" fill="url(#path636_1_)" stroke="#646373" stroke-miterlimit="2.414" stroke-width=".081" d="M14.1,33.5h1.3L15.3,35l-1.9,0.1C13.7,34.7,13.9,34.1,14.1,33.5z"/><linearGradient id="path646_1_" x1="-240.306" x2="-236.833" y1="343.723" y2="329.794" gradientTransform="matrix(1 0 0 -1 260.4375 359.7422)" gradientUnits="userSpaceOnUse"><stop style="stop-color:#8b8b94" id="stop640" offset=".2"/><stop style="stop-color:#e5e5eb" id="stop641" offset=".38"/><stop style="stop-color:#fff" id="stop642" offset=".8"/></linearGradient><path id="path646" fill="url(#path646_1_)" stroke="#646373" stroke-miterlimit="2.414" stroke-width=".081" d="M25.7,16.6c-0.5,1.9-1.3,4.1-1.6,5.4c-0.1,0.6-0.1,1-0.1,1.3c-0.7,0.2-1.3,0.3-2.3,1.3c0,0,0,0,0,0c0,0,0,0,0,0c0,0,0,0,0,0 c-1.2,1.2-2.7,3.1-3.8,4.8c0.6-1.5,1.1-3.2,1.7-4.7c0.9-0.4,1.3-1.2,1.3-2.2c1.6-1.7,3.1-3.1,3.2-3.4 c0.4-0.5-0.3-0.8,0.7-1.8C25.1,17.2,25.4,16.9,25.7,16.6z"/><linearGradient id="path656_1_" x1="-239.499" x2="-212.788" y1="363.503" y2="335.843" gradientTransform="matrix(1 0 0 -1 244.3003 370.6719)" gradientUnits="userSpaceOnUse"><stop style="stop-color:#bcbcc4" id="stop650" offset=".43"/><stop style="stop-color:#e5e5eb" id="stop651" offset=".48"/><stop style="stop-color:#fff" id="stop652" offset=".57"/></linearGradient><path id="path656" fill="url(#path656_1_)" stroke="#646373" stroke-miterlimit="2.414" stroke-width=".081" d="M2.4,32.4c2.3,1.4,5,3.6,6.9,4.2c1.9,0.6,2.4,0.8,3.7-0.9s1.6-5.2,3.6-8.1c2-2.9,7.3-7.9,7.7-8.4c0.4-0.5-0.3-0.8,0.7-1.8 c0.9-0.9,5-4.9,7.6-7.4c0.1-0.8-0.4-2.2-1-2.9s-1.4-0.6-1.9-0.3c-3.5,3.7-7,7.8-10.6,11.1c-3.6,3.3-8.2,6-11,8.5 C5.3,28.8,4.3,30.4,2.4,32.4z"/><path id="path657" fill="#FFF" d="M4,31.9c0.7-1.1,2.1-2.6,4.7-4.8c2.6-2.2,7.5-5.3,11-8.6c1.1-1.1,2.1-2.3,3.2-3.5 c2.4-2.5,4.7-5.3,6-6.6c1-0.9,1.3-0.9,1.5-0.7c0.2,0.1,0.3,0.4-0.6,1.5c-1.2,1.4-3.5,4.1-6,6.6c-1.2,1.2-2.2,2.5-3.4,3.6 c-3.6,3.3-8.5,6.7-11,8.9c-2.6,2.2-3.2,3.7-4.2,4.5C4.3,33.5,3.3,33,4,31.9z"/><linearGradient id="path667_1_" x1="-243.024" x2="-243.711" y1="337.114" y2="331.525" gradientTransform="matrix(1 0 0 -1 246.3062 374.6543)" gradientUnits="userSpaceOnUse"><stop style="stop-color:#bcbcc4" id="stop661" offset=".24"/><stop style="stop-color:#e5e5eb" id="stop662" offset=".396"/><stop style="stop-color:#fff" id="stop663" offset=".76"/></linearGradient><polygon id="path667" fill="url(#path667_1_)" stroke="#646373" stroke-miterlimit="2.414" stroke-width=".081" points="5.3 38.2 3.6 37.4 .7 41.9 1.9 43.3"/><linearGradient id="path677_1_" x1="-241.12" x2="-242.103" y1="337.886" y2="329.882" gradientTransform="matrix(1 0 0 -1 245.019 371.2031)" gradientUnits="userSpaceOnUse"><stop style="stop-color:#bcbcc4" id="stop671" offset=".24"/><stop style="stop-color:#e5e5eb" id="stop672" offset=".396"/><stop style="stop-color:#fff" id="stop673" offset=".76"/></linearGradient><path id="path677" fill="url(#path677_1_)" stroke="#646373" stroke-miterlimit="2.414" stroke-width=".081" d="M3.4,33.2c-0.4,0.3-0.9,0.3-1.3,0.1c-2.1,3.3-2.8,6.2-1.2,8.3l2.7-4.1L4.9,38c0,0,0,0,0,0c0.6-0.9,1.3-1.8,1.9-2.6 c-0.9-0.6-1.9-1.3-2.9-1.9C3.8,33.3,3.6,33.3,3.4,33.2z"/><linearGradient id="path687_1_" x1="-239.074" x2="-239.709" y1="339.729" y2="334.552" gradientTransform="matrix(1 0 0 -1 244.0728 378.4453)" gradientUnits="userSpaceOnUse"><stop style="stop-color:#bcbcc4" id="stop681" offset=".25"/><stop style="stop-color:#e5e5eb" id="stop682" offset=".4"/><stop style="stop-color:#fff" id="stop683" offset=".75"/></linearGradient><polygon id="path687" fill="url(#path687_1_)" stroke="#646373" stroke-miterlimit="2.414" stroke-width=".081" points="2 43.7 4 44.1 7.3 39.4 6 38.6"/><rect id="path688" width="5.1" height="1.8" x="8.4" y="38.3" fill="#E5E5EB" stroke="#000" stroke-miterlimit="2.414" stroke-width=".081"/><linearGradient id="path698_1_" x1="-210.643" x2="-239.864" y1="334.103" y2="358.623" gradientTransform="matrix(1 0 0 -1 254.0664 372.3398)" gradientUnits="userSpaceOnUse"><stop style="stop-color:#bcbcc4" id="stop692" offset=".44"/><stop style="stop-color:#e5e5eb" id="stop693" offset=".476"/><stop style="stop-color:#fff" id="stop694" offset=".56"/></linearGradient><path id="path698" fill="url(#path698_1_)" stroke="#646373" stroke-miterlimit="2.414" stroke-width=".081" d="M16.5,34.8c-0.4,1.3-1.8,2.5-2,3.5c-0.3,1.8,1.8,3.3,3.4,1.6c1.7-1.9,3.3-8.1,6.2-11.4c2.9-3.4,7.8-5.6,11-8.2 c3.1-2.6,4.7-4.7,7.3-7.2c1.1-1,0.1-1.5-0.7-0.8c-2.7,2.2-5.6,5.2-8,6.6c-2.4,1.4-3.9,0.9-5.3,1.6c-1.4,0.7-2.1,1.7-3,2.3 c-0.9,0.6-2.2,0.5-3.6,1.9c-1.4,1.4-3.3,3.9-4.3,5.8C16.4,32.2,16.9,33.5,16.5,34.8z"/><linearGradient id="path708_1_" x1="-223.199" x2="-234.292" y1="342.854" y2="352.163" gradientTransform="matrix(1 0 0 -1 262.7852 362.2578)" gradientUnits="userSpaceOnUse"><stop style="stop-color:#bcbcc4" id="stop702" offset=".44"/><stop style="stop-color:#e5e5eb" id="stop703" offset=".476"/><stop style="stop-color:#fff" id="stop704" offset=".56"/></linearGradient><path id="path708" fill="url(#path708_1_)" stroke="#646373" stroke-miterlimit="2.414" stroke-width=".081" d="M29.1,20.2c1-0.7,1.6-0.3,3.1-2c1.5-1.7,4.4-6.6,5.5-8c1.2-1.4,1.7-1.1,0.9,0.4c-0.8,1.6-4.2,6.3-5.4,7.9 c-0.3,0.4-0.5,0.7-0.7,0.9C31.2,20,30.1,20,29.1,20.2z"/><linearGradient id="path718_1_" x1="-237.453" x2="-238.335" y1="337.119" y2="329.936" gradientTransform="matrix(1 0 0 -1 248.02 373.082)" gradientUnits="userSpaceOnUse"><stop style="stop-color:#bcbcc4" id="stop712" offset=".26"/><stop style="stop-color:#e5e5eb" id="stop713" offset=".404"/><stop style="stop-color:#fff" id="stop714" offset=".74"/></linearGradient><path id="path718" fill="url(#path718_1_)" stroke="#646373" stroke-miterlimit="2.414" stroke-width=".081" d="M7.8,35.9c-0.3,1-0.7,2-1.2,3l0.7,0.5l-2.7,3.9c0.2,0.1,0.4,0.1,0.6,0.2c3-1.7,6.2-2.8,9.7-3.6c-0.3-0.4-0.4-1-0.3-1.5 c0.1-0.6,0.6-1.3,1.1-2c-1.3,0.7-2.2,0.4-2.6-0.8c0,0,0,0.1-0.1,0.1c-1.3,1.6-1.8,1.5-3.7,0.9C8.8,36.4,8.3,36.2,7.8,35.9z"/><path id="path719" fill="#E5E5EB" stroke="#646373" stroke-miterlimit="2.414" stroke-width=".081" d="M30.5,6.6 l2-2c1,0.3,1.7,0.9,2.1,1.9l-2.2,2.7c-0.2-0.7-0.5-1.6-0.9-2C31.2,6.8,30.9,6.6,30.5,6.6L30.5,6.6z"/><g id="g720"><linearGradient id="path730_1_" x1="2.08" x2="4.936" y1="696.627" y2="692.548" gradientTransform="matrix(0.5296 0 0 -0.5296 4.2669 400.4459)" gradientUnits="userSpaceOnUse"><stop style="stop-color:#8b8b94" id="stop724" offset=".29"/><stop style="stop-color:#e5e5eb" id="stop725" offset=".567"/><stop style="stop-color:#fff" id="stop726" offset=".71"/></linearGradient><circle id="path730" cx="6.1" cy="32.6" r="1.3" fill="url(#path730_1_)"/><linearGradient id="path740_1_" x1="249.982" x2="248.873" y1="1052.425" y2="1057.227" gradientTransform="matrix(0.3591 0 0 -0.3591 -83.4443 411.3807)" gradientUnits="userSpaceOnUse"><stop style="stop-color:#bcbcc4" id="stop734" offset=".03"/><stop style="stop-color:#e5e5eb" id="stop735" offset=".5"/><stop style="stop-color:#fff" id="stop736" offset=".97"/></linearGradient><circle id="path740" cx="6.1" cy="32.6" r=".9" fill="url(#path740_1_)"/></g><g id="g741"><linearGradient id="path751_1_" x1="4.75" x2="7.605" y1="697.351" y2="693.273" gradientTransform="matrix(0.5296 0 0 -0.5296 7.4261 399.5934)" gradientUnits="userSpaceOnUse"><stop style="stop-color:#8b8b94" id="stop745" offset=".29"/><stop style="stop-color:#e5e5eb" id="stop746" offset=".567"/><stop style="stop-color:#fff" id="stop747" offset=".71"/></linearGradient><circle id="path751" cx="10.7" cy="31.4" r="1.3" fill="url(#path751_1_)"/><linearGradient id="path761_1_" x1="253.917" x2="252.809" y1="1053.492" y2="1058.294" gradientTransform="matrix(0.3591 0 0 -0.3591 -80.2856 410.5272)" gradientUnits="userSpaceOnUse"><stop style="stop-color:#bcbcc4" id="stop755" offset=".03"/><stop style="stop-color:#e5e5eb" id="stop756" offset=".5"/><stop style="stop-color:#fff" id="stop757" offset=".97"/></linearGradient><circle id="path761" cx="10.7" cy="31.4" r=".9" fill="url(#path761_1_)"/></g><g id="g762"><linearGradient id="path772_1_" x1="5.47" x2="8.325" y1="699.644" y2="695.566" gradientTransform="matrix(0.5296 0 0 -0.5296 8.2776 396.8912)" gradientUnits="userSpaceOnUse"><stop style="stop-color:#8b8b94" id="stop766" offset=".29"/><stop style="stop-color:#e5e5eb" id="stop767" offset=".567"/><stop style="stop-color:#fff" id="stop768" offset=".71"/></linearGradient><circle id="path772" cx="11.9" cy="27.4" r="1.3" fill="url(#path772_1_)"/><linearGradient id="path782_1_" x1="254.98" x2="253.871" y1="1056.876" y2="1061.678" gradientTransform="matrix(0.3591 0 0 -0.3591 -79.4341 407.825)" gradientUnits="userSpaceOnUse"><stop style="stop-color:#bcbcc4" id="stop776" offset=".03"/><stop style="stop-color:#e5e5eb" id="stop777" offset=".5"/><stop style="stop-color:#fff" id="stop778" offset=".97"/></linearGradient><circle id="path782" cx="11.9" cy="27.4" r=".9" fill="url(#path782_1_)"/></g><linearGradient id="path792_1_" x1="-235.725" x2="-226.874" y1="353.048" y2="342.866" gradientTransform="matrix(1 0 0 -1 259.3716 361.3516)" gradientUnits="userSpaceOnUse"><stop style="stop-color:#8b8b94" id="stop786" offset=".23"/><stop style="stop-color:#e5e5eb" id="stop787" offset=".532"/><stop style="stop-color:#fff" id="stop788" offset=".77"/></linearGradient><path id="path792" fill="url(#path792_1_)" d="M24.2,18.9v-2.3c0-1.7,4.8-6.1,7.4-9.1L32,8.1c0.3,0.6,0.5,1.2,0.5,1.7 c-2.5,2.5-6.7,6.4-7.6,7.3c-0.8,0.8-0.5,1.3-0.5,1.7L24.2,18.9z"/><g id="g793"><linearGradient id="path803_1_" x1="8.248" x2="11.104" y1="693.206" y2="689.128" gradientTransform="matrix(0.5296 0 0 -0.5296 11.5657 404.4762)" gradientUnits="userSpaceOnUse"><stop style="stop-color:#8b8b94" id="stop797" offset=".29"/><stop style="stop-color:#e5e5eb" id="stop798" offset=".567"/><stop style="stop-color:#fff" id="stop799" offset=".71"/></linearGradient><circle id="path803" cx="16.7" cy="38.4" r="1.3" fill="url(#path803_1_)"/><linearGradient id="path813_1_" x1="259.08" x2="257.971" y1="1047.38" y2="1052.182" gradientTransform="matrix(0.3591 0 0 -0.3591 -76.1455 415.411)" gradientUnits="userSpaceOnUse"><stop style="stop-color:#bcbcc4" id="stop807" offset=".03"/><stop style="stop-color:#e5e5eb" id="stop808" offset=".5"/><stop style="stop-color:#fff" id="stop809" offset=".97"/></linearGradient><circle id="path813" cx="16.7" cy="38.4" r=".9" fill="url(#path813_1_)"/></g><g id="g814"><linearGradient id="path824_1_" x1="9.548" x2="12.404" y1="696.898" y2="692.819" gradientTransform="matrix(0.5296 0 0 -0.5296 13.1019 400.1285)" gradientUnits="userSpaceOnUse"><stop style="stop-color:#8b8b94" id="stop818" offset=".29"/><stop style="stop-color:#e5e5eb" id="stop819" offset=".567"/><stop style="stop-color:#fff" id="stop820" offset=".71"/></linearGradient><circle id="path824" cx="18.9" cy="32.1" r="1.3" fill="url(#path824_1_)"/><linearGradient id="path834_1_" x1="260.993" x2="259.884" y1="1052.823" y2="1057.625" gradientTransform="matrix(0.3591 0 0 -0.3591 -74.6099 411.0623)" gradientUnits="userSpaceOnUse"><stop style="stop-color:#bcbcc4" id="stop828" offset=".03"/><stop style="stop-color:#e5e5eb" id="stop829" offset=".5"/><stop style="stop-color:#fff" id="stop830" offset=".97"/></linearGradient><circle id="path834" cx="18.9" cy="32.1" r=".9" fill="url(#path834_1_)"/></g><g id="g835"><linearGradient id="path845_1_" x1="283.418" x2="286.274" y1="1091.29" y2="1087.212" gradientTransform="matrix(0.3515 0 0 -0.3515 -71.5097 404.9538)" gradientUnits="userSpaceOnUse"><stop style="stop-color:#8b8b94" id="stop839" offset=".29"/><stop style="stop-color:#e5e5eb" id="stop840" offset=".567"/><stop style="stop-color:#fff" id="stop841" offset=".71"/></linearGradient><circle id="path845" cx="28.6" cy="22.1" r=".9" fill="url(#path845_1_)"/><linearGradient id="path855_1_" x1="1053.249" x2="1052.142" y1="2196.551" y2="2201.348" gradientTransform="matrix(0.1792 0 0 -0.1792 -160.0291 416.1341)" gradientUnits="userSpaceOnUse"><stop style="stop-color:#bcbcc4" id="stop849" offset=".03"/><stop style="stop-color:#e5e5eb" id="stop850" offset=".5"/><stop style="stop-color:#fff" id="stop851" offset=".97"/></linearGradient><circle id="path855" cx="28.6" cy="22.1" r=".5" fill="url(#path855_1_)"/></g></g></g></g><path id="path858" d="M45.5,34.2c-1.5-2.2-4.2-6-7-8.3 c-2.7-2.4-6.3-4-9.3-5.9c0.1-0.8,0.6-1.7,0.5-2.2c-0.1-0.5-0.5-0.5-0.9-0.3c-0.4,0.3-0.7,1.1-1.1,1.7c-0.8,0.2-1.5-0.2-2.3-1 c-0.1,0.1-0.1,0.2-0.2,0.3L23.3,16l-0.5,0.3l-0.1-0.2l-0.1-0.2l-0.1-0.2l-0.2-0.2l-0.2-0.2l-0.2-0.1l0.1-0.2l-3-2.8l-7.7-5.1 l-0.9,0.9l0,0L9.3,9l4.6,8.2l2.6,3.1l0.2-0.1l0.1,0.2l0.2,0.2l0.2,0.2l0.2,0.2l0.2,0.2l0.2,0.1l-0.3,0.5l2.4,2.1 c-0.1,0.1-0.2,0.1-0.3,0.2c0.9,0.8,1.2,1.5,1,2.3c-0.6,0.4-1.4,0.7-1.7,1.1c-0.3,0.4-0.3,0.8,0.3,0.9s1.4-0.4,2.2-0.5 c1.9,3.1,3.5,6.6,5.9,9.4c2.4,2.7,6.2,5.4,8.3,7c2.2,1.5,3.3,3.3,4.6,2.2s-0.1-2.4-1.7-4.3c-1.6-1.8-5.8-4.8-8.4-7.5 c-2.6-2.7-4.2-6.3-4.7-8.3c-0.5-2.1-1.6-3.1-2.5-4.3c0,0-0.1,0.1-0.1,0.1L22,20.8l0-0.2l0,0l0,0l0,0l0.1,0l1.3,0.8 c0,0.1-0.1,0.1-0.1,0.2c1.2,0.8,2.2,1.9,4.3,2.5c2.1,0.5,5.6,2.1,8.3,4.7c2.7,2.6,5.6,6.8,7.5,8.4c1.8,1.6,3.2,3,4.3,1.7 C48.8,37.6,47,36.4,45.5,34.2z M14.3,12.7l-0.3-0.1l-0.2-0.1l-0.2-0.2L13.5,12l-0.1-0.3l-0.1-0.3l0-0.1l0.1,0l0.3,0.1l0.3,0.1 l0.2,0.2l0.2,0.2l0.1,0.2l0.1,0.3l0.1,0.3L14.3,12.7z" enable-background="new" opacity=".2"/><g id="g857"><g id="g858"><g id="g859"><path id="path862" fill="#333" d="M14.3,11.2l-0.1-0.3l-0.1-0.3L14,10.4l-0.2-0.2l-0.2-0.2l-0.3-0.1L13,9.8l-0.1,0l0,0.1l0.1,0.3 l0.1,0.3l0.2,0.2l0.2,0.2l0.2,0.1l0.3,0.1L14.3,11.2 M9.9,6.5l0.9-0.9l7.7,5.1l3,2.8l-0.1,0.2l0.2,0.1l0.2,0.2l0.2,0.2 l0.1,0.2l0.1,0.2l0.1,0.2l0.5-0.3l2.2,2.9l-1.3,2.9l-2-1.1l-0.1,0l0,0l0,0l0,0l0,0.2l1,2.1l-2.9,1.2L17,20.1l0.3-0.5 l-0.2-0.1l-0.2-0.2l-0.2-0.2l-0.2-0.2l-0.2-0.2l-0.1-0.2l-0.2,0.1l-2.6-3.1L8.9,7.4L9.9,6.5L9.9,6.5"/><linearGradient id="path867_1_" x1="-227.023" x2="-226.562" y1="331.138" y2="344.326" gradientTransform="matrix(1 0 0 -1 243.8384 351.0742)" gradientUnits="userSpaceOnUse"><stop style="stop-color:#ccc" id="stop864" offset=".32"/><stop style="stop-color:#fff" id="stop865" offset=".68"/></linearGradient><path id="path867" fill="url(#path867_1_)" d="M9.4,7.5L10,7l2.6,2.6c0.1,1.2,0.6,1.9,1.7,2l0.2,0.1C14.2,12,14,12.4,14,12.9 c0,1,0.8,1.9,1.9,1.9c0.4,0,0.9-0.2,1.2-0.4c0.6-0.6,1.4-1,2.3-1c1.3,0,2.4,0.8,2.9,1.9l0.1,0l0.5-0.3l1.9,2.5l-1.1,2.4 l-1.8-1l-0.4,0c-0.6,0.5-1.2,0.7-2.2,0.7c-0.9,0-2-0.5-2.6-1.3l-0.5,0.2L9.4,7.5z"/><linearGradient id="XMLID_1_" x1="-236.022" x2="-221.623" y1="330.468" y2="341.718" gradientTransform="matrix(1 0 0 -1 244.979 350.0391)" gradientUnits="userSpaceOnUse"><stop style="stop-color:#ccc" id="stop871" offset=".19"/><stop style="stop-color:#fff" id="stop872" offset=".81"/></linearGradient><path id="path876" fill="url(#XMLID_1_)" d="M10.9,6.1l-0.6,0.6l2.4,2.8c1.2,0.2,1.8,0.8,1.9,1.8l0.1,0.2c0.3-0.2,0.7-0.4,1.2-0.3 c1,0.1,1.8,1,1.7,2c0,0.3-0.1,0.3-0.3,0.6c0.5-0.5,1.3-0.6,2-0.6c0.7,0,1.3,0.2,1.8,0.6l0.1,0.1L10.9,6.1 M16.6,18.4 c0.3,0.5,0.6,0.8,1.2,1.1l0,0.1l-0.3,0.5l2.4,2.1l2.4-1l-0.9-1.8c0-0.2,0.2-0.3,0.2-0.4c-0.6,0.5-1.3,0.7-2.2,0.7 c-0.9,0-2-0.5-2.5-1.3L16.6,18.4"/><linearGradient id="path881_1_" x1="285.97" x2="284.166" y1="1000.894" y2="1003.379" gradientTransform="matrix(0.402 3.360000e-002 -3.540000e-002 -0.4086 -63.8921 413.1137)" gradientUnits="userSpaceOnUse"><stop style="stop-color:#333" id="stop878" offset=".19"/><stop style="stop-color:#fff" id="stop879" offset=".81"/></linearGradient><path id="path881" fill="url(#path881_1_)" d="M16.6,13.9c-0.2,0.2-0.5,0.3-0.8,0.3c-0.7-0.1-1.3-0.7-1.4-1.4 c0-0.4,0.1-0.7,0.3-0.9L16.6,13.9z"/><linearGradient id="path888_1_" x1="288.324" x2="286.518" y1="1002.713" y2="1005.198" gradientTransform="matrix(0.402 3.360000e-002 -3.540000e-002 -0.4086 -63.7041 412.9398)" gradientUnits="userSpaceOnUse"><stop style="stop-color:#333" id="stop885" offset=".18"/><stop style="stop-color:#fff" id="stop886" offset=".82"/></linearGradient><path id="path888" fill="url(#path888_1_)" d="M15.8,11.4c0.7,0.1,1.3,0.7,1.4,1.4c0,0.4-0.1,0.7-0.3,0.9c0,0,0,0,0,0l-1.9-2 c0,0,0,0,0.1-0.1C15.2,11.5,15.5,11.4,15.8,11.4z"/><linearGradient id="path895_1_" x1="-257.481" x2="-257.481" y1="299.221" y2="303.501" gradientTransform="matrix(1.1053 0 0 -1.1053 304.0104 349.4021)" gradientUnits="userSpaceOnUse"><stop style="stop-color:#ccc" id="stop892" offset=".23"/><stop style="stop-color:#fff" id="stop893" offset=".77"/></linearGradient><circle id="path895" cx="19.4" cy="16.3" r="2.4" fill="url(#path895_1_)"/><linearGradient id="path902_1_" x1="-184.028" x2="-184.028" y1="403.882" y2="408.16" gradientTransform="matrix(0.8594 0 0 -0.8594 177.5693 365.2423)" gradientUnits="userSpaceOnUse"><stop style="stop-color:#ccc" id="stop899" offset=".24"/><stop style="stop-color:#fff" id="stop900" offset=".76"/></linearGradient><circle id="path902" cx="19.4" cy="16.3" r="1.8" fill="url(#path902_1_)"/></g><g id="g903"><linearGradient id="path913_1_" x1="-218.123" x2="-223.118" y1="326.725" y2="334.718" gradientTransform="matrix(1 0 0 -1 255.3311 357.7285)" gradientUnits="userSpaceOnUse"><stop style="stop-color:#a87800" id="stop907" offset=".15"/><stop style="stop-color:#d49800" id="stop908" offset=".507"/><stop style="stop-color:#fc0" id="stop909" offset=".85"/></linearGradient><path id="path913" fill="url(#path913_1_)" d="M25,16.6c-0.7,1.1-1.3,2.2-2,3.3c1.2,0.8,2.2,1.9,4.3,2.5 c2.1,0.5,5.6,2.1,8.3,4.7c2.7,2.6,5.6,6.8,7.5,8.4c1.8,1.6,3.2,3,4.3,1.7c1.1-1.3-0.7-2.4-2.2-4.6c-1.5-2.2-4.2-6-7-8.3 c-2.7-2.4-6.3-4-9.3-5.9c0.1-0.8,0.6-1.7,0.5-2.2c-0.1-0.5-0.5-0.5-0.9-0.3c-0.4,0.3-0.7,1.1-1.1,1.7 C26.5,17.8,25.8,17.5,25,16.6z"/><linearGradient id="path920_1_" x1="-209.385" x2="-229.118" y1="342.205" y2="320.29" gradientTransform="matrix(1 0 0 -1 255.1689 358.5117)" gradientUnits="userSpaceOnUse"><stop style="stop-color:#fc0" id="stop917" offset=".48"/><stop style="stop-color:#fff" id="stop918" offset=".52"/></linearGradient><polygon id="path920" fill="url(#path920_1_)" points="24.8 17.6 24.5 18.1 24.3 18.5 24 18.9 23.8 19.3 23.5 19.7 23.4 19.8 23.6 20 23.9 20.2 24.1 20.3 24.3 20.5 24.5 20.7 24.7 20.8 25 21 25.2 21.2 25.5 21.3 25.7 21.5 26 21.6 26.3 21.7 26.6 21.9 27 22 27.3 22.1 27.7 22.2 28.2 22.3 28.7 22.5 29.2 22.7 29.7 22.9 30.2 23.1 30.8 23.4 31.3 23.7 31.9 24 32.4 24.3 33 24.7 33.6 25.1 34.2 25.5 34.7 25.9 35.3 26.4 35.8 26.9 36.3 27.4 36.8 27.9 37.4 28.5 37.9 29.1 38.4 29.7 38.9 30.3 39.4 30.9 39.9 31.5 40.4 32.1 40.8 32.6 41.3 33.2 41.7 33.7 42.1 34.2 42.5 34.6 42.9 35 43.3 35.3 43.6 35.6 43.9 35.9 44.2 36.1 44.5 36.4 44.8 36.6 45.1 36.9 45.4 37 45.6 37.2 45.8 37.3 46 37.4 46.2 37.4 46.4 37.4 46.6 37.4 46.7 37.3 46.9 37.2 47 37.1 47.2 36.9 47.3 36.7 47.3 36.5 47.3 36.4 47.3 36.2 47.2 36 47.1 35.7 46.9 35.5 46.7 35.2 46.5 35 46.3 34.7 46 34.3 45.7 34 45.4 33.6 45.1 33.3 44.8 32.9 44.5 32.4 44.2 32 43.9 31.5 43.5 31 43.1 30.5 42.7 29.9 42.3 29.3 41.8 28.8 41.4 28.2 40.9 27.7 40.4 27.1 39.9 26.6 39.4 26 38.9 25.5 38.4 25 37.9 24.6 37.4 24.2 36.9 23.7 36.3 23.3 35.8 23 35.2 22.6 34.6 22.2 34 21.9 33.4 21.5 32.8 21.2 32.2 20.8 31.6 20.5 31 20.1 30.4 19.8 29.8 19.4 29.2 19.1 28.4 18.6 28.5 18.1 28.6 17.8 28.7 17.4 28.8 17.2 28.9 16.9 29 16.7 29 16.5 29 16.3 29 16.2 28.9 16.2 28.9 16.1 28.9 16.1 28.9 16.1 28.8 16.2 28.7 16.2 28.6 16.3 28.5 16.4 28.4 16.5 28.3 16.7 28.1 16.9 28 17.1 27.9 17.4 27.7 17.6 27.5 18 27 18 26.7 18 26.4 18 26 17.8 25.7 17.7 25.4 17.5 25.1 17.2 25.1 17.2 25 17.2"/><polygon id="path921" fill="#FC0" points="32 23.7 32.6 24.1 33.2 24.4 33.8 24.8 34.4 25.2 34.9 25.7 35.5 26.1 36 26.6 36.5 27.2 37.1 27.7 37.6 28.3 38.1 28.9 38.6 29.5 39.1 30.1 39.6 30.7 40.1 31.3 40.6 31.9 41.1 32.4 41.5 33 42 33.5 42.4 33.9 42.8 34.3 43.1 34.7 43.5 35 43.8 35.3 44.1 35.6 44.5 35.9 44.8 36.1 45 36.4 45.3 36.6 45.5 36.8 45.8 36.9 46 37 46.1 37.1 46.3 37.1 46.4 37.1 46.5 37.1 46.6 37 46.7 37 46.8 36.8 46.9 36.7 47 36.6 47 36.5 47 36.4 47 36.3 46.9 36.1 46.8 35.9 46.6 35.7 46.5 35.4 46.3 35.2 46 34.9 45.7 34.5 45.5 34.2 45.2 33.8 44.9 33.5 44.6 33.1 44.3 32.6 43.9 32.2 43.6 31.7 43.2 31.2 42.8 30.6 42.4 30.1 42 29.5 41.6 29 41.1 28.4 40.6 27.9 40.2 27.3 39.7 26.8 39.2 26.3 38.7 25.7 38.2 25.3 37.7 24.8 37.2 24.4 36.7 24 36.2 23.6 35.6 23.2 35 22.9 34.5 22.5 33.9 22.1 33.3 21.8 32.7 21.4 32.1 21.1 31.4 20.7 30.8 20.4 30.2 20.1 29.6 19.7 29 19.4 28.1 18.8 28.2 18 28.3 17.7 28.4 17.3 28.5 17 28.6 16.8 28.6 16.7 28.5 16.9 28.4 17.1 28.3 17.3 28.2 17.5 28 17.8 27.7 18.3 27.1 18.4 26.7 18.4 26.3 18.3 25.9 18.1 25.5 18 25.2 17.7 25.1 17.7 25.1 17.8 24.8 18.2 24.6 18.6 24.3 19 24.1 19.4 23.9 19.8 24.1 19.9 24.3 20.1 24.5 20.2 24.7 20.4 24.9 20.6 25.2 20.7 25.4 20.9 25.6 21 25.9 21.2 26.2 21.3 26.4 21.4 26.7 21.6 27.1 21.7 27.4 21.8 27.8 21.9 28.3 22 28.8 22.2 29.3 22.4 29.8 22.6 30.3 22.8 30.9 23.1 31.5 23.4"/><linearGradient id="path928_1_" x1="-243.645" x2="-224.162" y1="333.807" y2="353.982" gradientTransform="matrix(1 0 0 -1 269.561 371.5234)" gradientUnits="userSpaceOnUse"><stop style="stop-color:#fc0" id="stop925" offset=".42"/><stop style="stop-color:#fff" id="stop926" offset=".58"/></linearGradient><polygon id="path928" fill="url(#path928_1_)" points="44.4 35.4 44.7 35.6 45 35.9 45.2 36.1 45.5 36.3 45.7 36.5 45.9 36.6 46.1 36.7 46.2 36.7 46.3 36.8 46.4 36.8 46.4 36.8 46.4 36.8 46.5 36.7 46.6 36.6 46.6 36.5 46.6 36.5 46.7 36.4 46.7 36.4 46.6 36.3 46.6 36.2 46.5 36.1 46.4 35.9 46.2 35.6 46 35.4 45.8 35.1 45.5 34.8 45.2 34.4 44.9 34.1 44.6 33.7 44.3 33.3 44 32.8 43.7 32.4 43.3 31.9 43 31.4 42.6 30.8 42.2 30.3 41.7 29.8 41.3 29.2 40.9 28.6 40.4 28.1 39.9 27.5 39.4 27 39 26.5 38.5 26 38 25.5 37.5 25.1 37 24.7 36.5 24.3 36 23.9 35.4 23.5 34.9 23.1 34.3 22.8 33.7 22.4 33.1 22.1 32.5 21.7 31.9 21.4 31.3 21 30.7 20.7 30.1 20.3 29.5 20 28.9 19.6 27.7 18.9 27.8 18.6 27.1 18.7 26.6 18.7 26.2 18.6 25.8 18.4 25.4 18.2 25.2 18.1 24.8 18.8 24.6 19.2 24.3 19.7 24.5 19.8 24.7 20 24.9 20.1 25.1 20.3 25.3 20.5 25.6 20.6 25.8 20.7 26 20.9 26.3 21 26.6 21.1 26.9 21.2 27.2 21.4 27.5 21.5 27.9 21.6 28.4 21.7 28.9 21.9 29.4 22.1 29.9 22.3 30.5 22.5 31 22.8 31.6 23.1 32.2 23.4 32.8 23.8 33.4 24.2 34 24.6 34.6 25 35.1 25.4 35.7 25.9 36.2 26.4 36.8 26.9 37.3 27.5 37.8 28.1 38.4 28.7 38.9 29.3 39.4 29.9 39.9 30.5 40.4 31.1 40.9 31.6 41.3 32.2 41.8 32.7 42.2 33.3 42.6 33.7 43 34.1 43.4 34.5 43.7 34.8 44 35.1"/><linearGradient id="path935_1_" x1="-229.978" x2="-226.116" y1="341.587" y2="340.479" gradientTransform="matrix(1 0 0 -1 256.27 360.9336)" gradientUnits="userSpaceOnUse"><stop style="stop-color:#d49800" id="stop932" offset=".3"/><stop style="stop-color:#fc0" id="stop933" offset=".7"/></linearGradient><polygon id="path935" fill="url(#path935_1_)" points="26.3 20.9 28.9 21.7 30.1 19.8 28.2 18.2"/><linearGradient id="path942_1_" x1="-219.134" x2="-222.751" y1="337.35" y2="340.606" gradientTransform="matrix(0.8821 0 6.260000e-002 -1 201.1007 357.4961)" gradientUnits="userSpaceOnUse"><stop style="stop-color:#fc0" id="stop939" offset=".42"/><stop style="stop-color:#fff" id="stop940" offset=".58"/></linearGradient><path id="path942" fill="url(#path942_1_)" d="M28.7,16.3c-0.7,0.2-2.3,4.1-2.5,4.5c-0.2,0.4,1.1,0.3,1.3-0.1 C27.7,20.3,29.4,16,28.7,16.3z"/></g><g id="g943"><linearGradient id="path953_1_" x1="-907.127" x2="-909.216" y1="-367.012" y2="-347.14" gradientTransform="matrix(0 1 -1 0 -327.8589 940.6948)" gradientUnits="userSpaceOnUse"><stop style="stop-color:#a87800" id="stop947" offset=".15"/><stop style="stop-color:#d49800" id="stop948" offset=".507"/><stop style="stop-color:#fc0" id="stop949" offset=".85"/></linearGradient><path id="path953" fill="url(#path953_1_)" d="M19,22.3c1.1-0.7,2.2-1.3,3.3-2c0.8,1.2,1.9,2.2,2.5,4.3 c0.5,2.1,2.1,5.6,4.7,8.3c2.6,2.7,6.8,5.6,8.4,7.5c1.6,1.8,3,3.2,1.7,4.3c-1.3,1.1-2.4-0.7-4.6-2.2c-2.2-1.5-6-4.2-8.3-7 c-2.4-2.7-4-6.3-5.9-9.4c-0.8,0.1-1.7,0.6-2.2,0.5c-0.5-0.1-0.5-0.5-0.3-0.9c0.3-0.4,1.1-0.7,1.7-1.1 C20.2,23.9,19.9,23.1,19,22.3z"/><linearGradient id="path960_1_" x1="-915.731" x2="-898.699" y1="-368.379" y2="-344.937" gradientTransform="matrix(0 1 -1 0 -327.0776 940.5327)" gradientUnits="userSpaceOnUse"><stop style="stop-color:#fc0" id="stop957" offset=".47"/><stop style="stop-color:#fff" id="stop958" offset=".53"/></linearGradient><polygon id="path960" fill="url(#path960_1_)" points="20 22.1 20.4 21.9 20.8 21.6 21.2 21.4 21.6 21.1 22.1 20.9 22.2 20.8 22.4 21 22.5 21.2 22.7 21.4 22.9 21.6 23 21.8 23.2 22.1 23.4 22.3 23.5 22.5 23.7 22.8 23.8 23.1 24 23.4 24.1 23.6 24.2 24 24.3 24.3 24.4 24.7 24.6 25.1 24.7 25.5 24.9 26 25.1 26.5 25.3 27 25.5 27.5 25.8 28.1 26.1 28.6 26.4 29.2 26.7 29.8 27.1 30.4 27.4 30.9 27.9 31.5 28.3 32.1 28.8 32.6 29.2 33.1 29.8 33.7 30.3 34.2 30.9 34.7 31.4 35.2 32 35.7 32.6 36.2 33.2 36.7 33.8 37.2 34.4 37.7 35 38.2 35.5 38.6 36 39.1 36.5 39.5 36.9 39.9 37.3 40.3 37.6 40.6 37.9 41 38.2 41.3 38.5 41.6 38.7 41.9 39 42.2 39.2 42.5 39.4 42.7 39.5 43 39.6 43.2 39.7 43.4 39.8 43.6 39.8 43.8 39.7 43.9 39.7 44.1 39.6 44.2 39.4 44.4 39.2 44.5 39 44.6 38.9 44.7 38.7 44.7 38.5 44.6 38.3 44.5 38.1 44.4 37.8 44.3 37.6 44.1 37.3 43.9 37 43.6 36.7 43.4 36.4 43.1 36 42.8 35.6 42.5 35.2 42.2 34.8 41.9 34.3 41.6 33.8 41.2 33.3 40.8 32.8 40.4 32.3 40 31.7 39.6 31.1 39.2 30.6 38.7 30 38.2 29.5 37.8 28.9 37.3 28.4 36.8 27.9 36.3 27.4 35.8 26.9 35.3 26.5 34.8 26.1 34.2 25.7 33.7 25.3 33.1 24.9 32.6 24.6 32 24.2 31.4 23.9 30.8 23.5 30.2 23.2 29.6 22.8 28.9 22.5 28.3 22.1 27.7 21.8 27.1 21.5 26.5 21 25.8 20.4 25.9 20.1 26 19.8 26.1 19.5 26.2 19.3 26.3 19 26.3 18.8 26.3 18.7 26.3 18.6 26.3 18.5 26.3 18.5 26.2 18.5 26.2 18.5 26.2 18.5 26.1 18.6 26 18.6 25.9 18.7 25.8 18.9 25.7 19.1 25.6 19.3 25.5 19.5 25.3 19.7 25.2 20 25.1 20.4 24.8 20.4 24.4 20.4 24 20.3 23.7 20.2 23.4 20 23 19.8 22.7 19.6 22.4 19.6 22.4 19.6 22.4"/><polygon id="path961" fill="#FC0" points="26.1 29.4 26.4 30 26.8 30.5 27.2 31.1 27.6 31.7 28 32.3 28.5 32.8 29 33.4 29.5 33.9 30.1 34.4 30.6 34.9 31.2 35.5 31.8 36 32.4 36.5 33 37 33.6 37.5 34.2 38 34.8 38.4 35.3 38.9 35.8 39.3 36.3 39.7 36.7 40.1 37.1 40.5 37.4 40.8 37.7 41.2 38 41.5 38.2 41.8 38.5 42.1 38.7 42.4 38.9 42.7 39.1 42.9 39.2 43.1 39.4 43.3 39.4 43.5 39.4 43.6 39.4 43.7 39.4 43.8 39.4 43.9 39.3 44 39.2 44.2 39 44.3 38.9 44.3 38.8 44.3 38.7 44.3 38.6 44.3 38.4 44.2 38.2 44.1 38 44 37.8 43.8 37.5 43.6 37.2 43.4 36.9 43.1 36.6 42.8 36.2 42.5 35.8 42.2 35.4 41.9 35 41.6 34.5 41.3 34 40.9 33.5 40.6 33 40.2 32.5 39.8 31.9 39.3 31.3 38.9 30.8 38.5 30.2 38 29.7 37.5 29.1 37 28.6 36.5 28.1 36 27.6 35.6 27.2 35.1 26.8 34.6 26.4 34 26 33.5 25.6 32.9 25.2 32.4 24.9 31.8 24.5 31.2 24.1 30.6 23.8 30 23.5 29.4 23.1 28.8 22.8 28.2 22.4 27.6 22.1 27 21.7 26.4 21.1 25.4 20.4 25.6 20 25.7 19.7 25.8 19.4 25.9 19.2 25.9 19.1 26 19.2 25.9 19.4 25.8 19.7 25.6 19.9 25.5 20.2 25.3 20.7 25 20.7 24.4 20.7 24 20.7 23.6 20.5 23.2 20.3 22.9 20.1 22.5 20.1 22.5 20.2 22.4 20.6 22.1 21 21.9 21.4 21.6 21.8 21.4 22.1 21.2 22.3 21.4 22.4 21.6 22.6 21.8 22.8 22 22.9 22.3 23.1 22.5 23.3 22.7 23.4 23 23.5 23.2 23.7 23.5 23.8 23.8 23.9 24.1 24 24.4 24.1 24.8 24.2 25.2 24.4 25.6 24.6 26.1 24.8 26.6 25 27.1 25.2 27.7 25.5 28.2 25.8 28.8"/><linearGradient id="path968_1_" x1="-911.797" x2="-932.092" y1="-334.257" y2="-353.856" gradientTransform="matrix(0 1 -1 0 -314.064 954.9243)" gradientUnits="userSpaceOnUse"><stop style="stop-color:#fc0" id="stop965" offset=".4"/><stop style="stop-color:#fff" id="stop966" offset=".6"/></linearGradient><polygon id="path968" fill="url(#path968_1_)" points="37.7 41.7 38 42 38.2 42.3 38.5 42.6 38.7 42.9 38.8 43.1 39 43.3 39.1 43.5 39.1 43.6 39.1 43.7 39.1 43.7 39.1 43.7 39.1 43.8 39.1 43.8 39 43.9 38.9 44 38.8 44 38.8 44 38.8 44 38.7 44 38.6 43.9 38.4 43.9 38.2 43.7 38 43.6 37.7 43.4 37.4 43.1 37.1 42.9 36.8 42.6 36.4 42.3 36 42 35.6 41.7 35.2 41.4 34.7 41 34.2 40.7 33.7 40.3 33.2 39.9 32.7 39.5 32.1 39.1 31.6 38.7 31 38.2 30.4 37.7 29.9 37.3 29.4 36.8 28.8 36.3 28.3 35.8 27.9 35.3 27.4 34.8 27 34.4 26.6 33.8 26.2 33.3 25.9 32.8 25.5 32.2 25.1 31.6 24.8 31 24.4 30.4 24.1 29.8 23.7 29.2 23.4 28.6 23.1 28 22.7 27.4 22.4 26.8 22 26.2 21.3 25 21 25.1 21.1 24.4 21.1 24 21 23.5 20.8 23.1 20.6 22.7 20.5 22.6 21.2 22.2 21.6 21.9 22.1 21.6 22.2 21.8 22.4 22 22.5 22.2 22.7 22.4 22.8 22.7 23 22.9 23.1 23.1 23.3 23.4 23.4 23.6 23.5 23.9 23.6 24.2 23.7 24.5 23.8 24.9 23.9 25.3 24.1 25.7 24.3 26.2 24.4 26.7 24.7 27.3 24.9 27.8 25.2 28.4 25.5 29 25.8 29.5 26.1 30.1 26.5 30.7 26.9 31.3 27.3 31.9 27.8 32.5 28.3 33 28.8 33.6 29.3 34.1 29.8 34.7 30.4 35.2 31 35.7 31.6 36.2 32.2 36.7 32.8 37.2 33.4 37.7 34 38.2 34.6 38.7 35.1 39.1 35.6 39.6 36.1 40 36.5 40.4 36.8 40.7 37.1 41.1 37.4 41.4"/><linearGradient id="path975_1_" x1="-918.012" x2="-914.143" y1="-346.369" y2="-347.479" gradientTransform="matrix(0 1 -1 0 -324.6538 941.6333)" gradientUnits="userSpaceOnUse"><stop style="stop-color:#d49800" id="stop972" offset=".3"/><stop style="stop-color:#fc0" id="stop973" offset=".7"/></linearGradient><polygon id="path975" fill="url(#path975_1_)" points="23.3 23.6 24.1 26.2 22.2 27.5 20.6 25.5"/><linearGradient id="path982_1_" x1="-952.502" x2="-950.864" y1="-350.69" y2="-347.733" gradientTransform="matrix(0 0.8821 -1 6.260000e-002 -328.0913 886.465)" gradientUnits="userSpaceOnUse"><stop style="stop-color:#fc0" id="stop979" offset=".39"/><stop style="stop-color:#fff" id="stop980" offset=".61"/></linearGradient><path id="path982" fill="url(#path982_1_)" d="M18.6,26c0.2-0.7,4.1-2.3,4.5-2.5c0.4-0.2,0.3,1.1-0.1,1.3 C22.7,25,18.4,26.7,18.6,26z"/></g></g></g></g><rect id="path983" width="47.9" height="48" x=".1" fill="none"/></g></svg>