<svg xmlns="http://www.w3.org/2000/svg" xmlns:xlink="http://www.w3.org/1999/xlink" id="svg602" width="48" height="48" enable-background="new 0 0 48 48" overflow="visible" viewBox="0 0 48 48" xml:space="preserve"><g id="g1038"><path id="path607" d="M46.4,3.1H6.3v37.1h40.1 c0.4,0,0.8-0.3,0.8-0.7V3.8C47.1,3.4,46.8,3.1,46.4,3.1z" enable-background="new" opacity=".2"/><linearGradient id="path614_1_" x1="-1565.556" x2="-1438.954" y1="20.849" y2="20.849" gradientTransform="matrix(0.3479 0 0 0.2983 545.2225 12.9311)" gradientUnits="userSpaceOnUse"><stop style="stop-color:#999" id="stop608" offset="0"/><stop style="stop-color:#666" id="stop609" offset="1"/></linearGradient><path id="path614" fill="url(#path614_1_)" d="M1.3,0C0.6,0,0,0.6,0,1.3V37c0,0.7,0.6,1.3,1.3,1.3h42.5c0.7,0,1.3-0.6,1.3-1.3 V1.3c0-0.7-0.6-1.3-1.3-1.3H1.3L1.3,0z"/><linearGradient id="path615_1_" x1="-1565.543" x2="-1438.955" y1="20.681" y2="20.681" gradientTransform="matrix(0.3479 0 0 0.2983 545.2225 12.9311)" gradientUnits="userSpaceOnUse"><stop style="stop-color:#999" id="stop615" offset="0"/><stop style="stop-color:#666" id="stop616" offset="1"/></linearGradient><path id="path615" fill="url(#path615_1_)" d="M44.6,36.9c0,0.4-0.3,0.7-0.8,0.7H1.3c-0.4,0-0.8-0.3-0.8-0.7V1.3 c0-0.4,0.3-0.7,0.8-0.7h42.5c0.4,0,0.8,0.3,0.8,0.7V36.9L44.6,36.9z"/><linearGradient id="path622_1_" x1="-1563.411" x2="-1441.104" y1="-36.901" y2="78.526" gradientTransform="matrix(0.3479 0 0 0.2983 545.2225 12.9311)" gradientUnits="userSpaceOnUse"><stop style="stop-color:#fff" id="stop622" offset="0"/><stop style="stop-color:#d4ccbf" id="stop623" offset="1"/></linearGradient><path id="path622" fill="url(#path622_1_)" d="M1.5,1.5c0,0.4,0,34.9,0,35.3c0.4,0,41.8,0,42.2,0c0-0.4,0-34.9,0-35.3 C43.3,1.5,1.9,1.5,1.5,1.5z"/><linearGradient id="path629_1_" x1="-1489.098" x2="-1568.846" y1="33.274" y2="-44.565" gradientTransform="matrix(0.3479 0 0 0.2983 545.2225 12.9311)" gradientUnits="userSpaceOnUse"><stop style="stop-color:#fff" id="stop629" offset="0"/><stop style="stop-color:#666" id="stop630" offset="1"/></linearGradient><path id="path629" fill="url(#path629_1_)" d="M38.9,30.7c0,0.4-0.3,0.7-0.8,0.7H5.7c-0.4,0-0.8-0.3-0.8-0.7V6.2 c0-0.4,0.3-0.7,0.8-0.7h32.4c0.4,0,0.8,0.3,0.8,0.7V30.7L38.9,30.7z"/><path id="path630" fill="#FFF" d="M40.2,32c0,0.4-0.3,0.7-0.8,0.7L6.2,32.3c-0.4,0-0.5-0.4-0.5-0.8l0.6-24 c0-0.4,0.3-0.7,0.8-0.7l31-0.5c0.4,0,1.6,0.1,1.6,0.5L40.2,32z"/><path id="path631" fill="#036" d="M39.5,31.2c0,0.4-0.3,0.7-0.8,0.7H6.3c-0.4,0-0.8-0.3-0.8-0.7V6.7C5.5,6.3,5.9,6,6.3,6h32.4 c0.4,0,0.8,0.3,0.8,0.7V31.2L39.5,31.2z"/><path id="path632" fill="#39F" d="M6.5,6.9c0,0.4,0,23.8,0,24.1c0.4,0,31.7,0,32,0c0-0.4,0-23.8,0-24.1 C38.1,6.9,6.8,6.9,6.5,6.9z"/><linearGradient id="path188_1_" x1="-846.3" x2="-845.446" y1="417.298" y2="416.261" gradientTransform="matrix(31.8548 0 0 -17.8164 26967.7227 7441.7368)" gradientUnits="userSpaceOnUse"><stop style="stop-color:#c7ffff" id="stop639" offset="0"/><stop style="stop-color:#39f" id="stop640" offset="1"/></linearGradient><path id="path188" fill="url(#path188_1_)" d="M31.7,16.7c3.1-2.3,4.9-5.2,6.6-8.2c0-0.8,0-1.3,0-1.4c-0.4,0-31.6,0-32,0 c0,0.2,0,10.4,0,17.8c2-1.7,4.3-3,6.8-3.8C19.4,19.2,26.1,20.7,31.7,16.7z"/></g><g id="Layer_2_1_"><linearGradient id="path570_1_" x1="-1578.886" x2="-1578.07" y1="410.994" y2="410.994" gradientTransform="matrix(37.7297 0 0 37.0588 59578.1563 -15210.6738)" gradientUnits="userSpaceOnUse"><stop style="stop-color:#f66" id="stop647" offset="0"/><stop style="stop-color:red" id="stop648" offset=".579"/><stop style="stop-color:#cf0000" id="stop649" offset="1"/></linearGradient><path id="path570" fill="url(#path570_1_)" d="M25.5,29.2l-3.7-12.6L20,21.8L16.4,14L12,25.1l-2.1-3.4l-2.6,5.1v0.1c0.3,0,0.6,0,0.9,0c0.4-0.8,1.3-2.5,1.8-3.5 c0.6,1,2.2,3.5,2.2,3.5s3.5-8.7,4.3-10.9c0.8,1.9,3.5,7.9,3.5,7.9s1.1-3.3,1.6-4.8C22.4,22,25.4,32,25.4,32l0.6-2.3 c0,0,4.4-15.7,5.2-18.8c1,2.4,4.9,11.9,5.9,14.3c0.3,0,0.6,0,0.9,0L31.3,8.5L25.5,29.2z" enable-background="new" opacity=".2"/><linearGradient id="path580_1_" x1="-1578.864" x2="-1578.047" y1="-113.978" y2="-113.978" gradientTransform="matrix(37.7301 0 0 25.5987 59577.9883 2937.136)" gradientUnits="userSpaceOnUse"><stop style="stop-color:#f66" id="stop657" offset="0"/><stop style="stop-color:red" id="stop658" offset=".579"/><stop style="stop-color:#cf0000" id="stop659" offset="1"/></linearGradient><path id="path580" fill="url(#path580_1_)" d="M24.8,28.4L21,15.8L19.3,21l-3.5-7.8l-4.4,11.1l-2.1-3.4L6.7,26v0.1 c0.3,0,0.6,0,0.9,0c0.4-0.8,1.3-2.5,1.8-3.5c0.6,1,2.2,3.5,2.2,3.5s3.5-8.7,4.3-10.9c0.8,1.9,3.5,7.9,3.5,7.9s1.1-3.3,1.6-4.8 c0.8,2.9,3.7,12.9,3.7,12.9l0.6-2.3c0,0,4.4-15.7,5.2-18.8c1,2.4,4.9,11.9,5.9,14.3c0.3,0,0.6,0,0.9,0L30.6,7.7L24.8,28.4z"/></g><g id="g702"><path id="path2923" d="M29,25.9c-2.3,2.2-3.4,5.1-3.4,8.2v2.6c0,3.1,1.3,6,3.4,8.2c2.1,2,4.9,3.1,7.8,3.1c3,0,5.8-1.1,7.8-3.1 c2.3-2.2,3.4-5.1,3.4-8.2v-2.6c0-3.1-1.3-6-3.4-8.2c-2.1-2.1-4.9-3.1-7.8-3.1C33.9,22.7,31.1,23.8,29,25.9z"/><linearGradient id="path2927_1_" x1="-1411.427" x2="-1401.518" y1="26.933" y2="41.172" gradientTransform="matrix(0.763 0 0 0.9508 1110.0913 4.2152)" gradientUnits="userSpaceOnUse"><stop style="stop-color:#c09287" id="stop669" offset="0"/><stop style="stop-color:#803926" id="stop670" offset="1"/></linearGradient><path id="path2927" fill="url(#path2927_1_)" d="M46.8,33.5c-1.2-4.2-5.2-7.4-10.1-7.4c-4.9,0-8.9,3.1-10.1,7.4h-0.4v2.6 c0,5.5,4.7,10,10.4,10c5.8,0,10.4-4.5,10.4-10v-2.6H46.8z"/><linearGradient id="path2931_1_" x1="-1411.416" x2="-1401.436" y1="24.026" y2="38.366" gradientTransform="matrix(0.763 0 0 0.9508 1110.0913 4.2152)" gradientUnits="userSpaceOnUse"><stop style="stop-color:red" id="stop676" offset="0"/><stop style="stop-color:#f70" id="stop677" offset="1"/></linearGradient><path id="path2931" fill="url(#path2931_1_)" d="M47.2,33.5c0,5.5-4.7,10-10.4,10c-5.8,0-10.4-4.4-10.4-10c0-5.5,4.7-10,10.4-10 S47.2,28,47.2,33.5z"/><linearGradient id="path2935_1_" x1="-1407.909" x2="-1396.416" y1="31.537" y2="37.864" gradientTransform="matrix(0.763 0 0 0.9508 1110.0913 4.2152)" gradientUnits="userSpaceOnUse"><stop style="stop-color:#2c7894" id="stop683" offset="0"/><stop style="stop-color:#0e3d47" id="stop684" offset="1"/></linearGradient><path id="path2935" fill="url(#path2935_1_)" d="M47.2,36.5v-2.7c-1.2,5.6-3.7,8.1-6.8,9.2v2.5C43.8,44.3,47,41.4,47.2,36.5 L47.2,36.5z"/><linearGradient id="path2939_1_" x1="-1412.354" x2="-1397.124" y1="22.621" y2="36.133" gradientTransform="matrix(0.763 0 0 0.9508 1110.0913 4.2152)" gradientUnits="userSpaceOnUse"><stop style="stop-color:#2381ff" id="stop690" offset="0"/><stop style="stop-color:#00f" id="stop691" offset="1"/></linearGradient><path id="path2939" fill="url(#path2939_1_)" d="M47.2,33.5c-0.3,6.4-5.7,9.3-6.9,9.4l-3.5-9.4H47.2z"/><linearGradient id="path2943_1_" x1="-1422.356" x2="-1403.897" y1="34.586" y2="43.217" gradientTransform="matrix(0.763 0 0 0.9508 1110.0913 4.2152)" gradientUnits="userSpaceOnUse"><stop style="stop-color:#e8f066" id="stop697" offset="0"/><stop style="stop-color:#777a34" id="stop698" offset="1"/></linearGradient><path id="path2943" fill="url(#path2943_1_)" d="M34.6,45.9v-2.6c2,0.4,3.8,0.4,5.7-0.3v2.5C38.6,46.4,36.1,46.4,34.6,45.9 L34.6,45.9L34.6,45.9z"/><linearGradient id="path2947_1_" x1="-1418.725" x2="-1401.366" y1="27.286" y2="41.467" gradientTransform="matrix(0.763 0 0 0.9508 1110.0913 4.2152)" gradientUnits="userSpaceOnUse"><stop style="stop-color:#ff0" id="stop704" offset="0"/><stop style="stop-color:#faca00" id="stop705" offset="1"/></linearGradient><path id="path2947" fill="url(#path2947_1_)" d="M36.8,33.5l3.5,9.4c-2.2,1.2-5.7,0.4-5.7,0.4L36.8,33.5L36.8,33.5z"/><path id="path2948" fill="#ECCFC7" d="M43.7,26.1 c0,0,3.7,3,3.4,7.8c-0.3,4.8-5,11.1-12.7,9.3c7.7,0.7,11.9-5.3,12.2-9.2C46.9,30.2,45.1,27.8,43.7,26.1z" enable-background="new" opacity=".45"/><path id="path2949" fill="#EDA18C" d="M33.4,42.9c-3.1-0.8-7.2-4.5-7-9.7c0.1-4.9,4.5-10.7,12.4-9.6c-7.7-0.5-11.8,4.9-12,9.3 C26.7,37.1,30.1,41.9,33.4,42.9z"/></g></svg>