<svg xmlns="http://www.w3.org/2000/svg" xmlns:xlink="http://www.w3.org/1999/xlink" id="svg602" width="48" height="48" enable-background="new 0 0 48 48" overflow="visible" viewBox="0 0 48 48" xml:space="preserve"><g id="Layer_1"><g id="g606"><rect id="rect606" width="48" height="48" fill="none"/><circle id="circle608" cx="22.7" cy="26.8" r="20.3" fill="#7C0000"/><rect id="rect609" width="9.2" height="8.5" x="29.8" y="7.4" fill="#7C0000" transform="matrix(0.7741 0.6331 -0.6331 0.7741 15.1516 -19.1691)"/><linearGradient id="path624_1_" x1="-188.172" x2="-179.499" y1="448.065" y2="435.376" gradientTransform="matrix(1 0 0 -1 199.9229 458.8887)" gradientUnits="userSpaceOnUse"><stop style="stop-color:#fff" id="stop611" offset="0"/><stop style="stop-color:#7c0000" id="stop612" offset="1"/></linearGradient><path id="path624" fill="url(#path624_1_)" d="M28.8,11.1c2.8,4.4-0.1,11.5-6.6,15.6C15.9,31,8.4,30.9,5.6,26.5 C2.9,22.1,5.7,15,12.2,10.9C18.6,6.5,26.1,6.7,28.8,11.1z"/><linearGradient id="path631_1_" x1="-352.251" x2="-360.126" y1="59.346" y2="49.096" gradientTransform="matrix(1.0733 9.580456e-002 9.580457e-002 1.1252 409.5186 12.6388)" gradientUnits="userSpaceOnUse"><stop style="stop-color:red" id="stop618" offset="0"/><stop style="stop-color:#7c0000" id="stop619" offset="1"/></linearGradient><path id="path631" fill="url(#path631_1_)" d="M15.9,41.2c4.1,4.9,12.1,5.2,18.2,0.5c6.1-4.6,7.9-12.5,4.2-17.7L15.9,41.2z"/><linearGradient id="polygon638_1_" x1="-410.707" x2="-406.957" y1="-34.828" y2="-31.953" gradientTransform="matrix(0.7815 -0.2756 -0.2756 0.893 342.9366 -74.4549)" gradientUnits="userSpaceOnUse"><stop style="stop-color:#fff" id="stop625" offset="0"/><stop style="stop-color:#7c0000" id="stop626" offset=".433"/></linearGradient><polygon id="polygon638" fill="url(#polygon638_1_)" points="34 13 30 9.7 33.5 5.4 37.5 8.7"/><ellipse id="ellipse639" cx="37.4" cy="8" fill="#FFF" stroke="#7C0000" stroke-width=".72" rx="4.4" ry="2.3" transform="matrix(-0.7837 -0.6211 0.6211 -0.7837 61.7127 37.5123)"/><path id="path640" fill="none" stroke="#FFCA00" stroke-linecap="round" stroke-width="2.25" d="M44.2,1.7 C46,3,46.1,5.4,43.4,5.6c-1.1,0.1-2.3-0.5-3.4-0.3c-1,0.3-1.6,1.1-2.2,1.9"/></g></g></svg>