<svg xmlns="http://www.w3.org/2000/svg" xmlns:xlink="http://www.w3.org/1999/xlink" id="svg602" width="48" height="48" enable-background="new 0 0 48 48" overflow="visible" viewBox="0 0 48 48" xml:space="preserve"><g id="Layer_1"><path id="path606" d="M1.2,24.6C1.2,37.5,11.7,48,24.6,48 C37.5,48,48,37.5,48,24.6C48,11.7,37.5,1.2,24.6,1.2C11.7,1.2,1.2,11.7,1.2,24.6z M16,24.6c0-4.8,3.9-8.6,8.6-8.6 c4.8,0,8.6,3.9,8.6,8.6c0,4.8-3.9,8.6-8.6,8.6C19.9,33.2,16,29.4,16,24.6z" enable-background="new" opacity=".2"/><path id="path607" fill="#633" d="M0,23.8c0,13.1,10.7,23.8,23.8,23.8c13.1,0,23.8-10.7,23.8-23.8C47.6,10.7,36.9,0,23.8,0 C10.7,0,0,10.7,0,23.8z M15.6,23.8c0-4.5,3.7-8.2,8.2-8.2s8.2,3.7,8.2,8.2S28.3,32,23.8,32S15.6,28.3,15.6,23.8z"/><radialGradient id="XMLID_3_" cx="-224.499" cy="361.5" r="57" fx="-224.499" fy="361.5" gradientTransform="matrix(0.4103 0 0 -0.4103 115.8972 172.1028)" gradientUnits="userSpaceOnUse"><stop style="stop-color:#b00000" id="stop609" offset="0"/><stop style="stop-color:#930" id="stop610" offset="1"/></radialGradient><path id="path614" fill="url(#XMLID_3_)" d="M0.4,23.8c0,12.9,10.5,23.4,23.4,23.4s23.4-10.5,23.4-23.4S36.7,0.4,23.8,0.4S0.4,10.9,0.4,23.8z M15.2,23.8c0-4.8,3.9-8.6,8.6-8.6c4.8,0,8.6,3.9,8.6,8.6c0,4.8-3.9,8.6-8.6,8.6C19,32.4,15.2,28.5,15.2,23.8z"/><radialGradient id="XMLID_4_" cx="-224.499" cy="361.5" r="54" fx="-224.499" fy="361.5" gradientTransform="matrix(0.4103 0 0 -0.4103 115.8972 172.1028)" gradientUnits="userSpaceOnUse"><stop style="stop-color:#fff" id="stop616" offset="0"/><stop style="stop-color:#ff9393" id="stop617" offset=".185"/><stop style="stop-color:red" id="stop618" offset=".427"/><stop style="stop-color:#cf0000" id="stop619" offset="1"/></radialGradient><path id="path627" fill="url(#XMLID_4_)" d="M23.8,1.6c-12.2,0-22.2,9.9-22.2,22.2c0,12.2,9.9,22.2,22.2,22.2c12.2,0,22.2-9.9,22.2-22.2 C45.9,11.6,36,1.6,23.8,1.6z M23.8,33.6c-5.4,0-9.8-4.4-9.8-9.8s4.4-9.8,9.8-9.8c5.4,0,9.8,4.4,9.8,9.8S29.2,33.6,23.8,33.6z"/><path id="path570" fill="#FFF" d="M23.8,6.2 c10.8,0,19.7,8.4,20.5,19.1c0-0.5,0.1-1,0.1-1.4c0-11.3-9.2-20.5-20.5-20.5c-11.3,0-20.5,9.2-20.5,20.5c0,0.5,0,1,0.1,1.4 C4.1,14.6,13,6.2,23.8,6.2z" enable-background="new" opacity=".5"/><path id="path571" fill="#FFF" d="M23.8,38.2 c6.3,0,11.5-5.2,11.5-11.5c0-0.5,0-1-0.1-1.4c-0.7,5.7-5.5,10.1-11.4,10.1s-10.7-4.4-11.4-10.1c-0.1,0.5-0.1,0.9-0.1,1.4 C12.3,33,17.5,38.2,23.8,38.2z" enable-background="new" opacity=".4"/><path id="path572" fill="#FFF" d="M23.8,45.9c4,0,7.8-1.1,11.1-3l-6.2-10.7c-1.4,0.8-3.1,1.3-4.9,1.3c-1.8,0-3.5-0.5-4.9-1.3 L12.7,43C16,44.9,19.8,45.9,23.8,45.9z"/><path id="path573" fill="#FFF" d="M23.8,1.6c-4,0-7.8,1.1-11.1,3l6.2,10.7c1.4-0.8,3.1-1.3,4.9-1.3c1.8,0,3.5,0.5,4.9,1.3 l6.2-10.7C31.6,2.7,27.8,1.6,23.8,1.6z"/><path id="path574" fill="#FFF" d="M33.6,23.8c0,1.8-0.5,3.5-1.3,4.9L43,34.9c1.9-3.3,3-7,3-11.1s-1.1-7.8-3-11.1l-10.7,6.2 C33.2,20.3,33.6,22,33.6,23.8z"/><path id="path575" fill="#FFF" d="M13.9,23.8c0-1.8,0.5-3.5,1.3-4.9L4.6,12.7c-1.9,3.3-3,7-3,11.1s1.1,7.8,3,11.1l10.7-6.2 C14.4,27.3,13.9,25.6,13.9,23.8z"/><path id="path634" fill="#616161" d="M23.8,11.5 c-5.4,0-9.8,4.4-9.8,9.8c0,0.4,0,0.8,0.1,1.2c0.6-4.9,4.8-8.6,9.8-8.6c5,0,9.2,3.8,9.8,8.6c0-0.4,0.1-0.8,0.1-1.2 C33.6,15.9,29.2,11.5,23.8,11.5z M23.8,43.5C12,43.5,2.3,34.2,1.7,22.6c0,0.4,0,0.8,0,1.2c0,12.2,9.9,22.2,22.2,22.2 c12.2,0,22.2-9.9,22.2-22.2c0-0.4,0-0.8,0-1.2C45.3,34.2,35.6,43.5,23.8,43.5z" enable-background="new" opacity=".3"/><path id="path635" fill="#616161" d="M23.8,45.9 c11.9,0,21.7-9.4,22.1-21.3c0-0.2,0-0.3,0-0.5c-0.6,11.7-10.3,20.9-22.1,20.9C12,45.1,2.3,35.9,1.7,24.2c0,0.2,0,0.3,0,0.5 C2.1,36.5,11.9,45.9,23.8,45.9z M13.9,23c0,0.1,0,0.2,0,0.4c0.2-5.2,4.6-9.4,9.8-9.4c5.3,0,9.6,4.2,9.8,9.4c0-0.1,0-0.2,0-0.4 c0-5.4-4.4-9.8-9.8-9.8C18.4,13.1,13.9,17.5,13.9,23z" enable-background="new" opacity=".3"/></g></svg>