<svg xmlns="http://www.w3.org/2000/svg" xmlns:xlink="http://www.w3.org/1999/xlink" id="svg602" width="48" height="48" enable-background="new 0 0 48 48" overflow="visible" viewBox="0 0 48 48" xml:space="preserve"><g id="g1907"><g id="g408"><path id="path409" d="M47.5,23.4l-22-21.7 c-0.2-0.2-0.6-0.4-0.9-0.4c-0.3,0-0.7,0.1-0.9,0.4l-22,21.7c-0.2,0.2-0.4,0.6-0.4,0.9c0,0.3,0.1,0.7,0.4,0.9l22,21.7 c0.5,0.5,1.3,0.5,1.8,0l22-21.7c0.2-0.2,0.4-0.6,0.4-0.9C47.9,24,47.7,23.7,47.5,23.4z" enable-background="new" opacity=".2"/><linearGradient id="path413_1_" x1="-807.271" x2="-784.354" y1="394.923" y2="362.966" gradientTransform="matrix(0.3328 0 0 -0.328 282.0838 138.865)" gradientUnits="userSpaceOnUse"><stop style="stop-color:#fff" id="stop609" offset="0"/><stop style="stop-color:#4b4b73" id="stop610" offset="1"/></linearGradient><path id="path413" fill="url(#path413_1_)" d="M23.9,0.7c-0.3,0-0.7,0.1-0.9,0.4L1,22.8c-0.2,0.2-0.4,0.6-0.4,0.9 c0,0.3,0.1,0.7,0.4,0.9l22,21.7c0.5,0.5,1.3,0.5,1.8,0l22-21.7c0.2-0.2,0.4-0.6,0.4-0.9c0-0.3-0.2-0.7-0.4-0.9l-22-21.7 C24.5,0.8,24.2,0.7,23.9,0.7z"/><rect id="path414" width="30.9" height="30.9" x="8.4" y="8.2" fill="#FFF" transform="matrix(0.7122 -0.702 0.702 0.7122 -9.7513 23.548)"/><linearGradient id="path418_1_" x1="-778.778" x2="-749.755" y1="356.155" y2="304.549" gradientTransform="matrix(0.3328 0 0 -0.328 282.0838 138.865)" gradientUnits="userSpaceOnUse"><stop style="stop-color:#bfbfbf" id="stop617" offset="0"/><stop style="stop-color:#7084cc" id="stop618" offset="1"/></linearGradient><path id="path418" fill="url(#path418_1_)" d="M3.7,23.7C5.3,25.2,22.3,42,23.9,43.6C25.5,42,42.4,25.2,44,23.7C42.4,22.1,25.5,5.3,23.9,3.8C22.3,5.3,5.3,22.1,3.7,23.7z" enable-background="new" opacity=".4"/></g><path id="path419" d="M4,20.4 c0.4,0.5,0.6,0.8,0.8,1.2c0.2,0.5,0.6,1.2,1.4,2c1.5,1.6,3.1,1.4,3.8,0.9l0,0l0,0c0,0,0.9-0.8,2.1-1.9c1.8,2,8.4,9.3,12.4,15.2 c1.5,2.3,4.2,3,6.7,3.7L33,42l0.4,0.1c2.5,0.9,4.8,1.9,8.6,4.5l1.1,0.7l1.5-2.1l-0.8-0.9c-2-2.1-2.9-4.6-3.8-7.1 c-0.9-2.4-1.7-4.7-3.5-6.4l0,0l0,0C32.8,27.6,22,18.5,19.3,16.2c0.4-0.3,0.6-0.5,0.8-0.6c0.3-0.2,1.1-0.9,0.8-2.1 c-0.1-0.6-0.5-1.1-1.1-1.8c-0.6-0.7-1.5-1-2.2-1.3c-0.3-0.1-0.9-0.3-1-0.5C15.8,9,11.7,4.7,9.2,2.2h-9v14.4 C1.8,18.3,3.4,19.9,4,20.4z" enable-background="new" opacity=".2"/><g id="g440"><g id="g441"><linearGradient id="path454_1_" x1="-775.987" x2="-744.125" y1="314.287" y2="338.333" gradientTransform="matrix(0.3328 0 0 -0.328 282.0838 138.865)" gradientUnits="userSpaceOnUse"><stop style="stop-color:#930" id="stop627" offset="0"/><stop style="stop-color:#ffb800" id="stop628" offset=".293"/><stop style="stop-color:#ffffe1" id="stop629" offset=".596"/><stop style="stop-color:#fffede" id="stop630" offset=".658"/><stop style="stop-color:#fffbd3" id="stop631" offset=".713"/><stop style="stop-color:#fff5c1" id="stop632" offset=".765"/><stop style="stop-color:#ffeda7" id="stop633" offset=".815"/><stop style="stop-color:#ffe387" id="stop634" offset=".864"/><stop style="stop-color:#ffd65f" id="stop635" offset=".912"/><stop style="stop-color:#ffc730" id="stop636" offset=".959"/><stop style="stop-color:#ffb800" id="stop637" offset="1"/></linearGradient><path id="path454" fill="url(#path454_1_)" d="M17.4,19.7c1,1.5,6.9,10.8,8.6,15.6c0.9,2.7,4.2,2.9,7,4.1 c2.5,1,4.6,2.1,7.7,4.7c0.5-0.5,0,0,0.5-0.5c-3.1-4.4-1.2-10.4-3.6-13.5C34.4,26.4,24,15,24,15S24.1,14.9,17.4,19.7L17.4,19.7z"/><g id="g455"><linearGradient id="XMLID_1_" x1="-807.122" x2="-710.253" y1="380.724" y2="282.896" gradientTransform="matrix(0.3328 0 0 -0.328 282.0838 138.865)" gradientUnits="userSpaceOnUse"><stop style="stop-color:#8e5100" id="stop662" offset="0"/><stop style="stop-color:#8c5000" id="stop663" offset=".295"/><stop style="stop-color:#844b00" id="stop664" offset=".458"/><stop style="stop-color:#764300" id="stop665" offset=".589"/><stop style="stop-color:#623800" id="stop666" offset=".703"/><stop style="stop-color:#492a00" id="stop667" offset=".806"/><stop style="stop-color:#2a1800" id="stop668" offset=".901"/><stop style="stop-color:#050300" id="stop669" offset=".989"/><stop style="stop-color:#000" id="stop670" offset="1"/></linearGradient><path id="path688" fill="url(#XMLID_1_)" d="M42.4,42.8c-1.5-2.1-1.7-4.6-1.9-7.1c-0.2-2.4-0.4-4.7-1.7-6.4l0,0l0,0 c-3.2-3.7-13.6-15-13.7-15.1l-0.8-0.8l-0.9,0.7l-7.7,5.5l0.7,1c0.1,0.1,5.8,8.9,8.6,15.7c0.9,2.3,3.3,3,5.7,3.7l1.6,0.5 l0.3,0.1c2.2,0.9,4.3,1.9,7.4,4.5l0.9,0.7l2.1-2.1L42.4,42.8L42.4,42.8z M33,39.4c-2.9-1.2-6.1-1.3-7-4.1 c-1.8-4.8-7.7-14.1-8.6-15.6c6.7-4.8,6.7-4.8,6.7-4.8S34.5,26.3,37.7,30c2.3,3.1,0.5,9.1,3.6,13.5l-0.1,0.1 c-0.5-0.8-2.4-3.6-9-13L31.6,31l9,13C37.6,41.4,35.5,40.4,33,39.4z"/><linearGradient id="path470_1_" x1="-776.425" x2="-743.931" y1="341.112" y2="280.033" gradientTransform="matrix(0.3328 0 0 -0.328 282.0838 138.865)" gradientUnits="userSpaceOnUse"><stop style="stop-color:#fff" id="stop690" offset=".027"/><stop style="stop-color:#ffb800" id="stop691" offset="1"/></linearGradient><path id="path470" fill="url(#path470_1_)" d="M28.7,36.6c-2.7-2.7-1.3-5.6-9-18.6l-2.4,1.7c0,0,5.9,8.9,8.7,15.9 c0.9,2.1,3.8,2.6,6.6,3.6c0.1,0,0.2,0.1,0.2,0.1C31.8,38.4,30.4,38.3,28.7,36.6z"/><radialGradient id="path474_1_" cx="-756.347" cy="330.894" r="9.713" fx="-756.347" fy="330.894" gradientTransform="matrix(0.3328 0 0 -0.328 282.0838 138.865)" gradientUnits="userSpaceOnUse"><stop style="stop-color:#000" id="stop697" offset=".468"/><stop style="stop-color:#8e5100" id="stop698" offset="1"/></radialGradient><circle id="path474" cx="31.9" cy="30.9" r="1.4" fill="url(#path474_1_)"/></g></g><linearGradient id="path478_1_" x1="-795.25" x2="-772.976" y1="354.939" y2="371.75" gradientTransform="matrix(0.3328 0 0 -0.328 282.0838 138.865)" gradientUnits="userSpaceOnUse"><stop style="stop-color:#ffae00" id="stop704" offset="0"/><stop style="stop-color:#4c1c00" id="stop705" offset="1"/></linearGradient><path id="path478" fill="url(#path478_1_)" d="M17.4,19.7c0.3,0.4,0.9,1.4,1.8,2.8c0.8-2.7,7.7-2,7.2-5.1c-1.4-1.5-2.3-2.5-2.3-2.5S24.1,14.9,17.4,19.7L17.4,19.7z" enable-background="new" opacity=".75"/></g><linearGradient id="path482_1_" x1="-949.509" x2="-802.398" y1="512.617" y2="388.98" gradientTransform="matrix(0.3328 0 0 -0.328 282.0838 138.865)" gradientUnits="userSpaceOnUse"><stop style="stop-color:#fff" id="stop711" offset="0"/><stop style="stop-color:#000" id="stop712" offset="1"/></linearGradient><path id="path482" fill="url(#path482_1_)" d="M9.2,18.6c0.3,0.5,0.4,0.8,0.5,1.2c0.1,0.5,0.2,1.2,0.9,2c1.1,1.6,2.8,1.4,3.6,0.9 l0,0l0,0c0.1-0.1,11.1-8,12.5-8.9c0.3-0.2,1.4-0.9,1.4-2.1c0-0.6-0.2-1.1-0.6-1.8c-0.4-0.7-1.2-1-1.9-1.3 c-0.3-0.1-0.8-0.3-0.9-0.5c-0.6-0.9-3.4-5-5.2-7.5h-1.3c1.7,2.4,5,7.2,5.6,8.1c0.5,0.8,2.3,0.9,2.8,1.7c0.8,1.2,0.5,1.9-0.5,2.5 c-1.3,0.9-12.5,8.9-12.5,8.9s-1.2,0.8-2.2-0.6c-1-1.4-0.4-1.9-1.3-3.2s-6-8-6-8L0.2,5.7v1.5c1.7,1.9,3.1,3.4,3.1,3.4 C3.5,11,8.4,17.4,9.2,18.6L9.2,18.6z"/><linearGradient id="path486_1_" x1="-830.579" x2="-814.581" y1="386.122" y2="397.946" gradientTransform="matrix(0.3328 0 0 -0.328 282.0838 138.865)" gradientUnits="userSpaceOnUse"><stop style="stop-color:#fff" id="stop718" offset="0"/><stop style="stop-color:#000" id="stop719" offset="1"/></linearGradient><path id="path486" fill="url(#path486_1_)" d="M10,18.1c0.9,1.3,0.3,1.8,1.3,3.2c1,1.4,2.2,0.6,2.2,0.6s11.2-8,12.5-8.9 c0.9-0.6,1.2-1.3,0.5-2.5c-0.5-0.8-2.3-0.9-2.8-1.7c-0.6-0.9-3.9-5.7-5.6-8.1h-0.8c1.5,2.2,5.2,7.5,5.8,8.5 c0.1,0.1,0.1,0.2,0.2,0.3c-1.7,1.2,0,0-1.7,1.2C20.2,8.5,15,1,14.7,0.6H0.2v5.1L4.1,10C4.1,10,9.2,16.8,10,18.1L10,18.1z"/><linearGradient id="path498_1_" x1="-793.625" x2="-779.768" y1="406.101" y2="414.581" gradientTransform="matrix(0.3328 0 0 -0.328 282.0838 138.865)" gradientUnits="userSpaceOnUse"><stop style="stop-color:#fff" id="stop725" offset="0"/><stop style="stop-color:#000" id="stop726" offset="1"/></linearGradient><path id="path498" fill="url(#path498_1_)" d="M23.3,9.4c-0.1-0.1-0.2-0.2-0.2-0.3c-0.6-1-4.3-6.2-5.8-8.5h-2.6 c0.3,0.4,5.5,7.8,6.9,9.9C23.3,9.4,21.6,10.6,23.3,9.4z"/><linearGradient id="path1293_1_" x1="-816.258" x2="-766.373" y1="358.598" y2="394.534" gradientTransform="matrix(0.3328 0 0 -0.328 282.0838 138.865)" gradientUnits="userSpaceOnUse"><stop style="stop-color:#930" id="stop732" offset="0"/><stop style="stop-color:#ffb800" id="stop733" offset=".293"/><stop style="stop-color:#ffffe1" id="stop734" offset=".596"/><stop style="stop-color:#fffede" id="stop735" offset=".658"/><stop style="stop-color:#fffbd3" id="stop736" offset=".713"/><stop style="stop-color:#fff5c1" id="stop737" offset=".765"/><stop style="stop-color:#ffeda7" id="stop738" offset=".815"/><stop style="stop-color:#ffe387" id="stop739" offset=".864"/><stop style="stop-color:#ffd65f" id="stop740" offset=".912"/><stop style="stop-color:#ffc730" id="stop741" offset=".959"/><stop style="stop-color:#ffb800" id="stop742" offset="1"/></linearGradient><path id="path1293" fill="url(#path1293_1_)" d="M10.6,19.3C10.6,19.4,10.6,19.4,10.6,19.3c0.1,0.6,0.2,1.1,0.7,1.9 c0.3,0.4,0.5,0.6,0.8,0.7c0.1,0.1,14.7-10.6,14.7-10.6c-0.1-0.3-0.2-0.5-0.4-0.9c-0.3-0.5-1-0.7-1.6-1c0,0-0.1,0-0.1-0.1 c0,0,0,0-0.1,0C24.6,9.4,10.6,19.3,10.6,19.3L10.6,19.3z"/><linearGradient id="path1297_1_" x1="-811.811" x2="-817.948" y1="361.455" y2="356.396" gradientTransform="matrix(0.3328 0 0 -0.328 282.0838 138.865)" gradientUnits="userSpaceOnUse"><stop style="stop-color:#ffffe1" id="stop766" offset="0"/><stop style="stop-color:#ffb800" id="stop767" offset="1"/></linearGradient><path id="path1297" fill="url(#path1297_1_)" d="M13.3,17.4c-1.6,1.1-2.7,1.9-2.7,1.9v0.1c0.1,0.5,0.2,1,0.7,1.8 c0.3,0.4,0.5,0.6,0.8,0.7c0,0,1-0.7,2.5-1.7C13.3,19,13.3,18.2,13.3,17.4z"/></g><g id="Layer_2_1_"><rect id="path407" width="48" height="48" fill="none"/></g></svg>