<svg xmlns="http://www.w3.org/2000/svg" xmlns:xlink="http://www.w3.org/1999/xlink" id="svg602" width="48" height="48" enable-background="new 0 0 48 48" overflow="visible" viewBox="0 0 48 48" xml:space="preserve"><g id="Layer_x5F_1"><g id="g620"><path id="path155" d="M10.1,1.6 c-1.8,0-3.3,1.5-3.3,3.3v39.4c0,1.8,1.5,3.3,3.3,3.3h34.6c1.8,0,3.3-1.5,3.3-3.3V4.9c0-1.8-1.5-3.3-3.3-3.3H10.1z" enable-background="new" opacity=".2"/><linearGradient id="path162_1_" x1="-1385.998" x2="-1165.498" y1="291.729" y2="291.729" gradientTransform="matrix(0.1875 0 0 -0.1875 264.8174 78.0996)" gradientUnits="userSpaceOnUse"><stop style="stop-color:#a7abac" id="stop609" offset="0"/><stop style="stop-color:#85898a" id="stop610" offset="1"/></linearGradient><path id="path162" fill="url(#path162_1_)" d="M8.3,0.4C6.5,0.4,5,1.9,5,3.7v39.4c0,1.8,1.5,3.3,3.3,3.3H43 c1.8,0,3.3-1.5,3.3-3.3V3.7c0-1.8-1.5-3.3-3.3-3.3H8.3z"/><path id="path163" fill="#9CF" d="M5.9,43.1c0,1.3,1.1,2.4,2.4,2.4H43c1.3,0,2.4-1.1,2.4-2.4V3.7c0-1.3-1.1-2.4-2.4-2.4H8.3 C7,1.3,5.9,2.4,5.9,3.7V43.1z"/><linearGradient id="path170_1_" x1="-1321.301" x2="-1072.452" y1="337.473" y2="88.624" gradientTransform="matrix(0.1875 0 0 -0.1875 264.8174 78.0996)" gradientUnits="userSpaceOnUse"><stop style="stop-color:#fff" id="stop617" offset="0"/><stop style="stop-color:#9cf" id="stop618" offset="1"/></linearGradient><path id="path170" fill="url(#path170_1_)" d="M8.3,2.3C7.5,2.3,6.9,3,6.9,3.7v39.4c0,0.8,0.6,1.4,1.4,1.4H43 c0.8,0,1.4-0.6,1.4-1.4V3.7c0-0.8-0.6-1.4-1.4-1.4H8.3z"/><path id="path171" fill="#FFF" d="M32.5,19.1 c3.7-3.4,8.1-5.1,12.8-6V3.7c0-1.3-1.1-2.4-2.4-2.4H8.3C7,1.3,5.9,2.4,5.9,3.7v28.2C15.7,32.7,24.9,25.9,32.5,19.1z" enable-background="new" opacity=".4"/></g></g><g id="Layer_x5F_2"><g id="g625"><path id="path172" fill="#999" d="M3.9,5.7 c-1.7,0-3.1,1.1-3.1,2.5v31.1c0,1.4,1.4,2.5,3.1,2.5h37.8c1.7,0,3.1-1.1,3.1-2.5v-31c0-1.4-1.4-2.5-3.1-2.5L3.9,5.7L3.9,5.7z" enable-background="new" opacity=".3"/><linearGradient id="path179_1_" x1="-449.461" x2="-449.461" y1="232.636" y2="25.157" gradientTransform="matrix(0.1875 0 0 0.1875 105.6738 -0.4688)" gradientUnits="userSpaceOnUse"><stop style="stop-color:#6a5b97" id="stop628" offset="0"/><stop style="stop-color:#6d7bb0" id="stop629" offset="1"/></linearGradient><path id="path179" fill="url(#path179_1_)" d="M42.8,38.2c0,1.1-1.1,2-2.5,2H2.5c-1.4,0-2.5-0.9-2.5-2v-31c0-1.1,1.1-2,2.5-2 h37.8c1.4,0,2.5,0.9,2.5,2V38.2L42.8,38.2z"/><linearGradient id="path186_1_" x1="-558.259" x2="-341.08" y1="123.834" y2="123.834" gradientTransform="matrix(0.1875 0 0 0.1875 105.6738 -0.4688)" gradientUnits="userSpaceOnUse"><stop style="stop-color:#efedf5" id="stop635" offset="0"/><stop style="stop-color:#99acd2" id="stop636" offset="1"/></linearGradient><path id="path186" fill="url(#path186_1_)" d="M2.5,6C1.7,6,1,6.5,1,7.2v31.1c0,0.7,0.7,1.2,1.5,1.2h37.8c0.8,0,1.5-0.5,1.5-1.2 V7.2c0-0.7-0.7-1.2-1.5-1.2H2.5L2.5,6z"/><path id="path187" fill="#FFF" d="M3.1,25.4 c1.4,0.1,2.8,0.2,4.2,0.2c16.8,0,30.3-7.5,30.3-16.8c0-0.4,0-0.7-0.1-1.1c-7.7,0-33.4,0-34.5,0C3.1,8.2,3.1,17.4,3.1,25.4z" enable-background="new" opacity=".64"/></g></g><g id="Layer_x5F_3"><g id="g643"><linearGradient id="XMLID_1_" x1="-360.659" x2="-341.071" y1="15.659" y2="15.659" gradientTransform="matrix(1 0 0 1 356.5 0.5)" gradientUnits="userSpaceOnUse"><stop style="stop-color:#3c3" id="stop645" offset="0"/><stop style="stop-color:#2fc82f" id="stop646" offset=".292"/><stop style="stop-color:#24bd24" id="stop647" offset=".561"/><stop style="stop-color:#12ab12" id="stop648" offset=".822"/><stop style="stop-color:#090" id="stop649" offset="1"/></linearGradient><path id="path659" fill="url(#XMLID_1_)" d="M11.7,5.2l-0.6,0.5L0,16.2l12.5,11.6c0,0,0-4.6,0-5.1c0.6-0.2,9.1-2.6,9.1-2.6v-8 c0,0-8.5-2.3-9.1-2.5c0-0.6,0-5.1,0-5.1L11.7,5.2z"/><linearGradient id="XMLID_2_" x1="-390.44" x2="-370.853" y1="67.753" y2="67.753" gradientTransform="matrix(1 0 0 1 391.6294 -51.5938)" gradientUnits="userSpaceOnUse"><stop style="stop-color:#3c3" id="stop661" offset="0"/><stop style="stop-color:#2fc82f" id="stop662" offset=".292"/><stop style="stop-color:#24bd24" id="stop663" offset=".561"/><stop style="stop-color:#12ab12" id="stop664" offset=".822"/><stop style="stop-color:#090" id="stop665" offset="1"/></linearGradient><path id="path675" fill="url(#XMLID_2_)" d="M11.4,6.1l-1,0.9l-9.8,9.2L12,26.8c0,0,0-3.9,0-4.4c0.5-0.1,9.1-2.6,9.1-2.6v-7.3 c0,0-8.6-2.4-9.1-2.5c0-0.5,0-4.4,0-4.4L11.4,6.1z"/><linearGradient id="XMLID_3_" x1="-390.44" x2="-370.853" y1="67.754" y2="67.754" gradientTransform="matrix(1 0 0 1 391.6294 -51.5938)" gradientUnits="userSpaceOnUse"><stop style="stop-color:#3c3" id="stop677" offset="0"/><stop style="stop-color:#2fc82f" id="stop678" offset=".292"/><stop style="stop-color:#24bd24" id="stop679" offset=".561"/><stop style="stop-color:#12ab12" id="stop680" offset=".822"/><stop style="stop-color:#090" id="stop681" offset="1"/></linearGradient><path id="path691" fill="url(#XMLID_3_)" d="M10.7,7.3l-4.5,4.2l-5,4.7l10.5,9.8c0,0,0-3.2,0-3.9c0.8-0.2,9.1-2.6,9.1-2.6v-6.7 c0,0-8.3-2.3-9.1-2.5c0-0.7,0-3.9,0-3.9L10.7,7.3z"/><polygon id="polygon692" fill="#9F6" points="20.2 13.3 11.1 10.8 11.1 7.8 6.6 12 2.1 16.2 6.6 20.4 11.1 24.6 11.1 21.5 20.2 19"/><linearGradient id="XMLID_4_" x1="-380.3" x2="-380.3" y1="72.113" y2="54.426" gradientTransform="matrix(1 0 0 1 391.6294 -51.5938)" gradientUnits="userSpaceOnUse"><stop style="stop-color:#3c3" id="stop694" offset="0"/><stop style="stop-color:#090" id="stop695" offset="1"/></linearGradient><path id="path699" fill="url(#XMLID_4_)" d="M15.3,16.2c-2.1-0.5-4.2-1.5-6.3-0.8c-1.8,0.8-3.9,1-5.9,0.7c0,0,0,0,0,0c0.9,0.9,6,5.6,7.2,6.7 c0-0.7,0-2,0-2s8.2-2.3,9.1-2.6c0-0.5,0-1.7,0-2.8C18.2,16.1,16.8,16.6,15.3,16.2z"/><linearGradient id="XMLID_5_" x1="-380.293" x2="-380.293" y1="62.441" y2="70.331" gradientTransform="matrix(1 0 0 1 391.6294 -51.5938)" gradientUnits="userSpaceOnUse"><stop style="stop-color:#4db36d" id="stop701" offset="0"/><stop style="stop-color:#1e7945" id="stop702" offset="1"/></linearGradient><path id="path706" fill="url(#XMLID_5_)" d="M9,15.4 c2.1-0.8,4.2,0.3,6.3,0.8c1.5,0.4,2.8-0.1,4.2-0.6c0-0.7,0-1.4,0-1.7c-0.9-0.3-9.1-2.5-9.1-2.5s0-1.3,0-2 C9.1,10.6,7,12.5,7,12.5s-2.9,2.7-3.9,3.6C5.1,16.4,7.2,16.3,9,15.4z" enable-background="new" opacity=".44"/><linearGradient id="XMLID_6_" x1="-178.472" x2="-168.105" y1="301.757" y2="301.109" gradientTransform="matrix(1 0 0 -1 178.5 314.5625)" gradientUnits="userSpaceOnUse"><stop style="stop-color:#fff" id="stop708" offset="0"/><stop style="stop-color:#9f6" id="stop709" offset="1"/></linearGradient><path id="path713" fill="url(#XMLID_6_)" d="M10.8,9.1c0-0.2,0-0.4,0-0.5c-0.9,0.8-3.9,3.7-3.9,3.7s-3.6,3.4-4.2,3.9c0.2,0.2,0.9,0.9,2,1.8 C5.9,14.1,8.1,10.9,10.8,9.1z"/><linearGradient id="XMLID_7_" x1="-362.226" x2="-342.639" y1="30.854" y2="30.854" gradientTransform="matrix(1 0 0 1 356.5 0.5)" gradientUnits="userSpaceOnUse"><stop style="stop-color:#3c3" id="stop715" offset="0"/><stop style="stop-color:#2fc82f" id="stop716" offset=".292"/><stop style="stop-color:#24bd24" id="stop717" offset=".561"/><stop style="stop-color:#12ab12" id="stop718" offset=".822"/><stop style="stop-color:#090" id="stop719" offset="1"/></linearGradient><path id="path729" fill="url(#XMLID_7_)" d="M27.6,20.7c0,0,0,3.5,0,4.1c-0.6,0.2-9.1,2.5-9.1,2.5v8c0,0,8.5,2.4,9.1,2.6c0,0.5,0,5.1,0,5.1 l0.8-0.7l11.7-10.9L27.6,19.7V20.7z"/><linearGradient id="XMLID_8_" x1="-392.256" x2="-372.668" y1="-.424" y2="-.424" gradientTransform="matrix(-1 0 0 1 -353.3379 31.7773)" gradientUnits="userSpaceOnUse"><stop style="stop-color:#3c3" id="stop731" offset="0"/><stop style="stop-color:#2fc82f" id="stop732" offset=".292"/><stop style="stop-color:#24bd24" id="stop733" offset=".561"/><stop style="stop-color:#12ab12" id="stop734" offset=".822"/><stop style="stop-color:#090" id="stop735" offset="1"/></linearGradient><path id="path745" fill="url(#XMLID_8_)" d="M28.7,21.3l1,0.9l9.8,9.2L28.1,42c0,0,0-3.9,0-4.4C27.6,37.4,19,35,19,35v-7.3 c0,0,8.6-2.4,9.1-2.5c0-0.5,0-4.4,0-4.4L28.7,21.3z"/><linearGradient id="XMLID_9_" x1="-392.256" x2="-372.668" y1="-.424" y2="-.424" gradientTransform="matrix(-1 0 0 1 -353.3379 31.7773)" gradientUnits="userSpaceOnUse"><stop style="stop-color:#3c3" id="stop747" offset="0"/><stop style="stop-color:#2fc82f" id="stop748" offset=".292"/><stop style="stop-color:#24bd24" id="stop749" offset=".561"/><stop style="stop-color:#12ab12" id="stop750" offset=".822"/><stop style="stop-color:#090" id="stop751" offset="1"/></linearGradient><path id="path761" fill="url(#XMLID_9_)" d="M29.4,22.5l4.5,4.2l5,4.7l-10.5,9.8c0,0,0-3.2,0-3.9c-0.8-0.2-9.1-2.6-9.1-2.6V28 c0,0,8.3-2.3,9.1-2.5c0-0.7,0-3.9,0-3.9L29.4,22.5z"/><polygon id="polygon762" fill="#9F6" points="19.9 28.5 29 26 29 23 33.5 27.2 38 31.4 33.5 35.6 29 39.8 29 36.7 19.9 34.2"/><linearGradient id="XMLID_10_" x1="-382.115" x2="-382.115" y1="3.938" y2="-13.751" gradientTransform="matrix(-1 0 0 1 -353.3379 31.7773)" gradientUnits="userSpaceOnUse"><stop style="stop-color:#3c3" id="stop764" offset="0"/><stop style="stop-color:#090" id="stop765" offset="1"/></linearGradient><path id="path769" fill="url(#XMLID_10_)" d="M24.8,31.4c2.1-0.5,4.2-1.5,6.3-0.8c1.8,0.8,3.9,1,5.9,0.7c0,0,0,0,0,0 c-0.9,0.9-5.9,5.6-7.2,6.7c0-0.7,0-2,0-2s-8.2-2.3-9.1-2.6c0-0.5,0-1.7,0-2.8C22,31.3,23.3,31.8,24.8,31.4z"/><linearGradient id="XMLID_11_" x1="-382.109" x2="-382.109" y1="-5.734" y2="2.156" gradientTransform="matrix(-1 0 0 1 -353.3379 31.7773)" gradientUnits="userSpaceOnUse"><stop style="stop-color:#4db36d" id="stop771" offset="0"/><stop style="stop-color:#1e7945" id="stop772" offset="1"/></linearGradient><path id="path776" fill="url(#XMLID_11_)" d="M31.1,30.6 c-2.1-0.8-4.2,0.3-6.3,0.8c-1.5,0.4-2.8-0.1-4.2-0.6c0-0.7,0-1.4,0-1.7c0.9-0.3,9.1-2.5,9.1-2.5s0-1.3,0-2 c1.3,1.2,3.3,3.1,3.3,3.1s2.9,2.7,3.9,3.6C35,31.6,32.9,31.5,31.1,30.6z" enable-background="new" opacity=".4"/><linearGradient id="XMLID_12_" x1="-139.902" x2="-144.87" y1="285.807" y2="286.023" gradientTransform="matrix(1 0 0 -1 178.5 314.5625)" gradientUnits="userSpaceOnUse"><stop style="stop-color:#fff" id="stop778" offset="0"/><stop style="stop-color:#9f6" id="stop779" offset="1"/></linearGradient><path id="path783" fill="url(#XMLID_12_)" d="M29.3,24.3c0-0.2,0-0.3,0-0.5c0.9,0.8,3.9,3.7,3.9,3.7s3.6,3.4,4.2,3.9c-0.2,0.2-0.9,0.9-2,1.8 C34.2,29.3,32,26.1,29.3,24.3z"/></g></g><g id="Layer_x5F_4"><rect id="path241" width="48" height="48" fill="none"/></g></svg>