<svg xmlns="http://www.w3.org/2000/svg" xmlns:xlink="http://www.w3.org/1999/xlink" id="svg602" width="48" height="48" enable-background="new 0 0 48 48" overflow="visible" viewBox="0 0 48 48" xml:space="preserve"><g id="Layer_x5F_1"><g id="g620"><path id="path155" d="M10.1,1.6 c-1.8,0-3.3,1.5-3.3,3.3v39.4c0,1.8,1.5,3.3,3.3,3.3h34.6c1.8,0,3.3-1.5,3.3-3.3V4.9c0-1.8-1.5-3.3-3.3-3.3H10.1z" enable-background="new" opacity=".2"/><linearGradient id="path162_1_" x1="-1385.998" x2="-1165.498" y1="291.729" y2="291.729" gradientTransform="matrix(0.1875 0 0 -0.1875 264.8174 78.0996)" gradientUnits="userSpaceOnUse"><stop style="stop-color:#a7abac" id="stop609" offset="0"/><stop style="stop-color:#85898a" id="stop610" offset="1"/></linearGradient><path id="path162" fill="url(#path162_1_)" d="M8.3,0.4C6.5,0.4,5,1.9,5,3.7v39.4c0,1.8,1.5,3.3,3.3,3.3H43 c1.8,0,3.3-1.5,3.3-3.3V3.7c0-1.8-1.5-3.3-3.3-3.3H8.3z"/><path id="path163" fill="#9CF" d="M5.9,43.1c0,1.3,1.1,2.4,2.4,2.4H43c1.3,0,2.4-1.1,2.4-2.4V3.7c0-1.3-1.1-2.4-2.4-2.4H8.3 C7,1.3,5.9,2.4,5.9,3.7V43.1z"/><linearGradient id="path170_1_" x1="-1321.301" x2="-1072.452" y1="337.473" y2="88.624" gradientTransform="matrix(0.1875 0 0 -0.1875 264.8174 78.0996)" gradientUnits="userSpaceOnUse"><stop style="stop-color:#fff" id="stop617" offset="0"/><stop style="stop-color:#9cf" id="stop618" offset="1"/></linearGradient><path id="path170" fill="url(#path170_1_)" d="M8.3,2.3C7.5,2.3,6.9,3,6.9,3.7v39.4c0,0.8,0.6,1.4,1.4,1.4H43 c0.8,0,1.4-0.6,1.4-1.4V3.7c0-0.8-0.6-1.4-1.4-1.4H8.3z"/><path id="path171" fill="#FFF" d="M32.5,19.1 c3.7-3.4,8.1-5.1,12.8-6V3.7c0-1.3-1.1-2.4-2.4-2.4H8.3C7,1.3,5.9,2.4,5.9,3.7v28.2C15.7,32.7,24.9,25.9,32.5,19.1z" enable-background="new" opacity=".4"/></g></g><g id="Layer_x5F_2"><g id="g625"><path id="path172" fill="#999" d="M3.9,5.7 c-1.7,0-3.1,1.1-3.1,2.5v31.1c0,1.4,1.4,2.5,3.1,2.5h37.8c1.7,0,3.1-1.1,3.1-2.5v-31c0-1.4-1.4-2.5-3.1-2.5L3.9,5.7L3.9,5.7z" enable-background="new" opacity=".3"/><linearGradient id="path179_1_" x1="-449.461" x2="-449.461" y1="232.636" y2="25.157" gradientTransform="matrix(0.1875 0 0 0.1875 105.6738 -0.4688)" gradientUnits="userSpaceOnUse"><stop style="stop-color:#6a5b97" id="stop628" offset="0"/><stop style="stop-color:#6d7bb0" id="stop629" offset="1"/></linearGradient><path id="path179" fill="url(#path179_1_)" d="M42.8,38.2c0,1.1-1.1,2-2.5,2H2.5c-1.4,0-2.5-0.9-2.5-2v-31c0-1.1,1.1-2,2.5-2 h37.8c1.4,0,2.5,0.9,2.5,2V38.2L42.8,38.2z"/><linearGradient id="path186_1_" x1="-558.259" x2="-341.08" y1="123.834" y2="123.834" gradientTransform="matrix(0.1875 0 0 0.1875 105.6738 -0.4688)" gradientUnits="userSpaceOnUse"><stop style="stop-color:#efedf5" id="stop635" offset="0"/><stop style="stop-color:#99acd2" id="stop636" offset="1"/></linearGradient><path id="path186" fill="url(#path186_1_)" d="M2.5,6C1.7,6,1,6.5,1,7.2v31.1c0,0.7,0.7,1.2,1.5,1.2h37.8c0.8,0,1.5-0.5,1.5-1.2 V7.2c0-0.7-0.7-1.2-1.5-1.2H2.5L2.5,6z"/><path id="path187" fill="#FFF" d="M3.1,25.4 c1.4,0.1,2.8,0.2,4.2,0.2c16.8,0,30.3-7.5,30.3-16.8c0-0.4,0-0.7-0.1-1.1c-7.7,0-33.4,0-34.5,0C3.1,8.2,3.1,17.4,3.1,25.4z" enable-background="new" opacity=".64"/></g></g><g id="Layer_x5F_3"><g id="g643"><line id="line644" x1="23" x2="26.3" y1="35.5" y2="38.4" fill="#1B7157"/><path id="path645" fill="#06C" d="M19.4,3.6c0,0-0.3,0.7-0.3,0.7c0,0-1,2.1-1.2,2.7C17,7,16.1,7.2,15.3,7.4c-0.6-0.5-3.7-3.1-3.7-3.1 L6.5,7.5l-1.5,3.1c0,0,1.3,2.5,1.7,3.3c-1.1,0-4.4,0-4.4,0l-1.6,3.4l-0.7,5c0,0,3.6,1.4,4.3,1.7c0.1,0.7,0.3,1.4,0.5,2.1 c-0.3,0.3-1,1-1,1l-1.5,3l3.6,4.6c0,0,3.4-1.2,4.1-1.5c0.9,0.7,1.9,1.2,2.9,1.7c0.1,0.6,0.4,4.2,0.4,4.2l6.1,1.2l1.8-2.9 c0,0,0.3-0.8,0.4-1.1c0.8-0.1,1.7-0.2,2.5-0.5c0.6,0.5,3.5,3,3.5,3l4.6-2.9l2.1-3.2c0,0-1.3-2.7-1.7-3.4c1.2,0,4,0,4,0l1.9-2.9 l0.8-5.5c0,0-3.7-1.5-4.4-1.8c-0.1-0.9-0.4-1.8-0.7-2.6c0.4-0.5,2.8-3.5,2.8-3.5l-0.4-0.4l-3.3-4.2c0,0-3.5,1.3-4.3,1.6 c-0.9-0.6-1.8-1.2-2.7-1.6c-0.1-0.6-0.4-4.3-0.4-4.3l-6.3-1.2L19.4,3.6z M19.6,16.2c3.8,0.7,6.7,4.1,6.7,7.6c0,0,0,0,0,0 c-0.5,0.8-1.2,1.5-2,1.9c-1.3,0.8-3,1-4.7,0.7c-3.5-0.7-6.1-3.7-6.1-6.9c0-0.3,0-0.6,0.1-0.8c0.1-0.6,0.3-1.1,0.5-1.6 C15.7,16.1,17.7,15.8,19.6,16.2z"/><linearGradient id="XMLID_1_" x1="-144.246" x2="-168.59" y1="278.923" y2="306.112" gradientTransform="matrix(1 0 0 -1 178.5 314.5625)" gradientUnits="userSpaceOnUse"><stop style="stop-color:#369" id="stop647" offset="0"/><stop style="stop-color:#69c" id="stop648" offset="1"/></linearGradient><path id="path652" fill="url(#XMLID_1_)" d="M20,4.4c0,0-1,2.5-1.3,3.2c-1.3,0-2.5,0.3-3.7,0.6c-0.6-0.5-3.5-3-3.5-3L7.6,7.7 c0,0,1.7,3.4,2,3.9c-0.8,0.9-1.5,1.9-2,3c-0.8,0-4.5,0-4.5,0l-0.6,4.3c0,0,3.5,1.4,4.2,1.7c0.2,1.3,0.5,2.5,1.1,3.7 c-0.5,0.5-2.9,2.9-2.9,2.9l2.9,3.7c0,0,3.3-1.2,4-1.5c1.1,0.9,2.2,1.6,3.5,2.1c0.1,0.6,0.4,4.1,0.4,4.1l4.9,1 c0,0,1.2-3.1,1.5-3.8c1.3,0,2.5-0.3,3.7-0.6c0.6,0.5,3.4,2.9,3.4,2.9l3.9-2.5c0,0-1.6-3.3-1.9-3.9c0.8-0.9,1.5-1.9,2-3 c0.8,0,4.5,0,4.5,0l0.6-4.3c0,0-3.6-1.4-4.2-1.7c-0.2-1.3-0.5-2.5-1.1-3.7c0.5-0.5,2.9-2.9,2.9-2.9L33,9.4c0,0-3.4,1.2-4.1,1.5 c-1-0.8-2.2-1.5-3.4-2c-0.1-0.6-0.4-4.2-0.4-4.2l-4.9-1L20,4.4z M12.7,19.5c0-0.3,0-0.6,0.1-0.9c0.3-1.9,1.4-3.6,3.1-4.6 c1.6-0.9,3.5-1.2,5.4-0.8c4.2,0.8,7.3,4.7,6.7,8.5c-0.3,1.9-1.4,3.6-3.1,4.6c-1.6,0.9-3.5,1.2-5.4,0.8 C15.6,26.4,12.7,23.1,12.7,19.5z"/><path id="path653" fill="#999" d="M20.4,5.6 c0,0-0.3,0.7-0.3,0.7c0,0-1,2.1-1.2,2.7C18,9,17.1,9.2,16.3,9.4c-0.6-0.5-3.7-3.1-3.7-3.1L7.5,9.5l-1.5,3.1c0,0,1.3,2.5,1.7,3.3 c-1.1,0-4.4,0-4.4,0l-1.6,3.4l-0.7,5c0,0,3.6,1.4,4.3,1.7c0.1,0.7,0.3,1.4,0.5,2.1c-0.3,0.3-1,1-1,1l-1.5,3l3.6,4.6 c0,0,3.4-1.2,4.1-1.5c0.9,0.7,1.9,1.2,2.9,1.7c0.1,0.6,0.4,4.2,0.4,4.2l6.1,1.2l1.8-2.9c0,0,0.3-0.8,0.4-1.1 c0.8-0.1,1.7-0.2,2.5-0.5c0.6,0.5,3.5,3,3.5,3l4.6-2.9l2.1-3.2c0,0-1.3-2.7-1.7-3.4c1.2,0,4,0,4,0l1.9-2.9l0.8-5.5 c0,0-3.7-1.5-4.4-1.8c-0.1-0.9-0.4-1.8-0.7-2.6c0.4-0.5,2.8-3.5,2.8-3.5l-0.4-0.4l-3.3-4.2c0,0-3.5,1.3-4.3,1.6 c-0.9-0.6-1.8-1.2-2.7-1.6c-0.1-0.6-0.4-4.3-0.4-4.3l-6.3-1.2L20.4,5.6z M20.6,18.2c3.8,0.8,6.7,4.1,6.7,7.6c0,0,0,0,0,0 c-0.5,0.8-1.2,1.5-2,1.9c-1.3,0.8-3,1-4.7,0.7c-3.5-0.7-6.1-3.7-6.1-6.9c0-0.3,0-0.6,0.1-0.8c0.1-0.6,0.3-1.1,0.5-1.6 C16.7,18.1,18.7,17.8,20.6,18.2z" enable-background="new" opacity=".36"/><path id="path654" fill="#2461AA" d="M33,16.1c0.1,0.2,0.1,0.3,0.2,0.5l2.6-3.3C35.3,13.8,33.4,15.6,33,16.1z"/><path id="path655" fill="#369" d="M18.5,7.6c0.1,0,0.2,0,0.2,0c0.2-0.6,1-2.6,1.2-3.1L18.5,7.6z"/><polygon id="polygon656" fill="#1B7157" points="7.7 7.6 7.7 7.6 7.7 7.6"/><linearGradient id="XMLID_2_" x1="-165.065" x2="-150.483" y1="296.047" y2="296.047" gradientTransform="matrix(1 0 0 -1 178.5 314.5625)" gradientUnits="userSpaceOnUse"><stop style="stop-color:#06c" id="stop658" offset="0"/><stop style="stop-color:#9cf" id="stop659" offset="1"/></linearGradient><path id="path663" fill="url(#XMLID_2_)" d="M28,21.8c0.5-3.9-2.5-7.7-6.7-8.5c-1.9-0.4-3.8-0.1-5.4,0.8c-1.1,0.6-1.9,1.5-2.5,2.6 c1.7-1.1,4-1.6,6.4-1.1c4.4,0.9,7.5,4.6,7.4,8.5C27.6,23.3,27.9,22.5,28,21.8z"/><path id="path664" fill="#39F" d="M29,34.9c-0.7-0.6-2.7-2.3-3.2-2.7c-0.5,1-1,2-1.5,2.9l3.2,2.8C27.9,36.8,28.5,35.9,29,34.9z"/><path id="path665" fill="#06C" d="M25.8,32.1c-1.2,0.4-2.4,0.6-3.7,0.6c-0.2,0.4-0.8,1.9-1.2,2.9c1.2-0.1,2.3-0.3,3.4-0.6l0,0 C24.8,34.1,25.3,33.1,25.8,32.1C25.8,32.1,25.8,32.1,25.8,32.1z"/><path id="path666" fill="#06C" d="M33.1,32.6c0,0-4,2.4-4.1,2.2c-0.4,1-1,2-1.4,3l0.1,0.1l3.8-2.4L33.1,32.6 C33.1,32.6,33.1,32.6,33.1,32.6z"/><path id="path667" fill="#06C" d="M15.7,35.6c0,0,0,0,0-0.1c-0.5,1-1,1.9-1.6,2.9l0,0.2l4.8,0.9l1.6-2.9L15.7,35.6z"/><path id="path668" fill="#369" d="M7.8,30.8L7.8,30.8c-0.6,0.9-1.2,1.8-1.6,2.9l0,0l4-1.4c0.4-0.9,0.8-1.9,1.2-2.8 C10.3,29.9,7.8,30.8,7.8,30.8z"/><path id="path669" fill="#06C" d="M4.9,27.2L3.3,30l2.9,3.7c0.3-1,1-2,1.6-2.9L4.9,27.2z"/><path id="path670" fill="#06C" d="M15.3,31.5c-1.3-0.5-2.4-1.3-3.5-2.1c-0.1,0-0.2,0.1-0.4,0.1c-0.4,0.9-0.9,1.8-1.2,2.8l0,0 c1,0.8,2.2,1.5,3.4,2.1c0.7-0.8,1.2-1.6,1.7-2.5C15.3,31.7,15.3,31.6,15.3,31.5z"/><path id="path671" fill="#39F" d="M13.7,34.4c0,0,0.1,0,0.1,0l0.3,3.9c0.5-1,1-1.9,1.6-2.9c0-0.5-0.2-2.7-0.3-3.6 C14.9,32.7,14.4,33.6,13.7,34.4z"/><path id="path672" fill="#9CF" d="M9.6,11.6c-0.3-0.5-1.7-3.5-1.9-3.9L6,10.5l1.8,3.6C8.3,13.2,8.9,12.4,9.6,11.6z"/><path id="path673" fill="#369" d="M33.2,25.8c-0.5,1.1-1.1,2.1-2,3c0,0.1,0.1,0.2,0.2,0.4c0-0.2,0.1-0.3,0.1-0.5l4.4,0l1.6-2.9 C37.1,25.8,34,25.8,33.2,25.8z"/><path id="path674" fill="#00C" d="M6.7,20.6c-0.6-0.2-3.5-1.4-4.1-1.6C2,19.7,1.5,20.5,1,21.3l-0.1,0.5L5,23.4c0.5-0.9,1.1-1.7,1.7-2.5 C6.7,20.8,6.7,20.7,6.7,20.6z"/><path id="path675" fill="#06C" d="M2.5,18.9l0.6-4.1c0,0,0,0,0,0l-1.5,2.7L1,21.3C1.5,20.5,2,19.7,2.5,18.9C2.5,18.9,2.5,18.9,2.5,18.9z"/><path id="path676" fill="#06C" d="M6.7,20.9c-0.6,0.8-1.2,1.7-1.7,2.5l0,0c0.1,0.9,0.4,1.9,0.7,2.8c0.7-0.7,1.7-1.7,2-2 C7.3,23.2,6.9,22,6.7,20.9z"/><linearGradient id="XMLID_3_" x1="-148.278" x2="-164.256" y1="281.81" y2="302.278" gradientTransform="matrix(1 0 0 -1 178.5 314.5625)" gradientUnits="userSpaceOnUse"><stop style="stop-color:#39f" id="stop678" offset="0"/><stop style="stop-color:#9cf" id="stop679" offset="1"/></linearGradient><path id="path683" fill="url(#XMLID_3_)" d="M36.9,25.1l0.5-3.2l-4.1-1.6c-0.1-1.5-0.6-2.9-1.3-4.3l2.8-2.8l-2.2-2.8l-3.9,1.4 c-1.2-1-2.5-1.8-4-2.4l-0.4-4l-3.6-0.7l-1.4,3.6c-1.6,0-3.1,0.3-4.5,0.8l-3.3-2.9L8.6,7.9l1.9,3.8c-1,1-1.8,2.2-2.4,3.6l-4.3,0 l-0.5,3.2l4,1.6C7.6,21.6,8,23,8.7,24.4l-2.8,2.8L8.1,30l3.9-1.4c1.2,1,2.6,1.9,4.1,2.5l0.3,4l3.6,0.7l1.4-3.6 c1.6,0,3.2-0.3,4.6-0.8l3.3,2.8l2.8-1.8l-1.9-3.7c1-1,1.8-2.2,2.4-3.6L36.9,25.1z M19.3,27.8c-4.6-0.9-7.9-5.1-7.3-9.3 c0.6-4.2,4.9-6.9,9.5-6c4.6,0.9,7.9,5.1,7.3,9.3C28.2,26,23.9,28.7,19.3,27.8z"/><linearGradient id="XMLID_4_" x1="-154.331" x2="-164.595" y1="290.013" y2="300.277" gradientTransform="matrix(1 0 0 -1 178.5 314.5625)" gradientUnits="userSpaceOnUse"><stop style="stop-color:#39f" id="stop685" offset="0"/><stop style="stop-color:#fff" id="stop686" offset="1"/></linearGradient><path id="path690" fill="url(#XMLID_4_)" d="M15.5,26.1 c-2.5-1.8-3.9-4.7-3.5-7.6c0.6-4.2,4.9-6.9,9.5-6c2.4,0.5,4.4,1.8,5.8,3.6c1.8-1.6,3.3-3.5,4.5-5.5l-3,1.1c-1.2-1-2.5-1.8-4-2.4 l-0.4-4l-3.6-0.7l-1.4,3.6c-1.6,0-3.1,0.3-4.5,0.8l-3.3-2.9L8.6,7.9l1.9,3.8c-1,1-1.8,2.2-2.4,3.6l-4.3,0l-0.5,3.2l4,1.6 C7.6,21.6,8,23,8.7,24.4l-2.8,2.8L8.1,30l3.9-1.4c0.9,0.8,1.9,1.4,3,2C14.9,29,15.1,27.5,15.5,26.1z" enable-background="new" opacity=".8"/><path id="path691" fill="#FFF" d="M10.5,11.7L8.6,7.9L11,6.4l0,0L8.1,8.2L10,12c-0.9,0.9-1.7,2-2.2,3.3l0.4,0C8.7,13.9,9.5,12.7,10.5,11.7 z"/><path id="path692" fill="#FFF" d="M16.1,31.1c-1.5-0.6-2.9-1.5-4.1-2.5L8.1,30l-2.2-2.8l2.8-2.8C8,23,7.6,21.6,7.4,20.1l-4-1.6l0.4-2.9 l-0.5,0l-0.5,3.2l4,1.6c0.1,1.5,0.6,2.9,1.2,4.3l-2.8,2.8l2.2,2.8l3.9-1.4c1.2,1,2.6,1.9,4.1,2.5l0.3,4l3.6,0.7l0.1-0.4L16.5,35 L16.1,31.1z"/><path id="path693" fill="#FFF" d="M21.5,12.6c-2.3-0.4-4.4,0-6.1,1c1.6-0.8,3.6-1.1,5.6-0.7c4.6,0.9,7.9,5.1,7.3,9.3 c-0.3,2.2-1.6,3.9-3.4,5c2.1-1,3.6-2.9,3.9-5.3C29.4,17.6,26.1,13.5,21.5,12.6z"/><path id="path694" fill="#FFF" d="M21.5,32.1l-0.1,0.3c1.5,0,2.9-0.3,4.2-0.8l3.3,2.8l0.5-0.3L26,31.3C24.6,31.9,23.1,32.1,21.5,32.1z"/><path id="path695" fill="#FFF" d="M32.5,25.4l3.9,0l0-0.3l-3.8,0C32.6,25.2,32.6,25.3,32.5,25.4z"/></g></g><g id="Layer_x5F_4"><rect id="path241" width="48" height="48" fill="none"/></g></svg>