<svg xmlns="http://www.w3.org/2000/svg" xmlns:xlink="http://www.w3.org/1999/xlink" id="svg602" width="48" height="48" enable-background="new 0 0 48 48" overflow="visible" viewBox="0 0 48 48" xml:space="preserve"><g id="Layer_x5F_1"><g id="g620"><path id="path155" d="M10.1,1.6 c-1.8,0-3.3,1.5-3.3,3.3v39.4c0,1.8,1.5,3.3,3.3,3.3h34.6c1.8,0,3.3-1.5,3.3-3.3V4.9c0-1.8-1.5-3.3-3.3-3.3H10.1z" enable-background="new" opacity=".2"/><linearGradient id="path162_1_" x1="-2517.686" x2="-2297.186" y1="291.729" y2="291.729" gradientTransform="matrix(0.1875 0 0 -0.1875 477.0088 78.0996)" gradientUnits="userSpaceOnUse"><stop style="stop-color:#a7abac" id="stop609" offset="0"/><stop style="stop-color:#85898a" id="stop610" offset="1"/></linearGradient><path id="path162" fill="url(#path162_1_)" d="M8.3,0.4C6.5,0.4,5,1.9,5,3.7v39.4c0,1.8,1.5,3.3,3.3,3.3H43 c1.8,0,3.3-1.5,3.3-3.3V3.7c0-1.8-1.5-3.3-3.3-3.3H8.3z"/><path id="path163" fill="#9CF" d="M5.9,43.1c0,1.3,1.1,2.4,2.4,2.4H43c1.3,0,2.4-1.1,2.4-2.4V3.7c0-1.3-1.1-2.4-2.4-2.4H8.3 C7,1.3,5.9,2.4,5.9,3.7V43.1z"/><linearGradient id="path170_1_" x1="-2452.988" x2="-2204.139" y1="337.473" y2="88.623" gradientTransform="matrix(0.1875 0 0 -0.1875 477.0088 78.0996)" gradientUnits="userSpaceOnUse"><stop style="stop-color:#fff" id="stop617" offset="0"/><stop style="stop-color:#9cf" id="stop618" offset="1"/></linearGradient><path id="path170" fill="url(#path170_1_)" d="M8.3,2.3C7.5,2.3,6.9,3,6.9,3.7v39.4c0,0.8,0.6,1.4,1.4,1.4H43 c0.8,0,1.4-0.6,1.4-1.4V3.7c0-0.8-0.6-1.4-1.4-1.4H8.3z"/><path id="path171" fill="#FFF" d="M32.5,19.1 c3.7-3.4,8.1-5.1,12.8-6V3.7c0-1.3-1.1-2.4-2.4-2.4H8.3C7,1.3,5.9,2.4,5.9,3.7v28.2C15.7,32.7,24.9,25.9,32.5,19.1z" enable-background="new" opacity=".4"/></g></g><g id="Layer_x5F_2"><g id="g625"><path id="path172" fill="#999" d="M3.9,5.7 c-1.7,0-3.1,1.1-3.1,2.5v31.1c0,1.4,1.4,2.5,3.1,2.5h37.8c1.7,0,3.1-1.1,3.1-2.5v-31c0-1.4-1.4-2.5-3.1-2.5L3.9,5.7L3.9,5.7z" enable-background="new" opacity=".3"/><linearGradient id="path179_1_" x1="-1581.148" x2="-1581.148" y1="232.636" y2="25.157" gradientTransform="matrix(0.1875 0 0 0.1875 317.8652 -0.4688)" gradientUnits="userSpaceOnUse"><stop style="stop-color:#6a5b97" id="stop628" offset="0"/><stop style="stop-color:#6d7bb0" id="stop629" offset="1"/></linearGradient><path id="path179" fill="url(#path179_1_)" d="M42.8,38.2c0,1.1-1.1,2-2.5,2H2.5c-1.4,0-2.5-0.9-2.5-2v-31c0-1.1,1.1-2,2.5-2 h37.8c1.4,0,2.5,0.9,2.5,2V38.2L42.8,38.2z"/><linearGradient id="path186_1_" x1="-1689.947" x2="-1472.767" y1="123.834" y2="123.834" gradientTransform="matrix(0.1875 0 0 0.1875 317.8652 -0.4688)" gradientUnits="userSpaceOnUse"><stop style="stop-color:#efedf5" id="stop635" offset="0"/><stop style="stop-color:#99acd2" id="stop636" offset="1"/></linearGradient><path id="path186" fill="url(#path186_1_)" d="M2.5,6C1.7,6,1,6.5,1,7.2v31.1c0,0.7,0.7,1.2,1.5,1.2h37.8c0.8,0,1.5-0.5,1.5-1.2 V7.2c0-0.7-0.7-1.2-1.5-1.2H2.5L2.5,6z"/><path id="path187" fill="#FFF" d="M3.1,25.4 c1.4,0.1,2.8,0.2,4.2,0.2c16.8,0,30.3-7.5,30.3-16.8c0-0.4,0-0.7-0.1-1.1c-7.7,0-33.4,0-34.5,0C3.1,8.2,3.1,17.4,3.1,25.4z" enable-background="new" opacity=".64"/></g></g><g id="Layer_x5F_3"><g id="g640"><rect id="rect641" width="19.9" height="3.1" x="18.4" y="19.2" fill="#7272FF"/><rect id="rect642" width="12.2" height="3.1" x="3.4" y="19.2" fill="#7272FF"/><rect id="rect643" width="8.8" height="3.1" x="27.7" y="24.2" fill="#7272FF"/><rect id="polygon644" width="12.1" height="3.1" x="27.2" y="34.2" fill="#7272FF"/><rect id="polygon645" width="21.2" height="3.1" x="3.4" y="34.2" fill="#7272FF"/><rect id="rect646" width="13.3" height="3.1" x="3.4" y="29.2" fill="#7272FF"/><rect id="rect647" width="21.8" height="3.1" x="3.4" y="24.2" fill="#7272FF"/><rect id="rect648" width="21.8" height="3.1" x="3.4" y="14.2" fill="#7272FF"/><rect id="rect649" width="27.6" height="3.1" x="3.4" y="9.2" fill="#7272FF"/></g><g id="g713"><path id="path714" d="M45.1,18c-6,0.2-8.8,12.1-9.7,16.9c-0.7,0.2-1.2,0.7-1.3,1.3c0,0,0,0,0,0.1c-2.8,0.6-3.1,3.2-3.5,5.3 c-0.2,1.6-0.5,3.3-1.6,4.4l-1.8,1.9c0,0,3.3,0,3.4,0c0.1,0,1.4,0.1,1.4,0.1l0.4-0.5c1.9-2.5,3.2-3.4,5-3.1l0.6,0.1l0.4-0.4 c0.2-0.3,2.1-2.4,2.1-4.5c0-0.2,0-0.3,0-0.5c-0.1-0.4-0.2-0.8-0.4-1.1c0.1-0.1,0.1-0.2,0.1-0.3c0-0.1,0-0.3,0-0.4 c0-0.2-0.1-0.5-0.2-0.7c0.8-1.1,2.6-3.7,4.3-6.6c2.9-5,3.7-7.6,3.7-9.1c0-0.7-0.2-1.2-0.3-1.5C47.4,18.8,46.7,17.9,45.1,18 L45.1,18z"/><path id="path715" fill="#CD4E00" d="M38.5,36.4c0,0,12.8-17.5,6.4-17.3c-6.2,0.2-8.8,17.1-8.8,17.1L38.5,36.4L38.5,36.4z"/><linearGradient id="path722_1_" x1="-814.029" x2="-812.876" y1="382.325" y2="381.577" gradientTransform="matrix(1 0 0 -1 850.0576 418.5625)" gradientUnits="userSpaceOnUse"><stop style="stop-color:#fff" id="stop657" offset="0"/><stop style="stop-color:#ecf1c4" id="stop658" offset="1"/></linearGradient><path id="path722" fill="url(#path722_1_)" d="M38.9,37.3c-0.1,0.5-1.1,0.8-2.2,0.5c-1.1-0.3-1.9-0.9-1.7-1.4 c0.1-0.5,1.1-0.8,2.2-0.5C38.2,36.1,39,36.7,38.9,37.3L38.9,37.3z"/><radialGradient id="path735_1_" cx="-812.138" cy="415.611" r="8.664" fx="-812.138" fy="415.611" gradientTransform="matrix(0.9456 0 0 -0.6817 801.282 322.43)" gradientUnits="userSpaceOnUse"><stop style="stop-color:#ff0" id="stop664" offset=".236"/><stop style="stop-color:#fff900" id="stop665" offset=".31"/><stop style="stop-color:#ffe900" id="stop666" offset=".405"/><stop style="stop-color:#ffcf00" id="stop667" offset=".511"/><stop style="stop-color:#fa0" id="stop668" offset=".626"/><stop style="stop-color:#ff7b00" id="stop669" offset=".747"/><stop style="stop-color:#ff4100" id="stop670" offset=".874"/><stop style="stop-color:red" id="stop671" offset="1"/></radialGradient><path id="path735" fill="url(#path735_1_)" d="M29.7,46.6h0.9l0.8,0.1c1.9-2.5,3.6-3.9,6-3.6c0,0,4.7-5.1-1-5.9 C29.6,36.3,33.1,43,29.7,46.6L29.7,46.6z"/><path id="path736" fill="#FFD4A9" d="M38.3,38.3c0.2,1.8-2.7,4.5-2.7,4.5h1.5C37.8,42.1,39.5,39.5,38.3,38.3z"/><path id="path737" fill="#FFF" d="M30.2,46.4c2-2.7,1.1-8.1,3.7-8.9l1,0.1C31.7,38.7,32.6,42.8,30.2,46.4z"/><line id="line738" x1="33.9" x2="30.5" y1="41" y2="46.6" stroke="#000" stroke-width=".22"/><path id="path739" fill="#FFF" d="M34,41.6l-3,4.9l3.5-4.6c0.7-0.3,0.4-1.2,0.4-1.2S34.6,41.6,34,41.6z"/><path id="path740" d="M34.4,41.2c-0.1,0.2-0.4,0.4-0.7,0.3s-0.4-0.3-0.2-0.6c0.1-0.2,0.4-0.4,0.7-0.3 C34.4,40.7,34.5,40.9,34.4,41.2z"/><path id="path741" fill="#FFF" d="M45,19.5c-5.6,1.2-8.1,15.8-8.1,15.8h0.3C37.1,35.3,40.1,22.2,45,19.5L45,19.5z"/><path id="path742" fill="#CDD4A9" d="M38.2,36.7c0.3,0.5-0.3,0.6-0.3,0.6s0.5,0,0.6-0.2C38.6,36.9,38.2,36.7,38.2,36.7 L38.2,36.7z"/></g><g id="g695"><path id="path696" d="M3.9,10.1h5.2v2.1c-1.9,1.3-2.4,3.7-2.7,5.6c-0.1,0.8-0.3,1.7-1.3,1.7c-1.1,0-1.2-0.9-1.2-1V10.1z M10.7,10.1h8.8V33c0,1.3,0,1.5,1.2,1.9c0.5,0.1,0.8,0.5,0.8,1c0,1-1.2,1.1-1.3,1.1H10c-0.1,0-1.3-0.1-1.3-1.1 c0-0.5,0.3-0.8,0.8-1c1.3-0.4,1.2-0.6,1.2-1.9V10.1z M26.3,18.5c0,0.1-0.1,1-1.2,1c-1,0-1.2-0.9-1.3-1.7 c-0.3-1.9-0.8-4.3-2.7-5.6v-2.1h5.2V18.5z"/></g></g><g id="Layer_x5F_4"><rect id="path241" width="48" height="48" fill="none"/></g></svg>