<svg xmlns="http://www.w3.org/2000/svg" xmlns:xlink="http://www.w3.org/1999/xlink" id="svg602" width="48" height="48" enable-background="new 0 0 48 48" overflow="visible" viewBox="0 0 48 48" xml:space="preserve"><g id="Layer_x5F_1"><g id="g620"><path id="path155" d="M10.1,1.6 c-1.8,0-3.3,1.5-3.3,3.3v39.4c0,1.8,1.5,3.3,3.3,3.3h34.6c1.8,0,3.3-1.5,3.3-3.3V4.9c0-1.8-1.5-3.3-3.3-3.3H10.1z" enable-background="new" opacity=".2"/><linearGradient id="path162_1_" x1="-1668.92" x2="-1448.42" y1="127.302" y2="127.302" gradientTransform="matrix(0.1875 0 0 0.1875 317.8652 -0.4688)" gradientUnits="userSpaceOnUse"><stop style="stop-color:#a7abac" id="stop609" offset="0"/><stop style="stop-color:#85898a" id="stop610" offset="1"/></linearGradient><path id="path162" fill="url(#path162_1_)" d="M8.3,0.4C6.5,0.4,5,1.9,5,3.7v39.4c0,1.8,1.5,3.3,3.3,3.3H43 c1.8,0,3.3-1.5,3.3-3.3V3.7c0-1.8-1.5-3.3-3.3-3.3H8.3z"/><path id="path163" fill="#9CF" d="M5.9,43.1c0,1.3,1.1,2.4,2.4,2.4H43c1.3,0,2.4-1.1,2.4-2.4V3.7c0-1.3-1.1-2.4-2.4-2.4H8.3 C7,1.3,5.9,2.4,5.9,3.7V43.1z"/><linearGradient id="path170_1_" x1="-1604.223" x2="-1355.373" y1="81.559" y2="330.408" gradientTransform="matrix(0.1875 0 0 0.1875 317.8652 -0.4688)" gradientUnits="userSpaceOnUse"><stop style="stop-color:#fff" id="stop617" offset="0"/><stop style="stop-color:#9cf" id="stop618" offset="1"/></linearGradient><path id="path170" fill="url(#path170_1_)" d="M8.3,2.3C7.5,2.3,6.9,3,6.9,3.7v39.4c0,0.8,0.6,1.4,1.4,1.4H43 c0.8,0,1.4-0.6,1.4-1.4V3.7c0-0.8-0.6-1.4-1.4-1.4H8.3z"/><path id="path171" fill="#FFF" d="M32.5,19.1 c3.7-3.4,8.1-5.1,12.8-6V3.7c0-1.3-1.1-2.4-2.4-2.4H8.3C7,1.3,5.9,2.4,5.9,3.7v28.2C15.7,32.7,24.9,25.9,32.5,19.1z" enable-background="new" opacity=".4"/></g></g><g id="Layer_x5F_2"><g id="g625"><path id="path172" fill="#999" d="M3.9,5.7 c-1.7,0-3.1,1.1-3.1,2.5v31.1c0,1.4,1.4,2.5,3.1,2.5h37.8c1.7,0,3.1-1.1,3.1-2.5v-31c0-1.4-1.4-2.5-3.1-2.5L3.9,5.7L3.9,5.7z" enable-background="new" opacity=".3"/><linearGradient id="path179_1_" x1="-732.384" x2="-732.384" y1="186.395" y2="393.874" gradientTransform="matrix(0.1875 0 0 -0.1875 158.7217 78.0996)" gradientUnits="userSpaceOnUse"><stop style="stop-color:#6a5b97" id="stop628" offset="0"/><stop style="stop-color:#6d7bb0" id="stop629" offset="1"/></linearGradient><path id="path179" fill="url(#path179_1_)" d="M42.8,38.2c0,1.1-1.1,2-2.5,2H2.5c-1.4,0-2.5-0.9-2.5-2v-31c0-1.1,1.1-2,2.5-2 h37.8c1.4,0,2.5,0.9,2.5,2V38.2L42.8,38.2z"/><linearGradient id="path186_1_" x1="-841.181" x2="-624.002" y1="295.197" y2="295.197" gradientTransform="matrix(0.1875 0 0 -0.1875 158.7217 78.0996)" gradientUnits="userSpaceOnUse"><stop style="stop-color:#efedf5" id="stop635" offset="0"/><stop style="stop-color:#99acd2" id="stop636" offset="1"/></linearGradient><path id="path186" fill="url(#path186_1_)" d="M2.5,6C1.7,6,1,6.5,1,7.2v31.1c0,0.7,0.7,1.2,1.5,1.2h37.8c0.8,0,1.5-0.5,1.5-1.2 V7.2c0-0.7-0.7-1.2-1.5-1.2H2.5L2.5,6z"/><path id="path187" fill="#FFF" d="M3.1,25.4 c1.4,0.1,2.8,0.2,4.2,0.2c16.8,0,30.3-7.5,30.3-16.8c0-0.4,0-0.7-0.1-1.1c-7.7,0-33.4,0-34.5,0C3.1,8.2,3.1,17.4,3.1,25.4z" enable-background="new" opacity=".64"/></g></g><g id="Layer_x5F_3"><g id="g643"><g id="g644"><path id="path645" fill="#434343" d="M40.3,32.8c0,2.5-2,4.5-4.5,4.5H4.5c-2.5,0-4.5-2-4.5-4.5V19.3c0-2.5,1.2-5.6,9.3-5.5 l1.1-1.7l20,0.1l1.4,1.3c6.4,0,8.5,3.2,8.5,5.7V32.8L40.3,32.8z"/></g><g id="g646"><radialGradient id="path653_1_" cx="-280.087" cy="404.324" r="40.462" fx="-280.087" fy="404.324" gradientTransform="matrix(1 0 0 -1 282.9219 419.0313)" gradientUnits="userSpaceOnUse"><stop style="stop-color:#fff" id="stop648" offset="0"/><stop style="stop-color:#dbdbdb" id="stop649" offset="1"/></radialGradient><path id="path653" fill="url(#path653_1_)" d="M39.6,32.4c0,2.4-1.9,4.3-4.3,4.3H5.1c-2.4,0-4.4-1.9-4.4-4.3v-13 c0-2.4,1.2-4.9,8.8-5l1.2-1.8L30,12.8l1.3,1.4c5.6,0,8.3,2.8,8.3,5.2V32.4z"/></g><g id="g654"><linearGradient id="path664_1_" x1="-262.797" x2="-262.864" y1="396.285" y2="382.242" gradientTransform="matrix(1 0 0 -1 282.9219 419.0313)" gradientUnits="userSpaceOnUse"><stop style="stop-color:#d2d2d2" id="stop656" offset="0"/><stop style="stop-color:#cecece" id="stop657" offset=".257"/><stop style="stop-color:silver" id="stop658" offset=".536"/><stop style="stop-color:#ababab" id="stop659" offset=".826"/><stop style="stop-color:#9a9a9a" id="stop660" offset="1"/></linearGradient><path id="path664" fill="url(#path664_1_)" d="M39.6,32.4c0,2.4-2,4.3-4.4,4.3H5c-2.4,0-4.4-1.9-4.4-4.3v-9 c0,6.3,39,5.8,39-0.5V32.4z"/></g><linearGradient id="rect674_1_" x1="-262.722" x2="-262.722" y1="382.378" y2="388.377" gradientTransform="matrix(1 0 0 -1 282.9219 419.0313)" gradientUnits="userSpaceOnUse"><stop style="stop-color:#fff" id="stop672" offset="0"/><stop style="stop-color:#f9f9f9" id="stop673" offset=".247"/><stop style="stop-color:#eaeaea" id="stop674" offset=".563"/><stop style="stop-color:#d0d0d0" id="stop675" offset=".914"/><stop style="stop-color:#c8c8c8" id="stop676" offset="1"/></linearGradient><rect id="rect674" width="25.2" height="4.3" x="7.6" y="30" fill="url(#rect674_1_)"/><rect id="rect675" width="24.5" height="3.6" x="7.9" y="30.4"/><radialGradient id="polygon682_1_" cx="-274.392" cy="378.178" r="42.774" fx="-274.392" fy="378.178" gradientTransform="matrix(1 0 0 -1 282.9219 419.0313)" gradientUnits="userSpaceOnUse"><stop style="stop-color:#fff" id="stop689" offset="0"/><stop style="stop-color:#c8c8c8" id="stop690" offset="1"/></radialGradient><polygon id="polygon682" fill="url(#polygon682_1_)" stroke="#000" stroke-width=".36" points="32.5 41.2 7.8 41.2 10.8 32.2 28.7 32.2"/><rect id="rect683" width="24.5" height="3.6" x="7.9" y="30.4" enable-background="new" opacity=".2"/><g id="g684"><path id="path685" fill="#FFF" d="M1,18.6c0-2.1,1.2-4.3,8.7-4.4l1.2-1.6L30,12.8l1.3,1.3c5.6,0,8.2,2.5,8.2,4.6H1V18.6z"/></g><radialGradient id="rect695_1_" cx="-270.672" cy="416.218" r="28.278" fx="-270.672" fy="416.218" gradientTransform="matrix(1 0 0 -1 282.9219 419.0313)" gradientUnits="userSpaceOnUse"><stop style="stop-color:#fff" id="stop699" offset="0"/><stop style="stop-color:#f9f9f9" id="stop700" offset=".247"/><stop style="stop-color:#eaeaea" id="stop701" offset=".563"/><stop style="stop-color:#d0d0d0" id="stop702" offset=".914"/><stop style="stop-color:#c8c8c8" id="stop703" offset="1"/></radialGradient><rect id="rect695" width="16.9" height="15.4" x="11.7" y="2.7" fill="url(#rect695_1_)" stroke="#000" stroke-width=".36"/><polygon id="polygon696" fill="#535353" stroke="#000" stroke-width=".36" points="11.6 17.9 9.4 25.9 11.6 13.1"/><polygon id="polygon697" fill="#535353" stroke="#000" stroke-width=".36" points="28.8 17.9 31.1 25.9 28.8 13.1"/><g id="g698"><path id="path699" fill="#FFF" d="M0.6,23.5c0,6.3,38.9,5.8,39-0.5v-0.8c0,6.3-39,6.8-39,0.5v9l0,0V23.5z"/></g><g id="g700" opacity=".15"><linearGradient id="path710_1_" x1="-272.652" x2="-252.491" y1="396.531" y2="396.531" gradientTransform="matrix(1 0 0 -1 282.9219 419.0313)" gradientUnits="userSpaceOnUse"><stop style="stop-color:#d2d2d2" id="stop720" offset="0"/><stop style="stop-color:#cecece" id="stop721" offset=".257"/><stop style="stop-color:silver" id="stop722" offset=".536"/><stop style="stop-color:#ababab" id="stop723" offset=".826"/><stop style="stop-color:#9a9a9a" id="stop724" offset="1"/></linearGradient><path id="path710" fill="url(#path710_1_)" d="M30.4,25.9l-2-6.8c-7.2,0-18,0.8-18.2,6.8H30.4z"/></g><g id="g711"><circle id="circle712" cx="35.2" cy="21.4" r="1.4" fill="#00A400"/></g><g id="g713"><radialGradient id="circle720_1_" cx="-248.45" cy="398.479" r="1.847" fx="-248.45" fy="398.479" gradientTransform="matrix(1 0 0 -1 282.9219 419.0313)" gradientUnits="userSpaceOnUse"><stop style="stop-color:#fff" id="stop739" offset="0"/><stop style="stop-color:#00c700" id="stop740" offset="1"/></radialGradient><circle id="circle720" cx="35.2" cy="21.4" r="1.1" fill="url(#circle720_1_)"/></g></g></g><g id="Layer_x5F_4"><rect id="path241" width="48" height="48" fill="none"/></g></svg>