<svg xmlns="http://www.w3.org/2000/svg" xmlns:xlink="http://www.w3.org/1999/xlink" id="svg602" width="48" height="48" enable-background="new 0 0 48 48" overflow="visible" viewBox="0 0 48 48" xml:space="preserve"><g id="Layer_x5F_1"><g id="g620"><path id="path155" d="M10.1,1.6 c-1.8,0-3.3,1.5-3.3,3.3v39.4c0,1.8,1.5,3.3,3.3,3.3h34.6c1.8,0,3.3-1.5,3.3-3.3V4.9c0-1.8-1.5-3.3-3.3-3.3H10.1z" enable-background="new" opacity=".2"/><linearGradient id="path162_1_" x1="-1385.998" x2="-1165.498" y1="291.729" y2="291.729" gradientTransform="matrix(0.1875 0 0 -0.1875 264.8174 78.0996)" gradientUnits="userSpaceOnUse"><stop style="stop-color:#a7abac" id="stop609" offset="0"/><stop style="stop-color:#85898a" id="stop610" offset="1"/></linearGradient><path id="path162" fill="url(#path162_1_)" d="M8.3,0.4C6.5,0.4,5,1.9,5,3.7v39.4c0,1.8,1.5,3.3,3.3,3.3H43 c1.8,0,3.3-1.5,3.3-3.3V3.7c0-1.8-1.5-3.3-3.3-3.3H8.3z"/><path id="path163" fill="#9CF" d="M5.9,43.1c0,1.3,1.1,2.4,2.4,2.4H43c1.3,0,2.4-1.1,2.4-2.4V3.7c0-1.3-1.1-2.4-2.4-2.4H8.3 C7,1.3,5.9,2.4,5.9,3.7V43.1z"/><linearGradient id="path170_1_" x1="-1321.301" x2="-1072.452" y1="337.473" y2="88.624" gradientTransform="matrix(0.1875 0 0 -0.1875 264.8174 78.0996)" gradientUnits="userSpaceOnUse"><stop style="stop-color:#fff" id="stop617" offset="0"/><stop style="stop-color:#9cf" id="stop618" offset="1"/></linearGradient><path id="path170" fill="url(#path170_1_)" d="M8.3,2.3C7.5,2.3,6.9,3,6.9,3.7v39.4c0,0.8,0.6,1.4,1.4,1.4H43 c0.8,0,1.4-0.6,1.4-1.4V3.7c0-0.8-0.6-1.4-1.4-1.4H8.3z"/><path id="path171" fill="#FFF" d="M32.5,19.1 c3.7-3.4,8.1-5.1,12.8-6V3.7c0-1.3-1.1-2.4-2.4-2.4H8.3C7,1.3,5.9,2.4,5.9,3.7v28.2C15.7,32.7,24.9,25.9,32.5,19.1z" enable-background="new" opacity=".4"/></g></g><g id="Layer_x5F_2"><g id="g625"><path id="path172" fill="#999" d="M3.9,5.7 c-1.7,0-3.1,1.1-3.1,2.5v31.1c0,1.4,1.4,2.5,3.1,2.5h37.8c1.7,0,3.1-1.1,3.1-2.5v-31c0-1.4-1.4-2.5-3.1-2.5L3.9,5.7L3.9,5.7z" enable-background="new" opacity=".3"/><linearGradient id="path179_1_" x1="-449.461" x2="-449.461" y1="232.636" y2="25.157" gradientTransform="matrix(0.1875 0 0 0.1875 105.6738 -0.4688)" gradientUnits="userSpaceOnUse"><stop style="stop-color:#6a5b97" id="stop628" offset="0"/><stop style="stop-color:#6d7bb0" id="stop629" offset="1"/></linearGradient><path id="path179" fill="url(#path179_1_)" d="M42.8,38.2c0,1.1-1.1,2-2.5,2H2.5c-1.4,0-2.5-0.9-2.5-2v-31c0-1.1,1.1-2,2.5-2 h37.8c1.4,0,2.5,0.9,2.5,2V38.2L42.8,38.2z"/><linearGradient id="path186_1_" x1="-558.259" x2="-341.08" y1="123.834" y2="123.834" gradientTransform="matrix(0.1875 0 0 0.1875 105.6738 -0.4688)" gradientUnits="userSpaceOnUse"><stop style="stop-color:#efedf5" id="stop635" offset="0"/><stop style="stop-color:#99acd2" id="stop636" offset="1"/></linearGradient><path id="path186" fill="url(#path186_1_)" d="M2.5,6C1.7,6,1,6.5,1,7.2v31.1c0,0.7,0.7,1.2,1.5,1.2h37.8c0.8,0,1.5-0.5,1.5-1.2 V7.2c0-0.7-0.7-1.2-1.5-1.2H2.5L2.5,6z"/><path id="path187" fill="#FFF" d="M3.1,25.4 c1.4,0.1,2.8,0.2,4.2,0.2c16.8,0,30.3-7.5,30.3-16.8c0-0.4,0-0.7-0.1-1.1c-7.7,0-33.4,0-34.5,0C3.1,8.2,3.1,17.4,3.1,25.4z" enable-background="new" opacity=".64"/></g></g><g id="Layer_x5F_3"><g id="g643"><path id="path173" fill="#999" d="M3.9,23.7 c0,8.1,8.5,14.7,19,14.7c2.1,0,4.1-0.3,6-0.8c1.7,0.7,4.3,1.7,6.7,2.5c4.1,1.3,5.6,1.4,6.4,0.4c0.1-0.1,0.3-0.5,0.3-1 c0-0.4-0.1-0.9-0.6-1.5c-1.5-1.8-2.4-4.4-3-6.2c2.1-2.4,3.2-5.2,3.2-8.2c0-8.1-8.5-14.7-19-14.7C12.4,9,3.9,15.6,3.9,23.7z" enable-background="new" opacity=".4"/><path id="path174" fill="#39F" d="M0,20c0,8.1,8.5,14.7,19,14.7c2.1,0,4.1-0.3,6-0.8c1.7,0.7,4.3,1.7,6.7,2.5 c4.1,1.3,5.6,1.4,6.4,0.3c0.1-0.1,0.3-0.5,0.3-1c0-0.4-0.1-0.9-0.6-1.5c-1.5-1.8-2.4-4.4-3-6.2c2.1-2.4,3.2-5.2,3.2-8.2 c0-8.1-8.5-14.7-19-14.7C8.5,5.2,0,11.8,0,20z"/><linearGradient id="path181_1_" x1="338.608" x2="432.512" y1="-207.827" y2="-301.731" gradientTransform="matrix(0.1875 0 0 -0.1875 -51.874 -26.4004)" gradientUnits="userSpaceOnUse"><stop style="stop-color:#5f7fba" id="stop647" offset="0"/><stop style="stop-color:#244a9f" id="stop648" offset="1"/></linearGradient><path id="path181" fill="url(#path181_1_)" d="M36.7,35.3c-1.8-2.2-2.9-5.4-3.5-7.5c2.1-2.2,3.4-4.9,3.4-7.8 c0-7.3-7.8-13.2-17.5-13.2C9.3,6.7,1.5,12.7,1.5,20c0,7.3,7.9,13.2,17.5,13.2c2.2,0,4.2-0.3,6.1-0.8 C29.4,34.2,38.6,37.6,36.7,35.3z"/><path id="path182" fill="#FFF" d="M20.9,7.6 C20.8,7.6,20.8,7.6,20.9,7.6c-9.8,0-17.6,5.9-17.6,13.2c0,1.3,0.3,2.6,0.8,3.8C4.8,19.9,8.5,13.4,20.9,7.6z" enable-background="new" opacity=".5"/><path id="path183" d="M23.5,11.8c0,0-4.8,3-5.2,3.3c-0.5,0-8,0-8,0v10.8c0,0,7.4,0,8,0c0.5,0.3,6.8,4.3,6.8,4.3V10.8L23.5,11.8z"/><polygon id="path184" fill="#F0F0F0" points="24.1 28.4 24.1 12.7 18.6 16.1 11.4 16.1 11.4 24.9 18.6 24.9"/><polygon id="path185" fill="#FFF" points="24.1 27.3 24.1 14.5 18.6 17.3 11.4 17.3 11.4 24.5 18.6 24.5"/></g></g><g id="Layer_x5F_4"><rect id="path241" width="48" height="48" fill="none"/></g></svg>