<svg xmlns="http://www.w3.org/2000/svg" xmlns:xlink="http://www.w3.org/1999/xlink" id="svg602" width="48" height="48" enable-background="new 0 0 48 48" overflow="visible" viewBox="0 0 48 48" xml:space="preserve"><g id="Layer_x5F_1"><g id="g620"><path id="path155" d="M10.1,1.6 c-1.8,0-3.3,1.5-3.3,3.3v39.4c0,1.8,1.5,3.3,3.3,3.3h34.6c1.8,0,3.3-1.5,3.3-3.3V4.9c0-1.8-1.5-3.3-3.3-3.3H10.1z" enable-background="new" opacity=".2"/><linearGradient id="path162_1_" x1="-1668.92" x2="-1448.42" y1="127.302" y2="127.302" gradientTransform="matrix(0.1875 0 0 0.1875 317.8652 -0.4688)" gradientUnits="userSpaceOnUse"><stop style="stop-color:#a7abac" id="stop609" offset="0"/><stop style="stop-color:#85898a" id="stop610" offset="1"/></linearGradient><path id="path162" fill="url(#path162_1_)" d="M8.3,0.4C6.5,0.4,5,1.9,5,3.7v39.4c0,1.8,1.5,3.3,3.3,3.3H43 c1.8,0,3.3-1.5,3.3-3.3V3.7c0-1.8-1.5-3.3-3.3-3.3H8.3z"/><path id="path163" fill="#9CF" d="M5.9,43.1c0,1.3,1.1,2.4,2.4,2.4H43c1.3,0,2.4-1.1,2.4-2.4V3.7c0-1.3-1.1-2.4-2.4-2.4H8.3 C7,1.3,5.9,2.4,5.9,3.7V43.1z"/><linearGradient id="path170_1_" x1="-1604.223" x2="-1355.373" y1="81.559" y2="330.408" gradientTransform="matrix(0.1875 0 0 0.1875 317.8652 -0.4688)" gradientUnits="userSpaceOnUse"><stop style="stop-color:#fff" id="stop617" offset="0"/><stop style="stop-color:#9cf" id="stop618" offset="1"/></linearGradient><path id="path170" fill="url(#path170_1_)" d="M8.3,2.3C7.5,2.3,6.9,3,6.9,3.7v39.4c0,0.8,0.6,1.4,1.4,1.4H43 c0.8,0,1.4-0.6,1.4-1.4V3.7c0-0.8-0.6-1.4-1.4-1.4H8.3z"/><path id="path171" fill="#FFF" d="M32.5,19.1 c3.7-3.4,8.1-5.1,12.8-6V3.7c0-1.3-1.1-2.4-2.4-2.4H8.3C7,1.3,5.9,2.4,5.9,3.7v28.2C15.7,32.7,24.9,25.9,32.5,19.1z" enable-background="new" opacity=".4"/></g></g><g id="Layer_x5F_2"><g id="g625"><path id="path172" fill="#999" d="M3.9,5.7 c-1.7,0-3.1,1.1-3.1,2.5v31.1c0,1.4,1.4,2.5,3.1,2.5h37.8c1.7,0,3.1-1.1,3.1-2.5v-31c0-1.4-1.4-2.5-3.1-2.5L3.9,5.7L3.9,5.7z" enable-background="new" opacity=".3"/><linearGradient id="path179_1_" x1="-732.384" x2="-732.384" y1="186.395" y2="393.874" gradientTransform="matrix(0.1875 0 0 -0.1875 158.7217 78.0996)" gradientUnits="userSpaceOnUse"><stop style="stop-color:#6a5b97" id="stop628" offset="0"/><stop style="stop-color:#6d7bb0" id="stop629" offset="1"/></linearGradient><path id="path179" fill="url(#path179_1_)" d="M42.8,38.2c0,1.1-1.1,2-2.5,2H2.5c-1.4,0-2.5-0.9-2.5-2v-31c0-1.1,1.1-2,2.5-2 h37.8c1.4,0,2.5,0.9,2.5,2V38.2L42.8,38.2z"/><linearGradient id="path186_1_" x1="-841.181" x2="-624.002" y1="295.197" y2="295.197" gradientTransform="matrix(0.1875 0 0 -0.1875 158.7217 78.0996)" gradientUnits="userSpaceOnUse"><stop style="stop-color:#efedf5" id="stop635" offset="0"/><stop style="stop-color:#99acd2" id="stop636" offset="1"/></linearGradient><path id="path186" fill="url(#path186_1_)" d="M2.5,6C1.7,6,1,6.5,1,7.2v31.1c0,0.7,0.7,1.2,1.5,1.2h37.8c0.8,0,1.5-0.5,1.5-1.2 V7.2c0-0.7-0.7-1.2-1.5-1.2H2.5L2.5,6z"/><path id="path187" fill="#FFF" d="M3.1,25.4 c1.4,0.1,2.8,0.2,4.2,0.2c16.8,0,30.3-7.5,30.3-16.8c0-0.4,0-0.7-0.1-1.1c-7.7,0-33.4,0-34.5,0C3.1,8.2,3.1,17.4,3.1,25.4z" enable-background="new" opacity=".64"/></g></g><g id="Layer_x5F_3"><g id="g643"><path id="path644" d="M41.1,19c-0.8-0.9-1.9-1.4-3.2-1.5 c-3.5-0.4-8,1.5-11.2,3.6l-1.3,0.8c-0.2,0.1-0.3,0.2-0.4,0.3c-0.1-0.2-0.4-0.4-0.8-0.7c-0.2-0.1-0.5-0.1-0.8-0.2 c0-0.1,0.2-1.6,0.2-1.6c0.3-3.1,0-6.3-1.3-8.5H11.5c-1.3,1.5-2.4,3.5-3,5.5v4.7c0.1,0.4,0.3,0.9,0.6,1.3 c-0.2,0.2-0.4,0.4-0.6,0.5v9.6c0.2,0.1,0.3,0.1,0.6,0c0.5,0.6,1.3,0.9,2.2,0.9c1.1,0.1,2.3-0.1,3.4-0.5c0,0.1,0,0.2-0.1,0.3 c-0.1,1,0.2,1.5,1,1.9c0.8,0.3,1.5,0.1,2.2-0.3c0.1,0.7,0.3,1.2,0.7,1.8c0.4,0.7,1.1,1.1,1.9,1.3c0.1,0.5,0.1,1.7,0,2.2 c0,1.5-0.1,2.4,0.7,3l1.2,0.4c1.8,0,2.2-1.4,2.3-2.6c0-0.2,0-0.5,0.1-0.8c0-0.3,0-0.7,0.1-0.9c0.1-0.8,0.3-1.7,0.8-1.9l0.5-0.2 c2.1-0.9,4.5-1.8,5.2-3.6c0.1-0.2,0.1-0.4,0.1-0.7v-0.1c1.8-0.2,3.3-0.8,4.6-1.7c3.2-2,5.6-5.4,6.2-8.5c0-0.1,0-0.2,0-0.3 c0.2-1.4-0.2-2.8-1-3.7V19z" enable-background="new" opacity=".15"/><path id="path645" d="M4.5,14c0,1.6,0.4,3.3,1.3,4.9c-0.9,1.1-1.1,2.5-1.1,4c0,0.8,0.1,1.5,0.1,2.2v0.5l0,0c0,0.8-1.4,1.6-2.3,2.2 c-1,0.7-2.5,1.6-2.5,3c0,0.3,0.1,0.7,0.3,1l1.1,0.9c0.9,0.2,1.8-0.2,3.3-1.2c0.7-0.3,1.6-1,2.2-1.2c0.7,0.5,1.3,0.8,2.2,0.9 c1.1,0,2.2-0.3,3.2-1c0,0.1,0,0.2,0,0.4c0,1.1,0.4,1.8,1.2,2.1c0.3,0.1,0.7,0.2,1,0.1c0.1,0.8,0.2,1.3,0.7,1.9 c0.2,0.2,0.4,0.4,0.8,0.7c0,0.5-0.1,1.4-0.2,2c-0.1,0.8-0.2,1.4-0.2,2c0,0.7,0.1,1.1,0.5,1.5c0.4,0.3,1,0.4,1.5,0.3 c1.4-0.4,1.6-2,2-3.6c0.2-1.2,0.4-2.9,1.1-3.4l0.4-0.3c1.5-1.2,3.2-2.6,3.8-4.5c0.1-0.3,0.2-0.8,0.2-1.1 c1.3-0.5,2.5-1.5,3.6-2.6c2.6-2.9,5.4-8.1,5.4-11.8c0-0.8-0.1-1.5-0.4-2.1c-0.4-0.8-1.2-1.3-2.1-1.4c-3.2-0.3-7.9,4.5-9.2,6.1 c0,0-0.8,0.8-1,1.1c-0.1-0.5-0.6-1-1-1.2c-0.2-0.1-0.6-0.1-0.8-0.1c0-0.1,0-1.9,0-1.9c0-6.2-2.4-12.8-6.8-12.8 c-4.5,0-8.1,7-8.1,12.8L4.5,14z M16.6,24.6c0.1,0,0.6,0.2,1.2,0.6c-0.7-0.1-1.2-0.2-1.2-0.2c0-0.1,0-0.1,0.1-0.3H16.6z"/><linearGradient id="XMLID_1_" x1="-439.593" x2="-432.506" y1="400.694" y2="401.79" gradientTransform="matrix(-0.9994 -3.400000e-002 3.400000e-002 -0.9994 -425.031 404.9959)" gradientUnits="userSpaceOnUse"><stop style="stop-color:#ffd6e2" id="stop647" offset="0"/><stop style="stop-color:#ff74ca" id="stop648" offset="1"/></linearGradient><path id="path652" fill="url(#XMLID_1_)" d="M27.5,24c-3.4,3.9-8.2,3.5-9.3,1.5s1.8-4.8,5.3-8.7c3.5-3.9,7.7-6.9,8.9-5 c1.1,2-1.3,8.2-4.7,12.1H27.5z"/><linearGradient id="XMLID_2_" x1="-418.113" x2="-426.051" y1="406.578" y2="395.403" gradientTransform="matrix(-1 0 0 -1 -408.1113 415.9121)" gradientUnits="userSpaceOnUse"><stop style="stop-color:#f0f" id="stop654" offset="0"/><stop style="stop-color:#b300c7" id="stop655" offset="1"/></linearGradient><path id="path659" fill="url(#XMLID_2_)" d="M5.9,13.7c0,5.4,5.7,9.8,9,9.8c3.3,0,2.9-4.4,2.9-9.8c0-5.4-2-11.2-5.3-11.2 C9.2,2.5,5.9,8.4,5.9,13.7z"/><radialGradient id="XMLID_3_" cx="-257.501" cy="407.402" r="7.597" fx="-257.501" fy="407.402" gradientTransform="matrix(1 0 0 -1 282.3999 415.9121)" gradientUnits="userSpaceOnUse"><stop style="stop-color:#787878" id="stop661" offset="0"/><stop style="stop-color:#313131" id="stop662" offset="1"/></radialGradient><path id="path666" fill="url(#XMLID_3_)" d="M20.6,16.2l0.2,0.1c2.1-2.9,7.8-10.1,9.9-8.8l0.1-0.2c-2.6-1.9-9.9,8.4-10.2,8.8V16.2z"/><radialGradient id="XMLID_4_" cx="-261.613" cy="411.519" r="9.158" fx="-261.613" fy="411.519" gradientTransform="matrix(1 0 0 -1 282.3999 415.9121)" gradientUnits="userSpaceOnUse"><stop style="stop-color:#787878" id="stop668" offset="0"/><stop style="stop-color:#313131" id="stop669" offset="1"/></radialGradient><path id="path673" fill="url(#XMLID_4_)" d="M20.2,2.9c2.4,0.5,0.8,9.7,0,13.2l0.2,0.1c0.1-0.5,3-12.8-0.2-13.5l-0.1,0.2H20.2z"/><linearGradient id="XMLID_5_" x1="-432.953" x2="-428.884" y1="388.153" y2="388.783" gradientTransform="matrix(-0.9994 -3.400000e-002 3.400000e-002 -0.9994 -425.031 404.9959)" gradientUnits="userSpaceOnUse"><stop style="stop-color:#f8f" id="stop675" offset="0"/><stop style="stop-color:#f0f" id="stop676" offset="1"/></linearGradient><path id="path680" fill="url(#XMLID_5_)" d="M17,39.2c1.1-0.3,0.6-5.1,2.5-6.7c1.5-1.2,3.3-2.5,3.7-4.2c0.9-2.6-1.9-4.7-3.5-4.8 c-1.6-0.1-2.4,2.2-3,3.6c-0.9,2.6-1.8,6.7,0.1,6.6c1-0.1-0.6,5.7,0,5.5H17z"/><linearGradient id="XMLID_6_" x1="-500.136" x2="-494.021" y1="331.756" y2="332.702" gradientTransform="matrix(0.5742 0.8187 0.8187 -0.5742 22.1562 623.6968)" gradientUnits="userSpaceOnUse"><stop style="stop-color:#f0f" id="stop682" offset="0"/><stop style="stop-color:#a700ff" id="stop683" offset="1"/></linearGradient><path id="path687" fill="url(#XMLID_6_)" d="M1.6,30.8c-0.8-1.4,5-2.6,4.7-5.6c-0.1-2.2-0.4-4.6,0.8-5.8c2-2.1,6.9,0,8.8,1.9 c1.9,1.9,0.1,3.5-1,4.7c-2,2.1-5.6,4.6-7.3,2.6c-0.9-1.1-5.6,2.9-5.9,2.2H1.6z"/><radialGradient id="XMLID_7_" cx="-400.769" cy="405.967" r="6.938" fx="-400.769" fy="405.967" gradientTransform="matrix(-1.3608 -0.5505 0.5505 -1.3608 -749.7171 350.6711)" gradientUnits="userSpaceOnUse"><stop style="stop-color:#787878" id="stop689" offset="0"/><stop style="stop-color:#313131" id="stop690" offset="1"/></radialGradient><path id="path694" fill="url(#XMLID_7_)" d="M15.7,23.6c-1.5,3.9-2.3,7.2-1.8,7.4c0.5,0.2,2.3-2.6,3.9-6.5c1.5-3.9,2.3-7.1,1.8-7.4 C19,16.9,17.3,19.7,15.7,23.6z"/><radialGradient id="XMLID_8_" cx="-262.26" cy="413.466" r=".787" fx="-262.26" fy="413.466" gradientTransform="matrix(1 0 0 -1 282.3999 415.9121)" gradientUnits="userSpaceOnUse"><stop style="stop-color:#787878" id="stop696" offset="0"/><stop style="stop-color:#313131" id="stop697" offset="1"/></radialGradient><path id="path701" fill="url(#XMLID_8_)" d="M19.7,2.8c0,0.2,0.2,0.4,0.4,0.4s0.4-0.2,0.4-0.4c0-0.2-0.2-0.4-0.4-0.4S19.7,2.6,19.7,2.8z"/><radialGradient id="XMLID_9_" cx="-251.763" cy="408.793" r=".787" fx="-251.763" fy="408.793" gradientTransform="matrix(1 0 0 -1 282.3999 415.9121)" gradientUnits="userSpaceOnUse"><stop style="stop-color:#787878" id="stop703" offset="0"/><stop style="stop-color:#313131" id="stop704" offset="1"/></radialGradient><path id="path708" fill="url(#XMLID_9_)" d="M30.2,7.5c0,0.2,0.2,0.4,0.4,0.4s0.4-0.2,0.4-0.4s-0.2-0.4-0.4-0.4S30.2,7.3,30.2,7.5z"/><path id="path709" fill="#FFF" d="M15.3,3.9 c0,0-2.2-3-5-0.7C6.6,6.4,5.7,12,6.2,15.4C6.6,5.8,11.9,0.4,15.3,3.9z" enable-background="new" opacity=".55"/><path id="path710" fill="#FFF" d="M18.8,22.1 c4.6-5.9,11.4-13.1,13.4-10.2c-2.5-0.8-6.9,3-13.5,10.3L18.8,22.1z" enable-background="new" opacity=".55"/><path id="path711" fill="#FFF" d="M19.9,17.7 c-0.5-0.9-5.5,8.4-6,12.2c0.9-5.9,4.6-12.1,5.4-12.8C19.9,16.5,19.9,17.7,19.9,17.7z" enable-background="new" opacity=".55"/><path id="path712" fill="#FFF" d="M13.4,19.6 c-1.8-1.1-5.4-1.5-6.6,0c-1.2,1.5-0.4,4.6-0.4,6.2S2.1,29.3,1.9,30c1.5-1.1,4.4-2.1,4.8-3.4c0.4-1.3,0-4.8,0.9-6.4 C8.6,18.6,11.8,19.1,13.4,19.6z" enable-background="new" opacity=".55"/></g></g><g id="Layer_x5F_4"><rect id="path241" width="48" height="48" fill="none"/></g></svg>