<svg xmlns="http://www.w3.org/2000/svg" xmlns:xlink="http://www.w3.org/1999/xlink" id="svg602" width="48" height="48" enable-background="new 0 0 48 48" overflow="visible" viewBox="0 0 48 48" xml:space="preserve"><g id="Layer_x5F_1"><g id="g620"><path id="path155" d="M10.1,1.6 c-1.8,0-3.3,1.5-3.3,3.3v39.4c0,1.8,1.5,3.3,3.3,3.3h34.6c1.8,0,3.3-1.5,3.3-3.3V4.9c0-1.8-1.5-3.3-3.3-3.3H10.1z" enable-background="new" opacity=".2"/><linearGradient id="path162_1_" x1="-1385.998" x2="-1165.498" y1="291.729" y2="291.729" gradientTransform="matrix(0.1875 0 0 -0.1875 264.8174 78.0996)" gradientUnits="userSpaceOnUse"><stop style="stop-color:#a7abac" id="stop609" offset="0"/><stop style="stop-color:#85898a" id="stop610" offset="1"/></linearGradient><path id="path162" fill="url(#path162_1_)" d="M8.3,0.4C6.5,0.4,5,1.9,5,3.7v39.4c0,1.8,1.5,3.3,3.3,3.3H43 c1.8,0,3.3-1.5,3.3-3.3V3.7c0-1.8-1.5-3.3-3.3-3.3H8.3z"/><path id="path163" fill="#9CF" d="M5.9,43.1c0,1.3,1.1,2.4,2.4,2.4H43c1.3,0,2.4-1.1,2.4-2.4V3.7c0-1.3-1.1-2.4-2.4-2.4H8.3 C7,1.3,5.9,2.4,5.9,3.7V43.1z"/><linearGradient id="path170_1_" x1="-1321.301" x2="-1072.452" y1="337.473" y2="88.624" gradientTransform="matrix(0.1875 0 0 -0.1875 264.8174 78.0996)" gradientUnits="userSpaceOnUse"><stop style="stop-color:#fff" id="stop617" offset="0"/><stop style="stop-color:#9cf" id="stop618" offset="1"/></linearGradient><path id="path170" fill="url(#path170_1_)" d="M8.3,2.3C7.5,2.3,6.9,3,6.9,3.7v39.4c0,0.8,0.6,1.4,1.4,1.4H43 c0.8,0,1.4-0.6,1.4-1.4V3.7c0-0.8-0.6-1.4-1.4-1.4H8.3z"/><path id="path171" fill="#FFF" d="M32.5,19.1 c3.7-3.4,8.1-5.1,12.8-6V3.7c0-1.3-1.1-2.4-2.4-2.4H8.3C7,1.3,5.9,2.4,5.9,3.7v28.2C15.7,32.7,24.9,25.9,32.5,19.1z" enable-background="new" opacity=".4"/></g></g><g id="Layer_x5F_2"><g id="g625"><path id="path172" fill="#999" d="M3.9,5.7 c-1.7,0-3.1,1.1-3.1,2.5v31.1c0,1.4,1.4,2.5,3.1,2.5h37.8c1.7,0,3.1-1.1,3.1-2.5v-31c0-1.4-1.4-2.5-3.1-2.5L3.9,5.7L3.9,5.7z" enable-background="new" opacity=".3"/><linearGradient id="path179_1_" x1="-449.461" x2="-449.461" y1="232.636" y2="25.157" gradientTransform="matrix(0.1875 0 0 0.1875 105.6738 -0.4688)" gradientUnits="userSpaceOnUse"><stop style="stop-color:#6a5b97" id="stop628" offset="0"/><stop style="stop-color:#6d7bb0" id="stop629" offset="1"/></linearGradient><path id="path179" fill="url(#path179_1_)" d="M42.8,38.2c0,1.1-1.1,2-2.5,2H2.5c-1.4,0-2.5-0.9-2.5-2v-31c0-1.1,1.1-2,2.5-2 h37.8c1.4,0,2.5,0.9,2.5,2V38.2L42.8,38.2z"/><linearGradient id="path186_1_" x1="-558.259" x2="-341.08" y1="123.834" y2="123.834" gradientTransform="matrix(0.1875 0 0 0.1875 105.6738 -0.4688)" gradientUnits="userSpaceOnUse"><stop style="stop-color:#efedf5" id="stop635" offset="0"/><stop style="stop-color:#99acd2" id="stop636" offset="1"/></linearGradient><path id="path186" fill="url(#path186_1_)" d="M2.5,6C1.7,6,1,6.5,1,7.2v31.1c0,0.7,0.7,1.2,1.5,1.2h37.8c0.8,0,1.5-0.5,1.5-1.2 V7.2c0-0.7-0.7-1.2-1.5-1.2H2.5L2.5,6z"/><path id="path187" fill="#FFF" d="M3.1,25.4 c1.4,0.1,2.8,0.2,4.2,0.2c16.8,0,30.3-7.5,30.3-16.8c0-0.4,0-0.7-0.1-1.1c-7.7,0-33.4,0-34.5,0C3.1,8.2,3.1,17.4,3.1,25.4z" enable-background="new" opacity=".64"/></g></g><g id="Layer_x5F_3"><g id="g640"><path id="path188" d="M43.8,13 c-1.3-0.4-3,0.7-5.4,3.8c-1,1.1-1.8,2.3-2.4,3c-2.1-1.5-7.5-4.1-14.6-1.5c-1.1-1-2.5-2.1-4.4-3.1c-0.5-0.4-1.9-1.2-2.9-0.4 c-0.2,0.2-0.5,0.6-0.5,1.2c0,0.8,0.5,2.1,1.6,4.2c-1.5,0.5-2.5,1.9-2.5,3.5c0,0.4,0,0.6,0.1,0.8c-0.2,0-0.4,0-0.5-0.1 c-0.2-0.6-0.5-1.2-0.8-1.7c-1.8-3-5-4.6-7-3.4C2.4,20.5,2.3,24,4.1,27c0.7,1.2,1.7,2.2,2.7,2.9c2.8,2.7,9.4,8,18.8,8.3 c4,0.1,8-1.5,11.4-4.7c5.2-5,8.5-13.2,8.6-17.9C45.3,14.3,44.8,13.4,43.8,13z" enable-background="new" opacity=".2"/><path id="path189" d="M36.7,14.5c-1,1.1-1.8,2.3-2.4,3c-2.1-1.5-7.5-4.1-14.6-1.5c-1.1-1-2.5-2.1-4.4-3.1 c-0.5-0.4-1.9-1.2-2.9-0.4c-0.2,0.2-0.5,0.6-0.5,1.2c0,1,0.6,2.5,2.2,5.4c-0.1,0.2-0.2,0.5-0.2,0.7c0,0.1,0,0.2,0.1,0.5 c0.2,0.7,1,0.8,1.6,0.8c0.6,0.5,1.7,0.1,2.8-0.4c-0.7,1-1.9,1.8-3.9,1.8c-4.6,0-6.7-1.1-6.7-1.1L6.9,21l-0.6,0.7L3,25.6l0.5,0.7 c0.4,0.4,8,9.4,20.1,9.9c4,0.1,8-1.5,11.4-4.7c5.2-5,8.5-13.2,8.6-17.9c0-1.6-0.5-2.7-1.5-2.9C40.9,10.2,39.2,11.4,36.7,14.5z"/><linearGradient id="path196_1_" x1="-1332.871" x2="-1291.314" y1="329.63" y2="292.868" gradientTransform="matrix(0.1839 3.654375e-002 3.654375e-002 -0.1839 248.7663 125.272)" gradientUnits="userSpaceOnUse"><stop style="stop-color:#bd8c00" id="stop647" offset="0"/><stop style="stop-color:#7d5b00" id="stop648" offset="1"/></linearGradient><path id="path196" fill="url(#path196_1_)" d="M20.6,18.4c-0.5-0.5-1.5-1.8-5.9-4.6c-4.4-2.8,1,5.8,1.2,6.4 C16.2,20.7,20.6,18.4,20.6,18.4z"/><linearGradient id="path203_1_" x1="-1288.461" x2="-1224.917" y1="316.711" y2="233.185" gradientTransform="matrix(0.1875 0 0 -0.1875 264.8174 78.0996)" gradientUnits="userSpaceOnUse"><stop style="stop-color:#bd8c00" id="stop654" offset="0"/><stop style="stop-color:#7d5b00" id="stop655" offset="1"/></linearGradient><path id="path203" fill="url(#path203_1_)" d="M4.4,25.6c0,0,7.6,9.1,19.4,9.6C35.5,35.6,42.5,20,42.5,13.6c0.1-6.4-8,5.4-8,5.4 s-6.5-5.8-15.9-1.3c-9.3,4.5,1.7,1.3,1.7,1.3s-1.1,4.7-6,4.7c-4.9,0-7.1-1.3-7.1-1.3L4.4,25.6z"/><linearGradient id="XMLID_1_" x1="-1212.402" x2="-1289.016" y1="298.128" y2="298.834" gradientTransform="matrix(0.1875 0 0 -0.1875 264.8174 78.0996)" gradientUnits="userSpaceOnUse"><stop style="stop-color:#bd8c00" id="stop661" offset="0"/><stop style="stop-color:#d9b200" id="stop662" offset="1"/></linearGradient><path id="path666" fill="url(#XMLID_1_)" d="M36.8,20.3c0,0,3.4-5.1,5.8-6.8c0-5.7-6.9,4-7.9,5.4C36.1,19.5,36.8,20.3,36.8,20.3z M20.3,18.9 c0,0,0,0.1,0,0.2c0.2-0.1,0.4-0.2,0.6-0.2c5.6-2.5,10-1.7,12.8-0.5c-2.1-1.3-7.6-4.1-15-0.7C9.3,22.1,20.3,18.9,20.3,18.9z M6.6,26.8l2.8-3.1c0,0,2.2,1.3,7.1,1.3c5,0,6-4.7,6-4.7s-1.6,0.5-3,0.7c-0.8,1.3-2.4,2.8-5.2,2.8c-5,0-7.1-1.3-7.1-1.3 l-2.7,3.1c0,0,3.4,4.1,9.3,6.9C9.2,29.8,6.6,26.8,6.6,26.8z"/><circle id="path211" cx="14.5" cy="21.5" r="3.6" fill="#999"/><circle id="path212" cx="21.3" cy="22.4" r="4.6" fill="#999"/><radialGradient id="path219_1_" cx="-1328.548" cy="295.267" r="40.965" fx="-1328.548" fy="295.267" gradientTransform="matrix(0.1875 0 0 -0.1875 264.8174 78.0996)" gradientUnits="userSpaceOnUse"><stop style="stop-color:#fff" id="stop670" offset="0"/><stop style="stop-color:#d4e1ee" id="stop671" offset="1"/></radialGradient><circle id="path219" cx="15.1" cy="22" r="3.6" fill="url(#path219_1_)"/><path id="path220" fill="#FFF" d="M12,22.6 c0-2.2,1.8-4,4-4c0.1,0,0.4,0,0.5,0c-0.4-0.1-0.7-0.2-1.1-0.2c-1.9,0-3.6,1.7-3.6,3.8c0,0.7,0.2,1.3,0.5,1.9 C12.1,23.7,12,23,12,22.6z" enable-background="new" opacity=".73"/><ellipse id="path221" cx="5.9" cy="22.7" rx="4.2" ry="6.4" transform="matrix(-0.8599 0.5105 -0.5105 -0.8599 22.6384 39.1995)"/><radialGradient id="path228_1_" cx="-1289.186" cy="292.265" r="45.56" fx="-1289.186" fy="292.265" gradientTransform="matrix(0.1875 0 0 -0.1875 264.8174 78.0996)" gradientUnits="userSpaceOnUse"><stop style="stop-color:#fff" id="stop679" offset="0"/><stop style="stop-color:#d4e1ee" id="stop680" offset="1"/></radialGradient><circle id="path228" cx="21.9" cy="22.9" r="4.6" fill="url(#path228_1_)"/><path id="path229" fill="#FFF" d="M18,23.2c0-2.2,1.9-4,4.2-4.1C22,19,21.7,19,21.4,19c-1.9,0-3.5,1.6-3.5,3.5 C17.9,22.7,18,22.9,18,23.2L18,23.2z"/><radialGradient id="path236_1_" cx="-1398.679" cy="325.202" r="47.908" fx="-1398.679" fy="325.202" gradientTransform="matrix(0.1875 0 0 -0.1875 264.8174 78.0996)" gradientUnits="userSpaceOnUse"><stop style="stop-color:#fff" id="stop687" offset="0"/><stop style="stop-color:#000" id="stop688" offset="1"/></radialGradient><path id="path236" fill="url(#path236_1_)" d="M3,17.4c-0.8,0.5-1.3,1.6-1.3,2.9c0,1.2,0.4,2.7,1.2,3.9c1.6,2.7,4.4,4.1,6,3.1 c1.7-1,1.8-4.1,0.1-6.8C7.5,17.7,4.7,16.4,3,17.4z"/><path id="path237" fill="#FFF" d="M16,33.3 c0,0,16.5,3.3,16.2-4.6C31.8,20.7,33,34.4,16,33.3z" enable-background="new" opacity=".73"/><circle id="path238" cx="23.1" cy="23.3" r="1.7"/><circle id="path239" cx="15.7" cy="22.7" r="1.2"/></g></g><g id="Layer_x5F_4"><rect id="path241" width="48" height="48" fill="none"/></g></svg>