<svg xmlns="http://www.w3.org/2000/svg" xmlns:xlink="http://www.w3.org/1999/xlink" id="svg602" width="48" height="48" enable-background="new 0 0 48 48" overflow="visible" viewBox="0 0 48 48" xml:space="preserve"><g id="Layer_x5F_1"><g id="g620"><path id="path155" d="M10.1,1.6 c-1.8,0-3.3,1.5-3.3,3.3v39.4c0,1.8,1.5,3.3,3.3,3.3h34.6c1.8,0,3.3-1.5,3.3-3.3V4.9c0-1.8-1.5-3.3-3.3-3.3H10.1z" enable-background="new" opacity=".2"/><linearGradient id="path162_1_" x1="-1668.92" x2="-1448.42" y1="127.302" y2="127.302" gradientTransform="matrix(0.1875 0 0 0.1875 317.8652 -0.4688)" gradientUnits="userSpaceOnUse"><stop style="stop-color:#a7abac" id="stop609" offset="0"/><stop style="stop-color:#85898a" id="stop610" offset="1"/></linearGradient><path id="path162" fill="url(#path162_1_)" d="M8.3,0.4C6.5,0.4,5,1.9,5,3.7v39.4c0,1.8,1.5,3.3,3.3,3.3H43 c1.8,0,3.3-1.5,3.3-3.3V3.7c0-1.8-1.5-3.3-3.3-3.3H8.3z"/><path id="path163" fill="#9CF" d="M5.9,43.1c0,1.3,1.1,2.4,2.4,2.4H43c1.3,0,2.4-1.1,2.4-2.4V3.7c0-1.3-1.1-2.4-2.4-2.4H8.3 C7,1.3,5.9,2.4,5.9,3.7V43.1z"/><linearGradient id="path170_1_" x1="-1604.223" x2="-1355.373" y1="81.559" y2="330.408" gradientTransform="matrix(0.1875 0 0 0.1875 317.8652 -0.4688)" gradientUnits="userSpaceOnUse"><stop style="stop-color:#fff" id="stop617" offset="0"/><stop style="stop-color:#9cf" id="stop618" offset="1"/></linearGradient><path id="path170" fill="url(#path170_1_)" d="M8.3,2.3C7.5,2.3,6.9,3,6.9,3.7v39.4c0,0.8,0.6,1.4,1.4,1.4H43 c0.8,0,1.4-0.6,1.4-1.4V3.7c0-0.8-0.6-1.4-1.4-1.4H8.3z"/><path id="path171" fill="#FFF" d="M32.5,19.1 c3.7-3.4,8.1-5.1,12.8-6V3.7c0-1.3-1.1-2.4-2.4-2.4H8.3C7,1.3,5.9,2.4,5.9,3.7v28.2C15.7,32.7,24.9,25.9,32.5,19.1z" enable-background="new" opacity=".4"/></g></g><g id="Layer_x5F_2"><g id="g625"><path id="path172" fill="#999" d="M3.9,5.7 c-1.7,0-3.1,1.1-3.1,2.5v31.1c0,1.4,1.4,2.5,3.1,2.5h37.8c1.7,0,3.1-1.1,3.1-2.5v-31c0-1.4-1.4-2.5-3.1-2.5L3.9,5.7L3.9,5.7z" enable-background="new" opacity=".3"/><linearGradient id="path179_1_" x1="-732.384" x2="-732.384" y1="186.395" y2="393.874" gradientTransform="matrix(0.1875 0 0 -0.1875 158.7217 78.0996)" gradientUnits="userSpaceOnUse"><stop style="stop-color:#6a5b97" id="stop628" offset="0"/><stop style="stop-color:#6d7bb0" id="stop629" offset="1"/></linearGradient><path id="path179" fill="url(#path179_1_)" d="M42.8,38.2c0,1.1-1.1,2-2.5,2H2.5c-1.4,0-2.5-0.9-2.5-2v-31c0-1.1,1.1-2,2.5-2 h37.8c1.4,0,2.5,0.9,2.5,2V38.2L42.8,38.2z"/><linearGradient id="path186_1_" x1="-841.181" x2="-624.002" y1="295.197" y2="295.197" gradientTransform="matrix(0.1875 0 0 -0.1875 158.7217 78.0996)" gradientUnits="userSpaceOnUse"><stop style="stop-color:#efedf5" id="stop635" offset="0"/><stop style="stop-color:#99acd2" id="stop636" offset="1"/></linearGradient><path id="path186" fill="url(#path186_1_)" d="M2.5,6C1.7,6,1,6.5,1,7.2v31.1c0,0.7,0.7,1.2,1.5,1.2h37.8c0.8,0,1.5-0.5,1.5-1.2 V7.2c0-0.7-0.7-1.2-1.5-1.2H2.5L2.5,6z"/><path id="path187" fill="#FFF" d="M3.1,25.4 c1.4,0.1,2.8,0.2,4.2,0.2c16.8,0,30.3-7.5,30.3-16.8c0-0.4,0-0.7-0.1-1.1c-7.7,0-33.4,0-34.5,0C3.1,8.2,3.1,17.4,3.1,25.4z" enable-background="new" opacity=".64"/></g></g><g id="Layer_x5F_3"><g id="g643"><path id="path644" d="M41,22.4L22.4,3.8c-0.4-0.4-1-0.6-1.5-0.6c-0.6,0-1.1,0.2-1.5,0.6L0.6,22.4c-0.4,0.4-0.6,1-0.6,1.5s0.2,1.1,0.6,1.5 l18.6,18.6c0.9,0.9,2.2,0.9,3.1,0L41,25.5C41.8,24.6,41.8,23.2,41,22.4L41,22.4z"/><linearGradient id="XMLID_1_" x1="-166.924" x2="-156.926" y1="319.234" y2="275.428" gradientTransform="matrix(1 0 0 -1 183.2031 323.2891)" gradientUnits="userSpaceOnUse"><stop style="stop-color:#184375" id="stop646" offset="0"/><stop style="stop-color:#c8bddc" id="stop647" offset="1"/></linearGradient><polygon id="polygon651" fill="url(#XMLID_1_)" points="20.8 42.6 2.2 23.9 20.8 5.3 39.5 23.9"/><g id="g652"><g id="g653"><g id="g654"><linearGradient id="XMLID_2_" x1="-16.389" x2="-12.006" y1="102.326" y2="92.561" gradientTransform="matrix(1 0 0 -1 0 47.0625)" gradientUnits="userSpaceOnUse"><stop style="stop-color:#184375" id="stop656" offset="0"/><stop style="stop-color:#c8bddc" id="stop657" offset="1"/></linearGradient><path id="path661" fill="url(#XMLID_2_)" d="M21.6,6.1L2.9,24.7l10.8,10.6c13.9,0,2.4-18,19-18L21.6,6.1z" opacity="0"/></g><linearGradient id="XMLID_3_" x1="-166.341" x2="-161.999" y1="304.152" y2="294.478" gradientTransform="matrix(1 0 0 -1 183.2031 323.2891)" gradientUnits="userSpaceOnUse"><stop style="stop-color:#184375" id="stop663" offset="0"/><stop style="stop-color:#c8bddc" id="stop664" offset="1"/></linearGradient><path id="path668" fill="url(#XMLID_3_)" d="M21.4,6 L2.8,24.6l10.7,10.5c13.9,0,2.3-18.1,18.9-18.1L21.4,6L21.4,6z" enable-background="new" opacity=".167"/><linearGradient id="XMLID_4_" x1="-166.569" x2="-162.267" y1="304.342" y2="294.757" gradientTransform="matrix(1 0 0 -1 183.2031 323.2891)" gradientUnits="userSpaceOnUse"><stop style="stop-color:#184375" id="stop670" offset="0"/><stop style="stop-color:#c8bddc" id="stop671" offset="1"/></linearGradient><path id="path675" fill="url(#XMLID_4_)" d="M21.3,5.8 L2.7,24.5l10.5,10.3c13.9,0,2.2-18.2,18.9-18.2L21.3,5.8L21.3,5.8z" enable-background="new" opacity=".333"/><linearGradient id="XMLID_5_" x1="-166.795" x2="-162.534" y1="304.53" y2="295.036" gradientTransform="matrix(1 0 0 -1 183.2031 323.2891)" gradientUnits="userSpaceOnUse"><stop style="stop-color:#184375" id="stop677" offset="0"/><stop style="stop-color:#c8bddc" id="stop678" offset="1"/></linearGradient><path id="path682" fill="url(#XMLID_5_)" d="M21.2,5.7 L2.5,24.3l10.3,10.1c13.9,0,2.2-18.3,18.8-18.3L21.2,5.7z" enable-background="new" opacity=".5"/><linearGradient id="XMLID_6_" x1="-167.023" x2="-162.801" y1="304.718" y2="295.313" gradientTransform="matrix(1 0 0 -1 183.2031 323.2891)" gradientUnits="userSpaceOnUse"><stop style="stop-color:#184375" id="stop684" offset="0"/><stop style="stop-color:#c8bddc" id="stop685" offset="1"/></linearGradient><path id="path689" fill="url(#XMLID_6_)" d="M21,5.6 L2.4,24.2l10.1,10c13.9,0,2.1-18.4,18.7-18.4L21,5.6L21,5.6z" enable-background="new" opacity=".667"/><linearGradient id="XMLID_7_" x1="-167.249" x2="-163.068" y1="304.906" y2="295.592" gradientTransform="matrix(1 0 0 -1 183.2031 323.2891)" gradientUnits="userSpaceOnUse"><stop style="stop-color:#184375" id="stop691" offset="0"/><stop style="stop-color:#c8bddc" id="stop692" offset="1"/></linearGradient><path id="path696" fill="url(#XMLID_7_)" d="M20.9,5.5 L2.3,24.1l9.9,9.8c13.9,0,2-18.5,18.7-18.5L20.9,5.5L20.9,5.5z" enable-background="new" opacity=".833"/><linearGradient id="XMLID_8_" x1="-167.475" x2="-163.334" y1="305.096" y2="295.871" gradientTransform="matrix(1 0 0 -1 183.2031 323.2891)" gradientUnits="userSpaceOnUse"><stop style="stop-color:#184375" id="stop698" offset="0"/><stop style="stop-color:#c8bddc" id="stop699" offset="1"/></linearGradient><path id="path703" fill="url(#XMLID_8_)" d="M20.8,5.3L2.2,24l9.7,9.7c13.9,0,2-18.6,18.6-18.6L20.8,5.3L20.8,5.3z"/></g></g><polygon id="polygon704" fill="#FFF" points="39.5 23.9 20.8 5.3 2.2 23.9 2.9 24.5 21 8.5" enable-background="new" opacity=".72"/><path id="path705" fill="#FFF" d="M5.9,27.7l0.7-1 c0.6,0.3,1.3,0.5,1.9,0.6l0,1.5C9,28.9,9.4,29,9.8,29l0.5-1.5c0.3,0,0.7,0,1,0s0.7,0,1,0l0.5,1.5c0.4,0,0.9-0.1,1.3-0.2l0-1.5 c0.7-0.2,1.3-0.4,1.9-0.6l0.9,1.2c0.4-0.2,0.8-0.4,1.1-0.6l-0.5-1.5c0.6-0.4,1.1-0.7,1.6-1.2l1.2,0.9c0.3-0.3,0.6-0.6,0.9-0.9 l-0.9-1.2c0.4-0.5,0.8-1.1,1.2-1.6l1.5,0.5c0.2-0.4,0.4-0.8,0.6-1.1l-1.2-0.9c0.3-0.6,0.5-1.3,0.6-1.9l1.5,0 c0.1-0.4,0.2-0.8,0.2-1.3l-1.5-0.5c0-0.3,0-0.7,0-1s0-0.7,0-1l1.5-0.5c0-0.4-0.1-0.9-0.2-1.3l-1.5,0c-0.2-0.7-0.4-1.3-0.6-1.9 l1.2-0.9c-0.2-0.4-0.4-0.8-0.6-1.1l-1.5,0.5c-0.4-0.6-0.8-1.1-1.2-1.6l0.9-1.2c-0.3-0.3-0.6-0.6-0.8-0.9L2.2,23.9l1,1l0.3-0.2 c0.5,0.4,1.1,0.8,1.6,1.2l-0.2,0.7L5.9,27.7L5.9,27.7z" enable-background="new" opacity=".5"/><path id="path706" fill="#FFF" d="M24.9,32.6 c0-6.3,4.1-11.6,9.8-13.5L32.5,17c0,0,0,0,0,0l-0.2-0.2l-1.4-1.4c-0.4,0.2-0.9,0.4-1.3,0.7l0.7,2c-0.8,0.5-1.6,1.1-2.3,1.7 l-1.7-1.3c-0.4,0.4-0.9,0.8-1.3,1.3l1.3,1.7c-0.6,0.7-1.2,1.5-1.7,2.3l-2-0.7c-0.3,0.5-0.6,1.1-0.8,1.6l1.7,1.3 c-0.4,0.9-0.7,1.8-0.9,2.7l-2.2,0c-0.1,0.6-0.2,1.2-0.3,1.8l2.1,0.7c0,0.5-0.1,0.9-0.1,1.4c0,0.5,0,1,0.1,1.4l-2.1,0.7 c0.1,0.6,0.2,1.2,0.3,1.8l2.2,0c0.2,0.9,0.5,1.8,0.9,2.7l-1.7,1.3c0.1,0.3,0.3,0.6,0.4,0.9l3.7-3.7C25.2,36,24.9,34.3,24.9,32.6 L24.9,32.6z" enable-background="new" opacity=".5"/><polygon id="polygon707" points="2.3 24.1 20.8 42.6 39.5 23.9 38.5 23.2 20.6 39.3" enable-background="new" opacity=".35"/></g></g><g id="Layer_x5F_4"><rect id="path241" width="48" height="48" fill="none"/></g></svg>