<svg xmlns="http://www.w3.org/2000/svg" xmlns:xlink="http://www.w3.org/1999/xlink" id="svg602" width="48" height="48" enable-background="new 0 0 48 48" overflow="visible" viewBox="0 0 48 48" xml:space="preserve"><g id="Layer_x5F_1"><g id="g620"><path id="path155" d="M10.1,1.6 c-1.8,0-3.3,1.5-3.3,3.3v39.4c0,1.8,1.5,3.3,3.3,3.3h34.6c1.8,0,3.3-1.5,3.3-3.3V4.9c0-1.8-1.5-3.3-3.3-3.3H10.1z" enable-background="new" opacity=".2"/><linearGradient id="path162_1_" x1="-1951.842" x2="-1731.342" y1="291.729" y2="291.729" gradientTransform="matrix(0.1875 0 0 -0.1875 370.9131 78.0996)" gradientUnits="userSpaceOnUse"><stop style="stop-color:#a7abac" id="stop609" offset="0"/><stop style="stop-color:#85898a" id="stop610" offset="1"/></linearGradient><path id="path162" fill="url(#path162_1_)" d="M8.3,0.4C6.5,0.4,5,1.9,5,3.7v39.4c0,1.8,1.5,3.3,3.3,3.3H43 c1.8,0,3.3-1.5,3.3-3.3V3.7c0-1.8-1.5-3.3-3.3-3.3H8.3z"/><path id="path163" fill="#9CF" d="M5.9,43.1c0,1.3,1.1,2.4,2.4,2.4H43c1.3,0,2.4-1.1,2.4-2.4V3.7c0-1.3-1.1-2.4-2.4-2.4H8.3 C7,1.3,5.9,2.4,5.9,3.7V43.1z"/><linearGradient id="path170_1_" x1="-1887.144" x2="-1638.295" y1="337.473" y2="88.623" gradientTransform="matrix(0.1875 0 0 -0.1875 370.9131 78.0996)" gradientUnits="userSpaceOnUse"><stop style="stop-color:#fff" id="stop617" offset="0"/><stop style="stop-color:#9cf" id="stop618" offset="1"/></linearGradient><path id="path170" fill="url(#path170_1_)" d="M8.3,2.3C7.5,2.3,6.9,3,6.9,3.7v39.4c0,0.8,0.6,1.4,1.4,1.4H43 c0.8,0,1.4-0.6,1.4-1.4V3.7c0-0.8-0.6-1.4-1.4-1.4H8.3z"/><path id="path171" fill="#FFF" d="M32.5,19.1 c3.7-3.4,8.1-5.1,12.8-6V3.7c0-1.3-1.1-2.4-2.4-2.4H8.3C7,1.3,5.9,2.4,5.9,3.7v28.2C15.7,32.7,24.9,25.9,32.5,19.1z" enable-background="new" opacity=".4"/></g></g><g id="Layer_x5F_2"><g id="g625"><path id="path172" fill="#999" d="M3.9,5.7 c-1.7,0-3.1,1.1-3.1,2.5v31.1c0,1.4,1.4,2.5,3.1,2.5h37.8c1.7,0,3.1-1.1,3.1-2.5v-31c0-1.4-1.4-2.5-3.1-2.5L3.9,5.7L3.9,5.7z" enable-background="new" opacity=".3"/><linearGradient id="path179_1_" x1="-1015.305" x2="-1015.305" y1="232.636" y2="25.157" gradientTransform="matrix(0.1875 0 0 0.1875 211.7695 -0.4688)" gradientUnits="userSpaceOnUse"><stop style="stop-color:#6a5b97" id="stop628" offset="0"/><stop style="stop-color:#6d7bb0" id="stop629" offset="1"/></linearGradient><path id="path179" fill="url(#path179_1_)" d="M42.8,38.2c0,1.1-1.1,2-2.5,2H2.5c-1.4,0-2.5-0.9-2.5-2v-31c0-1.1,1.1-2,2.5-2 h37.8c1.4,0,2.5,0.9,2.5,2V38.2L42.8,38.2z"/><linearGradient id="path186_1_" x1="-1124.103" x2="-906.923" y1="123.834" y2="123.834" gradientTransform="matrix(0.1875 0 0 0.1875 211.7695 -0.4688)" gradientUnits="userSpaceOnUse"><stop style="stop-color:#efedf5" id="stop635" offset="0"/><stop style="stop-color:#99acd2" id="stop636" offset="1"/></linearGradient><path id="path186" fill="url(#path186_1_)" d="M2.5,6C1.7,6,1,6.5,1,7.2v31.1c0,0.7,0.7,1.2,1.5,1.2h37.8c0.8,0,1.5-0.5,1.5-1.2 V7.2c0-0.7-0.7-1.2-1.5-1.2H2.5L2.5,6z"/><path id="path187" fill="#FFF" d="M3.1,25.4 c1.4,0.1,2.8,0.2,4.2,0.2c16.8,0,30.3-7.5,30.3-16.8c0-0.4,0-0.7-0.1-1.1c-7.7,0-33.4,0-34.5,0C3.1,8.2,3.1,17.4,3.1,25.4z" enable-background="new" opacity=".64"/></g></g><g id="Layer_x5F_3"><g id="g643"><path id="path2923" d="M25.2,21.5c-2.8,2.6-4.1,6.1-4.1,9.8v3.1c0,3.7,1.6,7.2,4.1,9.8c2.5,2.4,5.9,3.7,9.4,3.7 c3.6,0,7-1.3,9.4-3.7c2.8-2.6,4.1-6.1,4.1-9.8v-3.1c0-3.7-1.6-7.2-4.1-9.8c-2.5-2.5-5.9-3.7-9.4-3.7 C31.1,17.6,27.7,19,25.2,21.5z"/><linearGradient id="path2927_1_" x1="-1697.172" x2="-1685.281" y1="397.693" y2="380.607" gradientTransform="matrix(0.763 0 0 -0.9508 1325.1489 404.3142)" gradientUnits="userSpaceOnUse"><stop style="stop-color:#c09287" id="stop646" offset="0"/><stop style="stop-color:#803926" id="stop647" offset="1"/></linearGradient><path id="path2927" fill="url(#path2927_1_)" d="M46.6,30.6c-1.4-5-6.2-8.9-12.1-8.9s-10.7,3.7-12.1,8.9h-0.5v3.1 c0,6.6,5.6,12,12.5,12c7,0,12.5-5.4,12.5-12v-3.1H46.6z"/><linearGradient id="path2931_1_" x1="-1697.158" x2="-1685.183" y1="401.181" y2="383.973" gradientTransform="matrix(0.763 0 0 -0.9508 1325.1489 404.3142)" gradientUnits="userSpaceOnUse"><stop style="stop-color:red" id="stop653" offset="0"/><stop style="stop-color:#f70" id="stop654" offset="1"/></linearGradient><path id="path2931" fill="url(#path2931_1_)" d="M47,30.6c0,6.6-5.6,12-12.5,12c-7,0-12.5-5.3-12.5-12c0-6.6,5.6-12,12.5-12 C41.4,18.6,47,24,47,30.6z"/><linearGradient id="path2935_1_" x1="-1692.952" x2="-1679.158" y1="392.169" y2="384.576" gradientTransform="matrix(0.763 0 0 -0.9508 1325.1489 404.3142)" gradientUnits="userSpaceOnUse"><stop style="stop-color:#2c7894" id="stop660" offset="0"/><stop style="stop-color:#0e3d47" id="stop661" offset="1"/></linearGradient><path id="path2935" fill="url(#path2935_1_)" d="M47,34.2V31c-1.4,6.7-4.4,9.7-8.2,11v3C43,43.6,46.8,40.1,47,34.2L47,34.2z"/><linearGradient id="path2939_1_" x1="-1698.286" x2="-1680.009" y1="402.867" y2="386.652" gradientTransform="matrix(0.763 0 0 -0.9508 1325.1489 404.3142)" gradientUnits="userSpaceOnUse"><stop style="stop-color:#2381ff" id="stop667" offset="0"/><stop style="stop-color:#00f" id="stop668" offset="1"/></linearGradient><path id="path2939" fill="url(#path2939_1_)" d="M47,30.6c-0.4,7.7-6.8,11.2-8.3,11.3l-4.2-11.3H47z"/><linearGradient id="path2943_1_" x1="-1710.285" x2="-1688.135" y1="388.509" y2="378.152" gradientTransform="matrix(0.763 0 0 -0.9508 1325.1489 404.3142)" gradientUnits="userSpaceOnUse"><stop style="stop-color:#e8f066" id="stop674" offset="0"/><stop style="stop-color:#777a34" id="stop675" offset="1"/></linearGradient><path id="path2943" fill="url(#path2943_1_)" d="M31.9,45.5v-3.1c2.4,0.5,4.6,0.5,6.8-0.4v3C36.7,46.1,33.7,46.1,31.9,45.5 L31.9,45.5L31.9,45.5z"/><linearGradient id="path2947_1_" x1="-1705.93" x2="-1685.098" y1="397.271" y2="380.253" gradientTransform="matrix(0.763 0 0 -0.9508 1325.1489 404.3142)" gradientUnits="userSpaceOnUse"><stop style="stop-color:#ff0" id="stop681" offset="0"/><stop style="stop-color:#faca00" id="stop682" offset="1"/></linearGradient><path id="path2947" fill="url(#path2947_1_)" d="M34.6,30.6l4.2,11.3c-2.6,1.4-6.8,0.5-6.8,0.5L34.6,30.6L34.6,30.6z"/><path id="path2948" fill="#ECCFC7" d="M42.8,21.7c0,0,4.4,3.6,4.1,9.4c-0.4,5.8-6,13.3-15.2,11.2c9.2,0.8,14.3-6.4,14.6-11C46.7,26.6,44.5,23.8,42.8,21.7z" enable-background="new" opacity=".45"/><path id="path2949" fill="#EDA18C" d="M30.5,41.9c-3.7-1-8.6-5.4-8.4-11.6c0.1-5.9,5.4-12.8,14.9-11.5 c-9.2-0.6-14.2,5.9-14.4,11.2C22.4,34.9,26.5,40.7,30.5,41.9z"/></g><g id="g689"><path id="path644" d="M41.1,19 c-0.8-0.9-1.9-1.4-3.2-1.5c-3.5-0.4-8,1.5-11.2,3.6l-1.3,0.8c-0.2,0.1-0.3,0.2-0.4,0.3c-0.1-0.2-0.4-0.4-0.8-0.7 c-0.2-0.1-0.5-0.1-0.8-0.2c0-0.1,0.2-1.6,0.2-1.6c0.3-3.1,0-6.3-1.3-8.5H11.5c-1.3,1.5-2.4,3.5-3,5.5v4.7 c0.1,0.4,0.3,0.9,0.6,1.3c-0.2,0.2-0.4,0.4-0.6,0.5v9.6c0.2,0.1,0.3,0.1,0.6,0c0.5,0.6,1.3,0.9,2.2,0.9c1.1,0.1,2.3-0.1,3.4-0.5 c0,0.1,0,0.2-0.1,0.3c-0.1,1,0.2,1.5,1,1.9c0.8,0.3,1.5,0.1,2.2-0.3c0.1,0.7,0.3,1.2,0.7,1.8c0.4,0.7,1.1,1.1,1.9,1.3 c0.1,0.5,0.1,1.7,0,2.2c0,1.5-0.1,2.4,0.7,3l1.2,0.4c1.8,0,2.2-1.4,2.3-2.6c0-0.2,0-0.5,0.1-0.8c0-0.3,0-0.7,0.1-0.9 c0.1-0.8,0.3-1.7,0.8-1.9l0.5-0.2c2.1-0.9,4.5-1.8,5.2-3.6c0.1-0.2,0.1-0.4,0.1-0.7V33c1.8-0.2,3.3-0.8,4.6-1.7 c3.2-2,5.6-5.4,6.2-8.5c0-0.1,0-0.2,0-0.3c0.2-1.4-0.2-2.8-1-3.7V19H41.1z" enable-background="new" opacity=".15"/><path id="path691" d="M4.5,14c0,1.6,0.4,3.3,1.3,4.9c-0.9,1.1-1.1,2.5-1.1,4c0,0.8,0.1,1.5,0.1,2.2v0.5l0,0c0,0.8-1.4,1.6-2.3,2.2 c-1,0.7-2.5,1.6-2.5,3c0,0.3,0.1,0.7,0.3,1l1.1,0.9c0.9,0.2,1.8-0.2,3.3-1.2c0.7-0.3,1.6-1,2.2-1.2c0.7,0.5,1.3,0.8,2.2,0.9 c1.1,0,2.2-0.3,3.2-1c0,0.1,0,0.2,0,0.4c0,1.1,0.4,1.8,1.2,2.1c0.3,0.1,0.7,0.2,1,0.1c0.1,0.8,0.2,1.3,0.7,1.9 c0.2,0.2,0.4,0.4,0.8,0.7c0,0.5-0.1,1.4-0.2,2c-0.1,0.8-0.2,1.4-0.2,2c0,0.7,0.1,1.1,0.5,1.5c0.4,0.3,1,0.4,1.5,0.3 c1.4-0.4,1.6-2,2-3.6c0.2-1.2,0.4-2.9,1.1-3.4l0.4-0.3c1.5-1.2,3.2-2.6,3.8-4.5c0.1-0.3,0.2-0.8,0.2-1.1 c1.3-0.5,2.5-1.5,3.6-2.6c2.6-2.9,5.4-8.1,5.4-11.8c0-0.8-0.1-1.5-0.4-2.1c-0.4-0.8-1.2-1.3-2.1-1.4c-3.2-0.3-7.9,4.5-9.2,6.1 c0,0-0.8,0.8-1,1.1c-0.1-0.5-0.6-1-1-1.2c-0.2-0.1-0.6-0.1-0.8-0.1c0-0.1,0-1.9,0-1.9c0-6.2-2.4-12.8-6.8-12.8 c-4.5,0-8.1,7-8.1,12.8L4.5,14z M16.6,24.6c0.1,0,0.6,0.2,1.2,0.6c-0.7-0.1-1.2-0.2-1.2-0.2c0-0.1,0-0.1,0.1-0.3h-0.1V24.6z"/><linearGradient id="path652_1_" x1="-722.524" x2="-715.438" y1="18.277" y2="17.181" gradientTransform="matrix(-0.9994 -3.400000e-002 -3.400000e-002 0.9994 -693.5359 -23.403)" gradientUnits="userSpaceOnUse"><stop style="stop-color:#ffd6e2" id="stop693" offset="0"/><stop style="stop-color:#ff74ca" id="stop694" offset="1"/></linearGradient><path id="path652" fill="url(#path652_1_)" d="M27.5,24c-3.4,3.9-8.2,3.5-9.3,1.5c-1.1-2,1.8-4.8,5.3-8.7c3.5-3.9,7.7-6.9,8.9-5 c1.1,2-1.3,8.2-4.7,12.1h-0.2V24z"/><linearGradient id="path659_1_" x1="-700.991" x2="-708.929" y1="12.484" y2="23.659" gradientTransform="matrix(-1 0 0 1 -691.0332 -3.1191)" gradientUnits="userSpaceOnUse"><stop style="stop-color:#f0f" id="stop700" offset="0"/><stop style="stop-color:#b300c7" id="stop701" offset="1"/></linearGradient><path id="path659" fill="url(#path659_1_)" d="M5.9,13.7c0,5.4,5.7,9.8,9,9.8c3.3,0,2.9-4.4,2.9-9.8c0-5.4-2-11.2-5.3-11.2 S5.9,8.4,5.9,13.7z"/><radialGradient id="path666_1_" cx="-540.423" cy="11.629" r="7.597" fx="-540.423" fy="11.629" gradientTransform="matrix(1 0 0 1 565.3223 -3.1191)" gradientUnits="userSpaceOnUse"><stop style="stop-color:#787878" id="stop707" offset="0"/><stop style="stop-color:#313131" id="stop708" offset="1"/></radialGradient><path id="path666" fill="url(#path666_1_)" d="M20.6,16.2l0.2,0.1c2.1-2.9,7.8-10.1,9.9-8.8l0.1-0.2c-2.6-1.9-9.9,8.4-10.2,8.8 V16.2z"/><radialGradient id="path673_1_" cx="-544.535" cy="7.512" r="9.158" fx="-544.535" fy="7.512" gradientTransform="matrix(1 0 0 1 565.3223 -3.1191)" gradientUnits="userSpaceOnUse"><stop style="stop-color:#787878" id="stop714" offset="0"/><stop style="stop-color:#313131" id="stop715" offset="1"/></radialGradient><path id="path673" fill="url(#path673_1_)" d="M20.2,2.9c2.4,0.5,0.8,9.7,0,13.2l0.2,0.1c0.1-0.5,3-12.8-0.2-13.5l-0.1,0.2H20.2 z"/><linearGradient id="path680_1_" x1="-715.868" x2="-711.799" y1="30.922" y2="30.293" gradientTransform="matrix(-0.9994 -3.400000e-002 -3.400000e-002 0.9994 -693.5359 -23.403)" gradientUnits="userSpaceOnUse"><stop style="stop-color:#f8f" id="stop721" offset="0"/><stop style="stop-color:#f0f" id="stop722" offset="1"/></linearGradient><path id="path680" fill="url(#path680_1_)" d="M17,39.2c1.1-0.3,0.6-5.1,2.5-6.7c1.5-1.2,3.3-2.5,3.7-4.2 c0.9-2.6-1.9-4.7-3.5-4.8c-1.6-0.1-2.4,2.2-3,3.6c-0.9,2.6-1.8,6.7,0.1,6.6c1-0.1-0.6,5.7,0,5.5H17z"/><linearGradient id="path687_1_" x1="-783.052" x2="-776.937" y1="87.314" y2="86.368" gradientTransform="matrix(0.5742 0.8187 -0.8187 0.5742 527.671 614.717)" gradientUnits="userSpaceOnUse"><stop style="stop-color:#f0f" id="stop728" offset="0"/><stop style="stop-color:#a700ff" id="stop729" offset="1"/></linearGradient><path id="path687" fill="url(#path687_1_)" d="M1.6,30.8c-0.8-1.4,5-2.6,4.7-5.6c-0.1-2.2-0.4-4.6,0.8-5.8c2-2.1,6.9,0,8.8,1.9 c1.9,1.9,0.1,3.5-1,4.7c-2,2.1-5.6,4.6-7.3,2.6c-0.9-1.1-5.6,2.9-5.9,2.2H1.6z"/><radialGradient id="path694_1_" cx="-683.69" cy="13.065" r="6.938" fx="-683.69" fy="13.065" gradientTransform="matrix(-1.3608 -0.5505 -0.5505 1.3608 -904.041 -375.2953)" gradientUnits="userSpaceOnUse"><stop style="stop-color:#787878" id="stop735" offset="0"/><stop style="stop-color:#313131" id="stop736" offset="1"/></radialGradient><path id="path694" fill="url(#path694_1_)" d="M15.7,23.6c-1.5,3.9-2.3,7.2-1.8,7.4s2.3-2.6,3.9-6.5c1.5-3.9,2.3-7.1,1.8-7.4 C19,16.9,17.3,19.7,15.7,23.6z"/><radialGradient id="path701_1_" cx="-545.182" cy="5.565" r=".787" fx="-545.182" fy="5.565" gradientTransform="matrix(1 0 0 1 565.3223 -3.1191)" gradientUnits="userSpaceOnUse"><stop style="stop-color:#787878" id="stop742" offset="0"/><stop style="stop-color:#313131" id="stop743" offset="1"/></radialGradient><path id="path701" fill="url(#path701_1_)" d="M19.7,2.8c0,0.2,0.2,0.4,0.4,0.4c0.2,0,0.4-0.2,0.4-0.4c0-0.2-0.2-0.4-0.4-0.4 C19.9,2.4,19.7,2.6,19.7,2.8z"/><radialGradient id="path708_1_" cx="-534.685" cy="10.238" r=".787" fx="-534.685" fy="10.238" gradientTransform="matrix(1 0 0 1 565.3223 -3.1191)" gradientUnits="userSpaceOnUse"><stop style="stop-color:#787878" id="stop749" offset="0"/><stop style="stop-color:#313131" id="stop750" offset="1"/></radialGradient><path id="path708" fill="url(#path708_1_)" d="M30.2,7.5c0,0.2,0.2,0.4,0.4,0.4c0.2,0,0.4-0.2,0.4-0.4s-0.2-0.4-0.4-0.4 C30.4,7.1,30.2,7.3,30.2,7.5z"/><path id="path709" fill="#FFF" d="M15.3,3.9 c0,0-2.2-3-5-0.7C6.6,6.4,5.7,12,6.2,15.4C6.6,5.8,11.9,0.4,15.3,3.9z" enable-background="new" opacity=".55"/><path id="path710" fill="#FFF" d="M18.8,22.1 C23.4,16.2,30.2,9,32.2,11.9c-2.5-0.8-6.9,3-13.5,10.3L18.8,22.1z" enable-background="new" opacity=".55"/><path id="path711" fill="#FFF" d="M19.9,17.7 c-0.5-0.9-5.5,8.4-6,12.2c0.9-5.9,4.6-12.1,5.4-12.8C19.9,16.5,19.9,17.7,19.9,17.7z" enable-background="new" opacity=".55"/><path id="path712" fill="#FFF" d="M13.4,19.6 c-1.8-1.1-5.4-1.5-6.6,0c-1.2,1.5-0.4,4.6-0.4,6.2c0,1.6-4.3,3.5-4.5,4.2c1.5-1.1,4.4-2.1,4.8-3.4c0.4-1.3,0-4.8,0.9-6.4 C8.6,18.6,11.8,19.1,13.4,19.6z" enable-background="new" opacity=".55"/></g></g><g id="Layer_x5F_4"><rect id="path241" width="48" height="48" fill="none"/></g></svg>