<svg xmlns="http://www.w3.org/2000/svg" xmlns:xlink="http://www.w3.org/1999/xlink" id="svg602" width="48" height="48" enable-background="new 0 0 48 48" overflow="visible" viewBox="0 0 48 48" xml:space="preserve"><g id="Layer_x5F_1"><g id="g620"><path id="path155" d="M10.1,1.6 c-1.8,0-3.3,1.5-3.3,3.3v39.4c0,1.8,1.5,3.3,3.3,3.3h34.6c1.8,0,3.3-1.5,3.3-3.3V4.9c0-1.8-1.5-3.3-3.3-3.3H10.1z" enable-background="new" opacity=".2"/><linearGradient id="path162_1_" x1="-1668.92" x2="-1448.42" y1="127.302" y2="127.302" gradientTransform="matrix(0.1875 0 0 0.1875 317.8652 -0.4688)" gradientUnits="userSpaceOnUse"><stop style="stop-color:#a7abac" id="stop609" offset="0"/><stop style="stop-color:#85898a" id="stop610" offset="1"/></linearGradient><path id="path162" fill="url(#path162_1_)" d="M8.3,0.4C6.5,0.4,5,1.9,5,3.7v39.4c0,1.8,1.5,3.3,3.3,3.3H43 c1.8,0,3.3-1.5,3.3-3.3V3.7c0-1.8-1.5-3.3-3.3-3.3H8.3z"/><path id="path163" fill="#9CF" d="M5.9,43.1c0,1.3,1.1,2.4,2.4,2.4H43c1.3,0,2.4-1.1,2.4-2.4V3.7c0-1.3-1.1-2.4-2.4-2.4H8.3 C7,1.3,5.9,2.4,5.9,3.7V43.1z"/><linearGradient id="path170_1_" x1="-1604.223" x2="-1355.373" y1="81.559" y2="330.408" gradientTransform="matrix(0.1875 0 0 0.1875 317.8652 -0.4688)" gradientUnits="userSpaceOnUse"><stop style="stop-color:#fff" id="stop617" offset="0"/><stop style="stop-color:#9cf" id="stop618" offset="1"/></linearGradient><path id="path170" fill="url(#path170_1_)" d="M8.3,2.3C7.5,2.3,6.9,3,6.9,3.7v39.4c0,0.8,0.6,1.4,1.4,1.4H43 c0.8,0,1.4-0.6,1.4-1.4V3.7c0-0.8-0.6-1.4-1.4-1.4H8.3z"/><path id="path171" fill="#FFF" d="M32.5,19.1 c3.7-3.4,8.1-5.1,12.8-6V3.7c0-1.3-1.1-2.4-2.4-2.4H8.3C7,1.3,5.9,2.4,5.9,3.7v28.2C15.7,32.7,24.9,25.9,32.5,19.1z" enable-background="new" opacity=".4"/></g></g><g id="Layer_x5F_2"><g id="g625"><path id="path172" fill="#999" d="M3.9,5.7 c-1.7,0-3.1,1.1-3.1,2.5v31.1c0,1.4,1.4,2.5,3.1,2.5h37.8c1.7,0,3.1-1.1,3.1-2.5v-31c0-1.4-1.4-2.5-3.1-2.5L3.9,5.7L3.9,5.7z" enable-background="new" opacity=".3"/><linearGradient id="path179_1_" x1="-732.384" x2="-732.384" y1="186.395" y2="393.874" gradientTransform="matrix(0.1875 0 0 -0.1875 158.7217 78.0996)" gradientUnits="userSpaceOnUse"><stop style="stop-color:#6a5b97" id="stop628" offset="0"/><stop style="stop-color:#6d7bb0" id="stop629" offset="1"/></linearGradient><path id="path179" fill="url(#path179_1_)" d="M42.8,38.2c0,1.1-1.1,2-2.5,2H2.5c-1.4,0-2.5-0.9-2.5-2v-31c0-1.1,1.1-2,2.5-2 h37.8c1.4,0,2.5,0.9,2.5,2V38.2L42.8,38.2z"/><linearGradient id="path186_1_" x1="-841.181" x2="-624.002" y1="295.197" y2="295.197" gradientTransform="matrix(0.1875 0 0 -0.1875 158.7217 78.0996)" gradientUnits="userSpaceOnUse"><stop style="stop-color:#efedf5" id="stop635" offset="0"/><stop style="stop-color:#99acd2" id="stop636" offset="1"/></linearGradient><path id="path186" fill="url(#path186_1_)" d="M2.5,6C1.7,6,1,6.5,1,7.2v31.1c0,0.7,0.7,1.2,1.5,1.2h37.8c0.8,0,1.5-0.5,1.5-1.2 V7.2c0-0.7-0.7-1.2-1.5-1.2H2.5L2.5,6z"/><path id="path187" fill="#FFF" d="M3.1,25.4 c1.4,0.1,2.8,0.2,4.2,0.2c16.8,0,30.3-7.5,30.3-16.8c0-0.4,0-0.7-0.1-1.1c-7.7,0-33.4,0-34.5,0C3.1,8.2,3.1,17.4,3.1,25.4z" enable-background="new" opacity=".64"/></g></g><g id="Layer_x5F_3"><g id="g643"><linearGradient id="path556_1_" x1="-218.244" x2="-92.105" y1="294.902" y2="294.902" gradientTransform="matrix(0.2344 0 0 -0.2344 59.8879 91.7417)" gradientUnits="userSpaceOnUse"><stop style="stop-color:#fff" id="stop645" offset="0"/><stop style="stop-color:#949494" id="stop646" offset="1"/></linearGradient><path id="path556" fill="url(#path556_1_)" d="M37.4,19.9c-0.1-0.2-0.1-0.5-0.2-0.7c-0.1-0.2-0.1-0.5-0.2-0.7 C34.2,8.8,27.3,2.3,21.4,3.9C21.2,3.9,21,4,20.8,4.1c-0.6,0.1-1.3,0.3-2.3,0.6c-7.6,2-11.6,11.9-8.9,22 c2.7,10.1,11.1,16.6,18.7,14.6c0.8-0.2,1.5-0.4,2.1-0.6c0.2,0,0.5-0.1,0.7-0.1C37.1,38.9,39.8,29.8,37.4,19.9z"/><path id="path557" d="M23.8,11.4l-19,5.1 c-3.7,1-5.3,7-3.5,13.7c1.8,6.7,6.1,11.1,9.9,10.1l19.9-5.3l-6.4-23.8L23.8,11.4z" enable-background="new" opacity=".2"/><path id="path558" d="M21.7,3.7 c0,0-0.4,0.1-0.6,0.2c-0.1,0-2.3,0.6-2.3,0.6C12.4,6.2,8.4,13.1,8.4,21.1c0,2.1,0.3,4.3,0.9,6.5C12.1,38.2,21,45,29.1,42.9 c0.8-0.2,1.5-0.4,2.1-0.6c0.2,0,0.7-0.2,0.7-0.2c4.9-1.3,7.8-7.1,7.8-14.4c0-2.3-0.3-4.7-0.9-7.2c0,0-0.2-0.7-0.2-0.7L38.5,19 C35.5,8.7,28.1,2,21.7,3.7z" enable-background="new" opacity=".2"/><linearGradient id="path565_1_" x1="-190.343" x2="-190.343" y1="347.129" y2="222.306" gradientTransform="matrix(0.2344 0 0 -0.2344 59.8879 91.7417)" gradientUnits="userSpaceOnUse"><stop style="stop-color:#949494" id="stop654" offset="0"/><stop style="stop-color:#616161" id="stop655" offset="1"/></linearGradient><path id="path565" fill="url(#path565_1_)" d="M23.3,10.6l-19,5.1c-3.7,1-5.3,7-3.5,13.7c1.8,6.7,6.1,11.1,9.9,10.1l19.9-5.3 l-6.4-23.8L23.3,10.6z"/><linearGradient id="path572_1_" x1="-197.846" x2="-158.98" y1="294.088" y2="202.404" gradientTransform="matrix(0.2344 0 0 -0.2344 59.8879 91.7417)" gradientUnits="userSpaceOnUse"><stop style="stop-color:#dfdfdf" id="stop661" offset="0"/><stop style="stop-color:#828282" id="stop662" offset="1"/></linearGradient><path id="path572" fill="url(#path572_1_)" d="M4.5,16.6C1.3,17.5,0,23.1,1.6,29.2c1.6,6.1,5.5,10.3,8.7,9.4l19-5.1l-5.9-22 L4.5,16.6z"/><linearGradient id="path579_1_" x1="-188.651" x2="-188.651" y1="324.578" y2="248.835" gradientTransform="matrix(0.2344 0 0 -0.2344 59.8879 91.7417)" gradientUnits="userSpaceOnUse"><stop style="stop-color:#fff" id="stop668" offset="0"/><stop style="stop-color:#b2b2b2" id="stop669" offset="1"/></linearGradient><path id="path579" fill="url(#path579_1_)" d="M5.4,17.2C2.3,18,1.1,23.5,2.6,29.3c1.6,5.9,5.3,9.9,8.4,9.1l18.4-4.9l-5.7-21.2 L5.4,17.2z"/><path id="path580" fill="#999" d="M10.6,37.8c-2.3,0.6-4.8-0.8-6.8-3.5c1.9,3.1,4.4,4.8,6.5,4.2l19-5.1l-0.2-0.7L10.6,37.8z"/><linearGradient id="path587_1_" x1="-155.158" x2="-155.158" y1="379.804" y2="210.014" gradientTransform="matrix(0.2344 0 0 -0.2344 59.8879 91.7417)" gradientUnits="userSpaceOnUse"><stop style="stop-color:#949494" id="stop676" offset="0"/><stop style="stop-color:#616161" id="stop677" offset="1"/></linearGradient><path id="path587" fill="url(#path587_1_)" d="M21.1,3c0,0-0.4,0.1-0.6,0.2c-0.1,0-2.3,0.6-2.3,0.6C11.8,5.5,7.8,12.3,7.8,20.4 c0,2.1,0.3,4.3,0.9,6.5c2.8,10.6,11.8,17.4,19.9,15.2c0.8-0.2,1.5-0.4,2.1-0.6c0.2,0,0.7-0.2,0.7-0.2c4.9-1.3,7.8-7.1,7.8-14.4 c0-2.3-0.3-4.7-0.9-7.2c0,0-0.2-0.7-0.2-0.7l-0.2-0.8C34.9,8,27.5,1.3,21.1,3z"/><linearGradient id="path594_1_" x1="-103.051" x2="-103.051" y1="366.925" y2="205.471" gradientTransform="matrix(0.2264 -6.065625e-002 -6.065625e-002 -0.2264 64.1085 81.4768)" gradientUnits="userSpaceOnUse"><stop style="stop-color:#dfdfdf" id="stop683" offset="0"/><stop style="stop-color:#ccc" id="stop684" offset="1"/></linearGradient><path id="path594" fill="url(#path594_1_)" d="M9.6,26.6c2.7,10.1,11.1,16.6,18.7,14.6c6.1-1.6,4.3-2,5.9-3.8 c3.6-4.2,4.9-11.1,3-18.1c-2.1-8-7.8-13.7-13.8-14.8c-1.6-0.3,1.6-1.6-4.9,0.2C10.9,6.7,6.9,16.6,9.6,26.6z"/><linearGradient id="path601_1_" x1="-156.356" x2="-178.93" y1="239.06" y2="216.487" gradientTransform="matrix(0.2344 0 0 -0.2344 59.8879 91.7417)" gradientUnits="userSpaceOnUse"><stop style="stop-color:#b2b2b2" id="stop690" offset="0"/><stop style="stop-color:#828282" id="stop691" offset="1"/></linearGradient><path id="path601" fill="url(#path601_1_)" d="M31.4,39.7c0,0-0.6,0.1-0.7,0.2c-0.6,0.2-1.3,0.4-2.1,0.6 c-5.8,1.6-12.1-1.5-16.2-7.3c3.8,6.2,10.1,9.6,15.9,8c4-1.1,4.6-1.6,5-2.3C32.7,39.2,32.1,39.5,31.4,39.7z"/><linearGradient id="path608_1_" x1="-138.931" x2="-41.925" y1="286.193" y2="286.193" gradientTransform="matrix(0.2264 -6.065625e-002 -6.065625e-002 -0.2264 64.1085 81.4768)" gradientUnits="userSpaceOnUse"><stop style="stop-color:#fff" id="stop697" offset="0"/><stop style="stop-color:#949494" id="stop698" offset="1"/></linearGradient><path id="path608" fill="url(#path608_1_)" d="M15.3,25.1c2.7,10.1,9.8,17,15.9,15.3c6.1-1.6,8.8-11.1,6.1-21.2 c-2.7-10.1-9.8-17-15.9-15.3C15.3,5.5,12.6,15,15.3,25.1z"/><path id="path609" fill="#FFF" d="M21.4,4.8c6.1-1.6,13.2,5.2,15.9,15.3c0.7,2.5,1,4.9,1,7.2c0-2.6-0.3-5.4-1-8.2 c-2.7-10.1-9.8-17-15.9-15.3c-4.6,1.2-7.2,6.9-7.1,14C14.4,11.3,17,6,21.4,4.8z"/><linearGradient id="path619_1_" x1="-136.933" x2="-48.567" y1="286.197" y2="286.197" gradientTransform="matrix(0.2264 -6.065625e-002 -6.065625e-002 -0.2264 64.1085 81.4768)" gradientUnits="userSpaceOnUse"><stop style="stop-color:#ccc" id="stop705" offset="0"/><stop style="stop-color:#828282" id="stop706" offset=".848"/><stop style="stop-color:#616161" id="stop707" offset="1"/></linearGradient><path id="path619" fill="url(#path619_1_)" d="M15.7,25c2.5,9.4,9,15.8,14.6,14.3c5.5-1.5,8-10.3,5.4-19.7 c-2.5-9.4-9-15.8-14.6-14.3C15.7,6.8,13.2,15.6,15.7,25z"/><linearGradient id="path630_1_" x1="-68.503" x2="-115.008" y1="286.192" y2="286.192" gradientTransform="matrix(0.2264 -6.065625e-002 -6.065625e-002 -0.2264 64.1085 81.4768)" gradientUnits="userSpaceOnUse"><stop style="stop-color:#ccc" id="stop715" offset="0"/><stop style="stop-color:#c8c8c8" id="stop716" offset=".224"/><stop style="stop-color:#bbb" id="stop717" offset=".463"/><stop style="stop-color:#a6a6a6" id="stop718" offset=".707"/><stop style="stop-color:#888" id="stop719" offset=".955"/><stop style="stop-color:#828282" id="stop720" offset="1"/></linearGradient><path id="path630" fill="url(#path630_1_)" d="M20.7,23.7c1.3,4.8,4.7,8.1,7.6,7.4c2.9-0.8,4.2-5.3,2.9-10.2 c-1.3-4.8-4.7-8.1-7.6-7.4C20.7,14.3,19.4,18.8,20.7,23.7z"/><linearGradient id="path637_1_" x1="-68.502" x2="-111.686" y1="286.196" y2="286.196" gradientTransform="matrix(0.2264 -6.065625e-002 -6.065625e-002 -0.2264 64.1085 81.4768)" gradientUnits="userSpaceOnUse"><stop style="stop-color:#fff" id="stop734" offset="0"/><stop style="stop-color:#dadada" id="stop735" offset="1"/></linearGradient><path id="path637" fill="url(#path637_1_)" d="M21.5,23.5c1.2,4.5,4.4,7.6,7.1,6.8s3.9-5,2.7-9.4c-1.2-4.5-4.4-7.5-7.1-6.8 C21.5,14.7,20.3,19,21.5,23.5z"/><radialGradient id="path644_1_" cx="-62.525" cy="300.481" r="56.85" fx="-62.525" fy="300.481" gradientTransform="matrix(0.2264 -6.065625e-002 -6.065625e-002 -0.2264 64.1085 81.4768)" gradientUnits="userSpaceOnUse"><stop style="stop-color:#fff" id="stop741" offset="0"/><stop style="stop-color:#b2b2b2" id="stop742" offset="1"/></radialGradient><path id="path644" fill="url(#path644_1_)" d="M22.8,23.1c1,3.9,3.8,6.5,6.1,5.9c2.3-0.6,3.4-4.3,2.3-8.1 c-1-3.9-3.8-6.5-6.1-5.9C22.8,15.6,21.8,19.2,22.8,23.1z"/></g><g id="g173"><path id="path174" fill="#9CBCDA" d="M31.4,6.3 c0,0,0,19.7,0,23.6c-1.8-0.7-3.9-1-6-1c-6.4,0-11.3,3-11.3,6.8s5,6.8,11.3,6.8s11.3-3,11.3-6.8c0-0.4-0.1-0.8-0.2-1.2 c0-0.3,0-16.5,0-20.5c0.9,0.7,2,1.4,3.4,1.6c2.4,0.4,4.5-0.4,6.3-1.1l0.8-0.3L46,11.4c-1.6,0.5-2.8-0.5-4.7-2.1 c-1.4-1.2-2.9-2.5-4.9-2.9c0,0,0-0.1,0-0.1s-0.7,0-1.1,0c-0.1,0-0.1,0-0.2,0c0,0-0.7,0-0.7,0l-1.7,0H31.4z" enable-background="new" opacity=".5"/><linearGradient id="path181_1_" x1="404.75" x2="500.751" y1="-264.904" y2="-264.904" gradientTransform="matrix(0.1875 0 0 -0.1875 -51.874 -26.4004)" gradientUnits="userSpaceOnUse"><stop style="stop-color:#9cf" id="stop750" offset="0"/><stop style="stop-color:#c7e3ef" id="stop751" offset="1"/></linearGradient><path id="path181" fill="url(#path181_1_)" d="M30.2,5.1c0,0,0,19.7,0,23.6c-1.8-0.7-3.9-1-6-1c-6.4,0-11.3,3-11.3,6.8 s5,6.8,11.3,6.8s11.3-3,11.3-6.8c0-0.4-0.1-0.8-0.2-1.2c0-0.3,0-16.5,0-20.5c0.9,0.7,2,1.4,3.4,1.6c2.4,0.4,4.5-0.4,6.3-1.1 l0.8-0.3l-0.9-2.8c-1.6,0.5-2.8-0.5-4.7-2.1c-1.4-1.2-2.9-2.5-4.9-2.9c0,0,0-0.1,0-0.1s-0.7,0-1.1,0c-0.1,0-0.1,0-0.2,0 c0,0-0.7,0-0.7,0l-1.7,0H30.2z"/><linearGradient id="path197_1_" x1="435.808" x2="435.808" y1="-166.141" y2="-220.643" gradientTransform="matrix(0.1875 0 0 -0.1875 -51.874 -26.4004)" gradientUnits="userSpaceOnUse"><stop style="stop-color:#06c" id="stop757" offset="0"/><stop style="stop-color:#0d73d9" id="stop758" offset=".141"/><stop style="stop-color:#28e" id="stop759" offset=".438"/><stop style="stop-color:#2f95fb" id="stop760" offset=".727"/><stop style="stop-color:#39f" id="stop761" offset="1"/></linearGradient><path id="path197" fill="url(#path197_1_)" d="M34,6.6l-0.2,0.1V6.6h-0.5v0h-1.7v24.5c-1.8-1.2-4.5-1.9-7.5-1.9 c-5.4,0-9.8,2.4-9.8,5.3s4.4,5.3,9.8,5.3c5.4,0,9.8-2.4,9.8-5.3c0-0.4-0.1-0.7-0.2-1V10.3c1.9,0.5,3.1,2.4,5.1,2.7 c2.3,0.4,4.3-0.6,6.3-1.3C40.6,13.2,38.5,6.5,34,6.6z"/><linearGradient id="path222_1_" x1="182.413" x2="186.449" y1="588.371" y2="612.584" gradientTransform="matrix(0.1875 0 0 0.1875 -15.4761 -79.3979)" gradientUnits="userSpaceOnUse"><stop style="stop-color:#fff" id="stop773" offset="0"/><stop style="stop-color:#f9f9f9" id="stop774" offset=".015"/><stop style="stop-color:#dcdcdc" id="stop775" offset=".111"/><stop style="stop-color:#c3c3c3" id="stop776" offset=".217"/><stop style="stop-color:#b0b0b0" id="stop777" offset=".336"/><stop style="stop-color:#a3a3a3" id="stop778" offset=".475"/><stop style="stop-color:#9b9b9b" id="stop779" offset=".653"/><stop style="stop-color:#999" id="stop780" offset="1"/></linearGradient><path id="path222" fill="url(#path222_1_)" d="M23.1,29.7c-4.8,0.3-8.4,2.4-8.4,4.8c0,1,0.6,1.8,1.5,2.6C16.6,34.1,19.2,31.4,23.1,29.7z" enable-background="new" opacity=".5"/><linearGradient id="path247_1_" x1="246.827" x2="227.076" y1="635.101" y2="615.349" gradientTransform="matrix(0.1875 0 0 0.1875 -15.4761 -79.3979)" gradientUnits="userSpaceOnUse"><stop style="stop-color:#fff" id="stop798" offset="0"/><stop style="stop-color:#f9f9f9" id="stop799" offset=".015"/><stop style="stop-color:#dcdcdc" id="stop800" offset=".111"/><stop style="stop-color:#c3c3c3" id="stop801" offset=".217"/><stop style="stop-color:#b0b0b0" id="stop802" offset=".336"/><stop style="stop-color:#a3a3a3" id="stop803" offset=".475"/><stop style="stop-color:#9b9b9b" id="stop804" offset=".653"/><stop style="stop-color:#999" id="stop805" offset="1"/></linearGradient><path id="path247" fill="url(#path247_1_)" d="M31.4,32.7c0.2,0.4,0.3,0.7,0.3,1.1c0,2.5-4.3,4.5-9.7,4.5c-0.1,0-0.1,0-0.2,0c1.1,0.3,2.3,0.5,3.6,0.5c4.2,0,7.5-1.7,7.5-3.8 C33,34.2,32.4,33.4,31.4,32.7z" enable-background="new" opacity=".5"/></g></g><g id="Layer_x5F_4"><rect id="path241" width="48" height="48" fill="none"/></g></svg>