<svg xmlns="http://www.w3.org/2000/svg" xmlns:xlink="http://www.w3.org/1999/xlink" id="svg602" width="48" height="48" enable-background="new 0 0 48 48" overflow="visible" viewBox="0 0 48 48" xml:space="preserve"><g id="Layer_3"><rect id="rect605" width="48" height="48" fill="none"/><path id="path606" d="M7.9,1.2 C6,1.2,4.5,2.7,4.5,4.6v40C4.5,46.5,6,48,7.9,48h35.2c1.9,0,3.4-1.5,3.4-3.4v-40c0-1.9-1.5-3.4-3.4-3.4H7.9z" enable-background="new" opacity=".2"/><linearGradient id="path613_1_" x1="-461.217" x2="-419.217" y1="132.4" y2="132.4" gradientTransform="matrix(1 0 0 1 463.917 -109)" gradientUnits="userSpaceOnUse"><stop style="stop-color:#a7abac" id="stop609" offset="0"/><stop style="stop-color:#85898a" id="stop610" offset="1"/></linearGradient><path id="path613" fill="url(#path613_1_)" d="M6.1,0C4.2,0,2.7,1.5,2.7,3.4v40c0,1.9,1.5,3.4,3.4,3.4h35.2 c1.9,0,3.4-1.5,3.4-3.4v-40c0-1.9-1.5-3.4-3.4-3.4H6.1z"/><path id="path614" fill="#9CF" d="M3.7,43.4c0,1.3,1.1,2.4,2.4,2.4h35.2c1.3,0,2.4-1.1,2.4-2.4v-40c0-1.3-1.1-2.4-2.4-2.4H6.1 C4.8,1,3.7,2.1,3.7,3.4V43.4z"/><linearGradient id="path621_1_" x1="-448.924" x2="-401.525" y1="123.692" y2="171.092" gradientTransform="matrix(1 0 0 1 463.917 -109)" gradientUnits="userSpaceOnUse"><stop style="stop-color:#fff" id="stop617" offset="0"/><stop style="stop-color:#9cf" id="stop618" offset="1"/></linearGradient><path id="path621" fill="url(#path621_1_)" d="M6.1,2C5.3,2,4.7,2.6,4.7,3.4v40c0,0.8,0.6,1.4,1.4,1.4h35.2 c0.8,0,1.4-0.6,1.4-1.4v-40c0-0.8-0.6-1.4-1.4-1.4H6.1z"/><path id="path622" fill="#FFF" d="M30.7,19 c3.7-3.5,8.2-5.2,13-6.1V3.4c0-1.3-1.1-2.4-2.4-2.4H6.1C4.8,1,3.7,2.1,3.7,3.4v28.7C13.6,32.8,23,25.9,30.7,19z" enable-background="new" opacity=".4"/></g></svg>