<svg xmlns="http://www.w3.org/2000/svg" xmlns:xlink="http://www.w3.org/1999/xlink" id="svg602" width="48" height="48" enable-background="new 0 0 48 48" overflow="visible" viewBox="0 0 48 48" xml:space="preserve"><g id="Layer_x5F_1"><g id="g620"><path id="path155" d="M10.1,1.6 c-1.8,0-3.3,1.5-3.3,3.3v39.4c0,1.8,1.5,3.3,3.3,3.3h34.6c1.8,0,3.3-1.5,3.3-3.3V4.9c0-1.8-1.5-3.3-3.3-3.3H10.1z" enable-background="new" opacity=".2"/><linearGradient id="path162_1_" x1="-1385.998" x2="-1165.498" y1="291.729" y2="291.729" gradientTransform="matrix(0.1875 0 0 -0.1875 264.8174 78.0996)" gradientUnits="userSpaceOnUse"><stop style="stop-color:#a7abac" id="stop609" offset="0"/><stop style="stop-color:#85898a" id="stop610" offset="1"/></linearGradient><path id="path162" fill="url(#path162_1_)" d="M8.3,0.4C6.5,0.4,5,1.9,5,3.7v39.4c0,1.8,1.5,3.3,3.3,3.3H43 c1.8,0,3.3-1.5,3.3-3.3V3.7c0-1.8-1.5-3.3-3.3-3.3H8.3z"/><path id="path163" fill="#9CF" d="M5.9,43.1c0,1.3,1.1,2.4,2.4,2.4H43c1.3,0,2.4-1.1,2.4-2.4V3.7c0-1.3-1.1-2.4-2.4-2.4H8.3 C7,1.3,5.9,2.4,5.9,3.7V43.1z"/><linearGradient id="path170_1_" x1="-1321.301" x2="-1072.452" y1="337.473" y2="88.624" gradientTransform="matrix(0.1875 0 0 -0.1875 264.8174 78.0996)" gradientUnits="userSpaceOnUse"><stop style="stop-color:#fff" id="stop617" offset="0"/><stop style="stop-color:#9cf" id="stop618" offset="1"/></linearGradient><path id="path170" fill="url(#path170_1_)" d="M8.3,2.3C7.5,2.3,6.9,3,6.9,3.7v39.4c0,0.8,0.6,1.4,1.4,1.4H43 c0.8,0,1.4-0.6,1.4-1.4V3.7c0-0.8-0.6-1.4-1.4-1.4H8.3z"/><path id="path171" fill="#FFF" d="M32.5,19.1 c3.7-3.4,8.1-5.1,12.8-6V3.7c0-1.3-1.1-2.4-2.4-2.4H8.3C7,1.3,5.9,2.4,5.9,3.7v28.2C15.7,32.7,24.9,25.9,32.5,19.1z" enable-background="new" opacity=".4"/></g></g><g id="Layer_x5F_2"><g id="g625"><path id="path172" fill="#999" d="M3.9,5.7 c-1.7,0-3.1,1.1-3.1,2.5v31.1c0,1.4,1.4,2.5,3.1,2.5h37.8c1.7,0,3.1-1.1,3.1-2.5v-31c0-1.4-1.4-2.5-3.1-2.5L3.9,5.7L3.9,5.7z" enable-background="new" opacity=".3"/><linearGradient id="path179_2_" x1="-449.461" x2="-449.461" y1="232.636" y2="25.157" gradientTransform="matrix(0.1875 0 0 0.1875 105.6738 -0.4688)" gradientUnits="userSpaceOnUse"><stop style="stop-color:#6a5b97" id="stop628" offset="0"/><stop style="stop-color:#6d7bb0" id="stop629" offset="1"/></linearGradient><path id="path179" fill="url(#path179_2_)" d="M42.8,38.2c0,1.1-1.1,2-2.5,2H2.5c-1.4,0-2.5-0.9-2.5-2v-31c0-1.1,1.1-2,2.5-2 h37.8c1.4,0,2.5,0.9,2.5,2V38.2L42.8,38.2z"/><linearGradient id="path186_1_" x1="-558.259" x2="-341.08" y1="123.834" y2="123.834" gradientTransform="matrix(0.1875 0 0 0.1875 105.6738 -0.4688)" gradientUnits="userSpaceOnUse"><stop style="stop-color:#efedf5" id="stop635" offset="0"/><stop style="stop-color:#99acd2" id="stop636" offset="1"/></linearGradient><path id="path186" fill="url(#path186_1_)" d="M2.5,6C1.7,6,1,6.5,1,7.2v31.1c0,0.7,0.7,1.2,1.5,1.2h37.8c0.8,0,1.5-0.5,1.5-1.2 V7.2c0-0.7-0.7-1.2-1.5-1.2H2.5L2.5,6z"/><path id="path187" fill="#FFF" d="M3.1,25.4 c1.4,0.1,2.8,0.2,4.2,0.2c16.8,0,30.3-7.5,30.3-16.8c0-0.4,0-0.7-0.1-1.1c-7.7,0-33.4,0-34.5,0C3.1,8.2,3.1,17.4,3.1,25.4z" enable-background="new" opacity=".64"/></g></g><g id="Layer_x5F_3"><g id="g643"><path id="path157" d="M34.6,39.9 c0,0.4-0.3,0.6-0.6,0.6H1.7c-0.3,0-0.6-0.3-0.6-0.6v-32c0-0.4,0.3-0.6,0.6-0.6H34c0.3,0,0.6,0.3,0.6,0.6V39.9z" enable-background="new" opacity=".2"/><linearGradient id="path164_1_" x1="-847.483" x2="-668.92" y1="295.821" y2="295.821" gradientTransform="matrix(0.1875 0 0 -0.1875 158.9033 78.0996)" gradientUnits="userSpaceOnUse"><stop style="stop-color:#999" id="stop646" offset="0"/><stop style="stop-color:#666" id="stop647" offset="1"/></linearGradient><path id="path164" fill="url(#path164_1_)" d="M33.5,38.6c0,0.4-0.3,0.6-0.6,0.6H0.6C0.3,39.3,0,39,0,38.6v-32 C0,6.3,0.3,6,0.6,6h32.3c0.3,0,0.6,0.3,0.6,0.6V38.6z"/><linearGradient id="path171_2_" x1="-844.743" x2="-671.275" y1="377.687" y2="213.976" gradientTransform="matrix(0.1875 0 0 -0.1875 158.9033 78.0996)" gradientUnits="userSpaceOnUse"><stop style="stop-color:#fff" id="stop653" offset="0"/><stop style="stop-color:#d4ccbf" id="stop654" offset="1"/></linearGradient><path id="path171_1_" fill="url(#path171_2_)" d="M0.7,6.8c0,0.3,0,31.3,0,31.6c0.3,0,31.8,0,32,0c0-0.3,0-31.3,0-31.6 C32.5,6.8,1,6.8,0.7,6.8z"/><linearGradient id="path178_1_" x1="-739.304" x2="-852.397" y1="278.201" y2="388.588" gradientTransform="matrix(0.1875 0 0 -0.1875 158.9033 78.0996)" gradientUnits="userSpaceOnUse"><stop style="stop-color:#fff" id="stop660" offset="0"/><stop style="stop-color:#666" id="stop661" offset="1"/></linearGradient><path id="path178" fill="url(#path178_1_)" d="M29.2,33c0,0.4-0.3,0.6-0.6,0.6H4c-0.3,0-0.6-0.3-0.6-0.6V11 c0-0.4,0.3-0.6,0.6-0.6h24.6c0.3,0,0.6,0.3,0.6,0.6V33z"/><path id="path179_1_" fill="#FFF" d="M30.2,34.2c0,0.4-0.3,0.6-0.6,0.6L4.3,34.4C4,34.4,4,34,4,33.6l0.4-21.5 c0-0.4,0.3-0.6,0.6-0.6L28.4,11c0.3,0,1.2,0.1,1.2,0.4L30.2,34.2z"/><path id="path180" fill="#036" d="M29.6,33.5c0,0.4-0.3,0.6-0.6,0.6H4.4c-0.3,0-0.6-0.3-0.6-0.6v-22c0-0.4,0.3-0.6,0.6-0.6 H29c0.3,0,0.6,0.3,0.6,0.6V33.5z"/><path id="path181" fill="#39F" d="M4.5,11.7c0,0.3,0,21.3,0,21.6c0.3,0,24,0,24.3,0c0-0.3,0-21.3,0-21.6 C28.6,11.7,4.8,11.7,4.5,11.7z"/><linearGradient id="path188_1_" x1="-810.123" x2="-730.333" y1="369.019" y2="283.946" gradientTransform="matrix(0.1875 0 0 -0.1875 158.9033 78.0996)" gradientUnits="userSpaceOnUse"><stop style="stop-color:#fff" id="stop670" offset="0"/><stop style="stop-color:#39f" id="stop671" offset="1"/></linearGradient><path id="path188" fill="url(#path188_1_)" d="M23.8,19.8c2.4-1.9,3.7-4.4,5.1-7c0-0.7,0-1.1,0-1.2c-0.3,0-24,0-24.3,0 c0,0.2,0,8.9,0,15.1c1.5-1.4,3.3-2.5,5.2-3.2C14.4,22,19.4,23.3,23.8,19.8z"/><g id="g189"><path id="path190" d="M6.9,31.5c-0.6-0.1-1.1-0.2-1.5-0.6l0.4-1.2c0.5,0.4,1,0.6,1.4,0.6c0.7,0,1.1-0.3,1.1-0.9 c0-0.3-0.1-0.6-0.3-0.8c-0.2-0.2-0.6-0.5-1.1-0.8c-0.5-0.3-0.9-0.6-1.1-0.7c-0.2-0.2-0.4-0.4-0.4-0.7s-0.1-0.6-0.1-0.9 c0-0.5,0.1-0.9,0.4-1.3s0.6-0.6,1.1-0.7v-1h1.1v0.9c0.6,0.1,1,0.2,1.3,0.5l-0.4,1.2c-0.4-0.4-0.9-0.5-1.4-0.5 c-0.3,0-0.5,0.1-0.6,0.3c-0.1,0.1-0.2,0.4-0.2,0.6c0,0.4,0.4,0.9,1.3,1.4c0.4,0.3,0.8,0.5,1,0.7c0.2,0.2,0.4,0.5,0.5,0.8 c0.1,0.3,0.1,0.6,0.1,0.9c0,0.5-0.1,0.9-0.4,1.3c-0.3,0.4-0.7,0.6-1.2,0.8v1.2h-1V31.5L6.9,31.5z"/><polygon id="path191" points="11.7 30.5 11.7 29.3 14.2 28 11.7 26.7 11.7 25.4 15.5 27.5 15.5 28.4"/></g><g id="g192"><path id="path193" fill="#FFF" d="M6.6,31.2C6,31.1,5.5,31,5.1,30.6l0.4-1.2C6,29.8,6.6,30,7,30c0.7,0,1.1-0.3,1.1-0.9 c0-0.3-0.1-0.6-0.3-0.8s-0.6-0.5-1.1-0.8c-0.5-0.3-0.9-0.6-1.1-0.7c-0.2-0.2-0.4-0.4-0.4-0.7S5,25.5,5,25.2 c0-0.5,0.1-0.9,0.4-1.3s0.6-0.6,1.1-0.7v-1h1.1v0.9c0.6,0.1,1,0.2,1.3,0.5l-0.3,1.2c-0.4-0.4-0.9-0.5-1.4-0.5 c-0.3,0-0.5,0.1-0.6,0.3c-0.1,0.2-0.2,0.4-0.2,0.6c0,0.4,0.4,0.9,1.3,1.4c0.4,0.3,0.8,0.5,1,0.7c0.2,0.2,0.4,0.5,0.5,0.8 c0.1,0.3,0.1,0.6,0.1,0.9c0,0.5-0.1,0.9-0.4,1.3S8.2,31,7.7,31.1v1.2H6.6V31.2L6.6,31.2z"/><polygon id="path194" fill="#FFF" points="11.4 30.1 11.4 28.9 13.9 27.6 11.4 26.3 11.4 25.1 15.2 27.2 15.2 28"/></g></g></g><g id="Layer_x5F_4"><rect id="path241" width="48" height="48" fill="none"/></g></svg>