<svg xmlns="http://www.w3.org/2000/svg" xmlns:xlink="http://www.w3.org/1999/xlink" id="svg602" width="48" height="48" enable-background="new 0 0 48 48" overflow="visible" viewBox="0 0 48 48" xml:space="preserve"><g id="Layer_x5F_1"><g id="g620"><path id="path155" d="M10.1,1.6 c-1.8,0-3.3,1.5-3.3,3.3v39.4c0,1.8,1.5,3.3,3.3,3.3h34.6c1.8,0,3.3-1.5,3.3-3.3V4.9c0-1.8-1.5-3.3-3.3-3.3H10.1z" enable-background="new" opacity=".2"/><linearGradient id="path162_1_" x1="-1385.998" x2="-1165.498" y1="291.729" y2="291.729" gradientTransform="matrix(0.1875 0 0 -0.1875 264.8174 78.0996)" gradientUnits="userSpaceOnUse"><stop style="stop-color:#a7abac" id="stop609" offset="0"/><stop style="stop-color:#85898a" id="stop610" offset="1"/></linearGradient><path id="path162" fill="url(#path162_1_)" d="M8.3,0.4C6.5,0.4,5,1.9,5,3.7v39.4c0,1.8,1.5,3.3,3.3,3.3H43 c1.8,0,3.3-1.5,3.3-3.3V3.7c0-1.8-1.5-3.3-3.3-3.3H8.3z"/><path id="path163" fill="#9CF" d="M5.9,43.1c0,1.3,1.1,2.4,2.4,2.4H43c1.3,0,2.4-1.1,2.4-2.4V3.7c0-1.3-1.1-2.4-2.4-2.4H8.3 C7,1.3,5.9,2.4,5.9,3.7V43.1z"/><linearGradient id="path170_1_" x1="-1321.301" x2="-1072.452" y1="337.473" y2="88.624" gradientTransform="matrix(0.1875 0 0 -0.1875 264.8174 78.0996)" gradientUnits="userSpaceOnUse"><stop style="stop-color:#fff" id="stop617" offset="0"/><stop style="stop-color:#9cf" id="stop618" offset="1"/></linearGradient><path id="path170" fill="url(#path170_1_)" d="M8.3,2.3C7.5,2.3,6.9,3,6.9,3.7v39.4c0,0.8,0.6,1.4,1.4,1.4H43 c0.8,0,1.4-0.6,1.4-1.4V3.7c0-0.8-0.6-1.4-1.4-1.4H8.3z"/><path id="path171" fill="#FFF" d="M32.5,19.1 c3.7-3.4,8.1-5.1,12.8-6V3.7c0-1.3-1.1-2.4-2.4-2.4H8.3C7,1.3,5.9,2.4,5.9,3.7v28.2C15.7,32.7,24.9,25.9,32.5,19.1z" enable-background="new" opacity=".4"/></g></g><g id="Layer_x5F_2"><g id="g625"><path id="path172" fill="#999" d="M3.9,5.7 c-1.7,0-3.1,1.1-3.1,2.5v31.1c0,1.4,1.4,2.5,3.1,2.5h37.8c1.7,0,3.1-1.1,3.1-2.5v-31c0-1.4-1.4-2.5-3.1-2.5L3.9,5.7L3.9,5.7z" enable-background="new" opacity=".3"/><linearGradient id="path179_1_" x1="-449.461" x2="-449.461" y1="232.636" y2="25.157" gradientTransform="matrix(0.1875 0 0 0.1875 105.6738 -0.4688)" gradientUnits="userSpaceOnUse"><stop style="stop-color:#6a5b97" id="stop628" offset="0"/><stop style="stop-color:#6d7bb0" id="stop629" offset="1"/></linearGradient><path id="path179" fill="url(#path179_1_)" d="M42.8,38.2c0,1.1-1.1,2-2.5,2H2.5c-1.4,0-2.5-0.9-2.5-2v-31c0-1.1,1.1-2,2.5-2 h37.8c1.4,0,2.5,0.9,2.5,2V38.2L42.8,38.2z"/><linearGradient id="path186_1_" x1="-558.259" x2="-341.08" y1="123.834" y2="123.834" gradientTransform="matrix(0.1875 0 0 0.1875 105.6738 -0.4688)" gradientUnits="userSpaceOnUse"><stop style="stop-color:#efedf5" id="stop635" offset="0"/><stop style="stop-color:#99acd2" id="stop636" offset="1"/></linearGradient><path id="path186" fill="url(#path186_1_)" d="M2.5,6C1.7,6,1,6.5,1,7.2v31.1c0,0.7,0.7,1.2,1.5,1.2h37.8c0.8,0,1.5-0.5,1.5-1.2 V7.2c0-0.7-0.7-1.2-1.5-1.2H2.5L2.5,6z"/><path id="path187" fill="#FFF" d="M3.1,25.4 c1.4,0.1,2.8,0.2,4.2,0.2c16.8,0,30.3-7.5,30.3-16.8c0-0.4,0-0.7-0.1-1.1c-7.7,0-33.4,0-34.5,0C3.1,8.2,3.1,17.4,3.1,25.4z" enable-background="new" opacity=".64"/></g></g><g id="Layer_x5F_3"><g id="g643"><path id="path644" d="M0,24.3l0,0.4c0,2.9,0,9,4,13.1c2.6,2.6,6.5,4,11.6,4c5.4,0,9.5-1.7,12.2-5.1c2.3-0.4,10.4-2.1,10.4-8.2 c0-0.8-0.2-1.7-0.4-2.5l-0.1-0.3l-0.2-0.2c-1-1-4.3-1.6-6.2-1.8c-0.6-4.7-7.2-8.3-15.5-8.3C6.9,15.2,0,19.2,0,24.3L0,24.3z M30.6,30.2c0.2,0,0.4,0,0.7,0c-0.2,0.1-0.5,0.2-0.7,0.3C30.6,30.5,30.6,30.3,30.6,30.2L30.6,30.2z"/><linearGradient id="XMLID_1_" x1="-158.404" x2="-175.849" y1="289.272" y2="300.575" gradientTransform="matrix(1 0 0 -1 183.2031 323.2891)" gradientUnits="userSpaceOnUse"><stop style="stop-color:#959595" id="stop646" offset="0"/><stop style="stop-color:#fff" id="stop647" offset="1"/></linearGradient><path id="path651" fill="url(#XMLID_1_)" d="M29.4,24c0,4.2-0.2,16-14.1,16C0.7,40.1,1.2,28.3,1.2,24c0-4.2,6.3-7.6,14.1-7.6 S29.4,19.8,29.4,24z"/><linearGradient id="XMLID_2_" x1="-179.841" x2="-156.227" y1="299.248" y2="299.248" gradientTransform="matrix(1 0 0 -1 183.2031 323.2891)" gradientUnits="userSpaceOnUse"><stop style="stop-color:#959595" id="stop653" offset="0"/><stop style="stop-color:#fff" id="stop654" offset="1"/></linearGradient><ellipse id="ellipse658" cx="15.2" cy="24" fill="url(#XMLID_2_)" rx="11.8" ry="6.4"/><radialGradient id="XMLID_3_" cx="-171.462" cy="302.444" r="7.306" fx="-171.462" fy="302.444" gradientTransform="matrix(1 0 0 -1 183.2031 323.2891)" gradientUnits="userSpaceOnUse"><stop style="stop-color:#787816" id="stop660" offset="0"/><stop style="stop-color:#000" id="stop661" offset="1"/></radialGradient><ellipse id="ellipse665" cx="15.2" cy="25.3" fill="url(#XMLID_3_)" rx="11.1" ry="4.9"/><linearGradient id="XMLID_4_" x1="-155.734" x2="-148.066" y1="289.513" y2="298.715" gradientTransform="matrix(1 0 0 -1 183.2031 323.2891)" gradientUnits="userSpaceOnUse"><stop style="stop-color:#959595" id="stop667" offset="0"/><stop style="stop-color:#fff" id="stop668" offset="1"/></linearGradient><path id="path672" fill="url(#XMLID_4_)" d="M29.4,24.6c0,0,5.7,0.7,6.6,1.6c2.6,7.5-9.3,8.9-9.3,8.9l1.4-2.6c0,0,7.3-1.7,5.3-3.7 c-0.2-0.2-4.3-0.3-4.3-0.3C28.6,27.9,29,25,29.4,24.6L29.4,24.6z"/><path id="path673" fill="#FFF" d="M29.6,27.5 c0,0,4.6,0.5,4.9,0.8c0.7,0.7-0.2,2-0.2,2s1.9-1.7,0.8-2.8C34.5,26.9,29.6,27.5,29.6,27.5L29.6,27.5z" enable-background="new" opacity=".48"/><path id="path674" fill="#FFF" d="M16.1,4.3 c0,3.6-9.3,5.2-9.3,7.9c0,2.7,12.6,1.8,12.6,3.5c0,1.7-5.7,3.3-5.7,7.7c0-3.8,12.6-4.7,12.6-7.6s-13.1-1.7-13.1-4.1 C13.2,9.3,16.1,7.6,16.1,4.3z" enable-background="new" opacity=".58"/><path id="path675" fill="#FFF" d="M28.3,34.2 c1.8-0.3,4.5-1.5,6-2.7C33.7,32.9,29.5,34.2,28.3,34.2z" enable-background="new" opacity=".74"/><path id="path676" fill="#FFF" d="M1.9,26.3 c0.7,2,2.8,3.8,5.7,5c0.9,0.4,0,7.2,5.1,8.1c-1.3-3-0.5-6.9,0.4-6.8c4.2,0.4,8.9-0.5,12.8-3.4C17.2,34.2,4.7,31.4,1.9,26.3 L1.9,26.3z" enable-background="new" opacity=".74"/></g></g><g id="Layer_x5F_4"><rect id="path241" width="48" height="48" fill="none"/></g></svg>