<svg xmlns="http://www.w3.org/2000/svg" xmlns:xlink="http://www.w3.org/1999/xlink" id="svg602" width="48" height="48" enable-background="new 0 0 48 48" overflow="visible" viewBox="0 0 48 48" xml:space="preserve"><g id="Layer_x5F_1"><g id="g620"><path id="path155" d="M10.1,1.6 c-1.8,0-3.3,1.5-3.3,3.3v39.4c0,1.8,1.5,3.3,3.3,3.3h34.6c1.8,0,3.3-1.5,3.3-3.3V4.9c0-1.8-1.5-3.3-3.3-3.3H10.1z" enable-background="new" opacity=".2"/><linearGradient id="path162_1_" x1="-1668.92" x2="-1448.42" y1="127.302" y2="127.302" gradientTransform="matrix(0.1875 0 0 0.1875 317.8652 -0.4688)" gradientUnits="userSpaceOnUse"><stop style="stop-color:#a7abac" id="stop609" offset="0"/><stop style="stop-color:#85898a" id="stop610" offset="1"/></linearGradient><path id="path162" fill="url(#path162_1_)" d="M8.3,0.4C6.5,0.4,5,1.9,5,3.7v39.4c0,1.8,1.5,3.3,3.3,3.3H43 c1.8,0,3.3-1.5,3.3-3.3V3.7c0-1.8-1.5-3.3-3.3-3.3H8.3z"/><path id="path163" fill="#9CF" d="M5.9,43.1c0,1.3,1.1,2.4,2.4,2.4H43c1.3,0,2.4-1.1,2.4-2.4V3.7c0-1.3-1.1-2.4-2.4-2.4H8.3 C7,1.3,5.9,2.4,5.9,3.7V43.1z"/><linearGradient id="path170_1_" x1="-1604.223" x2="-1355.373" y1="81.559" y2="330.408" gradientTransform="matrix(0.1875 0 0 0.1875 317.8652 -0.4688)" gradientUnits="userSpaceOnUse"><stop style="stop-color:#fff" id="stop617" offset="0"/><stop style="stop-color:#9cf" id="stop618" offset="1"/></linearGradient><path id="path170" fill="url(#path170_1_)" d="M8.3,2.3C7.5,2.3,6.9,3,6.9,3.7v39.4c0,0.8,0.6,1.4,1.4,1.4H43 c0.8,0,1.4-0.6,1.4-1.4V3.7c0-0.8-0.6-1.4-1.4-1.4H8.3z"/><path id="path171" fill="#FFF" d="M32.5,19.1 c3.7-3.4,8.1-5.1,12.8-6V3.7c0-1.3-1.1-2.4-2.4-2.4H8.3C7,1.3,5.9,2.4,5.9,3.7v28.2C15.7,32.7,24.9,25.9,32.5,19.1z" enable-background="new" opacity=".4"/></g></g><g id="Layer_x5F_2"><g id="g625"><path id="path172" fill="#999" d="M3.9,5.7 c-1.7,0-3.1,1.1-3.1,2.5v31.1c0,1.4,1.4,2.5,3.1,2.5h37.8c1.7,0,3.1-1.1,3.1-2.5v-31c0-1.4-1.4-2.5-3.1-2.5L3.9,5.7L3.9,5.7z" enable-background="new" opacity=".3"/><linearGradient id="path179_1_" x1="-732.384" x2="-732.384" y1="186.395" y2="393.874" gradientTransform="matrix(0.1875 0 0 -0.1875 158.7217 78.0996)" gradientUnits="userSpaceOnUse"><stop style="stop-color:#6a5b97" id="stop628" offset="0"/><stop style="stop-color:#6d7bb0" id="stop629" offset="1"/></linearGradient><path id="path179" fill="url(#path179_1_)" d="M42.8,38.2c0,1.1-1.1,2-2.5,2H2.5c-1.4,0-2.5-0.9-2.5-2v-31c0-1.1,1.1-2,2.5-2 h37.8c1.4,0,2.5,0.9,2.5,2V38.2L42.8,38.2z"/><linearGradient id="path186_1_" x1="-841.181" x2="-624.002" y1="295.197" y2="295.197" gradientTransform="matrix(0.1875 0 0 -0.1875 158.7217 78.0996)" gradientUnits="userSpaceOnUse"><stop style="stop-color:#efedf5" id="stop635" offset="0"/><stop style="stop-color:#99acd2" id="stop636" offset="1"/></linearGradient><path id="path186" fill="url(#path186_1_)" d="M2.5,6C1.7,6,1,6.5,1,7.2v31.1c0,0.7,0.7,1.2,1.5,1.2h37.8c0.8,0,1.5-0.5,1.5-1.2 V7.2c0-0.7-0.7-1.2-1.5-1.2H2.5L2.5,6z"/><path id="path187" fill="#FFF" d="M3.1,25.4 c1.4,0.1,2.8,0.2,4.2,0.2c16.8,0,30.3-7.5,30.3-16.8c0-0.4,0-0.7-0.1-1.1c-7.7,0-33.4,0-34.5,0C3.1,8.2,3.1,17.4,3.1,25.4z" enable-background="new" opacity=".64"/></g></g><g id="Layer_x5F_3"><g id="g643"><polygon id="path895" points="37.9 11.1 19.6 4.6 19.3 4.8 1.5 11.3 1.5 35.3 2.1 35.5 19.9 42.1 37.9 35.7" enable-background="new" opacity=".2"/><linearGradient id="path902_1_" x1="-212.744" x2="-127.385" y1="360.961" y2="178.803" gradientTransform="matrix(0.1875 0 0 -0.1875 52.626 78.0996)" gradientUnits="userSpaceOnUse"><stop style="stop-color:#fd993e" id="stop646" offset="0"/><stop style="stop-color:#e67901" id="stop647" offset="1"/></linearGradient><polygon id="path902" fill="url(#path902_1_)" points="17.8 3.7 0 10.2 0 34.2 .6 34.4 18.4 41 36.4 34.6 36.4 10 18.1 3.5"/><polygon id="path903" fill="#FEBF59" points="18.2 10.9 .9 10.9 .9 33.8 .9 33.8 18.1 40.1 18.2 40.1"/><polygon id="path905" fill="#FFFFE6" points="18.2 10.9 18.2 40.1 18.1 40.1 35.4 33.8 35.5 33.8 35.5 10.9"/><polygon id="path906" fill="#FFFFE6" points=".9 10.9 18.1 17.2 35.4 10.9 18.1 4.5"/><polygon id="path907" fill="#FFFFE6" points="18.1 17.2 .9 10.9 .9 33.6 .9 33.6 18.1 39.9 18.2 39.9 18.2 17.2"/><linearGradient id="path914_1_" x1="-183.971" x2="-183.971" y1="272.727" y2="396.808" gradientTransform="matrix(0.1875 0 0 -0.1875 52.626 78.0996)" gradientUnits="userSpaceOnUse"><stop style="stop-color:#ffff73" id="stop657" offset="0"/><stop style="stop-color:#fff7e2" id="stop658" offset="1"/></linearGradient><path id="path914" fill="url(#path914_1_)" d="M18.1,4.5l-17,6.3c2.8,1,5.6,2.1,8.4,3.1c1.9,0.7,3.8,1.4,5.7,2.1 c0.8,0.3,2,1.1,2.9,1.1c0.7,0,1.8-0.7,2.5-0.9c2-0.8,4.1-1.5,6.1-2.3c2.8-1,5.6-2.1,8.4-3.1L18.1,4.5z"/><linearGradient id="path921_1_" x1="-183.393" x2="-254.669" y1="321.806" y2="258.449" gradientTransform="matrix(0.1875 0 0 -0.1875 52.626 78.0996)" gradientUnits="userSpaceOnUse"><stop style="stop-color:#fee679" id="stop664" offset="0"/><stop style="stop-color:#fff7b0" id="stop665" offset="1"/></linearGradient><path id="path921" fill="url(#path921_1_)" d="M0.9,11.4v22.2h0l16.9,6.3c0-7.4,0.2-15-0.1-22.2C12.1,15.6,6.5,13.5,0.9,11.4z"/><linearGradient id="path928_1_" x1="-120.028" x2="-176.347" y1="242.14" y2="367.978" gradientTransform="matrix(0.1875 0 0 -0.1875 52.626 78.0996)" gradientUnits="userSpaceOnUse"><stop style="stop-color:#fee69e" id="stop671" offset=".006"/><stop style="stop-color:#fc0" id="stop672" offset="1"/></linearGradient><path id="path928" fill="url(#path928_1_)" d="M18.6,40l16.8-6.2h0.2V11.7c-1.9,0.7-16.5,5.7-16.8,6.2 C18.4,18.3,18.6,39.1,18.6,40z"/><linearGradient id="path935_1_" x1="-184.206" x2="-184.206" y1="354.565" y2="379.203" gradientTransform="matrix(0.1875 0 0 -0.1875 52.626 78.0996)" gradientUnits="userSpaceOnUse"><stop style="stop-color:#fd993e" id="stop678" offset="0"/><stop style="stop-color:#e65c00" id="stop679" offset="1"/></linearGradient><path id="path935" fill="url(#path935_1_)" d="M18.2,10.8l17,0l-17-1V4.4c0,0-0.7,5-0.9,5.3C17.1,9.9,1,10.8,1,10.8l16.3-0.2 l0.8,6.6L18.2,10.8z"/></g></g><g id="Layer_x5F_4"><rect id="path241" width="48" height="48" fill="none"/></g></svg>