<svg xmlns="http://www.w3.org/2000/svg" xmlns:xlink="http://www.w3.org/1999/xlink" id="svg602" width="50.1" height="50.1" enable-background="new 0 0 50.1 50.1" overflow="visible" viewBox="0 0 50.1 50.1" xml:space="preserve"><g id="Layer_1"><g id="g606"><rect id="rect606" width="48" height="48" x="1.1" y="1.1" fill="#FFF"/><radialGradient id="rect634_1_" cx="-592.226" cy="367.462" r="67.686" fx="-592.226" fy="367.462" gradientTransform="matrix(-0.7869 0 0 1.0491 -441.945 -384.4949)" gradientUnits="userSpaceOnUse"><stop style="stop-color:#fff" id="stop609" offset="0"/><stop style="stop-color:#d5e6f3" id="stop610" offset=".126"/><stop style="stop-color:#b3d1ea" id="stop611" offset=".251"/><stop style="stop-color:#9ac2e3" id="stop612" offset=".37"/><stop style="stop-color:#8bb9df" id="stop613" offset=".478"/><stop style="stop-color:#86b6de" id="stop614" offset=".567"/><stop style="stop-color:#0e5fa9" id="stop615" offset=".854"/><stop style="stop-color:#0f4378" id="stop616" offset=".911"/><stop style="stop-color:#111426" id="stop617" offset="1"/></radialGradient><rect id="rect634" width="48" height="48" x="1.1" y="1.1" fill="url(#rect634_1_)" stroke="#3030B1" stroke-width="2.141" enable-background="new" opacity=".4"/></g><g id="g636"><g id="g635" opacity=".1"><path id="path636" d="M28.4,43.8c-7.8,0.1-13.8-4.9-13.8-13.7c0-8.8,7.2-19.1,17.9-19.1c6.1,0,11,3.5,12.8,8.7 c0-0.5,0-0.9,0-1.4c0-5.2-6.4-12.6-16.1-12.6C15.8,5.8,6.8,18.7,6.8,29.6c0,10.9,7.6,17.7,17.3,17.1c3.8-0.2,7.5-2.2,10.8-5.1 C32.7,43,30.5,43.8,28.4,43.8z"/><path id="path637" fill="none" stroke="#000" stroke-width=".94" d="M28.4,43.8c-7.8,0.1-13.8-4.9-13.8-13.7 c0-8.8,7.2-19.1,17.9-19.1c6.1,0,11,3.5,12.8,8.7c0-0.5,0-0.9,0-1.4c0-5.2-6.4-12.6-16.1-12.6C15.8,5.8,6.8,18.7,6.8,29.6 c0,10.9,7.6,17.7,17.3,17.1c3.8-0.2,7.5-2.2,10.8-5.1C32.7,43,30.5,43.8,28.4,43.8z"/></g><g id="g638" opacity=".25"><path id="path639" d="M27.9,43.2C20.1,43.3,14,38.3,14,29.5c0-8.8,7.2-19.1,17.9-19.1c6.1,0,11,3.5,12.8,8.7c0-0.5,0-0.9,0-1.4 c0-5.2-6.4-12.6-16.1-12.6C15.2,5.2,6.3,18,6.3,29c0,10.9,7.6,17.7,17.3,17.1c3.8-0.2,7.5-2.2,10.8-5.1 C32.2,42.3,29.9,43.2,27.9,43.2z"/><path id="path640" fill="none" stroke="#000" stroke-width=".94" d="M27.9,43.2C20.1,43.3,14,38.3,14,29.5 c0-8.8,7.2-19.1,17.9-19.1c6.1,0,11,3.5,12.8,8.7c0-0.5,0-0.9,0-1.4c0-5.2-6.4-12.6-16.1-12.6C15.2,5.2,6.3,18,6.3,29 c0,10.9,7.6,17.7,17.3,17.1c3.8-0.2,7.5-2.2,10.8-5.1C32.2,42.3,29.9,43.2,27.9,43.2z"/></g><g id="g641" opacity=".4"><path id="path642" d="M27.3,42.7c-7.8,0.1-13.8-4.9-13.8-13.7c0-8.8,7.2-19.1,17.9-19.1c6.1,0,11,3.5,12.8,8.7 c0-0.5,0-0.9,0-1.4c0-5.2-6.4-12.6-16.1-12.6C14.7,4.7,5.7,17.6,5.7,28.5c0,10.9,7.6,17.7,17.3,17.1c3.8-0.2,7.5-2.2,10.8-5.1 C31.6,41.9,29.4,42.7,27.3,42.7z"/></g><g id="g643"><path id="path644" fill="#66B22C" d="M26.9,42.4c-8,0.1-14.2-5-14.2-14S20.1,8.9,31.1,8.9c6.2,0,11.3,3.6,13.1,8.9 c0-0.5,0-1,0-1.4c0-5.3-6.6-12.9-16.6-12.9c-13.8,0-23,13.2-23,24.4C4.8,39,12.5,46,22.5,45.3c3.9-0.2,7.7-2.2,11-5.2 C31.3,41.5,29,42.4,26.9,42.4z"/></g><g id="g645" opacity=".5"><radialGradient id="path673_1_" cx="-287.347" cy="393.482" r="23.277" fx="-287.347" fy="393.482" gradientTransform="matrix(0.9983 0 0 -0.9955 315.6215 417.9576)" gradientUnits="userSpaceOnUse"><stop style="stop-color:#2a7405" id="stop649" offset="0"/><stop style="stop-color:#307a09" id="stop650" offset=".173"/><stop style="stop-color:#408a13" id="stop651" offset=".401"/><stop style="stop-color:#5aa524" id="stop652" offset=".658"/><stop style="stop-color:#66b22c" id="stop653" offset=".758"/><stop style="stop-color:#8bc745" id="stop654" offset=".779"/><stop style="stop-color:#b3de5f" id="stop655" offset=".805"/><stop style="stop-color:#cbec6f" id="stop656" offset=".825"/><stop style="stop-color:#d4f175" id="stop657" offset=".838"/><stop style="stop-color:#7bbc43" id="stop658" offset=".873"/><stop style="stop-color:#a1cd7e" id="stop659" offset=".91"/><stop style="stop-color:#7bba54" id="stop660" offset=".949"/><stop style="stop-color:#2a7405" id="stop661" offset="1"/></radialGradient><path id="path673" fill="url(#path673_1_)" d="M26.9,42.4c-8,0.1-14.2-5-14.2-14S20.1,8.9,31.1,8.9c6.2,0,11.3,3.6,13.1,8.9 c0-0.5,0-1,0-1.4c0-5.3-6.6-12.9-16.6-12.9c-13.8,0-23,13.2-23,24.4C4.8,39,12.5,46,22.5,45.3c3.9-0.2,7.7-2.2,11-5.2 C31.3,41.5,29,42.4,26.9,42.4z"/><path id="path674" fill="none" stroke="#060019" stroke-linejoin="bevel" stroke-width=".94" d="M26.9,42.4 c-8,0.1-14.2-5-14.2-14S20.1,8.9,31.1,8.9c6.2,0,11.3,3.6,13.1,8.9c0-0.5,0-1,0-1.4c0-5.3-6.6-12.9-16.6-12.9 c-13.8,0-23,13.2-23,24.4C4.8,39,12.5,46,22.5,45.3c3.9-0.2,7.7-2.2,11-5.2C31.3,41.5,29,42.4,26.9,42.4z"/></g><path id="path690" fill="#FFFFBD" d="M29.3,6.1c4.2,0,7.7,1.3,10.4,3.2c-2.6-2.7-6.6-4.7-11.6-4.7C15.9,4.5,7.7,16,7.4,25.9 C8.5,16.4,17,6.1,29.3,6.1z"/></g><g id="g690"><g id="g678"><path id="path679" fill="#63AC2C" d="M35.6,26.5c0.5-0.4,1-0.9,1.4-1.2c3.3-3,5-6.5,3.9-7.8c-1.1-1.2-4.8,0.3-8.1,3.2 c-1.3,1.2-2.8,2.4-3.4,3.6c-1.8,1-2.2,1.8-3.8,0c-0.2-4.2-0.3-6.6-1.8-7.1c-1.9-0.6-4.8,3.1-6.3,8.4c-1.5,5.2-1.2,10,0.7,10.4 c1.9,0.6,4.6-2.9,6.2-7.9c1.5-1,2.8-1.8,4.2,0.3c0.1,1.2,0.6,2.7,1.2,3.9c1.8,3.3,4.9,5.2,6.9,4.2c2-1,2.2-4.7,0.4-8.1 C36.7,27.8,36.2,27.2,35.6,26.5z"/><path id="path680" fill="none" stroke="#000" stroke-linejoin="round" stroke-width=".849" d="M35.6,26.5 c0.5-0.4,1-0.9,1.4-1.2c3.3-3,5-6.5,3.9-7.8c-1.1-1.2-4.8,0.3-8.1,3.2c-1.3,1.2-2.8,2.4-3.4,3.6c-1.8,1-2.2,1.8-3.8,0 c-0.2-4.2-0.3-6.6-1.8-7.1c-1.9-0.6-4.8,3.1-6.3,8.4c-1.5,5.2-1.2,10,0.7,10.4c1.9,0.6,4.6-2.9,6.2-7.9c1.5-1,2.8-1.8,4.2,0.3 c0.1,1.2,0.6,2.7,1.2,3.9c1.8,3.3,4.9,5.2,6.9,4.2c2-1,2.2-4.7,0.4-8.1C36.7,27.8,36.2,27.2,35.6,26.5z"/></g><linearGradient id="XMLID_1_" x1="18.275" x2="23.949" y1="29.133" y2="29.133" gradientTransform="matrix(0.8892 -0.1296 0.1207 0.828 -1.4343 8.5145)" gradientUnits="userSpaceOnUse"><stop style="stop-color:#ff0" id="stop695" offset="0"/><stop style="stop-color:#ffff07" id="stop696" offset=".105"/><stop style="stop-color:#ffff1a" id="stop697" offset=".257"/><stop style="stop-color:#ffff3a" id="stop698" offset=".439"/><stop style="stop-color:#ff6" id="stop699" offset=".642"/><stop style="stop-color:#ffff9e" id="stop700" offset=".861"/><stop style="stop-color:#ffffc5" id="stop701" offset="1"/></linearGradient><path id="path715" fill="url(#XMLID_1_)" d="M22.7,25.8 c-1.2-0.4-4.9,8-3.6,8.1C20.5,34.1,23.8,26.3,22.7,25.8z" enable-background="new"/><linearGradient id="XMLID_2_" x1="30.122" x2="36.388" y1="30.577" y2="30.577" gradientTransform="matrix(0.9973 7.317906e-002 -7.317906e-002 0.9973 2.3646 -2.369)" gradientUnits="userSpaceOnUse"><stop style="stop-color:#ff0" id="stop717" offset="0"/><stop style="stop-color:#ffff07" id="stop718" offset=".105"/><stop style="stop-color:#ffff1a" id="stop719" offset=".257"/><stop style="stop-color:#ffff3a" id="stop720" offset=".439"/><stop style="stop-color:#ff6" id="stop721" offset=".642"/><stop style="stop-color:#ffff9e" id="stop722" offset=".861"/><stop style="stop-color:#ffffc5" id="stop723" offset="1"/></linearGradient><path id="path737" fill="url(#XMLID_2_)" d="M34.6,28.3 c-0.3-0.5-0.6-0.9-1-1.4c-1.1-1.1-3.6-0.4-3.3,2.4c0.2,0.6,0.4,1.1,0.5,1.5c1.2,2,3.2,4.4,4.7,3.9C37,34.2,35.8,30.3,34.6,28.3z" enable-background="new"/><path id="path679_2_" fill="#96D94C" d="M34.1,26.5c0.4-0.3,0.9-0.7,1.2-1c2.9-2.5,5.7-6.1,4.7-7.1c-1-1-4.7,1.6-7.6,4c-1.1,1-2.3,2.2-2.9,3.1c-1.6,0.9-3.5,0.7-4.9-0.8 c-0.2-3.4-0.4-6-1.4-6.1c-1.7-0.5-3.3,3-4.6,7.3c-1.3,4.3-1.7,8.5,0,8.8c1.7,0.5,3.6-3.5,5-7.6c1.3-0.8,4.3-1.4,5.6,0.2 c0.1,1,0.5,2.9,1.1,4c1.6,2.7,4.1,5,5.8,4.2c1.7-0.9,0.9-4.7-0.8-7.4C35,27.6,34.6,27.1,34.1,26.5z" enable-background="new" opacity=".5"/><path id="path714" fill="#FFFFBD" d="M19.9,24.9 c1.1-3.2,3-5.4,4.3-5.1c-0.2-0.6-0.4-0.9-0.8-1c-1.2-0.4-3,2-4,5.3c-0.8,2.6-0.9,4.9-0.3,6.1C18.9,28.9,19.2,27,19.9,24.9z" enable-background="new" opacity=".7"/><path id="path740" fill="#FFFFBD" d="M28.1,26.1 c1.1,1.5,4-2,4.8-3c1.7-1.9,4.6-3.5,5.3-2.8c0-0.3-0.1-0.5-0.2-0.7c-0.7-1-3.2,0.2-5.4,2.7c-0.9,1-3.7,4.4-4.5,3.4 C28.1,25.9,28.1,26.1,28.1,26.1z" enable-background="new" opacity=".7"/></g></g></svg>