<svg xmlns="http://www.w3.org/2000/svg" xmlns:xlink="http://www.w3.org/1999/xlink" id="svg602" width="50.1" height="50.1" enable-background="new 0 0 50.1 50.1" overflow="visible" viewBox="0 0 50.1 50.1" xml:space="preserve"><g id="g1038"><rect id="rect606" width="48" height="48" x="1.1" y="1.1" fill="#FFF"/><radialGradient id="rect634_1_" cx="-684.432" cy="55.548" r="67.686" fx="-684.432" fy="55.548" gradientTransform="matrix(-0.7869 0 0 -1.0491 -514.4136 59.3724)" gradientUnits="userSpaceOnUse"><stop style="stop-color:#fff" id="stop608" offset="0"/><stop style="stop-color:#d5e6f3" id="stop609" offset=".126"/><stop style="stop-color:#b3d1ea" id="stop610" offset=".251"/><stop style="stop-color:#9ac2e3" id="stop611" offset=".37"/><stop style="stop-color:#8bb9df" id="stop612" offset=".478"/><stop style="stop-color:#86b6de" id="stop613" offset=".567"/><stop style="stop-color:#0e5fa9" id="stop614" offset=".854"/><stop style="stop-color:#0f4378" id="stop615" offset=".911"/><stop style="stop-color:#111426" id="stop616" offset="1"/></radialGradient><rect id="rect634" width="48" height="48" x="1.1" y="1.1" fill="url(#rect634_1_)" stroke="#3030B1" stroke-width="2.141" enable-background="new" opacity=".4"/><g id="g635"><linearGradient id="XMLID_1_" x1="15.961" x2="45.826" y1="19.736" y2="19.736" gradientUnits="userSpaceOnUse"><stop style="stop-color:#959595" id="stop637" offset="0"/><stop style="stop-color:#000" id="stop638" offset="1"/></linearGradient><path id="path642" fill="url(#XMLID_1_)" d="M42.4,4.5H19.5c-1.9,0-3.5,1.6-3.5,3.4v23.8c0,1.9,1.6,3.4,3.5,3.4h22.8c1.9,0,3.5-1.5,3.5-3.4 V7.8C46,5.9,44.3,4.5,42.4,4.5z"/><linearGradient id="path691_1_" x1="19.933" x2="42.287" y1="16.815" y2="16.815" gradientUnits="userSpaceOnUse"><stop style="stop-color:#00f6ff" id="stop644" offset="0"/><stop style="stop-color:#038eff" id="stop645" offset=".5"/><stop style="stop-color:#031cc2" id="stop646" offset="1"/></linearGradient><path id="path691" fill="url(#path691_1_)" d="M42.3,21.9c0,1.9-1.6,3.4-3.5,3.4H23.5c-1.9,0-3.5-1.5-3.5-3.4V11.8 c0-1.9,1.6-3.4,3.5-3.4h15.1c1.9,0,3.5,1.6,3.5,3.4v10.1H42.3z"/><linearGradient id="XMLID_2_" x1="4.785" x2="34.933" y1="29.959" y2="29.959" gradientUnits="userSpaceOnUse"><stop style="stop-color:#959595" id="stop654" offset="0"/><stop style="stop-color:#000" id="stop655" offset="1"/></linearGradient><path id="path659" fill="url(#XMLID_2_)" d="M31.4,14.4H8.3c-1.9,0-3.5,1.5-3.5,3.4v24.4c0,1.8,1.6,3.4,3.5,3.4h23.1c1.9,0,3.5-1.5,3.5-3.4 V17.8C34.9,15.9,33.3,14.4,31.4,14.4z"/><linearGradient id="path723_1_" x1="8.166" x2="30.521" y1="25.796" y2="25.796" gradientUnits="userSpaceOnUse"><stop style="stop-color:#00f6ff" id="stop661" offset="0"/><stop style="stop-color:#038eff" id="stop662" offset=".5"/><stop style="stop-color:#031cc2" id="stop663" offset="1"/></linearGradient><path id="path723" fill="url(#path723_1_)" d="M30.5,30.8c0,1.8-1.6,3.4-3.5,3.4H11.7c-1.9,0-3.5-1.5-3.5-3.4v-9.9 c0-1.8,1.6-3.4,3.5-3.4H27c1.9,0,3.5,1.5,3.5,3.4V30.8z"/></g></g></svg>