<svg xmlns="http://www.w3.org/2000/svg" xmlns:xlink="http://www.w3.org/1999/xlink" id="svg602" width="50.1" height="50.1" enable-background="new 0 0 50.1 50.1" overflow="visible" viewBox="0 0 50.1 50.1" xml:space="preserve"><g id="g1038"><rect id="rect606" width="48" height="48" x="1.1" y="1.1" fill="#FFF" enable-background="new"/><radialGradient id="rect634_1_" cx="-399.236" cy="366.965" r="67.686" fx="-399.236" fy="366.965" gradientTransform="matrix(-0.7869 0 0 1.0491 -289.9637 -383.8572)" gradientUnits="userSpaceOnUse"><stop style="stop-color:#fff" id="stop608" offset="0"/><stop style="stop-color:#d5e6f3" id="stop609" offset=".126"/><stop style="stop-color:#b3d1ea" id="stop610" offset=".251"/><stop style="stop-color:#9ac2e3" id="stop611" offset=".37"/><stop style="stop-color:#8bb9df" id="stop612" offset=".478"/><stop style="stop-color:#86b6de" id="stop613" offset=".567"/><stop style="stop-color:#0e5fa9" id="stop614" offset=".854"/><stop style="stop-color:#0f4378" id="stop615" offset=".911"/><stop style="stop-color:#111426" id="stop616" offset="1"/></radialGradient><rect id="rect634" width="48" height="48" x="1.1" y="1.1" fill="url(#rect634_1_)" stroke="#3030B1" stroke-width="2.141" enable-background="new" opacity=".4"/><g id="g654"><radialGradient id="path654_1_" cx="-378.509" cy="37.576" r="11.042" fx="-378.509" fy="37.576" gradientTransform="matrix(0.9976 0 0 0.9991 403.171 -3.6554)" gradientUnits="userSpaceOnUse"><stop style="stop-color:#92bb47" id="stop637" offset=".011"/><stop style="stop-color:#6ea31b" id="stop638" offset=".5"/><stop style="stop-color:#4c7013" id="stop639" offset="1"/></radialGradient><path id="path654" fill="url(#path654_1_)" stroke="#000" stroke-linejoin="bevel" stroke-width="2" d="M36,23.1 c0-1-20.7-1-20.8,0c-0.2,13.2,4,22.5,10.3,22.5l0,0l0,0l0,0l0,0C31.8,45.6,36.2,36.4,36,23.1z"/><radialGradient id="path655_1_" cx="-365.678" cy="16.676" r="8.493" fx="-365.678" fy="16.676" gradientTransform="matrix(0.9976 0 0 0.9991 403.171 -3.6554)" gradientUnits="userSpaceOnUse"><stop style="stop-color:#92bb47" id="stop647" offset=".011"/><stop style="stop-color:#6ea31b" id="stop648" offset=".5"/><stop style="stop-color:#4c7013" id="stop649" offset="1"/></radialGradient><path id="path655" fill="url(#path655_1_)" stroke="#000" stroke-linejoin="bevel" stroke-width="2" d="M27.7,7.6 c2.6,1.7,4.9,6,6.7,10.9c5,0,9.9-3.1,14.7-7.5C42,9.6,34.9,9,27.7,7.6z"/><radialGradient id="path655_3_" cx="-392.378" cy="16.576" r="8.503" fx="-392.378" fy="16.576" gradientTransform="matrix(0.9976 0 0 0.9991 403.171 -3.6554)" gradientUnits="userSpaceOnUse"><stop style="stop-color:#92bb47" id="stop657" offset=".011"/><stop style="stop-color:#6ea31b" id="stop658" offset=".5"/><stop style="stop-color:#4c7013" id="stop659" offset="1"/></radialGradient><path id="path655_2_" fill="url(#path655_3_)" stroke="#000" stroke-linejoin="bevel" stroke-width="2" d="M1.1,10.9 c4.8,4.3,9.7,7.5,14.7,7.5c1.7-4.9,4-9.2,6.7-10.9C15.4,9,8.2,9.6,1.1,10.9z"/><radialGradient id="circle620_1_" cx="-371.049" cy="42.756" r="3.638" fx="-371.049" fy="42.756" gradientTransform="matrix(0.9976 0 0 0.9991 403.171 -3.6554)" gradientUnits="userSpaceOnUse"><stop style="stop-color:#92bb47" id="stop667" offset=".011"/><stop style="stop-color:#6ea31b" id="stop668" offset=".5"/><stop style="stop-color:#4c7013" id="stop669" offset="1"/></radialGradient><circle id="circle620_2_" cx="33" cy="39.1" r="3.6" fill="url(#circle620_1_)" stroke="#000" stroke-linejoin="bevel" stroke-width="2"/><radialGradient id="circle620_4_" cx="-386.009" cy="42.756" r="3.638" fx="-386.009" fy="42.756" gradientTransform="matrix(0.9976 0 0 0.9991 403.171 -3.6554)" gradientUnits="userSpaceOnUse"><stop style="stop-color:#92bb47" id="stop677" offset=".011"/><stop style="stop-color:#6ea31b" id="stop678" offset=".5"/><stop style="stop-color:#4c7013" id="stop679" offset="1"/></radialGradient><circle id="circle620_3_" cx="18.1" cy="39.1" r="3.6" fill="url(#circle620_4_)" stroke="#000" stroke-linejoin="bevel" stroke-width="2"/><radialGradient id="path672_1_" cx="-378.509" cy="18.635" r="11.31" fx="-378.509" fy="18.635" gradientTransform="matrix(0.9976 0 0 0.9991 403.171 -3.6554)" gradientUnits="userSpaceOnUse"><stop style="stop-color:#92bb47" id="stop687" offset=".011"/><stop style="stop-color:#6ea31b" id="stop688" offset=".5"/><stop style="stop-color:#4c7013" id="stop689" offset="1"/></radialGradient><path id="path672" fill="url(#path672_1_)" stroke="#000" stroke-linejoin="bevel" stroke-width="2" d="M37.7,22.7 c-0.1-7.4-5.5-18.1-12.1-18.2l0,0l0,0l0,0l0,0c-6.6,0.1-12,10.8-12.1,18.2c3.8,2.8,10.2,2.8,12.1,2.6 C27.5,25.5,33.7,25.5,37.7,22.7z"/></g></g></svg>