<svg xmlns="http://www.w3.org/2000/svg" xmlns:xlink="http://www.w3.org/1999/xlink" id="svg602" width="50.1" height="50.1" enable-background="new 0 0 50.1 50.1" overflow="visible" viewBox="0 0 50.1 50.1" xml:space="preserve"><g id="g1038"><rect id="rect606" width="48" height="48" x="1.1" y="1.1" fill="#FFF"/><radialGradient id="rect634_1_" cx="-1499.023" cy="400.229" r="67.69" fx="-1499.023" fy="400.229" gradientTransform="matrix(-0.7869 0 0 1.0491 -1155.5037 -418.8751)" gradientUnits="userSpaceOnUse"><stop style="stop-color:#fff" id="stop608" offset="0"/><stop style="stop-color:#d5e6f3" id="stop609" offset=".126"/><stop style="stop-color:#b3d1ea" id="stop610" offset=".251"/><stop style="stop-color:#9ac2e3" id="stop611" offset=".37"/><stop style="stop-color:#8bb9df" id="stop612" offset=".478"/><stop style="stop-color:#86b6de" id="stop613" offset=".567"/><stop style="stop-color:#0e5fa9" id="stop614" offset=".854"/><stop style="stop-color:#0f4378" id="stop615" offset=".911"/><stop style="stop-color:#111426" id="stop616" offset="1"/></radialGradient><rect id="rect634" width="48" height="48" x="1.1" y="1.1" fill="url(#rect634_1_)" stroke="#3030B1" stroke-width="2.141" enable-background="new" opacity=".4"/><g id="g591"><g id="g592"><g id="g593"><radialGradient id="XMLID_1_" cx="-595.411" cy="-.053" r="87.091" fx="-595.411" fy="-.053" gradientTransform="matrix(1 0 0 1 606.2969 -9.765625e-004)" gradientUnits="userSpaceOnUse"><stop style="stop-color:#00f6ff" id="stop639" offset="0"/><stop style="stop-color:#00a3ff" id="stop640" offset=".171"/><stop style="stop-color:#0081ff" id="stop641" offset=".25"/><stop style="stop-color:#0019b5" id="stop642" offset=".5"/><stop style="stop-color:#200061" id="stop643" offset=".75"/><stop style="stop-color:#000" id="stop644" offset="1"/></radialGradient><path id="path654" fill="url(#XMLID_1_)" stroke="#000081" d="M42.7,20.9c-0.3-4,0.4-9.2,0.3-12.4c0-0.5-4.1,4.5-4.5,3.2 C36.4,6.1,20.1-2,12.1,12.3c-0.8,1.5-2.4-2.7-4.3-3.2c-0.8,3.7,0,7.6-0.3,11.3c-4.9,2-3.9,12.4,0,13.6 c0.8,0.3,0.8,0.7,1.3,1.5c12,17.3,27.3,9.8,32.3,0.7c0.3-0.7,0.7-1.5,1.3-1.7C46.3,33.3,47.4,22.8,42.7,20.9z M29.6,39.4 c-2.9,1.1-6,1.3-8.9,0c-8.7-4.3-11-15.3-7.6-23.7c4,2.1,7.7-1.7,11.8-1.9c2.7-0.1,11.3,5.2,12.6,2.1c0.5-1.1,0.8,2.1,0.8,3.5 C38.5,27.4,37,35.9,29.6,39.4z"/></g></g><radialGradient id="polygon625_1_" cx="-581.386" cy="23.97" r="8.61" fx="-581.386" fy="23.97" gradientTransform="matrix(1 0 0 1 606.2969 -9.765625e-004)" gradientUnits="userSpaceOnUse"><stop style="stop-color:#00f6ff" id="stop656" offset="0"/><stop style="stop-color:#00a3ff" id="stop657" offset=".171"/><stop style="stop-color:#0081ff" id="stop658" offset=".25"/><stop style="stop-color:#0019b5" id="stop659" offset=".5"/><stop style="stop-color:#200061" id="stop660" offset=".75"/><stop style="stop-color:#000" id="stop661" offset="1"/></radialGradient><polygon id="polygon625" fill="url(#polygon625_1_)" points="36 20.6 27.7 20.6 26.4 22.5 24.9 22.5 23.4 22.5 22.1 20.6 13.9 20.6 13.2 21.6 13.2 24 16.5 27.3 24.9 27.3 33.3 27.3 36.6 24 36.6 21.6"/><polygon id="polygon641" fill="#000081" points="28.2 29.6 25 29.6 24.9 29.6 21.7 29.6 20.7 30.5 20.7 32.8 24.2 36.3 24.9 36.3 25 36.3 25.7 36.3 29.3 32.8 29.3 30.5"/></g></g></svg>