<svg xmlns="http://www.w3.org/2000/svg" xmlns:xlink="http://www.w3.org/1999/xlink" id="svg602" width="50.1" height="50.1" enable-background="new 0 0 50.1 50.1" overflow="visible" viewBox="0 0 50.1 50.1" xml:space="preserve"><g id="g1038"><rect id="rect606" width="48" height="48" x="1.1" y="1.1" fill="#FFF"/><radialGradient id="rect634_1_" cx="-1779.041" cy="1.115" r="67.69" fx="-1779.041" fy="1.115" gradientTransform="matrix(-0.7869 0 0 -1.0491 -1375.8788 2.1465)" gradientUnits="userSpaceOnUse"><stop style="stop-color:#fff" id="stop608" offset="0"/><stop style="stop-color:#d5e6f3" id="stop609" offset=".126"/><stop style="stop-color:#b3d1ea" id="stop610" offset=".251"/><stop style="stop-color:#9ac2e3" id="stop611" offset=".37"/><stop style="stop-color:#8bb9df" id="stop612" offset=".478"/><stop style="stop-color:#86b6de" id="stop613" offset=".567"/><stop style="stop-color:#0e5fa9" id="stop614" offset=".854"/><stop style="stop-color:#0f4378" id="stop615" offset=".911"/><stop style="stop-color:#111426" id="stop616" offset="1"/></radialGradient><rect id="rect634" width="48" height="48" x="1.1" y="1.1" fill="url(#rect634_1_)" stroke="#3030B1" stroke-width="2.141" enable-background="new" opacity=".4"/><g id="g591_1_"><g id="g592_1_"><linearGradient id="XMLID_1_" x1="25.351" x2="24.685" y1="-2.667" y2="40.666" gradientUnits="userSpaceOnUse"><stop style="stop-color:#fff59e" id="stop638" offset="0"/><stop style="stop-color:#ff5900" id="stop639" offset=".25"/><stop style="stop-color:#b50000" id="stop640" offset=".5"/><stop style="stop-color:#610000" id="stop641" offset=".75"/><stop style="stop-color:#000" id="stop642" offset="1"/></linearGradient><path id="path652" fill="url(#XMLID_1_)" d="M47.2,15.7l-2.9,0.1l-0.1,1.4l-3.3,0.1L41,19l-3.4,0.1l-0.1,1.6l-5,0.1l-0.1,1.6h-2.4l-0.1-1.8 h-3.1l-0.1-4h2.4v1.8l3-0.3v-0.9l-2-0.1L30,14l-1.4-0.4v-3.2l-2-0.1l-0.1-1.8H25V7.1h-3.5V5.5l-1,0.1l-0.1,3.1h-3.4l0.1,1.1 l1.4,0.1l0.1,1.6l1.9,0.1l0.1,5l1.6,0.1l-0.1,5.9l-5.8-0.3V21l-6.9-0.1l0.1-1.6L6.2,19v-1.6L4,17.2v-1.8H3L3.1,20h1.6l0.1,3.5 h1.5l-0.1,1.6l2,0.1l0.1,1.4l1.5,0.1v2.1h3.8v1.5l4.8,0.1v1.9l1.9,0.1v4l-1.9,0.1l-0.1,1.5h-1.4l-0.1,1.9L13.4,40l-0.1,1.5 l-1.9,0.1l0.1,1.1l5.2,0.1l-0.1,1.8l1-0.1l0.1-1.6l1.6-0.1l0.1-3.5l3.3-0.1v-1.4h1.9l0.1-1.8h1.4v-1.8l1.8-0.1l0.1-1.4l1.4-0.1 l0.1-1.6l3.4-0.1l0.1-1.6l1.6-0.1l0.1-2.1l3.4-0.1l0.1-1.4l1.6-0.1l0.1-1.6l1.5-0.1v-1.4l1.6-0.1l0.1-1.9l1.8-0.1v-1.5l1.8-0.1 L47.2,15.7z M26.3,13.9h-2v-2.5h2V13.9z"/></g></g></g></svg>