<svg xmlns="http://www.w3.org/2000/svg" xmlns:xlink="http://www.w3.org/1999/xlink" id="svg602" width="48" height="48" enable-background="new 0 0 48 48" overflow="visible" viewBox="0 0 48 48" xml:space="preserve"><g id="Layer_1_2_"><g id="g605"><g id="g606"><linearGradient id="XMLID_43_" x1="-229.979" x2="-229.979" y1="451.708" y2="494.213" gradientTransform="matrix(1 0 0 -1 253.9795 521)" gradientUnits="userSpaceOnUse"><stop style="stop-color:#fff" id="stop608" offset="0"/><stop style="stop-color:#c2cfdc" id="stop609" offset=".764"/><stop style="stop-color:#b8c2d4" id="stop610" offset="1"/></linearGradient><path id="path616" fill="url(#XMLID_43_)" d="M41.1,10.3C41,9,40,7.9,38.7,7.9H9.3c-1.3,0-2.3,1-2.4,2.4L4.5,42.2l0.4,3.1 c0.2,1.3,1.1,2.4,2.4,2.4h33.3c1.3,0,2.2-1.1,2.4-2.4l0.4-3.1L41.1,10.3z"/><path id="path617" fill="#FFF" d="M41,38.6H7c-1.3,0-2.4,1.1-2.4,2.4l0.4,3.1c0.2,1.3,1.1,2.4,2.4,2.4h33.3c1.3,0,2.2-1.1,2.4-2.4 l0.4-3.1C43.5,39.7,42.4,38.6,41,38.6z"/><linearGradient id="XMLID_44_" x1="-229.98" x2="-229.98" y1="471.222" y2="480.717" gradientTransform="matrix(1 0 0 -1 253.9795 521)" gradientUnits="userSpaceOnUse"><stop style="stop-color:#fff" id="stop619" offset="0"/><stop style="stop-color:#f0f0ff" id="stop620" offset=".163"/><stop style="stop-color:#8d99a9" id="stop621" offset="1"/></linearGradient><path id="path627" fill="url(#XMLID_44_)" d="M41,39.6H7c-1.3,0-2.4,1.1-2.4,2.4l0.4,3.1c0.2,1.3,1.1,2.4,2.4,2.4h33.3 c1.3,0,2.2-1.1,2.4-2.4l0.4-3.1C43.5,40.6,42.4,39.6,41,39.6z"/><path id="path628" fill="none" d="M38.7,8.2H9.3c-1.2,0-2.1,0.9-2.2,2.2L5.2,35.9c0.4-0.4,1-0.6,1.6-0.6h34.3 c0.6,0,1.2,0.2,1.6,0.6c-0.7-9.3-1.9-25.5-1.9-25.5C40.8,9.1,39.9,8.2,38.7,8.2z"/><linearGradient id="XMLID_45_" x1="-229.98" x2="-229.98" y1="457.453" y2="481.662" gradientTransform="matrix(1 0 0 -1 253.9795 521)" gradientUnits="userSpaceOnUse"><stop style="stop-color:#9e9eac" id="stop630" offset="0"/><stop style="stop-color:#42425b" id="stop631" offset="1"/></linearGradient><path id="path635" fill="url(#XMLID_45_)" d="M43.3,36.5l-1.9-26.2c-0.1-1.6-1.2-2.6-2.7-2.6H9.3c-1.5,0-2.6,1.1-2.7,2.6L4.7,36.5l-0.4,5.7 l0.4,3.2C5,46.9,6,48,7.4,48h33.3c1.4,0,2.4-1.1,2.7-2.6l0.4-3.1L43.3,36.5z M42.8,45.3c-0.2,1.1-0.9,2.2-2.2,2.2H7.4 c-1.3,0-2-1.2-2.2-2.2l-0.4-3.1l0.5-6.3l1.9-25.5c0.1-1.3,1-2.2,2.2-2.2h29.4c1.2,0,2.1,0.9,2.2,2.2c0,0,1.2,16.2,1.9,25.5 c0.3,3.7,0.5,6.4,0.5,6.4L42.8,45.3z"/><g id="g636"><g id="g637"><g id="g638"><linearGradient id="XMLID_46_" x1="-231.571" x2="-246.66" y1="477.366" y2="477.366" gradientTransform="matrix(1 0 0 -1 253.9795 521)" gradientUnits="userSpaceOnUse"><stop style="stop-color:#d1d1e6" id="stop640" offset="0"/><stop style="stop-color:#c9c9de" id="stop641" offset=".042"/><stop style="stop-color:#b5b5ca" id="stop642" offset=".169"/><stop style="stop-color:#aaaabf" id="stop643" offset=".299"/><stop style="stop-color:#a6a6bb" id="stop644" offset=".433"/><stop style="stop-color:#666679" id="stop645" offset=".994"/></linearGradient><polygon id="polygon657" fill="url(#XMLID_46_)" points="32 46.1 7.8 46.1 7.3 41.1 32 41.1"/><linearGradient id="XMLID_47_" x1="-222.619" x2="-222.619" y1="473.574" y2="479.516" gradientTransform="matrix(1 0 0 -1 253.9795 521)" gradientUnits="userSpaceOnUse"><stop style="stop-color:#000" id="stop659" offset="0"/><stop style="stop-color:#000" id="stop660" offset=".983"/></linearGradient><rect id="rect664" width="1.3" height="4.1" x="30.7" y="41.6" fill="url(#XMLID_47_)" enable-background="new" opacity=".7"/><linearGradient id="XMLID_48_" x1="-224.971" x2="-224.971" y1="473.574" y2="479.516" gradientTransform="matrix(1 0 0 -1 253.9795 521)" gradientUnits="userSpaceOnUse"><stop style="stop-color:#fff" id="stop666" offset="0"/><stop style="stop-color:#000" id="stop667" offset="1"/></linearGradient><rect id="rect671" width="1.3" height="4.1" x="28.4" y="41.6" fill="url(#XMLID_48_)" enable-background="new" opacity=".7"/><linearGradient id="XMLID_49_" x1="-227.324" x2="-227.324" y1="473.574" y2="479.516" gradientTransform="matrix(1 0 0 -1 253.9795 521)" gradientUnits="userSpaceOnUse"><stop style="stop-color:#000" id="stop673" offset="0"/><stop style="stop-color:#000" id="stop674" offset=".994"/></linearGradient><rect id="rect678" width="1.3" height="4.1" x="26" y="41.6" fill="url(#XMLID_49_)" enable-background="new" opacity=".7"/><linearGradient id="XMLID_50_" x1="-229.676" x2="-229.676" y1="473.574" y2="479.516" gradientTransform="matrix(1 0 0 -1 253.9795 521)" gradientUnits="userSpaceOnUse"><stop style="stop-color:#000" id="stop680" offset="0"/><stop style="stop-color:#000" id="stop681" offset="1"/></linearGradient><rect id="rect685" width="1.3" height="4.1" x="23.7" y="41.6" fill="url(#XMLID_50_)" enable-background="new" opacity=".7"/><linearGradient id="XMLID_51_" x1="-232.03" x2="-232.03" y1="473.574" y2="479.516" gradientTransform="matrix(1 0 0 -1 253.9795 521)" gradientUnits="userSpaceOnUse"><stop style="stop-color:#000" id="stop687" offset="0"/><stop style="stop-color:#000" id="stop688" offset="1"/></linearGradient><rect id="rect692" width="1.3" height="4.1" x="21.3" y="41.6" fill="url(#XMLID_51_)" enable-background="new" opacity=".7"/><linearGradient id="XMLID_52_" x1="-238.055" x2="-246.494" y1="476.534" y2="476.534" gradientTransform="matrix(1 0 0 -1 253.9795 521)" gradientUnits="userSpaceOnUse"><stop style="stop-color:#cecece" id="stop694" offset=".123"/><stop style="stop-color:#bababa" id="stop695" offset=".277"/><stop style="stop-color:#afafaf" id="stop696" offset=".433"/><stop style="stop-color:#ababab" id="stop697" offset=".596"/><stop style="stop-color:#6e6e6e" id="stop698" offset="1"/><stop style="stop-color:#e3e3e3" id="stop699" offset="1"/></linearGradient><path id="path711" fill="url(#XMLID_52_)" d="M11.3,44.7c3,1.4,10,1.5,10,1.5H7.8l-0.3-3.4C7.5,42.8,7.9,43.1,11.3,44.7z" enable-background="new" opacity=".8"/><rect id="rect712" width="24.7" height=".4" x="7.8" y="45.7" fill="#FFF"/><polygon id="polygon713" fill="#FFF" points="32 45.8 32 41.1 32.5 41.1 32.5 45.8 32 45.8"/><linearGradient id="XMLID_53_" x1="-232.873" x2="-235.581" y1="473.576" y2="487.616" gradientTransform="matrix(1 0 0 -1 253.9795 521)" gradientUnits="userSpaceOnUse"><stop style="stop-color:#9e9eac" id="stop715" offset="0"/><stop style="stop-color:#42425b" id="stop716" offset="1"/></linearGradient><rect id="rect720" width="25.1" height=".4" x="7.4" y="41.1" fill="url(#XMLID_53_)"/></g><linearGradient id="XMLID_54_" x1="-234.108" x2="-234.108" y1="476.666" y2="481.872" gradientTransform="matrix(1 0 0 -1 253.9795 521)" gradientUnits="userSpaceOnUse"><stop style="stop-color:#000" id="stop722" offset="0"/><stop style="stop-color:#000" id="stop723" offset="1"/></linearGradient><path id="path727" fill="url(#XMLID_54_)" d="M7.3,41.1l0.1,1.1c4.5,1.2,11.2,2.3,18.4,2.3c2.3,0,4.5-0.1,6.6-0.2v-3.2H7.3L7.3,41.1z" enable-background="new" opacity=".7"/></g><g id="g728"><linearGradient id="XMLID_55_" x1="-216.07" x2="-216.07" y1="475.494" y2="478.145" gradientTransform="matrix(1 0 0 -1 253.9795 521)" gradientUnits="userSpaceOnUse"><stop style="stop-color:#fff" id="stop730" offset="0"/><stop style="stop-color:#000" id="stop731" offset="1"/></linearGradient><circle id="circle735" cx="37.9" cy="44.5" r="1.6" fill="url(#XMLID_55_)"/><g id="g736"><linearGradient id="XMLID_56_" x1="-216.069" x2="-216.069" y1="474.099" y2="476.388" gradientTransform="matrix(1 0 0 -1 253.9795 521)" gradientUnits="userSpaceOnUse"><stop style="stop-color:#fff" id="stop738" offset=".489"/><stop style="stop-color:#00cd00" id="stop739" offset=".82"/><stop style="stop-color:#00bd00" id="stop740" offset="1"/></linearGradient><circle id="circle746" cx="37.9" cy="44.5" r="1.2" fill="url(#XMLID_56_)"/><linearGradient id="XMLID_57_" x1="-217.576" x2="-216.66" y1="478.734" y2="477.36" gradientTransform="matrix(1 0 0 -1 253.9795 521)" gradientUnits="userSpaceOnUse"><stop style="stop-color:#009500" id="stop748" offset=".011"/><stop style="stop-color:#009000" id="stop749" offset=".298"/><stop style="stop-color:#005b00" id="stop750" offset="1"/></linearGradient><path id="path756" fill="url(#XMLID_57_)" d="M36.6,44.5c0,0.7,0.6,1.3,1.3,1.3c0.7,0,1.3-0.6,1.3-1.3s-0.6-1.3-1.3-1.3 C37.2,43.2,36.6,43.8,36.6,44.5z M36.7,44.5c0-0.6,0.5-1.2,1.2-1.2c0.6,0,1.2,0.5,1.2,1.2c0,0.6-0.5,1.2-1.2,1.2 C37.3,45.7,36.7,45.2,36.7,44.5z"/><linearGradient id="XMLID_58_" x1="-216.103" x2="-216.103" y1="477.582" y2="476.275" gradientTransform="matrix(1 0 0 -1 253.9795 521)" gradientUnits="userSpaceOnUse"><stop style="stop-color:#fff" id="stop758" offset="0"/><stop style="stop-color:#e9fae9" id="stop759" offset=".115"/><stop style="stop-color:#b0edb0" id="stop760" offset=".354"/><stop style="stop-color:#57d957" id="stop761" offset=".694"/><stop style="stop-color:#00c500" id="stop762" offset="1"/></linearGradient><path id="path772" fill="url(#XMLID_58_)" d="M37.9,44.6c0.4-0.3,0.8-0.4,1-0.5c-0.2-0.4-0.6-0.6-1-0.6c-0.6,0-1.1,0.5-1.1,1.1 c0,0.1,0,0.2,0,0.3C37,44.9,37.5,44.9,37.9,44.6z"/></g></g></g><g id="g773"><g id="g774"><linearGradient id="XMLID_59_" x1="-230.591" x2="-230.277" y1="489.88" y2="499.768" gradientTransform="matrix(1 0 0 -1 253.9795 521)" gradientUnits="userSpaceOnUse"><stop style="stop-color:#fff" id="stop776" offset="0"/><stop style="stop-color:#f0f0ff" id="stop777" offset=".163"/><stop style="stop-color:#354c60" id="stop778" offset="1"/></linearGradient><path id="path784" fill="url(#XMLID_59_)" d="M35.7,23.5c-0.1-0.2-0.3-0.4-0.4-0.6L34.7,12l-0.9-0.9l-5.2,7.8c-1.6-0.4-3.3-0.6-5-0.6 c-7.4,0-13.3,3.9-13.3,8.7c0,4.8,6,8.7,13.3,8.7c7.4,0,13.3-3.9,13.3-8.7C36.9,25.7,36.4,24.5,35.7,23.5z"/><linearGradient id="XMLID_60_" x1="-230.46" x2="-230.46" y1="473.99" y2="498.209" gradientTransform="matrix(1 0 0 -1 253.9795 521)" gradientUnits="userSpaceOnUse"><stop style="stop-color:#fff" id="stop786" offset="0"/><stop style="stop-color:#c2cfdc" id="stop787" offset=".764"/><stop style="stop-color:#b8c2d4" id="stop788" offset="1"/></linearGradient><path id="path794" fill="url(#XMLID_60_)" d="M34.8,23.5c-0.1-0.2-0.3-0.4-0.4-0.5l-0.5-10L33,12l-4.9,7.2c-1.4-0.4-3-0.6-4.7-0.6 c-6.8,0-12.3,3.6-12.3,8c0,4.4,5.5,8,12.3,8c6.8,0,12.3-3.6,12.3-8C35.9,25.5,35.5,24.5,34.8,23.5z"/><linearGradient id="XMLID_61_" x1="-230.664" x2="-230.58" y1="492.263" y2="494.912" gradientTransform="matrix(1 0 0 -1 253.9795 521)" gradientUnits="userSpaceOnUse"><stop style="stop-color:#fff" id="stop796" offset="0"/><stop style="stop-color:#f0f0ff" id="stop797" offset=".163"/><stop style="stop-color:#354c60" id="stop798" offset="1"/></linearGradient><ellipse id="ellipse804" cx="23.4" cy="26.6" fill="url(#XMLID_61_)" rx="5.5" ry="3.3"/><linearGradient id="XMLID_62_" x1="-230.597" x2="-230.597" y1="488.352" y2="494.529" gradientTransform="matrix(1 0 0 -1 253.9795 521)" gradientUnits="userSpaceOnUse"><stop style="stop-color:#fff" id="stop806" offset="0"/><stop style="stop-color:#c2cfdc" id="stop807" offset=".764"/><stop style="stop-color:#b8c2d4" id="stop808" offset="1"/></linearGradient><ellipse id="ellipse814" cx="23.4" cy="26.6" fill="url(#XMLID_62_)" rx="4.8" ry="2.9"/></g><g id="g815"><linearGradient id="XMLID_63_" x1="-235.499" x2="-235.43" y1="504.481" y2="506.649" gradientTransform="matrix(1 0 0 -1 253.9795 521)" gradientUnits="userSpaceOnUse"><stop style="stop-color:#fff" id="stop817" offset="0"/><stop style="stop-color:#f0f0ff" id="stop818" offset=".163"/><stop style="stop-color:#354c60" id="stop819" offset="1"/></linearGradient><path id="path825" fill="url(#XMLID_63_)" d="M26.9,13c0-0.4-0.3-0.7-0.7-0.7H11.1c-0.4,0-0.6,0.3-0.7,0.7l-0.4,3.9 c0.1,0.3,0.3,0.4,0.6,0.4h15.6c0.4,0,0.6-0.3,0.6-0.6v-0.4L26.9,13z"/><linearGradient id="XMLID_64_" x1="-235.505" x2="-235.505" y1="501.809" y2="506.326" gradientTransform="matrix(1 0 0 -1 253.9795 521)" gradientUnits="userSpaceOnUse"><stop style="stop-color:#fff" id="stop827" offset="0"/><stop style="stop-color:#c2cfdc" id="stop828" offset=".764"/><stop style="stop-color:#b8c2d4" id="stop829" offset="1"/></linearGradient><path id="path835" fill="url(#XMLID_64_)" d="M26.3,13.2c0-0.3-0.3-0.6-0.6-0.6H11.6c-0.3,0-0.6,0.2-0.6,0.6l-0.4,3.3 c0.1,0.2,0.3,0.4,0.6,0.4h14.6c0.3,0,0.6-0.2,0.6-0.5V16L26.3,13.2z"/><path id="path836" fill="#FFF" d="M25.4,13.4c0-0.3-0.2-0.5-0.5-0.5H12.4c-0.3,0-0.5,0.2-0.5,0.5L11.5,16c0.1,0.2,0.3,0.3,0.5,0.3h12.8 c0.3,0,0.5-0.2,0.5-0.4v-0.3L25.4,13.4z"/><path id="path837" d="M25.4,13.3c0-0.2-0.2-0.4-0.5-0.4H12.4c-0.3,0-0.5,0.2-0.5,0.4l-0.3,2.2c0.1,0.1,0.3,0.3,0.5,0.3h12.8 c0.3,0,0.5-0.2,0.5-0.4v-0.2L25.4,13.3z"/></g></g><linearGradient id="XMLID_65_" x1="-202.049" x2="-241.6" y1="519.289" y2="485.86" gradientTransform="matrix(1 0 0 -1 253.9795 521)" gradientUnits="userSpaceOnUse"><stop style="stop-color:#fff" id="stop839" offset="0"/><stop style="stop-color:#c2cfdc" id="stop840" offset=".764"/><stop style="stop-color:#b8c2d4" id="stop841" offset="1"/></linearGradient><path id="path847" fill="url(#XMLID_65_)" d="M36,8.3H12c-0.9,0-1.5,0.7-1.6,1.6L7.5,39.1H9h30h1.5L37.7,9.9 C37.5,9,36.9,8.3,36,8.3z" opacity=".75"/><g id="g848"><g id="g849"><g id="g850"><linearGradient id="XMLID_66_" x1="-244.668" x2="-244.697" y1="483.635" y2="485.322" gradientTransform="matrix(1 0 0 -1 253.9795 521)" gradientUnits="userSpaceOnUse"><stop style="stop-color:#fff" id="stop852" offset="0"/><stop style="stop-color:#f0f0ff" id="stop853" offset=".348"/><stop style="stop-color:#8d99a9" id="stop854" offset="1"/></linearGradient><circle id="circle860" cx="9.3" cy="35.8" r="1.3" fill="url(#XMLID_66_)"/><linearGradient id="XMLID_67_" x1="-244.73" x2="-244.73" y1="486.264" y2="485.176" gradientTransform="matrix(1 0 0 -1 253.9795 521)" gradientUnits="userSpaceOnUse"><stop style="stop-color:#fff" id="stop862" offset=".109"/><stop style="stop-color:#fff" id="stop863" offset="1"/></linearGradient><path id="path867" fill="url(#XMLID_67_)" d="M9.3,35.8c0.5-0.3,0.9-0.4,1.1-0.4c-0.2-0.3-0.6-0.5-1.1-0.5c-0.6,0-1.2,0.4-1.2,0.9c0,0.1,0,0.2,0,0.2 C8.4,36.1,8.8,36.1,9.3,35.8z" enable-background="new"/><linearGradient id="XMLID_68_" x1="-244.695" x2="-244.695" y1="484.055" y2="484.453" gradientTransform="matrix(1 0 0 -1 253.9795 521)" gradientUnits="userSpaceOnUse"><stop style="stop-color:#9e9eac" id="stop869" offset="0"/><stop style="stop-color:#42425b" id="stop870" offset="1"/></linearGradient><path id="path874" fill="url(#XMLID_68_)" d="M7.9,35.8c0,0.6,0.6,1.1,1.4,1.1c0.8,0,1.4-0.5,1.4-1.1c0-0.6-0.6-1.1-1.4-1.1 C8.5,34.8,7.9,35.2,7.9,35.8z M8,35.8c0-0.5,0.6-1,1.2-1s1.2,0.4,1.2,1c0,0.5-0.6,1-1.2,1S8,36.4,8,35.8z"/><g id="g875"><rect id="rect876" width="2.4" height=".1" x="8.1" y="35.8" fill="#EEE"/><linearGradient id="XMLID_69_" x1="-244.746" x2="-244.746" y1="484.635" y2="484.837" gradientTransform="matrix(1 0 0 -1 253.9795 521)" gradientUnits="userSpaceOnUse"><stop style="stop-color:#9e9eac" id="stop878" offset="0"/><stop style="stop-color:#42425b" id="stop879" offset="1"/></linearGradient><rect id="rect883" width="2.4" height=".1" x="8" y="35.7" fill="url(#XMLID_69_)"/></g></g><g id="g884"><linearGradient id="XMLID_70_" x1="-215.698" x2="-215.727" y1="483.635" y2="485.322" gradientTransform="matrix(1 0 0 -1 253.9795 521)" gradientUnits="userSpaceOnUse"><stop style="stop-color:#fff" id="stop886" offset="0"/><stop style="stop-color:#f0f0ff" id="stop887" offset=".348"/><stop style="stop-color:#8d99a9" id="stop888" offset="1"/></linearGradient><circle id="circle894" cx="38.3" cy="35.8" r="1.3" fill="url(#XMLID_70_)"/><linearGradient id="XMLID_71_" x1="-215.759" x2="-215.759" y1="486.264" y2="485.176" gradientTransform="matrix(1 0 0 -1 253.9795 521)" gradientUnits="userSpaceOnUse"><stop style="stop-color:#fff" id="stop896" offset=".115"/><stop style="stop-color:#fff" id="stop897" offset="1"/></linearGradient><path id="path901" fill="url(#XMLID_71_)" d="M38.3,35.8c0.5-0.3,0.9-0.4,1.1-0.4c-0.2-0.3-0.6-0.5-1.1-0.5c-0.6,0-1.2,0.4-1.2,0.9c0,0.1,0,0.2,0,0.2 C37.3,36.1,37.8,36.1,38.3,35.8z" enable-background="new"/><linearGradient id="XMLID_72_" x1="-215.724" x2="-215.724" y1="484.055" y2="484.453" gradientTransform="matrix(1 0 0 -1 253.9795 521)" gradientUnits="userSpaceOnUse"><stop style="stop-color:#9e9eac" id="stop903" offset="0"/><stop style="stop-color:#42425b" id="stop904" offset="1"/></linearGradient><path id="path908" fill="url(#XMLID_72_)" d="M36.9,35.8c0,0.6,0.6,1.1,1.4,1.1c0.8,0,1.4-0.5,1.4-1.1c0-0.6-0.6-1.1-1.4-1.1 C37.5,34.8,36.9,35.2,36.9,35.8z M37,35.8c0-0.5,0.6-1,1.2-1c0.7,0,1.2,0.4,1.2,1c0,0.5-0.6,1-1.2,1 C37.6,36.8,37,36.4,37,35.8z"/><g id="g909"><rect id="rect910" width="2.4" height=".1" x="37" y="35.8" fill="#EEE"/><linearGradient id="XMLID_73_" x1="-215.775" x2="-215.775" y1="484.635" y2="484.837" gradientTransform="matrix(1 0 0 -1 253.9795 521)" gradientUnits="userSpaceOnUse"><stop style="stop-color:#9e9eac" id="stop912" offset="0"/><stop style="stop-color:#42425b" id="stop913" offset="1"/></linearGradient><rect id="rect917" width="2.4" height=".1" x="37" y="35.7" fill="url(#XMLID_73_)"/></g></g></g><g id="g918"><g id="g919"><linearGradient id="XMLID_74_" x1="-242.015" x2="-242.039" y1="509.607" y2="511.037" gradientTransform="matrix(1 0 0 -1 253.9795 521)" gradientUnits="userSpaceOnUse"><stop style="stop-color:#fff" id="stop921" offset="0"/><stop style="stop-color:#f0f0ff" id="stop922" offset=".348"/><stop style="stop-color:#8d99a9" id="stop923" offset="1"/></linearGradient><circle id="circle929" cx="11.9" cy="10.1" r="1.1" fill="url(#XMLID_74_)"/><linearGradient id="XMLID_75_" x1="-242.067" x2="-242.067" y1="511.833" y2="510.914" gradientTransform="matrix(1 0 0 -1 253.9795 521)" gradientUnits="userSpaceOnUse"><stop style="stop-color:#fff" id="stop931" offset="0"/><stop style="stop-color:#000" id="stop932" offset="1"/></linearGradient><path id="path936" fill="url(#XMLID_75_)" d="M11.9,10.1c0.4-0.2,0.7-0.3,0.9-0.3c-0.1-0.3-0.5-0.5-0.9-0.5c-0.5,0-1,0.3-1,0.8c0,0.1,0,0.1,0,0.2 C11.2,10.3,11.6,10.3,11.9,10.1z" enable-background="new"/><linearGradient id="XMLID_76_" x1="-242.037" x2="-242.037" y1="509.965" y2="510.302" gradientTransform="matrix(1 0 0 -1 253.9795 521)" gradientUnits="userSpaceOnUse"><stop style="stop-color:#9e9eac" id="stop938" offset="0"/><stop style="stop-color:#42425b" id="stop939" offset="1"/></linearGradient><path id="path943" fill="url(#XMLID_76_)" d="M10.8,10.1c0,0.5,0.5,0.9,1.1,0.9s1.1-0.4,1.1-0.9s-0.5-0.9-1.1-0.9S10.8,9.6,10.8,10.1z M10.9,10.1c0-0.5,0.5-0.8,1-0.8s1,0.4,1,0.8s-0.5,0.8-1,0.8C11.4,10.9,10.9,10.5,10.9,10.1z"/><g id="g944"><rect id="rect945" width="2" height=".1" x="10.9" y="10.1" fill="#EEE"/><linearGradient id="XMLID_77_" x1="-242.08" x2="-242.08" y1="510.456" y2="510.627" gradientTransform="matrix(1 0 0 -1 253.9795 521)" gradientUnits="userSpaceOnUse"><stop style="stop-color:#9e9eac" id="stop947" offset="0"/><stop style="stop-color:#42425b" id="stop948" offset="1"/></linearGradient><rect id="rect952" width="2" height=".1" x="10.9" y="10" fill="url(#XMLID_77_)"/></g></g><g id="g953"><linearGradient id="XMLID_78_" x1="-217.898" x2="-217.922" y1="509.608" y2="511.037" gradientTransform="matrix(1 0 0 -1 253.9795 521)" gradientUnits="userSpaceOnUse"><stop style="stop-color:#fff" id="stop955" offset="0"/><stop style="stop-color:#f0f0ff" id="stop956" offset=".348"/><stop style="stop-color:#8d99a9" id="stop957" offset="1"/></linearGradient><circle id="circle963" cx="36.1" cy="10.1" r="1.1" fill="url(#XMLID_78_)"/><linearGradient id="XMLID_79_" x1="-217.949" x2="-217.949" y1="511.833" y2="510.914" gradientTransform="matrix(1 0 0 -1 253.9795 521)" gradientUnits="userSpaceOnUse"><stop style="stop-color:#fff" id="stop965" offset=".023"/><stop style="stop-color:#fff" id="stop966" offset="1"/></linearGradient><path id="path970" fill="url(#XMLID_79_)" d="M36.1,10.1c0.4-0.2,0.7-0.3,0.9-0.3c-0.2-0.3-0.5-0.5-0.9-0.5c-0.5,0-1,0.3-1,0.8c0,0.1,0,0.1,0,0.2 C35.3,10.3,35.7,10.3,36.1,10.1z" enable-background="new"/><linearGradient id="XMLID_80_" x1="-217.92" x2="-217.92" y1="509.965" y2="510.302" gradientTransform="matrix(1 0 0 -1 253.9795 521)" gradientUnits="userSpaceOnUse"><stop style="stop-color:#9e9eac" id="stop972" offset="0"/><stop style="stop-color:#42425b" id="stop973" offset="1"/></linearGradient><path id="path977" fill="url(#XMLID_80_)" d="M34.9,10.1c0,0.5,0.5,0.9,1.1,0.9c0.6,0,1.1-0.4,1.1-0.9s-0.5-0.9-1.1-0.9 C35.4,9.2,34.9,9.6,34.9,10.1z M35,10.1c0-0.5,0.5-0.8,1-0.8c0.6,0,1,0.4,1,0.8s-0.5,0.8-1,0.8C35.5,10.9,35,10.5,35,10.1z"/><g id="g978"><rect id="rect979" width="2" height=".1" x="35" y="10.1" fill="#EEE"/><linearGradient id="XMLID_81_" x1="-217.962" x2="-217.962" y1="510.456" y2="510.627" gradientTransform="matrix(1 0 0 -1 253.9795 521)" gradientUnits="userSpaceOnUse"><stop style="stop-color:#9e9eac" id="stop981" offset="0"/><stop style="stop-color:#42425b" id="stop982" offset="1"/></linearGradient><rect id="rect986" width="2" height=".1" x="35" y="10" fill="url(#XMLID_81_)"/></g></g></g></g><path id="path987" d="M39,20.8c-0.4-0.5-1.2-0.8-2.1-0.8 c0,0-3.2,0-4.2,0c0-0.6,0-5.3,0-5.3c0-0.7-1-1.3-2.3-1.3H17.6c-1.3,0-2.3,0.6-2.3,1.3c0,0,0,4.6,0,5.3c-1,0-4.2,0-4.2,0 c-0.9,0-1.8,0.3-2.1,0.8C9,21,8.9,21.2,8.9,21.3c0,0.3,0.2,0.7,0.7,0.9l12.8,7.2c0.9,0.5,2.3,0.5,3.2,0l12.8-7.2 C39.1,21.9,39.3,21.3,39,20.8z" enable-background="new" opacity=".15"/><linearGradient id="XMLID_82_" x1="-229.958" x2="-229.958" y1="490.044" y2="514.572" gradientTransform="matrix(1 0 0 -1 253.9795 521)" gradientUnits="userSpaceOnUse"><stop style="stop-color:#009500" id="stop989" offset=".011"/><stop style="stop-color:#009000" id="stop990" offset=".298"/><stop style="stop-color:#005b00" id="stop991" offset="1"/></linearGradient><path id="path997" fill="url(#XMLID_82_)" d="M17.6,0c-1.3,0-2.3,1-2.3,2.3c0,0,0,8.2,0,9.4c-1,0-4.2,0-4.2,0c-0.9,0-1.8,0.6-2.1,1.4 C9,13.4,8.9,13.7,8.9,14c0,0.6,0.2,1.2,0.7,1.6l12.8,12.8c0.9,0.9,2.3,0.9,3.2,0l12.8-12.8c0.7-0.7,0.9-1.6,0.5-2.5v0 c-0.4-0.9-1.2-1.4-2.1-1.4c0,0-3.2,0-4.2,0c0-1.2,0-9.4,0-9.4c0-1.3-1-2.3-2.3-2.3H17.6z M23.3,27.5L10.5,14.6 c-0.2-0.2-0.3-0.4-0.3-0.7c0-0.1,0-0.3,0.1-0.4c0.1-0.4,0.5-0.6,0.9-0.6h5.5V2.3c0-0.5,0.4-1,1-1h12.7c0.5,0,1,0.4,1,1V13h5.5 c0.4,0,0.7,0.2,0.9,0.6c0.1,0.1,0.1,0.2,0.1,0.4c0,0.3-0.1,0.5-0.3,0.7L24.7,27.5C24.3,27.8,23.7,27.8,23.3,27.5z"/><linearGradient id="XMLID_83_" x1="-244.412" x2="-215.628" y1="506.466" y2="506.466" gradientTransform="matrix(1 0 0 -1 253.9795 521)" gradientUnits="userSpaceOnUse"><stop style="stop-color:#fff" id="stop999" offset="0"/><stop style="stop-color:#00cd00" id="stop1000" offset=".405"/><stop style="stop-color:#006f00" id="stop1001" offset="1"/></linearGradient><path id="path1007" fill="url(#XMLID_83_)" d="M38.4,13.3c-0.3-0.6-0.8-1-1.5-1c0,0-3,0-4.8,0c0-2.4,0-10,0-10c0-0.9-0.7-1.6-1.6-1.6H17.6 c-0.9,0-1.6,0.7-1.6,1.6c0,0,0,7.6,0,10c-1.8,0-4.8,0-4.8,0c-0.7,0-1.3,0.4-1.5,1c-0.1,0.2-0.1,0.4-0.1,0.6 c0,0.4,0.2,0.8,0.5,1.1l12.8,12.8c0.6,0.6,1.7,0.6,2.3,0L38,15.1C38.5,14.6,38.6,13.9,38.4,13.3z"/><linearGradient id="XMLID_84_" x1="-230.236" x2="-230.236" y1="518.076" y2="501.806" gradientTransform="matrix(1 0 0 -1 253.9795 521)" gradientUnits="userSpaceOnUse"><stop style="stop-color:#fff" id="stop1009" offset=".057"/><stop style="stop-color:#fff" id="stop1010" offset="1"/></linearGradient><path id="path1014" fill="url(#XMLID_84_)" d="M31.3,12.6c0-2.2,0-9.8,0-9.8c0-0.8-0.7-1.5-1.5-1.5H18.1c-0.8,0-1.5,0.7-1.5,1.5c0,0,0,7.6,0,9.8c-1.7,0-4.4,0-4.4,0 c-0.6,0-1.1,0.4-1.4,0.9c0,0.1,0,0.1-0.1,0.2c3.1,2.1,7.5,3.5,12.4,3.5c5.5,0,10.4-1.7,13.5-4.3c-0.3-0.2-0.6-0.3-0.9-0.3 C35.8,12.6,33,12.6,31.3,12.6z" enable-background="new" opacity=".6"/></g><rect id="rect1015" width="48" height="48" fill="none" opacity=".75"/></g></g></svg>