<svg xmlns="http://www.w3.org/2000/svg" xmlns:xlink="http://www.w3.org/1999/xlink" id="svg602" width="48" height="48" enable-background="new 0 0 48 48" overflow="visible" viewBox="0 0 48 48" xml:space="preserve"><g id="Layer_x0020_1"><g id="g605"><rect id="rect606" width="48" height="48" fill="none"/><path id="path607" fill="#000030" d="M45.2,19.4L45.2,19.4 c1.8-1,2.5-3.3,1.5-5.1c-0.9-1.8-3.1-2.6-5-1.8l0,0l0,0l-8.3,4.2c-2.1-1.9-4.8-3.1-7.8-3.1c-2.1,0-4,0.5-5.7,1.5 c-2.9-2.6-6.3-5.5-6.3-5.5l0,0l0,0C12,8.3,9.6,8.6,8.3,10.1C6.9,11.7,7,14,8.5,15.4l0,0l0,0l6.3,5.5c-0.5,1.3-0.8,2.7-0.8,4.2 c0,0.5,0,1,0.1,1.5L3.8,31.9c-0.9,0.5-1.6,1.3-1.9,2.2c-0.3,1-0.2,2,0.2,2.9c1,1.9,3.3,2.6,5.2,1.7c0,0,6.9-3.5,10.4-5.3 c2.1,1.9,4.8,3.1,7.9,3.1c2,0,3.8-0.5,5.5-1.4l8.3,7.2c0.8,0.7,1.8,1,2.8,0.9c1-0.1,2-0.5,2.6-1.3c1.4-1.6,1.2-4-0.4-5.4 c0,0-5.1-4.4-8.2-7.1c0.6-1.4,0.9-2.8,0.9-4.4c0-0.5,0-1.1-0.1-1.6C40.5,21.8,45.2,19.4,45.2,19.4L45.2,19.4L45.2,19.4z" enable-background="new" opacity=".2"/><linearGradient id="XMLID_104_" x1="-203.018" x2="-195.677" y1="361.224" y2="348.418" gradientTransform="matrix(1 0 0 -1 234.5 371.5)" gradientUnits="userSpaceOnUse"><stop style="stop-color:#fff" id="stop609" offset="0"/><stop style="stop-color:#000" id="stop610" offset="1"/></linearGradient><path id="path614" fill="url(#XMLID_104_)" d="M40.4,11.2L40.4,11.2L40.4,11.2l-12.5,6.3C27,18,26.3,18.8,26,19.7c-0.3,1-0.2,2,0.2,2.9 c1,1.9,3.3,2.6,5.2,1.7c0,0,12.4-6.3,12.4-6.3l0,0l0,0c1.8-1,2.5-3.3,1.5-5.1C44.5,11.1,42.3,10.4,40.4,11.2L40.4,11.2z"/><linearGradient id="XMLID_105_" x1="-195.463" x2="-201.383" y1="347.349" y2="358.966" gradientTransform="matrix(1 0 0 -1 234.5 371.5)" gradientUnits="userSpaceOnUse"><stop style="stop-color:#000" id="stop616" offset="0"/><stop style="stop-color:#0d0d0d" id="stop617" offset=".059"/><stop style="stop-color:#2e2e2e" id="stop618" offset=".168"/><stop style="stop-color:#646464" id="stop619" offset=".313"/><stop style="stop-color:#aeaeae" id="stop620" offset=".489"/><stop style="stop-color:#fff" id="stop621" offset=".665"/><stop style="stop-color:#d1d1d1" id="stop622" offset=".69"/><stop style="stop-color:#a1a1a1" id="stop623" offset=".72"/><stop style="stop-color:#767676" id="stop624" offset=".753"/><stop style="stop-color:#515151" id="stop625" offset=".786"/><stop style="stop-color:#343434" id="stop626" offset=".821"/><stop style="stop-color:#1d1d1d" id="stop627" offset=".858"/><stop style="stop-color:#0d0d0d" id="stop628" offset=".897"/><stop style="stop-color:#030303" id="stop629" offset=".941"/><stop style="stop-color:#000" id="stop630" offset="1"/></linearGradient><path id="path660" fill="url(#XMLID_105_)" d="M31,23.5L31,23.5l12.4-6.3l0,0c1.3-0.8,1.8-2.4,1.1-3.8c-0.7-1.4-2.4-1.9-3.7-1.3l0,0 l-12.4,6.3c0,0,0,0,0,0c-1.4,0.7-2,2.4-1.3,3.9C27.8,23.6,29.5,24.2,31,23.5L31,23.5z"/><circle id="circle661" cx="29.7" cy="20.9" r="2.9" fill="#FFF"/><linearGradient id="XMLID_106_" x1="-203.743" x2="-206.053" y1="348.402" y2="352.935" gradientTransform="matrix(1 0 0 -1 234.5 371.5)" gradientUnits="userSpaceOnUse"><stop style="stop-color:#fff" id="stop663" offset=".144"/><stop style="stop-color:#000" id="stop664" offset="1"/></linearGradient><path id="path668" fill="url(#XMLID_106_)" d="M31.6,19.9c-0.6-1.1-1.9-1.5-3-1c-1.1,0.6-1.5,1.9-1,3c0.6,1.1,1.9,1.5,3,1 C31.8,22.4,32.2,21,31.6,19.9L31.6,19.9z"/><linearGradient id="XMLID_107_" x1="-199.318" x2="-249.564" y1="338.06" y2="381.943" gradientTransform="matrix(1 0 0 -1 234.5 371.5)" gradientUnits="userSpaceOnUse"><stop style="stop-color:#000" id="stop670" offset="0"/><stop style="stop-color:#1b1b1b" id="stop671" offset=".131"/><stop style="stop-color:#606060" id="stop672" offset=".413"/><stop style="stop-color:#cdcdcd" id="stop673" offset=".821"/><stop style="stop-color:#fff" id="stop674" offset="1"/></linearGradient><path id="path684" fill="url(#XMLID_107_)" d="M7.2,14.1L7.2,14.1L7.2,14.1l10.5,9.2c0.8,0.7,1.8,1,2.8,0.9c1-0.1,2-0.5,2.6-1.3 c1.4-1.6,1.2-4-0.4-5.4c0,0-10.5-9.2-10.5-9.2l0,0l0,0C10.6,7,8.3,7.2,7,8.8C5.6,10.3,5.7,12.7,7.2,14.1L7.2,14.1z"/><linearGradient id="XMLID_108_" x1="-169.589" x2="-175.507" y1="229.487" y2="241.102" gradientTransform="matrix(-0.3746 -0.9272 -0.9272 0.3746 168.9547 -232.7201)" gradientUnits="userSpaceOnUse"><stop style="stop-color:#000" id="stop686" offset="0"/><stop style="stop-color:#060606" id="stop687" offset=".045"/><stop style="stop-color:#171717" id="stop688" offset=".106"/><stop style="stop-color:#333" id="stop689" offset=".175"/><stop style="stop-color:#5a5a5a" id="stop690" offset=".251"/><stop style="stop-color:#8d8d8d" id="stop691" offset=".332"/><stop style="stop-color:#c9c9c9" id="stop692" offset=".416"/><stop style="stop-color:#fff" id="stop693" offset=".484"/><stop style="stop-color:#f2f2f2" id="stop694" offset=".503"/><stop style="stop-color:#a9a9a9" id="stop695" offset=".611"/><stop style="stop-color:#6d6d6d" id="stop696" offset=".714"/><stop style="stop-color:#3e3e3e" id="stop697" offset=".806"/><stop style="stop-color:#1c1c1c" id="stop698" offset=".888"/><stop style="stop-color:#070707" id="stop699" offset=".955"/><stop style="stop-color:#000" id="stop700" offset="1"/></linearGradient><path id="path730" fill="url(#XMLID_108_)" d="M22.1,18.2L22.1,18.2L11.6,9.1l0,0c-1.2-0.9-2.9-0.8-3.9,0.4c-1,1.2-0.9,2.9,0.2,4l0,0 l10.5,9.2c0,0,0,0,0,0c1.2,1,3,0.9,4-0.3C23.4,21.1,23.3,19.3,22.1,18.2z"/><path id="path731" fill="#FFF" d="M22.4,22.3c-1,1.2-2.9,1.3-4,0.3c-1.2-1-1.3-2.9-0.3-4c1-1.2,2.9-1.3,4-0.3 C23.3,19.3,23.4,21.1,22.4,22.3L22.4,22.3z"/><linearGradient id="XMLID_109_" x1="-181.25" x2="-176.485" y1="231.923" y2="233.564" gradientTransform="matrix(-0.3746 -0.9272 -0.9272 0.3746 168.9547 -232.7201)" gradientUnits="userSpaceOnUse"><stop style="stop-color:#fff" id="stop733" offset=".064"/><stop style="stop-color:#000" id="stop734" offset="1"/></linearGradient><circle id="circle738" cx="20.2" cy="20.4" r="2.2" fill="url(#XMLID_109_)"/><linearGradient id="XMLID_110_" x1="-221.804" x2="-198.798" y1="347.681" y2="347.681" gradientTransform="matrix(1 0 0 -1 234.5 371.5)" gradientUnits="userSpaceOnUse"><stop style="stop-color:#ffae00" id="stop740" offset="0"/><stop style="stop-color:#4c1c00" id="stop741" offset="1"/></linearGradient><path id="path745" fill="url(#XMLID_110_)" d="M12.7,23.8c0,6.3,5.2,11.5,11.5,11.5c6.3,0,11.5-5.2,11.5-11.5s-5.2-11.5-11.5-11.5 C17.9,12.3,12.7,17.5,12.7,23.8z"/><radialGradient id="XMLID_111_" cx="-214.195" cy="351.465" r="11.308" fx="-214.195" fy="351.465" gradientTransform="matrix(1 0 0 -1 234.5 371.5)" gradientUnits="userSpaceOnUse"><stop style="stop-color:#ffffe1" id="stop747" offset=".266"/><stop style="stop-color:#ffb800" id="stop748" offset="1"/></radialGradient><circle id="circle752" cx="24.2" cy="23.8" r="10.2" fill="url(#XMLID_111_)"/><radialGradient id="XMLID_112_" cx="-214.368" cy="352.035" r="16.214" fx="-214.368" fy="352.035" gradientTransform="matrix(1 0 0 -1 234.5 371.5)" gradientUnits="userSpaceOnUse"><stop style="stop-color:#ffffe1" id="stop754" offset=".005"/><stop style="stop-color:#fff5c2" id="stop755" offset=".094"/><stop style="stop-color:#ffdb70" id="stop756" offset=".347"/><stop style="stop-color:#ffc834" id="stop757" offset=".555"/><stop style="stop-color:#ffbc0e" id="stop758" offset=".707"/><stop style="stop-color:#ffb800" id="stop759" offset=".787"/><stop style="stop-color:#fdb200" id="stop760" offset=".811"/><stop style="stop-color:#f59a00" id="stop761" offset=".928"/><stop style="stop-color:#f29100" id="stop762" offset="1"/></radialGradient><circle id="circle780" cx="24.2" cy="23.8" r="10.2" fill="url(#XMLID_112_)"/><linearGradient id="XMLID_113_" x1="-217" x2="-217" y1="356.008" y2="335.626" gradientTransform="matrix(0.7547 -0.6561 -0.6561 -0.7547 417.744 145.7052)" gradientUnits="userSpaceOnUse"><stop style="stop-color:#fff" id="stop782" offset="0"/><stop style="stop-color:#ffefc6" id="stop783" offset=".148"/><stop style="stop-color:#ffdf8a" id="stop784" offset=".319"/><stop style="stop-color:#ffd159" id="stop785" offset=".484"/><stop style="stop-color:#ffc632" id="stop786" offset=".639"/><stop style="stop-color:#ffbe17" id="stop787" offset=".781"/><stop style="stop-color:#ffba06" id="stop788" offset=".906"/><stop style="stop-color:#ffb800" id="stop789" offset="1"/></linearGradient><path id="path805" fill="url(#XMLID_113_)" d="M17.5,30.1c6,1.9,7.4-3.4,6.9-6c-0.5-2.6,2.1-6.8,6.9-6c-3.3-3.8-9.1-4.2-13-0.9 C14.6,20.4,14.2,26.3,17.5,30.1L17.5,30.1z"/><g id="g806"><linearGradient id="XMLID_114_" x1="-173.168" x2="-164.333" y1="319.737" y2="306.861" gradientTransform="matrix(0.7547 0.6561 0.6561 -0.7547 -43.1398 382.5964)" gradientUnits="userSpaceOnUse"><stop style="stop-color:#fff" id="stop808" offset="0"/><stop style="stop-color:#4b4b73" id="stop809" offset="1"/></linearGradient><path id="path813" fill="url(#XMLID_114_)" d="M42.3,36L42.3,36l-10.5-9.2l0,0c-1.2-0.9-2.9-0.8-3.9,0.4c-1,1.2-0.9,2.9,0.2,4l0,0l10.5,9.2 c0,0,0,0,0,0c1.2,1,3,0.9,4-0.3C43.7,38.8,43.5,37,42.3,36L42.3,36z"/><linearGradient id="XMLID_115_" x1="-164.317" x2="-160.62" y1="316.866" y2="311.477" gradientTransform="matrix(0.7547 0.6561 0.6561 -0.7547 -43.1398 382.5964)" gradientUnits="userSpaceOnUse"><stop style="stop-color:#fff" id="stop815" offset="0"/><stop style="stop-color:#8c8ca4" id="stop816" offset="1"/></linearGradient><circle id="circle820" cx="40.5" cy="38.1" r="2.9" fill="url(#XMLID_115_)"/><linearGradient id="XMLID_116_" x1="-164.317" x2="-160.619" y1="316.866" y2="311.476" gradientTransform="matrix(0.7547 0.6561 0.6561 -0.7547 -43.1398 382.5964)" gradientUnits="userSpaceOnUse"><stop style="stop-color:#fff" id="stop822" offset="0"/><stop style="stop-color:#000" id="stop823" offset="1"/></linearGradient><path id="path827" fill="url(#XMLID_116_)" d="M38.8,36.7C38,37.6,38.1,39,39,39.8s2.3,0.7,3.1-0.2c0.8-0.9,0.7-2.3-0.2-3.1 S39.6,35.7,38.8,36.7L38.8,36.7z"/></g><linearGradient id="XMLID_117_" x1="-228.506" x2="-221.165" y1="348.148" y2="335.342" gradientTransform="matrix(1 0 0 -1 234.5 371.5)" gradientUnits="userSpaceOnUse"><stop style="stop-color:#fff" id="stop829" offset="0"/><stop style="stop-color:#000" id="stop830" offset="1"/></linearGradient><path id="path834" fill="url(#XMLID_117_)" d="M14.9,24.3L14.9,24.3L14.9,24.3L2.4,30.6c-0.9,0.5-1.6,1.3-1.9,2.2c-0.3,1-0.2,2,0.2,2.9 c1,1.9,3.3,2.6,5.2,1.7c0,0,12.4-6.3,12.4-6.3l0,0l0,0c1.8-1,2.5-3.3,1.5-5.1C19,24.2,16.8,23.4,14.9,24.3L14.9,24.3z"/><linearGradient id="XMLID_118_" x1="-220.955" x2="-226.874" y1="334.272" y2="345.889" gradientTransform="matrix(1 0 0 -1 234.5 371.5)" gradientUnits="userSpaceOnUse"><stop style="stop-color:#000" id="stop836" offset="0"/><stop style="stop-color:#0d0d0d" id="stop837" offset=".059"/><stop style="stop-color:#2e2e2e" id="stop838" offset=".168"/><stop style="stop-color:#646464" id="stop839" offset=".313"/><stop style="stop-color:#aeaeae" id="stop840" offset=".489"/><stop style="stop-color:#fff" id="stop841" offset=".665"/><stop style="stop-color:#d1d1d1" id="stop842" offset=".69"/><stop style="stop-color:#a1a1a1" id="stop843" offset=".72"/><stop style="stop-color:#767676" id="stop844" offset=".753"/><stop style="stop-color:#515151" id="stop845" offset=".786"/><stop style="stop-color:#343434" id="stop846" offset=".821"/><stop style="stop-color:#1d1d1d" id="stop847" offset=".858"/><stop style="stop-color:#0d0d0d" id="stop848" offset=".897"/><stop style="stop-color:#030303" id="stop849" offset=".941"/><stop style="stop-color:#000" id="stop850" offset="1"/></linearGradient><path id="path880" fill="url(#XMLID_118_)" d="M5.5,36.6L5.5,36.6l12.4-6.3l0,0c1.3-0.8,1.8-2.4,1.1-3.8c-0.7-1.4-2.4-1.9-3.7-1.3l0,0 L2.9,31.5c0,0,0,0,0,0c-1.4,0.7-2,2.4-1.3,3.9C2.3,36.7,4.1,37.3,5.5,36.6z"/><circle id="circle881" cx="4.2" cy="34" r="2.9" fill="#FFF"/><linearGradient id="XMLID_119_" x1="-229.233" x2="-231.543" y1="335.325" y2="339.858" gradientTransform="matrix(1 0 0 -1 234.5 371.5)" gradientUnits="userSpaceOnUse"><stop style="stop-color:#fff" id="stop883" offset=".144"/><stop style="stop-color:#000" id="stop884" offset="1"/></linearGradient><path id="path888" fill="url(#XMLID_119_)" d="M6.1,33c-0.6-1.1-1.9-1.5-3-1s-1.5,1.9-1,3c0.6,1.1,1.9,1.5,3,1S6.7,34.1,6.1,33L6.1,33z"/><linearGradient id="XMLID_120_" x1="-179.089" x2="-229.336" y1="320.195" y2="364.08" gradientTransform="matrix(1 0 0 -1 234.5 371.5)" gradientUnits="userSpaceOnUse"><stop style="stop-color:#000" id="stop890" offset="0"/><stop style="stop-color:#1b1b1b" id="stop891" offset=".131"/><stop style="stop-color:#606060" id="stop892" offset=".413"/><stop style="stop-color:#cdcdcd" id="stop893" offset=".821"/><stop style="stop-color:#fff" id="stop894" offset="1"/></linearGradient><path id="path904" fill="url(#XMLID_120_)" d="M27.4,31.9L27.4,31.9L27.4,31.9l10.5,9.2c0.8,0.7,1.8,1,2.8,0.9c1-0.1,2-0.5,2.6-1.3 c1.4-1.6,1.2-4-0.4-5.4c0,0-10.5-9.2-10.5-9.2l0,0l0,0c-1.6-1.3-3.9-1.1-5.3,0.5C25.8,28.2,25.9,30.5,27.4,31.9L27.4,31.9z"/><linearGradient id="XMLID_121_" x1="-193.728" x2="-199.647" y1="217.422" y2="229.039" gradientTransform="matrix(-0.3746 -0.9272 -0.9272 0.3746 168.9547 -232.7201)" gradientUnits="userSpaceOnUse"><stop style="stop-color:#000" id="stop906" offset="0"/><stop style="stop-color:#060606" id="stop907" offset=".045"/><stop style="stop-color:#171717" id="stop908" offset=".106"/><stop style="stop-color:#333" id="stop909" offset=".175"/><stop style="stop-color:#5a5a5a" id="stop910" offset=".251"/><stop style="stop-color:#8d8d8d" id="stop911" offset=".332"/><stop style="stop-color:#c9c9c9" id="stop912" offset=".416"/><stop style="stop-color:#fff" id="stop913" offset=".484"/><stop style="stop-color:#f2f2f2" id="stop914" offset=".503"/><stop style="stop-color:#a9a9a9" id="stop915" offset=".611"/><stop style="stop-color:#6d6d6d" id="stop916" offset=".714"/><stop style="stop-color:#3e3e3e" id="stop917" offset=".806"/><stop style="stop-color:#1c1c1c" id="stop918" offset=".888"/><stop style="stop-color:#070707" id="stop919" offset=".955"/><stop style="stop-color:#000" id="stop920" offset="1"/></linearGradient><path id="path950" fill="url(#XMLID_121_)" d="M42.3,36.1L42.3,36.1l-10.5-9.2l0,0c-1.2-0.9-2.9-0.8-3.9,0.4c-1,1.2-0.9,2.9,0.2,4l0,0 l10.5,9.2c0,0,0,0,0,0c1.2,1,3,0.9,4-0.3C43.7,38.9,43.5,37.1,42.3,36.1L42.3,36.1z"/><path id="path951" fill="#FFF" d="M42.6,40.1c-1,1.2-2.9,1.3-4,0.3s-1.3-2.9-0.3-4c1-1.2,2.8-1.3,4-0.3C43.5,37.1,43.7,38.9,42.6,40.1 L42.6,40.1z"/><linearGradient id="XMLID_122_" x1="-205.388" x2="-200.625" y1="219.859" y2="221.5" gradientTransform="matrix(-0.3746 -0.9272 -0.9272 0.3746 168.9547 -232.7201)" gradientUnits="userSpaceOnUse"><stop style="stop-color:#fff" id="stop953" offset=".064"/><stop style="stop-color:#000" id="stop954" offset="1"/></linearGradient><path id="path958" fill="url(#XMLID_122_)" d="M38.8,36.8c-0.8,0.9-0.7,2.3,0.2,3.1c0.9,0.8,2.3,0.7,3.1-0.2c0.8-0.9,0.7-2.3-0.2-3.1 S39.6,35.9,38.8,36.8L38.8,36.8z"/></g></g></svg>