<svg xmlns="http://www.w3.org/2000/svg" xmlns:xlink="http://www.w3.org/1999/xlink" id="svg602" width="50.1" height="50.1" enable-background="new 0 0 50.1 50.1" overflow="visible" viewBox="0 0 50.1 50.1" xml:space="preserve"><g id="g1038"><rect id="rect606" width="48" height="48" x="1.1" y="1.1" fill="#FFF"/><radialGradient id="rect634_1_" cx="-968.82" cy="366.603" r="67.686" fx="-968.82" fy="366.603" gradientTransform="matrix(-0.7869 0 0 1.0491 -738.2285 -383.5364)" gradientUnits="userSpaceOnUse"><stop style="stop-color:#fff" id="stop608" offset="0"/><stop style="stop-color:#d5e6f3" id="stop609" offset=".126"/><stop style="stop-color:#b3d1ea" id="stop610" offset=".251"/><stop style="stop-color:#9ac2e3" id="stop611" offset=".37"/><stop style="stop-color:#8bb9df" id="stop612" offset=".478"/><stop style="stop-color:#86b6de" id="stop613" offset=".567"/><stop style="stop-color:#0e5fa9" id="stop614" offset=".854"/><stop style="stop-color:#0f4378" id="stop615" offset=".911"/><stop style="stop-color:#111426" id="stop616" offset="1"/></radialGradient><rect id="rect634" width="48" height="48" x="1.1" y="1.1" fill="url(#rect634_1_)" stroke="#3030B1" stroke-width="2.141" enable-background="new" opacity=".4"/><radialGradient id="path651_1_" cx="-268.909" cy="416.971" r="46.228" fx="-268.909" fy="416.971" gradientTransform="matrix(1 0 0 -1 284.9399 422.8027)" gradientUnits="userSpaceOnUse"><stop style="stop-color:#00f6ff" id="stop636" offset="0"/><stop style="stop-color:#00a3ff" id="stop637" offset=".171"/><stop style="stop-color:#0081ff" id="stop638" offset=".25"/><stop style="stop-color:#0019b5" id="stop639" offset=".5"/><stop style="stop-color:#200061" id="stop640" offset=".75"/><stop style="stop-color:#000" id="stop641" offset="1"/></radialGradient><path id="path651" fill="url(#path651_1_)" stroke="#00006A" stroke-linejoin="round" stroke-miterlimit="2" stroke-width="2" d="M40.8,32.8c1.3,4.1,4.5,7,7,9.5c-15,1-30.5,1-45.5,0c7.5-5.5,16-16.5,10-26c-1.5-3-5.5-2-8.5-1c4-7.5,14.5-10,22-7 C35.8,12.3,37.8,23.3,40.8,32.8z"/><g id="Layer_2_1_"><g id="g653"><path id="path654" fill="#FFF" d="M29.8,20.5v8.7h-2.4v-5.7c-0.4,0.3-0.8,0.5-1.1,0.7c-0.4,0.2-0.8,0.4-1.4,0.5v-2 c0.8-0.3,1.4-0.6,1.9-0.9c0.5-0.3,0.8-0.8,1.1-1.4L29.8,20.5L29.8,20.5z"/></g><g id="g655"><path id="path658" fill="#FFF" d="M30.8,36.2c0-1.6,0.3-2.8,0.9-3.4c0.6-0.6,1.5-1,2.7-1c0.6,0,1.1,0.1,1.4,0.2c0.4,0.1,0.7,0.3,0.9,0.6 s0.4,0.5,0.6,0.7c0.2,0.2,0.2,0.5,0.3,0.9c0.2,0.6,0.2,1.3,0.2,2c0,1.6-0.3,2.7-0.8,3.4s-1.4,1.1-2.7,1.1 c-0.7,0-1.3-0.1-1.8-0.3c-0.4-0.2-0.8-0.6-1.1-1c-0.2-0.3-0.4-0.7-0.5-1.3S30.8,36.8,30.8,36.2z M33.2,36.2 c0,1.1,0.1,1.8,0.3,2.2c0.2,0.4,0.5,0.6,0.8,0.6c0.2,0,0.4-0.1,0.6-0.3c0.2-0.2,0.3-0.4,0.4-0.8c0.1-0.4,0.1-0.9,0.1-1.7 c0-1.1-0.1-1.9-0.3-2.3c-0.2-0.4-0.5-0.6-0.9-0.6c-0.4,0-0.7,0.2-0.9,0.6C33.3,34.3,33.2,35.1,33.2,36.2z"/></g><g id="g657"><path id="path660" fill="#FFF" d="M21.9,32v8.7h-2.4V35c-0.4,0.3-0.8,0.5-1.1,0.7c-0.4,0.2-0.8,0.4-1.4,0.5v-2 c0.8-0.3,1.4-0.6,1.9-0.9c0.4-0.4,0.8-0.8,1.1-1.4L21.9,32L21.9,32z"/></g><g id="g659"><path id="path662" fill="#FFF" d="M17,15.9c0-1.6,0.3-2.8,0.9-3.4c0.6-0.6,1.5-1,2.7-1c0.6,0,1.1,0.1,1.4,0.2c0.4,0.1,0.7,0.3,0.9,0.6 c0.2,0.3,0.4,0.5,0.6,0.7c0.2,0.2,0.2,0.5,0.3,0.9c0.2,0.6,0.2,1.3,0.2,2c0,1.6-0.3,2.7-0.8,3.4c-0.5,0.7-1.4,1.1-2.7,1.1 c-0.7,0-1.3-0.1-1.8-0.3c-0.4-0.2-0.8-0.6-1.1-1c-0.2-0.3-0.4-0.7-0.5-1.3S17,16.6,17,15.9z M19.4,15.9c0,1.1,0.1,1.8,0.3,2.2 c0.2,0.4,0.5,0.6,0.8,0.6c0.2,0,0.4-0.1,0.6-0.3c0.2-0.2,0.3-0.4,0.4-0.8c0.1-0.4,0.1-0.9,0.1-1.7c0-1.1-0.1-1.9-0.3-2.3 S20.8,13,20.4,13c-0.4,0-0.7,0.2-0.9,0.6C19.5,14.1,19.4,14.8,19.4,15.9z"/></g></g></g></svg>