<svg xmlns="http://www.w3.org/2000/svg" xmlns:xlink="http://www.w3.org/1999/xlink" id="svg602" width="48" height="48" enable-background="new 0 0 48 48" overflow="visible" viewBox="0 0 48 48" xml:space="preserve"><g id="Layer_1"><g id="g607"><g id="g608"><g id="g609"><path id="path610" fill="#828282" d="M31.9,16.1C19.4,3.6,5.7-3,1.3,1.3c-4.4,4.4,2.3,18,14.8,30.5 C28.6,44.4,42.3,51,46.7,46.7C51,42.3,44.4,28.6,31.9,16.1z M45.6,45.6c-4,4-15.8-1.3-26.3-11.9C8.7,23.1,3.3,11.3,7.3,7.3 c4-4,15.8,1.3,26.3,11.9S49.5,41.6,45.6,45.6z"/></g></g><g id="g611"><g id="g612"><path id="path613" fill="#828282" d="M46.7,1.3c-4.4-4.4-18,2.3-30.5,14.8C3.6,28.6-3,42.3,1.3,46.7 c4.4,4.4,18-2.3,30.5-14.8C44.4,19.4,51,5.7,46.7,1.3z M7.3,40.7c-4-4,1.3-15.8,11.9-26.3C29.8,3.8,41.6-1.5,45.6,2.4 c4,4-1.3,15.8-11.9,26.3C23.1,39.3,11.3,44.7,7.3,40.7z"/></g></g><g id="g614"><circle id="circle562_2_" cx="25.1" cy="11.5" r="10.5" fill="#686868" enable-background="new" opacity=".36"/><circle id="circle563_3_" cx="25.1" cy="11.5" r="10.3" enable-background="new" opacity=".36"/><radialGradient id="circle574_1_" cx="-533.822" cy="89.981" r="9.361" fx="-533.822" fy="89.981" gradientTransform="matrix(1.0306 0.3176 -0.3176 1.0305 603.828 88.2916)" gradientUnits="userSpaceOnUse"><stop style="stop-color:#fc9200" id="stop618" offset=".006"/><stop style="stop-color:#fb9000" id="stop619" offset=".504"/><stop style="stop-color:#f98900" id="stop620" offset=".684"/><stop style="stop-color:#f47e00" id="stop621" offset=".812"/><stop style="stop-color:#ee6d00" id="stop622" offset=".915"/><stop style="stop-color:#e65800" id="stop623" offset="1"/></radialGradient><circle id="circle574_4_" cx="25.1" cy="11.5" r="10.1" fill="url(#circle574_1_)"/><radialGradient id="circle587_1_" cx="-533.822" cy="90.356" r="8.862" fx="-533.822" fy="90.356" gradientTransform="matrix(1.0306 0.3176 -0.3176 1.0305 603.828 88.2916)" gradientUnits="userSpaceOnUse"><stop style="stop-color:#fcca00" id="stop637" offset=".006"/><stop style="stop-color:#fcc800" id="stop638" offset=".441"/><stop style="stop-color:#fac100" id="stop639" offset=".598"/><stop style="stop-color:#f8b600" id="stop640" offset=".71"/><stop style="stop-color:#f5a500" id="stop641" offset=".8"/><stop style="stop-color:#f18f00" id="stop642" offset=".878"/><stop style="stop-color:#eb7400" id="stop643" offset=".945"/><stop style="stop-color:#e65800" id="stop644" offset="1"/></radialGradient><circle id="circle587_4_" cx="25.1" cy="11.5" r="10.1" fill="url(#circle587_1_)" enable-background="new" opacity=".36"/><linearGradient id="ellipse600_1_" x1="-557.852" x2="-557.852" y1="66.392" y2="74.468" gradientTransform="matrix(0.9556 0.2945 -0.2945 0.9556 580.4241 103.4852)" gradientUnits="userSpaceOnUse"><stop style="stop-color:#fcffff" id="stop662" offset=".006"/><stop style="stop-color:#fcfcf9" id="stop663" offset=".096"/><stop style="stop-color:#fcf5e7" id="stop664" offset=".222"/><stop style="stop-color:#fce8ca" id="stop665" offset=".367"/><stop style="stop-color:#fcd7a1" id="stop666" offset=".527"/><stop style="stop-color:#fcc06d" id="stop667" offset=".7"/><stop style="stop-color:#fca62e" id="stop668" offset=".88"/><stop style="stop-color:#fc9200" id="stop669" offset="1"/></linearGradient><path id="ellipse600_4_" fill="url(#ellipse600_1_)" d="M27.8,2.6c3.8,1.2,6.3,3.9,5.6,6.2c-0.7,2.2-4.3,3.1-8.1,1.9 c-3.8-1.2-6.3-3.9-5.6-6.2C20.3,2.3,24,1.5,27.8,2.6z"/></g></g><rect id="rect686" width="48" height="48" fill="none"/></g></svg>