<svg xmlns="http://www.w3.org/2000/svg" xmlns:xlink="http://www.w3.org/1999/xlink" id="svg602" width="51.8" height="48.2" enable-background="new 0 0 51.8 48.2" overflow="visible" viewBox="0 0 51.8 48.2" xml:space="preserve"><g id="Layer_2_1_"><g id="g606"><polygon id="polygon607" fill="none" stroke="#000" stroke-linejoin="round" stroke-width="4" points="49.8 22 37.8 2 25.8 22 32.2 22 32.2 46.2 43.8 46.2 43.8 22" enable-background="new" opacity=".15"/><polygon id="polygon608" fill="none" stroke="#000" stroke-linejoin="round" stroke-width="2" points="49.8 22 37.8 2 25.8 22 32.2 22 32.2 46.2 43.8 46.2 43.8 22" enable-background="new" opacity=".3"/><polygon id="polygon609" fill="none" stroke="#000" stroke-linejoin="round" points="49.8 22 37.8 2 25.8 22 32.2 22 32.2 46.2 43.8 46.2 43.8 22" enable-background="new" opacity=".5"/><g id="g610"><radialGradient id="polygon617_1_" cx="-79.825" cy="506.579" r="27.753" fx="-79.825" fy="506.579" gradientTransform="matrix(0.9231 0 0 -1 106.5694 514.8184)" gradientUnits="userSpaceOnUse"><stop style="stop-color:#72ff00" id="stop612" offset="0"/><stop style="stop-color:#008b00" id="stop613" offset="1"/></radialGradient><polygon id="polygon617" fill="url(#polygon617_1_)" points="49.8 22 37.8 2 25.8 22 32.2 22 32.2 46.2 43.8 46.2 43.8 22"/><linearGradient id="path624_1_" x1="-82.432" x2="-71.486" y1="505.913" y2="494.552" gradientTransform="matrix(1 0 0 -1 114.377 514.8184)" gradientUnits="userSpaceOnUse"><stop style="stop-color:#fff" id="stop619" offset="0"/><stop style="stop-color:#0f0" id="stop620" offset="1"/></linearGradient><path id="path624" fill="url(#path624_1_)" d="M37.7,15.2c3.9,0,5.2,2.7,9.7,2.8L37.7,2l-9.5,15.9 C33.8,17.8,33.9,15.2,37.7,15.2z"/></g></g><g id="g625"><polygon id="polygon626" fill="none" stroke="#000" stroke-linejoin="round" stroke-width="4" points="26 26.2 14 46.2 2 26.2 8.4 26.2 8.4 2 20.1 2 20.1 26.2" enable-background="new" opacity=".15"/><polygon id="polygon627" fill="none" stroke="#000" stroke-linejoin="round" stroke-width="2" points="26 26.2 14 46.2 2 26.2 8.4 26.2 8.4 2 20.1 2 20.1 26.2" enable-background="new" opacity=".3"/><polygon id="polygon628" fill="none" stroke="#000" stroke-linejoin="round" points="26 26.2 14 46.2 2 26.2 8.4 26.2 8.4 2 20.1 2 20.1 26.2" enable-background="new" opacity=".5"/><radialGradient id="polygon643_1_" cx="-106.254" cy="513.251" r="45.184" fx="-106.254" fy="513.251" gradientTransform="matrix(1 0 0 -1 114.377 514.8184)" gradientUnits="userSpaceOnUse"><stop style="stop-color:#fff" id="stop630" offset="0"/><stop style="stop-color:#f6f6f6" id="stop631" offset=".179"/><stop style="stop-color:#dfdfdf" id="stop632" offset=".467"/><stop style="stop-color:#b9b9b9" id="stop633" offset=".823"/><stop style="stop-color:#a4a4a4" id="stop634" offset="1"/></radialGradient><polygon id="polygon643" fill="url(#polygon643_1_)" points="26 26.2 14 46.2 2 26.2 8.4 26.2 8.4 2 20.1 2 20.1 26.2"/><radialGradient id="path650_1_" cx="-127.359" cy="495.688" r="21.348" fx="-127.359" fy="495.688" gradientTransform="matrix(0.6517 0 0 -1.7577 92.0847 874.2738)" gradientUnits="userSpaceOnUse"><stop style="stop-color:#fff" id="stop640" offset="0"/><stop style="stop-color:#cacaca" id="stop641" offset="1"/></radialGradient><path id="path650" fill="url(#path650_1_)" d="M20,11.2V2H8.4l0.1,16.2C13.4,18.2,14.3,11.2,20,11.2z"/></g><rect id="rect652" width="48" height="48" x="1.9" y=".1" fill="none"/></g></svg>