<svg xmlns="http://www.w3.org/2000/svg" xmlns:xlink="http://www.w3.org/1999/xlink" id="svg602" width="51.8" height="48.2" enable-background="new 0 0 51.8 48.2" overflow="visible" viewBox="0 0 51.8 48.2" xml:space="preserve"><g id="Layer_2_1_"><polygon id="polygon606" fill="none" stroke="#000" stroke-linejoin="round" stroke-width="4" points="49.8 22 37.8 2 25.8 22 32.2 22 32.2 46.2 43.8 46.2 43.8 22" opacity=".15"/><polygon id="polygon607" fill="none" stroke="#000" stroke-linejoin="round" stroke-width="2" points="49.8 22 37.8 2 25.8 22 32.2 22 32.2 46.2 43.8 46.2 43.8 22" opacity=".3"/><polygon id="polygon608" fill="none" stroke="#000" stroke-linejoin="round" points="49.8 22 37.8 2 25.8 22 32.2 22 32.2 46.2 43.8 46.2 43.8 22" opacity=".5"/><radialGradient id="XMLID_5_" cx="28.219" cy="8.238" r="27.753" fx="28.219" fy="8.238" gradientTransform="matrix(0.9231 0 0 1 6.8323 0)" gradientUnits="userSpaceOnUse"><stop style="stop-color:#e3e3e3" id="stop610" offset="0"/><stop style="stop-color:#e0e0e0" id="stop611" offset=".341"/><stop style="stop-color:#d5d5d5" id="stop612" offset=".629"/><stop style="stop-color:#c4c4c4" id="stop613" offset=".898"/><stop style="stop-color:#bbb" id="stop614" offset="1"/></radialGradient><polygon id="polygon618" fill="url(#XMLID_5_)" points="49.8 22 37.8 2 25.8 22 32.2 22 32.2 46.2 43.8 46.2 43.8 22"/><linearGradient id="XMLID_6_" x1="31.97" x2="42.916" y1="8.879" y2="20.24" gradientUnits="userSpaceOnUse"><stop style="stop-color:#fff" id="stop620" offset="0"/><stop style="stop-color:#cacaca" id="stop621" offset="1"/></linearGradient><path id="path625" fill="url(#XMLID_6_)" d="M37.7,15.2c3.9,0,5.2,2.7,9.7,2.8L37.7,2l-9.5,15.9C33.8,17.8,33.9,15.2,37.7,15.2z"/><g id="g626"><polygon id="polygon627" fill="none" stroke="#000" stroke-linejoin="round" stroke-width="4" points="26 26.2 14 46.2 2 26.2 8.4 26.2 8.4 2 20.1 2 20.1 26.2" opacity=".15"/><polygon id="polygon628" fill="none" stroke="#000" stroke-linejoin="round" stroke-width="2" points="26 26.2 14 46.2 2 26.2 8.4 26.2 8.4 2 20.1 2 20.1 26.2" opacity=".3"/><polygon id="polygon629" fill="none" stroke="#000" stroke-linejoin="round" points="26 26.2 14 46.2 2 26.2 8.4 26.2 8.4 2 20.1 2 20.1 26.2" opacity=".5"/><g id="g630"><radialGradient id="XMLID_7_" cx="8.482" cy="1.696" r="34.642" fx="8.482" fy="1.696" gradientUnits="userSpaceOnUse"><stop style="stop-color:#0ff" id="stop632" offset="0"/><stop style="stop-color:#00fbfd" id="stop633" offset=".121"/><stop style="stop-color:#00eef7" id="stop634" offset=".246"/><stop style="stop-color:#00daee" id="stop635" offset=".373"/><stop style="stop-color:#00bde1" id="stop636" offset=".501"/><stop style="stop-color:#0097d0" id="stop637" offset=".63"/><stop style="stop-color:#0069bb" id="stop638" offset=".76"/><stop style="stop-color:#0034a3" id="stop639" offset=".889"/><stop style="stop-color:#00008b" id="stop640" offset="1"/></radialGradient><polygon id="polygon644" fill="url(#XMLID_7_)" points="26 26.2 14 46.2 2 26.2 8.4 26.2 8.4 2 20.1 2 20.1 26.2"/><radialGradient id="XMLID_8_" cx="-53.6" cy="19.13" r="21.347" fx="-53.6" fy="19.13" gradientTransform="matrix(0.6517 0 0 1.7577 44.0163 -30.6215)" gradientUnits="userSpaceOnUse"><stop style="stop-color:#fff" id="stop646" offset="0"/><stop style="stop-color:#6dc6d4" id="stop647" offset="1"/></radialGradient><path id="path651" fill="url(#XMLID_8_)" d="M20,11.2l0-9.2H8.4l0.1,16.2C13.4,18.2,14.3,11.2,20,11.2z"/></g></g></g><g id="Layer_1"><rect id="rect653" width="48" height="48" x="1.9" y=".1" fill="none" opacity=".15"/></g></svg>