<svg xmlns="http://www.w3.org/2000/svg" xmlns:xlink="http://www.w3.org/1999/xlink" id="svg602" width="48" height="48.1" enable-background="new 0 0 48 48.1" overflow="visible" viewBox="0 0 48 48.1" xml:space="preserve"><g id="Layer_1"><rect id="rect689" width="48" height="48" fill="none"/><g id="g607"><ellipse id="ellipse606" cx="24" cy="42.1" fill="#515151" stroke="#515151" rx="14.9" ry="5.5"/><linearGradient id="ellipse615_1_" x1="-984.084" x2="-984.456" y1="342.731" y2="330.831" gradientTransform="matrix(1 0 0 -1 1008.1973 380.5098)" gradientUnits="userSpaceOnUse"><stop style="stop-color:#fff" id="stop610" offset=".006"/><stop style="stop-color:#eee" id="stop611" offset=".208"/><stop style="stop-color:#c1c1c1" id="stop612" offset=".607"/><stop style="stop-color:#909090" id="stop613" offset="1"/></linearGradient><ellipse id="ellipse615" cx="24" cy="41.4" fill="url(#ellipse615_1_)" stroke="#515151" stroke-width=".744" rx="14.8" ry="5.5"/><linearGradient id="ellipse625_1_" x1="-984.197" x2="-984.197" y1="350.551" y2="339.209" gradientTransform="matrix(1 0 0 -1 1008.1973 380.5098)" gradientUnits="userSpaceOnUse"><stop style="stop-color:#909090" id="stop623" offset="0"/><stop style="stop-color:#b9b9b9" id="stop624" offset=".287"/><stop style="stop-color:#dfdfdf" id="stop625" offset=".596"/><stop style="stop-color:#f6f6f6" id="stop626" offset=".845"/><stop style="stop-color:#fff" id="stop627" offset="1"/></linearGradient><ellipse id="ellipse625" cx="24" cy="35.7" fill="url(#ellipse625_1_)" stroke="#515151" stroke-width=".744" rx="8.5" ry="5.6"/><linearGradient id="path632_1_" x1="-963.402" x2="-1003.332" y1="346.207" y2="377.414" gradientTransform="matrix(1 0 0 -1 1008.1973 380.5098)" gradientUnits="userSpaceOnUse"><stop style="stop-color:#b8b8b8" id="stop639" offset="0"/><stop style="stop-color:#000" id="stop640" offset="1"/></linearGradient><path id="path632" fill="url(#path632_1_)" d="M46.1,31c0,2.6-2.1,4.7-4.6,4.7h-35c-2.6,0-4.6-2.1-4.6-4.7V5.1c0-2.6,2.1-4.7,4.6-4.7h35c2.6,0,4.6,2.1,4.6,4.7V31z" enable-background="new" opacity=".5"/><linearGradient id="path645_1_" x1="-1004.464" x2="-964.485" y1="377.931" y2="347.806" gradientTransform="matrix(1 0 0 -1 1008.1973 380.5098)" gradientUnits="userSpaceOnUse"><stop style="stop-color:#fff" id="stop646" offset="0"/><stop style="stop-color:#fcfcfc" id="stop647" offset=".252"/><stop style="stop-color:#f3f3f3" id="stop648" offset=".417"/><stop style="stop-color:#e5e5e5" id="stop649" offset=".558"/><stop style="stop-color:#cfcfcf" id="stop650" offset=".685"/><stop style="stop-color:#b4b4b4" id="stop651" offset=".803"/><stop style="stop-color:#939393" id="stop652" offset=".912"/><stop style="stop-color:#727272" id="stop653" offset="1"/></linearGradient><path id="path645" fill="url(#path645_1_)" d="M45.4,30.1c0,2.5-2,4.5-4.5,4.5H7.1c-2.5,0-4.5-2-4.5-4.5V5.6 c0-2.5,2-4.5,4.5-4.5h33.8c2.5,0,4.5,2,4.5,4.5V30.1L45.4,30.1z"/><linearGradient id="rect653_1_" x1="-969.097" x2="-969.097" y1="362.05" y2="374.508" gradientTransform="matrix(1 0 0 -1 1008.1973 380.5098)" gradientUnits="userSpaceOnUse"><stop style="stop-color:#fff" id="stop671" offset="0"/><stop style="stop-color:#000" id="stop672" offset="1"/></linearGradient><rect id="rect653" width="5.6" height="23.8" x="36.3" y="6" fill="url(#rect653_1_)"/><linearGradient id="rect660_1_" x1="-989.961" x2="-1001.49" y1="354.111" y2="354.111" gradientTransform="matrix(1 0 0 -1 1008.1973 380.5098)" gradientUnits="userSpaceOnUse"><stop style="stop-color:#fff" id="stop678" offset="0"/><stop style="stop-color:#000" id="stop679" offset="1"/></linearGradient><rect id="rect660" width="34.2" height="8.2" x="6.9" y="22.3" fill="url(#rect660_1_)"/><linearGradient id="rect667_1_" x1="-999.297" x2="-999.297" y1="346.988" y2="386.966" gradientTransform="matrix(1 0 0 -1 1008.1973 380.5098)" gradientUnits="userSpaceOnUse"><stop style="stop-color:#fff" id="stop685" offset="0"/><stop style="stop-color:#000" id="stop686" offset="1"/></linearGradient><rect id="rect667" width="5.6" height="23.8" x="6.1" y="6" fill="url(#rect667_1_)"/><linearGradient id="rect674_1_" x1="-958.349" x2="-1008.741" y1="371.211" y2="371.211" gradientTransform="matrix(1 0 0 -1 1008.1973 380.5098)" gradientUnits="userSpaceOnUse"><stop style="stop-color:#fff" id="stop692" offset="0"/><stop style="stop-color:#000" id="stop693" offset="1"/></linearGradient><rect id="rect674" width="34.2" height="8.2" x="6.9" y="5.2" fill="url(#rect674_1_)"/><radialGradient id="rect688_1_" cx="-984.052" cy="354.644" r="23.058" fx="-984.052" fy="354.644" gradientTransform="matrix(1 0 0 -1 1008.1973 380.5098)" gradientUnits="userSpaceOnUse"><stop style="stop-color:#ffc000" id="stop699" offset="0"/><stop style="stop-color:#fcaf00" id="stop700" offset=".097"/><stop style="stop-color:#f68f01" id="stop701" offset=".292"/><stop style="stop-color:#e83d03" id="stop702" offset=".663"/><stop style="stop-color:#c21c03" id="stop703" offset="1"/></radialGradient><rect id="rect688" width="34.2" height="23.8" x="6.9" y="6" fill="url(#rect688_1_)"/><linearGradient id="path188_1_" x1="-1057.681" x2="-955.492" y1="219.821" y2="328.777" gradientTransform="matrix(0.1875 0 0 0.1875 210.2914 -40.5732)" gradientUnits="userSpaceOnUse"><stop style="stop-color:#fff" id="stop715" offset="0"/><stop style="stop-color:gold" id="stop716" offset="1"/></linearGradient><path id="path188" fill="url(#path188_1_)" d="M33.6,13.8c3.3-1.9,5.2-4.2,7.1-6.7c0-0.7,0-1,0-1.1C40.3,6,7.3,6,6.9,6 c0,0.2,0,8.5,0,14.5c2.1-1.4,4.6-2.4,7.2-3.1C20.6,15.9,27.6,17.1,33.6,13.8z"/></g><g id="g721"><path id="path722" fill="#7C7C7C" stroke="#000" stroke-linejoin="round" stroke-width="2" d="M28.7,32.4H17.5v-1.1 c0-1.9,0.2-3.4,0.6-4.6c0.4-1.2,1.1-2.3,1.9-3.2c0.9-1,2.8-2.7,5.7-5.2c1.6-1.3,2.4-2.5,2.4-3.6c0-1.1-0.3-1.9-1-2.5 c-0.6-0.6-1.6-0.9-2.9-0.9c-1.4,0-2.5,0.5-3.5,1.4s-1.5,2.5-1.8,4.8L7.8,16.1C8.2,11.9,9.7,8.5,12.3,6c2.7-2.5,6.7-3.8,12.2-3.8 c4.3,0,7.7,0.9,10.3,2.7c3.6,2.4,5.3,5.6,5.3,9.6c0,1.7-0.5,3.3-1.4,4.8c-0.9,1.5-2.8,3.4-5.6,5.7c-2,1.6-3.2,2.8-3.7,3.8 S28.7,30.9,28.7,32.4z M17.2,35.3h11.9v10.5H17.2V35.3z"/></g></g></svg>