<svg xmlns="http://www.w3.org/2000/svg" xmlns:xlink="http://www.w3.org/1999/xlink" id="svg602" width="51.9" height="48.2" enable-background="new 0 0 51.9 48.2" overflow="visible" viewBox="0 0 51.9 48.2" xml:space="preserve"><defs id="defs665"><radialGradient id="polygon618_1_" cx="-79.718" cy="506.579" r="27.753" fx="-79.718" fy="506.579" gradientTransform="matrix(0.9231 0 0 -1 106.5694 514.8184)" gradientUnits="userSpaceOnUse"><stop style="stop-color:#e3e3e3" id="stop641" offset="0"/><stop style="stop-color:#e0e0e0" id="stop642" offset=".341"/><stop style="stop-color:#d5d5d5" id="stop643" offset=".629"/><stop style="stop-color:#c4c4c4" id="stop644" offset=".898"/><stop style="stop-color:#bbb" id="stop645" offset="1"/></radialGradient><linearGradient id="path625_1_" x1="-81.933" x2="-70.987" y1="505.913" y2="494.552" gradientTransform="matrix(1 0 0 -1 114.377 514.8184)" gradientUnits="userSpaceOnUse"><stop style="stop-color:#fff" id="stop657" offset="0"/><stop style="stop-color:#cacaca" id="stop658" offset="1"/></linearGradient></defs><g id="g829"><g id="g625" style="font-size:12"><polygon id="polygon626" fill="none" stroke="#000" stroke-linejoin="round" stroke-width="4" points="26 26.2 14 46.2 2 26.2 8.4 26.2 8.4 2 20.1 2 20.1 26.2" enable-background="new" opacity=".15"/><polygon id="polygon627" fill="none" stroke="#000" stroke-linejoin="round" stroke-width="2" points="26 26.2 14 46.2 2 26.2 8.4 26.2 8.4 2 20.1 2 20.1 26.2" enable-background="new" opacity=".3"/><polygon id="polygon628" fill="none" stroke="#000" stroke-linejoin="round" points="26 26.2 14 46.2 2 26.2 8.4 26.2 8.4 2 20.1 2 20.1 26.2" enable-background="new" opacity=".5"/><radialGradient id="polygon643_1_" cx="-296.631" cy="1.566" r="45.184" fx="-296.631" fy="1.566" gradientTransform="matrix(1 0 0 1 304.7539 9.765625e-004)" gradientUnits="userSpaceOnUse"><stop style="stop-color:#fff" id="stop612" offset="0"/><stop style="stop-color:#f6f6f6" id="stop613" offset=".179"/><stop style="stop-color:#dfdfdf" id="stop614" offset=".467"/><stop style="stop-color:#b9b9b9" id="stop615" offset=".823"/><stop style="stop-color:#a4a4a4" id="stop616" offset="1"/></radialGradient><polygon id="polygon643" fill="url(#polygon643_1_)" points="26 26.2 14 46.2 2 26.2 8.4 26.2 8.4 2 20.1 2 20.1 26.2"/><radialGradient id="path650_1_" cx="-317.736" cy="19.13" r="21.348" fx="-317.736" fy="19.13" gradientTransform="matrix(0.6517 0 0 1.7577 216.154 -30.6215)" gradientUnits="userSpaceOnUse"><stop style="stop-color:#fff" id="stop628" offset="0"/><stop style="stop-color:#cacaca" id="stop629" offset="1"/></radialGradient><path id="path650" fill="url(#path650_1_)" d="M20,11.2V2H8.4l0.1,16.2C13.4,18.2,14.3,11.2,20,11.2z"/></g><rect id="rect652" width="48" height="48" x="1.9" y=".1" fill="none" style="font-size:12;fill:none"/><polygon id="polygon606" fill="none" stroke="#000" stroke-linejoin="round" stroke-width="4" points="49.9 22 37.9 2 25.9 22 32.3 22 32.3 46.2 43.9 46.2 43.9 22" enable-background="new" opacity=".15" style="font-size:12;opacity:.15;fill:none;stroke:#000;stroke-width:4;stroke-linejoin:round"/><polygon id="polygon607" fill="none" stroke="#000" stroke-linejoin="round" stroke-width="2" points="49.9 22 37.9 2 25.9 22 32.3 22 32.3 46.2 43.9 46.2 43.9 22" enable-background="new" opacity=".3" style="font-size:12;opacity:.3;fill:none;stroke:#000;stroke-width:2;stroke-linejoin:round"/><polygon id="polygon608" fill="none" stroke="#000" stroke-linejoin="round" points="49.9 22 37.9 2 25.9 22 32.3 22 32.3 46.2 43.9 46.2 43.9 22" enable-background="new" opacity=".5" style="font-size:12;opacity:.5;fill:none;stroke:#000;stroke-linejoin:round"/><polygon id="polygon618" fill="url(#polygon618_1_)" points="49.9 22 37.9 2 25.9 22 32.3 22 32.3 46.2 43.9 46.2 43.9 22" style="font-size:12;fill:url(#polygon618_1_)"/><path id="path625" fill="url(#path625_1_)" d="M 38.03395 15.53209 C 41.93395 15.53209 43.23395 18.23209 47.73395 18.33209 L 38.03395 2.332092 L 28.53395 18.23209 C 34.13395 18.13209 34.23395 15.53209 38.03395 15.53209 z" style="font-size:12;fill:url(#path625_1_)"/></g></svg>