<svg xmlns="http://www.w3.org/2000/svg" xmlns:xlink="http://www.w3.org/1999/xlink" id="svg602" width="48" height="48.1" enable-background="new 0 0 48 48.1" overflow="visible" viewBox="0 0 48 48.1" xml:space="preserve"><g id="Layer_1"><ellipse id="ellipse606" cx="24" cy="42.1" fill="#515151" stroke="#515151" rx="14.9" ry="5.5"/><linearGradient id="ellipse615_1_" x1="-782.444" x2="-782.816" y1="37.779" y2="49.679" gradientTransform="matrix(1 0 0 1 806.5576 0)" gradientUnits="userSpaceOnUse"><stop style="stop-color:#fff" id="stop608" offset=".006"/><stop style="stop-color:#eee" id="stop609" offset=".208"/><stop style="stop-color:#c1c1c1" id="stop610" offset=".607"/><stop style="stop-color:#909090" id="stop611" offset="1"/></linearGradient><ellipse id="ellipse615" cx="24" cy="41.4" fill="url(#ellipse615_1_)" stroke="#515151" stroke-width=".744" rx="14.8" ry="5.5"/><linearGradient id="ellipse625_1_" x1="-782.558" x2="-782.558" y1="29.959" y2="41.301" gradientTransform="matrix(1 0 0 1 806.5576 0)" gradientUnits="userSpaceOnUse"><stop style="stop-color:#909090" id="stop621" offset="0"/><stop style="stop-color:#b9b9b9" id="stop622" offset=".287"/><stop style="stop-color:#dfdfdf" id="stop623" offset=".596"/><stop style="stop-color:#f6f6f6" id="stop624" offset=".845"/><stop style="stop-color:#fff" id="stop625" offset="1"/></linearGradient><ellipse id="ellipse625" cx="24" cy="35.7" fill="url(#ellipse625_1_)" stroke="#515151" stroke-width=".744" rx="8.5" ry="5.6"/><linearGradient id="path632_1_" x1="-761.762" x2="-801.692" y1="34.303" y2="3.095" gradientTransform="matrix(1 0 0 1 806.5576 0)" gradientUnits="userSpaceOnUse"><stop style="stop-color:#b8b8b8" id="stop637" offset="0"/><stop style="stop-color:#000" id="stop638" offset="1"/></linearGradient><path id="path632" fill="url(#path632_1_)" d="M46.1,31c0,2.6-2.1,4.7-4.6,4.7h-35c-2.6,0-4.6-2.1-4.6-4.7V5.1c0-2.6,2.1-4.7,4.6-4.7h35c2.6,0,4.6,2.1,4.6,4.7V31z" enable-background="new" opacity=".5"/><linearGradient id="path645_1_" x1="-802.825" x2="-762.845" y1="2.579" y2="32.703" gradientTransform="matrix(1 0 0 1 806.5576 0)" gradientUnits="userSpaceOnUse"><stop style="stop-color:#fff" id="stop644" offset="0"/><stop style="stop-color:#fcfcfc" id="stop645" offset=".252"/><stop style="stop-color:#f3f3f3" id="stop646" offset=".417"/><stop style="stop-color:#e5e5e5" id="stop647" offset=".558"/><stop style="stop-color:#cfcfcf" id="stop648" offset=".685"/><stop style="stop-color:#b4b4b4" id="stop649" offset=".803"/><stop style="stop-color:#939393" id="stop650" offset=".912"/><stop style="stop-color:#727272" id="stop651" offset="1"/></linearGradient><path id="path645" fill="url(#path645_1_)" d="M45.4,30.1c0,2.5-2,4.5-4.5,4.5H7.1c-2.5,0-4.5-2-4.5-4.5V5.6c0-2.5,2-4.5,4.5-4.5 h33.8c2.5,0,4.5,2,4.5,4.5V30.1L45.4,30.1z"/><linearGradient id="rect653_1_" x1="-767.457" x2="-767.457" y1="18.46" y2="6.002" gradientTransform="matrix(1 0 0 1 806.5576 0)" gradientUnits="userSpaceOnUse"><stop style="stop-color:#fff" id="stop669" offset="0"/><stop style="stop-color:#000" id="stop670" offset="1"/></linearGradient><rect id="rect653" width="5.6" height="23.8" x="36.3" y="6" fill="url(#rect653_1_)"/><linearGradient id="rect660_1_" x1="-788.322" x2="-799.851" y1="26.399" y2="26.399" gradientTransform="matrix(1 0 0 1 806.5576 0)" gradientUnits="userSpaceOnUse"><stop style="stop-color:#fff" id="stop676" offset="0"/><stop style="stop-color:#000" id="stop677" offset="1"/></linearGradient><rect id="rect660" width="34.2" height="8.2" x="6.9" y="22.3" fill="url(#rect660_1_)"/><linearGradient id="rect667_1_" x1="-797.657" x2="-797.657" y1="33.522" y2="-6.456" gradientTransform="matrix(1 0 0 1 806.5576 0)" gradientUnits="userSpaceOnUse"><stop style="stop-color:#fff" id="stop683" offset="0"/><stop style="stop-color:#000" id="stop684" offset="1"/></linearGradient><rect id="rect667" width="5.6" height="23.8" x="6.1" y="6" fill="url(#rect667_1_)"/><linearGradient id="rect674_1_" x1="-756.71" x2="-807.102" y1="9.3" y2="9.3" gradientTransform="matrix(1 0 0 1 806.5576 0)" gradientUnits="userSpaceOnUse"><stop style="stop-color:#fff" id="stop690" offset="0"/><stop style="stop-color:#000" id="stop691" offset="1"/></linearGradient><rect id="rect674" width="34.2" height="8.2" x="6.9" y="5.2" fill="url(#rect674_1_)"/><radialGradient id="rect688_1_" cx="-782.413" cy="25.866" r="23.058" fx="-782.413" fy="25.866" gradientTransform="matrix(1 0 0 1 806.5576 0)" gradientUnits="userSpaceOnUse"><stop style="stop-color:#00ed00" id="stop697" offset="0"/><stop style="stop-color:#00ca00" id="stop698" offset=".32"/><stop style="stop-color:#00a701" id="stop699" offset=".562"/><stop style="stop-color:#008303" id="stop700" offset=".809"/><stop style="stop-color:#006203" id="stop701" offset="1"/></radialGradient><rect id="rect688" width="34.2" height="23.8" x="6.9" y="6" fill="url(#rect688_1_)"/><rect id="rect689" width="48" height="48" fill="none"/><linearGradient id="path188_1_" x1="-1338.283" x2="-1235.539" y1="230.67" y2="340.218" gradientTransform="matrix(0.1875 0 0 0.1875 262.7531 -42.4688)" gradientUnits="userSpaceOnUse"><stop style="stop-color:#fff" id="stop714" offset="0"/><stop style="stop-color:#72ff00" id="stop715" offset="1"/></linearGradient><path id="path188" fill="url(#path188_1_)" d="M33.6,14.1c3.3-1.9,5.2-4.4,7.1-6.9c0-0.7,0-1.1,0-1.1C40.3,6,7.3,6,6.9,6 c0,0.2,0,8.8,0,15c2.1-1.4,4.6-2.5,7.2-3.2C20.6,16.2,27.6,17.5,33.6,14.1z"/></g></svg>