<svg xmlns="http://www.w3.org/2000/svg" xmlns:xlink="http://www.w3.org/1999/xlink" id="svg602" width="48" height="48.1" enable-background="new 0 0 48 48.1" overflow="visible" viewBox="0 0 48 48.1" xml:space="preserve"><g id="Layer_1"><ellipse id="ellipse606" cx="24" cy="42.1" fill="#515151" stroke="#515151" rx="14.9" ry="5.5"/><linearGradient id="ellipse615_1_" x1="-580.805" x2="-581.177" y1="338.065" y2="326.165" gradientTransform="matrix(1 0 0 -1 604.918 375.8438)" gradientUnits="userSpaceOnUse"><stop style="stop-color:#fff" id="stop608" offset=".006"/><stop style="stop-color:#eee" id="stop609" offset=".208"/><stop style="stop-color:#c1c1c1" id="stop610" offset=".607"/><stop style="stop-color:#909090" id="stop611" offset="1"/></linearGradient><ellipse id="ellipse615" cx="24" cy="41.4" fill="url(#ellipse615_1_)" stroke="#515151" stroke-width=".744" rx="14.8" ry="5.5"/><linearGradient id="ellipse625_1_" x1="-580.918" x2="-580.918" y1="345.885" y2="334.543" gradientTransform="matrix(1 0 0 -1 604.918 375.8438)" gradientUnits="userSpaceOnUse"><stop style="stop-color:#909090" id="stop621" offset="0"/><stop style="stop-color:#b9b9b9" id="stop622" offset=".287"/><stop style="stop-color:#dfdfdf" id="stop623" offset=".596"/><stop style="stop-color:#f6f6f6" id="stop624" offset=".845"/><stop style="stop-color:#fff" id="stop625" offset="1"/></linearGradient><ellipse id="ellipse625" cx="24" cy="35.7" fill="url(#ellipse625_1_)" stroke="#515151" stroke-width=".744" rx="8.5" ry="5.6"/><linearGradient id="path632_1_" x1="-560.124" x2="-600.053" y1="341.541" y2="372.748" gradientTransform="matrix(1 0 0 -1 604.918 375.8438)" gradientUnits="userSpaceOnUse"><stop style="stop-color:#b8b8b8" id="stop637" offset="0"/><stop style="stop-color:#000" id="stop638" offset="1"/></linearGradient><path id="path632" fill="url(#path632_1_)" d="M46.1,31c0,2.6-2.1,4.7-4.6,4.7h-35c-2.6,0-4.6-2.1-4.6-4.7V5.1c0-2.6,2.1-4.7,4.6-4.7h35c2.6,0,4.6,2.1,4.6,4.7V31z" enable-background="new" opacity=".5"/><linearGradient id="path645_1_" x1="-601.186" x2="-561.206" y1="373.266" y2="343.141" gradientTransform="matrix(1 0 0 -1 604.918 375.8438)" gradientUnits="userSpaceOnUse"><stop style="stop-color:#fff" id="stop644" offset="0"/><stop style="stop-color:#fcfcfc" id="stop645" offset=".252"/><stop style="stop-color:#f3f3f3" id="stop646" offset=".417"/><stop style="stop-color:#e5e5e5" id="stop647" offset=".558"/><stop style="stop-color:#cfcfcf" id="stop648" offset=".685"/><stop style="stop-color:#b4b4b4" id="stop649" offset=".803"/><stop style="stop-color:#939393" id="stop650" offset=".912"/><stop style="stop-color:#727272" id="stop651" offset="1"/></linearGradient><path id="path645" fill="url(#path645_1_)" d="M45.4,30.1c0,2.5-2,4.5-4.5,4.5H7.1c-2.5,0-4.5-2-4.5-4.5V5.6c0-2.5,2-4.5,4.5-4.5 h33.8c2.5,0,4.5,2,4.5,4.5V30.1L45.4,30.1z"/><linearGradient id="rect653_1_" x1="-565.818" x2="-565.818" y1="357.384" y2="369.842" gradientTransform="matrix(1 0 0 -1 604.918 375.8438)" gradientUnits="userSpaceOnUse"><stop style="stop-color:#fff" id="stop669" offset="0"/><stop style="stop-color:#000" id="stop670" offset="1"/></linearGradient><rect id="rect653" width="5.6" height="23.8" x="36.3" y="6" fill="url(#rect653_1_)"/><linearGradient id="rect660_1_" x1="-586.683" x2="-598.212" y1="349.444" y2="349.444" gradientTransform="matrix(1 0 0 -1 604.918 375.8438)" gradientUnits="userSpaceOnUse"><stop style="stop-color:#fff" id="stop676" offset="0"/><stop style="stop-color:#000" id="stop677" offset="1"/></linearGradient><rect id="rect660" width="34.2" height="8.2" x="6.9" y="22.3" fill="url(#rect660_1_)"/><linearGradient id="rect667_1_" x1="-596.018" x2="-596.018" y1="342.322" y2="382.3" gradientTransform="matrix(1 0 0 -1 604.918 375.8438)" gradientUnits="userSpaceOnUse"><stop style="stop-color:#fff" id="stop683" offset="0"/><stop style="stop-color:#000" id="stop684" offset="1"/></linearGradient><rect id="rect667" width="5.6" height="23.8" x="6.1" y="6" fill="url(#rect667_1_)"/><linearGradient id="rect674_1_" x1="-555.071" x2="-605.463" y1="366.544" y2="366.544" gradientTransform="matrix(1 0 0 -1 604.918 375.8438)" gradientUnits="userSpaceOnUse"><stop style="stop-color:#fff" id="stop690" offset="0"/><stop style="stop-color:#000" id="stop691" offset="1"/></linearGradient><rect id="rect674" width="34.2" height="8.2" x="6.9" y="5.2" fill="url(#rect674_1_)"/><radialGradient id="rect688_1_" cx="-580.773" cy="349.978" r="23.058" fx="-580.773" fy="349.978" gradientTransform="matrix(1 0 0 -1 604.918 375.8438)" gradientUnits="userSpaceOnUse"><stop style="stop-color:#00c0ff" id="stop697" offset="0"/><stop style="stop-color:#00affc" id="stop698" offset=".097"/><stop style="stop-color:#018ff6" id="stop699" offset=".292"/><stop style="stop-color:#033de8" id="stop700" offset=".663"/><stop style="stop-color:#031cc2" id="stop701" offset="1"/></radialGradient><rect id="rect688" width="34.2" height="23.8" x="6.9" y="6" fill="url(#rect688_1_)"/><rect id="rect689" width="48" height="48" fill="none"/><linearGradient id="path188_1_" x1="-1135.164" x2="-1033.506" y1="146.528" y2="38.139" gradientTransform="matrix(0.1875 0 0 -0.1875 224.9455 28.002)" gradientUnits="userSpaceOnUse"><stop style="stop-color:#fff" id="stop714" offset="0"/><stop style="stop-color:#39f" id="stop715" offset="1"/></linearGradient><path id="path188" fill="url(#path188_1_)" d="M33.6,13.5c3.3-1.8,5.2-4.1,7.1-6.5c0-0.7,0-1,0-1.1C40.3,6,7.3,6,6.9,6 c0,0.2,0,8.2,0,14c2.1-1.3,4.6-2.3,7.2-3C20.6,15.5,27.6,16.7,33.6,13.5z"/></g></svg>