<svg xmlns="http://www.w3.org/2000/svg" xmlns:xlink="http://www.w3.org/1999/xlink" id="svg602" width="48" height="48" enable-background="new 0 0 48 48" overflow="visible" viewBox="0 0 48 48" xml:space="preserve"><g id="Layer_x0020_4"><path id="path605" fill="#00007E" d="M10.2,2.6C7.3,2.6,5,5,5,8v31.6c0,3,2.3,5.4,5.2,5.4h27.3c2.9,0,5.2-2.4,5.2-5.4V8 c0-3-2.3-5.4-5.2-5.4H10.2z"/><linearGradient id="path612_1_" x1="-734.273" x2="-714.561" y1="317.137" y2="282.894" gradientTransform="matrix(1 0 0 -1 748.2031 324.2266)" gradientUnits="userSpaceOnUse"><stop style="stop-color:#f0f0f0" id="stop608" offset="0"/><stop style="stop-color:#d6d6d6" id="stop609" offset="1"/></linearGradient><path id="path612" fill="url(#path612_1_)" d="M40.1,39.6c0,1.6-1.3,2.9-2.8,2.9H9.9c-1.6,0-2.8-1.3-2.8-2.9V8 c0-1.6,1.3-2.9,2.8-2.9h27.3C38.8,5.1,40,6.4,40,8L40.1,39.6L40.1,39.6z"/><g id="g613"><radialGradient id="circle620_1_" cx="-796.612" cy="267.601" r="6.371" fx="-796.612" fy="267.601" gradientTransform="matrix(0.1947 0 0 -0.2012 164.995 84.411)" gradientUnits="userSpaceOnUse"><stop style="stop-color:#f0f0f0" id="stop616" offset="0"/><stop style="stop-color:#474747" id="stop617" offset="1"/></radialGradient><circle id="circle620" cx="9.7" cy="30.2" r=".8" fill="url(#circle620_1_)"/><radialGradient id="circle627_1_" cx="-796.612" cy="328.185" r="6.371" fx="-796.612" fy="328.185" gradientTransform="matrix(0.1947 0 0 -0.2012 164.995 84.411)" gradientUnits="userSpaceOnUse"><stop style="stop-color:#f0f0f0" id="stop623" offset="0"/><stop style="stop-color:#474747" id="stop624" offset="1"/></radialGradient><circle id="circle627" cx="9.7" cy="18" r=".8" fill="url(#circle627_1_)"/></g><rect id="polygon628" width=".3" height="36.8" x="12.1" y="5.7" fill="#FFF"/><linearGradient id="polygon635_1_" x1="-736.084" x2="-736.519" y1="317.487" y2="283.017" gradientTransform="matrix(1 0 0 -1 748.2031 324.2266)" gradientUnits="userSpaceOnUse"><stop style="stop-color:#ededed" id="stop631" offset="0"/><stop style="stop-color:#cacaca" id="stop632" offset="1"/></linearGradient><rect id="polygon635" width=".4" height="36.8" x="11.7" y="5.7" fill="url(#polygon635_1_)"/><path id="path636" fill="#FFF" d="M8.4,9L7.8,41.5C7.3,41,7.1,40,7.1,40V7.8c0,0,0-0.8,0.7-1.8c0.7-1,2-1,2-1h27.9L10.8,6.4 c-1,0-1.6,0.6-1.9,0.9C8.8,7.5,8.4,8.3,8.4,9L8.4,9z"/><path id="path637" fill="#BEBEBE" d="M38.9,38.6l0.6-32.5c0.4,0.5,0.6,1.5,0.6,1.5v32.2c0,0,0,0.8-0.7,1.8c-0.7,1-2,1-2,1H9.5 l26.8-1.4c1.1,0,1.7-0.6,1.9-0.8C38.5,40.1,38.9,39.3,38.9,38.6L38.9,38.6z"/><rect id="rect638" width="48" height="48" fill="none"/></g><g id="Layer_x0020_2"><g id="g640"><rect id="rect641" width="12.7" height="3.1" x="23.4" y="19.7" fill="#9090FF"/><rect id="rect642" width="7.8" height="3.1" x="13.8" y="19.7" fill="#9090FF"/><rect id="rect643" width="5.6" height="3.1" x="29.3" y="24.7" fill="#9090FF"/><rect id="polygon644" width="7.7" height="3.1" x="29" y="34.7" fill="#9090FF"/><rect id="polygon645" width="13.5" height="3.1" x="13.8" y="34.7" fill="#9090FF"/><rect id="rect646" width="8.5" height="3.1" x="13.8" y="29.7" fill="#9090FF"/><rect id="rect647" width="13.9" height="3.1" x="13.8" y="24.7" fill="#9090FF"/><rect id="rect648" width="13.9" height="3.1" x="13.8" y="14.7" fill="#9090FF"/><rect id="rect649" width="17.6" height="3.1" x="13.8" y="9.7" fill="#9090FF"/></g></g></svg>