<svg xmlns="http://www.w3.org/2000/svg" xmlns:xlink="http://www.w3.org/1999/xlink" id="svg602" width="48" height="48.1" enable-background="new 0 0 48 48.1" overflow="visible" viewBox="0 0 48 48.1" xml:space="preserve"><g id="Layer_1"><ellipse id="ellipse606" cx="24" cy="42.1" fill="#515151" stroke="#515151" rx="14.9" ry="5.5"/><linearGradient id="ellipse615_1_" x1="-984.084" x2="-984.456" y1="338.065" y2="326.165" gradientTransform="matrix(1 0 0 -1 1008.1973 375.8438)" gradientUnits="userSpaceOnUse"><stop style="stop-color:#fff" id="stop608" offset=".006"/><stop style="stop-color:#eee" id="stop609" offset=".208"/><stop style="stop-color:#c1c1c1" id="stop610" offset=".607"/><stop style="stop-color:#909090" id="stop611" offset="1"/></linearGradient><ellipse id="ellipse615" cx="24" cy="41.4" fill="url(#ellipse615_1_)" stroke="#515151" stroke-width=".744" rx="14.8" ry="5.5"/><linearGradient id="ellipse625_1_" x1="-984.197" x2="-984.197" y1="345.885" y2="334.543" gradientTransform="matrix(1 0 0 -1 1008.1973 375.8438)" gradientUnits="userSpaceOnUse"><stop style="stop-color:#909090" id="stop621" offset="0"/><stop style="stop-color:#b9b9b9" id="stop622" offset=".287"/><stop style="stop-color:#dfdfdf" id="stop623" offset=".596"/><stop style="stop-color:#f6f6f6" id="stop624" offset=".845"/><stop style="stop-color:#fff" id="stop625" offset="1"/></linearGradient><ellipse id="ellipse625" cx="24" cy="35.7" fill="url(#ellipse625_1_)" stroke="#515151" stroke-width=".744" rx="8.5" ry="5.6"/><linearGradient id="path632_1_" x1="-963.402" x2="-1003.332" y1="341.542" y2="372.749" gradientTransform="matrix(1 0 0 -1 1008.1973 375.8438)" gradientUnits="userSpaceOnUse"><stop style="stop-color:#b8b8b8" id="stop637" offset="0"/><stop style="stop-color:#000" id="stop638" offset="1"/></linearGradient><path id="path632" fill="url(#path632_1_)" d="M46.1,31c0,2.6-2.1,4.7-4.6,4.7h-35c-2.6,0-4.6-2.1-4.6-4.7V5.1c0-2.6,2.1-4.7,4.6-4.7h35c2.6,0,4.6,2.1,4.6,4.7V31z" enable-background="new" opacity=".5"/><linearGradient id="path645_1_" x1="-1004.464" x2="-964.485" y1="373.266" y2="343.141" gradientTransform="matrix(1 0 0 -1 1008.1973 375.8438)" gradientUnits="userSpaceOnUse"><stop style="stop-color:#fff" id="stop644" offset="0"/><stop style="stop-color:#fcfcfc" id="stop645" offset=".252"/><stop style="stop-color:#f3f3f3" id="stop646" offset=".417"/><stop style="stop-color:#e5e5e5" id="stop647" offset=".558"/><stop style="stop-color:#cfcfcf" id="stop648" offset=".685"/><stop style="stop-color:#b4b4b4" id="stop649" offset=".803"/><stop style="stop-color:#939393" id="stop650" offset=".912"/><stop style="stop-color:#727272" id="stop651" offset="1"/></linearGradient><path id="path645" fill="url(#path645_1_)" d="M45.4,30.1c0,2.5-2,4.5-4.5,4.5H7.1c-2.5,0-4.5-2-4.5-4.5V5.6c0-2.5,2-4.5,4.5-4.5 h33.8c2.5,0,4.5,2,4.5,4.5V30.1L45.4,30.1z"/><linearGradient id="rect653_1_" x1="-969.097" x2="-969.097" y1="357.384" y2="369.842" gradientTransform="matrix(1 0 0 -1 1008.1973 375.8438)" gradientUnits="userSpaceOnUse"><stop style="stop-color:#fff" id="stop669" offset="0"/><stop style="stop-color:#000" id="stop670" offset="1"/></linearGradient><rect id="rect653" width="5.6" height="23.8" x="36.3" y="6" fill="url(#rect653_1_)"/><linearGradient id="rect660_1_" x1="-989.961" x2="-1001.49" y1="349.444" y2="349.444" gradientTransform="matrix(1 0 0 -1 1008.1973 375.8438)" gradientUnits="userSpaceOnUse"><stop style="stop-color:#fff" id="stop676" offset="0"/><stop style="stop-color:#000" id="stop677" offset="1"/></linearGradient><rect id="rect660" width="34.2" height="8.2" x="6.9" y="22.3" fill="url(#rect660_1_)"/><linearGradient id="rect667_1_" x1="-999.297" x2="-999.297" y1="342.322" y2="382.3" gradientTransform="matrix(1 0 0 -1 1008.1973 375.8438)" gradientUnits="userSpaceOnUse"><stop style="stop-color:#fff" id="stop683" offset="0"/><stop style="stop-color:#000" id="stop684" offset="1"/></linearGradient><rect id="rect667" width="5.6" height="23.8" x="6.1" y="6" fill="url(#rect667_1_)"/><linearGradient id="rect674_1_" x1="-958.349" x2="-1008.741" y1="366.544" y2="366.544" gradientTransform="matrix(1 0 0 -1 1008.1973 375.8438)" gradientUnits="userSpaceOnUse"><stop style="stop-color:#fff" id="stop690" offset="0"/><stop style="stop-color:#000" id="stop691" offset="1"/></linearGradient><rect id="rect674" width="34.2" height="8.2" x="6.9" y="5.2" fill="url(#rect674_1_)"/><radialGradient id="rect688_1_" cx="-984.052" cy="349.978" r="23.058" fx="-984.052" fy="349.978" gradientTransform="matrix(1 0 0 -1 1008.1973 375.8438)" gradientUnits="userSpaceOnUse"><stop style="stop-color:#00ed00" id="stop697" offset="0"/><stop style="stop-color:#00ca00" id="stop698" offset=".32"/><stop style="stop-color:#00a701" id="stop699" offset=".562"/><stop style="stop-color:#008303" id="stop700" offset=".809"/><stop style="stop-color:#006203" id="stop701" offset="1"/></radialGradient><rect id="rect688" width="34.2" height="23.8" x="6.9" y="6" fill="url(#rect688_1_)"/><rect id="rect689" width="48" height="48" fill="none"/><linearGradient id="path188_1_" x1="-1539.924" x2="-1437.179" y1="145.173" y2="35.625" gradientTransform="matrix(0.1875 0 0 -0.1875 300.5608 28.002)" gradientUnits="userSpaceOnUse"><stop style="stop-color:#fff" id="stop714" offset="0"/><stop style="stop-color:#72ff00" id="stop715" offset="1"/></linearGradient><path id="path188" fill="url(#path188_1_)" d="M33.6,14.1c3.3-1.9,5.2-4.4,7.1-6.9c0-0.7,0-1.1,0-1.1C40.3,6,7.3,6,6.9,6 c0,0.2,0,8.8,0,15c2.1-1.4,4.6-2.5,7.2-3.2C20.6,16.2,27.6,17.5,33.6,14.1z"/><line id="line720" x1="9.8" x2="37.5" y1="8.3" y2="27.4" fill="none" stroke="red" stroke-linecap="round" stroke-linejoin="bevel" stroke-width="6"/><line id="line721" x1="37.5" x2="9.8" y1="8.3" y2="27.4" fill="none" stroke="red" stroke-linecap="round" stroke-linejoin="bevel" stroke-width="6"/></g></svg>