<svg xmlns="http://www.w3.org/2000/svg" xmlns:xlink="http://www.w3.org/1999/xlink" id="svg602" width="49" height="48" enable-background="new 0 0 49 48" overflow="visible" viewBox="0 0 49 48" xml:space="preserve"><g id="Layer_1_2_"><g id="g606"><g id="g623"><path id="path624" fill="#FFF" stroke="#58587C" stroke-miterlimit="2" stroke-width="1.932" d="M41.1,37.2 c0,2.6-0.5,4.5,3.9,4.5L5.6,41.9C3,41.9,1,39.8,1,37.2V10.8c0-2.6,2-4.7,4.6-4.7h15.5l3.4,4.5h14.9c1.5,0,1.6,1.2,1.5,2.9v23.6 h0.2V37.2z"/><linearGradient id="path631_1_" x1="-605.246" x2="-638.782" y1="478.333" y2="507.666" gradientTransform="matrix(1 0 0 -1 642.5186 518)" gradientUnits="userSpaceOnUse"><stop style="stop-color:#f7f7ff" id="stop610" offset="0"/><stop style="stop-color:#e6e6e6" id="stop611" offset="1"/></linearGradient><path id="path631" fill="url(#path631_1_)" d="M39.4,35.8c0,2.2-1.8,4-4.2,4H7.1c-2.3,0-4.2-1.8-4.2-4V12.9c0-2.2,1.8-4,4.2-4 h14.1l3.2,3.9H38c1.3,0,1.5,1.1,1.3,2.6L39.4,35.8L39.4,35.8z"/><g id="g632"><path id="path633" fill="#FFF" stroke="#002B92" stroke-width="1.838" d="M10.4,38.6c0,1.7-2.3,3.3-4.5,3.3l37.9-0.1c2.4,0,4.3-1.5,4.3-3.2V20.3c0-1.7-2-3.2-4.3-3.2H29.1l-3.2,3.2h-14 c-1.3,0-1.6,0.9-1.5,2V38.6z" enable-background="new" opacity=".7"/><linearGradient id="path647_1_" x1="-630.52" x2="-592.492" y1="478.15" y2="478.15" gradientTransform="matrix(1.0755 0 0 -1 684.7908 518)" gradientUnits="userSpaceOnUse"><stop style="stop-color:#fff" id="stop619" offset="0"/><stop style="stop-color:#fbfbfe" id="stop620" offset=".121"/><stop style="stop-color:#eeeefa" id="stop621" offset=".246"/><stop style="stop-color:#dadaf3" id="stop622" offset=".373"/><stop style="stop-color:#bdbdea" id="stop623" offset=".501"/><stop style="stop-color:#9797de" id="stop624" offset=".63"/><stop style="stop-color:#6969cf" id="stop625" offset=".76"/><stop style="stop-color:#3434bf" id="stop626" offset=".889"/><stop style="stop-color:#0000ae" id="stop627" offset="1"/></linearGradient><path id="path647" fill="url(#path647_1_)" d="M11.1,38.2c0,1.7-2.2,3.3-4.4,3.3l36.7-0.1c2.3,0,4.2-1.5,4.2-3.2H11.1z" enable-background="new" opacity=".4"/><linearGradient id="path658_1_" x1="-598.632" x2="-617.797" y1="502.623" y2="489.171" gradientTransform="matrix(1 0 0 -1 642.5186 518)" gradientUnits="userSpaceOnUse"><stop style="stop-color:#fff" id="stop647" offset="0"/><stop style="stop-color:#c3e7ff" id="stop648" offset=".14"/><stop style="stop-color:#5bbdff" id="stop649" offset=".365"/><stop style="stop-color:#446cf6" id="stop650" offset="1"/></linearGradient><path id="path658" fill="url(#path658_1_)" d="M10.4,30.7c2.4,0,35.6,0,36.7,0v-10c0-1.7-1.8-3.2-4.3-3.2h-14l-3.2,3.2H11.9c-1.3,0-1.5,0.9-1.3,2v8.1L10.4,30.7L10.4,30.7z" enable-background="new" opacity=".7"/><path id="path659" fill="#FFFFD7" d="M42.9,17.5H28.6l-3.2,3.2h-5c0.6,4,6.4,7.1,13.3,7.1c7.2,0,13.2-3.4,13.3-7.7C46.7,18.6,45,17.5,42.9,17.5z" enable-background="new" opacity=".4"/><path id="path660" fill="none" stroke="#002B92" stroke-width="1.838" d="M10.4,38.6c0,1.7-2.3,3.3-4.5,3.3l37.9-0.1c2.4,0,4.3-1.5,4.3-3.2V20.3c0-1.7-2-3.2-4.3-3.2H29.1l-3.2,3.2h-14 c-1.3,0-1.6,0.9-1.5,2V38.6z" enable-background="new" opacity=".7"/></g></g><rect id="rect660" width="48" height="48" x=".5" fill="none"/></g><g id="g662"><path id="path552" d="M47.6,18.7l-9.7,12.7 c-0.2,0.2-0.6,0.5-1,0.5c-0.4,0-0.7-0.1-1-0.5l-9.6-12.7c-0.2-0.4-0.4-0.8-0.1-1.2c0.2-0.4,0.6-0.7,1.1-0.7c0,0,3.4,0,3.8,0 c0-1.4-0.4-3.5-1.7-5.5c-2.4-4-7-6.7-13.6-8.2c-0.6-0.1-1-0.7-1-1.3c0.1-0.6,0.6-1.1,1.2-1.1c10,0,17.5,2.6,22.2,7.7 c3,3.2,4,6.6,4.3,8.4c0.4,0,4.1,0,4.1,0c0.5,0,0.8,0.2,1.1,0.7S47.8,18.4,47.6,18.7z" enable-background="new" opacity=".2"/><path id="path553" fill="#3A3333" d="M48.2,18l-9.7,12.7c-0.1,0.2-0.5,0.5-0.8,0.5c-0.4,0-0.7-0.1-1-0.5L26.9,18 c-0.2-0.4-0.4-0.8-0.1-1.2c0.2-0.4,0.6-0.7,1.1-0.7c0,0,3.4,0,3.8,0c0-1.4-0.4-3.4-1.7-5.5c-2.4-4-7-6.7-13.6-8.2 c-0.6-0.1-1-0.7-1-1.3C15.6,0.5,16.1,0,16.7,0c10,0,17.5,2.6,22.2,7.7c3,3.2,4,6.6,4.3,8.4c0.4,0,4.1,0,4.1,0 c0.5,0,0.8,0.2,1.1,0.7C48.5,17.2,48.5,17.6,48.2,18z"/><path id="path554" fill="#3A3333" d="M48,17.9l-9.7,12.8c-0.1,0.2-0.5,0.4-0.7,0.4c-0.2,0-0.6-0.1-0.7-0.4l-9.7-12.8 c-0.2-0.2-0.2-0.6-0.1-1s0.5-0.5,0.8-0.5c0,0,3.6,0,4.1,0c0-1.3-0.2-3.6-1.7-6c-2.4-4.1-7.1-6.8-13.7-8.3 c-0.5-0.1-0.7-0.5-0.7-1s0.5-0.8,1-0.8c10,0,17.3,2.5,22,7.6c3,3.2,4,6.6,4.3,8.5c0.4,0,4.2,0,4.2,0c0.4,0,0.7,0.2,0.8,0.5 C48.3,17.3,48.2,17.6,48,17.9z"/><path id="path555" fill="#583333" d="M47.8,17.8l-9.7,12.7c-0.1,0.1-0.4,0.2-0.5,0.2c-0.1,0-0.4-0.1-0.5-0.2l-9.7-12.7 c-0.1-0.2-0.1-0.5-0.1-0.7c0.1-0.2,0.4-0.4,0.6-0.4c0,0,3.4,0,4.3,0c0-1.2-0.2-3.7-1.8-6.4c-2.4-4.1-7.1-7-13.9-8.4 c-0.4-0.1-0.6-0.4-0.5-0.7c0-0.4,0.4-0.6,0.6-0.6c9.8,0,17.2,2.5,21.7,7.6c3.1,3.4,4,7,4.3,8.6c1,0,4.4,0,4.4,0 c0.2,0,0.5,0.1,0.6,0.4C47.9,17.3,47.9,17.5,47.8,17.8z"/><linearGradient id="path562_1_" x1="-1808.043" x2="-1546.938" y1="-898.383" y2="-898.383" gradientTransform="matrix(-4.952094e-012 -0.1103 -0.1103 4.952094e-012 -67.1758 -169.365)" gradientUnits="userSpaceOnUse"><stop style="stop-color:#fc6" id="stop668" offset="0"/><stop style="stop-color:#f90" id="stop669" offset="1"/></linearGradient><path id="path562" fill="url(#path562_1_)" d="M42.2,17.3h5L37.6,30l-9.7-12.7h5C33,15.6,33.3,4.8,16.7,1.2 C39.8,1.2,42,15.2,42.2,17.3z"/><path id="path674" fill="#FF9" d="M37.8,29.6L29,17.4h-1.1L37.6,30L37.8,29.6z M18.6,1.2c-0.6,0-1.3,0-1.9,0C33.3,4.8,33,15.6,32.9,17.3 h0.8C33.9,15.6,34.1,4.8,18.6,1.2z"/><linearGradient id="path562_3_" x1="-1695.424" x2="-1546.918" y1="-881.61" y2="-881.61" gradientTransform="matrix(-4.952094e-012 -0.1103 -0.1103 4.952094e-012 -67.1758 -169.365)" gradientUnits="userSpaceOnUse"><stop style="stop-color:#ffb600" id="stop676" offset="0"/><stop style="stop-color:#ffba0e" id="stop677" offset=".034"/><stop style="stop-color:#ffcc4b" id="stop678" offset=".188"/><stop style="stop-color:#ffdc80" id="stop679" offset=".341"/><stop style="stop-color:#ffe8aa" id="stop680" offset=".489"/><stop style="stop-color:#fff2cc" id="stop681" offset=".632"/><stop style="stop-color:#fff9e4" id="stop682" offset=".768"/><stop style="stop-color:#fffef2" id="stop683" offset=".893"/><stop style="stop-color:#fffff7" id="stop684" offset="1"/></linearGradient><path id="path562_2_" fill="url(#path562_3_)" d="M42.5,17.6h-9.2c-0.6-5.2,1-12.8-15.6-16.4C40.7,1.2,41.1,13.9,42.5,17.6z"/></g></g></svg>