<svg xmlns="http://www.w3.org/2000/svg" xmlns:xlink="http://www.w3.org/1999/xlink" id="svg602" width="48" height="48" enable-background="new 0 0 48 48" overflow="visible" viewBox="0 0 48 48" xml:space="preserve"><g id="Layer_2_1_"><g id="g606"><polygon id="polygon649" points="6.4 16.2 6.4 39.8 23.7 46.8 41.6 31.8 41.6 8.2 24.3 1.2"/><linearGradient id="polygon712_1_" x1="-986.742" x2="-987.85" y1="772.26" y2="783.347" gradientTransform="matrix(1 0 0 -1 1011.5879 793.5234)" gradientUnits="userSpaceOnUse"><stop style="stop-color:#f2f2f2" id="stop609" offset="0"/><stop style="stop-color:#eee" id="stop610" offset=".312"/><stop style="stop-color:#e0e0e0" id="stop611" offset=".665"/><stop style="stop-color:#ccc" id="stop612" offset="1"/></linearGradient><polygon id="polygon712" fill="url(#polygon712_1_)" points="23.3 23.1 8.4 17.1 11.6 14.4 12.1 14.6 12 14 24.7 3.4 39.7 9.5"/><linearGradient id="polygon722_1_" x1="-988.049" x2="-995.705" y1="748.757" y2="762.514" gradientTransform="matrix(1 0 0 -1 1011.5879 793.5234)" gradientUnits="userSpaceOnUse"><stop style="stop-color:#e6e6e6" id="stop622" offset="0"/><stop style="stop-color:#c7c7c7" id="stop623" offset=".621"/><stop style="stop-color:#b3b3b3" id="stop624" offset="1"/></linearGradient><polygon id="polygon722" fill="url(#polygon722_1_)" points="23.3 44.9 14.6 41.3 14.5 40.9 13.8 41 8.4 38.8 8.4 17.1 13.8 19.2 14.6 19.4 14.6 19.6 23.3 23.1"/><polygon id="polygon723" points="14.5 40.9 13.8 40.9 13.8 19.4 14.6 19.4 14.5 19.6" enable-background="new" opacity=".3"/><rect id="polygon724" width=".8" height="21.6" x="14.5" y="19.8" fill="#FFF" enable-background="new" opacity=".8"/><linearGradient id="polygon734_1_" x1="-976.435" x2="-985.425" y1="763.462" y2="770.504" gradientTransform="matrix(1 0 0 -1 1011.5879 793.5234)" gradientUnits="userSpaceOnUse"><stop style="stop-color:#999" id="stop634" offset="0"/><stop style="stop-color:#7b7b7b" id="stop635" offset=".684"/><stop style="stop-color:#6b6b6b" id="stop636" offset="1"/></linearGradient><polygon id="polygon734" fill="url(#polygon734_1_)" points="39.7 31.1 27 41.8 26.4 41.6 26.4 42.2 23.3 44.9 23.3 23.1 39.7 9.5"/><polygon id="polygon735" fill="#FFF" points="12.1 14 26.9 20.2 27.7 19.5 12.6 13.6" enable-background="new" opacity=".8"/><rect id="polygon736" width="1.1" height="21.6" x="26.8" y="19.8" fill="#242424" enable-background="new" opacity=".6"/><polygon id="polygon737" fill="#FFF" points="8.4 17.1 8.4 17.7 13.8 19.9 13.8 19.4 14.6 19.4 14.5 20.2 23.3 23.7 23.5 23.2 23.9 22.7 8.8 16.7" enable-background="new" opacity=".84"/><polygon id="polygon738" points="12.1 14.6 26.4 20.6 26.4 41.6 26.9 41.8 26.9 20.2 12 14" enable-background="new" opacity=".3"/><linearGradient id="polygon722_5_" x1="-296.655" x2="-293.544" y1="78.607" y2="78.607" gradientTransform="matrix(1 0 0 1 313.9063 -51.8574)" gradientUnits="userSpaceOnUse"><stop style="stop-color:#00a200" id="stop648" offset="0"/><stop style="stop-color:#0f0" id="stop649" offset="1"/></linearGradient><polygon id="polygon722_2_" fill="url(#polygon722_5_)" points="20.3 29 18.6 28.5 18.6 28.4 18.3 28.4 17.3 28.1 17.3 24.5 18.3 24.9 18.6 24.9 18.6 24.9 20.3 25.6"/><linearGradient id="polygon722_6_" x1="-296.655" x2="-293.544" y1="84.407" y2="84.407" gradientTransform="matrix(1 0 0 1 313.9063 -51.8574)" gradientUnits="userSpaceOnUse"><stop style="stop-color:#f70" id="stop655" offset=".006"/><stop style="stop-color:#ffdc00" id="stop656" offset="1"/></linearGradient><polygon id="polygon722_3_" fill="url(#polygon722_6_)" points="20.3 34.8 18.6 34.3 18.6 34.2 18.3 34.2 17.3 33.9 17.3 30.3 18.3 30.7 18.6 30.7 18.6 30.7 20.3 31.4"/><linearGradient id="polygon722_7_" x1="-296.655" x2="-293.544" y1="90.308" y2="90.308" gradientTransform="matrix(1 0 0 1 313.9063 -51.8574)" gradientUnits="userSpaceOnUse"><stop style="stop-color:#a20000" id="stop662" offset="0"/><stop style="stop-color:red" id="stop663" offset="1"/></linearGradient><polygon id="polygon722_4_" fill="url(#polygon722_7_)" points="20.3 40.6 18.6 40.1 18.6 40 18.3 40.1 17.3 39.7 17.3 36.3 18.3 36.5 18.6 36.5 18.6 36.7 20.3 37.2"/></g><linearGradient id="path173_1_" x1="-113.198" x2="-113.198" y1="520.75" y2="495.149" gradientTransform="matrix(1 0 0 -1 148.3477 543.0254)" gradientUnits="userSpaceOnUse"><stop style="stop-color:#7e0000" id="stop669" offset="0"/><stop style="stop-color:red" id="stop670" offset="1"/></linearGradient><path id="path173" fill="url(#path173_1_)" d="M33,24.6c0,0,0,3.1,0,5.2c-1.5-1.5-3.6-3.7-3.6-3.7c-0.9-0.9-2.3-0.9-3.2,0 c-0.4,0.4-0.7,1-0.7,1.6c0,0.6,0.2,1.2,0.7,1.6c0,0,2.2,2.2,3.6,3.6c-2.1,0-5.2,0-5.2,0c-1.2,0-2.2,1-2.2,2.2 c0,1.2,1,2.2,2.2,2.2c0,0,3.1,0,5.2,0c-1.5,1.5-3.6,3.7-3.6,3.7c-0.4,0.4-0.7,1-0.7,1.6s0.2,1.1,0.7,1.6c0.4,0.4,1,0.7,1.6,0.7 c0.6,0,1.2-0.2,1.6-0.7c0,0,2.2-2.2,3.6-3.6c0,2.1,0,5.2,0,5.2c0,1.2,1,2.2,2.2,2.2c1.2,0,2.2-1,2.2-2.2c0,0,0-3.1,0-5.2 c1.5,1.5,3.6,3.6,3.6,3.6c0.4,0.4,1,0.7,1.6,0.7s1.2-0.2,1.6-0.7c0.4-0.4,0.7-1,0.7-1.6s-0.2-1.2-0.7-1.6c0,0-2.2-2.2-3.7-3.7 c2.1,0,5.2,0,5.2,0c1.2,0,2.2-1,2.2-2.2c0-1.2-1-2.2-2.2-2.2c0,0-3.1,0-5.2,0c1.5-1.5,3.7-3.6,3.7-3.6c0.4-0.4,0.7-1,0.7-1.6 c0-0.6-0.2-1.1-0.7-1.6c-0.9-0.9-2.3-0.9-3.2,0c0,0-2.2,2.2-3.6,3.7c0-2.1,0-5.2,0-5.2c0-1.2-1-2.2-2.2-2.2 C34,22.4,33,23.4,33,24.6z"/><linearGradient id="path180_1_" x1="-888.259" x2="-760.595" y1="-471.068" y2="-471.068" gradientTransform="matrix(0.1875 0 0 0.1875 189.783 123.5255)" gradientUnits="userSpaceOnUse"><stop style="stop-color:#ff6" id="stop676" offset="0"/><stop style="stop-color:#fc6" id="stop677" offset="1"/></linearGradient><path id="path180" fill="url(#path180_1_)" d="M45.8,33.8h-7.2l5.1-5.1c0.5-0.5,0.5-1.4,0-2c-0.6-0.5-1.4-0.5-2,0l-5.1,5.1v-7.2 c0-0.8-0.6-1.4-1.4-1.4c-0.8,0-1.4,0.6-1.4,1.4v7.2l-5.1-5.1c-0.6-0.5-1.4-0.5-2,0c-0.6,0.5-0.5,1.4,0,2l5.1,5.1h-7.2 c-0.8,0-1.4,0.6-1.4,1.4c0,0.8,0.6,1.4,1.4,1.4h7.2l-5.1,5.1c-0.5,0.5-0.5,1.4,0,2c0.5,0.6,1.4,0.6,2,0l5.1-5.1v7.2 c0,0.8,0.6,1.4,1.4,1.4c0.8,0,1.4-0.6,1.4-1.4v-7.2l5.1,5.1c0.6,0.6,1.4,0.6,2,0c0.5-0.5,0.5-1.4,0-2l-5.1-5.1h7.2 c0.8,0,1.4-0.6,1.4-1.4C47.2,34.4,46.5,33.8,45.8,33.8z"/><radialGradient id="path181_1_" cx="-113.32" cy="507.875" r="13" fx="-113.32" fy="507.875" gradientTransform="matrix(1 0 0 -1 148.3477 543.0254)" gradientUnits="userSpaceOnUse"><stop style="stop-color:#ff0" id="stop683" offset=".006"/><stop style="stop-color:#fffa00" id="stop684" offset=".11"/><stop style="stop-color:#ffec00" id="stop685" offset=".233"/><stop style="stop-color:#ffd400" id="stop686" offset=".365"/><stop style="stop-color:#ffb200" id="stop687" offset=".505"/><stop style="stop-color:#f80" id="stop688" offset=".649"/><stop style="stop-color:#ff5300" id="stop689" offset=".799"/><stop style="stop-color:#ff1600" id="stop690" offset=".949"/><stop style="stop-color:red" id="stop691" offset="1"/></radialGradient><path id="path181" fill="url(#path181_1_)" d="M34.3,24.6V33l-5.9-5.9c-0.4-0.4-0.9-0.4-1.3,0c-0.2,0.2-0.3,0.4-0.3,0.6 c0,0.2,0.1,0.5,0.3,0.6l5.9,5.9h-8.4c-0.5,0-0.9,0.4-0.9,0.9s0.4,0.9,0.9,0.9H33l-5.9,6c-0.4,0.4-0.4,0.9,0,1.3 c0.2,0.2,0.4,0.3,0.6,0.3c0.2,0,0.5-0.1,0.6-0.3l5.9-5.9v8.4c0,0.5,0.4,0.9,0.9,0.9s0.9-0.4,0.9-0.9v-8.4l5.9,5.9 c0.2,0.2,0.4,0.3,0.6,0.3s0.5-0.1,0.6-0.3c0.2-0.2,0.3-0.4,0.3-0.6c0-0.2-0.1-0.5-0.3-0.6l-5.9-5.9h8.4c0.5,0,0.9-0.4,0.9-0.9 s-0.4-0.9-0.9-0.9h-8.4l5.9-5.9c0.4-0.4,0.4-0.9,0-1.3c-0.4-0.4-0.9-0.4-1.3,0L36.1,33v-8.4c0-0.5-0.4-0.9-0.9-0.9 S34.3,24.1,34.3,24.6z"/><rect id="rect696" width="48" height="48" fill="none"/></g></svg>