<svg xmlns="http://www.w3.org/2000/svg" xmlns:xlink="http://www.w3.org/1999/xlink" id="svg602" width="48" height="48" enable-background="new 0 0 48 48" overflow="visible" viewBox="0 0 48 48" xml:space="preserve"><g id="Layer_1"><g id="g605"><linearGradient id="XMLID_12_" x1="-219.052" x2="-221.543" y1="390.049" y2="334.09" gradientTransform="matrix(1 0 0 -1 244.1514 380.9316)" gradientUnits="userSpaceOnUse"><stop style="stop-color:#dcf0ff" id="stop607" offset=".382"/><stop style="stop-color:#c9e6ff" id="stop608" offset=".444"/><stop style="stop-color:#92caff" id="stop609" offset=".631"/><stop style="stop-color:#6ab5ff" id="stop610" offset=".793"/><stop style="stop-color:#52a9ff" id="stop611" offset=".921"/><stop style="stop-color:#49a4ff" id="stop612" offset="1"/></linearGradient><path id="path624" fill="url(#XMLID_12_)" d="M38.6,8c-1-3.5-1.7-6.3-1.8-6.9c-0.2-0.8-0.9-0.9-1.5-0.6c-0.8,0.5-17.6,9.8-17.6,9.8 s-1.3,1-2.7,0.5C13.5,10.4,12.1,8,9.7,9C7.9,9.7,5.6,11,3.5,12.4c-2.7,1.8-0.9,4.1-1,5.5c-0.1,1.3-1.9,2-1.9,2s2.6,6.9,5.7,13.6 c3.2,6.7,8.1,13.8,8.1,13.8c0.1,0.2,0.3,0.5,0.9,0.2c0.8-0.3,30.2-19.9,31.2-20.4c0.2-0.1,0.3-0.2,0.4-0.4 c-0.9-1.6-1.8-3.4-2.7-5.1C41,15,38.5,8.1,38.6,8z"/><path id="path625" fill="#FFF" d="M38.6,8c-1-3.5-1.7-6.3-1.8-6.9c-0.2-0.8-0.9-0.9-1.5-0.6c-0.8,0.5-17.6,9.8-17.6,9.8s-1.3,1-2.7,0.5 C13.5,10.4,12.1,8,9.7,9C7.9,9.7,5.6,11,3.5,12.4c-2.7,1.8-0.9,4.1-1,5.5c-0.1,1.3-1.9,2-1.9,2s2.6,6.9,5.7,13.6 c3.2,6.7,8.1,13.8,8.1,13.8c0.1,0.2,0.3,0.5,0.9,0.2c0.8-0.3,30.2-19.9,31.2-20.4c0.2-0.1,0.3-0.2,0.4-0.4 c-0.9-1.6-1.8-3.4-2.7-5.1C41,15,38.5,8.1,38.6,8z"/><linearGradient id="XMLID_13_" x1="-211.245" x2="-240.687" y1="354.024" y2="365.404" gradientTransform="matrix(1 0 0 -1 244.1514 380.9316)" gradientUnits="userSpaceOnUse"><stop style="stop-color:#0032a4" id="stop627" offset="0"/><stop style="stop-color:#3995e5" id="stop628" offset="1"/></linearGradient><path id="path632" fill="url(#XMLID_13_)" d="M35,0.2C34.3,0.7,17.6,9.9,17.4,10c0,0-1.2,0.9-2.4,0.5c-0.4-0.1-0.8-0.5-1.2-0.8 c-1.1-0.8-2.4-1.8-4.2-1.1c-1.8,0.8-4.1,2-6.3,3.5c-2.2,1.4-1.7,3.2-1.4,4.5C2,17.1,2.1,17.6,2,17.9c-0.1,0.8-1.3,1.5-1.7,1.7 L0,19.7L0.1,20c0,0.1,2.6,7,5.8,13.6C9,40.3,14,47.4,14,47.5c0.1,0.2,0.5,0.7,1.3,0.4c0.4-0.2,7.4-4.8,18-11.7 c6.3-4.2,12.9-8.5,13.3-8.7c0.2-0.1,0.4-0.3,0.5-0.5l0.1-0.2l-0.1-0.2c-1-1.8-1.9-3.5-2.6-5.1c-3-6.3-5.5-13-5.6-13.5l0,0l0,0 c-0.7-2.5-1.2-4.5-1.6-5.8L37.1,1c-0.2-0.6-0.5-0.9-0.8-1C35.9-0.1,35.4,0,35,0.2z M35.4,0.9c0.2-0.1,0.4-0.2,0.6-0.1 c0.2,0.1,0.3,0.3,0.3,0.5l0.3,1.1c0.3,1.2,0.9,3.3,1.6,5.8c0,0,0,0,0,0c0.1,0.5,0.5,1.6,1.6,4.4c0.7,1.9,2.2,5.5,4,9.3 c0.7,1.5,1.6,3.1,2.5,4.9c0,0-0.1,0.1-0.1,0.1c-0.5,0.2-6.4,4.2-13.4,8.8c-7.7,5.1-17.3,11.4-17.8,11.7c-0.2,0.1-0.3,0-0.4-0.1 c0-0.1-5-7.1-8.1-13.7C3.9,27.5,1.5,21.6,1,20.1c0.6-0.3,1.7-1,1.8-2.2c0-0.1,0-0.1,0-0.2c0-0.4-0.1-0.9-0.2-1.3 c-0.1-0.5-0.3-1-0.3-1.5c0-0.8,0.3-1.5,1.3-2.2c2.2-1.5,4.5-2.7,6.2-3.4c1.4-0.6,2.4,0.2,3.4,1c0.5,0.4,1,0.7,1.5,0.9 c1.5,0.5,2.9-0.4,3-0.5C18.6,10.2,34.7,1.4,35.4,0.9z"/><linearGradient id="XMLID_14_" x1="-241.86" x2="-198.747" y1="356.738" y2="356.738" gradientTransform="matrix(1 0 0 -1 244.1514 380.9316)" gradientUnits="userSpaceOnUse"><stop style="stop-color:#fff" id="stop634" offset=".017"/><stop style="stop-color:#cff0ff" id="stop635" offset=".309"/><stop style="stop-color:#6db8ff" id="stop636" offset=".635"/><stop style="stop-color:#1e65ff" id="stop637" offset="1"/></linearGradient><path id="path645" fill="url(#XMLID_14_)" d="M37.7,9.3C36.8,6,36.2,3.4,36,2.9c-0.2-0.7-0.8-0.9-1.4-0.5c-0.7,0.4-16.4,9.1-16.4,9.1 s-1.2,0.9-2.5,0.4c-1.3-0.4-2.6-2.7-4.8-1.7C9.2,10.9,7,12.1,5,13.4c-2.5,1.6-0.8,3.8-1,5.1c-0.1,1.2-1.8,1.9-1.8,1.9 S4.7,26.8,7.6,33c2.9,6.2,7.6,12.8,7.6,12.8c0.1,0.2,0.3,0.4,0.8,0.2c0.7-0.3,28.1-18.5,29.1-19c0.2-0.1,0.3-0.2,0.4-0.3 c-0.9-1.5-1.7-3.1-2.5-4.7C40,15.8,37.6,9.4,37.7,9.3z"/></g><linearGradient id="XMLID_15_" x1="-229.405" x2="-229.405" y1="339.969" y2="339.969" gradientTransform="matrix(1 0 0 -1 244.1514 380.9316)" gradientUnits="userSpaceOnUse"><stop style="stop-color:#fff" id="stop647" offset="0"/><stop style="stop-color:#b1b1c5" id="stop648" offset="1"/></linearGradient><path id="path652" fill="url(#XMLID_15_)" d="M14.7,41"/><g id="g653"><linearGradient id="XMLID_16_" x1="-223.004" x2="-206.094" y1="359.539" y2="352.365" gradientTransform="matrix(1 0 0 -1 244.1514 380.9316)" gradientUnits="userSpaceOnUse"><stop style="stop-color:#6ac5ff" id="stop655" offset=".146"/><stop style="stop-color:#61b3fa" id="stop656" offset=".254"/><stop style="stop-color:#4886ec" id="stop657" offset=".469"/><stop style="stop-color:#213dd7" id="stop658" offset=".768"/><stop style="stop-color:#0000c5" id="stop659" offset="1"/></linearGradient><path id="path669" fill="url(#XMLID_16_)" d="M15.3,47.4 c0.8-0.3,30.2-19.9,31.2-20.4c0.5-0.3,0.6-0.9,0.6-0.9s-0.4-3.9-0.4-9.7c0-4.8,0.5-9.5,0.8-11.3c-0.1-0.6-0.2-1-0.2-1.4 c-0.1,0-0.2,0-0.2,0c-7,28.1-21.1,10.9-32.4,42.8c-0.1,0.2-0.1,0.5-0.1,0.8C14.7,47.4,14.9,47.5,15.3,47.4z" enable-background="new" opacity=".5"/><linearGradient id="XMLID_17_" x1="-225.472" x2="-209.352" y1="357.094" y2="354.825" gradientTransform="matrix(1 0 0 -1 244.1514 380.9316)" gradientUnits="userSpaceOnUse"><stop style="stop-color:#cdf8ff" id="stop671" offset="0"/><stop style="stop-color:#0056ff" id="stop672" offset="1"/></linearGradient><path id="path676" fill="url(#XMLID_17_)" d="M14.4,46.9 c0,0,0.1-5.8,0.7-11c0.5-4.5,1.4-7.7,2.1-9c0.7-1.3,6.5-4.5,7.9-5.6c1.4-1.1,1.3-4.4,1.7-5.2c0.4-0.9,1.6-1.4,1.6-1.4 s17-10.1,18.1-10.8c0.5-0.3,1.2-0.2,1.1,0.6c-0.1,0.7-0.9,6.2-0.9,12c0,5.7,0.4,9.7,0.4,9.7s-0.1,0.6-0.6,0.9 c-1,0.5-30.5,20.1-31.2,20.4C14.5,47.7,14.4,46.9,14.4,46.9z" enable-background="new" opacity=".6"/><path id="path677" fill="#FFF" d="M18.1,27.7c0.7-1.3,6.5-4.5,7.9-5.6c1.4-1.1,1.3-4.4,1.7-5.2c0.4-0.9,1.6-1.4,1.6-1.4s17-10.1,18.1-10.8 c0,0,0.1,0,0.1-0.1c0-0.1,0-0.1,0-0.1c0.1-0.7-0.6-0.9-1.1-0.6c-1.1,0.7-18.1,10.8-18.1,10.8s-1.2,0.6-1.6,1.4 c-0.4,0.9-0.4,4.1-1.7,5.2c-1.4,1.1-7.2,4.4-7.9,5.6c-0.7,1.3-1.6,4.5-2.1,9c-0.5,5.1-0.7,11-0.7,11s0.1,0.7,0.9,0.4 c0,0,0.1,0,0.1-0.1c0-1.4,0.2-6.2,0.7-10.6C16.5,32.2,17.4,29.1,18.1,27.7z"/><linearGradient id="XMLID_18_" x1="-222.267" x2="-197.533" y1="342.168" y2="354.088" gradientTransform="matrix(1 0 0 -1 244.1514 380.9316)" gradientUnits="userSpaceOnUse"><stop style="stop-color:#fff" id="stop679" offset="0"/><stop style="stop-color:#b1b1c5" id="stop680" offset="1"/></linearGradient><path id="path684" fill="url(#XMLID_18_)" d="M14.6,42.4c-0.1,2.6-0.2,4.6-0.2,4.6s0.1,0.7,0.9,0.4c0.8-0.3,30.2-19.9,31.2-20.4 c0.5-0.3,0.6-0.9,0.6-0.9s-0.2-1.8-0.3-4.7c-3,1.9-31.3,20.7-32,21C14.7,42.3,14.6,42.4,14.6,42.4z"/><linearGradient id="XMLID_19_" x1="-237.905" x2="-199.198" y1="333.063" y2="354.166" gradientTransform="matrix(1 0 0 -1 244.1514 380.9316)" gradientUnits="userSpaceOnUse"><stop style="stop-color:#fff" id="stop686" offset="0"/><stop style="stop-color:#b1b1c5" id="stop687" offset="1"/></linearGradient><path id="path691" fill="url(#XMLID_19_)" d="M14.6,42.4c-0.1,2.6-0.2,4.6-0.2,4.6s0.1,0.7,0.9,0.4c0.8-0.3,30.2-19.9,31.2-20.4c0.5-0.3,0.6-0.9,0.6-0.9s-0.2-1.8-0.3-4.7 c-3,1.9-31.3,20.7-32,21C14.7,42.3,14.6,42.4,14.6,42.4z" enable-background="new"/><linearGradient id="XMLID_20_" x1="-222.119" x2="-197.419" y1="343.19" y2="355.094" gradientTransform="matrix(1 0 0 -1 244.1514 380.9316)" gradientUnits="userSpaceOnUse"><stop style="stop-color:#fff" id="stop693" offset="0"/><stop style="stop-color:#b1b1c5" id="stop694" offset="1"/></linearGradient><path id="path698" fill="url(#XMLID_20_)" d="M14.9,41.7c-0.1,2.6-0.5,3.9-0.5,3.9s0.1,0.7,0.9,0.4c0.8-0.3,30.2-19.9,31.2-20.4 c0.5-0.3,0.6-0.9,0.6-0.9s0.1-1.1,0-4C43.8,23.2,14.9,41.7,14.9,41.7z"/><linearGradient id="XMLID_21_" x1="-206.151" x2="-223.86" y1="352.657" y2="359.502" gradientTransform="matrix(1 0 0 -1 244.1514 380.9316)" gradientUnits="userSpaceOnUse"><stop style="stop-color:#0032a4" id="stop700" offset="0"/><stop style="stop-color:#3995e5" id="stop701" offset="1"/></linearGradient><path id="path705" fill="url(#XMLID_21_)" d="M46.3,3.5c-1.1,0.7-17.9,10.7-18.1,10.8c0,0-1.3,0.6-1.7,1.6c-0.2,0.3-0.3,0.9-0.4,1.6 c-0.2,1.2-0.5,2.8-1.2,3.5c-0.5,0.4-1.6,1.1-2.8,1.9c-2.7,1.7-4.7,3-5.1,3.8c-0.7,1.3-1.6,4.4-2.1,9.2C14.2,41,14,46.9,14,46.9 l0,0l0,0c0,0,0.1,0.5,0.5,0.7c0.2,0.1,0.5,0.2,0.9,0c0.4-0.2,7.4-4.7,17.9-11.7c6.4-4.2,12.9-8.5,13.4-8.8 c0.5-0.3,0.7-0.9,0.8-1.2l0,0l0,0c0,0-0.4-4-0.4-9.6c0-5.9,0.8-11.3,0.9-11.9c0.1-0.4,0-0.8-0.4-1C47.2,3.2,46.7,3.3,46.3,3.5z M15.5,36c0.5-4.7,1.4-7.7,2.1-8.9c0.4-0.7,3-2.4,4.9-3.6c1.3-0.8,2.4-1.5,2.9-2c1-0.9,1.3-2.6,1.5-4c0.1-0.6,0.2-1.1,0.3-1.4 c0.4-0.7,1.4-1.2,1.4-1.2c0.7-0.4,17.1-10.1,18.2-10.8c0.2-0.1,0.4-0.1,0.5-0.1c0,0,0,0.1,0,0.1c0,0,0,0.1,0,0.1 c-0.1,0.6-0.9,6.1-0.9,12.1c0,5.5,0.4,9.4,0.4,9.7c0,0.1-0.1,0.4-0.4,0.5c-0.5,0.2-6.5,4.2-13.4,8.8 C25.2,40.5,15.7,46.8,15.1,47c-0.1,0-0.2,0-0.2,0c0,0-0.1-0.1-0.1-0.2C14.8,46.4,15,40.8,15.5,36z"/><linearGradient id="XMLID_22_" x1="-222.203" x2="-206.092" y1="380.066" y2="377.799" gradientTransform="matrix(1 0 0 -1 244.1514 380.9316)" gradientUnits="userSpaceOnUse"><stop style="stop-color:#cdf8ff" id="stop707" offset="0"/><stop style="stop-color:#0056ff" id="stop708" offset="1"/></linearGradient><path id="path712" fill="url(#XMLID_22_)" d="M47.6,4.4 c0.1-0.4-0.1-0.6-0.3-0.7c0.1,0.4,0.1,0.9,0.2,1.4C47.5,4.8,47.6,4.5,47.6,4.4z" enable-background="new" opacity=".6"/></g></g></svg>