<svg xmlns="http://www.w3.org/2000/svg" xmlns:xlink="http://www.w3.org/1999/xlink" id="svg602" width="48" height="48" enable-background="new 0 0 48 48" overflow="visible" viewBox="0 0 48 48" xml:space="preserve"><g id="Layer_x0020_1"><circle id="path622_6_" cx="24" cy="24" r="24" enable-background="new" opacity=".1"/><circle id="path622_4_" cx="24" cy="24" r="23.5" enable-background="new" opacity=".2"/><circle id="path622_5_" cx="24" cy="24" r="23" enable-background="new" opacity=".4"/><radialGradient id="path622_1_" cx="-1476.984" cy="-323.056" r="245.991" fx="-1476.984" fy="-323.056" gradientTransform="matrix(0.1518 0 0 -0.1518 253.9419 -8.5319)" gradientUnits="userSpaceOnUse"><stop style="stop-color:#90b2d4" id="stop610" offset="0"/><stop style="stop-color:#86a7cf" id="stop611" offset=".027"/><stop style="stop-color:#28459c" id="stop612" offset=".315"/><stop style="stop-color:#243b8f" id="stop613" offset=".358"/><stop style="stop-color:#1d2570" id="stop614" offset=".484"/><stop style="stop-color:#1a1e66" id="stop615" offset=".556"/><stop style="stop-color:#1b1f65" id="stop616" offset=".724"/><stop style="stop-color:#1e2265" id="stop617" offset=".784"/><stop style="stop-color:#262663" id="stop618" offset=".827"/><stop style="stop-color:#2e2d61" id="stop619" offset=".862"/><stop style="stop-color:#36335d" id="stop620" offset=".892"/><stop style="stop-color:#3c3856" id="stop621" offset=".918"/><stop style="stop-color:#3d394c" id="stop622" offset=".942"/><stop style="stop-color:#35323b" id="stop623" offset=".964"/><stop style="stop-color:#201f21" id="stop624" offset=".984"/><stop style="stop-color:#000" id="stop625" offset="1"/></radialGradient><circle id="path622" cx="24" cy="24" r="22.5" fill="url(#path622_1_)"/><path id="path658" d="M17.5,5.9c-0.1,0-0.2,0-0.3,0.1 C17.4,5.9,17.6,5.9,17.5,5.9z M24,7.1l0.1-0.9l-1,0.1l0.1,0.9L24,7.1L24,7.1z M12.7,23.5c-0.2-0.2-0.1-1-0.1-1s-3-1.6-6.3-2.5 c-0.4-0.1-0.2-0.9,0.2-1.3l-0.1-0.9c0-0.5,0.7-2.6,1.4-2.8c0.7-0.2-0.1,1.3-0.1,1.3L7,16.7c0,0,0.9,1,1.1,1 c0.2,0,0.5-0.5,0.5-0.5l-0.9-0.6l0.9-0.4l0.1-0.3h0.1l1.4-2.2c1-0.4,2.2-0.9,2.4-1c0.3-0.1,2.1-1.2,2.5-1.4 c0.3-0.3,1-0.3,1.3-0.3c0.3,0,0.7-0.1,0.7-0.8c0.1-0.7,0.3-0.8,0.5-0.6c0.2,0.2-0.2,0.5,0.3,0.6c0.5,0.1,0.9,0.4,1.2,0.1 c0.2-0.2-0.1-0.5-0.3-0.7h3.7l0.4-1.1L22,8.4l-3.2-0.3V7.7h-0.3c0.3-1.9,2.4-1.6,0.9-2.7c-0.1-0.1-1.4,2.1-1.8,2.1 C17,7,16.2,7,16,7.2c-0.2,0.3,0.5-0.9,1.1-1.3c-1,0.3-4.2,1.4-7.6,5C6.3,14.4,5,19,5,19.2c0,0.3,0.7,0.4,0.7,0.8 c0.1,0.4-1.3,1.6-1.3,2.3c0,0.3-0.3,4.2,0.8,7.4c1.3,3.7,4.1,6.9,4.4,7.1l0.7-0.3c0,0-1.5-2.7-1.6-3c-0.1-0.3,1.7-3.9,2.6-3.8 c0.9,0.1,0.7,0.4,1.2,0.1s0.9-2.9,1.5-3.2c0.6-0.3,1.3-0.6,1.2-1.2C15.2,24.8,12.9,23.6,12.7,23.5L12.7,23.5z M27.2,4.9l-1.8-0.6 l0.3,1L27.2,4.9z M20.4,7.2c0.2,0,4.2-2.6,3.8-2.7c-0.4-0.1-0.5,0-1.5-0.1c-1.1-0.1-2.2,1.5-2.5,1.8C20,6.4,20.1,7.2,20.4,7.2z M38.8,26.3l0.5-0.7l-0.5-0.2l-0.4,0.5l-0.5,0.7l0.4,0.2L38.8,26.3z M41,28.4l-0.1-1h-0.8L40,28.1L39.2,28L39,27.2L38.6,27 l-0.5,0.5l-0.4-0.1l-0.1,0.4l0.5,0.2v4l1.8,0.4c0,0.1-0.1,0.1-0.1,0.2c-0.1,0.4,0.5,0.6,1,0.4c0.2-0.1,0.7-0.6,1-1.4 c0.5-1.1,0.9-2.6,1-3.1l0.2-0.4l-1.3,0.5L41,28.4L41,28.4z M43.7,21.1l-0.3-0.7c-0.4-2.2-1.3-5.1-3.3-8.1 c-3-4.5-11.2-7.1-11.2-7.1l-0.4,0.5l-0.3-0.4l-0.6-0.2v0.5l0.6,0.5l-0.4,0.2l-1.5,0.1l-3.4,1.8l0.3,1.5l-0.4,0.1l-0.2,0.3 l1.1,1.6l0.1,0.5l-0.9,0.2v1.1l-0.5,0.1l0.1,0.9l-4.4,3l0.1,1.7c0.3,0.4,2.8,3,2.8,3s2.9,0.1,3.5-0.2c0.6-0.4,0.2,0.4,0.4,0.5 c0.2,0.1,0.3,1.5,0.5,1.6c0.2,0.1,0,0.9,0.3,1.1c0.3,0.2,0.3,3.2,0.3,3.2s1.5,2.6,1.5,3.3s-0.1,0.6,1.2,0.5 c1.2-0.1,1.5-0.5,1.7-0.7c0.3-0.2,0.3-0.6,0.5-1c0.3-0.4,0.7-1.8,1.3-2.2c0.6-0.5,2.1-0.9,2.3-1.7c0.1-0.9,0.7-1.5,0.7-1.5 l2.8-2.9l-0.1,0.4l-0.1,1.5l0.8-0.3l-0.1-1.6l-0.3-0.3l0,0c0,0-0.2-0.4-0.5-0.4c-0.3,0-1.8,0.4-2.1,0.3c-0.3-0.1-1.4-3-1.5-3.1 c-0.2-0.1-1.4-2.1-1.4-2.1s2.8,3.4,3.3,4.7c0.3,0.8,1.2,0.1,2-0.8l0.2,0.5l0.5-0.1l-0.1-0.6h0.6v0.9L39,21.7l-0.1,0.8l0.5,0.5 l0.3-0.4l0.8-0.8l1-0.5l0.3,0.5l0.1,0.7l-0.3,0.7l-0.5,0.4l-0.3,1.1v0.5l-0.6-0.4l-0.1-1.2l-0.8,0.1l-0.4,1l0.6,0.9l1.4,0.2 l1.1-1l0.1-2l0.5-0.6c0.3,0.8,0.5,1.7,0.5,2.5c0,0.9,0.4-0.6,0.1-3.3L43.7,21.1L43.7,21.1L43.7,21.1z M27.5,14.9L24,14.8l1.5-1.2 h0.8l1.2,0.8V14.9L27.5,14.9z M31.7,14.5V15h-1.5l0.1,0.4l-0.9,0.1l-0.1,0.3l-0.6-0.1l-1.2-0.2l0.2-0.3l0.2-0.4l0.6-0.7l0.3,0.5 l1-0.1l0.5-0.5l2,0.4L31.7,14.5L31.7,14.5L31.7,14.5z M31.9,13.7l-0.8,0.1L31,13.3l1-0.1l0.1-0.5l0.7,0.7L31.9,13.7L31.9,13.7z M35.6,32.6L35.1,33l0.1,0.9h0.6v-0.8l0.5-0.7V31L36,30.9L35.6,32.6L35.6,32.6z M31.3,30.8c0,0-0.5,0.1,0.1,0.3 c0.5,0.2,2.6-3,2.6-3l-1.7,1.1L31.3,30.8L31.3,30.8L31.3,30.8z M27.8,42.4L27.4,42l-0.8-0.1l-0.1,0.4l-1-0.1l-0.1-0.5h-0.8 l-0.8,0.5h-1.5l-0.1-0.4l-2.4-0.2L19.4,42l-1-0.2l-0.1-0.9l-0.5-0.1l-0.5,0.9l-1.7-0.1c0.3,0.1,2.9,1.7,6.9,2 c5.3,0.4,7.8-0.9,7.8-0.9l-0.2-0.1L27.8,42.4L27.8,42.4L27.8,42.4z" enable-background="new" opacity=".5"/><path id="path659" fill="#FFF" d="M16.8,3.9c-0.1,0-0.2,0-0.4,0.1C16.7,4,16.8,3.9,16.8,3.9z M23.9,5.3l0.1-1l-1.1,0.1l0.1,1L23.9,5.3 L23.9,5.3z M11.4,23.5c-0.2-0.2-0.1-1.1-0.1-1.1s-3.3-1.8-7-2.8c-0.4-0.1-0.2-1.1,0.2-1.4l-0.1-1c-0.1-0.5,0.7-2.9,1.6-3.1 c0.8-0.2-0.1,1.4-0.1,1.4L5.1,16c0,0,1,1.1,1.2,1.1c0.2,0,0.6-0.6,0.6-0.6l-1-0.7l1-0.4v-0.3L7.1,15l1.6-2.4 c1.1-0.5,2.5-1,2.6-1.1c0.3-0.1,2.4-1.3,2.7-1.6c0.3-0.3,1.2-0.2,1.5-0.2s0.7-0.1,0.8-0.9c0.1-0.8,0.4-0.9,0.6-0.7 c0.2,0.2-0.2,0.6,0.3,0.7c0.5,0.1,1,0.5,1.3,0.1c0.3-0.3-0.1-0.5-0.3-0.8h4.1l0.4-1.3l-1-0.1l-3.6-0.4V6h-0.3 c0.4-2.1,2.7-1.8,1-3c-0.1-0.1-1.6,2.4-2,2.3c-0.7-0.1-1.6-0.1-1.8,0.1c-0.3,0.3,0.6-1,1.3-1.4c-1.1,0.3-4.7,1.6-8.5,5.6 c-3.6,3.8-5,9-5,9.2c0,0.3,0.7,0.5,0.8,0.9c0.1,0.4-1.4,1.8-1.4,2.5c0,0.3-0.3,4.6,0.9,8.2c1.6,4.2,4.6,7.7,5,7.9l0.7-0.4 c0,0-1.7-3-1.8-3.3c-0.1-0.3,1.9-4.3,2.9-4.2c1,0.1,0.7,0.4,1.3,0.1c0.6-0.3,1-3.2,1.6-3.5c0.7-0.3,1.4-0.6,1.3-1.3 C14.2,25,11.7,23.7,11.4,23.5L11.4,23.5z M27.5,2.9l-2-0.7l0.4,1.1L27.5,2.9z M20,5.5c0.2,0,4.7-2.9,4.2-3 c-0.4-0.1-0.5,0-1.7-0.1c-1.2-0.1-2.4,1.7-2.7,2C19.5,4.6,19.6,5.5,20,5.5z M40.4,26.6l0.6-0.7l-0.6-0.2L40,26.2l-0.5,0.7 l0.4,0.2L40.4,26.6z M42.9,29l-0.1-1.1h-0.9l-0.1,0.8l-0.9-0.1l-0.2-0.9l-0.4-0.3l-0.5,0.7L39.3,28l-0.2,0.4l0.6,0.1v4.4l2,0.5 c0,0.1-0.1,0.1-0.1,0.2c-0.1,0.5,0.6,0.7,1.1,0.5c0.2-0.1,0.8-0.7,1.1-1.6c0.5-1.2,1-2.8,1.1-3.4l0.2-0.5l-1.4,0.5L42.9,29 L42.9,29z M45.9,20.9l-0.4-0.8c-0.4-2.5-1.5-5.7-3.6-9c-3.3-5-12.4-7.8-12.4-7.8L29,3.9l-0.3-0.5L28,3.1v0.6l0.6,0.5l-0.4,0.2 l-1.6,0.1l-3.7,2l0.4,1.6l-0.4,0.1l-0.2,0.3l1.2,1.8l0.1,0.6l-1,0.2v1.2l-0.6,0.1l0.1,0.9l-5,3.8l0.1,1.9 c0.4,0.5,3.2,3.3,3.2,3.3s3.2,0.1,3.9-0.3c0.7-0.4,0.2,0.4,0.4,0.6c0.2,0.2,0.3,1.6,0.5,1.8c0.2,0.1,0,0.9,0.3,1.2 c0.3,0.3,0.3,3.5,0.3,3.5s1.7,2.9,1.7,3.6s-0.1,0.7,1.3,0.6c1.4-0.1,1.6-0.6,1.9-0.8c0.3-0.2,0.3-0.7,0.6-1.1 c0.3-0.4,0.8-2,1.4-2.5s2.4-0.9,2.5-1.9c0.1-0.9,0.8-1.7,0.8-1.7l3.1-3.3l-0.1,0.4l-0.1,1.7l0.9-0.3l0.1-1.7L40,21.7v-0.1 c0,0-0.2-0.4-0.5-0.4s-2,0.4-2.3,0.3c-0.3-0.1-1.5-3.3-1.7-3.4c-0.2-0.1-1.6-2.4-1.6-2.4s3.2,3.8,3.7,5.3 c0.3,0.9,1.4,0.1,2.3-0.8l0.2,0.6l0.6-0.1L40.6,20h0.6v1L41,21.5l-0.1,0.9l0.6,0.5l0.3-0.5l0.9-0.9l1.1-0.5l0.3,0.5l0.1,0.7 L43.9,23l-0.6,0.5L43,24.7v0.6l-0.6-0.2l-0.1-1.3l-0.9,0.1L41,25l0.6,0.9l1.5,0.2l1.2-1.2l0.1-2.2l0.5-0.7 c0.4,0.9,0.6,1.9,0.6,2.7c0,1,0.4-0.7,0.1-3.6L45.9,20.9L45.9,20.9L45.9,20.9z M27.9,14L24,13.9l1.6-1.3h0.9l1.4,0.9V14L27.9,14z M32.6,13.5v0.6H31l0.1,0.4l-1,0.1L30,14.9l-0.7-0.1L28,14.5l0.2-0.3l0.2-0.4l0.7-0.7l0.3,0.5l1.1-0.1l0.6-0.6l2.2,0.4L32.6,13.5 L32.6,13.5L32.6,13.5z M32.7,12.6l-0.9,0.1l-0.1-0.6l1.1-0.1l0.1-0.6l0.8,0.8L32.7,12.6L32.7,12.6z M36.9,33.6L36.4,34l0.1,1h0.6 v-0.9l0.6-0.7v-1.6l-0.4-0.1L36.9,33.6L36.9,33.6z M32.1,31.6c0,0-0.5,0.1,0.1,0.3c0.6,0.2,2.9-3.3,2.9-3.3l-2,1.3L32.1,31.6 L32.1,31.6L32.1,31.6z M28.2,44.6l-0.4-0.5L26.9,44l-0.1,0.4l-1.1-0.1l-0.1-0.5h-0.9l-0.9,0.5h-1.7L22,43.9l-2.6-0.3L19,44 l-1.1-0.3l-0.1-1l-0.5-0.1l-0.6,1l-1.9-0.1c0.3,0.2,3.2,1.9,7.7,2.2c5.9,0.5,8.7-1,8.7-1L31,44.5L28.2,44.6L28.2,44.6L28.2,44.6z"/><circle id="path622_2_" cx="24" cy="24" r="22.5" fill="#000092" enable-background="new" opacity=".23"/><ellipse id="path622_3_" cx="24" cy="13" fill="#FFF" enable-background="new" opacity=".5" rx="16.2" ry="10.6"/></g><g id="Layer_2_1_"><g id="g606"><g id="g666"><path id="path665" fill="#1C1B3C" d="M28.4,12.8c-8.5,0-15.5,6.7-15.2,15.2c0,8.5,6.7,15.2,15.2,15.2S43.6,36.5,43.6,28 C43.7,19.5,36.9,12.8,28.4,12.8z M28.4,38c-5.5,0-10-4.4-10-10c-0.2-5.5,4.4-10,10-10s10,4.4,10,10S34,38,28.4,38z"/></g></g><path id="path666" fill="#919191" d="M47.1,42.6l-4.8-4.8c-0.7-0.7-2-1.1-3.1-0.7c2-2.4,3.3-5.5,3.3-9.1c0-7.8-6.3-14.2-14.2-14.2 C20.5,13.8,14,20.1,14,28c0,7.8,6.3,14.2,14.2,14.2c3.3,0,6.5-1.3,9.1-3.1c-0.4,1.1-0.2,2.2,0.7,3.1l4.8,4.8 c1.1,1.1,3.1,1.1,4.2,0s1.1-3.1,0-4.3v-0.1H47.1z M28.4,40.4c-6.8,0-12.2-5.5-12.2-12.2c0-6.8,5.5-12.2,12.2-12.2 c6.8,0,12.2,5.5,12.2,12.2C40.6,35.1,35.1,40.4,28.4,40.4z"/><path id="path617" fill="none" stroke="#FFF" stroke-linecap="round" stroke-width=".343" d="M14.9,27.9c0-7.2,5.9-13.1,13.1-13.1" enable-background="new" opacity=".5"/><path id="path618" fill="none" stroke="#FFF" stroke-linecap="round" stroke-width=".343" d="M41,29.2c0,6.5-5.2,11.6-11.6,11.6" enable-background="new" opacity=".5"/><radialGradient id="path634_1_" cx="-1337.213" cy="373.318" r="8.012" fx="-1337.213" fy="373.318" gradientTransform="matrix(2 0 0 -2 2706.9023 780.1025)" gradientUnits="userSpaceOnUse"><stop style="stop-color:#fff" id="stop670" offset="0"/><stop style="stop-color:#3f4a8e" id="stop671" offset=".73"/><stop style="stop-color:#3a4a92" id="stop672" offset=".839"/><stop style="stop-color:#2c499e" id="stop673" offset=".997"/><stop style="stop-color:#2c499e" id="stop674" offset="1"/></radialGradient><path id="path634" fill="url(#path634_1_)" d="M38.4,28c0,5.5-4.4,10-10,10s-10-4.4-10-10c-0.2-5.5,4.4-10,10-10S38.4,22.5,38.4,28z" enable-background="new" opacity=".47"/><linearGradient id="path641_1_" x1="-1368.539" x2="-1360.725" y1="356.198" y2="348.384" gradientTransform="matrix(1 0 0 -1 1390.957 378.002)" gradientUnits="userSpaceOnUse"><stop style="stop-color:#fff" id="stop686" offset="0"/><stop style="stop-color:#a8bddb" id="stop687" offset="1"/></linearGradient><path id="path641" fill="url(#path641_1_)" d="M19.2,28c0-5,4.1-9.2,9.2-9.2C40.8,18.8,19.2,39.1,19.2,28z"/><path id="path642" fill="url(#path641_1_)" d="M19.2,28c0-5,4.1-9.2,9.2-9.2C40.8,18.8,19.2,39.1,19.2,28z" enable-background="new" opacity=".48"/><linearGradient id="circle642_1_" x1="-765.39" x2="-769.634" y1="333.57" y2="329.327" gradientTransform="matrix(1 0 0 -1 807.5566 371.4043)" gradientUnits="userSpaceOnUse"><stop style="stop-color:red" id="stop694" offset="0"/><stop style="stop-color:#810000" id="stop695" offset="1"/></linearGradient><circle id="circle642" cx="40" cy="40" r="3" fill="url(#circle642_1_)"/><linearGradient id="circle649_1_" x1="-760.391" x2="-764.634" y1="328.569" y2="324.326" gradientTransform="matrix(1 0 0 -1 807.5566 371.4043)" gradientUnits="userSpaceOnUse"><stop style="stop-color:red" id="stop701" offset="0"/><stop style="stop-color:#810000" id="stop702" offset="1"/></linearGradient><circle id="circle649" cx="45" cy="45" r="3" fill="url(#circle649_1_)"/><linearGradient id="polygon615_1_" x1="-1346.317" x2="-1350.539" y1="337.642" y2="333.42" gradientTransform="matrix(1 0 0 -1 1390.957 378.002)" gradientUnits="userSpaceOnUse"><stop style="stop-color:#ff3200" id="stop708" offset="0"/><stop style="stop-color:#ffed00" id="stop709" offset=".332"/><stop style="stop-color:#ff3000" id="stop710" offset="1"/></linearGradient><polygon id="polygon615" fill="url(#polygon615_1_)" points="42.3 37.9 38 42.2 42.8 47 47.1 42.7"/><line id="line616" x1="41" x2="45.4" y1="39.4" y2="43.8" fill="none" stroke="#FFF" stroke-linecap="round" stroke-width=".686" enable-background="new" opacity=".54"/></g><g id="Layer_3"><rect id="rect606" width="48" height="48" fill="none"/></g></svg>