<svg xmlns="http://www.w3.org/2000/svg" xmlns:xlink="http://www.w3.org/1999/xlink" id="svg602" width="76.5" height="48.6" enable-background="new 0 0 76.5 48.6" overflow="visible" viewBox="0 0 76.5 48.6" xml:space="preserve"><g id="g1038"><g id="g606"><linearGradient id="path66_1_" x1="-511.525" x2="-437.921" y1="-419.647" y2="-360.114" gradientTransform="matrix(0.4642 0 0 0.4758 274.2719 210.3208)" gradientUnits="userSpaceOnUse"><stop style="stop-color:#fff" id="stop608" offset="0"/><stop style="stop-color:#fbfbfc" id="stop609" offset=".178"/><stop style="stop-color:#eeeef2" id="stop610" offset=".367"/><stop style="stop-color:#d9d9e1" id="stop611" offset=".561"/><stop style="stop-color:#bbbbc9" id="stop612" offset=".759"/><stop style="stop-color:#9595ab" id="stop613" offset=".958"/><stop style="stop-color:#8c8ca4" id="stop614" offset="1"/></linearGradient><circle id="path66" cx="53" cy="24.1" r="22.7" fill="url(#path66_1_)"/><linearGradient id="XMLID_1_" x1="-579.919" x2="-425.372" y1="-471.387" y2="-351.738" gradientTransform="matrix(0.4642 0 0 0.4758 274.2719 210.3208)" gradientUnits="userSpaceOnUse"><stop style="stop-color:#fff" id="stop630" offset="0"/><stop style="stop-color:#545477" id="stop631" offset="1"/></linearGradient><path id="path635" fill="url(#XMLID_1_)" d="M29.5,24.1C29.5,37.4,40,48.2,53,48.2s23.5-10.8,23.5-24.1C76.5,10.8,66,0,53,0 C40.1,0,29.5,10.8,29.5,24.1z M31,24.1c0-12.4,9.9-22.5,22-22.5s22,10.1,22,22.5s-9.9,22.5-22,22.5S31,36.5,31,24.1z"/><radialGradient id="path75_1_" cx="-478.334" cy="-358.761" r="70.389" fx="-478.334" fy="-358.761" gradientTransform="matrix(0.4642 0 0 0.4758 274.2719 210.3208)" gradientUnits="userSpaceOnUse"><stop style="stop-color:#fff" id="stop637" offset="0"/><stop style="stop-color:#ccf0ff" id="stop638" offset=".27"/><stop style="stop-color:#1d6ce9" id="stop639" offset=".871"/></radialGradient><circle id="path75" cx="53" cy="24.1" r="18.7" fill="url(#path75_1_)"/><linearGradient id="XMLID_2_" x1="-560.631" x2="-434.944" y1="-456.455" y2="-359.148" gradientTransform="matrix(0.4642 0 0 0.4758 274.2719 210.3208)" gradientUnits="userSpaceOnUse"><stop style="stop-color:#fff" id="stop647" offset="0"/><stop style="stop-color:#545477" id="stop648" offset="1"/></linearGradient><path id="path652" fill="url(#XMLID_2_)" d="M33.8,24.1c0,10.9,8.6,19.7,19.2,19.7S72.2,35,72.2,24.1S63.6,4.4,53,4.4S33.8,13.2,33.8,24.1z M34.8,24.1C34.8,13.8,43,5.4,53,5.4s18.2,8.4,18.2,18.7c0,10.3-8.1,18.6-18.2,18.6C43,42.7,34.8,34.4,34.8,24.1z"/><radialGradient id="path85_1_" cx="-481.581" cy="-429.648" r="85.505" fx="-481.581" fy="-429.648" gradientTransform="matrix(0.4642 0 0 0.4758 274.2719 210.3208)" gradientUnits="userSpaceOnUse"><stop style="stop-color:#fff" id="stop654" offset="0"/><stop style="stop-color:#ccf0ff" id="stop655" offset=".303"/><stop style="stop-color:#1d6ce9" id="stop656" offset="1"/></radialGradient><path id="path85" fill="url(#path85_1_)" d="M53,6c-9.4,0-16.9,7.8-16.9,17.4c0,1.4,0.2,2.8,0.5,4.1c5.3-2.9,10.2-6.1,16.4-4.3 c6.5,1.8,12.3-0.8,16.5-3.9C67.6,11.7,61,6,53,6z"/><path id="path86" d="M63.9,36.8l1.9-1.9L57.2,26 c0.2-0.4,0.2-0.8,0.2-1.2c0-1.7-1.4-3.1-3-3.1c-1.7,0-3,1.4-3,3.1c0,1,0.5,1.9,1.2,2.4V35h2.7v-7.2L63.9,36.8L63.9,36.8z" enable-background="new" opacity=".15"/><path id="path88" d="M62.5,35.6l1.9-1.9l-8.6-8.8c0.1-0.4,0.2-0.8,0.2-1.2c0-1.7-1.4-3.1-3-3.1c-1.7,0-3,1.4-3,3.1 c0,1,0.5,1.9,1.2,2.4v7.8h2.7v-7.2L62.5,35.6z"/><circle id="path89" cx="53" cy="23.7" r="1.2" fill="#FFF"/><path id="path90" fill="#00009F" d="M55.6,7.9 c4.4,0,8.4,1.6,11.5,4.2C63.8,7.9,58.7,5.3,53,5.3c-10,0-18.2,8.4-18.2,18.7c0,5.8,2.6,11,6.7,14.4c-2.6-3.2-4.1-7.3-4.1-11.8 C37.4,16.3,45.6,7.9,55.6,7.9z" enable-background="new" opacity=".15"/><rect id="path91" width="2.4" height="2.4" x="51.8" y="38.6" fill="#00009F" enable-background="new" opacity=".5"/><rect id="path92" width="2.4" height="2.4" x="51.8" y="7.3" fill="#00009F" enable-background="new" opacity=".5"/><rect id="path93" width="2.4" height="2.4" x="67.1" y="22.9" fill="#00009F" enable-background="new" opacity=".5"/><rect id="path94" width="2.4" height="2.4" x="36.8" y="22.9" fill="#00009F" enable-background="new" opacity=".5"/></g><g id="g620_1_"><linearGradient id="path977_1_" x1="-227.11" x2="-237.444" y1="-5.707" y2="-5.707" gradientTransform="matrix(1 0 0 1 265.9204 43.752)" gradientUnits="userSpaceOnUse"><stop style="stop-color:#e18330" id="stop673" offset="0"/><stop style="stop-color:#7c0023" id="stop674" offset="1"/></linearGradient><path id="path977_2_" fill="url(#path977_1_)" stroke="#000" d="M40.1,41.5c0.9,2.3,1.5,5.1-3.9,6.3c-5.4,1-10-1.1-10.3-3.3 c0-4.8,4.6-10.4-4.2-14.7c-1.9-0.8,1.1-1.5,3.4-1.7c3.9-0.2,8.8,0,10.3,1.5C39.3,33,38.6,37.3,40.1,41.5z"/><path id="path836_1_" fill="#FFF" stroke="#000" d="M47.8,7.8c-1.6,1.4-3.6,2.8-5.7,4c-0.4,0.2-0.7,0.5-1,0.9 c-0.4-1.9-1.1-3.6-3-4.8c-3.4-2.2-7.6-1.5-11.5-1.1C25.6,7.2,24,7.9,24,9c0,2.6,0,2.6,0-0.1c0-0.3-0.8-0.7-0.8-0.7 c-4.6,1.5-9.5-0.7-13.4,1.5c-6.5,3.6-11.5,12-8.4,18.5C2.5,30,6,29.7,8.3,29.7c1.9,0,2.7-2.5,4.2-1.8c1.1,0.3,2.3,0.3,3.4,0.1 c-0.1,0.1-0.2,0.2-0.3,0.3c6.1,2.5,12.6,4.3,19.1,4c5-0.7,8.4-5.9,7.3-10.5c-0.2-0.9-0.3-1.8-0.4-2.8c1.4,1.2,3.7-1.4,4.8-3.1 C48,13.5,49.4,10.5,47.8,7.8z"/><radialGradient id="path861_2_" cx="-245.993" cy="-35.624" r="25.002" fx="-245.993" fy="-35.624" gradientTransform="matrix(0.992 0 0 1.0132 263.228 45.4676)" gradientUnits="userSpaceOnUse"><stop style="stop-color:#fff" id="stop681" offset="0"/><stop style="stop-color:#f2f2f2" id="stop682" offset=".041"/><stop style="stop-color:#c1c1c1" id="stop683" offset=".213"/><stop style="stop-color:#999" id="stop684" offset=".384"/><stop style="stop-color:#7a7a7a" id="stop685" offset=".55"/><stop style="stop-color:#636363" id="stop686" offset=".711"/><stop style="stop-color:#565656" id="stop687" offset=".864"/><stop style="stop-color:#515151" id="stop688" offset="1"/></radialGradient><path id="path861_1_" fill="url(#path861_2_)" d="M21,23.5c-1.1,3.3-5,5.4-8.4,4.4c-1.5-0.7-2.3,1.8-4.2,1.8c-2.3,0-5.7,0.3-6.9-1.5c-3.1-6.5,1.9-14.9,8.4-18.5 c3.9-2.1,8.8,0,13.4-1.5c0,0,0.8,0.3,0.8,0.7C24.1,14.1,22.5,18.8,21,23.5z" enable-background="new" opacity=".59"/><radialGradient id="path987_2_" cx="-233.592" cy="-38.433" r="25.128" fx="-233.592" fy="-38.433" gradientTransform="matrix(0.992 0 0 1.0132 263.228 45.4676)" gradientUnits="userSpaceOnUse"><stop style="stop-color:#ff9d56" id="stop706" offset="0"/><stop style="stop-color:#9f0023" id="stop707" offset="1"/></radialGradient><path id="path987_1_" fill="url(#path987_2_)" d="M42.1,21.7c1.1,4.6-2.3,9.8-7.3,10.5c-6.5,0.3-13-1.5-19.1-4 c5.7-4.7,8.4-12,8.4-19.2c0-1.1,1.5-1.8,2.7-2.1c3.9-0.3,8-1.1,11.5,1.1C42.8,10.8,40.9,17,42.1,21.7z"/><radialGradient id="path938_2_" cx="-217.555" cy="-37.111" r="11.684" fx="-217.555" fy="-37.111" gradientTransform="matrix(0.992 0 0 1.0132 263.228 45.4676)" gradientUnits="userSpaceOnUse"><stop style="stop-color:#e18330" id="stop713" offset="0"/><stop style="stop-color:#7c0023" id="stop714" offset="1"/></radialGradient><path id="path938_1_" fill="url(#path938_2_)" stroke="#000" d="M46.3,15.8c-1.2,1.9-3.9,4.9-5.2,2.7c-1-1.8-1-5.6,0.9-6.6 c2-1.3,4-2.7,5.7-4C49.2,10.5,47.9,13.5,46.3,15.8z"/><g id="g1011_1_"><path id="path1012_1_" fill="#6D1E1E" d="M26.9,3.3c3.4,0,4.4,3.2,4.8,5"/><path id="path1013_1_" fill="#6D1E1E" d="M26.4,4.3c3,0.1,4.2,2.5,4.8,5c0-0.1,0.6-0.8,0.7-0.9c0.2-0.2,0.5-0.7,0.5-1 c-0.5-2.5-1.8-4.9-4.8-5C27,2.4,26.5,4.3,26.4,4.3L26.4,4.3z"/></g><g id="g1015_1_"><path id="path1016_2_" fill="#6D1E1E" d="M31.6,1.9c2.1,2.3,1.1,4,0.2,6.4"/><path id="path1017_1_" fill="#6D1E1E" d="M31,2.8c1.8,2.1,1.1,3.9,0.2,6.2c-0.2,0.4,0.3-0.2,0.3-0.3c0.3-0.4,0.5-0.9,0.8-1.3 C33.2,5.1,34,3.2,32.2,1C32.3,1.1,30.8,2.5,31,2.8L31,2.8z"/></g><g id="g1019_1_"><path id="path1020_1_" fill="#6D1E1E" d="M39.6,1.1c0.2,1.4-2,3.1-2.8,4.3c-1.2,1.8-3.3,2.1-5.8,3.2"/><path id="path1021_1_" fill="#6D1E1E" d="M39,2c0,1-1.8,2.9-2.6,3.5c-1.3,1.1-3.3,1.5-4.9,2.2c-0.5,0.3-0.9,1.7-1,1.9 c1.4-0.6,2.8-1,4.2-1.7c1.1-0.6,1.7-1.5,2.4-2.5c1.2-1.4,3.1-3.2,3.1-5.1C40.2,0.5,39.1,1.4,39,2L39,2z"/></g><g id="g1023_2_"><path id="path1024_2_" fill="#6D1E1E" d="M34.4,1.6c1.7,2.3-1.7,4.7-2.8,6.9"/><path id="path1025_2_" fill="#6D1E1E" d="M33.9,2.6C34.8,4,34.1,5,33.1,6.1c-0.7,0.9-1.3,1.7-1.8,2.6c0,0.1-0.3,0.8-0.3,0.7 c0.3-0.3,0.6-0.8,0.8-1.1c1.2-2.1,5-4.9,3.2-7.7C35.1,0.8,33.6,2.2,33.9,2.6L33.9,2.6z"/></g><g id="g1027_1_"><path id="path1028_1_" fill="#6D1E1E" d="M37.2,0.9c0.2,2.3-2,6.2-5.2,7.1"/><path id="path1029_1_" fill="#6D1E1E" d="M36.6,1.8c0.1,2.5-1.6,4.5-4,5.3c-0.3,0.1-0.5,0.7-0.7,0.9c-0.1,0.1-0.4,0.9-0.5,1 c3.4-1,6.4-5.6,6.3-8.9C37.7,0.2,36.5,1.1,36.6,1.8L36.6,1.8z"/></g><g id="g1031_2_"><path id="path1032_2_" fill="#6D1E1E" d="M41.9,1.8c-0.4,4-6.3,5.9-11.1,7.1"/><path id="path1033_2_" fill="#6D1E1E" d="M41.3,2.6c-0.3,1.7-2.5,2.6-3.9,3.3c-1.9,0.9-4,1.5-6,2c-0.6,0.2-0.7,1.8-1.1,1.9 c4.9-1.3,11.4-3.4,12.3-8.9C42.5,1.2,41.4,2,41.3,2.6L41.3,2.6z"/></g><g id="g1035_1_"><path id="path1036_1_" fill="#6D1E1E" d="M44.6,2c-0.4,5-7.8,5.3-13,6.4"/><path id="path1037_1_" fill="#6D1E1E" d="M44.1,2.8c-0.3,2-3.1,2.7-4.9,3.2c-2.2,0.6-4.7,0.9-7,1.4c-0.6,0.2-0.8,1.8-1.1,1.9 C36.5,8.1,44.4,7.7,45.3,1C45.1,1.4,44.1,2.2,44.1,2.8L44.1,2.8z"/></g><g id="g925_1_"><path id="ellipse1004_3_" fill="#900" d="M9.8,15.1c1.9-2.2,4.4-3.1,5.7-2s0.8,3.8-1,6c-1.9,2.2-4.4,3.1-5.7,2 C7.5,20,8,17.3,9.8,15.1z"/><path id="ellipse1004_1_" d="M10.5,15.8c1.3-1.5,3.1-2.1,4-1.4c0.9,0.8,0.5,2.7-0.8,4.2c-1.3,1.5-3.1,2.1-4,1.4 C8.9,19.1,9.2,17.3,10.5,15.8z"/></g><g id="g931_1_"><g id="g932_1_"><path id="path933_1_" fill="#6D1E1E" d="M32.6,13.8c1.7,0.5,2.8,1.8,3.3,3.2c0.9-2.6-0.1-5.2-2.1-6c-2.1-0.8-4.6,0.7-5.7,3.1 C29.3,13.5,31,13.3,32.6,13.8z"/></g></g><path id="path1000_3_" fill="#7E0000" d="M32.1,15.8c2.2,0.9,3,4.2,1.8,7.3c-1.3,3.1-4.1,4.8-6.3,3.9c-2.2-0.9-3-4.2-1.8-7.3 C27.1,16.5,29.9,14.8,32.1,15.8z"/><radialGradient id="path1000_2_" cx="-1937.54" cy="-1503.424" r="4.618" fx="-1937.54" fy="-1503.424" gradientTransform="matrix(0.9485 1.057 -1.0514 1.3582 282.6016 4113.7637)" gradientUnits="userSpaceOnUse"><stop style="stop-color:#cacaca" id="stop748" offset=".006"/><stop style="stop-color:#d3d3d3" id="stop749" offset=".27"/><stop style="stop-color:#eaeaea" id="stop750" offset=".691"/><stop style="stop-color:#fff" id="stop751" offset="1"/></radialGradient><path id="path1000_1_" fill="url(#path1000_2_)" d="M31.7,16.9c1.8,0.8,2.4,3.3,1.4,5.9c-1,2.5-3.3,3.9-5,3.1 c-1.8-0.8-2.4-3.3-1.4-5.9C27.7,17.6,30,16.1,31.7,16.9z"/><circle id="circle1001_1_" cx="28.8" cy="22.5" r="1.9"/><path id="path910_1_" fill="#2B0000" d="M11.8,24.3c-1.4,0.8-2,1-4.5,1c-2.6,0-4.2-0.9-6.6-0.3c-0.1,6.1,3.1,5.2,8.8,4.4 c1.2-0.2,3.1-1.5,4.4-2.4C14.8,26.4,13.9,24.2,11.8,24.3z"/></g><rect id="rect711_1_" width="76" height="48" x=".5" y=".1" fill="none"/></g></svg>