<svg xmlns="http://www.w3.org/2000/svg" xmlns:xlink="http://www.w3.org/1999/xlink" id="svg602" width="48" height="48" enable-background="new 0 0 48 48" overflow="visible" viewBox="0 0 48 48" xml:space="preserve"><g id="Layer_x0020_1"><linearGradient id="path66_1_" x1="-599.333" x2="-539.766" y1="231.628" y2="183.449" gradientTransform="matrix(0.4642 0 0 -0.4758 284.3046 118.5434)" gradientUnits="userSpaceOnUse"><stop style="stop-color:#fff" id="stop607" offset="0"/><stop style="stop-color:#fbfbfc" id="stop608" offset=".178"/><stop style="stop-color:#eeeef2" id="stop609" offset=".367"/><stop style="stop-color:#d9d9e1" id="stop610" offset=".561"/><stop style="stop-color:#bbbbc9" id="stop611" offset=".759"/><stop style="stop-color:#9595ab" id="stop612" offset=".958"/><stop style="stop-color:#8c8ca4" id="stop613" offset="1"/></linearGradient><circle id="path66" cx="19.2" cy="19.2" r="18.1" fill="url(#path66_1_)"/><linearGradient id="XMLID_1_" x1="-654.702" x2="-529.601" y1="273.516" y2="176.663" gradientTransform="matrix(0.4642 0 0 -0.4758 284.3046 118.5434)" gradientUnits="userSpaceOnUse"><stop style="stop-color:#fff" id="stop629" offset="0"/><stop style="stop-color:#545477" id="stop630" offset="1"/></linearGradient><path id="path634" fill="url(#XMLID_1_)" d="M0,19.2c0,10.6,8.6,19.2,19.2,19.2s19.2-8.6,19.2-19.2C38.4,8.6,29.8,0,19.2,0C8.7,0,0,8.6,0,19.2 z M1.2,19.2c0-9.9,8.1-17.9,18-17.9s18,8,18,17.9c0,9.9-8.1,17.9-18,17.9S1.2,29.1,1.2,19.2z"/><radialGradient id="path75_1_" cx="-574.256" cy="186.999" r="56.308" fx="-574.256" fy="186.999" gradientTransform="matrix(0.4741 0 0 -0.4738 290.812 120.1714)" gradientUnits="userSpaceOnUse"><stop style="stop-color:#fff" id="stop636" offset="0"/><stop style="stop-color:#ccf0ff" id="stop637" offset=".27"/><stop style="stop-color:#1d6ce9" id="stop638" offset=".871"/></radialGradient><circle id="path75" cx="19.2" cy="19.2" r="14.9" fill="url(#path75_1_)"/><linearGradient id="XMLID_2_" x1="-639.088" x2="-537.35" y1="261.425" y2="182.66" gradientTransform="matrix(0.4642 0 0 -0.4758 284.3046 118.5434)" gradientUnits="userSpaceOnUse"><stop style="stop-color:#fff" id="stop646" offset="0"/><stop style="stop-color:#545477" id="stop647" offset="1"/></linearGradient><path id="path651" fill="url(#XMLID_2_)" d="M3.5,19.2c0,8.7,7,15.7,15.7,15.7s15.7-7,15.7-15.7c0-8.7-7-15.7-15.7-15.7S3.5,10.5,3.5,19.2z M4.3,19.2C4.3,11,11,4.3,19.2,4.3S34.1,11,34.1,19.2c0,8.2-6.6,14.8-14.9,14.8C11,34,4.3,27.4,4.3,19.2z"/><radialGradient id="path85_1_" cx="-576.855" cy="243.706" r="68.402" fx="-576.855" fy="243.706" gradientTransform="matrix(0.4741 0 0 -0.4738 290.812 120.1714)" gradientUnits="userSpaceOnUse"><stop style="stop-color:#fff" id="stop653" offset="0"/><stop style="stop-color:#ccf0ff" id="stop654" offset=".303"/><stop style="stop-color:#1d6ce9" id="stop655" offset="1"/></radialGradient><path id="path85" fill="url(#path85_1_)" d="M19.2,4.8C11.5,4.8,5.4,11,5.4,18.6c0,1.1,0.2,2.2,0.4,3.3c4.3-2.3,8.3-4.9,13.4-3.4 c5.3,1.4,10-0.6,13.5-3.1C31.1,9.3,25.7,4.8,19.2,4.8z"/><path id="path90" fill="#00009F" d="M21.3,6.3 c3.6,0,6.9,1.3,9.4,3.3C28,6.3,23.9,4.2,19.2,4.2C11,4.2,4.3,10.9,4.3,19.1c0,4.6,2.1,8.8,5.5,11.5c-2.1-2.5-3.4-5.8-3.4-9.4 C6.5,13,13.2,6.3,21.3,6.3z" enable-background="new" opacity=".15"/><rect id="path91" width="2" height="1.9" x="18.2" y="30.8" fill="#00009F" enable-background="new" opacity=".5"/><rect id="path92" width="2" height="1.9" x="18.2" y="5.8" fill="#00009F" enable-background="new" opacity=".5"/><rect id="path93" width="2" height="1.9" x="30.7" y="18.2" fill="#00009F" enable-background="new" opacity=".5"/><rect id="path94" width="2" height="1.9" x="6" y="18.2" fill="#00009F" enable-background="new" opacity=".5"/><g id="g667"><g id="g668" opacity=".2"><rect id="rect669" width="3" height="8" x="18.2" y="11.4"/><rect id="rect670" width="3" height="13" x="13.9" y="18.2" transform="matrix(-0.7071 -0.7071 0.7071 -0.7071 8.9343 53.0025)"/><circle id="circle671" cx="19.7" cy="19.9" r="2.5"/></g><g id="g672"><rect id="rect673" width="3" height="8" x="17.2" y="11.2"/><rect id="rect674" width="3" height="13" x="12.9" y="17.9" transform="matrix(-0.7071 -0.7071 0.7071 -0.7071 7.404 51.8686)"/><circle id="circle675" cx="18.7" cy="19.7" r="2.5"/></g><circle id="path89" cx="18.7" cy="19.6" r="1" fill="#FFF"/></g></g><g id="Layer_2_1_"><g id="g678"><g id="g606"><g id="g666"><path id="path681" fill="#1C1B3C" d="M17.6,28c0,8.5,6.7,15.2,15.2,15.2S48,36.5,48,28c0.3-8.5-6.7-15.2-15.2-15.2S17.5,19.5,17.6,28z M22.8,28c0-5.6,4.4-10,10-10s10.2,4.5,10,10c0,5.6-4.5,10-10,10C27.2,38,22.8,33.6,22.8,28z"/></g></g><path id="path682" fill="#919191" d="M14.2,42.6v0.1c-1.1,1.2-1.1,3.2,0,4.3s3.1,1.1,4.2,0l4.8-4.8c0.9-0.9,1.1-2,0.7-3.1 c2.6,1.8,5.8,3.1,9.1,3.1c7.9,0,14.2-6.4,14.2-14.2c0-7.9-6.5-14.2-14.3-14.2c-7.9,0-14.2,6.4-14.2,14.2c0,3.6,1.3,6.7,3.3,9.1 c-1.1-0.4-2.4,0-3.1,0.7l-4.8,4.8H14.2z M20.6,28.2C20.6,21.5,26,16,32.8,16C39.5,16,45,21.4,45,28.2c0,6.7-5.4,12.2-12.2,12.2 C26.1,40.4,20.6,35.1,20.6,28.2z"/><path id="path617" fill="none" stroke="#FFF" stroke-linecap="round" stroke-width=".343" d="M33.2,14.8c7.2,0,13.1,5.9,13.1,13.1" enable-background="new" opacity=".5"/><path id="path618" fill="none" stroke="#FFF" stroke-linecap="round" stroke-width=".343" d="M31.8,40.8c-6.4,0-11.6-5.1-11.6-11.6" enable-background="new" opacity=".5"/><radialGradient id="path634_1_" cx="-1569.922" cy="-2.167" r="8.012" fx="-1569.922" fy="-2.167" gradientTransform="matrix(-2 0 0 2 -3111.1299 37.7988)" gradientUnits="userSpaceOnUse"><stop style="stop-color:#fff" id="stop686" offset="0"/><stop style="stop-color:#3f4a8e" id="stop687" offset=".73"/><stop style="stop-color:#3a4a92" id="stop688" offset=".839"/><stop style="stop-color:#2c499e" id="stop689" offset=".997"/><stop style="stop-color:#2c499e" id="stop690" offset="1"/></radialGradient><path id="path700" fill="url(#path634_1_)" d="M32.8,18c5.6,0,10.2,4.5,10,10c0,5.6-4.4,10-10,10s-10-4.5-10-10S27.2,18,32.8,18z" enable-background="new" opacity=".47"/><linearGradient id="path641_1_" x1="-1600.026" x2="-1592.212" y1="15.206" y2="23.02" gradientTransform="matrix(-1 0 0 1 -1561.2539 6.5986)" gradientUnits="userSpaceOnUse"><stop style="stop-color:#fff" id="stop702" offset="0"/><stop style="stop-color:#a8bddb" id="stop703" offset="1"/></linearGradient><path id="path641" fill="url(#path641_1_)" d="M32.8,18.8c5.1,0,9.2,4.2,9.2,9.2C42,39.1,20.4,18.8,32.8,18.8z"/><path id="path642" fill="url(#path641_1_)" d="M32.8,18.8c5.1,0,9.2,4.2,9.2,9.2C42,39.1,20.4,18.8,32.8,18.8z" enable-background="new" opacity=".48"/><linearGradient id="circle642_1_" x1="-996.878" x2="-1001.121" y1="37.833" y2="42.076" gradientTransform="matrix(-1 0 0 1 -977.8535 9.765625e-004)" gradientUnits="userSpaceOnUse"><stop style="stop-color:red" id="stop710" offset="0"/><stop style="stop-color:#810000" id="stop711" offset="1"/></linearGradient><circle id="circle642" cx="21.2" cy="40" r="3" fill="url(#circle642_1_)"/><linearGradient id="circle649_1_" x1="-991.879" x2="-996.122" y1="42.834" y2="47.077" gradientTransform="matrix(-1 0 0 1 -977.8535 9.765625e-004)" gradientUnits="userSpaceOnUse"><stop style="stop-color:red" id="stop717" offset="0"/><stop style="stop-color:#810000" id="stop718" offset="1"/></linearGradient><circle id="circle649" cx="16.2" cy="45" r="3" fill="url(#circle649_1_)"/><linearGradient id="polygon615_1_" x1="-1577.805" x2="-1582.026" y1="33.762" y2="37.983" gradientTransform="matrix(-1 0 0 1 -1561.2539 6.5986)" gradientUnits="userSpaceOnUse"><stop style="stop-color:#ff3200" id="stop724" offset="0"/><stop style="stop-color:#ffed00" id="stop725" offset=".332"/><stop style="stop-color:#ff3000" id="stop726" offset="1"/></linearGradient><polygon id="polygon615" fill="url(#polygon615_1_)" points="14.1 42.7 18.4 47 23.2 42.2 18.9 37.9"/><line id="line616" x1="15.8" x2="20.2" y1="43.8" y2="39.4" fill="none" stroke="#FFF" stroke-linecap="round" stroke-width=".686" enable-background="new" opacity=".54"/></g></g><g id="Layer_3"><rect id="rect606" width="48" height="48" fill="none"/></g></svg>