<svg xmlns="http://www.w3.org/2000/svg" xmlns:xlink="http://www.w3.org/1999/xlink" id="svg602" width="48" height="48" enable-background="new 0 0 48 48" overflow="visible" viewBox="0 0 48 48" xml:space="preserve"><g id="Layer_x0020_1"><g id="g606"><ellipse id="ellipse606" cx="17.7" cy="33.4" fill="#515151" stroke="#515151" stroke-width=".8" rx="11.9" ry="4.4"/><linearGradient id="ellipse615_1_" x1="-788.787" x2="-789.084" y1="29.903" y2="39.423" gradientTransform="matrix(1 0 0 1 806.5576 0)" gradientUnits="userSpaceOnUse"><stop style="stop-color:#fff" id="stop609" offset=".006"/><stop style="stop-color:#eee" id="stop610" offset=".208"/><stop style="stop-color:#c1c1c1" id="stop611" offset=".607"/><stop style="stop-color:#909090" id="stop612" offset="1"/></linearGradient><ellipse id="ellipse615" cx="17.7" cy="32.8" fill="url(#ellipse615_1_)" stroke="#515151" stroke-width=".595" rx="11.8" ry="4.4"/><linearGradient id="ellipse625_1_" x1="-788.878" x2="-788.878" y1="23.648" y2="32.721" gradientTransform="matrix(1 0 0 1 806.5576 0)" gradientUnits="userSpaceOnUse"><stop style="stop-color:#909090" id="stop622" offset="0"/><stop style="stop-color:#b9b9b9" id="stop623" offset=".287"/><stop style="stop-color:#dfdfdf" id="stop624" offset=".596"/><stop style="stop-color:#f6f6f6" id="stop625" offset=".845"/><stop style="stop-color:#fff" id="stop626" offset="1"/></linearGradient><ellipse id="ellipse625" cx="17.7" cy="28.2" fill="url(#ellipse625_1_)" stroke="#515151" stroke-width=".595" rx="6.8" ry="4.5"/><linearGradient id="path632_1_" x1="-772.242" x2="-804.185" y1="27.122" y2="2.157" gradientTransform="matrix(1 0 0 1 806.5576 0)" gradientUnits="userSpaceOnUse"><stop style="stop-color:#b8b8b8" id="stop638" offset="0"/><stop style="stop-color:#000" id="stop639" offset="1"/></linearGradient><path id="path632" fill="url(#path632_1_)" d="M35.4,24.5c0,2.1-1.7,3.8-3.7,3.8h-28c-2.1,0-3.7-1.7-3.7-3.8V3.8C0,1.7,1.7,0,3.7,0h28c2.1,0,3.7,1.7,3.7,3.8V24.5z" enable-background="new" opacity=".5"/><linearGradient id="path645_1_" x1="-805.091" x2="-773.107" y1="1.742" y2="25.842" gradientTransform="matrix(1 0 0 1 806.5576 0)" gradientUnits="userSpaceOnUse"><stop style="stop-color:#fff" id="stop645" offset="0"/><stop style="stop-color:#fcfcfc" id="stop646" offset=".252"/><stop style="stop-color:#f3f3f3" id="stop647" offset=".417"/><stop style="stop-color:#e5e5e5" id="stop648" offset=".558"/><stop style="stop-color:#cfcfcf" id="stop649" offset=".685"/><stop style="stop-color:#b4b4b4" id="stop650" offset=".803"/><stop style="stop-color:#939393" id="stop651" offset=".912"/><stop style="stop-color:#727272" id="stop652" offset="1"/></linearGradient><path id="path645" fill="url(#path645_1_)" d="M34.8,23.8c0,2-1.6,3.6-3.6,3.6h-27c-2,0-3.6-1.6-3.6-3.6V4.2 c0-2,1.6-3.6,3.6-3.6h27c2,0,3.6,1.6,3.6,3.6V23.8L34.8,23.8z"/><linearGradient id="rect653_1_" x1="-776.797" x2="-776.797" y1="14.447" y2="4.48" gradientTransform="matrix(1 0 0 1 806.5576 0)" gradientUnits="userSpaceOnUse"><stop style="stop-color:#fff" id="stop670" offset="0"/><stop style="stop-color:#000" id="stop671" offset="1"/></linearGradient><rect id="rect653" width="4.5" height="19" x="27.5" y="4.5" fill="url(#rect653_1_)"/><linearGradient id="rect660_1_" x1="-793.489" x2="-802.712" y1="20.8" y2="20.8" gradientTransform="matrix(1 0 0 1 806.5576 0)" gradientUnits="userSpaceOnUse"><stop style="stop-color:#fff" id="stop677" offset="0"/><stop style="stop-color:#000" id="stop678" offset="1"/></linearGradient><rect id="rect660" width="27.4" height="6.6" x="4" y="17.5" fill="url(#rect660_1_)"/><linearGradient id="rect667_1_" x1="-800.957" x2="-800.957" y1="26.497" y2="-5.486" gradientTransform="matrix(1 0 0 1 806.5576 0)" gradientUnits="userSpaceOnUse"><stop style="stop-color:#fff" id="stop684" offset="0"/><stop style="stop-color:#000" id="stop685" offset="1"/></linearGradient><rect id="rect667" width="4.5" height="19" x="3.4" y="4.5" fill="url(#rect667_1_)"/><linearGradient id="rect674_1_" x1="-768.199" x2="-808.513" y1="7.12" y2="7.12" gradientTransform="matrix(1 0 0 1 806.5576 0)" gradientUnits="userSpaceOnUse"><stop style="stop-color:#fff" id="stop691" offset="0"/><stop style="stop-color:#000" id="stop692" offset="1"/></linearGradient><rect id="rect674" width="27.4" height="6.6" x="4" y="3.8" fill="url(#rect674_1_)"/><radialGradient id="rect688_1_" cx="-788.761" cy="20.373" r="18.446" fx="-788.761" fy="20.373" gradientTransform="matrix(1 0 0 1 806.5576 0)" gradientUnits="userSpaceOnUse"><stop style="stop-color:#00c0ff" id="stop698" offset="0"/><stop style="stop-color:#00affc" id="stop699" offset=".097"/><stop style="stop-color:#018ff6" id="stop700" offset=".292"/><stop style="stop-color:#033de8" id="stop701" offset=".663"/><stop style="stop-color:#031cc2" id="stop702" offset="1"/></radialGradient><rect id="rect688" width="27.4" height="19" x="4" y="4.5" fill="url(#rect688_1_)"/><linearGradient id="path188_1_" x1="-1136.645" x2="-1055.316" y1="294.94" y2="381.653" gradientTransform="matrix(0.1875 0 0 0.1875 221.3026 -55.218)" gradientUnits="userSpaceOnUse"><stop style="stop-color:#fff" id="stop714" offset="0"/><stop style="stop-color:#39f" id="stop715" offset="1"/></linearGradient><path id="path188" fill="url(#path188_1_)" d="M25.4,10.5C28,9,29.5,7.2,31,5.3c0-0.6,0-0.8,0-0.9C30.7,4.5,4.3,4.5,4,4.5 C4,4.6,4,11,4,15.7c1.7-1,3.7-1.8,5.8-2.4C15,12.1,20.6,13,25.4,10.5z"/></g></g><g id="Layer_2_1_"><g id="g678"><g id="g662"><g id="g666"><path id="path724" fill="#1C1B3C" d="M17.6,28c0,8.5,6.7,15.2,15.2,15.2S48,36.5,48,28c0.3-8.5-6.7-15.2-15.2-15.2S17.5,19.5,17.6,28z M22.8,28c0-5.6,4.4-10,10-10c5.6,0,10.2,4.5,10,10c0,5.6-4.5,10-10,10C27.2,38,22.8,33.6,22.8,28z"/></g></g><path id="path725" fill="#919191" d="M14.2,42.6v0.1c-1.1,1.2-1.1,3.2,0,4.3c1.1,1.1,3.1,1.1,4.2,0l4.8-4.8c0.9-0.9,1.1-2,0.7-3.1 c2.6,1.8,5.8,3.1,9.1,3.1c7.9,0,14.2-6.4,14.2-14.2c0-7.9-6.5-14.2-14.3-14.2c-7.9,0-14.2,6.4-14.2,14.2c0,3.6,1.3,6.7,3.3,9.1 c-1.1-0.4-2.4,0-3.1,0.7l-4.8,4.8H14.2z M20.6,28.2C20.6,21.5,26,16,32.8,16C39.5,16,45,21.4,45,28.2c0,6.7-5.4,12.2-12.2,12.2 C26.1,40.4,20.6,35.1,20.6,28.2z"/><path id="path617" fill="none" stroke="#FFF" stroke-linecap="round" stroke-width=".343" d="M33.2,14.8c7.2,0,13.1,5.9,13.1,13.1" enable-background="new" opacity=".5"/><path id="path618" fill="none" stroke="#FFF" stroke-linecap="round" stroke-width=".343" d="M31.8,40.8c-6.4,0-11.6-5.1-11.6-11.6" enable-background="new" opacity=".5"/><radialGradient id="path700_1_" cx="-2084.591" cy="2.707" r="8.012" fx="-2084.591" fy="2.707" gradientTransform="matrix(-2 0 0 2 -4140.4756 28.0508)" gradientUnits="userSpaceOnUse"><stop style="stop-color:#fff" id="stop729" offset="0"/><stop style="stop-color:#3f4a8e" id="stop730" offset=".73"/><stop style="stop-color:#3a4a92" id="stop731" offset=".839"/><stop style="stop-color:#2c499e" id="stop732" offset=".997"/><stop style="stop-color:#2c499e" id="stop733" offset="1"/></radialGradient><path id="path700" fill="url(#path700_1_)" d="M32.8,18c5.6,0,10.2,4.5,10,10c0,5.6-4.4,10-10,10c-5.6,0-10-4.5-10-10S27.2,18,32.8,18z" enable-background="new" opacity=".47"/><linearGradient id="path641_1_" x1="-2124.06" x2="-2116.246" y1="24.964" y2="32.778" gradientTransform="matrix(-1 0 0 1 -2085.2891 -3.1484)" gradientUnits="userSpaceOnUse"><stop style="stop-color:#fff" id="stop745" offset="0"/><stop style="stop-color:#a8bddb" id="stop746" offset="1"/></linearGradient><path id="path641" fill="url(#path641_1_)" d="M32.8,18.8c5.1,0,9.2,4.2,9.2,9.2C42,39.1,20.4,18.8,32.8,18.8z"/><path id="path642" fill="url(#path641_1_)" d="M32.8,18.8c5.1,0,9.2,4.2,9.2,9.2C42,39.1,20.4,18.8,32.8,18.8z" enable-background="new" opacity=".48"/><linearGradient id="circle642_1_" x1="-1520.913" x2="-1525.156" y1="47.57" y2="51.813" gradientTransform="matrix(-1 0 0 1 -1501.8887 -9.7461)" gradientUnits="userSpaceOnUse"><stop style="stop-color:red" id="stop753" offset="0"/><stop style="stop-color:#810000" id="stop754" offset="1"/></linearGradient><circle id="circle642" cx="21.2" cy="40" r="3" fill="url(#circle642_1_)"/><linearGradient id="circle649_1_" x1="-1515.914" x2="-1520.156" y1="52.572" y2="56.815" gradientTransform="matrix(-1 0 0 1 -1501.8887 -9.7461)" gradientUnits="userSpaceOnUse"><stop style="stop-color:red" id="stop760" offset="0"/><stop style="stop-color:#810000" id="stop761" offset="1"/></linearGradient><circle id="circle649" cx="16.2" cy="45" r="3" fill="url(#circle649_1_)"/><linearGradient id="polygon615_1_" x1="-2101.84" x2="-2106.062" y1="43.5" y2="47.722" gradientTransform="matrix(-1 0 0 1 -2085.2891 -3.1484)" gradientUnits="userSpaceOnUse"><stop style="stop-color:#ff3200" id="stop767" offset="0"/><stop style="stop-color:#ffed00" id="stop768" offset=".332"/><stop style="stop-color:#ff3000" id="stop769" offset="1"/></linearGradient><polygon id="polygon615" fill="url(#polygon615_1_)" points="14.1 42.7 18.4 47 23.2 42.2 18.9 37.9"/><line id="line616" x1="15.8" x2="20.2" y1="43.8" y2="39.4" fill="none" stroke="#FFF" stroke-linecap="round" stroke-width=".686" enable-background="new" opacity=".54"/></g></g><g id="Layer_3"><rect id="rect606" width="48" height="48" fill="none"/></g></svg>