<svg xmlns="http://www.w3.org/2000/svg" xmlns:xlink="http://www.w3.org/1999/xlink" id="svg602" width="49" height="48" enable-background="new 0 0 49 48" overflow="visible" viewBox="0 0 49 48" xml:space="preserve"><g id="Layer_1_2_"><g id="g623"><path id="path624" fill="#FFF" stroke="#58587C" stroke-miterlimit="2" stroke-width="1.932" d="M41.1,37.2 c0,2.6-0.5,4.5,3.9,4.5L5.6,41.9C3,41.9,1,39.8,1,37.2V10.8c0-2.6,2-4.7,4.6-4.7h15.5l3.4,4.5h14.9c1.5,0,1.6,1.2,1.5,2.9v23.6 h0.2V37.2z"/><linearGradient id="path631_1_" x1="-641.807" x2="-675.343" y1="14.576" y2="-14.758" gradientTransform="matrix(1 0 0 1 679.0801 25.0918)" gradientUnits="userSpaceOnUse"><stop style="stop-color:#f7f7ff" id="stop609" offset="0"/><stop style="stop-color:#e6e6e6" id="stop610" offset="1"/></linearGradient><path id="path631" fill="url(#path631_1_)" d="M39.4,35.8c0,2.2-1.8,4-4.2,4H7.1c-2.3,0-4.2-1.8-4.2-4V12.9c0-2.2,1.8-4,4.2-4 h14.1l3.2,3.9H38c1.3,0,1.5,1.1,1.3,2.6v20.4H39.4z"/><g id="g632"><path id="path633" fill="#FFF" stroke="#002B92" stroke-width="1.838" d="M10.4,38.6c0,1.7-2.3,3.3-4.5,3.3l37.9-0.1c2.4,0,4.3-1.5,4.3-3.2V20.3c0-1.7-2-3.2-4.3-3.2H29.1l-3.2,3.2h-14 c-1.3,0-1.6,0.9-1.5,2V38.6z" enable-background="new" opacity=".7"/><linearGradient id="path647_1_" x1="-658.739" x2="-620.71" y1="14.758" y2="14.758" gradientTransform="matrix(1.0755 0 0 1 715.1401 25.0918)" gradientUnits="userSpaceOnUse"><stop style="stop-color:#fff" id="stop618" offset="0"/><stop style="stop-color:#fbfbfe" id="stop619" offset=".121"/><stop style="stop-color:#eeeefa" id="stop620" offset=".246"/><stop style="stop-color:#dadaf3" id="stop621" offset=".373"/><stop style="stop-color:#bdbdea" id="stop622" offset=".501"/><stop style="stop-color:#9797de" id="stop623" offset=".63"/><stop style="stop-color:#6969cf" id="stop624" offset=".76"/><stop style="stop-color:#3434bf" id="stop625" offset=".889"/><stop style="stop-color:#0000ae" id="stop626" offset="1"/></linearGradient><path id="path647" fill="url(#path647_1_)" d="M11.1,38.2c0,1.7-2.2,3.3-4.4,3.3l36.7-0.1c2.3,0,4.2-1.5,4.2-3.2H11.1z" enable-background="new" opacity=".4"/><linearGradient id="path658_1_" x1="-635.193" x2="-654.358" y1="-9.713" y2="3.739" gradientTransform="matrix(1 0 0 1 679.0801 25.0918)" gradientUnits="userSpaceOnUse"><stop style="stop-color:#fff" id="stop646" offset="0"/><stop style="stop-color:#c3e7ff" id="stop647" offset=".14"/><stop style="stop-color:#5bbdff" id="stop648" offset=".365"/><stop style="stop-color:#446cf6" id="stop649" offset="1"/></linearGradient><path id="path658" fill="url(#path658_1_)" d="M10.4,30.7c2.4,0,35.6,0,36.7,0v-10c0-1.7-1.8-3.2-4.3-3.2h-14l-3.2,3.2H11.9c-1.3,0-1.5,0.9-1.3,2v8.1L10.4,30.7L10.4,30.7z" enable-background="new" opacity=".7"/><path id="path659" fill="#FFFFD7" d="M42.9,17.5 H28.6l-3.2,3.2h-5c0.6,4,6.4,7.1,13.3,7.1c7.2,0,13.2-3.4,13.3-7.7C46.7,18.6,45,17.5,42.9,17.5z" enable-background="new" opacity=".4"/><path id="path660" fill="none" stroke="#002B92" stroke-width="1.838" d="M10.4,38.6c0,1.7-2.3,3.3-4.5,3.3l37.9-0.1c2.4,0,4.3-1.5,4.3-3.2V20.3c0-1.7-2-3.2-4.3-3.2H29.1l-3.2,3.2h-14 c-1.3,0-1.6,0.9-1.5,2V38.6z" enable-background="new" opacity=".7"/></g></g><rect id="rect660" width="48" height="48" x=".5" fill="none"/></g></svg>