<svg xmlns="http://www.w3.org/2000/svg" xmlns:xlink="http://www.w3.org/1999/xlink" id="svg602" width="48" height="48" enable-background="new 0 0 48 48" overflow="visible" viewBox="0 0 48 48" xml:space="preserve"><g id="g568" opacity=".5"><linearGradient id="XMLID_1_" x1="-791.774" x2="-791.775" y1="-1321.369" y2="3005.689" gradientTransform="matrix(0.4146 0 0 -0.4146 352.3199 170.348)" gradientUnits="userSpaceOnUse"><stop style="stop-color:#616161" id="stop607" offset="0"/><stop style="stop-color:#828282" id="stop608" offset="1"/></linearGradient><path id="path612" fill="url(#XMLID_1_)" d="M39.1,16.7H38C37.1,8,31.1,1.3,24,1.3S11.1,8,10,16.7H8.9c-1.2,0-2.2,1.1-2.2,2.5v25.6 c0,1.4,1,2.5,2.2,2.5h30.3c1.2,0,2.2-1.1,2.2-2.5V19.2C41.4,17.8,40.3,16.7,39.1,16.7 M24,8.3c3.8,0,6.9,3.6,7.8,8.4H16.2 C17.1,11.9,20.3,8.3,24,8.3z"/><path id="path613" fill="#616161" d="M8.7,19.4c0,10.7,6.8,19.4,15.3,19.4c8.4,0,15.3-8.7,15.3-19.4S32.4,0,24,0S8.7,8.7,8.7,19.4z M17.1,19.4 c0-5.4,3.1-9.9,6.9-9.9s6.9,4.4,6.9,9.9c0,5.4-3.1,9.9-6.9,9.9S17.1,24.8,17.1,19.4z"/><path id="path614" fill="#949494" d="M24,1.3c-7.8,0-14.1,8.1-14.1,18.1c0,10.1,6.3,18.1,14.1,18.1s14.1-8.1,14.1-18.1 C38.1,9.4,31.8,1.3,24,1.3 M24,30.6c-4.4,0-8-5-8-11.1c0-6.1,3.6-11.1,8-11.1s8,5,8,11.1C32,25.6,28.4,30.6,24,30.6z"/><path id="path615" fill="#B1B1C5" d="M10.3,19.4C10.3,29.1,16.4,37,24,37s13.7-7.9,13.7-17.6S31.6,1.8,24,1.8C16.5,1.8,10.3,9.7,10.3,19.4 M15.5,19.4c0-6.5,3.9-11.7,8.5-11.7c4.7,0,8.5,5.3,8.5,11.7c0,6.5-3.9,11.7-8.5,11.7C19.3,31.1,15.5,25.9,15.5,19.4z"/><linearGradient id="XMLID_2_" x1="-791.896" x2="-791.896" y1="323.077" y2="405.085" gradientTransform="matrix(0.4146 0 0 -0.4146 352.3199 170.348)" gradientUnits="userSpaceOnUse"><stop style="stop-color:#828282" id="stop617" offset="0"/><stop style="stop-color:#dadada" id="stop618" offset="1"/></linearGradient><path id="path622" fill="url(#XMLID_2_)" d="M10.9,19.4c0,9.3,5.9,17,13.1,17s13.1-7.6,13.1-17s-5.9-17-13.1-17S10.9,10.1,10.9,19.4 M15,19.4 c0-6.8,4.1-12.3,9.1-12.3s9.1,5.5,9.1,12.3c0,6.8-4.1,12.3-9.1,12.3C19,31.7,15,26.2,15,19.4z"/><path id="path623" fill="#FFF" d="M16.4,33.3c2.2,1.9,4.7,3.1,7.6,3.1c2.8,0,5.4-1.1,7.5-3.1C33.6,30.5,35,26.4,35,22 c-0.1-8.5-5-15.5-11-15.5S13.1,13.4,13.1,22C12.9,26.5,14.2,30.5,16.4,33.3 M23.8,7.1c5,0,9.1,5.5,9.1,12.3c0,0.2,0,0.4,0,0.6 s0,0.4,0,0.6c0,4.9-2.1,9.1-5.2,11.1c-1.1,1-2.4,1.6-3.9,1.6s-2.7-0.6-3.9-1.6c-3.1-2-5.2-6.2-5.2-11.1c0-0.2,0-0.4,0-0.6 s0-0.4,0-0.6C14.8,12.6,18.9,7.1,23.8,7.1z"/><path id="path624" fill="#FFF" d="M34.9,20.8C34.9,12.3,30,5.4,24,5.4s-10.9,6.9-10.9,15.5c0,8.5,4.9,15.5,10.9,15.5 C29.9,36.4,34.9,29.5,34.9,20.8 M23.9,32.1c-1.4,0-2.7-0.6-3.9-1.6c-3.1-2-5.2-6.2-5.2-11.1c0-6.8,4.1-12.3,9.1-12.3 S33,12.6,33,19.4c0,4.9-2.1,9.1-5.2,11.1C26.7,31.5,25.4,32.1,23.9,32.1z"/></g><g id="g570"><g id="g626"><linearGradient id="path578_2_" x1="-791.896" x2="-791.896" y1="-776.838" y2="2094.247" gradientTransform="matrix(0.4146 0 0 -0.4146 352.3199 170.348)" gradientUnits="userSpaceOnUse"><stop style="stop-color:#616161" id="stop628" offset="0"/><stop style="stop-color:#828282" id="stop629" offset="1"/></linearGradient><path id="path578_1_" fill="url(#path578_2_)" d="M7.2,16.7c-1.4,0-2.5,1.1-2.5,2.5v25.6c0,1.4,1.1,2.5,2.5,2.5h33.6 c1.4,0,2.5-1.1,2.5-2.5V19.2c0-1.4-1.1-2.5-2.5-2.5H7.2L7.2,16.7z"/><linearGradient id="path585_2_" x1="-791.895" x2="-791.896" y1="-776.892" y2="2094.339" gradientTransform="matrix(0.4146 0 0 -0.4146 352.3199 170.348)" gradientUnits="userSpaceOnUse"><stop style="stop-color:#824f26" id="stop635" offset="0"/><stop style="stop-color:#a87d28" id="stop636" offset="1"/></linearGradient><path id="path585_1_" fill="url(#path585_2_)" d="M7.2,16.1c-1.8,0-3.2,1.4-3.2,3.2v25.6C4,46.6,5.4,48,7.2,48h33.6 c1.8,0,3.2-1.4,3.2-3.2V19.2c0-1.8-1.4-3.2-3.2-3.2L7.2,16.1L7.2,16.1z"/><linearGradient id="path592_2_" x1="-791.896" x2="-791.896" y1="-776.858" y2="2094.291" gradientTransform="matrix(0.4146 0 0 -0.4146 352.3199 170.348)" gradientUnits="userSpaceOnUse"><stop style="stop-color:#a87d28" id="stop642" offset="0"/><stop style="stop-color:#d6a84a" id="stop643" offset="1"/></linearGradient><path id="path592_1_" fill="url(#path592_2_)" d="M42.6,44.7c0,1-0.9,1.9-1.9,1.9H7.2c-1,0-1.9-0.9-1.9-1.9V19.2 c0-1,0.9-1.9,1.9-1.9h33.6c1,0,1.9,0.9,1.9,1.9L42.6,44.7L42.6,44.7z"/><linearGradient id="path599_2_" x1="-791.895" x2="-791.895" y1="296.417" y2="394.525" gradientTransform="matrix(0.4146 0 0 -0.4146 352.3199 170.348)" gradientUnits="userSpaceOnUse"><stop style="stop-color:#a87d28" id="stop649" offset="0"/><stop style="stop-color:#d6a84a" id="stop650" offset="1"/></linearGradient><path id="path599_1_" fill="url(#path599_2_)" d="M7.2,17.6c-0.9,0-1.6,0.7-1.6,1.6v25.6c0,0.9,0.7,1.6,1.6,1.6h33.6 c0.9,0,1.6-0.7,1.6-1.6V19.2c0-0.9-0.7-1.6-1.6-1.6H7.2L7.2,17.6z"/><linearGradient id="path606_2_" x1="-791.896" x2="-791.896" y1="296.425" y2="394.527" gradientTransform="matrix(0.4146 0 0 -0.4146 352.3199 170.348)" gradientUnits="userSpaceOnUse"><stop style="stop-color:#ff9200" id="stop656" offset="0"/><stop style="stop-color:#fff030" id="stop657" offset="1"/></linearGradient><path id="path606_1_" fill="url(#path606_2_)" d="M7.2,17.9c-0.7,0-1.3,0.6-1.3,1.3v25.6c0,0.7,0.6,1.3,1.3,1.3h33.6 c0.7,0,1.3-0.6,1.3-1.3V19.2c0-0.7-0.6-1.3-1.3-1.3H7.2L7.2,17.9z"/><path id="path607_1_" fill="#FFF" d="M7.2,17.9c-0.7,0-1.3,0.6-1.3,1.3v25.6c0,0.7,0.6,1.3,1.3,1.3h33.6 c0.7,0,1.3-0.6,1.3-1.3V19.2c0-0.7-0.6-1.3-1.3-1.3H7.2L7.2,17.9z"/><linearGradient id="path619_2_" x1="-791.895" x2="-791.895" y1="366.554" y2="302.549" gradientTransform="matrix(0.4146 0 0 -0.4146 352.3199 170.348)" gradientUnits="userSpaceOnUse"><stop style="stop-color:#ffc957" id="stop664" offset="0"/><stop style="stop-color:#ffbd2f" id="stop665" offset=".171"/><stop style="stop-color:#ffb20d" id="stop666" offset=".344"/><stop style="stop-color:#ffae00" id="stop667" offset=".438"/><stop style="stop-color:#fff030" id="stop668" offset="1"/></linearGradient><path id="path619_1_" fill="url(#path619_2_)" d="M7.2,18.5c-0.3,0-0.6,0.3-0.6,0.6v25.6c0,0.3,0.3,0.6,0.6,0.6h33.6 c0.3,0,0.6-0.3,0.6-0.6V19.2c0-0.3-0.3-0.6-0.6-0.6H7.2V18.5z"/><linearGradient id="path629_2_" x1="-837.505" x2="-790.039" y1="373.874" y2="326.407" gradientTransform="matrix(0.4146 0 0 -0.4146 352.3199 170.348)" gradientUnits="userSpaceOnUse"><stop style="stop-color:#fff" id="stop680" offset="0"/><stop style="stop-color:#ffeabe" id="stop681" offset=".326"/><stop style="stop-color:#ffd886" id="stop682" offset=".641"/><stop style="stop-color:#ffcd64" id="stop683" offset=".874"/><stop style="stop-color:#ffc957" id="stop684" offset="1"/></linearGradient><path id="path629_1_" fill="url(#path629_2_)" d="M7.1,37.6c1.4,0.3,3.1,0.6,4.6,0.6c9.8,0,17.8-7.1,17.8-15.8 c0-1.1-0.2-2.2-0.4-3.3c-9.2,0-21.4,0-22,0C7.1,19.8,7.1,30.6,7.1,37.6z"/><linearGradient id="path636_2_" x1="-792.016" x2="-792.016" y1="322.545" y2="360.303" gradientTransform="matrix(0.4146 0 0 -0.4146 352.3199 170.348)" gradientUnits="userSpaceOnUse"><stop style="stop-color:#ff9200" id="stop696" offset="0"/><stop style="stop-color:#fff" id="stop697" offset="1"/></linearGradient><path id="path636_1_" fill="url(#path636_2_)" d="M18.6,26.3c0,1.4,0.6,2.8,1.7,3.8c-0.3,1-2.1,6.5-2.1,6.5h11.5 c0,0-1.8-5.5-2.1-6.5c1-1,1.7-2.3,1.7-3.8c0-2.9-2.4-5.3-5.3-5.3S18.6,23.3,18.6,26.3z"/><path id="path637_1_" fill="#616161" d="M20,26.3c0,1.3,0.6,2.6,1.8,3.3l0.2,0.1c0,0-1.7,5.1-1.8,5.7c0.6,0,7.1,0,7.8,0 c-0.2-0.6-1.8-5.7-1.8-5.7l0.2-0.1c1.1-0.7,1.8-1.9,1.8-3.3c0-2.2-1.8-3.9-3.9-3.9C21.8,22.3,20,24,20,26.3z"/></g></g><g id="Layer_3"><rect id="rect704" width="48" height="48" fill="none"/></g></svg>