<svg xmlns="http://www.w3.org/2000/svg" xmlns:xlink="http://www.w3.org/1999/xlink" id="svg602" width="48" height="48" enable-background="new 0 0 48 48" overflow="visible" viewBox="0 0 48 48" xml:space="preserve"><g id="Layer_2_1_"><g id="g606"><path id="path606_2_" d="M20.3,41.7c-1,2.4,0.2,5,2.5,6c2.4,1,5-0.1,6-2.5c1-2.3-0.2-5-2.5-6C24,38.2,21.3,39.2,20.3,41.7z"/><path id="path607_2_" d="M16.1,42.4l12,5l1.7-4.2c0,0-1.7-0.7-2.7-1.1c0.7-1.6,3.8-8.8,3.8-8.8l-3.2-1.3c0,0-3.1,7.2-3.8,8.8 c-1.1-0.4-6-2.5-6-2.5L16.1,42.4z"/><path id="path606" d="M4.3,35c-1,2.4,0.1,5,2.5,6c2.4,1,5-0.1,6-2.5c1-2.3-0.2-5-2.5-6C7.9,31.5,5.3,32.6,4.3,35z"/><path id="path607" d="M0,35.7l24.1,10l1.7-4.2c0,0-13.8-5.7-14.9-6.1c0.7-1.6,8.3-20.3,8.3-20.3l-3.2-1.3c0,0-7.7,18.7-8.3,20.3 c-1.1-0.4-6-2.5-6-2.5L0,35.7z"/><linearGradient id="rect620_1_" x1="-216.701" x2="-216.701" y1="635.74" y2="632.301" gradientTransform="matrix(0.6272 0.2577 0.322 -0.7836 -53.2929 592.0135)" gradientUnits="userSpaceOnUse"><stop style="stop-color:#c2c4b5" id="stop612" offset="0"/><stop style="stop-color:#e1e1d1" id="stop613" offset=".185"/><stop style="stop-color:#f1f2e1" id="stop614" offset=".315"/><stop style="stop-color:#83867b" id="stop615" offset="1"/></linearGradient><polygon id="rect620" fill="url(#rect620_1_)" points="1.5 32.3 29.6 43.8 28.5 46.4 .4 34.9"/><linearGradient id="path633_1_" x1="-227.487" x2="-224.696" y1="704.066" y2="704.066" gradientTransform="matrix(0.6997 0.2875 0.1379 -0.3355 72.7921 330.643)" gradientUnits="userSpaceOnUse"><stop style="stop-color:#c2c4b5" id="stop625" offset="0"/><stop style="stop-color:#e1e1d1" id="stop626" offset=".185"/><stop style="stop-color:#f1f2e1" id="stop627" offset=".315"/><stop style="stop-color:#83867b" id="stop628" offset="1"/></linearGradient><path id="path633" fill="url(#path633_1_)" d="M10.9,34.1c-0.1,0.3-2.1-0.6-2-0.8l3.6-8.7l2,0.8L10.9,34.1L10.9,34.1z"/><radialGradient id="circle640_1_" cx="-2271.791" cy="1570.205" r="44.256" fx="-2271.791" fy="1570.205" gradientTransform="matrix(8.086006e-002 3.314809e-002 3.964165e-002 -9.622819e-002 129.4629 262.1814)" gradientUnits="userSpaceOnUse"><stop style="stop-color:#f1f200" id="stop638" offset="0"/><stop style="stop-color:red" id="stop639" offset="1"/></radialGradient><circle id="circle640" cx="8.5" cy="36.7" r="3.7" fill="url(#circle640_1_)"/><linearGradient id="path633_3_" x1="-204.565" x2="-201.774" y1="700.945" y2="700.945" gradientTransform="matrix(0.6997 0.2875 0.1379 -0.3355 72.7921 330.643)" gradientUnits="userSpaceOnUse"><stop style="stop-color:#c2c4b5" id="stop645" offset="0"/><stop style="stop-color:#e1e1d1" id="stop646" offset=".185"/><stop style="stop-color:#f1f2e1" id="stop647" offset=".315"/><stop style="stop-color:#83867b" id="stop648" offset="1"/></linearGradient><path id="path633_2_" fill="url(#path633_3_)" d="M26.5,41.7c-0.1,0.3-2.1-0.6-2-0.8l3.6-8.7l2,0.8L26.5,41.7L26.5,41.7z"/><radialGradient id="circle640_3_" cx="-2071.097" cy="1570.169" r="44.255" fx="-2071.097" fy="1570.169" gradientTransform="matrix(8.086006e-002 3.314809e-002 3.964165e-002 -9.622819e-002 129.4629 262.1814)" gradientUnits="userSpaceOnUse"><stop style="stop-color:#f1f200" id="stop658" offset="0"/><stop style="stop-color:red" id="stop659" offset="1"/></radialGradient><circle id="circle640_2_" cx="24.8" cy="43.4" r="3.7" fill="url(#circle640_3_)"/><g id="g664"><polygon id="polygon649" points="5.2 11.5 5.2 29.5 18.5 34.9 32.1 23.3 32.1 5.3 18.8 0"/><linearGradient id="polygon712_2_" x1="-831.591" x2="-832.438" y1="-261.225" y2="-269.692" gradientTransform="matrix(1 0 0 1 850.8975 276.5723)" gradientUnits="userSpaceOnUse"><stop style="stop-color:#f2f2f2" id="stop667" offset="0"/><stop style="stop-color:#eee" id="stop668" offset=".312"/><stop style="stop-color:#e0e0e0" id="stop669" offset=".665"/><stop style="stop-color:#ccc" id="stop670" offset="1"/></linearGradient><polygon id="polygon712" fill="url(#polygon712_2_)" points="18.2 16.7 6.8 12.2 9.2 10 9.6 10.3 9.5 9.7 19.1 1.7 30.6 6.4"/><linearGradient id="polygon722_8_" x1="-832.558" x2="-838.408" y1="-243.29" y2="-253.802" gradientTransform="matrix(1 0 0 1 850.8975 276.5723)" gradientUnits="userSpaceOnUse"><stop style="stop-color:#e6e6e6" id="stop680" offset="0"/><stop style="stop-color:#c7c7c7" id="stop681" offset=".621"/><stop style="stop-color:#b3b3b3" id="stop682" offset="1"/></linearGradient><polygon id="polygon722" fill="url(#polygon722_8_)" points="18.2 33.4 11.5 30.7 11.4 30.4 10.9 30.5 6.8 28.7 6.8 12.2 10.9 13.8 11.5 13.9 11.5 14.1 18.2 16.7"/><polygon id="polygon723" points="11.4 30.4 10.9 30.4 10.9 13.9 11.5 13.9 11.4 14.1" enable-background="new" opacity=".3"/><rect id="polygon724" width=".6" height="16.5" x="11.4" y="14.2" fill="#FFF" enable-background="new" opacity=".8"/><linearGradient id="polygon734_2_" x1="-823.702" x2="-830.58" y1="-254.512" y2="-259.899" gradientTransform="matrix(1 0 0 1 850.8975 276.5723)" gradientUnits="userSpaceOnUse"><stop style="stop-color:#999" id="stop692" offset="0"/><stop style="stop-color:#7b7b7b" id="stop693" offset=".684"/><stop style="stop-color:#6b6b6b" id="stop694" offset="1"/></linearGradient><polygon id="polygon734" fill="url(#polygon734_2_)" points="30.6 22.9 21 31.1 20.5 30.9 20.5 31.4 18.2 33.4 18.2 16.7 30.6 6.4"/><polygon id="polygon735" fill="#FFF" points="9.6 9.7 20.9 14.5 21.5 14 9.9 9.5" enable-background="new" opacity=".8"/><rect id="polygon736" width=".8" height="16.5" x="20.8" y="14.2" fill="#242424" enable-background="new" opacity=".6"/><polygon id="polygon737" fill="#FFF" points="6.8 12.2 6.8 12.6 10.9 14.3 10.9 13.9 11.5 13.9 11.4 14.5 18.2 17.3 18.3 16.9 18.6 16.4 7 11.9" enable-background="new" opacity=".84"/><polygon id="polygon738" points="9.6 10.3 20.5 14.9 20.5 30.9 20.9 31.1 20.9 14.5 9.5 9.7" enable-background="new" opacity=".3"/><linearGradient id="polygon722_9_" x1="-139.734" x2="-137.352" y1="637.922" y2="637.922" gradientTransform="matrix(1 0 0 -1 153.2148 657.457)" gradientUnits="userSpaceOnUse"><stop style="stop-color:#00a200" id="stop706" offset="0"/><stop style="stop-color:#0f0" id="stop707" offset="1"/></linearGradient><polygon id="polygon722_2_" fill="url(#polygon722_9_)" points="15.8 21.2 14.5 20.8 14.5 20.7 14.3 20.7 13.5 20.5 13.5 17.8 14.3 18.1 14.5 18.1 14.5 18.1 15.8 18.6"/><linearGradient id="polygon722_10_" x1="-139.734" x2="-137.352" y1="633.483" y2="633.483" gradientTransform="matrix(1 0 0 -1 153.2148 657.457)" gradientUnits="userSpaceOnUse"><stop style="stop-color:#f70" id="stop713" offset=".006"/><stop style="stop-color:#ffdc00" id="stop714" offset="1"/></linearGradient><polygon id="polygon722_3_" fill="url(#polygon722_10_)" points="15.8 25.7 14.5 25.3 14.5 25.2 14.3 25.2 13.5 25 13.5 22.3 14.3 22.6 14.5 22.6 14.5 22.6 15.8 23.1"/><linearGradient id="polygon722_11_" x1="-139.734" x2="-137.352" y1="628.998" y2="628.998" gradientTransform="matrix(1 0 0 -1 153.2148 657.457)" gradientUnits="userSpaceOnUse"><stop style="stop-color:#a20000" id="stop720" offset="0"/><stop style="stop-color:red" id="stop721" offset="1"/></linearGradient><polygon id="polygon722_4_" fill="url(#polygon722_11_)" points="15.8 30.1 14.5 29.7 14.5 29.6 14.3 29.7 13.5 29.4 13.5 26.8 14.3 27 14.5 27 14.5 27.1 15.8 27.5"/></g><g id="g669"><polygon id="polygon649_1_" points="21.1 17.7 21.1 35.7 34.4 41 48 29.5 48 11.5 34.8 6.1"/><linearGradient id="polygon712_3_" x1="-815.683" x2="-816.53" y1="-255.103" y2="-263.57" gradientTransform="matrix(1 0 0 1 850.8975 276.5723)" gradientUnits="userSpaceOnUse"><stop style="stop-color:#f2f2f2" id="stop729" offset="0"/><stop style="stop-color:#eee" id="stop730" offset=".312"/><stop style="stop-color:#e0e0e0" id="stop731" offset=".665"/><stop style="stop-color:#ccc" id="stop732" offset="1"/></linearGradient><polygon id="polygon712_1_" fill="url(#polygon712_3_)" points="34.1 22.9 22.7 18.3 25.1 16.2 25.5 16.4 25.4 15.9 35 7.8 46.5 12.4"/><linearGradient id="polygon722_12_" x1="-816.67" x2="-822.521" y1="-237.2" y2="-247.713" gradientTransform="matrix(1 0 0 1 850.8975 276.5723)" gradientUnits="userSpaceOnUse"><stop style="stop-color:#e6e6e6" id="stop742" offset="0"/><stop style="stop-color:#c7c7c7" id="stop743" offset=".621"/><stop style="stop-color:#b3b3b3" id="stop744" offset="1"/></linearGradient><polygon id="polygon722_7_" fill="url(#polygon722_12_)" points="34.1 39.5 27.4 36.8 27.3 36.5 26.8 36.6 22.7 34.8 22.7 18.3 26.8 20 27.4 20.1 27.4 20.3 34.1 22.9"/><polygon id="polygon723_1_" points="27.3 36.5 26.8 36.5 26.8 20.1 27.4 20.1 27.3 20.3" enable-background="new" opacity=".3"/><rect id="polygon724_1_" width=".6" height="16.5" x="27.3" y="20.4" fill="#FFF" enable-background="new" opacity=".8"/><linearGradient id="polygon734_3_" x1="-807.771" x2="-814.649" y1="-248.417" y2="-253.805" gradientTransform="matrix(1 0 0 1 850.8975 276.5723)" gradientUnits="userSpaceOnUse"><stop style="stop-color:#999" id="stop754" offset="0"/><stop style="stop-color:#7b7b7b" id="stop755" offset=".684"/><stop style="stop-color:#6b6b6b" id="stop756" offset="1"/></linearGradient><polygon id="polygon734_1_" fill="url(#polygon734_3_)" points="46.5 29 36.9 37.1 36.4 36.9 36.4 37.4 34.1 39.5 34.1 22.9 46.5 12.4"/><polygon id="polygon735_1_" fill="#FFF" points="25.5 15.9 36.8 20.6 37.4 20.2 25.9 15.6" enable-background="new" opacity=".8"/><rect id="polygon736_1_" width=".8" height="16.5" x="36.7" y="20.4" fill="#242424" enable-background="new" opacity=".6"/><polygon id="polygon737_1_" fill="#FFF" points="22.7 18.3 22.7 18.7 26.8 20.5 26.8 20.1 27.4 20.1 27.3 20.6 34.1 23.3 34.2 23 34.5 22.6 23 18" enable-background="new" opacity=".84"/><polygon id="polygon738_1_" points="25.5 16.4 36.4 20.9 36.4 36.9 36.8 37.1 36.8 20.6 25.4 15.9" enable-background="new" opacity=".3"/><linearGradient id="polygon722_13_" x1="-123.822" x2="-121.44" y1="631.795" y2="631.795" gradientTransform="matrix(1 0 0 -1 153.2148 657.457)" gradientUnits="userSpaceOnUse"><stop style="stop-color:#00a200" id="stop768" offset="0"/><stop style="stop-color:#0f0" id="stop769" offset="1"/></linearGradient><polygon id="polygon722_6_" fill="url(#polygon722_13_)" points="31.8 27.4 30.4 27 30.4 26.9 30.2 26.9 29.4 26.7 29.4 23.9 30.2 24.3 30.4 24.3 30.4 24.3 31.8 24.8"/><linearGradient id="polygon722_14_" x1="-123.822" x2="-121.44" y1="627.357" y2="627.357" gradientTransform="matrix(1 0 0 -1 153.2148 657.457)" gradientUnits="userSpaceOnUse"><stop style="stop-color:#f70" id="stop775" offset=".006"/><stop style="stop-color:#ffdc00" id="stop776" offset="1"/></linearGradient><polygon id="polygon722_5_" fill="url(#polygon722_14_)" points="31.8 31.8 30.4 31.5 30.4 31.4 30.2 31.4 29.4 31.2 29.4 28.4 30.2 28.7 30.4 28.7 30.4 28.7 31.8 29.2"/><linearGradient id="polygon722_15_" x1="-123.822" x2="-121.44" y1="622.871" y2="622.871" gradientTransform="matrix(1 0 0 -1 153.2148 657.457)" gradientUnits="userSpaceOnUse"><stop style="stop-color:#a20000" id="stop782" offset="0"/><stop style="stop-color:red" id="stop783" offset="1"/></linearGradient><polygon id="polygon722_1_" fill="url(#polygon722_15_)" points="31.8 36.3 30.4 35.9 30.4 35.8 30.2 35.9 29.4 35.6 29.4 32.9 30.2 33.1 30.4 33.1 30.4 33.3 31.8 33.7"/></g></g><rect id="rect788" width="48" height="48" fill="none"/></g></svg>