<svg xmlns="http://www.w3.org/2000/svg" xmlns:xlink="http://www.w3.org/1999/xlink" id="svg602" width="48" height="48" enable-background="new 0 0 48 48" overflow="visible" viewBox="0 0 48 48" xml:space="preserve"><g id="Layer_x0020_1"><g id="g606"><linearGradient id="path612_1_" x1="-407.56" x2="-363.661" y1="78.811" y2="78.811" gradientTransform="matrix(1 0 0 1 409.6133 -54.8613)" gradientUnits="userSpaceOnUse"><stop style="stop-color:#ffff62" id="stop608" offset="0"/><stop style="stop-color:#ffac00" id="stop609" offset="1"/></linearGradient><path id="path612" fill="url(#path612_1_)" d="M23.8,5.1L2.1,42.8l0,0l0,0c0,0,0,0,0.1,0h43.7H46l0,0l0,0L24,5.1 C24,5.1,24,5.1,23.8,5.1C23.9,5.1,23.9,5.1,23.8,5.1L23.8,5.1z"/><path id="path613" fill="#FFF" d="M3.6,43.7c0.1-0.2,0.2-0.3,0.2-0.4C3.9,43.3,3.6,43.7,3.6,43.7z"/><radialGradient id="circle614_1_" cx="23.8" cy="30.1" r="13.4" fx="23.8" fy="30.1" gradientUnits="userSpaceOnUse"><stop style="stop-color:#fff" id="stop616" offset="0"/><stop style="stop-color:#fffefc" id="stop617" offset=".176"/><stop style="stop-color:#fffbf2" id="stop618" offset=".308"/><stop style="stop-color:#fff6e2" id="stop619" offset=".426"/><stop style="stop-color:#ffeecb" id="stop620" offset=".535"/><stop style="stop-color:#ffe5ae" id="stop621" offset=".639"/><stop style="stop-color:#ffd98a" id="stop622" offset=".738"/><stop style="stop-color:#ffcb5f" id="stop623" offset=".834"/><stop style="stop-color:#ffbb2e" id="stop624" offset=".925"/><stop style="stop-color:#ffac00" id="stop625" offset="1"/></radialGradient><circle id="circle614" cx="23.8" cy="30.1" r="13.4" fill="url(#circle614_1_)" enable-background="new" opacity=".7"/><linearGradient id="XMLID_1_" x1="-409.108" x2="-362.117" y1="78.861" y2="78.861" gradientTransform="matrix(1 0 0 1 409.6133 -54.8613)" gradientUnits="userSpaceOnUse"><stop style="stop-color:#744426" id="stop631" offset="0"/><stop style="stop-color:#de972b" id="stop632" offset="1"/></linearGradient><path id="path636" fill="url(#XMLID_1_)" d="M25.6,4.2l21.9,37.7c0.3,0.6,0.3,1.3,0,1.9c-0.3,0.6-1,0.9-1.6,0.9H2.2c-0.7,0-1.3-0.4-1.6-0.9 c-0.3-0.6-0.3-1.3,0-1.9L22.3,4.2c0.3-0.6,1-0.9,1.6-0.9C24.6,3.3,25.2,3.6,25.6,4.2z M23.8,5.1L2.1,42.8l0,0l0,0c0,0,0,0,0.1,0 h43.7H46l0,0l0,0L24,5.1C24,5.1,24,5.1,23.8,5.1C23.9,5.1,23.9,5.1,23.8,5.1L23.8,5.1z"/><path id="path637" fill="url(#XMLID_1_)" d="M25.6,4.2l21.9,37.7c0.3,0.6,0.3,1.3,0,1.9c-0.3,0.6-1,0.9-1.6,0.9H2.2c-0.7,0-1.3-0.4-1.6-0.9 c-0.3-0.6-0.3-1.3,0-1.9L22.3,4.2c0.3-0.6,1-0.9,1.6-0.9C24.6,3.3,25.2,3.6,25.6,4.2z M23.8,5.1L2.1,42.8l0,0l0,0c0,0,0,0,0.1,0 h43.7H46l0,0l0,0L24,5.1C24,5.1,24,5.1,23.8,5.1C23.9,5.1,23.9,5.1,23.8,5.1L23.8,5.1z"/><linearGradient id="path629_1_" x1="-394.945" x2="-368.987" y1="79.804" y2="94.157" gradientTransform="matrix(1 0 0 1 409.6133 -54.8613)" gradientUnits="userSpaceOnUse"><stop style="stop-color:#ffffe1" id="stop639" offset="0"/><stop style="stop-color:#fffedd" id="stop640" offset=".122"/><stop style="stop-color:#fff9cf" id="stop641" offset=".254"/><stop style="stop-color:#fff3ba" id="stop642" offset=".393"/><stop style="stop-color:#ffe99b" id="stop643" offset=".534"/><stop style="stop-color:#ffdc74" id="stop644" offset=".679"/><stop style="stop-color:#ffcd43" id="stop645" offset=".826"/><stop style="stop-color:#ffbc0b" id="stop646" offset=".972"/><stop style="stop-color:#ffb800" id="stop647" offset="1"/></linearGradient><path id="path629" fill="url(#path629_1_)" d="M5.1,41.1c0.5,0,1.2,0,2.2,0C15.5,27.9,19,29.6,22.7,29.3 c6-0.5,10-5.6,7-11.1c-3.2-5.6-4.8-7.9-5.8-9.6C21.5,12.7,7.5,37,5.1,41.1z" opacity=".5"/><path id="path652" d="M24.2,31h-0.8c-0.1-1.3-0.4-3-0.8-4.8l-0.9-3.8c-0.6-2.3-0.8-3.9-0.8-4.9c0-0.9,0.3-1.6,0.8-2.2 c0.5-0.6,1.2-0.8,2.1-0.8c0.8,0,1.5,0.3,2.1,0.8s0.8,1.3,0.8,2.1c0,0.9-0.3,2.6-0.9,5l-0.9,3.8C24.6,27.5,24.4,29.1,24.2,31 L24.2,31z M23.9,33.5c0.8,0,1.5,0.3,2,0.8c0.6,0.6,0.8,1.2,0.8,2c0,0.8-0.3,1.5-0.8,2s-1.2,0.8-2,0.8c-0.8,0-1.5-0.3-2-0.8 c-0.6-0.6-0.8-1.2-0.8-2c0-0.8,0.3-1.5,0.8-2S23.1,33.5,23.9,33.5L23.9,33.5z"/><rect id="rect631" width="48" height="48" fill="none"/></g></g></svg>