<svg xmlns="http://www.w3.org/2000/svg" xmlns:xlink="http://www.w3.org/1999/xlink" id="svg602" width="48" height="48" enable-background="new 0 0 48 48" overflow="visible" viewBox="0 0 48 48" xml:space="preserve"><g id="Layer_1"><g id="Layer_1_1_"><rect id="path551" width="48" height="48" fill="none"/></g><path id="path552" d="M1.6,24.6 c0,12.7,10.3,22.9,22.9,22.9c12.7,0,22.9-10.3,22.9-22.9S37.2,1.6,24.6,1.6S1.6,11.9,1.6,24.6z" enable-background="new" opacity=".25"/><path id="path553" fill="#00008D" d="M1.1,24c0,12.7,10.3,22.9,22.9,22.9c12.7,0,22.9-10.3,22.9-22.9S36.7,1.1,24,1.1 S1.1,11.3,1.1,24z"/><path id="path554" fill="#0032A4" d="M24,1.4C11.6,1.4,1.4,11.6,1.4,24S11.6,46.6,24,46.6S46.6,36.4,46.6,24S36.4,1.4,24,1.4z"/><radialGradient id="path564_1_" cx="-401.221" cy="-70.787" r="259.508" fx="-401.221" fy="-70.787" gradientTransform="matrix(0.1875 0 0 0.1875 84.5625 24)" gradientUnits="userSpaceOnUse"><stop style="stop-color:#9cf" id="stop612" offset=".006"/><stop style="stop-color:#39f" id="stop613" offset=".584"/><stop style="stop-color:#0035ed" id="stop614" offset="1"/></radialGradient><circle id="path564" cx="24" cy="24" r="21.4" fill="url(#path564_1_)"/><path id="path565" fill="#FFF" d="M3.1,24.8 c0-11.8,9.6-21.4,21.4-21.4c6.9,0,13,3.2,16.9,8.3c-3.9-5.5-10.3-9-17.5-9C12.2,2.6,2.6,12.2,2.6,24c0,5,1.7,9.6,4.5,13.2 C4.6,33.7,3.1,29.4,3.1,24.8z" enable-background="new" opacity=".7"/><linearGradient id="path572_1_" x1="-324.291" x2="-324.291" y1="-111.799" y2="-22.798" gradientTransform="matrix(0.1875 0 0 0.1875 84.5625 24)" gradientUnits="userSpaceOnUse"><stop style="stop-color:#fff" id="stop623" offset=".006"/><stop style="stop-color:#7abdff" id="stop624" offset="1"/></linearGradient><path id="path572" fill="url(#path572_1_)" d="M6.5,14.1c4.1,1.9,9.9,3,16.3,3c7.4,0,14-1.5,18.1-3.9c-3.4-5.9-9.7-9.8-17-9.8 C16.4,3.3,9.8,7.7,6.5,14.1z"/><g id="g629"><path id="path630" d="M34.8,12.2c-1.2,0.2-2.2,0.7-2.9,1.7c0,0-7.2,10.1-9.8,13.4c-2.2-2.2-6-6-6-6c-0.7-0.7-1.9-1.2-3.1-1.2 c-1.2,0-2.2,0.5-3.1,1.2c-1.7,1.7-1.7,4.3,0,6l9.4,9.4c1,1,2.2,1.2,3.4,1.2c1.2,0,2.4-0.7,3.1-1.7l13-17c1.4-1.9,1.2-4.6-0.7-6 C37,12.5,36,12.2,34.8,12.2z"/><path id="path631" fill="#FFF" d="M35.3,12.7c-1.2,0.2-2.2,0.7-2.9,1.7c0,0-7.2,10.1-9.8,13.4c-2.2-2.2-6-6-6-6c-0.7-0.7-1.9-1.2-3.1-1.2 c-1.2,0-2.2,0.5-3.1,1.2c-1.7,1.7-1.7,4.3,0,6l9.4,9.4c1,1,2.2,1.2,3.4,1.2c1.2,0,2.4-0.7,3.1-1.7l13-17c1.4-1.9,1.2-4.6-0.7-6 C37.4,12.9,36.5,12.7,35.3,12.7z"/><radialGradient id="XMLID_1_" cx="-274.373" cy="411.687" r="13.305" fx="-274.373" fy="411.687" gradientTransform="matrix(2 0 0 -2 565 839)" gradientUnits="userSpaceOnUse"><stop style="stop-color:#fff" id="stop633" offset="0"/><stop style="stop-color:#f0e1bd" id="stop634" offset="1"/></radialGradient><path id="path638" fill="url(#XMLID_1_)" d="M35,12.5c-1.2,0.2-2.2,0.7-2.9,1.7c0,0-7.2,10.1-9.8,13.4c-2.2-2.4-6.2-6.2-6.2-6.2 c-0.7-0.7-1.9-1.2-3.1-1.2c-1.2,0-2.2,0.5-3.1,1.2c-1.7,1.7-1.7,4.3,0,6l9.4,9.4c1,1,2.2,1.2,3.4,1.2c1.2,0,2.4-0.7,3.1-1.7 l13-17c1.4-1.9,1.2-4.6-0.7-6c-1-0.7-1.9-1-3.1-1L35,12.5z"/></g></g></svg>