<svg xmlns="http://www.w3.org/2000/svg" xmlns:xlink="http://www.w3.org/1999/xlink" id="svg602" width="48" height="48" enable-background="new 0 0 48 48" overflow="visible" viewBox="0 0 48 48" xml:space="preserve"><g id="Layer_1"><rect id="path155" width="48" height="48" fill="none"/></g><g id="g157"><path id="path158" d="M1.6,24.5 c0,12.7,10.3,22.9,22.9,22.9c12.6,0,22.9-10.3,22.9-22.9c0-12.7-10.3-22.9-22.9-22.9C11.8,1.6,1.6,11.8,1.6,24.5z" enable-background="new" opacity=".2"/><path id="path159" fill="#600" d="M1.1,23.6c0,12.7,10.3,22.9,22.9,22.9c12.6,0,22.9-10.3,22.9-22.9S36.6,0.6,24,0.6 C11.3,0.6,1.1,10.9,1.1,23.6z"/><path id="path160" fill="#600" d="M24,1C11.5,1,1.4,11.1,1.4,23.6S11.5,46.2,24,46.2c12.4,0,22.6-10.1,22.6-22.6S36.4,1,24,1z"/><radialGradient id="path170_1_" cx="-232.761" cy="364.49" r="259.509" fx="-232.761" fy="364.49" gradientTransform="matrix(0.1875 0 0 -0.1875 52.9688 78.6563)" gradientUnits="userSpaceOnUse"><stop style="stop-color:#f99" id="stop612" offset=".006"/><stop style="stop-color:red" id="stop613" offset=".584"/><stop style="stop-color:#900" id="stop614" offset="1"/></radialGradient><circle id="path170" cx="24" cy="23.6" r="21.4" fill="url(#path170_1_)"/><path id="path171" fill="#FFF" d="M3.1,24.3 c0-11.8,9.6-21.4,21.4-21.4c6.9,0,13,3.2,16.9,8.3c-3.9-5.5-10.3-9-17.5-9c-11.8,0-21.4,9.6-21.4,21.4c0,5,1.7,9.6,4.5,13.2 C4.6,33.3,3.1,29,3.1,24.3z" enable-background="new" opacity=".5"/><path id="path194" fill="#600" d="M29.5,12.7L29.5,12.7c0,0-4.5,4.5-5.6,5.6c-1.1-1.1-5.6-5.6-5.6-5.6c-0.7-0.7-1.9-0.7-2.7,0 l-2.8,2.8c-0.4,0.4-0.5,0.8-0.5,1.3c0,0.5,0.2,1,0.5,1.3c0,0,4.5,4.5,5.6,5.6c-1.1,1.1-5.6,5.6-5.6,5.6c-0.4,0.4-0.5,0.8-0.5,1.3 c0,0.5,0.2,1,0.5,1.3l2.8,2.8c0.4,0.4,0.8,0.5,1.3,0.5s1-0.2,1.3-0.5c0,0,4-4,5.6-5.6c1.1,1.1,5.6,5.6,5.6,5.6 c0.4,0.4,0.8,0.5,1.3,0.5c0.5,0,1-0.2,1.3-0.5l2.8-2.8c0.4-0.4,0.5-0.8,0.5-1.3c0-0.5-0.2-1-0.5-1.3c0,0-4.5-4.5-5.6-5.6 c1.1-1.1,5.6-5.6,5.6-5.6c0.4-0.4,0.5-0.8,0.5-1.3s-0.2-1-0.5-1.3l-2.8-2.8c-0.4-0.4-0.8-0.5-1.3-0.5 C30.3,12.2,29.8,12.4,29.5,12.7z"/><linearGradient id="path201_1_" x1="-155.831" x2="-155.831" y1="406.502" y2="317.502" gradientTransform="matrix(0.1875 0 0 -0.1875 52.9688 78.6563)" gradientUnits="userSpaceOnUse"><stop style="stop-color:#fff" id="stop624" offset=".006"/><stop style="stop-color:#f66" id="stop625" offset="1"/></linearGradient><path id="path201" fill="url(#path201_1_)" d="M15.7,12.7c0.7-0.7,1.9-0.7,2.7,0c0,0,2.1,2.1,3.8,3.8c0.3,0,0.5,0,0.8,0 c1,0,1.9,0,2.9-0.1c1.7-1.7,3.7-3.7,3.7-3.7l0,0c0.4-0.4,0.8-0.5,1.3-0.5c0.5,0,1,0.2,1.3,0.5l2.4,2.4c2.5-0.7,4.7-1.5,6.5-2.5 c-3.4-5.9-9.7-9.8-17-9.8c-7.6,0-14.2,4.4-17.5,10.7c1.8,0.8,4,1.5,6.4,2L15.7,12.7z"/><path id="path202" fill="#FFF" d="M28,23.7c1.1-1.1,6.2-6.2,6.2-6.2c0.2-0.2,0.3-0.4,0.3-0.7c0-0.2-0.1-0.5-0.3-0.7l-2.8-2.8 c-0.4-0.4-1-0.4-1.3,0c0,0-5.1,5.1-6.2,6.2c-1.1-1.1-6.2-6.2-6.2-6.2c-0.4-0.4-1-0.4-1.3,0l-2.8,2.8c-0.2,0.2-0.3,0.4-0.3,0.7 c0,0.2,0.1,0.5,0.3,0.7c0,0,5.1,5.1,6.2,6.2c-1.1,1.1-6.2,6.2-6.2,6.2c-0.2,0.2-0.3,0.4-0.3,0.7s0.1,0.5,0.3,0.7l2.8,2.8 c0.2,0.2,0.4,0.3,0.7,0.3c0.2,0,0.5-0.1,0.7-0.3c0,0,5.1-5.1,6.2-6.2c1.1,1.1,6.2,6.2,6.2,6.2c0.4,0.4,1,0.4,1.3,0l2.8-2.8 c0.2-0.2,0.3-0.4,0.3-0.7s-0.1-0.5-0.3-0.7C34.2,30,29.1,24.8,28,23.7z"/></g></svg>