<svg xmlns="http://www.w3.org/2000/svg" xmlns:xlink="http://www.w3.org/1999/xlink" id="svg602" width="48" height="48" enable-background="new 0 0 48 48" overflow="visible" viewBox="0 0 48 48" xml:space="preserve"><g id="Layer_1_2_"><g id="g605"><g id="g606"><path id="path607" d="M24.3,4.1c-12,0-21.8,9.8-21.8,21.8 c0,12,9.8,21.8,21.8,21.8S46.1,38,46.1,25.9C46.1,13.9,36.3,4.1,24.3,4.1z" enable-background="new" opacity=".16"/><g id="g608"><radialGradient id="XMLID_7_" cx="-219.484" cy="507.67" r="54.391" fx="-219.484" fy="507.67" gradientTransform="matrix(1 0 0 -1 244.3091 553.8613)" gradientUnits="userSpaceOnUse"><stop style="stop-color:#2d58a4" id="stop610" offset="0"/><stop style="stop-color:#0d2d60" id="stop611" offset="1"/></radialGradient><path id="path615" fill="url(#XMLID_7_)" d="M24,0.2C11.6,0.2,1.6,10.3,1.6,22.6C1.6,35,11.6,45.1,24,45.1c12.4,0,22.4-10.1,22.4-22.4 C46.4,10.3,36.4,0.2,24,0.2z M24,44C12.2,44,2.6,34.5,2.6,22.6C2.6,10.8,12.2,1.2,24,1.2c11.8,0,21.4,9.6,21.4,21.4 C45.4,34.5,35.8,44,24,44z"/><radialGradient id="XMLID_8_" cx="-220.565" cy="498.027" r="46.889" fx="-220.565" fy="498.027" gradientTransform="matrix(1 0 0 -1 244.3091 553.8613)" gradientUnits="userSpaceOnUse"><stop style="stop-color:#dee1ff" id="stop617" offset="0"/><stop style="stop-color:#2b72c2" id="stop618" offset=".629"/><stop style="stop-color:#2353a4" id="stop619" offset="1"/></radialGradient><path id="path625" fill="url(#XMLID_8_)" d="M24,2.3c-11.2,0-20.4,9.1-20.4,20.4C3.6,33.9,12.8,43,24,43c11.2,0,20.4-9.1,20.4-20.4 C44.4,11.4,35.2,2.3,24,2.3z"/><radialGradient id="XMLID_9_" cx="-219.483" cy="507.669" r="54.387" fx="-219.483" fy="507.669" gradientTransform="matrix(1 0 0 -1 244.3091 553.8613)" gradientUnits="userSpaceOnUse"><stop style="stop-color:#2d58a4" id="stop627" offset="0"/><stop style="stop-color:#0d2d60" id="stop628" offset="1"/></radialGradient><path id="path632" fill="url(#XMLID_9_)" d="M24,1.2c-11.8,0-21.4,9.6-21.4,21.4C2.6,34.5,12.2,44,24,44c11.8,0,21.4-9.6,21.4-21.4 C45.4,10.8,35.8,1.2,24,1.2z M24,43C12.8,43,3.6,33.9,3.6,22.6C3.6,11.4,12.8,2.3,24,2.3c11.2,0,20.4,9.1,20.4,20.4 C44.4,33.9,35.2,43,24,43z"/><radialGradient id="XMLID_10_" cx="-220.566" cy="498.026" r="46.889" fx="-220.566" fy="498.026" gradientTransform="matrix(1 0 0 -1 244.3091 553.8613)" gradientUnits="userSpaceOnUse"><stop style="stop-color:#dee1ff" id="stop634" offset=".225"/><stop style="stop-color:#177cc2" id="stop635" offset=".747"/><stop style="stop-color:#3a6dbd" id="stop636" offset="1"/></radialGradient><path id="path642" fill="url(#XMLID_10_)" d="M24,1.2c-11.8,0-21.4,9.6-21.4,21.4C2.6,34.5,12.2,44,24,44c11.8,0,21.4-9.6,21.4-21.4 C45.4,10.8,35.8,1.2,24,1.2z M24,43C12.8,43,3.6,33.9,3.6,22.6C3.6,11.4,12.8,2.3,24,2.3c11.2,0,20.4,9.1,20.4,20.4 C44.4,33.9,35.2,43,24,43z"/></g><linearGradient id="XMLID_11_" x1="-221.326" x2="-221.326" y1="550.983" y2="529.365" gradientTransform="matrix(1 0 0 -1 244.3091 553.8613)" gradientUnits="userSpaceOnUse"><stop style="stop-color:#2b72c2" id="stop644" offset=".006"/><stop style="stop-color:#fff" id="stop645" offset="1"/></linearGradient><path id="path649" fill="url(#XMLID_11_)" d="M23.7,23.3 c8.1-6.1,15.7-8.2,19-8.8C39.6,7.2,32.3,2,23.9,2C12.5,2,3.2,11.4,3.2,23c0,1.8,0.2,3.6,0.7,5.3C7.2,29,15.4,29.6,23.7,23.3z" enable-background="new" opacity=".44"/><g id="g650"><linearGradient id="XMLID_12_" x1="-230.284" x2="-196.002" y1="548.403" y2="480.011" gradientTransform="matrix(1 0 0 -1 244.3091 553.8613)" gradientUnits="userSpaceOnUse"><stop style="stop-color:#000" id="stop652" offset="1"/><stop style="stop-color:#fff" id="stop653" offset="1"/></linearGradient><path id="path657" fill="url(#XMLID_12_)" d="M31.2,38.3H18.8v-1.4c0.3,0,0.7-0.1,1-0.1c0.3,0,0.6-0.1,0.8-0.2c0.4-0.2,0.7-0.4,0.9-0.7c0.2-0.3,0.3-0.7,0.3-1.2V23.3 c0-0.5-0.1-0.9-0.3-1.2c-0.2-0.3-0.5-0.6-0.8-0.8c-0.2-0.2-0.6-0.3-1.1-0.5c-0.5-0.1-0.9-0.2-1.3-0.3v-1.4l9.7-0.5l0.3,0.3 v15.6c0,0.5,0.1,0.9,0.3,1.2c0.2,0.3,0.5,0.6,0.8,0.7c0.3,0.1,0.5,0.2,0.9,0.3c0.3,0.1,0.6,0.2,1,0.2L31.2,38.3 M28.4,11.5 c0,1-0.4,1.8-1.2,2.5c-0.8,0.7-1.7,1.1-2.7,1.1c-1.1,0-2-0.4-2.7-1.1c-0.8-0.7-1.2-1.6-1.2-2.5c0-1,0.4-1.8,1.2-2.6 c0.8-0.7,1.7-1.1,2.7-1.1c1.1,0,2,0.4,2.7,1.1C28,9.6,28.4,10.5,28.4,11.5z" enable-background="new" opacity=".3"/><path id="path658" fill="#FFF" d="M29.7,37.4H17.3V36c0.3,0,0.7-0.1,1-0.1c0.3,0,0.6-0.1,0.8-0.2c0.4-0.2,0.7-0.4,0.9-0.7 c0.2-0.3,0.3-0.7,0.3-1.2V22.4c0-0.5-0.1-0.9-0.3-1.2c-0.2-0.3-0.5-0.6-0.8-0.8c-0.2-0.2-0.6-0.3-1.1-0.5 c-0.5-0.1-0.9-0.2-1.3-0.3v-1.4l9.7-0.5l0.3,0.3v15.6c0,0.5,0.1,0.8,0.3,1.2c0.2,0.3,0.5,0.6,0.8,0.7c0.3,0.1,0.5,0.2,0.9,0.3 c0.3,0.1,0.6,0.2,1,0.2L29.7,37.4 M26.9,10.6c0,1-0.4,1.8-1.2,2.5s-1.7,1.1-2.7,1.1c-1.1,0-2-0.4-2.7-1.1s-1.2-1.6-1.2-2.5 c0-1,0.4-1.8,1.2-2.6S22,7,23,7c1.1,0,2,0.4,2.7,1.1S26.9,9.6,26.9,10.6z"/></g></g><rect id="rect659" width="48" height="48" fill="none"/></g></g></svg>