<svg xmlns="http://www.w3.org/2000/svg" xmlns:xlink="http://www.w3.org/1999/xlink" id="svg602" width="48" height="48" enable-background="new 0 0 48 48" overflow="visible" viewBox="0 0 48 48" xml:space="preserve"><g id="Layer_x0020_1"><g id="g606"><path id="path572_1_" d="M22.5,1.8 c-0.5,0.3-0.8,0.8-0.8,1.4v26.5c0,0.6,0.3,1.1,0.8,1.4c0.5,0.3,1.1,0.3,1.6,0l23.1-13.2c0.5-0.3,0.8-0.8,0.8-1.4 s-0.3-1.1-0.8-1.4L24.1,1.8C23.6,1.5,23,1.5,22.5,1.8z" enable-background="new" opacity=".2"/><path id="path573_1_" fill="#030" d="M21.4,0.2c-0.5,0.3-0.8,0.8-0.8,1.4v26.5c0,0.6,0.3,1.1,0.8,1.4c0.5,0.3,1.1,0.3,1.6,0 l23.1-13.2c0.5-0.3,0.8-0.8,0.8-1.4s-0.3-1.1-0.8-1.4L23,0.2C22.5-0.1,21.9-0.1,21.4,0.2z"/><linearGradient id="path574_2_" x1="33.769" x2="33.769" y1="1.093" y2="28.922" gradientUnits="userSpaceOnUse"><stop style="stop-color:#0f0" id="stop610" offset="0"/><stop style="stop-color:#00fb00" id="stop611" offset=".099"/><stop style="stop-color:#00f000" id="stop612" offset=".189"/><stop style="stop-color:#00de00" id="stop613" offset=".276"/><stop style="stop-color:#00c400" id="stop614" offset=".361"/><stop style="stop-color:#00a200" id="stop615" offset=".444"/><stop style="stop-color:#007e00" id="stop616" offset=".517"/><stop style="stop-color:#007e00" id="stop617" offset=".59"/><stop style="stop-color:#00a300" id="stop618" offset=".648"/><stop style="stop-color:#00c400" id="stop619" offset=".714"/><stop style="stop-color:#00de00" id="stop620" offset=".781"/><stop style="stop-color:#00f000" id="stop621" offset=".85"/><stop style="stop-color:#00fb00" id="stop622" offset=".921"/><stop style="stop-color:#0f0" id="stop623" offset="1"/></linearGradient><polygon id="path574_1_" fill="url(#path574_2_)" points="22.2 1.6 45.3 14.8 22.2 28.1"/><path id="path589_1_" fill="#FFF" d="M22.8,2.6c-0.1,0-0.1,0.1-0.1,0.2v16.4c0,0.1,0.1,4.2,0.2,4.2c0.1,0,0.3-17.4,1.2-18.3c0.9-0.9,19.2,9.6,19.2,9.4 c0.1-0.1-3.1-2-3.2-2.1L23,2.6C23,2.5,22.9,2.5,22.8,2.6z" enable-background="new" opacity=".7"/></g><g id="g633"><path id="path572" d="M1.9,1.8 C1.4,2.1,1.1,2.6,1.1,3.2v26.5c0,0.6,0.3,1.1,0.8,1.4s1.1,0.3,1.6,0l23.1-13.2c0.5-0.3,0.8-0.8,0.8-1.4s-0.3-1.1-0.8-1.4 L3.5,1.8C3,1.5,2.4,1.5,1.9,1.8z" enable-background="new" opacity=".2"/><path id="path573" fill="#030" d="M0.8,0.2C0.3,0.5,0,1,0,1.6v26.5c0,0.6,0.3,1.1,0.8,1.4c0.5,0.3,1.1,0.3,1.6,0l23.1-13.2 c0.5-0.3,0.8-0.8,0.8-1.4s-0.3-1.1-0.8-1.4L2.4,0.2C1.9-0.1,1.3-0.1,0.8,0.2z"/><linearGradient id="path574_3_" x1="13.141" x2="13.141" y1="1.093" y2="28.922" gradientUnits="userSpaceOnUse"><stop style="stop-color:#0f0" id="stop637" offset="0"/><stop style="stop-color:#00fb00" id="stop638" offset=".099"/><stop style="stop-color:#00f000" id="stop639" offset=".189"/><stop style="stop-color:#00de00" id="stop640" offset=".276"/><stop style="stop-color:#00c400" id="stop641" offset=".361"/><stop style="stop-color:#00a200" id="stop642" offset=".444"/><stop style="stop-color:#007e00" id="stop643" offset=".517"/><stop style="stop-color:#007e00" id="stop644" offset=".59"/><stop style="stop-color:#00a300" id="stop645" offset=".648"/><stop style="stop-color:#00c400" id="stop646" offset=".714"/><stop style="stop-color:#00de00" id="stop647" offset=".781"/><stop style="stop-color:#00f000" id="stop648" offset=".85"/><stop style="stop-color:#00fb00" id="stop649" offset=".921"/><stop style="stop-color:#0f0" id="stop650" offset="1"/></linearGradient><polygon id="path574" fill="url(#path574_3_)" points="1.6 1.6 24.7 14.8 1.6 28.1"/><path id="path589" fill="#FFF" d="M2.2,2.6 c-0.1,0-0.1,0.1-0.1,0.2v16.4c0,0.1,0.1,4.2,0.2,4.2C2.4,23.3,2.6,5.9,3.4,5c0.9-0.9,19.2,9.6,19.2,9.4c0.1-0.1-3.1-2-3.2-2.1 L2.4,2.6C2.3,2.5,2.2,2.5,2.2,2.6z" enable-background="new" opacity=".7"/></g></g><g id="Layer_2_1_"><g id="g678"><g id="g662"><g id="g666"><path id="path664" fill="#1C1B3C" d="M17.6,28c0,8.5,6.7,15.2,15.2,15.2S48,36.5,48,28c0.3-8.5-6.7-15.2-15.2-15.2S17.5,19.5,17.6,28z M22.8,28c0-5.6,4.4-10,10-10c5.6,0,10.2,4.5,10,10c0,5.6-4.5,10-10,10C27.2,38,22.8,33.6,22.8,28z"/></g></g><path id="path665" fill="#919191" d="M14.2,42.6v0.1c-1.1,1.2-1.1,3.2,0,4.3c1.1,1.1,3.1,1.1,4.2,0l4.8-4.8c0.9-0.9,1.1-2,0.7-3.1 c2.6,1.8,5.8,3.1,9.1,3.1c7.9,0,14.2-6.4,14.2-14.2c0-7.9-6.5-14.2-14.3-14.2c-7.9,0-14.2,6.4-14.2,14.2c0,3.6,1.3,6.7,3.3,9.1 c-1.1-0.4-2.4,0-3.1,0.7l-4.8,4.8H14.2z M20.6,28.2C20.6,21.5,26,16,32.8,16C39.5,16,45,21.4,45,28.2c0,6.7-5.4,12.2-12.2,12.2 C26.1,40.4,20.6,35.1,20.6,28.2z"/><path id="path617" fill="none" stroke="#FFF" stroke-linecap="round" stroke-width=".343" d="M33.2,14.8c7.2,0,13.1,5.9,13.1,13.1" enable-background="new" opacity=".5"/><path id="path618" fill="none" stroke="#FFF" stroke-linecap="round" stroke-width=".343" d="M31.8,40.8c-6.4,0-11.6-5.1-11.6-11.6" enable-background="new" opacity=".5"/><radialGradient id="path700_1_" cx="-1831.936" cy="358.445" r="8.012" fx="-1831.936" fy="358.445" gradientTransform="matrix(-2 0 0 -2 -3635.165 750.3555)" gradientUnits="userSpaceOnUse"><stop style="stop-color:#fff" id="stop669" offset="0"/><stop style="stop-color:#3f4a8e" id="stop670" offset=".73"/><stop style="stop-color:#3a4a92" id="stop671" offset=".839"/><stop style="stop-color:#2c499e" id="stop672" offset=".997"/><stop style="stop-color:#2c499e" id="stop673" offset="1"/></radialGradient><path id="path700" fill="url(#path700_1_)" d="M32.8,18c5.6,0,10.2,4.5,10,10c0,5.6-4.4,10-10,10c-5.6,0-10-4.5-10-10S27.2,18,32.8,18z" enable-background="new" opacity=".47"/><linearGradient id="path641_1_" x1="-1871.401" x2="-1863.587" y1="336.193" y2="328.379" gradientTransform="matrix(-1 0 0 -1 -1832.6338 358.0039)" gradientUnits="userSpaceOnUse"><stop style="stop-color:#fff" id="stop685" offset="0"/><stop style="stop-color:#a8bddb" id="stop686" offset="1"/></linearGradient><path id="path641" fill="url(#path641_1_)" d="M32.8,18.8c5.1,0,9.2,4.2,9.2,9.2C42,39.1,20.4,18.8,32.8,18.8z"/><path id="path642" fill="url(#path641_1_)" d="M32.8,18.8c5.1,0,9.2,4.2,9.2,9.2C42,39.1,20.4,18.8,32.8,18.8z" enable-background="new" opacity=".48"/><linearGradient id="circle642_1_" x1="-1268.253" x2="-1272.496" y1="313.577" y2="309.335" gradientTransform="matrix(-1 0 0 -1 -1249.2334 351.4063)" gradientUnits="userSpaceOnUse"><stop style="stop-color:red" id="stop693" offset="0"/><stop style="stop-color:#810000" id="stop694" offset="1"/></linearGradient><circle id="circle642" cx="21.2" cy="40" r="3" fill="url(#circle642_1_)"/><linearGradient id="circle649_1_" x1="-1263.254" x2="-1267.497" y1="308.576" y2="304.334" gradientTransform="matrix(-1 0 0 -1 -1249.2334 351.4063)" gradientUnits="userSpaceOnUse"><stop style="stop-color:red" id="stop700" offset="0"/><stop style="stop-color:#810000" id="stop701" offset="1"/></linearGradient><circle id="circle649" cx="16.2" cy="45" r="3" fill="url(#circle649_1_)"/><linearGradient id="polygon615_1_" x1="-1849.18" x2="-1853.401" y1="317.647" y2="313.426" gradientTransform="matrix(-1 0 0 -1 -1832.6338 358.0039)" gradientUnits="userSpaceOnUse"><stop style="stop-color:#ff3200" id="stop707" offset="0"/><stop style="stop-color:#ffed00" id="stop708" offset=".332"/><stop style="stop-color:#ff3000" id="stop709" offset="1"/></linearGradient><polygon id="polygon615" fill="url(#polygon615_1_)" points="14.1 42.7 18.4 47 23.2 42.2 18.9 37.9"/><line id="line616" x1="15.8" x2="20.2" y1="43.8" y2="39.4" fill="none" stroke="#FFF" stroke-linecap="round" stroke-width=".686" enable-background="new" opacity=".54"/></g></g><g id="Layer_3"><rect id="rect606" width="48" height="48" fill="none"/></g></svg>