<svg xmlns="http://www.w3.org/2000/svg" xmlns:xlink="http://www.w3.org/1999/xlink" id="svg602" width="48" height="48" enable-background="new 0 0 48 48" overflow="visible" viewBox="0 0 48 48" xml:space="preserve"><g id="g704"><rect id="rect606" width="48" height="48" fill="none"/><g id="g607"><g id="path609"><path id="path610" fill="#230000" d="M20,38.9 c-0.3-0.4-1.1-1.2-2.6-0.1c-1.2,0.7-1.4,1.9-0.4,4.7c1,2.8,5.7,2.6,5.7,2.6l-0.9-6c0,0-0.3,2.1-0.7,1.1c-1.1,0.9-2-1.2-0.7-1.1 C20.5,39.4,20.4,39.2,20,38.9z" enable-background="new" opacity=".999"/></g><path id="path608" fill="#230000" d="M21,35.5c-1.1,2.1,0.1,4.6,1.3,10.4c7.7,1,8.5-8.5,8.5-8.5s1.6-0.7,2.9-1.9 C35,34.3,50,10.5,44.9,6.4C41.4,0.2,26.3,25.1,25,28.2c-0.6,1.4-1,4.4-1,4.4C22.3,33.3,21.7,34.3,21,35.5z"/><path id="path600" fill="#F2962C" d="M43.7,7.4c-2.7-2.7-13,14.7-16.4,21.2c4.1,0.9,5.3,2.6,6.2,4.8 C37.2,29.1,47.1,9.2,43.7,7.4z"/><path id="path601" fill="#8B8B8B" d="M26.6,29.4c-0.6-0.1-0.9,1.8-1,3.4c1.7,0.4,3.6,1.3,4,2.9c1.9,0.4,3.3-1.6,3.3-1.6 C32.2,29.7,27.6,29.2,26.6,29.4z"/><linearGradient id="path621_1_" x1="-706.456" x2="-699.617" y1="406.937" y2="407.68" gradientTransform="matrix(-0.3313 -0.1032 0.2626 -0.8428 -301.7627 290.7978)" gradientUnits="userSpaceOnUse"><stop style="stop-color:#956d47" id="stop614" offset="0"/><stop style="stop-color:#ab322d" id="stop615" offset="1"/></linearGradient><path id="path621" fill="url(#path621_1_)" d="M43.7,7.4c-2.7-2.7-13,14.7-16.4,21.2c4.1,0.9,5.3,2.6,6.2,4.8 C37.2,29.1,47.1,9.2,43.7,7.4z"/><path id="path622" fill="#F2D0A8" d="M41.7,8.3c2.6-0.6-10.4,21.2-12.1,20.6C26.5,27.9,41.1,8.5,41.7,8.3z"/><path id="path623" fill="#F2F2F2" d="M30.5,30.3l-2,3.7l-1.7-1l1.4-3.5C28.4,29.5,30.5,30.3,30.5,30.3z"/><linearGradient id="path624_1_" x1="-707.039" x2="-713.629" y1="350.988" y2="370.703" gradientTransform="matrix(-0.4936 -0.1538 0.1763 -0.5658 -389.9567 133.702)" gradientUnits="userSpaceOnUse"><stop style="stop-color:#7e7ebd" id="stop623" offset="0"/><stop style="stop-color:#000" id="stop624" offset="1"/></linearGradient><path id="path624" fill="url(#path624_1_)" d="M19.2,44.2c-2-0.3-3-5.1-0.3-3.8c-0.4,1.2,2.4,5.4,3.7-0.3 c-1.4-0.5-1.4-5.4,2.4-6.2c1.8-1,4.4,1.1,4.2,3C29.3,45.2,21.7,45.4,19.2,44.2z"/></g></g></svg>