<svg xmlns="http://www.w3.org/2000/svg" xmlns:xlink="http://www.w3.org/1999/xlink" id="svg602" width="48" height="48" enable-background="new 0 0 48 48" overflow="visible" viewBox="0 0 48 48" xml:space="preserve"><g id="Layer_3"><path id="path605" d="M9.2,3.6C7.4,3.6,6,5,6,6.8 v37.5c0,1.8,1.4,3.2,3.2,3.2h33c1.8,0,3.2-1.4,3.2-3.2V6.8c0-1.8-1.4-3.2-3.2-3.2H9.2z" enable-background="new" opacity=".2"/><linearGradient id="path612_1_" x1="-456.7" x2="-417.3" y1="128.35" y2="128.35" gradientTransform="matrix(1 0 0 1 461 -104)" gradientUnits="userSpaceOnUse"><stop style="stop-color:#a7abac" id="stop608" offset="0"/><stop style="stop-color:#85898a" id="stop609" offset="1"/></linearGradient><path id="path612" fill="url(#path612_1_)" d="M7.5,2.4c-1.8,0-3.2,1.4-3.2,3.2v37.5c0,1.8,1.4,3.2,3.2,3.2h33 c1.8,0,3.2-1.4,3.2-3.2V5.6c0-1.8-1.4-3.2-3.2-3.2H7.5z"/><path id="path613" fill="#9CF" d="M5.3,43.1c0,1.2,1,2.3,2.3,2.3h33c1.2,0,2.3-1,2.3-2.3V5.6c0-1.2-1-2.3-2.3-2.3h-33 c-1.2,0-2.3,1-2.3,2.3V43.1z"/><linearGradient id="path620_1_" x1="-445.143" x2="-400.705" y1="120.207" y2="164.644" gradientTransform="matrix(1 0 0 1 461 -104)" gradientUnits="userSpaceOnUse"><stop style="stop-color:#fff" id="stop616" offset="0"/><stop style="stop-color:#9cf" id="stop617" offset="1"/></linearGradient><path id="path620" fill="url(#path620_1_)" d="M7.5,4.3c-0.7,0-1.3,0.6-1.3,1.3v37.5c0,0.7,0.6,1.3,1.3,1.3h33 c0.7,0,1.3-0.6,1.3-1.3V5.6c0-0.7-0.6-1.3-1.3-1.3H7.5z"/><path id="path621" fill="#FFF" d="M30.6,20.3 c3.5-3.3,7.7-4.9,12.2-5.7v-9c0-1.2-1-2.3-2.3-2.3h-33c-1.2,0-2.3,1-2.3,2.3v26.9C14.5,33.2,23.3,26.7,30.6,20.3z" enable-background="new" opacity=".4"/><g id="g622"><path id="path623" d="M16.1,16.8V20h3.5v1.9h-3.5v7.3c0,1.7,0.5,2.6,1.9,2.6c0.7,0,1.1-0.1,1.4-0.2l0.1,1.9 C19,33.8,18.3,34,17.3,34c-1.2,0-2.1-0.4-2.7-1c-0.7-0.8-1-2-1-3.6V22h-2.1v-2h2.1v-2.5L16.1,16.8z"/></g><g id="g624"><polygon id="polygon625" fill="#06C" points="26.3 34.5 26.3 17.9 20.3 17.9 20.3 14.1 37.5 14.1 37.5 17.9 31.5 17.9 31.5 34.5"/></g></g><g id="Layer_2_1_"><rect id="rect627" width="48" height="48" fill="none"/></g></svg>