<svg xmlns="http://www.w3.org/2000/svg" xmlns:xlink="http://www.w3.org/1999/xlink" id="svg602" width="48" height="48" enable-background="new 0 0 48 48" overflow="visible" viewBox="0 0 48 48" xml:space="preserve"><g id="Layer_3"><g id="g606"><linearGradient id="path977_1_" x1="-1078.067" x2="-1088.457" y1="38.162" y2="38.162" gradientTransform="matrix(1 0 0 1 1115.168 1.953125e-003)" gradientUnits="userSpaceOnUse"><stop style="stop-color:#e18330" id="stop608" offset="0"/><stop style="stop-color:#7c0023" id="stop609" offset="1"/></linearGradient><path id="path977_2_" fill="url(#path977_1_)" d="M38.6,41.5c0.9,2.3,1.6,5.1-3.8,6.2c-5.4,1-10-1.1-10.4-3.2 c0-4.8,4.6-10.3-4.2-14.5c-1.9-0.8,1.1-1.4,3.5-1.7c3.8-0.1,8.8,0,10.4,1.4C37.9,33.2,37.1,37.6,38.6,41.5z"/><path id="path655" fill="#FFF" d="M47.2,8.9c-1.6,1.3-3.6,2.7-5.7,3.9c-0.3,0.2-0.7,0.6-0.9,0.9c-0.3-1.9-1.1-3.5-3.1-4.7 C34.1,6.9,30,7.5,26.1,7.9c-1.1,0.3-2.7,1-2.7,2.1c0,2.4,0,2.4,0,0c0-0.3-0.8-0.7-0.8-0.7c-4.6,1.4-9.5-0.7-13.3,1.4 C3,14.3-2,22.2,1,28.4c1.1,1.8,4.6,1.4,6.8,1.4c1.9,0,2.7-2.4,4.2-1.8c1.1,0.3,2.4,0.3,3.4,0.1c-0.1,0.1-0.2,0.2-0.3,0.2 c6,2.4,12.6,4.2,19,3.9c5-0.7,8.4-5.5,7.2-10c-0.2-0.9-0.3-1.8-0.5-2.7c1.4,1.2,3.7-1.4,4.9-3C47.4,14.4,48.8,11.5,47.2,8.9z"/><radialGradient id="path861_1_" cx="-1090.824" cy="15.299" r="22.048" fx="-1090.824" fy="15.299" gradientTransform="matrix(1.131 0 0 1.1078 1252.2162 -6.5892)" gradientUnits="userSpaceOnUse"><stop style="stop-color:#fff" id="stop616" offset="0"/><stop style="stop-color:#f2f2f2" id="stop617" offset=".041"/><stop style="stop-color:#c1c1c1" id="stop618" offset=".213"/><stop style="stop-color:#999" id="stop619" offset=".384"/><stop style="stop-color:#7a7a7a" id="stop620" offset=".55"/><stop style="stop-color:#636363" id="stop621" offset=".711"/><stop style="stop-color:#565656" id="stop622" offset=".864"/><stop style="stop-color:#515151" id="stop623" offset="1"/></radialGradient><path id="path861_3_" fill="url(#path861_1_)" d="M20.5,23.9c-1.1,3.1-5,5.2-8.5,4.2c-1.6-0.7-2.4,1.8-4.2,1.8c-2.4,0-5.8,0.3-6.9-1.4c-3.1-6.3,1.9-14.3,8.5-17.8 c3.8-2.1,8.8,0,13.5-1.4c0,0,0.8,0.3,0.8,0.7C23.7,14.8,22.1,19.4,20.5,23.9z" enable-background="new" opacity=".59"/><radialGradient id="path987_1_" cx="-1079.888" cy="12.822" r="22.162" fx="-1079.888" fy="12.822" gradientTransform="matrix(1.131 0 0 1.1078 1252.2162 -6.5892)" gradientUnits="userSpaceOnUse"><stop style="stop-color:#ff9d56" id="stop641" offset="0"/><stop style="stop-color:#9f0023" id="stop642" offset="1"/></radialGradient><path id="path987_3_" fill="url(#path987_1_)" d="M41.6,22.2c1.1,4.4-2.4,9.4-7.4,10.1c-6.6,0.3-13-1.4-19.2-3.9 c5.8-4.5,8.5-11.5,8.5-18.5c0-1.1,1.6-1.8,2.7-2.1c3.8-0.3,8-1.1,11.5,1.1C42.4,11.7,40.5,17.6,41.6,22.2z"/><radialGradient id="path938_1_" cx="-1065.745" cy="13.987" r="10.303" fx="-1065.745" fy="13.987" gradientTransform="matrix(1.131 0 0 1.1078 1252.2162 -6.5892)" gradientUnits="userSpaceOnUse"><stop style="stop-color:#e18330" id="stop648" offset="0"/><stop style="stop-color:#7c0023" id="stop649" offset="1"/></radialGradient><path id="path938_3_" fill="url(#path938_1_)" d="M45.9,16.5c-1.2,1.8-4,4.8-5.2,2.5c-1-1.8-1-5.4,0.9-6.3 c2-1.2,4.1-2.5,5.7-3.9C48.9,11.4,47.5,14.3,45.9,16.5z"/><g id="g925_2_"><ellipse id="ellipse1004_4_" cx="11.6" cy="17.8" fill="#900" rx="3" ry="5.1" transform="matrix(-0.7667 -0.6421 0.6421 -0.7667 9.1273 38.949)"/><ellipse id="ellipse1004_2_" cx="11.6" cy="17.8" rx="2.1" ry="3.6" transform="matrix(-0.7666 -0.6421 0.6421 -0.7666 9.1227 38.9543)"/></g><g id="g931_2_"><g id="g932_2_"><path id="path933_2_" fill="#6D1E1E" d="M32.1,14.6c1.7,0.6,2.8,1.8,3.3,3.1c0.9-2.4,0-5-2.1-5.8c-2.1-0.8-4.6,0.7-5.7,3 C28.9,14.3,30.6,14.1,32.1,14.6z"/></g></g><path id="path1000_4_" fill="#7E0000" d="M31.7,16.4c2.3,0.9,3.1,4,1.8,7c-1.2,3-4.1,4.7-6.3,3.8c-2.3-0.9-3.1-4-1.8-7 S29.4,15.5,31.7,16.4z"/><radialGradient id="path1000_1_" cx="-2737.569" cy="-1619.939" r="4.072" fx="-2737.569" fy="-1619.939" gradientTransform="matrix(1.0814 1.1557 -1.1987 1.4851 1043.3512 5593.7656)" gradientUnits="userSpaceOnUse"><stop style="stop-color:#cacaca" id="stop662" offset=".006"/><stop style="stop-color:#d3d3d3" id="stop663" offset=".27"/><stop style="stop-color:#eaeaea" id="stop664" offset=".691"/><stop style="stop-color:#fff" id="stop665" offset="1"/></radialGradient><path id="path1000_2_" fill="url(#path1000_1_)" d="M31.2,17.5c1.8,0.8,2.4,3.2,1.4,5.7c-1,2.4-3.3,3.8-5,3 c-1.8-0.8-2.4-3.2-1.4-5.7C27.3,18.2,29.5,16.8,31.2,17.5z"/><circle id="circle1001_2_" cx="28.4" cy="22.9" r="1.9"/><path id="path719" fill="#2B0000" d="M11.2,24.7c-1.4,0.8-2,1-4.5,1c-2.6,0-4.2-0.9-6.7-0.3c-0.1,5.9,3.1,5,8.9,4.2 c1.2-0.2,3.2-1.4,4.4-2.3C14.3,26.7,13.4,24.7,11.2,24.7z"/><g id="g757"><path id="path1012_2_" fill="#6D1E1E" d="M26.9,3.2c3.5,0,4.4,3.1,4.8,4.8"/><path id="path1013_2_" fill="#6D1E1E" d="M26.4,4.1c3.1,0.1,4.3,2.4,4.8,4.8c0,0,0.7-0.8,0.7-0.9c0.1-0.2,0.6-0.7,0.5-1 c-0.6-2.3-1.8-4.7-4.8-4.8C27,2.2,26.6,4.1,26.4,4.1L26.4,4.1z"/><path id="path1016_1_" fill="#6D1E1E" d="M31.7,1.8C33.8,4,32.8,5.6,31.9,8"/><path id="path1017_2_" fill="#6D1E1E" d="M31.1,2.7c1.8,2,1.1,3.8,0.2,6c-0.1,0.4,0.3-0.2,0.3-0.2C32,8,32.3,7.6,32.5,7.2 c0.9-2.3,1.7-4.2-0.1-6.3C32.4,1,30.9,2.3,31.1,2.7L31.1,2.7z"/><path id="path1020_2_" fill="#6D1E1E" d="M39.7,1c0.1,1.3-2,3-2.8,4.2c-1.1,1.8-3.3,2-5.9,3.1"/><path id="path1021_2_" fill="#6D1E1E" d="M39.2,1.9c0,0.9-1.9,2.8-2.6,3.4c-1.2,1.1-3.3,1.6-4.9,2.1c-0.6,0.2-0.8,1.7-1,1.8 c1.4-0.6,2.8-1,4.2-1.7C36,7,36.5,6,37.2,5.2c1.1-1.3,3.1-3.1,3.2-5C40.3,0.4,39.2,1.3,39.2,1.9L39.2,1.9z"/><path id="path1024_1_" fill="#6D1E1E" d="M34.5,1.4c1.7,2.2-1.7,4.5-2.8,6.6"/><path id="path1025_1_" fill="#6D1E1E" d="M33.9,2.4c0.9,1.3,0.2,2.3-0.8,3.4c-0.7,0.8-1.2,1.7-1.8,2.5c0,0.1-0.3,0.8-0.3,0.7 c0.3-0.2,0.6-0.8,0.8-1.1c1.2-2,5-4.8,3.2-7.3C35.2,0.7,33.7,2,33.9,2.4L33.9,2.4z"/><path id="path1028_2_" fill="#6D1E1E" d="M37.2,0.8c0.2,2.2-1.9,6-5.2,6.9"/><path id="path1029_2_" fill="#6D1E1E" d="M36.7,1.7c0.1,2.3-1.6,4.3-4,5.1c-0.3,0.1-0.6,0.7-0.7,0.9c0,0.1-0.5,0.9-0.5,1 C35,7.6,38,3.2,37.9,0C37.8,0.1,36.7,1,36.7,1.7L36.7,1.7z"/><path id="path1032_1_" fill="#6D1E1E" d="M42.1,1.7C41.6,5.5,35.8,7.3,31,8.5"/><path id="path1033_1_" fill="#6D1E1E" d="M41.4,2.4c-0.2,1.7-2.5,2.5-4,3.2c-1.9,0.8-4,1.4-6,1.9c-0.7,0.1-0.8,1.7-1.1,1.8 c5-1.2,11.4-3.2,12.3-8.6C42.5,1.1,41.5,1.9,41.4,2.4L41.4,2.4z"/><path id="path1036_2_" fill="#6D1E1E" d="M44.7,1.9c-0.5,4.8-7.9,5-13,6.2"/><path id="path1037_2_" fill="#6D1E1E" d="M44.1,2.7c-0.2,2-3.2,2.7-4.9,3.1c-2.3,0.6-4.8,0.8-7,1.3c-0.6,0.1-0.8,1.8-1.1,1.8 C36.5,7.8,44.6,7.4,45.4,1C45.3,1.3,44.2,2.1,44.1,2.7L44.1,2.7z"/></g></g><rect id="rect691" width="48" height="48" fill="none"/><g id="g649"><path id="path219" fill="#FFF" d="M4.4,30l-2.8,0.4c-0.5,0.1-0.8,0.6-0.8,1.1L0.9,32c-0.1-0.5,0.2-1,0.7-1.1l2.8-0.5 c0.5,0,0.9,0.4,1,0.9l0-0.4C5.4,30.3,4.9,29.9,4.4,30z"/><linearGradient id="path251_1_" x1="-2385.854" x2="-2375.668" y1="-64.106" y2="-64.106" gradientTransform="matrix(0.125 0 0 0.125 317.2896 42.0137)" gradientUnits="userSpaceOnUse"><stop style="stop-color:#a7abac" id="stop695" offset="0"/><stop style="stop-color:#85898a" id="stop696" offset="1"/></linearGradient><path id="path251" fill="url(#path251_1_)" d="M20.3,39L19,29.1L20.3,39z"/><path id="path252" d="M1.1,30.2 c0.2,2.1,0.5,4.3,0.6,6.3c0.5,1.1,1.2,2,2.1,2.8l6.6,6.6l4.8-0.9c3.1-3,7.4-7.4,7.3-7.4c0.9-1.5,1.5-3.2,1.5-5.1 c0-4.6-3.3-8.4-7.4-8.4c-1.5,0-2.9,0.5-4.2,1.5c-1.2-1-2.7-1.5-4.3-1.5C4.8,24,1.9,26.6,1.1,30.2z" enable-background="new" opacity=".2"/><path id="path253" fill="#C00" d="M11.6,25.7c-1.2-1.1-2.7-1.6-4.2-1.6c-4,0-7.4,3.8-7.4,8.4c0,2.7,1.2,5.3,3,6.8l0,0 l8.6,8.6c0,0,10.2-10.3,10.1-10.3c1-1.5,1.6-3.3,1.6-5.1c0-4.6-3.3-8.4-7.3-8.4C14.3,24.2,12.8,24.7,11.6,25.7z"/><path id="path254" fill="red" d="M22.7,32.6c0-4.3-3.1-7.8-6.9-7.8c-1.6,0-3.1,0.6-4.3,1.6c-1.2-1.1-2.6-1.6-4.2-1.6 c-3.8-0.1-6.9,3.5-6.9,7.8c0,2.6,1.1,4.9,2.8,6.3l8.3,8.4l9-8.9h0C21.9,36.9,22.7,34.9,22.7,32.6z"/><linearGradient id="path261_1_" x1="-2316.722" x2="-2391.362" y1="-31.468" y2="77.694" gradientTransform="matrix(0.1694 0 0 0.2099 409.6862 28.1805)" gradientUnits="userSpaceOnUse"><stop style="stop-color:#fff" id="stop705" offset="0"/><stop style="stop-color:red" id="stop706" offset="1"/></linearGradient><path id="path261" fill="url(#path261_1_)" d="M15.9,25.3c-1.4,0-2.6,0.5-3.7,1.4l-0.5,0.5l0,0.1l-0.6-0.6 c-1.1-0.9-2.3-1.4-3.7-1.4c-3.2,0-5.8,2.9-5.8,6.4c0,2,0.8,3.9,2.3,5L4,36.8c0,0,6.2,6.3,7.6,7.6c0,0.1,0,0.1,0.1,0.1 c1-1,7-6.9,7.9-7.7c0.1-0.1,0.4-0.5,0.4-0.5c1.2-1.2,1.8-2.8,1.8-4.6C21.6,28.2,19.1,25.3,15.9,25.3z"/><radialGradient id="path268_1_" cx="-2235.996" cy="145.958" r="121.011" fx="-2235.996" fy="145.958" gradientTransform="matrix(0.1303 0 0 0.1733 302.3726 26.438)" gradientUnits="userSpaceOnUse"><stop style="stop-color:#ca002d" id="stop712" offset="0"/><stop style="stop-color:red" id="stop713" offset="1"/></radialGradient><path id="path268" fill="url(#path268_1_)" d="M18.7,39.5c-1.2-3.8-4-6.6-7.4-6.6c-3.2,0-6,2.6-7.3,6.1c1.7,1.7,6.8,6.9,7.4,7.5 C12.1,46.1,16.6,41.6,18.7,39.5z"/></g></g></svg>